<?xml version="1.0" encoding="UTF-8"?>
<svg id="Layer_2" data-name="Layer 2" xmlns="http://www.w3.org/2000/svg" viewBox="0 0 218.53 209.44">
  <defs>
    <style>
      .cls-1 {
        fill: #fff;
      }
    </style>
  </defs>
  <g id="Layer_1-2" data-name="Layer 1">
    <path class="cls-1" d="m218.53,104.72c0,11.24-11.74,20.48-15.04,30.62s.54,24.87-5.83,33.61-21.35,9.48-30.18,15.91-13.94,20.39-24.45,23.8-22.54-4.89-33.77-4.89-23.63,8.19-33.77,4.89-15.7-17.44-24.45-23.8c-8.83-6.43-23.75-7.08-30.18-15.91s-2.41-23.1-5.83-33.61c-3.29-10.14-15.04-19.38-15.04-30.62s11.74-20.48,15.04-30.62-.54-24.87,5.83-33.61,21.35-9.48,30.18-15.91S64.98,4.19,75.49.78s22.54,4.89,33.77,4.89,23.63-8.19,33.77-4.89c10.51,3.41,15.7,17.44,24.45,23.8,8.83,6.43,23.75,7.08,30.18,15.91,6.37,8.75,2.41,23.1,5.83,33.61s15.04,19.38,15.04,30.62Z"/>
  </g>
</svg>