<?xml version="1.0" encoding="utf-8"?>
<!-- Generator: Adobe Illustrator 23.0.4, SVG Export Plug-In . SVG Version: 6.00 Build 0)  -->
<svg version="1.1" id="Layer_1" xmlns="http://www.w3.org/2000/svg" xmlns:xlink="http://www.w3.org/1999/xlink" x="0px" y="0px"
	 viewBox="0 0 841.89 595.28" style="enable-background:new 0 0 841.89 595.28;" xml:space="preserve">
<style type="text/css">
	.st0{fill:#231F20;}
</style>
<path class="st0" d="M420.94,219.22c-43.31,0-78.42,35.11-78.42,78.42s35.11,78.42,78.42,78.42s78.42-35.11,78.42-78.42
	C499.37,254.33,464.26,219.22,420.94,219.22z M396.48,340.43c-7.27,0-13.17-5.9-13.17-13.17s5.9-13.17,13.17-13.17
	s13.17,5.9,13.17,13.17S403.75,340.43,396.48,340.43z M427.06,310.81c-7.27,0-37.64-13.17-37.64-13.17s30.37-13.17,37.64-13.17
	s13.17,5.9,13.17,13.17S434.34,310.81,427.06,310.81z M445.41,281.18c-7.27,0-49.88-13.17-49.88-13.17s42.6-13.17,49.88-13.17
	s13.17,5.9,13.17,13.17S452.69,281.18,445.41,281.18z"/>
</svg>
