<?xml version="1.0" encoding="UTF-8"?>
<svg width="158px" height="158px" viewBox="0 0 158 158" version="1.1" xmlns="http://www.w3.org/2000/svg" xmlns:xlink="http://www.w3.org/1999/xlink">
    <g id="Page-1" stroke="none" stroke-width="1" fill="none" fill-rule="evenodd">
        <g id="Logo_mark_black-subtract_TURBO-FLAKES_" fill="#231F20" fill-rule="nonzero">
            <path d="M78.94,0.22 C35.63,0.22 0.52,35.33 0.52,78.64 C0.52,121.95 35.63,157.06 78.94,157.06 C122.25,157.06 157.360002,121.95 157.360002,78.64 C157.37,35.33 122.26,0.22 78.94,0.22 Z M54.48,121.43 C47.21,121.43 41.31,115.53 41.31,108.26 C41.31,100.99 47.21,95.09 54.48,95.09 C61.75,95.09 67.65,100.99 67.65,108.26 C67.65,115.53 61.75,121.43 54.48,121.43 Z M85.06,91.81 C77.79,91.81 47.42,78.64 47.42,78.64 C47.42,78.64 77.79,65.47 85.06,65.47 C92.33,65.47 98.23,71.37 98.23,78.64 C98.23,85.91 92.34,91.81 85.06,91.81 Z M103.41,62.18 C96.14,62.18 53.53,49.01 53.53,49.01 C53.53,49.01 96.13,35.84 103.41,35.84 C110.69,35.84 116.58,41.74 116.58,49.01 C116.58,56.28 110.69,62.18 103.41,62.18 Z" id="Shape"></path>
        </g>
    </g>
</svg>