<svg xmlns="http://www.w3.org/2000/svg" width="367.09" height="88.9" viewBox="0 0 367.09 88.9">
  <g id="Logo_1_color-subtract_TURBO_FLAKES_" data-name="Logo 1_color-subtract_TURBO FLAKES_" transform="translate(-237.4 -253.19)">
    <path id="Path_26" data-name="Path 26" d="M281.85,253.19a44.45,44.45,0,1,0,44.45,44.45A44.449,44.449,0,0,0,281.85,253.19ZM267.98,321.9a7.47,7.47,0,1,1,7.47-7.47A7.471,7.471,0,0,1,267.98,321.9Zm17.34-16.8c-4.12,0-21.34-7.47-21.34-7.47s17.21-7.47,21.34-7.47a7.47,7.47,0,0,1,0,14.94Zm10.4-16.79c-4.12,0-28.27-7.47-28.27-7.47s24.15-7.47,28.27-7.47a7.47,7.47,0,0,1,0,14.94Z" fill="#ed1c24"/>
    <g id="Group_5" data-name="Group 5">
      <path id="Path_27" data-name="Path 27" d="M365.99,281.1v6.38h-9.14v27.46h-6.67V287.48h-9.09V281.1Z" fill="#ed1c24"/>
      <path id="Path_28" data-name="Path 28" d="M399.69,294.93c1.16-3.09,4.06-4.64,7.35-4.64v6.96a7.257,7.257,0,0,0-5.13,1.16c-1.5,1.02-2.22,2.66-2.22,4.98v11.55h-6.24V290.77h6.24Z" fill="#ed1c24"/>
      <path id="Path_29" data-name="Path 29" d="M433.04,293.82a13.547,13.547,0,0,1,0,18.13,10.887,10.887,0,0,1-8.31,3.67,9.315,9.315,0,0,1-7.83-3.53v2.85h-6.24V281.1h6.24v12.52a9.315,9.315,0,0,1,7.83-3.53A10.964,10.964,0,0,1,433.04,293.82Zm-9.47,15.86a6.5,6.5,0,0,0,4.79-1.89,6.677,6.677,0,0,0,1.93-4.93,6.486,6.486,0,0,0-1.93-4.88,6.909,6.909,0,0,0-9.58,0,6.625,6.625,0,0,0-1.89,4.88,6.806,6.806,0,0,0,1.89,4.93A6.48,6.48,0,0,0,423.57,309.68Z" fill="#ed1c24"/>
      <path id="Path_30" data-name="Path 30" d="M452.43,315.62a12.76,12.76,0,1,1,9.09-21.8,12.26,12.26,0,0,1,3.72,9.04,12.619,12.619,0,0,1-12.81,12.76Zm0-6.09a6.347,6.347,0,0,0,4.69-1.89,7.015,7.015,0,0,0,0-9.58,6.764,6.764,0,0,0-9.38,0,7.155,7.155,0,0,0,0,9.58A6.331,6.331,0,0,0,452.43,309.53Z" fill="#ed1c24"/>
      <path id="Path_31" data-name="Path 31" d="M490.14,287.49H476.6v8.02h13.15v6.38H476.6v13.05h-6.67V281.1h20.21v6.39Z" fill="#ed1c24"/>
      <path id="Path_32" data-name="Path 32" d="M494.73,314.95V279.66h6.24v35.29Z" fill="#ed1c24"/>
      <path id="Path_33" data-name="Path 33" d="M524.28,290.77h6.24v24.17h-6.24v-2.85a9.476,9.476,0,0,1-7.88,3.53,11.018,11.018,0,0,1-8.32-3.67,13.694,13.694,0,0,1,0-18.13,11.017,11.017,0,0,1,8.32-3.72,9.476,9.476,0,0,1,7.88,3.53Zm-6.72,18.91a6.5,6.5,0,0,0,4.79-1.89,6.677,6.677,0,0,0,1.93-4.93,6.486,6.486,0,0,0-1.93-4.88,6.909,6.909,0,0,0-9.58,0,6.625,6.625,0,0,0-1.89,4.88,6.806,6.806,0,0,0,1.89,4.93A6.5,6.5,0,0,0,517.56,309.68Z" fill="#ed1c24"/>
      <path id="Path_34" data-name="Path 34" d="M557.79,314.95h-7.25l-8.8-10.97v10.97H535.5V281.1h6.24v20.3l8.31-10.64h7.45l-9.72,11.94Z" fill="#ed1c24"/>
      <path id="Path_35" data-name="Path 35" d="M564.41,305.42c.82,3.05,3.09,4.54,6.82,4.54a6.421,6.421,0,0,0,5.42-2.42l5.03,2.9c-2.37,3.43-5.9,5.17-10.54,5.17a13.011,13.011,0,0,1-9.62-3.62,12.374,12.374,0,0,1-3.62-9.14,12.5,12.5,0,0,1,3.58-9.09,12.182,12.182,0,0,1,9.19-3.67,11.4,11.4,0,0,1,8.75,3.67,12.713,12.713,0,0,1,3.48,9.09,16.949,16.949,0,0,1-.24,2.56H564.41Zm12.23-4.83a5.838,5.838,0,0,0-5.99-4.88,6.02,6.02,0,0,0-6.33,4.88Z" fill="#ed1c24"/>
      <path id="Path_36" data-name="Path 36" d="M596.42,300.3c3.53.73,8.12,2.42,8.07,7.59a6.659,6.659,0,0,1-2.8,5.75,11.729,11.729,0,0,1-6.91,1.98c-4.98,0-8.36-1.93-10.15-5.75l5.42-3.05c.73,2.08,2.27,3.14,4.74,3.14,2.22,0,3.33-.68,3.33-2.08,0-1.3-1.93-2.03-4.4-2.66-3.58-.92-8.07-2.42-8.07-7.45a6.742,6.742,0,0,1,2.61-5.61,11.029,11.029,0,0,1,15.76,3.04l-5.32,2.9a4,4,0,0,0-3.87-2.47c-1.59,0-2.8.77-2.8,1.98C592.02,298.94,593.95,299.67,596.42,300.3Z" fill="#ed1c24"/>
      <path id="Path_37" data-name="Path 37" d="M381.51,290.77v14.07c0,3.24-1.88,4.98-4.79,4.98h-.53c-2.9,0-4.79-1.74-4.79-4.98V290.77h-6.24v14.84a10.237,10.237,0,0,0,2.56,7.35,8.75,8.75,0,0,0,6.58,2.66h4.3a8.75,8.75,0,0,0,6.58-2.66,10.237,10.237,0,0,0,2.56-7.35V290.77Z" fill="#ed1c24"/>
    </g>
  </g>
</svg>
