<svg xmlns="http://www.w3.org/2000/svg" width="263.4" height="144.74" viewBox="0 0 263.4 144.74"><g transform="translate(-289.24 -225.27)"><path d="M420.95,225.27a44.45,44.45,0,1,0,44.45,44.45A44.449,44.449,0,0,0,420.95,225.27Zm-13.88,68.71a7.47,7.47,0,1,1,7.47-7.47A7.471,7.471,0,0,1,407.07,293.98Zm17.34-16.79c-4.12,0-21.34-7.47-21.34-7.47s17.21-7.47,21.34-7.47a7.47,7.47,0,1,1,0,14.94Zm10.4-16.8c-4.12,0-28.27-7.47-28.27-7.47s24.15-7.47,28.27-7.47a7.47,7.47,0,0,1,0,14.94Z" fill="#ed1c24"/><path d="M314.14,335.49v6.38H305v27.46h-6.67V341.87h-9.09v-6.38Z" fill="#ed1c24"/><path d="M347.84,349.31c1.16-3.09,4.06-4.64,7.35-4.64v6.96a7.257,7.257,0,0,0-5.13,1.16c-1.5,1.02-2.22,2.66-2.22,4.98v11.55H341.6V345.15h6.24Z" fill="#ed1c24"/><path d="M381.2,348.2a13.547,13.547,0,0,1,0,18.13,10.887,10.887,0,0,1-8.31,3.67,9.315,9.315,0,0,1-7.83-3.53v2.85h-6.24V335.48h6.24V348a9.315,9.315,0,0,1,7.83-3.53A11.03,11.03,0,0,1,381.2,348.2Zm-9.48,15.86a6.5,6.5,0,0,0,4.79-1.89,6.677,6.677,0,0,0,1.93-4.93,6.486,6.486,0,0,0-1.93-4.88,6.909,6.909,0,0,0-9.58,0,6.625,6.625,0,0,0-1.89,4.88,6.806,6.806,0,0,0,1.89,4.93A6.5,6.5,0,0,0,371.72,364.06Z" fill="#ed1c24"/><path d="M400.58,370.01a12.619,12.619,0,1,1,9.09-3.67A12.383,12.383,0,0,1,400.58,370.01Zm0-6.09a6.347,6.347,0,0,0,4.69-1.89,7.015,7.015,0,0,0,0-9.58,6.764,6.764,0,0,0-9.38,0,7.155,7.155,0,0,0,0,9.58A6.347,6.347,0,0,0,400.58,363.92Z" fill="#ed1c24"/><path d="M438.29,341.87H424.75v8.02H437.9v6.38H424.75v13.05h-6.67V335.48h20.21v6.39Z" fill="#ed1c24"/><path d="M442.89,369.33V334.04h6.24v35.29Z" fill="#ed1c24"/><path d="M472.44,345.16h6.24v24.17h-6.24v-2.85a9.476,9.476,0,0,1-7.88,3.53,11.018,11.018,0,0,1-8.32-3.67,13.694,13.694,0,0,1,0-18.13,11.017,11.017,0,0,1,8.32-3.72,9.476,9.476,0,0,1,7.88,3.53Zm-6.72,18.9a6.5,6.5,0,0,0,4.79-1.89,6.677,6.677,0,0,0,1.93-4.93,6.486,6.486,0,0,0-1.93-4.88,6.909,6.909,0,0,0-9.58,0,6.625,6.625,0,0,0-1.89,4.88,6.806,6.806,0,0,0,1.89,4.93A6.48,6.48,0,0,0,465.72,364.06Z" fill="#ed1c24"/><path d="M505.94,369.33h-7.25l-8.8-10.97v10.97h-6.24V335.49h6.24v20.3l8.31-10.64h7.45l-9.72,11.94Z" fill="#ed1c24"/><path d="M512.57,359.8c.82,3.05,3.09,4.54,6.82,4.54a6.421,6.421,0,0,0,5.42-2.42l5.03,2.9c-2.37,3.43-5.9,5.17-10.54,5.17a13.011,13.011,0,0,1-9.62-3.62,12.374,12.374,0,0,1-3.62-9.14,12.5,12.5,0,0,1,3.58-9.09,12.182,12.182,0,0,1,9.19-3.67,11.4,11.4,0,0,1,8.75,3.67,12.713,12.713,0,0,1,3.48,9.09,16.949,16.949,0,0,1-.24,2.56H512.57Zm12.23-4.83a5.838,5.838,0,0,0-5.99-4.88,6.02,6.02,0,0,0-6.33,4.88Z" fill="#ed1c24"/><path d="M544.57,354.68c3.53.73,8.12,2.42,8.07,7.59a6.659,6.659,0,0,1-2.8,5.75,11.729,11.729,0,0,1-6.91,1.98c-4.98,0-8.36-1.93-10.15-5.75l5.42-3.05c.73,2.08,2.27,3.14,4.74,3.14,2.22,0,3.33-.68,3.33-2.08,0-1.3-1.93-2.03-4.4-2.66-3.58-.92-8.07-2.42-8.07-7.45a6.742,6.742,0,0,1,2.61-5.61,11.029,11.029,0,0,1,15.76,3.04l-5.32,2.9a4,4,0,0,0-3.87-2.47c-1.59,0-2.8.77-2.8,1.98C540.17,353.33,542.11,354.05,544.57,354.68Z" fill="#ed1c24"/><path d="M329.66,345.16v14.07c0,3.24-1.88,4.98-4.79,4.98h-.53c-2.9,0-4.79-1.74-4.79-4.98V345.16h-6.24V360a10.237,10.237,0,0,0,2.56,7.35,8.75,8.75,0,0,0,6.58,2.66h4.3a8.75,8.75,0,0,0,6.58-2.66,10.237,10.237,0,0,0,2.56-7.35V345.16Z" fill="#ed1c24"/></g></svg>