<?xml version="1.0" encoding="UTF-8"?>
<svg width="73px" height="82px" viewBox="0 0 73 82" version="1.1" xmlns="http://www.w3.org/2000/svg" xmlns:xlink="http://www.w3.org/1999/xlink">
    <title>Shape</title>
    <g id="Page-1" stroke="none" stroke-width="1" fill="none" fill-rule="evenodd">
        <g id="LOGO_CLAIM.IT_vaÌrias-versoÌƒes" transform="translate(-3161.000000, -714.000000)" fill="#000000" fill-rule="nonzero">
            <g id="Group-2" transform="translate(3129.000000, 690.000000)">
                <g id="Group" transform="translate(32.000000, 24.000000)">
                    <path d="M59.7,35.3 L62.2,35.9 L62.2,33.4 L64.7,34 L64.7,31.5 L67.2,32.1 L67.2,29.6 L69.7,30.2 L69.7,27.7 L72.2,28.3 L72.2,7.5 L44.9,1.1 C35.6,-1.1 26.9,0.9 20.8,6.3 C19.9,6.9 19.1,7.5 18.4,8.2 C17.5,8.8 16.7,9.4 16,10.1 C15.3,10.6 14.6,11.1 14,11.6 L11,14 L11,14 C10.5,14.3 10,14.7 9.5,15.1 C3.6,19.8 0.3,27 0.3,35.5 C0.3,53.1 14.6,70.8 32.3,74.9 L59.9,81.3 L59.9,78.8 L62.4,79.4 L62.4,76.9 L64.9,77.5 L64.9,75 L67.4,75.6 L67.4,73.1 L69.9,73.7 L69.9,71.2 L72.4,71.8 L72.4,51 L53.7,46.6 C47.7,45.2 42.8,39.5 42.2,33.6 L59.9,37.7 L59.9,35.3 L59.7,35.3 Z M44.5,2.4 L70.9,8.5 L70.9,26.6 L69.7,26.3 L69.7,9.3 L42.4,2.9 C38,1.9 33.7,1.8 29.8,2.6 C34.2,1.3 39.2,1.2 44.5,2.4 Z M42,4.3 L68.4,10.4 L68.4,28.5 L67.2,28.2 L67.2,11.2 L39.8,5 C35.6,4 31.5,3.9 27.7,4.5 C32.1,3.2 37,3.1 42,4.3 Z M39.5,6.2 L65.9,12.3 L65.9,30.4 L64.7,30.1 L64.7,13.1 L37.4,6.7 C33.1,5.7 28.8,5.6 24.9,6.3 C29.3,5.1 34.3,5 39.5,6.2 Z M37.1,8.1 L63.5,14.2 L63.5,32.3 L62.3,32 L62.3,15 L35,8.6 C30.6,7.6 26.3,7.5 22.3,8.3 C26.7,7 31.7,6.9 37.1,8.1 Z M34.6,10 L61,16.1 L61,34.2 L59.8,33.9 L59.8,16.9 L32.5,10.5 C28.2,9.5 24,9.4 20.2,10.1 C24.5,8.9 29.4,8.8 34.6,10 Z M60.9,77.8 L59.7,77.5 L59.7,60.5 L41,56.1 C34.6,54.6 29.5,48.2 29.5,41.9 C29.5,39.6 30.2,37.6 31.4,36.1 C31,37.3 30.7,38.6 30.7,40 C30.7,46.9 36.3,53.8 43.2,55.5 L60.9,59.6 L60.9,77.8 L60.9,77.8 Z M63.4,75.9 L62.2,75.6 L62.2,58.6 L43.5,54.2 C37.1,52.7 32,46.3 32,40 C32,37.8 32.7,35.7 33.9,34.2 C33.5,35.4 33.2,36.7 33.2,38.1 C33.2,45 38.8,51.9 45.7,53.6 L63.4,57.7 L63.4,75.9 L63.4,75.9 Z M65.9,74 L64.7,73.7 L64.7,56.7 L46,52.3 C39.6,50.8 34.5,44.4 34.5,38.1 C34.5,36.3 34.9,34.7 35.7,33.3 C35.8,33.3 36,33.2 36.1,33.2 C35.9,34.1 35.7,35.1 35.7,36.2 C35.7,43.1 41.3,50.1 48.2,51.7 L65.9,55.8 L65.9,74 Z M68.4,72.1 L67.2,71.8 L67.2,54.8 L48.5,50.4 C42.1,48.9 37,42.5 37,36.2 C37,35.1 37.2,34 37.5,33 C37.8,33 38,33 38.3,33 C38.3,33.4 38.2,33.8 38.2,34.3 C38.2,41.2 43.8,48.1 50.7,49.8 L68.4,53.9 L68.4,72.1 L68.4,72.1 Z M53.2,47.9 L70.9,52 L70.9,70.1 L69.7,69.8 L69.7,52.8 L51,48.4 C44.6,46.9 39.5,40.5 39.5,34.2 C39.5,33.8 39.5,33.4 39.6,33 C40,33 40.4,33.1 40.8,33.2 C41.1,40 46.6,46.4 53.2,47.9 Z M58.4,36.2 L41,32.1 C38.8,31.6 36.7,31.7 34.8,32.3 L34.8,32.3 C34.8,32.3 34.8,32.3 34.8,32.3 C34.3,32.5 33.9,32.6 33.4,32.9 L33.4,32.9 C33.4,32.9 33.3,33 33.3,33 C32.8,33.3 32.3,33.6 31.8,34 C29.4,35.9 28.1,38.7 28.1,42.1 C28.1,49 33.7,56 40.6,57.6 L58.3,61.7 L58.3,79.8 L32.2,73.7 C15.1,69.7 1.2,52.6 1.2,35.5 C1.2,27.4 4.3,20.6 9.9,16.1 C14,12.8 19.2,11.1 24.8,11.1 C27.1,11.1 29.5,11.4 31.9,11.9 L58.3,18 L58.3,36.2 L58.4,36.2 Z" id="Shape"></path>
                </g>
            </g>
        </g>
    </g>
</svg>