<?xml version="1.0" encoding="UTF-8"?>
<svg width="347px" height="335px" viewBox="0 0 347 335" version="1.1" xmlns="http://www.w3.org/2000/svg" xmlns:xlink="http://www.w3.org/1999/xlink">
    <title>Group</title>
    <g id="Page-1" stroke="none" stroke-width="1" fill="none" fill-rule="evenodd">
        <g id="Artboard" transform="translate(-2040.000000, -459.000000)">
            <g id="ROBOTS_All_v3" transform="translate(181.000000, 70.000000)">
                <g id="Group" transform="translate(1621.000000, 389.000000)">
                    <g transform="translate(240.000000, 0.000000)">
                        <g>
                            <g transform="translate(153.000000, 0.000000)">
                                <circle id="Oval" fill="#0F1923" fill-rule="nonzero" cx="15.5" cy="7.5" r="7.2"></circle>
                                <path d="M0.5,78.5 C1.4,78.2 14.8,68.7 14.8,68.7 L5,54.4 L19.4,45.3 L8.2,37 L16.6,27.2 L15.9,12.9" id="Path" stroke="#0F1923" stroke-width="4"></path>
                            </g>
                            <g transform="translate(0.000000, 53.000000)" fill-rule="nonzero" id="Path" stroke="#0F1923">
                                <path d="M241.9,242.8 L337.3,77.6 C352.5,51.2 333.5,18.2 303,18.2 L112.2,18.2 C81.7,18.2 62.7,51.2 77.9,77.6 L173.3,242.8 C188.6,269.2 226.7,269.2 241.9,242.8 Z" stroke-width="3.7387" fill="#0F1923"></path>
                                <path d="M241.6,242.9 L337.1,77.5 C352.4,51.1 333.3,18 302.8,18 L111.8,18 C81.3,18 62.2,51 77.5,77.5 L173,242.9 C188.2,269.3 226.4,269.3 241.6,242.9 Z" stroke-width="3.7404" fill="#101A24"></path>
                                <path d="M241.3,243 L336.9,77.4 C352.2,51 333.1,17.9 302.5,17.9 L111.3,17.9 C80.8,17.9 61.7,51 76.9,77.4 L172.5,243 C187.9,269.4 226,269.4 241.3,243 Z" stroke-width="3.7422" fill="#121B25"></path>
                                <path d="M241,243.1 L336.7,77.4 C352,50.9 332.9,17.8 302.3,17.8 L111,17.8 C80.4,17.8 61.3,50.9 76.6,77.4 L172.3,243.1 C187.5,269.5 225.7,269.5 241,243.1 Z" stroke-width="3.7439" fill="#131C26"></path>
                                <path d="M240.7,243.2 L336.5,77.3 C351.8,50.8 332.7,17.7 302.1,17.7 L110.6,17.7 C80,17.7 60.9,50.8 76.2,77.3 L172,243.2 C187.1,269.7 225.4,269.7 240.7,243.2 Z" stroke-width="3.7456" fill="#151D27"></path>
                                <path d="M240.3,243.3 L336.2,77.3 C351.5,50.8 332.4,17.6 301.7,17.6 L110,17.6 C79.4,17.6 60.2,50.8 75.5,77.3 L171.4,243.3 C186.8,269.8 225,269.8 240.3,243.3 Z" stroke-width="3.7474" fill="#161E28"></path>
                                <path d="M240,243.4 L335.9,77.2 C351.2,50.7 332.1,17.5 301.4,17.5 L109.5,17.5 C78.8,17.5 59.7,50.7 75,77.2 L170.9,243.4 C186.4,269.9 224.7,269.9 240,243.4 Z" stroke-width="3.7491" fill="#171F29"></path>
                                <path d="M239.7,243.5 L335.7,77.2 C351,50.6 331.9,17.4 301.2,17.4 L109.1,17.4 C78.4,17.4 59.2,50.6 74.6,77.2 L170.6,243.5 C186,270 224.4,270 239.7,243.5 Z" stroke-width="3.7508" fill="#18202A"></path>
                                <path d="M239.4,243.5 L335.5,77 C350.9,50.4 331.7,17.2 300.9,17.2 L108.7,17.2 C78,17.2 58.8,50.4 74.1,77 L170.2,243.5 C185.6,270.1 224,270.1 239.4,243.5 Z" stroke-width="3.7525" fill="#1A212B"></path>
                                <path d="M239.1,243.6 L335.3,77 C350.7,50.4 331.5,17.1 300.7,17.1 L108.3,17.1 C77.6,17.1 58.3,50.4 73.7,77 L169.9,243.6 C185.3,270.3 223.7,270.3 239.1,243.6 Z" stroke-width="3.7543" fill="#1B222C"></path>
                                <path d="M238.8,243.7 L335.1,76.9 C350.5,50.3 331.3,16.9 300.5,16.9 L107.9,16.9 C77.1,16.9 57.9,50.2 73.3,76.9 L169.6,243.7 C184.9,270.4 223.4,270.4 238.8,243.7 Z" stroke-width="3.756" fill="#1C232C"></path>
                                <path d="M238.4,243.8 L334.8,76.8 C350.2,50.1 331,16.8 300.2,16.8 L107.4,16.8 C76.6,16.8 57.4,50.1 72.8,76.8 L169.2,243.8 C184.5,270.5 223,270.5 238.4,243.8 Z" stroke-width="3.7577" fill="#1D242D"></path>
                                <path d="M238.1,243.9 L334.6,76.8 C350,50.1 330.7,16.7 299.9,16.7 L106.9,16.7 C76.1,16.7 56.8,50.1 72.2,76.8 L168.7,243.9 C184.2,270.6 222.7,270.6 238.1,243.9 Z" stroke-width="3.7595" fill="#1E252E"></path>
                                <path d="M237.8,244 L334.4,76.7 C349.8,50 330.5,16.6 299.7,16.6 L106.6,16.6 C75.7,16.6 56.5,50 71.9,76.7 L168.5,244 C183.8,270.7 222.4,270.7 237.8,244 Z" stroke-width="3.7612" fill="#20262F"></path>
                                <path d="M237.5,244.1 L334.2,76.7 C349.6,50 330.3,16.5 299.5,16.5 L106.2,16.5 C75.3,16.5 56,49.9 71.5,76.7 L168.2,244.1 C183.4,270.9 222,270.9 237.5,244.1 Z" stroke-width="3.7629" fill="#212730"></path>
                                <path d="M237.2,244.2 L334,76.6 C349.5,49.8 330.1,16.4 299.2,16.4 L105.7,16.4 C74.8,16.4 55.5,49.9 70.9,76.6 L167.7,244.2 C183.1,271 221.7,271 237.2,244.2 Z" stroke-width="3.7647" fill="#222831"></path>
                                <path d="M236.9,244.3 L333.7,76.6 C349.2,49.8 329.8,16.3 298.9,16.3 L105.2,16.3 C74.3,16.3 54.9,49.8 70.4,76.6 L167.2,244.3 C182.7,271.1 221.4,271.1 236.9,244.3 Z" stroke-width="3.7664" fill="#232932"></path>
                                <path d="M236.5,244.4 L333.4,76.5 C348.9,49.7 329.5,16.1 298.6,16.1 L104.7,16.1 C73.7,16.1 54.4,49.6 69.9,76.5 L166.8,244.4 C182.3,271.2 221.1,271.2 236.5,244.4 Z" stroke-width="3.7681" fill="#242A33"></path>
                                <path d="M236.2,244.5 L333.2,76.4 C348.7,49.6 329.3,16 298.3,16 L104.3,16 C73.3,16 53.9,49.6 69.4,76.4 L166.4,244.5 C182,271.3 220.7,271.3 236.2,244.5 Z" stroke-width="3.7698" fill="#252B34"></path>
                                <path d="M235.9,244.6 L333,76.4 C348.5,49.5 329.1,15.9 298.1,15.9 L103.9,15.9 C72.9,15.9 53.5,49.5 69,76.4 L166.1,244.6 C181.6,271.5 220.4,271.5 235.9,244.6 Z" stroke-width="3.7716" fill="#262C35"></path>
                                <path d="M235.6,244.7 L332.8,76.3 C348.3,49.4 328.9,15.8 297.9,15.8 L103.5,15.8 C72.4,15.8 53,49.4 68.6,76.3 L165.8,244.7 C181.2,271.6 220.1,271.6 235.6,244.7 Z" stroke-width="3.7733" fill="#282D35"></path>
                                <path d="M235.3,244.8 L332.6,76.3 C348.1,49.4 328.7,15.7 297.6,15.7 L103,15.7 C71.9,15.7 52.5,49.4 68,76.3 L165.3,244.8 C180.9,271.7 219.7,271.7 235.3,244.8 Z" stroke-width="3.775" fill="#292E36"></path>
                                <path d="M235,244.9 L332.4,76.2 C348,49.3 328.5,15.6 297.4,15.6 L102.6,15.6 C71.5,15.6 52,49.3 67.6,76.2 L165,244.9 C180.5,271.8 219.4,271.8 235,244.9 Z" stroke-width="3.7768" fill="#2A2F37"></path>
                                <path d="M234.6,245 L332.1,76.2 C347.7,49.2 328.2,15.5 297.1,15.5 L102.1,15.5 C71,15.5 51.5,49.2 67.1,76.2 L164.6,245 C180.1,271.9 219.1,271.9 234.6,245 Z" stroke-width="3.7785" fill="#2B3038"></path>
                                <path d="M234.3,245.1 L331.9,76.1 C347.5,49.1 328,15.4 296.8,15.4 L101.7,15.4 C70.5,15.4 51,49.1 66.6,76.1 L164.2,245.1 C179.8,272.1 218.7,272.1 234.3,245.1 Z" stroke-width="3.7802" fill="#2C3139"></path>
                                <path d="M234,245.2 L331.7,76.1 C347.3,49.1 327.8,15.3 296.6,15.3 L101.3,15.3 C70.1,15.3 50.6,49.1 66.2,76.1 L163.9,245.2 C179.4,272.2 218.4,272.2 234,245.2 Z" stroke-width="3.782" fill="#2D323A"></path>
                                <path d="M233.7,245.3 L331.4,76 C347,49 327.5,15.1 296.3,15.1 L100.8,15.1 C69.6,15.1 50,48.9 65.7,76 L163.4,245.3 C179,272.3 218.1,272.3 233.7,245.3 Z" stroke-width="3.7837" fill="#2E333B"></path>
                                <path d="M233.4,245.4 L331.2,75.9 C346.8,48.8 327.3,15 296,15 L100.3,15 C69,15 49.5,48.8 65.1,75.9 L162.9,245.4 C178.7,272.4 217.7,272.4 233.4,245.4 Z" stroke-width="3.7854" fill="#30343C"></path>
                                <path d="M233,245.4 L330.9,75.8 C346.5,48.7 327,14.8 295.7,14.8 L99.8,14.8 C68.5,14.8 49,48.7 64.6,75.8 L162.5,245.4 C178.3,272.5 217.4,272.5 233,245.4 Z" stroke-width="3.7872" fill="#31353D"></path>
                                <path d="M232.7,245.5 L330.7,75.7 C346.4,48.6 326.8,14.7 295.5,14.7 L99.5,14.7 C68.2,14.7 48.6,48.6 64.3,75.7 L162.3,245.5 C177.9,272.7 217.1,272.7 232.7,245.5 Z" stroke-width="3.7889" fill="#32363E"></path>
                                <path d="M232.4,245.6 L330.5,75.7 C346.2,48.6 326.6,14.6 295.2,14.6 L99,14.6 C67.7,14.6 48.1,48.5 63.7,75.7 L161.8,245.6 C177.6,272.8 216.7,272.8 232.4,245.6 Z" stroke-width="3.7906" fill="#33373F"></path>
                                <path d="M232.1,245.7 L330.3,75.6 C346,48.4 326.4,14.5 295,14.5 L98.6,14.5 C67.2,14.5 47.6,48.5 63.3,75.6 L161.5,245.7 C177.2,272.9 216.4,272.9 232.1,245.7 Z" stroke-width="3.7923" fill="#343840"></path>
                                <path d="M231.8,245.8 L330.1,75.6 C345.8,48.4 326.2,14.4 294.8,14.4 L98.2,14.4 C66.8,14.4 47.2,48.4 62.9,75.6 L161.2,245.8 C176.8,273 216.1,273 231.8,245.8 Z" stroke-width="3.7941" fill="#353941"></path>
                                <path d="M231.5,245.9 L329.9,75.5 C345.6,48.3 326,14.3 294.5,14.3 L97.7,14.3 C66.3,14.3 46.6,48.3 62.3,75.5 L160.7,245.9 C176.5,273.1 215.7,273.1 231.5,245.9 Z" stroke-width="3.7958" fill="#363A42"></path>
                                <path d="M231.1,246 L329.6,75.5 C345.3,48.3 325.7,14.2 294.2,14.2 L97.3,14.2 C65.8,14.2 46.2,48.3 61.9,75.5 L160.4,246 C176.1,273.3 215.4,273.3 231.1,246 Z" stroke-width="3.7975" fill="#383B43"></path>
                                <path d="M230.8,246.1 L329.4,75.4 C345.1,48.1 325.5,14 294,14 L96.9,14 C65.4,14 45.7,48.1 61.5,75.4 L160.1,246.1 C175.7,273.4 215.1,273.4 230.8,246.1 Z" stroke-width="3.7993" fill="#393C44"></path>
                                <path d="M230.5,246.2 L329.1,75.3 C344.9,48 325.2,13.9 293.6,13.9 L96.3,13.9 C64.8,13.9 45.1,48 60.8,75.3 L159.4,246.2 C175.3,273.5 214.7,273.5 230.5,246.2 Z" stroke-width="3.801" fill="#3A3D45"></path>
                                <path d="M230.2,246.3 L328.9,75.3 C344.7,48 325,13.8 293.4,13.8 L96,13.8 C64.5,13.8 44.7,48 60.5,75.3 L159.2,246.3 C175,273.6 214.4,273.6 230.2,246.3 Z" stroke-width="3.8027" fill="#3B3E46"></path>
                                <path d="M229.9,246.4 L328.7,75.2 C344.5,47.9 324.8,13.7 293.2,13.7 L95.5,13.7 C63.9,13.7 44.2,47.9 60,75.2 L158.8,246.4 C174.6,273.7 214.1,273.7 229.9,246.4 Z" stroke-width="3.8045" fill="#3C3F47"></path>
                                <path d="M229.6,246.5 L328.5,75.2 C344.3,47.8 324.5,13.6 292.9,13.6 L95.1,13.6 C63.5,13.6 43.7,47.8 59.5,75.2 L158.4,246.5 C174.2,273.9 213.8,273.9 229.6,246.5 Z" stroke-width="3.8062" fill="#3D4048"></path>
                                <path d="M229.2,246.6 L328.2,75.1 C344,47.7 324.2,13.5 292.6,13.5 L94.6,13.5 C63,13.5 43.2,47.7 59,75.1 L158,246.6 C173.9,274 213.4,274 229.2,246.6 Z" stroke-width="3.8079" fill="#3E4149"></path>
                                <path d="M228.9,246.7 L328,75 C343.8,47.6 324,13.3 292.4,13.3 L94.2,13.3 C62.5,13.3 42.7,47.6 58.6,75 L157.7,246.6 C173.5,274.1 213.1,274.1 228.9,246.7 Z" stroke-width="3.8096" fill="#40424A"></path>
                                <path d="M228.6,246.8 L327.8,75 C343.6,47.6 323.8,13.2 292.1,13.2 L93.7,13.2 C62,13.2 42.2,47.5 58,75 L157.2,246.8 C173.1,274.2 212.8,274.2 228.6,246.8 Z" stroke-width="3.8114" fill="#41434B"></path>
                                <path d="M228.3,246.9 L327.6,74.9 C343.5,47.4 323.6,13.1 291.9,13.1 L93.3,13.1 C61.6,13.1 41.8,47.4 57.6,74.9 L156.9,246.9 C172.8,274.3 212.4,274.3 228.3,246.9 Z" stroke-width="3.8131" fill="#42444C"></path>
                                <path d="M228,247 L327.4,74.9 C343.3,47.4 323.4,13 291.7,13 L93,13 C61.3,13 41.4,47.4 57.3,74.9 L156.7,247 C172.4,274.5 212.1,274.5 228,247 Z" stroke-width="3.8148" fill="#43454D"></path>
                                <path d="M227.6,247.1 L327.1,74.8 C343,47.3 323.1,12.9 291.3,12.9 L92.4,12.9 C60.6,12.9 40.8,47.3 56.6,74.8 L156.1,247.1 C172,274.6 211.8,274.6 227.6,247.1 Z" stroke-width="3.8166" fill="#44464E"></path>
                                <path d="M227.3,247.2 L326.8,74.8 C342.7,47.3 322.8,12.8 291,12.8 L92,12.8 C60.2,12.8 40.3,47.2 56.2,74.8 L155.7,247.2 C171.7,274.7 211.4,274.7 227.3,247.2 Z" stroke-width="3.8183" fill="#45474F"></path>
                                <path d="M227,247.3 L326.6,74.7 C342.5,47.1 322.6,12.7 290.8,12.7 L91.5,12.7 C59.7,12.7 39.8,47.2 55.7,74.7 L155.3,247.3 C171.3,274.8 211.1,274.8 227,247.3 Z" stroke-width="3.82" fill="#474850"></path>
                                <path d="M226.7,247.4 L326.4,74.7 C342.3,47.1 322.4,12.6 290.6,12.6 L91.1,12.6 C59.2,12.6 39.3,47.1 55.3,74.7 L155,247.4 C170.9,274.9 210.8,274.9 226.7,247.4 Z" stroke-width="3.8218" fill="#484951"></path>
                                <path d="M226.4,247.4 L326.2,74.5 C342.1,46.9 322.2,12.4 290.3,12.4 L90.7,12.4 C58.8,12.4 38.9,46.9 54.8,74.5 L154.6,247.4 C170.6,275.1 210.4,275.1 226.4,247.4 Z" stroke-width="3.8235" fill="#494A52"></path>
                                <path d="M226.1,247.5 L326,74.5 C342,46.9 322,12.3 290.1,12.3 L90.3,12.3 C58.4,12.3 38.4,46.9 54.4,74.5 L154.3,247.5 C170.2,275.2 210.1,275.2 226.1,247.5 Z" stroke-width="3.8252" fill="#4A4B53"></path>
                                <path d="M225.7,247.6 L325.7,74.4 C341.7,46.7 321.7,12.1 289.8,12.1 L89.8,12.1 C57.8,12.1 37.9,46.7 53.9,74.4 L153.9,247.6 C169.8,275.3 209.8,275.3 225.7,247.6 Z" stroke-width="3.827" fill="#4B4D54"></path>
                                <path d="M225.4,247.7 L325.5,74.3 C341.5,46.6 321.5,12 289.5,12 L89.3,12 C57.3,12 37.3,46.6 53.3,74.3 L153.4,247.7 C169.5,275.4 209.4,275.4 225.4,247.7 Z" stroke-width="3.8287" fill="#4D4E55"></path>
                                <path d="M225.1,247.8 L325.3,74.3 C341.3,46.6 321.3,11.9 289.3,11.9 L88.9,11.9 C56.9,11.9 36.9,46.6 52.9,74.3 L153.1,247.8 C169.1,275.5 209.1,275.5 225.1,247.8 Z" stroke-width="3.8304" fill="#4E4F57"></path>
                                <path d="M224.8,247.9 L325.1,74.2 C341.1,46.5 321.1,11.8 289.1,11.8 L88.6,11.8 C56.6,11.8 36.5,46.5 52.6,74.2 L152.9,247.9 C168.7,275.7 208.8,275.7 224.8,247.9 Z" stroke-width="3.8321" fill="#4F5058"></path>
                                <path d="M224.5,248 L324.9,74.2 C340.9,46.4 320.9,11.7 288.8,11.7 L88,11.7 C55.9,11.7 35.9,46.4 51.9,74.2 L152.3,248 C168.4,275.8 208.4,275.8 224.5,248 Z" stroke-width="3.8339" fill="#505159"></path>
                                <path d="M224.2,248.1 L324.7,74.1 C340.7,46.3 320.7,11.6 288.6,11.6 L87.7,11.6 C55.6,11.6 35.5,46.3 51.6,74.1 L152.1,248.1 C168,275.9 208.1,275.9 224.2,248.1 Z" stroke-width="3.8356" fill="#51525A"></path>
                                <path d="M223.8,248.2 L324.3,74.1 C340.4,46.3 320.3,11.5 288.2,11.5 L87.1,11.5 C55,11.5 34.9,46.3 51,74.1 L151.5,248.2 C167.6,276 207.8,276 223.8,248.2 Z" stroke-width="3.8373" fill="#53535B"></path>
                                <path d="M223.5,248.3 L324.2,74 C340.3,46.2 320.2,11.3 288,11.3 L86.7,11.3 C54.5,11.3 34.5,46.1 50.5,74 L151.1,248.3 C167.3,276.1 207.4,276.1 223.5,248.3 Z" stroke-width="3.8391" fill="#54555C"></path>
                                <path d="M223.2,248.4 L323.9,73.9 C340,46 319.9,11.2 287.7,11.2 L86.3,11.2 C54.1,11.2 34,46 50.1,73.9 L150.8,248.4 C166.9,276.3 207.1,276.3 223.2,248.4 Z" stroke-width="3.8408" fill="#55565E"></path>
                                <path d="M222.9,248.5 L323.7,73.9 C339.8,46 319.7,11.1 287.5,11.1 L85.9,11.1 C53.7,11.1 33.6,46 49.7,73.9 L150.5,248.5 C166.5,276.4 206.8,276.4 222.9,248.5 Z" stroke-width="3.8425" fill="#57575F"></path>
                                <path d="M222.6,248.6 L323.5,73.8 C339.6,45.9 319.5,11 287.2,11 L85.4,11 C53.2,11 33,45.9 49.1,73.8 L150,248.6 C166.1,276.5 206.4,276.5 222.6,248.6 Z" stroke-width="3.8443" fill="#585860"></path>
                                <path d="M222.3,248.7 L323.3,73.8 C339.4,45.9 319.3,10.9 287,10.9 L85,10.9 C52.7,10.9 32.6,45.8 48.7,73.8 L149.7,248.7 C165.8,276.6 206.1,276.6 222.3,248.7 Z" stroke-width="3.846" fill="#595A61"></path>
                                <path d="M221.9,248.8 L323,73.7 C339.1,45.7 319,10.8 286.7,10.8 L84.5,10.8 C52.2,10.8 32,45.8 48.2,73.7 L149.3,248.8 C165.4,276.7 205.8,276.7 221.9,248.8 Z" stroke-width="3.8477" fill="#5A5B62"></path>
                                <path d="M221.6,248.9 L322.8,73.7 C339,45.7 318.8,10.7 286.4,10.7 L84.1,10.7 C51.8,10.7 31.6,45.7 47.7,73.7 L148.9,248.9 C165,276.9 205.5,276.9 221.6,248.9 Z" stroke-width="3.8494" fill="#5C5C64"></path>
                                <path d="M221.3,249 L322.6,73.6 C338.8,45.6 318.6,10.6 286.2,10.6 L83.7,10.6 C51.3,10.6 31.1,45.6 47.3,73.6 L148.5,249 C164.7,277 205.1,277 221.3,249 Z" stroke-width="3.8512" fill="#5D5D65"></path>
                                <path d="M221,249.1 L322.4,73.6 C338.6,45.6 318.4,10.5 286,10.5 L83.3,10.5 C50.9,10.5 30.7,45.6 46.9,73.6 L148.3,249.1 C164.3,277.1 204.8,277.1 221,249.1 Z" stroke-width="3.8529" fill="#5E5F66"></path>
                                <path d="M220.7,249.2 L322.1,73.5 C338.3,45.4 318,10.3 285.6,10.3 L82.7,10.3 C50.3,10.3 30,45.4 46.2,73.5 L147.6,249.2 C163.9,277.2 204.5,277.2 220.7,249.2 Z" stroke-width="3.8546" fill="#606067"></path>
                                <path d="M220.3,249.3 L321.8,73.4 C338,45.3 317.7,10.2 285.3,10.2 L82.2,10.2 C49.8,10.2 29.5,45.3 45.7,73.4 L147.2,249.3 C163.6,277.3 204.1,277.3 220.3,249.3 Z" stroke-width="3.8564" fill="#616169"></path>
                                <path d="M220,249.3 L321.6,73.3 C337.8,45.2 317.5,10 285.1,10 L81.9,10 C49.4,10 29.1,45.1 45.4,73.3 L147,249.3 C163.2,277.5 203.8,277.5 220,249.3 Z" stroke-width="3.8581" fill="#62626A"></path>
                                <path d="M219.7,249.4 L321.4,73.2 C337.6,45.1 317.3,9.9 284.8,9.9 L81.4,9.9 C48.9,9.9 28.6,45.1 44.8,73.2 L146.5,249.4 C162.8,277.6 203.5,277.6 219.7,249.4 Z" stroke-width="3.8598" fill="#64646B"></path>
                                <path d="M219.4,249.5 L321.2,73.2 C337.5,45 317.1,9.8 284.6,9.8 L81,9.8 C48.5,9.8 28.1,45 44.4,73.2 L146.2,249.5 C162.5,277.7 203.1,277.7 219.4,249.5 Z" stroke-width="3.8616" fill="#65656D"></path>
                                <path d="M219.1,249.6 L321,73.1 C337.3,44.9 316.9,9.7 284.4,9.7 L80.6,9.7 C48,9.7 27.7,44.9 44,73.1 L145.9,249.6 C162.1,277.8 202.8,277.8 219.1,249.6 Z" stroke-width="3.8633" fill="#67666E"></path>
                                <path d="M218.8,249.7 L320.8,73.1 C337.1,44.9 316.7,9.6 284.1,9.6 L80.1,9.6 C47.5,9.6 27.1,44.9 43.4,73.1 L145.4,249.7 C161.7,277.9 202.5,277.9 218.8,249.7 Z" stroke-width="3.865" fill="#68686F"></path>
                                <path d="M218.4,249.8 L320.5,73 C336.8,44.8 316.4,9.4 283.8,9.4 L79.7,9.4 C47.1,9.4 26.7,44.7 43,73 L145.1,249.8 C161.4,278.1 202.1,278.1 218.4,249.8 Z" stroke-width="3.8668" fill="#696970"></path>
                                <path d="M218.1,249.9 L320.3,72.9 C336.6,44.6 316.2,9.3 283.6,9.3 L79.3,9.3 C46.7,9.3 26.3,44.6 42.6,72.9 L144.8,249.9 C161,278.2 201.8,278.2 218.1,249.9 Z" stroke-width="3.8685" fill="#6B6A72"></path>
                                <path d="M217.8,250 L320.1,72.9 C336.4,44.6 316,9.2 283.3,9.2 L78.8,9.2 C46.1,9.2 25.7,44.6 42,72.9 L144.3,250 C160.6,278.3 201.5,278.3 217.8,250 Z" stroke-width="3.8702" fill="#6C6C73"></path>
                                <path d="M217.5,250.1 L319.8,72.8 C336.2,44.5 315.7,9.1 283,9.1 L78.3,9.1 C45.6,9.1 25.2,44.5 41.5,72.8 L143.8,250.1 C160.3,278.4 201.1,278.4 217.5,250.1 Z" stroke-width="3.8719" fill="#6D6D74"></path>
                                <path d="M217.2,250.2 L319.6,72.8 C336,44.5 315.5,9 282.8,9 L77.9,9 C45.2,9 24.7,44.4 41.1,72.8 L143.5,250.2 C159.9,278.5 200.8,278.5 217.2,250.2 Z" stroke-width="3.8737" fill="#6F6F76"></path>
                                <path d="M216.9,250.3 L319.4,72.7 C335.8,44.3 315.3,8.9 282.5,8.9 L77.5,8.9 C44.7,8.9 24.3,44.4 40.6,72.7 L143.1,250.3 C159.5,278.7 200.5,278.7 216.9,250.3 Z" stroke-width="3.8754" fill="#707077"></path>
                                <path d="M216.5,250.4 L319.1,72.7 C335.5,44.3 315,8.8 282.2,8.8 L77,8.8 C44.2,8.8 23.7,44.3 40.1,72.7 L142.7,250.4 C159.2,278.8 200.1,278.8 216.5,250.4 Z" stroke-width="3.8771" fill="#727179"></path>
                                <path d="M216.2,250.5 L318.9,72.6 C335.3,44.2 314.8,8.7 282,8.7 L76.6,8.7 C43.8,8.7 23.3,44.2 39.7,72.6 L142.4,250.5 C158.8,278.9 199.8,278.9 216.2,250.5 Z" stroke-width="3.8789" fill="#73737A"></path>
                                <path d="M215.9,250.6 L318.7,72.6 C335.1,44.2 314.6,8.6 281.8,8.6 L76.2,8.6 C43.4,8.6 22.8,44.2 39.3,72.6 L142.1,250.6 C158.4,279 199.5,279 215.9,250.6 Z" stroke-width="3.8806" fill="#75747B"></path>
                                <path d="M215.6,250.7 L318.5,72.5 C334.9,44 314.4,8.4 281.5,8.4 L75.7,8.4 C42.8,8.4 22.3,44 38.7,72.5 L141.6,250.7 C158.1,279.1 199.1,279.1 215.6,250.7 Z" stroke-width="3.8823" fill="#76767D"></path>
                                <path d="M215.3,250.8 L318.3,72.4 C334.8,43.9 314.2,8.3 281.3,8.3 L75.4,8.3 C42.5,8.3 21.9,43.9 38.4,72.4 L141.4,250.8 C157.7,279.3 198.8,279.3 215.3,250.8 Z" stroke-width="3.8841" fill="#78777E"></path>
                                <path d="M214.9,250.9 L318,72.4 C334.5,43.9 313.9,8.2 281,8.2 L74.9,8.2 C42,8.2 21.4,43.8 37.9,72.4 L141,250.9 C157.3,279.4 198.5,279.4 214.9,250.9 Z" stroke-width="3.8858" fill="#797980"></path>
                                <path d="M214.6,251 L317.8,72.3 C334.3,43.8 313.7,8.1 280.7,8.1 L74.4,8.1 C41.4,8.1 20.8,43.8 37.3,72.3 L140.5,251 C157,279.5 198.2,279.5 214.6,251 Z" stroke-width="3.8875" fill="#7B7A81"></path>
                                <path d="M214.3,251.1 L317.5,72.3 C334,43.7 313.4,8 280.4,8 L74,8 C41,8 20.4,43.7 36.9,72.3 L140.1,251.1 C156.6,279.6 197.8,279.6 214.3,251.1 Z" stroke-width="3.8893" fill="#7C7C83"></path>
                                <path d="M214,251.2 L317.3,72.2 C333.8,43.6 313.2,7.9 280.2,7.9 L73.5,7.9 C40.5,7.9 19.8,43.6 36.4,72.2 L139.7,251.2 C156.2,279.7 197.5,279.7 214,251.2 Z" stroke-width="3.891" fill="#7E7D84"></path>
                                <path d="M213.7,251.2 L317.1,72.1 C333.6,43.5 313,7.7 279.9,7.7 L73,7.7 C40,7.7 19.3,43.5 35.8,72.1 L139.2,251.2 C155.8,279.9 197.2,279.9 213.7,251.2 Z" stroke-width="3.8927" fill="#807F86"></path>
                                <path d="M213.4,251.3 L316.9,72 C333.4,43.4 312.8,7.6 279.7,7.6 L72.7,7.6 C39.6,7.6 19,43.4 35.5,72 L139,251.3 C155.5,280 196.8,280 213.4,251.3 Z" stroke-width="3.8944" fill="#818087"></path>
                                <path d="M213,251.4 L316.6,72 C333.2,43.3 312.5,7.5 279.4,7.5 L72.2,7.5 C39.1,7.5 18.4,43.3 35,72 L138.6,251.4 C155.1,280.1 196.5,280.1 213,251.4 Z" stroke-width="3.8962" fill="#838289"></path>
                                <path d="M212.7,251.5 L316.4,71.9 C333,43.2 312.3,7.3 279.1,7.3 L71.7,7.3 C38.6,7.3 17.9,43.2 34.4,71.9 L138.1,251.5 C154.7,280.2 196.2,280.2 212.7,251.5 Z" stroke-width="3.8979" fill="#84848A"></path>
                                <path d="M212.4,251.6 L316.2,71.8 C332.8,43.1 312.1,7.2 278.9,7.2 L71.3,7.2 C38.1,7.2 17.4,43.1 34,71.8 L137.8,251.6 C154.4,280.3 195.8,280.3 212.4,251.6 Z" stroke-width="3.8996" fill="#86858C"></path>
                                <path d="M212.1,251.7 L316,71.8 C332.6,43.1 311.9,7.1 278.7,7.1 L70.9,7.1 C37.7,7.1 17,43 33.6,71.8 L137.5,251.7 C154,280.5 195.5,280.5 212.1,251.7 Z" stroke-width="3.9014" fill="#88878D"></path>
                                <path d="M211.8,251.8 L315.8,71.7 C332.4,42.9 311.6,7 278.4,7 L70.5,7 C37.3,7 16.5,43 33.1,71.7 L137.1,251.8 C153.6,280.6 195.2,280.6 211.8,251.8 Z" stroke-width="3.9031" fill="#89888F"></path>
                                <path d="M211.5,251.9 L315.6,71.7 C332.2,42.9 311.4,6.9 278.2,6.9 L70,6.9 C36.8,6.9 16,42.9 32.6,71.7 L136.7,251.9 C153.3,280.7 194.8,280.7 211.5,251.9 Z" stroke-width="3.9048" fill="#8B8A90"></path>
                                <path d="M211.1,252 L315.2,71.6 C331.8,42.8 311,6.8 277.8,6.8 L69.5,6.8 C36.2,6.8 15.4,42.8 32.1,71.6 L136.3,252 C152.9,280.8 194.5,280.8 211.1,252 Z" stroke-width="3.9066" fill="#8D8C92"></path>
                                <path d="M210.8,252.1 L315,71.6 C331.7,42.8 310.8,6.7 277.5,6.7 L69,6.7 C35.7,6.7 14.9,42.8 31.5,71.6 L135.7,252.1 C152.5,280.9 194.2,280.9 210.8,252.1 Z" stroke-width="3.9083" fill="#8E8D93"></path>
                                <path d="M210.5,252.2 L314.8,71.5 C331.5,42.6 310.6,6.5 277.3,6.5 L68.6,6.5 C35.3,6.5 14.4,42.6 31.1,71.5 L135.4,252.2 C152.2,281.1 193.8,281.1 210.5,252.2 Z" stroke-width="3.91" fill="#908F95"></path>
                                <path d="M210.2,252.3 L314.6,71.4 C331.3,42.5 310.4,6.4 277.1,6.4 L68.3,6.4 C34.9,6.4 14.1,42.5 30.8,71.4 L135.2,252.3 C151.8,281.2 193.5,281.2 210.2,252.3 Z" stroke-width="3.9117" fill="#929197"></path>
                                <path d="M209.9,252.4 L314.4,71.4 C331.1,42.5 310.2,6.3 276.8,6.3 L67.8,6.3 C34.4,6.3 13.5,42.4 30.2,71.4 L134.7,252.4 C151.4,281.3 193.2,281.3 209.9,252.4 Z" stroke-width="3.9135" fill="#939298"></path>
                                <path d="M209.6,252.5 L314.2,71.3 C330.9,42.4 310,6.2 276.6,6.2 L67.4,6.2 C34,6.2 13.1,42.4 29.8,71.3 L134.4,252.5 C151.1,281.4 192.8,281.4 209.6,252.5 Z" stroke-width="3.9152" fill="#95949A"></path>
                                <path d="M209.2,252.6 L313.9,71.3 C330.6,42.3 309.7,6.1 276.3,6.1 L66.9,6.1 C33.5,6.1 12.5,42.3 29.3,71.3 L134,252.6 C150.7,281.5 192.5,281.5 209.2,252.6 Z" stroke-width="3.9169" fill="#97969B"></path>
                                <path d="M208.9,252.7 L313.7,71.2 C330.4,42.2 309.5,6 276,6 L66.4,6 C32.9,6 12,42.2 28.7,71.2 L133.5,252.7 C150.3,281.7 192.2,281.7 208.9,252.7 Z" stroke-width="3.9187" fill="#98979D"></path>
                                <path d="M208.6,252.8 L313.5,71.2 C330.3,42.2 309.3,5.9 275.8,5.9 L66,5.9 C32.5,5.9 11.6,42.2 28.3,71.2 L133.2,252.8 C150,281.8 191.8,281.8 208.6,252.8 Z" stroke-width="3.9204" fill="#9A999E"></path>
                                <path d="M208.3,252.9 L313.3,71.1 C330.1,42.1 309.1,5.8 275.6,5.8 L65.7,5.8 C32.2,5.8 11.2,42.1 28,71.1 L133,252.9 C149.6,281.9 191.5,281.9 208.3,252.9 Z" stroke-width="3.9221" fill="#9C9BA0"></path>
                                <path d="M208,253 L313,71 C329.8,41.9 308.8,5.6 275.2,5.6 L65.1,5.6 C31.5,5.6 10.6,41.9 27.3,71 L132.3,252.9 C149.2,282 191.2,282 208,253 Z" stroke-width="3.9239" fill="#9E9CA2"></path>
                                <path d="M207.6,253.1 L312.7,71 C329.5,41.9 308.5,5.5 274.9,5.5 L64.6,5.5 C31,5.5 10,41.9 26.8,71 L131.9,253.1 C148.9,282.1 190.8,282.1 207.6,253.1 Z" stroke-width="3.9256" fill="#9F9EA3"></path>
                                <path d="M207.3,253.1 L312.5,70.8 C329.3,41.7 308.3,5.3 274.7,5.3 L64.2,5.3 C30.6,5.3 9.6,41.7 26.4,70.8 L131.6,253.1 C148.5,282.3 190.5,282.3 207.3,253.1 Z" stroke-width="3.9273" fill="#A1A0A5"></path>
                                <path d="M207,253.2 L312.3,70.8 C329.1,41.7 308.1,5.2 274.4,5.2 L63.8,5.2 C30.1,5.2 9.1,41.6 25.9,70.8 L131.2,253.2 C148.1,282.4 190.2,282.4 207,253.2 Z" stroke-width="3.9291" fill="#A3A2A7"></path>
                                <path d="M206.7,253.3 L312.1,70.7 C328.9,41.5 307.9,5.1 274.2,5.1 L63.4,5.1 C29.7,5.1 8.7,41.6 25.5,70.7 L130.9,253.3 C147.8,282.5 189.9,282.5 206.7,253.3 Z" stroke-width="3.9308" fill="#A5A3A8"></path>
                                <path d="M206.4,253.4 L311.9,70.7 C328.8,41.5 307.7,5 274,5 L63,5 C29.3,5 8.2,41.5 25.1,70.7 L130.6,253.4 C147.4,282.6 189.5,282.6 206.4,253.4 Z" stroke-width="3.9325" fill="#A7A5AA"></path>
                                <path d="M206.1,253.5 L311.7,70.6 C328.6,41.4 307.5,4.9 273.7,4.9 L62.5,4.9 C28.8,4.9 7.7,41.4 24.5,70.6 L130.1,253.5 C147,282.7 189.2,282.7 206.1,253.5 Z" stroke-width="3.9342" fill="#A8A7AC"></path>
                                <path d="M205.7,253.6 L311.4,70.6 C328.3,41.4 307.2,4.8 273.4,4.8 L62,4.8 C28.2,4.8 7.1,41.4 24,70.6 L129.7,253.6 C146.7,282.9 188.9,282.9 205.7,253.6 Z" stroke-width="3.936" fill="#AAA9AE"></path>
                                <path d="M205.4,253.7 L311.2,70.5 C328.1,41.2 307,4.6 273.2,4.6 L61.7,4.6 C27.9,4.6 6.8,41.2 23.7,70.5 L129.5,253.7 C146.3,283 188.5,283 205.4,253.7 Z" stroke-width="3.9377" fill="#ACABAF"></path>
                                <path d="M205.1,253.8 L311,70.5 C327.9,41.2 306.8,4.6 272.9,4.6 L61.2,4.6 C27.4,4.6 6.2,41.2 23.1,70.5 L129,253.8 C145.9,283.1 188.2,283.1 205.1,253.8 Z" stroke-width="3.9394" fill="#AEADB1"></path>
                                <path d="M204.8,253.9 L310.7,70.4 C327.6,41.1 306.5,4.4 272.6,4.4 L60.7,4.4 C26.8,4.4 5.7,41 22.6,70.4 L128.5,253.9 C145.5,283.2 187.9,283.2 204.8,253.9 Z" stroke-width="3.9412" fill="#B0AEB3"></path>
                                <path d="M204.5,254 L310.5,70.3 C327.4,41 306.3,4.3 272.4,4.3 L60.3,4.3 C26.4,4.3 5.2,41 22.2,70.3 L128.2,254 C145.2,283.3 187.5,283.3 204.5,254 Z" stroke-width="3.9429" fill="#B2B0B5"></path>
                                <path d="M204.2,254.1 L310.3,70.3 C327.3,40.9 306.1,4.2 272.2,4.2 L59.9,4.2 C26,4.2 4.8,40.9 21.8,70.3 L127.9,254.1 C144.8,283.5 187.2,283.5 204.2,254.1 Z" stroke-width="3.9446" fill="#B3B2B6"></path>
                                <path d="M203.8,254.2 L310,70.2 C327,40.8 305.8,4.1 271.8,4.1 L59.4,4.1 C25.5,4.1 4.2,40.8 21.2,70.2 L127.4,254.2 C144.4,283.6 186.9,283.6 203.8,254.2 Z" stroke-width="3.9464" fill="#B5B4B8"></path>
                                <path d="M203.5,254.3 L309.8,70.2 C326.8,40.8 305.6,4 271.6,4 L59,4 C25,4 3.8,40.8 20.8,70.2 L127.1,254.3 C144.1,283.7 186.5,283.7 203.5,254.3 Z" stroke-width="3.9481" fill="#B7B6BA"></path>
                                <path d="M203.2,254.4 L309.6,70.1 C326.6,40.7 305.4,3.9 271.4,3.9 L58.6,3.9 C24.6,3.9 3.4,40.7 20.4,70.1 L126.8,254.4 C143.7,283.8 186.2,283.8 203.2,254.4 Z" stroke-width="3.9498" fill="#B9B8BC"></path>
                                <path d="M202.9,254.5 L309.4,70 C326.4,40.5 305.1,3.7 271.1,3.7 L58.1,3.7 C24.1,3.7 2.8,40.5 19.8,70 L126.3,254.4 C143.3,283.9 185.9,283.9 202.9,254.5 Z" stroke-width="3.9515" fill="#BBBABE"></path>
                                <path d="M202.6,254.6 L309.1,70 C326.1,40.5 304.8,3.6 270.8,3.6 L57.6,3.6 C23.5,3.6 2.3,40.5 19.3,70 L125.9,254.6 C143,284.1 185.5,284.1 202.6,254.6 Z" stroke-width="3.9533" fill="#BDBCC0"></path>
                                <path d="M202.2,254.7 L308.9,69.9 C325.9,40.4 304.6,3.5 270.6,3.5 L57.3,3.5 C23.2,3.5 1.9,40.4 19,69.9 L125.7,254.7 C142.6,284.2 185.2,284.2 202.2,254.7 Z" stroke-width="3.955" fill="#BFBEC1"></path>
                                <path d="M201.9,254.8 L308.7,69.9 C325.8,40.4 304.4,3.4 270.3,3.4 L56.8,3.4 C22.7,3.4 1.4,40.3 18.4,69.9 L125.2,254.8 C142.2,284.3 184.9,284.3 201.9,254.8 Z" stroke-width="3.9567" fill="#C1C0C3"></path>
                                <path d="M201.6,254.9 L308.5,69.8 C325.6,40.2 304.2,3.3 270.1,3.3 L56.4,3.3 C22.3,3.3 0.9,40.3 18,69.8 L124.9,254.9 C141.9,284.4 184.5,284.4 201.6,254.9 Z" stroke-width="3.9585" fill="#C3C2C5"></path>
                                <path d="M201.3,255 L308.2,69.8 C325.3,40.2 303.9,3.2 269.8,3.2 L55.9,3.2 C21.7,3.2 0.4,40.2 17.5,69.8 L124.4,255 C141.5,284.5 184.2,284.5 201.3,255 Z" stroke-width="3.9602" fill="#C5C4C7"></path>
                                <path d="M201,255 L308,69.6 C325.1,40 303.7,3 269.5,3 L55.4,3 C21.2,3 -0.2,40 16.9,69.6 L124,255 C141.1,284.7 183.9,284.7 201,255 Z" stroke-width="3.9619" fill="#C7C6C9"></path>
                                <path d="M200.7,255.1 L307.8,69.6 C324.9,40 303.5,2.9 269.3,2.9 L55,2.9 C20.8,2.9 -0.6,40 16.5,69.6 L123.6,255.1 C140.8,284.8 183.5,284.8 200.7,255.1 Z" stroke-width="3.9637" fill="#C9C8CB"></path>
                                <path d="M200.3,255.2 L307.5,69.5 C324.6,39.8 303.2,2.8 269,2.8 L54.6,2.8 C20.3,2.8 -1.1,39.9 16.1,69.5 L123.3,255.2 C140.4,284.9 183.2,284.9 200.3,255.2 Z" stroke-width="3.9654" fill="#CBCACD"></path>
                                <path d="M200,255.3 L307.3,69.4 C324.4,39.7 303,2.6 268.7,2.6 L54.1,2.6 C19.8,2.6 -1.6,39.7 15.5,69.4 L122.8,255.3 C140,285 182.9,285 200,255.3 Z" stroke-width="3.9671" fill="#CDCCCF"></path>
                                <path d="M199.7,255.4 L307.1,69.4 C324.3,39.7 302.8,2.5 268.5,2.5 L53.7,2.5 C19.4,2.5 -2.1,39.6 15.1,69.4 L122.5,255.4 C139.7,285.1 182.6,285.1 199.7,255.4 Z" stroke-width="3.9689" fill="#CFCED1"></path>
                                <path d="M199.4,255.5 L306.9,69.3 C324.1,39.6 302.6,2.4 268.3,2.4 L53.3,2.4 C19,2.4 -2.5,39.6 14.7,69.3 L122.2,255.5 C139.3,285.3 182.2,285.3 199.4,255.5 Z" stroke-width="3.9706" fill="#D2D0D3"></path>
                                <path d="M199.1,255.6 L306.7,69.3 C323.9,39.5 302.4,2.3 268,2.3 L52.9,2.3 C18.5,2.3 -3,39.5 14.2,69.3 L121.8,255.6 C138.9,285.4 181.9,285.4 199.1,255.6 Z" stroke-width="3.9723" fill="#D4D3D5"></path>
                                <path d="M198.8,255.7 L306.5,69.2 C323.7,39.4 302.2,2.2 267.8,2.2 L52.5,2.2 C18.1,2.2 -3.4,39.4 13.8,69.2 L121.5,255.7 C138.6,285.5 181.6,285.5 198.8,255.7 Z" stroke-width="3.974" fill="#D6D5D7"></path>
                                <path d="M198.4,255.8 L306.2,69.2 C323.4,39.4 301.9,2.1 267.5,2.1 L52,2.1 C17.6,2.1 -3.9,39.4 13.3,69.2 L121,255.8 C138.2,285.6 181.2,285.6 198.4,255.8 Z" stroke-width="3.9758" fill="#D8D7D9"></path>
                                <path d="M198.1,255.9 L306,69.1 C323.2,39.3 301.7,2 267.2,2 L51.5,2 C17,2 -4.5,39.3 12.7,69.1 L120.5,255.9 C137.8,285.7 180.9,285.7 198.1,255.9 Z" stroke-width="3.9775" fill="#DAD9DB"></path>
                                <path d="M197.8,256 L305.7,69.1 C322.9,39.2 301.4,1.9 266.9,1.9 L51,1.9 C16.5,1.9 -5,39.2 12.2,69.1 L120.2,256 C137.5,285.9 180.6,285.9 197.8,256 Z" stroke-width="3.9792" fill="#DCDBDD"></path>
                                <path d="M197.5,256.1 L305.5,69 C322.8,39.1 301.2,1.7 266.7,1.7 L50.7,1.7 C16.2,1.7 -5.4,39.1 11.9,69 L119.9,256.1 C137.1,286 180.2,286 197.5,256.1 Z" stroke-width="3.981" fill="#DFDEDF"></path>
                                <path d="M197.2,256.2 L305.3,68.9 C322.6,39 301,1.6 266.4,1.6 L50.2,1.6 C15.7,1.6 -5.9,39 11.3,68.9 L119.4,256.2 C136.7,286.1 179.9,286.1 197.2,256.2 Z" stroke-width="3.9827" fill="#E1E0E1"></path>
                                <path d="M196.9,256.3 L305.1,68.9 C322.4,39 300.8,1.5 266.2,1.5 L49.8,1.5 C15.2,1.5 -6.4,38.9 10.9,68.9 L119.1,256.3 C136.3,286.2 179.6,286.2 196.9,256.3 Z" stroke-width="3.9844" fill="#E3E2E3"></path>
                                <path d="M196.5,256.4 L304.8,68.8 C322.1,38.8 300.5,1.4 265.9,1.4 L49.3,1.4 C14.7,1.4 -6.9,38.9 10.4,68.8 L118.7,256.4 C136,286.3 179.2,286.3 196.5,256.4 Z" stroke-width="3.9862" fill="#E6E5E6"></path>
                                <path d="M196.2,256.5 L304.6,68.8 C321.9,38.8 300.3,1.3 265.6,1.3 L48.8,1.3 C14.2,1.3 -7.5,38.8 9.8,68.8 L118.2,256.5 C135.6,286.5 178.9,286.5 196.2,256.5 Z" stroke-width="3.9879" fill="#E8E7E8"></path>
                                <path d="M195.9,256.6 L304.4,68.7 C321.7,38.7 300.1,1.2 265.4,1.2 L48.5,1.2 C13.8,1.2 -7.8,38.7 9.5,68.7 L118,256.6 C135.2,286.6 178.6,286.6 195.9,256.6 Z" stroke-width="3.9896" fill="#EAEAEA"></path>
                                <path d="M195.6,256.7 L304.2,68.7 C321.5,38.7 299.9,1.1 265.2,1.1 L48,1.1 C13.3,1.1 -8.4,38.7 9,68.7 L117.6,256.7 C134.9,286.7 178.2,286.7 195.6,256.7 Z" stroke-width="3.9913" fill="#EDECED"></path>
                                <path d="M195.3,256.8 L304,68.6 C321.4,38.5 299.7,1 264.9,1 L47.6,1 C12.9,1 -8.8,38.6 8.5,68.6 L117.2,256.8 C134.5,286.8 177.9,286.8 195.3,256.8 Z" stroke-width="3.9931" fill="#F0EFF0"></path>
                                <path d="M194.9,256.9 L303.6,68.6 C321,38.5 299.3,0.9 264.5,0.9 L47,0.9 C12.3,0.9 -9.5,38.5 7.9,68.6 L116.6,256.9 C134.1,286.9 177.6,286.9 194.9,256.9 Z" stroke-width="3.9948" fill="#F3F2F3"></path>
                                <path d="M194.6,256.9 L303.4,68.4 C320.8,38.3 299.1,0.6 264.3,0.6 L46.6,0.6 C11.8,0.6 -9.9,38.2 7.5,68.4 L116.3,256.9 C133.8,287.1 177.2,287.1 194.6,256.9 Z" stroke-width="3.9965" fill="#F6F6F6"></path>
                                <path d="M194.3,257 L303.2,68.3 C320.6,38.2 298.8,0.5 264,0.5 L46.2,0.5 C11.4,0.5 -10.4,38.2 7,68.3 L116,257 C133.4,287.2 176.9,287.2 194.3,257 Z" stroke-width="3.9983" fill="#FAFAFA"></path>
                                <path d="M194,257.1 L303,68.3 C320.4,38.1 298.6,0.4 263.8,0.4 L45.8,0.4 C11,0.4 -10.8,38.1 6.6,68.3 L115.6,257.1 C133,287.3 176.6,287.3 194,257.1 Z" stroke-width="4" fill="#FFFFFF"></path>
                            </g>
                        </g>
                        <path d="M194,310.1 L303,121.3 C320.4,91.1 298.6,53.4 263.8,53.4 L45.8,53.4 C11,53.4 -10.8,91.1 6.6,121.3 L115.6,310.1 C133,340.3 176.6,340.3 194,310.1 Z" id="Path" stroke="#0F1923" stroke-width="4" fill="#FFFFFF" fill-rule="nonzero"></path>
                        <path d="M154.8,88.5 L154.8,88.5 C153.3,88.5 152,87.2 152,85.7 L152,85.7 C152,84.2 153.3,82.9 154.8,82.9 L154.8,82.9 C156.3,82.9 157.6,84.2 157.6,85.7 L157.6,85.7 C157.6,87.2 156.3,88.5 154.8,88.5 Z" id="Path" stroke="#0F1923" stroke-width="4" fill="#FFFFFF" fill-rule="nonzero"></path>
                        <path d="M211.1,184.4 L98.6,184.4 C96.3,184.4 94.4,182.5 94.4,180.2 L94.4,180.2 C94.4,177.9 96.3,176 98.6,176 L211.1,176 C213.4,176 215.3,177.9 215.3,180.2 L215.3,180.2 C215.3,182.5 213.4,184.4 211.1,184.4 Z" id="Path" fill="#0F1923" fill-rule="nonzero"></path>
                        <g transform="translate(110.000000, 228.000000)">
                            <g transform="translate(24.000000, 25.000000)" id="Path" stroke="#0F1923" stroke-linecap="round" stroke-linejoin="round">
                                <line x1="0.9" y1="4.4" x2="65.1" y2="4.4" stroke-width="3.5818"></line>
                                <path d="M24.3,8.3 L13,8.3 C10.8,8.3 9,6.5 9,4.3 L9,4.3 C9,2.1 10.8,0.3 13,0.3 L24.3,0.3 C26.5,0.3 28.3,2.1 28.3,4.3 L28.3,4.3 C28.2,6.5 26.4,8.3 24.3,8.3 Z" stroke-width="1.7909" fill="#0F1923" fill-rule="nonzero"></path>
                            </g>
                            <g transform="translate(24.000000, 3.000000)" id="Path" stroke="#0F1923" stroke-linecap="round" stroke-linejoin="round">
                                <line x1="0.9" y1="4.7" x2="65.1" y2="4.7" stroke-width="3.5818"></line>
                                <path d="M53.5,8.7 L42.2,8.7 C40,8.7 38.2,6.9 38.2,4.7 L38.2,4.7 C38.2,2.5 40,0.7 42.2,0.7 L53.5,0.7 C55.7,0.7 57.5,2.5 57.5,4.7 L57.5,4.7 C57.4,6.9 55.6,8.7 53.5,8.7 Z" stroke-width="1.7909" fill="#0F1923" fill-rule="nonzero"></path>
                            </g>
                            <g fill-rule="nonzero">
                                <path d="M5.9,33.3 L5.9,33.3 C2.9,33.3 0.5,30.9 0.5,27.9 L0.5,9.2 C0.5,6.2 2.9,3.8 5.9,3.8 L5.9,3.8 C8.9,3.8 11.3,6.2 11.3,9.2 L11.3,27.9 C11.3,30.9 8.9,33.3 5.9,33.3 Z" id="Path" stroke="#0F1923" stroke-width="3.2112" fill="#0F1923"></path>
                                <rect id="Rectangle" fill="#FFFFFF" x="1.3" y="0.2" width="2.4" height="34"></rect>
                            </g>
                        </g>
                        <g transform="translate(99.000000, 101.000000)" id="Path">
                            <path d="M89.5,51.2 L14.4,51.2 C6.6,51.2 0.3,44.9 0.3,37.1 L0.3,14.1 C0.3,6.3 6.6,-5.68434189e-14 14.4,-5.68434189e-14 L89.5,-5.68434189e-14 C97.3,-5.68434189e-14 103.6,6.3 103.6,14.1 L103.6,37.1 C103.5,44.9 97.2,51.2 89.5,51.2 Z" stroke="#0F1923" stroke-width="3"></path>
                            <path d="M97.2,51.2 L22.1,51.2 C14.3,51.2 8,44.9 8,37.1 L8,14.1 C8,6.3 14.3,-5.68434189e-14 22.1,-5.68434189e-14 L97.2,-5.68434189e-14 C105,-5.68434189e-14 111.3,6.3 111.3,14.1 L111.3,37.1 C111.3,44.9 105,51.2 97.2,51.2 Z" stroke="#0F1923" stroke-width="3" fill="#0F1923" fill-rule="nonzero"></path>
                            <g transform="translate(30.000000, 15.000000)" fill="#FFFFFF" fill-rule="nonzero">
                                <path d="M6.5,21.3 L5.7,21.3 C2.9,21.3 0.7,19 0.7,16.3 L0.7,5 C0.7,2.2 3,0 5.7,0 L6.5,0 C9.3,0 11.5,2.3 11.5,5 L11.5,16.3 C11.6,19 9.3,21.3 6.5,21.3 Z"></path>
                                <path d="M53.6,21.3 L52.8,21.3 C50,21.3 47.8,19 47.8,16.3 L47.8,5 C47.8,2.2 50.1,0 52.8,0 L53.6,0 C56.4,0 58.6,2.3 58.6,5 L58.6,16.3 C58.6,19 56.4,21.3 53.6,21.3 Z"></path>
                            </g>
                        </g>
                        <g transform="translate(85.000000, 101.000000)" fill-rule="nonzero" id="Path">
                            <g stroke="#0F1923" stroke-width="3">
                                <path d="M117.5,51.2 L14.4,51.2 C6.6,51.2 0.3,44.9 0.3,37.1 L0.3,14.1 C0.3,6.3 6.6,-5.68434189e-14 14.4,-5.68434189e-14 L117.5,-5.68434189e-14 C125.3,-5.68434189e-14 131.6,6.3 131.6,14.1 L131.6,37.1 C131.5,44.9 125.2,51.2 117.5,51.2 Z" fill="#FFFFFF"></path>
                                <path d="M125.2,51.2 L22.1,51.2 C14.3,51.2 8,44.9 8,37.1 L8,14.1 C8,6.3 14.3,-5.68434189e-14 22.1,-5.68434189e-14 L125.2,-5.68434189e-14 C133,-5.68434189e-14 139.3,6.3 139.3,14.1 L139.3,37.1 C139.3,44.9 133,51.2 125.2,51.2 Z" fill="#0F1923"></path>
                            </g>
                            <g transform="translate(44.000000, 15.000000)" fill="#FFFFFF">
                                <path d="M6.5,21.3 L5.7,21.3 C2.9,21.3 0.7,19 0.7,16.3 L0.7,5 C0.7,2.2 3,0 5.7,0 L6.5,0 C9.3,0 11.5,2.3 11.5,5 L11.5,16.3 C11.6,19 9.3,21.3 6.5,21.3 Z"></path>
                                <path d="M53.6,21.3 L52.8,21.3 C50,21.3 47.8,19 47.8,16.3 L47.8,5 C47.8,2.2 50.1,0 52.8,0 L53.6,0 C56.4,0 58.6,2.3 58.6,5 L58.6,16.3 C58.6,19 56.4,21.3 53.6,21.3 Z"></path>
                            </g>
                        </g>
                    </g>
                </g>
            </g>
        </g>
    </g>
</svg>