<?xml version="1.0" encoding="UTF-8"?>
<svg width="23px" height="26px" viewBox="0 0 23 26" version="1.1" xmlns="http://www.w3.org/2000/svg" xmlns:xlink="http://www.w3.org/1999/xlink">
    <!-- Generator: Sketch 55.2 (78181) - https://sketchapp.com -->
    <title>Untitled copy</title>
    <desc>Created with Sketch.</desc>
    <g id="Page-1" stroke="none" stroke-width="1" fill="none" fill-rule="evenodd">
        <g id="github" fill="#0B1317" fill-rule="nonzero">
            <path d="M12,25.5546667 C3.16,25.5546667 8.03333333,25.232 8.03333333,24.8066667 C8.03333333,24.4266667 8.02,23.42 8.01333333,22.0866667 C3.56266667,23.052 2.624,19.94 2.624,19.94 C1.896,18.0933333 0.844,17.6 0.844,17.6 C-0.605333333,16.608 0.956,16.628 0.956,16.628 C2.56266667,16.74 3.40666667,18.276 3.40666667,18.276 C4.83333333,20.7226667 7.152,20.016 8.06666667,19.6066667 C8.21066667,18.572 8.62266667,17.8666667 9.08,17.4666667 C5.52666667,17.0666667 1.792,15.6906667 1.792,9.56 C1.792,7.81333333 2.412,6.38666667 3.43866667,5.26666667 C3.25866667,4.86266667 2.71866667,3.236 3.57866667,1.032 C3.57866667,1.032 4.91866667,0.602666667 7.97866667,2.672 C9.25866667,2.316 10.6186667,2.14 11.9786667,2.132 C13.3386667,2.14 14.6986667,2.316 15.9786667,2.672 C19.0186667,0.602666667 20.3586667,1.032 20.3586667,1.032 C21.2186667,3.236 20.6786667,4.86266667 20.5186667,5.26666667 C21.5386667,6.38666667 22.1586667,7.81333333 22.1586667,9.56 C22.1586667,15.7066667 18.4186667,17.06 14.8586667,17.4533333 C15.4186667,17.9333333 15.9386667,18.9146667 15.9386667,20.4133333 C15.9386667,22.5546667 15.9186667,24.2746667 15.9186667,24.7946667 C15.9186667,25.2146667 20.836,25.5546667 12,25.5546667" id="Path"></path>
        </g>
    </g>
</svg>