<svg width="130" height="45" fill="none" xmlns="http://www.w3.org/2000/svg"><path d="M74.66 1.748a.999.999 0 0 0-.404-.83 1.285 1.285 0 0 0-.428-.209 1.839 1.839 0 0 0-.51-.075c-.155 0-.306.018-.444.058a1.32 1.32 0 0 0-.376.173.934.934 0 0 0-.266.277.751.751 0 0 0-.099.386v.047a.78.78 0 0 0 .099.398.84.84 0 0 0 .289.282c.127.08.283.144.474.196.19.052.41.098.665.133.596.092 1.03.265 1.313.519.283.254.422.6.422 1.027v.098c0 .242-.04.467-.127.669a1.45 1.45 0 0 1-.37.519c-.168.144-.37.26-.613.34a2.684 2.684 0 0 1-.845.121c-.364 0-.682-.052-.96-.155a1.853 1.853 0 0 1-.694-.439 1.964 1.964 0 0 1-.427-.652 2.218 2.218 0 0 1-.145-.819v-.236h.682v.196c0 .496.14.865.41 1.113.273.248.654.37 1.14.37.422 0 .74-.093.948-.277.214-.185.319-.433.319-.739v-.052c0-.294-.11-.524-.33-.68-.22-.156-.573-.271-1.064-.34a4.658 4.658 0 0 1-.775-.174 1.992 1.992 0 0 1-.584-.305 1.218 1.218 0 0 1-.37-.456 1.419 1.419 0 0 1-.127-.629v-.098c0-.219.046-.42.138-.605.093-.185.22-.34.388-.479a1.85 1.85 0 0 1 .59-.311c.231-.075.48-.11.757-.11.318 0 .602.046.856.138.249.093.463.214.636.37a1.575 1.575 0 0 1 .526 1.193v.34h-.682v-.293h-.011Zm4.713.017h.63v4.009h-.63v-.727h-.098c-.127.26-.3.461-.509.611-.208.15-.48.225-.804.225a1.63 1.63 0 0 1-.613-.11 1.253 1.253 0 0 1-.48-.328 1.416 1.416 0 0 1-.306-.542 2.276 2.276 0 0 1-.11-.75V1.765h.63v2.307c0 .421.087.727.26.923.174.196.44.288.793.288.382 0 .682-.132.902-.392.22-.26.33-.611.33-1.044V1.765h.005Zm2.574 5.623h-.63V1.765h.63v.629h.098c.139-.243.335-.427.584-.554.249-.127.52-.19.81-.19.248 0 .48.046.705.138.226.092.416.225.59.398.173.173.306.386.405.64.098.254.15.542.15.865v.162c0 .329-.046.617-.145.87a1.884 1.884 0 0 1-.398.641c-.168.173-.37.3-.596.392a2.01 2.01 0 0 1-.723.133c-.127 0-.26-.017-.399-.046a1.554 1.554 0 0 1-.387-.139 1.893 1.893 0 0 1-.336-.225 1.16 1.16 0 0 1-.26-.317h-.098v2.226Zm1.347-2.099a1.326 1.326 0 0 0 .96-.392c.121-.121.214-.277.283-.45.07-.179.099-.375.099-.6v-.161c0-.214-.035-.41-.099-.589a1.29 1.29 0 0 0-.711-.744 1.347 1.347 0 0 0-.532-.104c-.19 0-.364.035-.526.11a1.362 1.362 0 0 0-.711.767 1.63 1.63 0 0 0-.105.594v.098c0 .22.035.421.105.6.069.179.167.335.289.467a1.258 1.258 0 0 0 .948.404Zm3.609 2.1h-.63V1.764h.63v.629H87c.138-.243.335-.427.584-.554.249-.127.52-.19.81-.19.248 0 .48.046.705.138a1.776 1.776 0 0 1 .995 1.038c.098.254.15.542.15.865v.162c0 .329-.046.617-.145.87a1.884 1.884 0 0 1-.399.641c-.167.173-.37.3-.595.392a2.01 2.01 0 0 1-.723.133c-.127 0-.26-.017-.4-.046a1.553 1.553 0 0 1-.387-.139 1.89 1.89 0 0 1-.335-.225 1.16 1.16 0 0 1-.26-.317h-.099v2.226Zm1.347-2.1a1.326 1.326 0 0 0 .96-.392c.121-.121.214-.277.283-.45.07-.179.098-.375.098-.6v-.161c0-.214-.034-.41-.098-.589a1.29 1.29 0 0 0-.711-.744 1.346 1.346 0 0 0-.532-.104c-.191 0-.365.035-.526.11a1.36 1.36 0 0 0-.711.767 1.63 1.63 0 0 0-.105.594v.098c0 .22.035.421.104.6.07.179.168.335.29.467a1.258 1.258 0 0 0 .948.404Zm6.91-1.47c0 .334-.058.628-.167.882-.11.254-.26.473-.44.646a1.88 1.88 0 0 1-.642.398 2.154 2.154 0 0 1-.763.138 2.14 2.14 0 0 1-.77-.138 1.937 1.937 0 0 1-.641-.398 1.912 1.912 0 0 1-.44-.646 2.204 2.204 0 0 1-.167-.883V3.72c0-.329.057-.623.167-.877.11-.253.26-.472.446-.651a1.84 1.84 0 0 1 .642-.404 2.13 2.13 0 0 1 .763-.138c.266 0 .52.046.763.138.243.092.457.225.642.404.185.179.335.392.445.651.11.254.168.548.168.877v.098h-.006Zm-2.012 1.47c.196 0 .376-.035.538-.104a1.28 1.28 0 0 0 .723-.761c.069-.179.103-.387.103-.612V3.72c0-.213-.034-.415-.104-.594a1.481 1.481 0 0 0-.289-.467 1.294 1.294 0 0 0-.44-.3 1.393 1.393 0 0 0-.531-.11c-.191 0-.364.035-.532.11a1.449 1.449 0 0 0-.44.3 1.36 1.36 0 0 0-.289.467 1.63 1.63 0 0 0-.104.594v.098c0 .225.035.427.104.612.07.178.168.334.29.467.12.127.265.225.433.294.162.063.341.098.538.098Zm2.955-3.524h1.457v.53h.098c.104-.219.249-.386.44-.49.19-.104.405-.155.647-.155.405 0 .73.132.978.398.248.265.381.651.399 1.153l-.665.098c0-.369-.087-.64-.266-.802a.95.95 0 0 0-.654-.248.925.925 0 0 0-.433.098.903.903 0 0 0-.307.266 1.196 1.196 0 0 0-.18.398c-.04.15-.057.311-.057.484v1.696h1.018v.583h-2.574V5.19h.926V2.347h-.827v-.582Zm5.042 0h1.261V.12h.63v1.65h1.556v.582h-1.556v2.602c0 .161.075.242.22.242h1.139v.577h-1.37a.592.592 0 0 1-.451-.18.625.625 0 0 1-.174-.45V2.348h-1.261v-.582h.006Zm5.552 2.197c.017.398.138.721.37.964.231.242.555.363.971.363.191 0 .353-.023.492-.063s.26-.104.358-.18a.946.946 0 0 0 .243-.265 1.59 1.59 0 0 0 .151-.317l.601.162a1.787 1.787 0 0 1-.625.905c-.306.237-.717.352-1.237.352-.283 0-.549-.052-.787-.15a1.785 1.785 0 0 1-.618-.42 1.96 1.96 0 0 1-.405-.653 2.305 2.305 0 0 1-.145-.842v-.196c0-.277.052-.542.151-.784a1.78 1.78 0 0 1 .416-.623 1.975 1.975 0 0 1 1.405-.56c.33 0 .613.058.856.18.243.12.44.27.59.449.156.179.266.37.341.583.075.207.11.403.11.582v.52h-3.238v-.007Zm1.341-1.713c-.179 0-.341.03-.497.087a1.342 1.342 0 0 0-.405.236 1.303 1.303 0 0 0-.428.808h2.591a1.13 1.13 0 0 0-.127-.467 1.242 1.242 0 0 0-.284-.358 1.219 1.219 0 0 0-.399-.225 1.325 1.325 0 0 0-.451-.08Zm6.263 2.907h-.098a1.132 1.132 0 0 1-.249.323 1.476 1.476 0 0 1-.694.358 1.704 1.704 0 0 1-.37.046c-.272 0-.521-.046-.752-.138a1.872 1.872 0 0 1-.613-.398 1.824 1.824 0 0 1-.41-.64 2.407 2.407 0 0 1-.151-.877v-.127c0-.323.052-.611.156-.865a2.04 2.04 0 0 1 .411-.646 1.74 1.74 0 0 1 .607-.398c.231-.093.48-.139.735-.139.277 0 .532.058.774.18.243.12.428.305.556.559h.098V.12h.63v5.653h-.63v-.618Zm-1.347.133c.19 0 .364-.035.526-.104a1.23 1.23 0 0 0 .428-.3c.121-.132.219-.282.289-.467a1.66 1.66 0 0 0 .104-.6V3.72c0-.213-.035-.415-.104-.594a1.5 1.5 0 0 0-.289-.467 1.31 1.31 0 0 0-.949-.41c-.191 0-.364.035-.532.104a1.23 1.23 0 0 0-.428.3 1.38 1.38 0 0 0-.283.462 1.62 1.62 0 0 0-.098.588v.127c0 .225.034.427.098.605.069.18.162.33.283.456.122.127.266.225.423.288.161.075.341.11.532.11Zm8.633.485h-.63V.12h.63V2.4h.098a1.39 1.39 0 0 1 .584-.553c.249-.127.521-.19.81-.19.249 0 .48.045.706.138a1.8 1.8 0 0 1 .994 1.038c.098.254.151.542.151.865v.162a2.4 2.4 0 0 1-.145.87 1.875 1.875 0 0 1-.399.64c-.168.174-.37.3-.596.393a2.006 2.006 0 0 1-.723.133c-.127 0-.26-.018-.399-.046a1.544 1.544 0 0 1-.387-.139 1.9 1.9 0 0 1-.335-.225 1.175 1.175 0 0 1-.261-.317h-.098v.606Zm1.342-.485a1.329 1.329 0 0 0 .96-.392c.121-.121.214-.277.283-.45.069-.179.098-.375.098-.6v-.161c0-.214-.034-.41-.098-.589a1.294 1.294 0 0 0-1.243-.848c-.191 0-.365.035-.527.11-.161.075-.3.173-.422.3a1.377 1.377 0 0 0-.289.467 1.65 1.65 0 0 0-.104.594v.098c0 .22.035.421.104.6a1.5 1.5 0 0 0 .289.467 1.257 1.257 0 0 0 .949.404Zm6.043-.242h-.099c-.127.26-.3.461-.509.611-.208.15-.48.225-.803.225a1.63 1.63 0 0 1-.613-.11 1.254 1.254 0 0 1-.48-.328 1.425 1.425 0 0 1-.307-.542 2.28 2.28 0 0 1-.11-.75V1.765h.631v2.307c0 .421.086.727.26.923.173.196.439.288.792.288.382 0 .682-.132.902-.392.22-.26.33-.611.33-1.044V1.765h.63v4.989a.61.61 0 0 1-.173.45.594.594 0 0 1-.451.179h-2.29V6.8h2.064c.145 0 .22-.08.22-.242V5.047h.006ZM71.081 9.696h2.122V13.6h.07l3.22-3.904h2.44l-3.775 4.527 3.926 5.162H76.46l-3.192-4.331h-.07v4.331h-2.122v-9.69h.006Zm9.408 9.147c-.433-.45-.653-1.055-.653-1.81v-4.569h1.943v4.164c0 .398.104.704.306.912.203.207.492.317.862.317.335 0 .636-.092.914-.283.277-.19.503-.438.682-.755v-4.355h1.943v6.921h-1.943v-.859c-.619.663-1.376.998-2.26.998-.764 0-1.36-.225-1.794-.68Zm8.287.15c-.52-.357-.867-.853-1.04-1.5l.057-.178 1.486-.444c.168.773.665 1.165 1.498 1.165.289 0 .52-.058.705-.179a.567.567 0 0 0 .278-.496c0-.22-.104-.392-.312-.52-.208-.126-.613-.265-1.215-.42-.728-.173-1.284-.433-1.654-.767-.37-.335-.555-.785-.555-1.338 0-.37.104-.704.313-1.004.208-.3.503-.536.879-.715a3.127 3.127 0 0 1 1.306-.265c.73 0 1.33.161 1.799.478.468.317.769.767.908 1.35l-.081.15-1.469.357c-.064-.323-.202-.57-.416-.738a1.193 1.193 0 0 0-.775-.254c-.232 0-.428.046-.584.144-.156.099-.237.231-.237.393 0 .202.127.369.387.496s.729.288 1.417.473c.711.196 1.237.45 1.573.761.335.311.509.75.509 1.304 0 .426-.116.813-.342 1.165-.225.351-.549.623-.971.824-.422.197-.908.3-1.463.3-.816-.011-1.486-.19-2-.542Zm6.876.277a2.009 2.009 0 0 1-.804-.732 2.083 2.083 0 0 1-.3-1.114c0-.628.219-1.13.653-1.516.433-.381 1.029-.612 1.792-.687l1.874-.196v-.306c0-.311-.098-.56-.3-.732-.197-.173-.48-.265-.84-.265-.323 0-.583.086-.774.253-.197.173-.313.404-.359.698l-1.636-.138-.07-.081c.14-.692.469-1.223.983-1.586.52-.364 1.145-.548 1.886-.548.879 0 1.59.22 2.14.657.543.439.82 1.056.82 1.846v2.486c0 .213.047.375.133.485.087.11.209.167.37.167a.734.734 0 0 0 .266-.04l.07.08v1.327a3.036 3.036 0 0 1-.96.138c-.752 0-1.267-.311-1.556-.94h-.098c-.324.334-.66.583-1 .75-.341.167-.735.248-1.18.248a2.47 2.47 0 0 1-1.11-.254Zm2.428-1.465c.255-.167.515-.421.787-.761v-.802l-1.527.196c-.324.035-.572.133-.74.289a.748.748 0 0 0-.254.582c0 .23.08.415.242.548a.95.95 0 0 0 .62.202c.323 0 .618-.087.872-.254Zm4.713-5.34h1.943v.818c.544-.634 1.232-.957 2.053-.957s1.4.323 1.735.969c.619-.646 1.359-.97 2.221-.97.711 0 1.26.197 1.653.595.388.398.584.94.584 1.632v4.833h-1.943v-4.4c0-.664-.294-.998-.89-.998-.538 0-.972.288-1.307.87v4.528h-1.943v-4.389c0-.675-.289-1.01-.862-1.01-.266 0-.52.087-.751.266a1.882 1.882 0 0 0-.555.68v4.46h-1.938v-6.928Zm12.624 6.805a2.014 2.014 0 0 1-.804-.732 2.088 2.088 0 0 1-.301-1.114c0-.628.22-1.13.654-1.516.434-.381 1.029-.612 1.793-.687l1.873-.196v-.306c0-.311-.098-.56-.301-.732-.196-.173-.48-.265-.838-.265-.324 0-.584.086-.775.253-.197.173-.312.404-.358.698l-1.637-.138-.069-.081c.138-.692.468-1.223.983-1.586.52-.364 1.145-.548 1.885-.548.879 0 1.59.22 2.139.657.544.439.822 1.056.822 1.846v2.486c0 .213.046.375.133.485.086.11.208.167.37.167a.738.738 0 0 0 .266-.04l.069.08v1.327a3.032 3.032 0 0 1-.96.138c-.752 0-1.266-.311-1.555-.94h-.099a3.632 3.632 0 0 1-1 .75c-.341.167-.734.248-1.18.248-.405 0-.775-.087-1.11-.254Zm2.429-1.465c.254-.167.514-.421.786-.761v-.802l-1.526.196c-.324.035-.573.133-.741.289a.75.75 0 0 0-.254.582c0 .23.081.415.243.548a.95.95 0 0 0 .619.202c.323 0 .618-.087.873-.254Zm-44.325 6.356h-2.44v-1.8h7.009v1.8h-2.44v7.89h-2.123v-7.89h-.006Zm4.898.97h1.943v.83c.249-.294.538-.531.862-.704a2.244 2.244 0 0 1 1.07-.265c.277 0 .497.034.665.11l-.249 1.522-.098.098a1.994 1.994 0 0 0-.474-.07c-.382 0-.723.105-1.03.318-.306.213-.555.52-.752.929v4.152h-1.942v-6.92h.005Zm6.824 6.609a3.196 3.196 0 0 1-1.272-1.269c-.307-.542-.457-1.17-.457-1.88 0-.704.162-1.327.491-1.869a3.53 3.53 0 0 1 1.313-1.275 3.541 3.541 0 0 1 1.764-.455c.682 0 1.29.144 1.816.427.526.288.936.697 1.225 1.234.29.536.44 1.165.44 1.897v.514h-5.216c.046.478.231.86.55 1.142.317.282.728.42 1.225.42.798 0 1.324-.357 1.585-1.066l1.625.167.098.167c-.26.767-.67 1.338-1.243 1.725-.573.386-1.273.577-2.105.577-.683-.006-1.296-.156-1.84-.456Zm3.493-3.922c-.047-.415-.22-.75-.527-.998-.306-.248-.682-.375-1.139-.375-.405 0-.763.127-1.075.375a1.629 1.629 0 0 0-.59.998h3.33Zm3.903 4.118a2.007 2.007 0 0 1-.804-.733 2.082 2.082 0 0 1-.3-1.113c0-.628.22-1.13.653-1.517.434-.38 1.03-.61 1.793-.686l1.873-.196v-.306c0-.311-.098-.56-.3-.732-.197-.173-.48-.265-.84-.265-.323 0-.583.086-.774.253-.197.173-.312.404-.358.698l-1.637-.138-.07-.081c.14-.692.469-1.223.984-1.586.514-.363 1.145-.548 1.885-.548.879 0 1.59.22 2.14.657.543.439.82 1.056.82 1.846v2.48c0 .214.047.375.134.485.086.11.208.167.37.167.104 0 .19-.011.266-.04l.069.08v1.327a3.032 3.032 0 0 1-.96.138c-.752 0-1.266-.311-1.555-.94h-.099a3.62 3.62 0 0 1-1 .75c-.341.167-.734.248-1.18.248a2.38 2.38 0 0 1-1.11-.248Zm2.429-1.465c.254-.167.514-.421.786-.761v-.802l-1.527.196c-.323.035-.572.133-.74.288a.748.748 0 0 0-.254.583c0 .23.08.415.243.548a.95.95 0 0 0 .619.202c.323 0 .618-.087.873-.254Zm5.239 1.188c-.52-.357-.868-.853-1.041-1.5l.058-.178 1.486-.444c.168.773.665 1.165 1.498 1.165.289 0 .52-.058.705-.18a.567.567 0 0 0 .278-.495c0-.22-.104-.392-.313-.52-.208-.126-.613-.265-1.214-.42-.729-.173-1.284-.433-1.654-.767-.37-.335-.555-.785-.555-1.338 0-.37.104-.704.312-1.004.208-.3.503-.536.879-.715a3.13 3.13 0 0 1 1.307-.266c.729 0 1.33.162 1.799.48.468.316.769.766.907 1.349l-.081.15-1.468.357c-.064-.323-.203-.57-.417-.738a1.225 1.225 0 0 0-.775-.254c-.231 0-.427.046-.584.144-.156.099-.237.231-.237.393 0 .202.128.369.388.496s.728.288 1.417.473c.711.196 1.237.45 1.572.761.336.311.509.75.509 1.304 0 .426-.115.813-.341 1.165-.225.351-.549.623-.971.824-.423.196-.908.3-1.463.3-.816-.011-1.481-.19-2.001-.542Zm6.702-.15c-.434-.45-.654-1.055-.654-1.81V25.13h1.943v4.164c0 .398.105.704.307.912.202.213.491.317.862.317.335 0 .636-.092.913-.283a2.22 2.22 0 0 0 .683-.755v-4.36h1.943v6.92h-1.943v-.859c-.619.663-1.377.998-2.261.998-.758.006-1.354-.22-1.793-.675Zm7.72-6.379h1.943v.83c.248-.294.538-.53.861-.703a2.247 2.247 0 0 1 1.07-.265c.278 0 .498.034.665.11l-.248 1.522-.099.098a1.993 1.993 0 0 0-.474-.07 1.75 1.75 0 0 0-1.029.318c-.307.213-.555.52-.752.929v4.152h-1.943v-6.92h.006Zm8.032 6.743-2.857-6.743h2.221l1.417 3.45.069 1.009h.11l1.764-4.459h2.053l-3.944 9.69h-2.024l1.191-2.947ZM73.544 44.348a4.717 4.717 0 0 1-1.804-1.776c-.44-.756-.659-1.61-.659-2.561 0-.958.214-1.817.648-2.573a4.588 4.588 0 0 1 1.775-1.77c.752-.427 1.608-.635 2.562-.635 1.11 0 2.064.271 2.856.82.798.541 1.325 1.309 1.585 2.295l-.11.179-1.903.265c-.167-.565-.45-.992-.861-1.286-.405-.294-.931-.444-1.567-.444-.556 0-1.047.132-1.48.403-.434.271-.764.64-1.007 1.12-.243.478-.358 1.026-.358 1.632 0 .617.115 1.165.352 1.632a2.63 2.63 0 0 0 1.012 1.102c.44.265.954.392 1.55.392.682 0 1.232-.173 1.642-.514.41-.34.683-.83.81-1.465h-3.389v-1.632H80.6v.79c0 .912-.185 1.725-.549 2.429a4.047 4.047 0 0 1-1.567 1.655c-.683.398-1.475.594-2.383.594-.936-.006-1.792-.22-2.556-.652Zm8.553-6.413h1.943v.83c.249-.294.538-.53.862-.704a2.244 2.244 0 0 1 1.07-.265c.277 0 .497.035.665.11l-.25 1.522-.097.098a2 2 0 0 0-.475-.069c-.381 0-.722.104-1.029.317-.306.214-.555.52-.752.929v4.153h-1.943v-6.922h.006Zm6.09 6.805a2.007 2.007 0 0 1-.805-.732 2.082 2.082 0 0 1-.3-1.113c0-.629.22-1.13.653-1.517.434-.38 1.03-.611 1.793-.687l1.873-.196v-.305c0-.312-.098-.56-.3-.733-.197-.173-.48-.265-.839-.265-.324 0-.584.086-.775.254-.19.167-.312.403-.358.698l-1.637-.139-.07-.08c.14-.693.47-1.223.984-1.587.515-.363 1.145-.548 1.885-.548.88 0 1.59.22 2.14.658.543.438.82 1.055.82 1.846v2.48c0 .213.047.374.134.484a.44.44 0 0 0 .364.167.734.734 0 0 0 .266-.04l.07.08v1.327a3.036 3.036 0 0 1-.96.139c-.746 0-1.267-.312-1.556-.94h-.098c-.324.334-.66.582-1 .75-.342.167-.735.248-1.18.248a2.37 2.37 0 0 1-1.105-.249Zm2.428-1.465c.254-.167.515-.42.786-.76v-.803l-1.526.196c-.324.035-.573.133-.74.289a.748.748 0 0 0-.255.582c0 .231.081.416.243.548a.95.95 0 0 0 .619.202c.324 0 .618-.086.873-.254Zm4.713-5.34h1.943v.9c.66-.693 1.422-1.039 2.301-1.039.752 0 1.336.22 1.764.652.428.432.636.992.636 1.672v4.736h-1.943V40.69c0-.403-.092-.715-.283-.922-.191-.208-.469-.312-.839-.312a1.62 1.62 0 0 0-.93.3 2.264 2.264 0 0 0-.706.738v4.36h-1.943v-6.92Zm9.298 6.534c-.381-.352-.566-.876-.566-1.58v-3.351h-1.238v-1.603h1.238v-1.979h.248l1.677.583v1.395h1.469v1.604h-1.469v3.184c0 .219.064.392.197.513.127.121.312.179.555.179.145 0 .336-.035.555-.098l.099.057v1.483a5.387 5.387 0 0 1-1.221.138c-.653 0-1.168-.173-1.544-.525ZM54.438 11.587c.839.658 3.4 2.844 3.4 2.844s-3.36 1.263-4.094 1.828a7.625 7.625 0 0 0-2.388 3.322c-.572 1.396-1.625 4.367-2.319 5.843-.694 1.477-1.827 3.403-6.794 5.97-4.193 2.174-6.257 3.022-6.841 4.528a4.681 4.681 0 0 0 .665 4.58c.832 1.008 2.475 2.808 4.18 3.321 1.706.508 1.834 1.171 1.834 1.171a13.554 13.554 0 0 0-3.268-.525 13.235 13.235 0 0 0-3.62.525c0-.657 1.267-1.17 1.267-1.17s-.046-.877-2.487-2.492a5.698 5.698 0 0 1-2.567-4.142s-4.06-.265-4.274-.265l2.499-.738c-4.147-2.18-25.444 6.252-25.444 6.252v-.588A5.77 5.77 0 0 1 0 42.485l2.573-1.995H.775l17.863-9.27-3.979-.04s15.463-9.857 19.35-12.239c3.89-2.382 6.337-3.045 7.297-3.708.954-.67 3.313-2.976 4.534-3.767 1.22-.79 3.03-1.967 4.805-1.742a7.13 7.13 0 0 1 3.793 1.863Z" fill="#5B5C5C"/></svg>