<?xml version="1.0" encoding="UTF-8"?>
<svg width="76px" height="76px" viewBox="0 0 76 76" version="1.1" xmlns="http://www.w3.org/2000/svg" xmlns:xlink="http://www.w3.org/1999/xlink">
    <!-- Generator: Sketch 55.2 (78181) - https://sketchapp.com -->
    <title>kusama_icon_shadow</title>
    <desc>Created with Sketch.</desc>
    <defs>
        <polygon id="path-1" points="0 0.000216049383 47.0544213 0.000216049383 47.0544213 28.7282485 0 28.7282485"></polygon>
    </defs>
    <g id="Page-1" stroke="none" stroke-width="1" fill="none" fill-rule="evenodd">
        <g id="one-t-github-header" transform="translate(-819.000000, -307.000000)">
            <g id="networks" transform="translate(819.000000, 307.000000)">
                <g id="kusama_icon_shadow">
                    <circle id="Oval" fill="#F9FDFF" cx="38" cy="38" r="38"></circle>
                    <g id="kusama_icon" transform="translate(1.000000, 3.000000)">
                        <circle id="Oval" fill="#000000" fill-rule="nonzero" cx="35" cy="35" r="35"></circle>
                        <g id="Group" transform="translate(8.750000, 20.416666)">
                            <g id="Clipped">
                                <mask id="mask-2" fill="white">
                                    <use xlink:href="#path-1"></use>
                                </mask>
                                <g id="path-1"></g>
                                <path d="M44.2895293,1.53789352 C43.5852084,0.983726851 42.7355942,0.223233025 41.2021836,0.0239274691 C39.7546528,-0.164575617 38.2892978,0.800084877 37.2954707,1.43905093 C36.3016435,2.07747685 34.4209336,3.95818672 33.6404552,4.52639659 C32.859977,5.09352623 30.8723227,5.62608795 27.6791127,7.54244599 C24.4853626,9.45880401 11.9231713,17.5142052 11.9231713,17.5142052 L15.1876775,17.5498534 L0.638371914,25.0726929 L2.09346451,25.0726929 L-5.40123457e-05,26.6692978 C-5.40123457e-05,26.6692978 1.84446759,27.1662114 3.4059645,26.1723843 L3.41190586,26.6212269 C3.41190586,26.6212269 20.7493287,19.7870448 24.1088966,21.5613503 L22.0715509,22.1625077 C22.2492516,22.1625077 25.5494059,22.3758565 25.5494059,22.3758565 C25.5494059,22.3758565 25.6558102,24.4337269 27.6434644,25.746767 C29.6305787,27.0598071 29.666227,27.7695293 29.666227,27.7695293 C29.666227,27.7695293 28.6372916,28.1956866 28.6372916,28.7282485 C28.6372916,28.7282485 30.1626002,28.2664429 31.5825849,28.3020909 C33.0020293,28.3371992 34.243773,28.7282485 34.243773,28.7282485 C34.243773,28.7282485 34.1373687,28.1600386 32.7530323,27.7695293 C31.3692362,27.3795601 30.0205478,25.8888194 29.3464737,25.0726929 C28.6723998,24.2565664 28.2192362,22.8014738 28.783125,21.3463812 C29.2616743,20.1111188 30.9198535,19.4278626 34.3501773,17.6557176 C38.3973227,15.5659799 39.318233,14.0007022 39.8859028,12.7940664 C40.4535727,11.5879707 41.3053472,9.17469907 41.7757948,8.03935957 C42.3774922,6.58372685 43.1153008,5.80378858 43.7186187,5.34252315 C44.3219366,4.88071758 47.0544213,3.85178242 47.0544213,3.85178242 C47.0544213,3.85178242 44.9679243,2.07099537 44.2895293,1.53789352" id="Path" fill="#FFFFFF" fill-rule="nonzero" mask="url(#mask-2)"></path>
                            </g>
                        </g>
                    </g>
                </g>
            </g>
        </g>
    </g>
</svg>