<?xml version="1.0" encoding="UTF-8"?>
<svg id="Layer_2" data-name="Layer 2" xmlns="http://www.w3.org/2000/svg" viewBox="0 0 726.81 217.62">
  <defs>
    <style>
      .cls-1 {
        fill: #fff;
      }
    </style>
  </defs>
  <g id="Layer_1-2" data-name="Layer 1">
    <g>
      <path class="cls-1" d="m325.4,11.28c-5.2-4.1-11.4-9.7-22.7-11.1-10.6-1.4-21.4,5.7-28.7,10.4-7.3,4.7-21.1,18.5-26.8,22.7-5.7,4.2-20.3,8.1-43.8,22.2s-115.7,73.3-115.7,73.3l24,.3L4.7,184.18h10.7l-15.4,11.7s13.6,3.6,25-3.6v3.3s127.4-50.2,152-37.2l-15,4.4c1.3,0,25.5,1.6,25.5,1.6,0,0,.8,15.1,15.4,24.8,14.6,9.6,14.9,14.9,14.9,14.9,0,0-7.6,3.1-7.6,7,0,0,11.2-3.4,21.6-3.1s19.5,3.1,19.5,3.1c0,0-.8-4.2-10.9-7-10.2-2.9-20.1-13.8-25-19.8s-8.3-16.7-4.1-27.4c3.5-9.1,15.7-14.1,40.9-27.1,29.7-15.4,36.5-26.8,40.7-35.7s10.4-26.6,13.9-34.9c4.4-10.7,9.8-16.4,14.3-19.8,4.4-3.4,24.5-10.9,24.5-10.9,0,0-15.3-13.3-20.2-17.2Z"/>
      <g>
        <g>
          <path class="cls-1" d="m394.53,131.22h-9.5v-50.4h9.5v20.66h2.09l13.32-20.66h10.73v.43l-15.55,24.12v1.3l16.42,24.12v.43h-11.16l-13.75-20.66h-2.09v20.66Z"/>
          <path class="cls-1" d="m453.36,95.51h9.07v35.71h-9.07v-5.18h-1.3c-1.58,4.13-4.99,6.19-10.22,6.19-1.78,0-3.43-.29-4.97-.86-1.54-.58-2.88-1.46-4.03-2.66-1.15-1.2-2.05-2.7-2.7-4.5-.65-1.8-.97-3.92-.97-6.37v-22.32h9.07v20.45c0,2.54.6,4.52,1.8,5.94,1.2,1.42,3,2.12,5.4,2.12,2.74,0,4.74-.88,6.01-2.63,1.27-1.75,1.91-4.14,1.91-7.16v-18.72Z"/>
          <path class="cls-1" d="m484.61,105.59c0,1.15.6,1.98,1.8,2.48,1.2.5,3.38.92,6.55,1.26,3.65.38,6.62,1.48,8.93,3.28,2.3,1.8,3.46,4.31,3.46,7.52v.43c0,3.55-1.3,6.38-3.89,8.5-2.59,2.11-6.24,3.17-10.94,3.17-2.79,0-5.16-.36-7.13-1.08-1.97-.72-3.6-1.62-4.9-2.7s-2.29-2.28-2.99-3.6c-.7-1.32-1.16-2.6-1.4-3.85l8.35-2.74c.38,1.54,1.19,2.88,2.41,4.03,1.22,1.15,3.11,1.73,5.65,1.73,2.25,0,3.8-.35,4.64-1.04.84-.7,1.26-1.45,1.26-2.27,0-.48-.11-.92-.32-1.33-.22-.41-.61-.79-1.19-1.15-.58-.36-1.36-.66-2.34-.9-.98-.24-2.22-.43-3.71-.58-4.03-.33-7.24-1.38-9.61-3.13-2.38-1.75-3.56-4.33-3.56-7.74v-.43c0-1.78.38-3.34,1.15-4.68.77-1.34,1.78-2.48,3.02-3.42,1.25-.94,2.69-1.64,4.32-2.12,1.63-.48,3.31-.72,5.04-.72,2.26,0,4.21.28,5.87.83,1.66.55,3.06,1.27,4.21,2.16,1.15.89,2.09,1.87,2.81,2.95.72,1.08,1.27,2.12,1.66,3.13l-8.21,3.31c-.43-1.3-1.18-2.32-2.23-3.06-1.06-.74-2.42-1.12-4.1-1.12-1.54,0-2.69.28-3.46.83-.77.55-1.15,1.24-1.15,2.05Z"/>
          <path class="cls-1" d="m540.41,126.04c-.96,2.26-2.3,3.85-4.03,4.79-1.73.94-3.74,1.4-6.05,1.4-2.16,0-4.19-.41-6.08-1.22-1.9-.82-3.56-2.02-5-3.6-1.44-1.58-2.58-3.5-3.42-5.76-.84-2.25-1.26-4.82-1.26-7.7v-1.15c0-2.83.41-5.38,1.22-7.63.82-2.26,1.92-4.18,3.31-5.76,1.39-1.58,3.01-2.8,4.86-3.64,1.85-.84,3.83-1.26,5.94-1.26,2.54,0,4.6.43,6.16,1.3,1.56.86,2.8,2.21,3.71,4.03h1.3v-4.32h9.07v24.91c0,1.44.65,2.16,1.94,2.16h1.37v8.64h-6.19c-1.63,0-2.96-.48-4-1.44-1.03-.96-1.55-2.21-1.55-3.74h-1.3Zm-8.06-2.45c2.64,0,4.75-.88,6.34-2.63,1.58-1.75,2.38-4.14,2.38-7.16v-.86c0-3.02-.79-5.41-2.38-7.16-1.58-1.75-3.7-2.63-6.34-2.63s-4.75.88-6.34,2.63c-1.58,1.75-2.38,4.14-2.38,7.16v.86c0,3.02.79,5.41,2.38,7.16,1.58,1.75,3.7,2.63,6.34,2.63Z"/>
          <path class="cls-1" d="m597.21,131.22h-9.07v-25.06c0-1.01-.25-1.76-.76-2.27-.5-.5-1.16-.76-1.98-.76-.96,0-1.72.29-2.27.86-.55.58-.83,1.44-.83,2.59v24.62h-9.07v-25.06c0-1.01-.28-1.76-.83-2.27-.55-.5-1.21-.76-1.98-.76-.86,0-1.58.29-2.16.86-.58.58-.86,1.44-.86,2.59v24.62h-9.07v-35.71h9.07v3.46h1.3c.29-1.3.95-2.36,1.98-3.2,1.03-.84,2.39-1.26,4.07-1.26,1.58,0,2.93.42,4.03,1.26,1.1.84,1.85,1.91,2.23,3.2h1.3c.38-1.3,1.19-2.36,2.41-3.2,1.22-.84,2.75-1.26,4.57-1.26,2.4,0,4.32.8,5.76,2.41,1.44,1.61,2.16,3.83,2.16,6.66v27.65Z"/>
          <path class="cls-1" d="m628.53,126.04c-.96,2.26-2.3,3.85-4.03,4.79-1.73.94-3.74,1.4-6.05,1.4-2.16,0-4.19-.41-6.08-1.22-1.9-.82-3.56-2.02-5-3.6-1.44-1.58-2.58-3.5-3.42-5.76-.84-2.25-1.26-4.82-1.26-7.7v-1.15c0-2.83.41-5.38,1.22-7.63.82-2.26,1.92-4.18,3.31-5.76,1.39-1.58,3.01-2.8,4.86-3.64,1.85-.84,3.83-1.26,5.94-1.26,2.54,0,4.6.43,6.16,1.3,1.56.86,2.8,2.21,3.71,4.03h1.3v-4.32h9.07v24.91c0,1.44.65,2.16,1.94,2.16h1.37v8.64h-6.19c-1.63,0-2.96-.48-4-1.44-1.03-.96-1.55-2.21-1.55-3.74h-1.3Zm-8.06-2.45c2.64,0,4.75-.88,6.34-2.63,1.58-1.75,2.38-4.14,2.38-7.16v-.86c0-3.02-.79-5.41-2.38-7.16-1.58-1.75-3.7-2.63-6.34-2.63s-4.75.88-6.34,2.63c-1.58,1.75-2.38,4.14-2.38,7.16v.86c0,3.02.79,5.41,2.38,7.16,1.58,1.75,3.7,2.63,6.34,2.63Z"/>
          <path class="cls-1" d="m383.37,152.82h36.29v9.07h-13.39v41.33h-9.5v-41.33h-13.39v-9.07Z"/>
          <path class="cls-1" d="m427.44,167.51h15.12v5.18h1.3c.67-1.97,1.81-3.49,3.42-4.57s3.54-1.62,5.8-1.62c3.55,0,6.41,1.12,8.57,3.35,2.16,2.23,3.24,5.63,3.24,10.19v1.58l-9.36.86v-1.01c0-1.97-.5-3.54-1.51-4.72-1.01-1.18-2.52-1.76-4.54-1.76s-3.6.7-4.75,2.09c-1.15,1.39-1.73,3.38-1.73,5.98v11.52h8.21v8.64h-24.62v-8.64h7.34v-18.43h-6.48v-8.64Z"/>
          <path class="cls-1" d="m481.22,188.32c.05,1.06.3,2.03.76,2.92.46.89,1.08,1.66,1.87,2.3.79.65,1.7,1.15,2.74,1.51s2.12.54,3.28.54c2.26,0,3.98-.4,5.18-1.19,1.2-.79,2.06-1.74,2.59-2.84l7.78,4.32c-.43.91-1.03,1.86-1.8,2.84-.77.98-1.76,1.88-2.99,2.7-1.22.82-2.71,1.49-4.46,2.02-1.75.53-3.8.79-6.16.79-2.69,0-5.14-.43-7.34-1.3-2.21-.86-4.12-2.11-5.72-3.74-1.61-1.63-2.86-3.62-3.74-5.98-.89-2.35-1.33-5.02-1.33-7.99v-.43c0-2.74.47-5.23,1.4-7.49.94-2.26,2.22-4.18,3.85-5.76,1.63-1.58,3.54-2.82,5.72-3.71,2.18-.89,4.52-1.33,7.02-1.33,3.07,0,5.71.54,7.92,1.62,2.21,1.08,4.03,2.45,5.47,4.1,1.44,1.66,2.5,3.48,3.17,5.47.67,1.99,1.01,3.92,1.01,5.8v4.82h-26.21Zm8.57-13.61c-2.3,0-4.18.59-5.62,1.76-1.44,1.18-2.38,2.53-2.81,4.07h16.85c-.29-1.68-1.19-3.07-2.7-4.18-1.51-1.1-3.42-1.66-5.72-1.66Z"/>
          <path class="cls-1" d="m540.41,198.04c-.96,2.26-2.3,3.85-4.03,4.79-1.73.94-3.74,1.4-6.05,1.4-2.16,0-4.19-.41-6.08-1.22-1.9-.82-3.56-2.02-5-3.6-1.44-1.58-2.58-3.5-3.42-5.76-.84-2.25-1.26-4.82-1.26-7.7v-1.15c0-2.83.41-5.38,1.22-7.63.82-2.26,1.92-4.18,3.31-5.76,1.39-1.58,3.01-2.79,4.86-3.64,1.85-.84,3.83-1.26,5.94-1.26,2.54,0,4.6.43,6.16,1.3,1.56.86,2.8,2.21,3.71,4.03h1.3v-4.32h9.07v24.91c0,1.44.65,2.16,1.94,2.16h1.37v8.64h-6.19c-1.63,0-2.96-.48-4-1.44-1.03-.96-1.55-2.21-1.55-3.74h-1.3Zm-8.06-2.45c2.64,0,4.75-.88,6.34-2.63,1.58-1.75,2.38-4.14,2.38-7.16v-.86c0-3.02-.79-5.41-2.38-7.16-1.58-1.75-3.7-2.63-6.34-2.63s-4.75.88-6.34,2.63c-1.58,1.75-2.38,4.14-2.38,7.16v.86c0,3.02.79,5.41,2.38,7.16,1.58,1.75,3.7,2.63,6.34,2.63Z"/>
          <path class="cls-1" d="m572.73,177.59c0,1.15.6,1.98,1.8,2.48,1.2.5,3.38.92,6.55,1.26,3.65.38,6.62,1.48,8.93,3.28,2.3,1.8,3.46,4.31,3.46,7.52v.43c0,3.55-1.3,6.38-3.89,8.5-2.59,2.11-6.24,3.17-10.94,3.17-2.79,0-5.16-.36-7.13-1.08-1.97-.72-3.6-1.62-4.9-2.7s-2.29-2.28-2.99-3.6c-.7-1.32-1.16-2.6-1.4-3.85l8.35-2.74c.38,1.54,1.19,2.88,2.41,4.03,1.22,1.15,3.11,1.73,5.65,1.73,2.25,0,3.8-.35,4.64-1.04.84-.7,1.26-1.45,1.26-2.27,0-.48-.11-.92-.32-1.33-.22-.41-.61-.79-1.19-1.15-.58-.36-1.36-.66-2.34-.9-.98-.24-2.22-.43-3.71-.58-4.03-.33-7.24-1.38-9.61-3.13-2.38-1.75-3.56-4.33-3.56-7.74v-.43c0-1.78.38-3.34,1.15-4.68.77-1.34,1.78-2.48,3.02-3.42,1.25-.94,2.69-1.64,4.32-2.12,1.63-.48,3.31-.72,5.04-.72,2.26,0,4.21.28,5.87.83s3.06,1.27,4.21,2.16c1.15.89,2.09,1.87,2.81,2.95.72,1.08,1.27,2.12,1.66,3.13l-8.21,3.31c-.43-1.3-1.18-2.32-2.23-3.06-1.06-.74-2.42-1.12-4.1-1.12-1.54,0-2.69.28-3.46.83s-1.15,1.24-1.15,2.05Z"/>
          <path class="cls-1" d="m629.61,167.51h9.07v35.71h-9.07v-5.18h-1.3c-1.58,4.13-4.99,6.19-10.22,6.19-1.78,0-3.43-.29-4.97-.86-1.54-.58-2.88-1.46-4.03-2.66-1.15-1.2-2.05-2.7-2.7-4.5-.65-1.8-.97-3.92-.97-6.37v-22.32h9.07v20.45c0,2.54.6,4.52,1.8,5.94,1.2,1.42,3,2.12,5.4,2.12,2.74,0,4.74-.88,6.01-2.63,1.27-1.75,1.91-4.14,1.91-7.16v-18.72Z"/>
          <path class="cls-1" d="m647.76,167.51h15.12v5.18h1.3c.67-1.97,1.81-3.49,3.42-4.57s3.54-1.62,5.8-1.62c3.55,0,6.41,1.12,8.57,3.35,2.16,2.23,3.24,5.63,3.24,10.19v1.58l-9.36.86v-1.01c0-1.97-.5-3.54-1.51-4.72-1.01-1.18-2.52-1.76-4.54-1.76s-3.6.7-4.75,2.09c-1.15,1.39-1.73,3.38-1.73,5.98v11.52h8.21v8.64h-24.62v-8.64h7.34v-18.43h-6.48v-8.64Z"/>
          <path class="cls-1" d="m717.74,167.51h9.07v44.5c0,1.63-.52,2.98-1.55,4.03-1.03,1.05-2.37,1.58-4,1.58h-21.24v-8.64h15.77c1.3,0,1.94-.72,1.94-2.16v-8.78h-1.3c-1.58,4.13-4.99,6.19-10.22,6.19-1.78,0-3.43-.29-4.97-.86-1.54-.58-2.88-1.46-4.03-2.66-1.15-1.2-2.05-2.7-2.7-4.5-.65-1.8-.97-3.92-.97-6.37v-22.32h9.07v20.45c0,2.54.6,4.52,1.8,5.94,1.2,1.42,3,2.12,5.4,2.12,2.74,0,4.74-.88,6.01-2.63,1.27-1.75,1.91-4.14,1.91-7.16v-18.72Z"/>
        </g>
        <g>
          <path class="cls-1" d="m396.94,36.27c0-1.01-.39-1.88-1.17-2.63-.78-.74-1.88-1.12-3.29-1.12-1.2,0-2.15.25-2.84.74-.7.49-1.04,1.16-1.04,2,0,.43.08.82.25,1.17.17.35.46.66.88.94.42.28.97.52,1.66.74.68.22,1.55.42,2.61.61,2.64.48,4.66,1.28,6.05,2.41,1.39,1.13,2.09,2.8,2.09,5v.43c0,1.18-.21,2.24-.63,3.19-.42.95-1.03,1.76-1.82,2.43-.79.67-1.75,1.19-2.88,1.55-1.13.36-2.4.54-3.82.54-1.66,0-3.11-.23-4.37-.7-1.26-.47-2.31-1.12-3.15-1.94s-1.48-1.8-1.91-2.92c-.43-1.12-.65-2.33-.65-3.65v-1.08h4.75v.86c0,1.51.44,2.72,1.31,3.62.88.9,2.24,1.35,4.09,1.35,1.44,0,2.51-.31,3.2-.94.7-.62,1.04-1.37,1.04-2.23,0-.41-.07-.8-.22-1.17-.14-.37-.4-.71-.76-1.01-.36-.3-.85-.57-1.48-.81-.62-.24-1.42-.44-2.38-.61-1.27-.22-2.44-.5-3.49-.85-1.06-.35-1.97-.81-2.75-1.39-.78-.58-1.39-1.3-1.82-2.16-.43-.86-.65-1.92-.65-3.17v-.22c0-1.03.21-1.99.63-2.86.42-.88,1.01-1.64,1.76-2.29s1.67-1.15,2.74-1.51c1.07-.36,2.26-.54,3.58-.54,1.49,0,2.81.21,3.96.63,1.15.42,2.12.99,2.9,1.71.78.72,1.37,1.55,1.76,2.48.4.94.59,1.92.59,2.95v1.3h-4.75v-.86Z"/>
          <path class="cls-1" d="m418.54,35.91h4.54v17.86h-4.54v-2.59h-.65c-.79,2.06-2.5,3.1-5.11,3.1-.89,0-1.72-.14-2.48-.43-.77-.29-1.44-.73-2.02-1.33-.58-.6-1.03-1.35-1.35-2.25-.32-.9-.49-1.96-.49-3.19v-11.16h4.54v10.22c0,1.27.3,2.26.9,2.97.6.71,1.5,1.06,2.7,1.06,1.37,0,2.37-.44,3.01-1.31.64-.88.95-2.07.95-3.58v-9.36Z"/>
          <path class="cls-1" d="m432.08,60.97h-4.54v-25.06h4.54v2.59h.65c.48-.98,1.18-1.75,2.09-2.29s2.08-.81,3.49-.81c1.06,0,2.06.2,3.01.61.95.41,1.78,1,2.48,1.78s1.27,1.73,1.69,2.86c.42,1.13.63,2.41.63,3.85v.65c0,1.46-.2,2.76-.61,3.89-.41,1.13-.96,2.08-1.66,2.86-.7.78-1.52,1.37-2.47,1.76s-1.97.59-3.08.59c-.82,0-1.52-.08-2.12-.25-.6-.17-1.12-.4-1.57-.68-.44-.29-.82-.62-1.12-.99-.3-.37-.56-.76-.77-1.17h-.65v9.79Zm4.75-11.02c1.42,0,2.56-.44,3.44-1.31.88-.88,1.31-2.07,1.31-3.58v-.43c0-1.51-.44-2.71-1.31-3.58-.88-.88-2.02-1.31-3.44-1.31s-2.56.45-3.44,1.35-1.31,2.08-1.31,3.55v.43c0,1.46.44,2.65,1.31,3.55s2.02,1.35,3.44,1.35Z"/>
          <path class="cls-1" d="m454.11,60.97h-4.54v-25.06h4.54v2.59h.65c.48-.98,1.18-1.75,2.09-2.29s2.08-.81,3.49-.81c1.06,0,2.06.2,3.01.61.95.41,1.78,1,2.48,1.78s1.27,1.73,1.69,2.86c.42,1.13.63,2.41.63,3.85v.65c0,1.46-.2,2.76-.61,3.89-.41,1.13-.96,2.08-1.66,2.86-.7.78-1.52,1.37-2.47,1.76s-1.97.59-3.08.59c-.82,0-1.52-.08-2.12-.25-.6-.17-1.12-.4-1.57-.68-.44-.29-.82-.62-1.12-.99-.3-.37-.56-.76-.77-1.17h-.65v9.79Zm4.75-11.02c1.42,0,2.56-.44,3.44-1.31.88-.88,1.31-2.07,1.31-3.58v-.43c0-1.51-.44-2.71-1.31-3.58-.88-.88-2.02-1.31-3.44-1.31s-2.56.45-3.44,1.35-1.31,2.08-1.31,3.55v.43c0,1.46.44,2.65,1.31,3.55s2.02,1.35,3.44,1.35Z"/>
          <path class="cls-1" d="m490.04,45.06c0,1.49-.25,2.8-.76,3.94-.5,1.14-1.19,2.1-2.05,2.88-.86.78-1.85,1.37-2.97,1.78-1.12.41-2.29.61-3.51.61s-2.39-.2-3.51-.61-2.11-1-2.97-1.78c-.86-.78-1.55-1.74-2.05-2.88-.5-1.14-.76-2.45-.76-3.94v-.43c0-1.46.25-2.77.76-3.91.5-1.14,1.19-2.11,2.05-2.9.86-.79,1.85-1.39,2.97-1.8,1.12-.41,2.29-.61,3.51-.61s2.39.2,3.51.61c1.12.41,2.11,1.01,2.97,1.8.86.79,1.55,1.76,2.05,2.9.5,1.14.76,2.44.76,3.91v.43Zm-9.29,4.9c.65,0,1.26-.11,1.84-.32.58-.22,1.08-.53,1.51-.94.43-.41.77-.91,1.03-1.49.25-.59.38-1.25.38-2v-.72c0-.74-.13-1.41-.38-2-.25-.59-.59-1.09-1.03-1.49-.43-.41-.94-.72-1.51-.94-.58-.22-1.19-.32-1.84-.32s-1.26.11-1.84.32c-.58.22-1.08.53-1.51.94s-.77.91-1.03,1.49c-.25.59-.38,1.25-.38,2v.72c0,.74.13,1.41.38,2,.25.59.59,1.09,1.03,1.49.43.41.94.72,1.51.94.58.22,1.19.32,1.84.32Z"/>
          <path class="cls-1" d="m493.71,35.91h7.56v2.59h.65c.34-.98.91-1.75,1.71-2.29.8-.54,1.77-.81,2.9-.81,1.78,0,3.2.56,4.28,1.67,1.08,1.12,1.62,2.81,1.62,5.09v.79l-4.68.43v-.5c0-.98-.25-1.77-.76-2.36-.5-.59-1.26-.88-2.27-.88s-1.8.35-2.38,1.04c-.58.7-.86,1.69-.86,2.99v5.76h4.1v4.32h-12.31v-4.32h3.67v-9.22h-3.24v-4.32Z"/>
          <path class="cls-1" d="m516.1,35.91h5.29v-7.34h4.54v7.34h6.44v4.32h-6.44v8.14c0,.72.32,1.08.97,1.08h4.82v4.32h-7.56c-.82,0-1.48-.26-2-.79-.52-.53-.77-1.2-.77-2.02v-10.73h-5.29v-4.32Z"/>
          <path class="cls-1" d="m542.63,46.32c.02.53.15,1.01.38,1.46.23.44.54.83.94,1.15.4.32.85.58,1.37.76.52.18,1.06.27,1.64.27,1.13,0,1.99-.2,2.59-.59s1.03-.87,1.3-1.42l3.89,2.16c-.22.46-.52.93-.9,1.42-.38.49-.88.94-1.49,1.35-.61.41-1.36.74-2.23,1.01-.88.26-1.9.4-3.08.4-1.34,0-2.57-.22-3.67-.65-1.1-.43-2.06-1.06-2.86-1.87-.8-.82-1.43-1.81-1.87-2.99-.44-1.18-.67-2.51-.67-4v-.22c0-1.37.23-2.62.7-3.74.47-1.13,1.11-2.09,1.93-2.88.82-.79,1.77-1.41,2.86-1.85,1.09-.44,2.26-.67,3.51-.67,1.54,0,2.86.27,3.96.81,1.1.54,2.02,1.22,2.74,2.05.72.83,1.25,1.74,1.58,2.74.34,1,.5,1.96.5,2.9v2.41h-13.1Zm4.28-6.8c-1.15,0-2.09.29-2.81.88-.72.59-1.19,1.27-1.4,2.03h8.42c-.14-.84-.59-1.54-1.35-2.09-.76-.55-1.71-.83-2.86-.83Z"/>
          <path class="cls-1" d="m573.48,51.18h-.65c-.19.41-.43.8-.7,1.17-.28.37-.64.7-1.08.99-.44.29-.97.52-1.58.68-.61.17-1.35.25-2.21.25-1.1,0-2.13-.2-3.08-.59-.95-.4-1.78-.98-2.48-1.76-.71-.78-1.26-1.73-1.66-2.86-.4-1.13-.59-2.42-.59-3.89v-.65c0-1.44.21-2.72.63-3.85.42-1.13,1-2.08,1.73-2.86.73-.78,1.58-1.37,2.56-1.78.97-.41,2-.61,3.08-.61,1.44,0,2.58.27,3.42.81.84.54,1.5,1.3,1.98,2.29h.65v-9.94h4.54v25.2h-4.54v-2.59Zm-4.75-1.22c1.42,0,2.56-.45,3.44-1.35s1.31-2.08,1.31-3.55v-.43c0-1.46-.44-2.65-1.31-3.55s-2.02-1.35-3.44-1.35-2.56.44-3.44,1.31c-.88.88-1.31,2.07-1.31,3.58v.43c0,1.51.44,2.71,1.31,3.58.88.88,2.02,1.31,3.44,1.31Z"/>
          <path class="cls-1" d="m608.51,53.77h-4.54v-25.2h4.54v9.94h.65c.48-.98,1.18-1.75,2.09-2.29.91-.54,2.08-.81,3.49-.81,1.06,0,2.06.2,3.01.61.95.41,1.78,1,2.48,1.78s1.27,1.73,1.69,2.86c.42,1.13.63,2.41.63,3.85v.65c0,1.46-.2,2.76-.61,3.89-.41,1.13-.96,2.08-1.66,2.86-.7.78-1.52,1.37-2.47,1.76s-1.97.59-3.08.59c-.82,0-1.52-.08-2.12-.25-.6-.17-1.12-.4-1.57-.68-.44-.29-.82-.62-1.12-.99s-.56-.76-.77-1.17h-.65v2.59Zm4.75-3.82c1.42,0,2.56-.44,3.44-1.31.88-.88,1.31-2.07,1.31-3.58v-.43c0-1.51-.44-2.71-1.31-3.58-.88-.88-2.02-1.31-3.44-1.31s-2.56.45-3.44,1.35c-.88.9-1.31,2.08-1.31,3.55v.43c0,1.46.44,2.65,1.31,3.55.88.9,2.02,1.35,3.44,1.35Z"/>
          <path class="cls-1" d="m638.86,35.91h4.54v22.25c0,.82-.26,1.49-.77,2.02-.52.53-1.18.79-2,.79h-10.62v-4.32h7.88c.65,0,.97-.36.97-1.08v-4.39h-.65c-.79,2.06-2.5,3.1-5.11,3.1-.89,0-1.72-.14-2.48-.43-.77-.29-1.44-.73-2.02-1.33-.58-.6-1.03-1.35-1.35-2.25-.32-.9-.49-1.96-.49-3.19v-11.16h4.54v10.22c0,1.27.3,2.26.9,2.97.6.71,1.5,1.06,2.7,1.06,1.37,0,2.37-.44,3.01-1.31.64-.88.95-2.07.95-3.58v-9.36Z"/>
        </g>
      </g>
    </g>
  </g>
</svg>