<?xml version="1.0" encoding="UTF-8"?>
<svg width="300px" height="327px" viewBox="0 0 300 327" version="1.1" xmlns="http://www.w3.org/2000/svg" xmlns:xlink="http://www.w3.org/1999/xlink">
    <g stroke="none" stroke-width="1" fill="none" fill-rule="evenodd">
        <g transform="translate(-4646.000000, -397.000000)">
            <g transform="translate(0.000000, 199.000000)">
                <g transform="translate(4648.000000, 198.000000)">
                    <g transform="translate(0.000000, 45.000000)" fill-rule="nonzero" id="Path" stroke="#0F1923">
                        <path d="M295.5,179.5 L295.5,100.4 C295.5,85.2 287.4,71.1 274.2,63.5 L205.7,23.9 C192.5,16.3 176.3,16.3 163.1,23.9 L94.6,63.5 C81.4,71.1 73.3,85.2 73.3,100.4 L73.3,179.5 C73.3,194.7 81.4,208.8 94.6,216.4 L163,256 C176.2,263.6 192.4,263.6 205.6,256 L274.1,216.4 C287.4,208.8 295.5,194.8 295.5,179.5 Z" stroke-width="3.5075" fill="#0F1923"></path>
                        <path d="M295.3,179.6 L295.3,100.4 C295.3,85.2 287.2,71.1 274,63.5 L205.4,23.9 C192.2,16.3 176,16.3 162.8,23.9 L94.2,63.5 C81,71.1 72.9,85.2 72.9,100.4 L72.9,179.6 C72.9,194.8 81,208.9 94.2,216.5 L162.8,256.1 C176,263.7 192.2,263.7 205.4,256.1 L274,216.5 C287.2,208.9 295.3,194.8 295.3,179.6 Z" stroke-width="3.5098" fill="#101A24"></path>
                        <path d="M295.1,179.6 L295.1,100.3 C295.1,85.1 287,71 273.8,63.4 L205.1,23.7 C191.9,16.1 175.7,16.1 162.5,23.7 L93.8,63.4 C80.6,71 72.5,85.1 72.5,100.3 L72.5,179.6 C72.5,194.8 80.6,208.9 93.8,216.5 L162.5,256.2 C175.7,263.8 191.9,263.8 205.1,256.2 L273.8,216.5 C287,208.9 295.1,194.9 295.1,179.6 Z" stroke-width="3.5121" fill="#111A25"></path>
                        <path d="M294.9,179.7 L294.9,100.3 C294.9,85.1 286.8,71 273.6,63.4 L204.8,23.7 C191.6,16.1 175.4,16.1 162.2,23.7 L93.4,63.4 C80.2,71 72.1,85.1 72.1,100.3 L72.1,179.7 C72.1,194.9 80.2,209 93.4,216.6 L162.2,256.3 C175.4,263.9 191.6,263.9 204.8,256.3 L273.6,216.6 C286.8,209 294.9,194.9 294.9,179.7 Z" stroke-width="3.5144" fill="#121B25"></path>
                        <path d="M294.8,179.7 L294.8,100.2 C294.8,85 286.7,70.9 273.5,63.3 L204.7,23.6 C191.5,16 175.3,16 162.1,23.6 L93.3,63.3 C80.1,70.9 72,85 72,100.2 L72,179.7 C72,194.9 80.1,209 93.3,216.6 L162.1,256.3 C175.3,263.9 191.5,263.9 204.7,256.3 L273.5,216.6 C286.6,209 294.8,194.9 294.8,179.7 Z" stroke-width="3.5167" fill="#131C26"></path>
                        <path d="M294.6,179.8 L294.6,100.2 C294.6,85 286.5,70.9 273.3,63.3 L204.4,23.5 C191.2,15.9 175,15.9 161.8,23.5 L92.9,63.3 C79.7,70.9 71.6,85 71.6,100.2 L71.6,179.8 C71.6,195 79.7,209.1 92.9,216.7 L161.8,256.5 C175,264.1 191.2,264.1 204.4,256.5 L273.3,216.7 C286.4,209.1 294.6,195 294.6,179.8 Z" stroke-width="3.5189" fill="#141D27"></path>
                        <path d="M294.4,179.8 L294.4,100.2 C294.4,85 286.3,70.9 273.1,63.3 L204.1,23.5 C190.9,15.9 174.7,15.9 161.5,23.5 L92.5,63.3 C79.3,70.9 71.2,85 71.2,100.2 L71.2,179.8 C71.2,195 79.3,209.1 92.5,216.7 L161.5,256.5 C174.7,264.1 190.9,264.1 204.1,256.5 L273.1,216.7 C286.2,209.1 294.4,195 294.4,179.8 Z" stroke-width="3.5212" fill="#151D27"></path>
                        <path d="M294.2,179.8 L294.2,100.1 C294.2,84.9 286.1,70.8 272.9,63.2 L203.9,23.3 C190.7,15.7 174.5,15.7 161.3,23.3 L92.3,63.2 C79.1,70.8 71,84.9 71,100.1 L71,179.8 C71,195 79.1,209.1 92.3,216.7 L161.3,256.6 C174.5,264.2 190.7,264.2 203.9,256.6 L272.9,216.7 C286.1,209.1 294.2,195.1 294.2,179.8 Z" stroke-width="3.5235" fill="#161E28"></path>
                        <path d="M294,179.9 L294,100.1 C294,84.9 285.9,70.8 272.7,63.2 L203.6,23.3 C190.4,15.7 174.2,15.7 161,23.3 L91.9,63.2 C78.7,70.8 70.6,84.9 70.6,100.1 L70.6,179.9 C70.6,195.1 78.7,209.2 91.9,216.8 L161,256.7 C174.2,264.3 190.4,264.3 203.6,256.7 L272.7,216.8 C285.9,209.2 294,195.1 294,179.9 Z" stroke-width="3.5258" fill="#171F29"></path>
                        <path d="M293.8,179.9 L293.8,100 C293.8,84.8 285.7,70.7 272.5,63.1 L203.3,23.2 C190.1,15.6 173.9,15.6 160.7,23.2 L91.5,63.1 C78.3,70.7 70.2,84.8 70.2,100 L70.2,179.9 C70.2,195.1 78.3,209.2 91.5,216.8 L160.7,256.7 C173.9,264.3 190.1,264.3 203.3,256.7 L272.5,216.8 C285.7,209.2 293.8,195.1 293.8,179.9 Z" stroke-width="3.5281" fill="#172029"></path>
                        <path d="M293.6,180 L293.6,100 C293.6,84.8 285.5,70.7 272.3,63.1 L203,23.1 C189.8,15.5 173.6,15.5 160.4,23.1 L91.1,63.1 C77.9,70.7 69.8,84.8 69.8,100 L69.8,180 C69.8,195.2 77.9,209.3 91.1,216.9 L160.4,256.9 C173.6,264.5 189.8,264.5 203,256.9 L272.3,216.9 C285.5,209.3 293.6,195.2 293.6,180 Z" stroke-width="3.5303" fill="#18202A"></path>
                        <path d="M293.4,180 L293.4,99.9 C293.4,84.7 285.3,70.6 272.1,63 L202.8,23 C189.6,15.4 173.4,15.4 160.2,23 L90.9,63 C77.7,70.6 69.6,84.7 69.6,99.9 L69.6,180 C69.6,195.2 77.7,209.3 90.9,216.9 L160.2,256.9 C173.4,264.5 189.6,264.5 202.8,256.9 L272.1,216.9 C285.3,209.3 293.4,195.2 293.4,180 Z" stroke-width="3.5326" fill="#19212A"></path>
                        <path d="M293.2,180 L293.2,99.9 C293.2,84.7 285.1,70.6 271.9,63 L202.5,22.9 C189.3,15.3 173.1,15.3 159.9,22.9 L90.5,63 C77.3,70.6 69.2,84.7 69.2,99.9 L69.2,180 C69.2,195.2 77.3,209.3 90.5,216.9 L159.9,257 C173.1,264.6 189.3,264.6 202.5,257 L271.9,216.9 C285.1,209.3 293.2,195.3 293.2,180 Z" stroke-width="3.5349" fill="#1A222B"></path>
                        <path d="M293,180.1 L293,99.9 C293,84.7 284.9,70.6 271.7,63 L202.2,22.9 C189,15.3 172.8,15.3 159.6,22.9 L90.1,63 C76.9,70.6 68.8,84.7 68.8,99.9 L68.8,180.1 C68.8,195.3 76.9,209.4 90.1,217 L159.6,257.1 C172.8,264.7 189,264.7 202.2,257.1 L271.7,217 C284.9,209.4 293,195.3 293,180.1 Z" stroke-width="3.5372" fill="#1B222C"></path>
                        <path d="M292.8,180.1 L292.8,99.8 C292.8,84.6 284.7,70.5 271.5,62.9 L202,22.7 C188.8,15.1 172.6,15.1 159.4,22.7 L89.9,62.9 C76.7,70.5 68.6,84.6 68.6,99.8 L68.6,180.1 C68.6,195.3 76.7,209.4 89.9,217 L159.4,257.2 C172.6,264.8 188.8,264.8 202,257.2 L271.5,217 C284.7,209.4 292.8,195.4 292.8,180.1 Z" stroke-width="3.5395" fill="#1C232C"></path>
                        <path d="M292.6,180.2 L292.6,99.8 C292.6,84.6 284.5,70.5 271.3,62.9 L201.7,22.7 C188.5,15.1 172.3,15.1 159.1,22.7 L89.5,62.9 C76.3,70.5 68.2,84.6 68.2,99.8 L68.2,180.2 C68.2,195.4 76.3,209.5 89.5,217.1 L159.1,257.3 C172.3,264.9 188.5,264.9 201.7,257.3 L271.3,217.1 C284.5,209.5 292.6,195.4 292.6,180.2 Z" stroke-width="3.5417" fill="#1D242D"></path>
                        <path d="M292.4,180.2 L292.4,99.7 C292.4,84.5 284.3,70.4 271.1,62.8 L201.4,22.6 C188.2,15 172,15 158.8,22.6 L89.1,62.8 C75.9,70.4 67.8,84.5 67.8,99.7 L67.8,180.2 C67.8,195.4 75.9,209.5 89.1,217.1 L158.8,257.3 C172,264.9 188.2,264.9 201.4,257.3 L271.1,217.1 C284.3,209.5 292.4,195.4 292.4,180.2 Z" stroke-width="3.544" fill="#1D242E"></path>
                        <path d="M292.3,180.3 L292.3,99.7 C292.3,84.5 284.2,70.4 271,62.8 L201.2,22.5 C188,14.9 171.8,14.9 158.6,22.5 L88.8,62.8 C75.6,70.4 67.5,84.5 67.5,99.7 L67.5,180.3 C67.5,195.5 75.6,209.6 88.8,217.2 L158.6,257.5 C171.8,265.1 188,265.1 201.2,257.5 L271,217.2 C284.1,209.6 292.3,195.5 292.3,180.3 Z" stroke-width="3.5463" fill="#1E252E"></path>
                        <path d="M292.1,180.3 L292.1,99.7 C292.1,84.5 284,70.4 270.8,62.8 L201,22.5 C187.8,14.9 171.6,14.9 158.4,22.5 L88.6,62.8 C75.4,70.4 67.3,84.5 67.3,99.7 L67.3,180.3 C67.3,195.5 75.4,209.6 88.6,217.2 L158.4,257.5 C171.6,265.1 187.8,265.1 201,257.5 L270.8,217.2 C283.9,209.6 292.1,195.5 292.1,180.3 Z" stroke-width="3.5486" fill="#1F262F"></path>
                        <path d="M291.9,180.3 L291.9,99.6 C291.9,84.4 283.8,70.3 270.6,62.7 L200.7,22.3 C187.5,14.7 171.3,14.7 158.1,22.3 L88.2,62.7 C75,70.3 66.9,84.4 66.9,99.6 L66.9,180.3 C66.9,195.5 75,209.6 88.2,217.2 L158.1,257.6 C171.3,265.2 187.5,265.2 200.7,257.6 L270.6,217.2 C283.7,209.6 291.9,195.6 291.9,180.3 Z" stroke-width="3.5509" fill="#20262F"></path>
                        <path d="M291.7,180.4 L291.7,99.6 C291.7,84.4 283.6,70.3 270.4,62.7 L200.4,22.3 C187.2,14.7 171,14.7 157.8,22.3 L87.8,62.7 C74.6,70.3 66.5,84.4 66.5,99.6 L66.5,180.4 C66.5,195.6 74.6,209.7 87.8,217.3 L157.8,257.7 C171,265.3 187.2,265.3 200.4,257.7 L270.4,217.3 C283.6,209.7 291.7,195.6 291.7,180.4 Z" stroke-width="3.5531" fill="#212730"></path>
                        <path d="M291.5,180.4 L291.5,99.5 C291.5,84.3 283.4,70.2 270.2,62.6 L200.1,22.2 C186.9,14.6 170.7,14.6 157.5,22.2 L87.4,62.6 C74.2,70.2 66.1,84.3 66.1,99.5 L66.1,180.4 C66.1,195.6 74.2,209.7 87.4,217.3 L157.5,257.7 C170.7,265.3 186.9,265.3 200.1,257.7 L270.2,217.3 C283.4,209.7 291.5,195.6 291.5,180.4 Z" stroke-width="3.5554" fill="#212831"></path>
                        <path d="M291.3,180.5 L291.3,99.5 C291.3,84.3 283.2,70.2 270,62.6 L199.9,22.1 C186.7,14.5 170.5,14.5 157.3,22.1 L87.2,62.6 C74,70.2 65.9,84.3 65.9,99.5 L65.9,180.5 C65.9,195.7 74,209.8 87.2,217.4 L157.3,257.9 C170.5,265.5 186.7,265.5 199.9,257.9 L270,217.4 C283.2,209.8 291.3,195.7 291.3,180.5 Z" stroke-width="3.5577" fill="#222831"></path>
                        <path d="M291.1,180.5 L291.1,99.4 C291.1,84.2 283,70.1 269.8,62.5 L199.6,22 C186.4,14.4 170.2,14.4 157,22 L86.8,62.5 C73.6,70.1 65.5,84.2 65.5,99.4 L65.5,180.5 C65.5,195.7 73.6,209.8 86.8,217.4 L157,257.9 C170.2,265.5 186.4,265.5 199.6,257.9 L269.8,217.4 C283,209.8 291.1,195.7 291.1,180.5 Z" stroke-width="3.56" fill="#232932"></path>
                        <path d="M290.9,180.5 L290.9,99.4 C290.9,84.2 282.8,70.1 269.6,62.5 L199.3,21.9 C186.1,14.3 169.9,14.3 156.7,21.9 L86.4,62.5 C73.2,70.1 65.1,84.2 65.1,99.4 L65.1,180.5 C65.1,195.7 73.2,209.8 86.4,217.4 L156.7,258 C169.9,265.6 186.1,265.6 199.3,258 L269.6,217.4 C282.8,209.8 290.9,195.8 290.9,180.5 Z" stroke-width="3.5623" fill="#242A33"></path>
                        <path d="M290.7,180.6 L290.7,99.4 C290.7,84.2 282.6,70.1 269.4,62.5 L199.1,21.9 C185.9,14.3 169.7,14.3 156.5,21.9 L86.2,62.5 C73,70.1 64.9,84.2 64.9,99.4 L64.9,180.6 C64.9,195.8 73,209.9 86.2,217.5 L156.5,258.1 C169.7,265.7 185.9,265.7 199.1,258.1 L269.4,217.5 C282.6,209.9 290.7,195.8 290.7,180.6 Z" stroke-width="3.5645" fill="#252A33"></path>
                        <path d="M290.5,180.6 L290.5,99.3 C290.5,84.1 282.4,70 269.2,62.4 L198.8,21.7 C185.6,14.1 169.4,14.1 156.2,21.7 L85.8,62.4 C72.6,70 64.5,84.1 64.5,99.3 L64.5,180.6 C64.5,195.8 72.6,209.9 85.8,217.5 L156.2,258.2 C169.4,265.8 185.6,265.8 198.8,258.2 L269.2,217.5 C282.4,209.9 290.5,195.9 290.5,180.6 Z" stroke-width="3.5668" fill="#262B34"></path>
                        <path d="M290.3,180.7 L290.3,99.3 C290.3,84.1 282.2,70 269,62.4 L198.5,21.7 C185.3,14.1 169.1,14.1 155.9,21.7 L85.4,62.4 C72.2,70 64.1,84.1 64.1,99.3 L64.1,180.7 C64.1,195.9 72.2,210 85.4,217.6 L155.9,258.3 C169.1,265.9 185.3,265.9 198.5,258.3 L269,217.6 C282.2,210 290.3,195.9 290.3,180.7 Z" stroke-width="3.5691" fill="#262C34"></path>
                        <path d="M290.1,180.7 L290.1,99.2 C290.1,84 282,69.9 268.8,62.3 L198.2,21.6 C185,14 168.8,14 155.6,21.6 L85,62.3 C71.8,69.9 63.7,84 63.7,99.2 L63.7,180.7 C63.7,195.9 71.8,210 85,217.6 L155.6,258.3 C168.8,265.9 185,265.9 198.2,258.3 L268.8,217.6 C282,210 290.1,195.9 290.1,180.7 Z" stroke-width="3.5714" fill="#272C35"></path>
                        <path d="M289.9,180.8 L289.9,99.2 C289.9,84 281.8,69.9 268.6,62.3 L198,21.5 C184.8,13.9 168.6,13.9 155.4,21.5 L84.8,62.3 C71.6,69.9 63.5,84 63.5,99.2 L63.5,180.8 C63.5,196 71.6,210.1 84.8,217.7 L155.4,258.5 C168.6,266.1 184.8,266.1 198,258.5 L268.6,217.7 C281.8,210.1 289.9,196 289.9,180.8 Z" stroke-width="3.5737" fill="#282D36"></path>
                        <path d="M289.8,180.8 L289.8,99.2 C289.8,84 281.7,69.9 268.5,62.3 L197.8,21.5 C184.6,13.9 168.4,13.9 155.2,21.5 L84.5,62.3 C71.3,69.9 63.2,84 63.2,99.2 L63.2,180.8 C63.2,196 71.3,210.1 84.5,217.7 L155.2,258.5 C168.4,266.1 184.6,266.1 197.8,258.5 L268.5,217.7 C281.6,210.1 289.8,196 289.8,180.8 Z" stroke-width="3.5759" fill="#292E36"></path>
                        <path d="M289.6,180.8 L289.6,99.1 C289.6,83.9 281.5,69.8 268.3,62.2 L197.5,21.3 C184.3,13.7 168.1,13.7 154.9,21.3 L84.1,62.2 C70.9,69.8 62.8,83.9 62.8,99.1 L62.8,180.8 C62.8,196 70.9,210.1 84.1,217.7 L154.9,258.6 C168.1,266.2 184.3,266.2 197.5,258.6 L268.3,217.7 C281.4,210.1 289.6,196.1 289.6,180.8 Z" stroke-width="3.5782" fill="#2A2E37"></path>
                        <path d="M289.4,180.9 L289.4,99.1 C289.4,83.9 281.3,69.8 268.1,62.2 L197.3,21.3 C184.1,13.7 167.9,13.7 154.7,21.3 L83.9,62.2 C70.7,69.8 62.6,83.9 62.6,99.1 L62.6,180.9 C62.6,196.1 70.7,210.2 83.9,217.8 L154.7,258.7 C167.9,266.3 184.1,266.3 197.3,258.7 L268.1,217.8 C281.2,210.2 289.4,196.1 289.4,180.9 Z" stroke-width="3.5805" fill="#2A2F38"></path>
                        <path d="M289.2,180.9 L289.2,99 C289.2,83.8 281.1,69.7 267.9,62.1 L197,21.2 C183.8,13.6 167.6,13.6 154.4,21.2 L83.5,62.1 C70.3,69.7 62.2,83.8 62.2,99 L62.2,180.9 C62.2,196.1 70.3,210.2 83.5,217.8 L154.4,258.7 C167.6,266.3 183.8,266.3 197,258.7 L267.9,217.8 C281,210.2 289.2,196.1 289.2,180.9 Z" stroke-width="3.5828" fill="#2B3038"></path>
                        <path d="M289,181 L289,99 C289,83.8 280.9,69.7 267.7,62.1 L196.7,21.1 C183.5,13.5 167.3,13.5 154.1,21.1 L83.1,62.1 C69.9,69.7 61.8,83.8 61.8,99 L61.8,181 C61.8,196.2 69.9,210.3 83.1,217.9 L154.1,258.9 C167.3,266.5 183.5,266.5 196.7,258.9 L267.7,217.9 C280.9,210.3 289,196.2 289,181 Z" stroke-width="3.5851" fill="#2C3039"></path>
                        <path d="M288.8,181 L288.8,98.9 C288.8,83.7 280.7,69.6 267.5,62 L196.4,21 C183.2,13.4 167,13.4 153.8,21 L82.7,62 C69.5,69.6 61.4,83.7 61.4,98.9 L61.4,181 C61.4,196.2 69.5,210.3 82.7,217.9 L153.8,258.9 C167,266.5 183.2,266.5 196.4,258.9 L267.5,217.9 C280.7,210.3 288.8,196.2 288.8,181 Z" stroke-width="3.5873" fill="#2D313A"></path>
                        <path d="M288.6,181 L288.6,98.9 C288.6,83.7 280.5,69.6 267.3,62 L196.2,20.9 C183,13.3 166.8,13.3 153.6,20.9 L82.5,62 C69.3,69.6 61.2,83.7 61.2,98.9 L61.2,181 C61.2,196.2 69.3,210.3 82.5,217.9 L153.6,259 C166.8,266.6 183,266.6 196.2,259 L267.3,217.9 C280.5,210.3 288.6,196.3 288.6,181 Z" stroke-width="3.5896" fill="#2E323A"></path>
                        <path d="M288.4,181.1 L288.4,98.9 C288.4,83.7 280.3,69.6 267.1,62 L195.9,20.9 C182.7,13.3 166.5,13.3 153.3,20.9 L82.1,62 C68.9,69.6 60.8,83.7 60.8,98.9 L60.8,181.1 C60.8,196.3 68.9,210.4 82.1,218 L153.3,259.1 C166.5,266.7 182.7,266.7 195.9,259.1 L267.1,218 C280.3,210.4 288.4,196.3 288.4,181.1 Z" stroke-width="3.5919" fill="#2E323B"></path>
                        <path d="M288.2,181.1 L288.2,98.8 C288.2,83.6 280.1,69.5 266.9,61.9 L195.6,20.7 C182.4,13.1 166.2,13.1 153,20.7 L81.7,61.9 C68.5,69.5 60.4,83.6 60.4,98.8 L60.4,181.1 C60.4,196.3 68.5,210.4 81.7,218 L153,259.2 C166.2,266.8 182.4,266.8 195.6,259.2 L266.9,218 C280.1,210.4 288.2,196.4 288.2,181.1 Z" stroke-width="3.5942" fill="#2F333C"></path>
                        <path d="M288,181.2 L288,98.8 C288,83.6 279.9,69.5 266.7,61.9 L195.3,20.7 C182.1,13.1 165.9,13.1 152.7,20.7 L81.3,61.9 C68.1,69.5 60,83.6 60,98.8 L60,181.2 C60,196.4 68.1,210.5 81.3,218.1 L152.7,259.3 C165.9,266.9 182.1,266.9 195.3,259.3 L266.7,218.1 C279.9,210.5 288,196.4 288,181.2 Z" stroke-width="3.5965" fill="#30343C"></path>
                        <path d="M287.8,181.2 L287.8,98.7 C287.8,83.5 279.7,69.4 266.5,61.8 L195.1,20.6 C181.9,13 165.7,13 152.5,20.6 L81.1,61.8 C67.9,69.4 59.8,83.5 59.8,98.7 L59.8,181.2 C59.8,196.4 67.9,210.5 81.1,218.1 L152.5,259.3 C165.7,266.9 181.9,266.9 195.1,259.3 L266.5,218.1 C279.7,210.5 287.8,196.4 287.8,181.2 Z" stroke-width="3.5987" fill="#31353D"></path>
                        <path d="M287.6,181.3 L287.6,98.7 C287.6,83.5 279.5,69.4 266.3,61.8 L194.8,20.5 C181.6,12.9 165.4,12.9 152.2,20.5 L80.7,61.8 C67.5,69.4 59.4,83.5 59.4,98.7 L59.4,181.3 C59.4,196.5 67.5,210.6 80.7,218.2 L152.2,259.5 C165.4,267.1 181.6,267.1 194.8,259.5 L266.3,218.2 C279.5,210.6 287.6,196.5 287.6,181.3 Z" stroke-width="3.601" fill="#32353E"></path>
                        <path d="M287.4,181.3 L287.4,98.7 C287.4,83.5 279.3,69.4 266.1,61.8 L194.5,20.5 C181.3,12.9 165.1,12.9 151.9,20.5 L80.3,61.8 C67.1,69.4 59,83.5 59,98.7 L59,181.3 C59,196.5 67.1,210.6 80.3,218.2 L151.9,259.5 C165.1,267.1 181.3,267.1 194.5,259.5 L266.1,218.2 C279.3,210.6 287.4,196.5 287.4,181.3 Z" stroke-width="3.6033" fill="#32363E"></path>
                        <path d="M287.2,181.3 L287.2,98.6 C287.2,83.4 279.1,69.3 265.9,61.7 L194.3,20.3 C181.1,12.7 164.9,12.7 151.7,20.3 L80.1,61.7 C66.9,69.3 58.8,83.4 58.8,98.6 L58.8,181.3 C58.8,196.5 66.9,210.6 80.1,218.2 L151.7,259.6 C164.9,267.2 181.1,267.2 194.3,259.6 L265.9,218.2 C279.1,210.6 287.2,196.6 287.2,181.3 Z" stroke-width="3.6056" fill="#33373F"></path>
                        <path d="M287.1,181.4 L287.1,98.6 C287.1,83.4 279,69.3 265.8,61.7 L194.1,20.3 C180.9,12.7 164.7,12.7 151.5,20.3 L79.8,61.7 C66.6,69.3 58.5,83.4 58.5,98.6 L58.5,181.4 C58.5,196.6 66.6,210.7 79.8,218.3 L151.5,259.7 C164.7,267.3 180.9,267.3 194.1,259.7 L265.8,218.3 C278.9,210.7 287.1,196.6 287.1,181.4 Z" stroke-width="3.6079" fill="#343740"></path>
                        <path d="M286.9,181.4 L286.9,98.5 C286.9,83.3 278.8,69.2 265.6,61.6 L193.8,20.2 C180.6,12.6 164.4,12.6 151.2,20.2 L79.4,61.6 C66.2,69.2 58.1,83.3 58.1,98.5 L58.1,181.4 C58.1,196.6 66.2,210.7 79.4,218.3 L151.2,259.7 C164.4,267.3 180.6,267.3 193.8,259.7 L265.6,218.3 C278.7,210.7 286.9,196.6 286.9,181.4 Z" stroke-width="3.6101" fill="#353840"></path>
                        <path d="M286.7,181.5 L286.7,98.5 C286.7,83.3 278.6,69.2 265.4,61.6 L193.5,20.1 C180.3,12.5 164.1,12.5 150.9,20.1 L79,61.6 C65.8,69.2 57.7,83.3 57.7,98.5 L57.7,181.5 C57.7,196.7 65.8,210.8 79,218.4 L150.9,259.9 C164.1,267.5 180.3,267.5 193.5,259.9 L265.4,218.4 C278.5,210.8 286.7,196.7 286.7,181.5 Z" stroke-width="3.6124" fill="#353941"></path>
                        <path d="M286.5,181.5 L286.5,98.4 C286.5,83.2 278.4,69.1 265.2,61.5 L193.3,20 C180.1,12.4 163.9,12.4 150.7,20 L78.8,61.5 C65.6,69.1 57.5,83.2 57.5,98.4 L57.5,181.5 C57.5,196.7 65.6,210.8 78.8,218.4 L150.7,259.9 C163.9,267.5 180.1,267.5 193.3,259.9 L265.2,218.4 C278.4,210.8 286.5,196.7 286.5,181.5 Z" stroke-width="3.6147" fill="#363942"></path>
                        <path d="M286.3,181.5 L286.3,98.4 C286.3,83.2 278.2,69.1 265,61.5 L193,19.9 C179.8,12.3 163.6,12.3 150.4,19.9 L78.4,61.5 C65.2,69.1 57.1,83.2 57.1,98.4 L57.1,181.5 C57.1,196.7 65.2,210.8 78.4,218.4 L150.4,260 C163.6,267.6 179.8,267.6 193,260 L265,218.4 C278.2,210.8 286.3,196.8 286.3,181.5 Z" stroke-width="3.617" fill="#373A42"></path>
                        <path d="M286.1,181.6 L286.1,98.4 C286.1,83.2 278,69.1 264.8,61.5 L192.7,19.9 C179.5,12.3 163.3,12.3 150.1,19.9 L78,61.5 C64.8,69.1 56.7,83.2 56.7,98.4 L56.7,181.6 C56.7,196.8 64.8,210.9 78,218.5 L150.1,260.1 C163.3,267.7 179.5,267.7 192.7,260.1 L264.8,218.5 C278,210.9 286.1,196.8 286.1,181.6 Z" stroke-width="3.6193" fill="#383B43"></path>
                        <path d="M285.9,181.6 L285.9,98.3 C285.9,83.1 277.8,69 264.6,61.4 L192.5,19.7 C179.3,12.1 163.1,12.1 149.9,19.7 L77.8,61.4 C64.6,69 56.5,83.1 56.5,98.3 L56.5,181.6 C56.5,196.8 64.6,210.9 77.8,218.5 L149.9,260.2 C163.1,267.8 179.3,267.8 192.5,260.2 L264.6,218.5 C277.8,210.9 285.9,196.9 285.9,181.6 Z" stroke-width="3.6215" fill="#393C44"></path>
                        <path d="M285.7,181.7 L285.7,98.3 C285.7,83.1 277.6,69 264.4,61.4 L192.2,19.7 C179,12.1 162.8,12.1 149.6,19.7 L77.4,61.4 C64.2,69 56.1,83.1 56.1,98.3 L56.1,181.7 C56.1,196.9 64.2,211 77.4,218.6 L149.6,260.3 C162.8,267.9 179,267.9 192.2,260.3 L264.4,218.6 C277.6,211 285.7,196.9 285.7,181.7 Z" stroke-width="3.6238" fill="#393C44"></path>
                        <path d="M285.5,181.7 L285.5,98.2 C285.5,83 277.4,68.9 264.2,61.3 L191.9,19.6 C178.7,12 162.5,12 149.3,19.6 L77,61.3 C63.8,68.9 55.7,83 55.7,98.2 L55.7,181.7 C55.7,196.9 63.8,211 77,218.6 L149.3,260.3 C162.5,267.9 178.7,267.9 191.9,260.3 L264.2,218.6 C277.4,211 285.5,196.9 285.5,181.7 Z" stroke-width="3.6261" fill="#3A3D45"></path>
                        <path d="M285.3,181.8 L285.3,98.2 C285.3,83 277.2,68.9 264,61.3 L191.6,19.5 C178.4,11.9 162.2,11.9 149,19.5 L76.6,61.3 C63.4,68.9 55.3,83 55.3,98.2 L55.3,181.8 C55.3,197 63.4,211.1 76.6,218.7 L149,260.5 C162.2,268.1 178.4,268.1 191.6,260.5 L264,218.7 C277.2,211.1 285.3,197 285.3,181.8 Z" stroke-width="3.6284" fill="#3B3E46"></path>
                        <path d="M285.1,181.8 L285.1,98.2 C285.1,83 277,68.9 263.8,61.3 L191.4,19.5 C178.2,11.9 162,11.9 148.8,19.5 L76.4,61.3 C63.2,68.9 55.1,83 55.1,98.2 L55.1,181.8 C55.1,197 63.2,211.1 76.4,218.7 L148.8,260.5 C162,268.1 178.2,268.1 191.4,260.5 L263.8,218.7 C277,211.1 285.1,197 285.1,181.8 Z" stroke-width="3.6307" fill="#3C3E47"></path>
                        <path d="M284.9,181.8 L284.9,98.1 C284.9,82.9 276.8,68.8 263.6,61.2 L191.1,19.3 C177.9,11.7 161.7,11.7 148.5,19.3 L76,61.2 C62.8,68.8 54.7,82.9 54.7,98.1 L54.7,181.8 C54.7,197 62.8,211.1 76,218.7 L148.5,260.6 C161.7,268.2 177.9,268.2 191.1,260.6 L263.6,218.7 C276.8,211.1 284.9,197.1 284.9,181.8 Z" stroke-width="3.6329" fill="#3D3F47"></path>
                        <path d="M284.7,181.9 L284.7,98.1 C284.7,82.9 276.6,68.8 263.4,61.2 L190.8,19.3 C177.6,11.7 161.4,11.7 148.2,19.3 L75.6,61.2 C62.4,68.8 54.3,82.9 54.3,98.1 L54.3,181.9 C54.3,197.1 62.4,211.2 75.6,218.8 L148.2,260.7 C161.4,268.3 177.6,268.3 190.8,260.7 L263.4,218.8 C276.6,211.2 284.7,197.1 284.7,181.9 Z" stroke-width="3.6352" fill="#3D4048"></path>
                        <path d="M284.6,181.9 L284.6,98 C284.6,82.8 276.5,68.7 263.3,61.1 L190.6,19.2 C177.4,11.6 161.2,11.6 148,19.2 L75.3,61.1 C62.1,68.7 54,82.8 54,98 L54,181.9 C54,197.1 62.1,211.2 75.3,218.8 L148,260.7 C161.2,268.3 177.4,268.3 190.6,260.7 L263.3,218.8 C276.4,211.2 284.6,197.2 284.6,181.9 Z" stroke-width="3.6375" fill="#3E4149"></path>
                        <path d="M284.4,182 L284.4,98 C284.4,82.8 276.3,68.7 263.1,61.1 L190.4,19.1 C177.2,11.5 161,11.5 147.8,19.1 L75.1,61.1 C61.9,68.7 53.8,82.8 53.8,98 L53.8,182 C53.8,197.2 61.9,211.3 75.1,218.9 L147.8,260.9 C161,268.5 177.2,268.5 190.4,260.9 L263.1,218.9 C276.2,211.3 284.4,197.2 284.4,182 Z" stroke-width="3.6398" fill="#3F4149"></path>
                        <path d="M284.2,182 L284.2,97.9 C284.2,82.7 276.1,68.6 262.9,61 L190.1,19 C176.9,11.4 160.7,11.4 147.5,19 L74.7,61 C61.5,68.6 53.4,82.7 53.4,97.9 L53.4,182 C53.4,197.2 61.5,211.3 74.7,218.9 L147.5,260.9 C160.7,268.5 176.9,268.5 190.1,260.9 L262.9,218.9 C276,211.3 284.2,197.2 284.2,182 Z" stroke-width="3.6421" fill="#40424A"></path>
                        <path d="M284,182 L284,97.9 C284,82.7 275.9,68.6 262.7,61 L189.8,18.9 C176.6,11.3 160.4,11.3 147.2,18.9 L74.3,61 C61.1,68.6 53,82.7 53,97.9 L53,182 C53,197.2 61.1,211.3 74.3,218.9 L147.2,261 C160.4,268.6 176.6,268.6 189.8,261 L262.7,218.9 C275.9,211.3 284,197.3 284,182 Z" stroke-width="3.6443" fill="#41434B"></path>
                        <path d="M283.8,182.1 L283.8,97.9 C283.8,82.7 275.7,68.6 262.5,61 L189.6,18.9 C176.4,11.3 160.2,11.3 147,18.9 L74.1,61 C60.9,68.6 52.8,82.7 52.8,97.9 L52.8,182.1 C52.8,197.3 60.9,211.4 74.1,219 L147,261.1 C160.2,268.7 176.4,268.7 189.6,261.1 L262.5,219 C275.7,211.4 283.8,197.3 283.8,182.1 Z" stroke-width="3.6466" fill="#41444B"></path>
                        <path d="M283.6,182.1 L283.6,97.8 C283.6,82.6 275.5,68.5 262.3,60.9 L189.3,18.7 C176.1,11.1 159.9,11.1 146.7,18.7 L73.7,60.9 C60.5,68.5 52.4,82.6 52.4,97.8 L52.4,182.1 C52.4,197.3 60.5,211.4 73.7,219 L146.7,261.2 C159.9,268.8 176.1,268.8 189.3,261.2 L262.3,219 C275.5,211.4 283.6,197.4 283.6,182.1 Z" stroke-width="3.6489" fill="#42444C"></path>
                        <path d="M283.4,182.2 L283.4,97.8 C283.4,82.6 275.3,68.5 262.1,60.9 L189,18.7 C175.8,11.1 159.6,11.1 146.4,18.7 L73.3,60.9 C60.1,68.5 52,82.6 52,97.8 L52,182.2 C52,197.4 60.1,211.5 73.3,219.1 L146.4,261.3 C159.6,268.9 175.8,268.9 189,261.3 L262.1,219.1 C275.3,211.5 283.4,197.4 283.4,182.2 Z" stroke-width="3.6512" fill="#43454D"></path>
                        <path d="M283.2,182.2 L283.2,97.7 C283.2,82.5 275.1,68.4 261.9,60.8 L188.7,18.6 C175.5,11 159.3,11 146.1,18.6 L72.9,60.8 C59.7,68.4 51.6,82.5 51.6,97.7 L51.6,182.2 C51.6,197.4 59.7,211.5 72.9,219.1 L146.1,261.3 C159.3,268.9 175.5,268.9 188.7,261.3 L261.9,219.1 C275.1,211.5 283.2,197.4 283.2,182.2 Z" stroke-width="3.6535" fill="#44464E"></path>
                        <path d="M283,182.3 L283,97.7 C283,82.5 274.9,68.4 261.7,60.8 L188.5,18.5 C175.3,10.9 159.1,10.9 145.9,18.5 L72.7,60.8 C59.5,68.4 51.4,82.5 51.4,97.7 L51.4,182.3 C51.4,197.5 59.5,211.6 72.7,219.2 L145.9,261.5 C159.1,269.1 175.3,269.1 188.5,261.5 L261.7,219.2 C274.9,211.6 283,197.5 283,182.3 Z" stroke-width="3.6557" fill="#45464E"></path>
                        <path d="M282.8,182.3 L282.8,97.7 C282.8,82.5 274.7,68.4 261.5,60.8 L188.2,18.5 C175,10.9 158.8,10.9 145.6,18.5 L72.3,60.8 C59.1,68.4 51,82.5 51,97.7 L51,182.3 C51,197.5 59.1,211.6 72.3,219.2 L145.6,261.5 C158.8,269.1 175,269.1 188.2,261.5 L261.5,219.2 C274.7,211.6 282.8,197.5 282.8,182.3 Z" stroke-width="3.658" fill="#46474F"></path>
                        <path d="M282.6,182.3 L282.6,97.6 C282.6,82.4 274.5,68.3 261.3,60.7 L187.9,18.3 C174.7,10.7 158.5,10.7 145.3,18.3 L71.9,60.7 C58.7,68.3 50.6,82.4 50.6,97.6 L50.6,182.3 C50.6,197.5 58.7,211.6 71.9,219.2 L145.3,261.6 C158.5,269.2 174.7,269.2 187.9,261.6 L261.3,219.2 C274.5,211.6 282.6,197.6 282.6,182.3 Z" stroke-width="3.6603" fill="#464850"></path>
                        <path d="M282.4,182.4 L282.4,97.6 C282.4,82.4 274.3,68.3 261.1,60.7 L187.7,18.3 C174.5,10.7 158.3,10.7 145.1,18.3 L71.7,60.7 C58.5,68.3 50.4,82.4 50.4,97.6 L50.4,182.4 C50.4,197.6 58.5,211.7 71.7,219.3 L145.1,261.7 C158.3,269.3 174.5,269.3 187.7,261.7 L261.1,219.3 C274.3,211.7 282.4,197.6 282.4,182.4 Z" stroke-width="3.6626" fill="#474951"></path>
                        <path d="M282.2,182.4 L282.2,97.5 C282.2,82.3 274.1,68.2 260.9,60.6 L187.4,18.2 C174.2,10.6 158,10.6 144.8,18.2 L71.3,60.6 C58.1,68.2 50,82.3 50,97.5 L50,182.4 C50,197.6 58.1,211.7 71.3,219.3 L144.8,261.7 C158,269.3 174.2,269.3 187.4,261.7 L260.9,219.3 C274.1,211.7 282.2,197.7 282.2,182.4 Z" stroke-width="3.6649" fill="#484951"></path>
                        <path d="M282.1,182.5 L282.1,97.5 C282.1,82.3 274,68.2 260.8,60.6 L187.2,18.1 C174,10.5 157.8,10.5 144.6,18.1 L71,60.6 C57.8,68.2 49.7,82.3 49.7,97.5 L49.7,182.5 C49.7,197.7 57.8,211.8 71,219.4 L144.6,261.9 C157.8,269.5 174,269.5 187.2,261.9 L260.8,219.4 C273.9,211.8 282.1,197.7 282.1,182.5 Z" stroke-width="3.6671" fill="#494A52"></path>
                        <path d="M281.9,182.5 L281.9,97.4 C281.9,82.2 273.8,68.1 260.6,60.5 L186.9,18 C173.7,10.4 157.5,10.4 144.3,18 L70.6,60.5 C57.4,68.1 49.3,82.2 49.3,97.4 L49.3,182.5 C49.3,197.7 57.4,211.8 70.6,219.4 L144.3,261.9 C157.5,269.5 173.7,269.5 186.9,261.9 L260.6,219.4 C273.7,211.8 281.9,197.7 281.9,182.5 Z" stroke-width="3.6694" fill="#4A4B53"></path>
                        <path d="M281.7,182.5 L281.7,97.4 C281.7,82.2 273.6,68.1 260.4,60.5 L186.7,17.9 C173.5,10.3 157.3,10.3 144.1,17.9 L70.4,60.5 C57.2,68.1 49.1,82.2 49.1,97.4 L49.1,182.5 C49.1,197.7 57.2,211.8 70.4,219.4 L144,262 C157.2,269.6 173.4,269.6 186.6,262 L260.3,219.4 C273.5,211.8 281.7,197.8 281.7,182.5 Z" stroke-width="3.6717" fill="#4B4C54"></path>
                        <path d="M281.5,182.6 L281.5,97.4 C281.5,82.2 273.4,68.1 260.2,60.5 L186.4,17.9 C173.2,10.3 157,10.3 143.8,17.9 L70,60.5 C56.8,68.1 48.7,82.2 48.7,97.4 L48.7,182.6 C48.7,197.8 56.8,211.9 70,219.5 L143.8,262.1 C157,269.7 173.2,269.7 186.4,262.1 L260.2,219.5 C273.3,211.9 281.5,197.8 281.5,182.6 Z" stroke-width="3.674" fill="#4B4D54"></path>
                        <path d="M281.3,182.6 L281.3,97.3 C281.3,82.1 273.2,68 260,60.4 L186.1,17.7 C172.9,10.1 156.7,10.1 143.5,17.7 L69.6,60.4 C56.4,68 48.3,82.1 48.3,97.3 L48.3,182.6 C48.3,197.8 56.4,211.9 69.6,219.5 L143.5,262.2 C156.7,269.8 172.9,269.8 186.1,262.2 L260,219.5 C273.2,211.9 281.3,197.9 281.3,182.6 Z" stroke-width="3.6763" fill="#4C4D55"></path>
                        <path d="M281.1,182.7 L281.1,97.3 C281.1,82.1 273,68 259.8,60.4 L185.8,17.7 C172.6,10.1 156.4,10.1 143.2,17.7 L69.2,60.4 C56,68 47.9,82.1 47.9,97.3 L47.9,182.7 C47.9,197.9 56,212 69.2,219.6 L143.2,262.3 C156.4,269.9 172.6,269.9 185.8,262.3 L259.8,219.6 C273,212 281.1,197.9 281.1,182.7 Z" stroke-width="3.6785" fill="#4D4E56"></path>
                        <path d="M280.9,182.7 L280.9,97.2 C280.9,82 272.8,67.9 259.6,60.3 L185.6,17.6 C172.4,10 156.2,10 143,17.6 L69,60.3 C55.8,67.9 47.7,82 47.7,97.2 L47.7,182.7 C47.7,197.9 55.8,212 69,219.6 L143,262.3 C156.2,269.9 172.4,269.9 185.6,262.3 L259.6,219.6 C272.8,212 280.9,197.9 280.9,182.7 Z" stroke-width="3.6808" fill="#4E4F57"></path>
                        <path d="M280.7,182.8 L280.7,97.2 C280.7,82 272.6,67.9 259.4,60.3 L185.3,17.5 C172.1,9.9 155.9,9.9 142.7,17.5 L68.6,60.3 C55.4,67.9 47.3,82 47.3,97.2 L47.3,182.8 C47.3,198 55.4,212.1 68.6,219.7 L142.7,262.5 C155.9,270.1 172.1,270.1 185.3,262.5 L259.4,219.7 C272.6,212.1 280.7,198 280.7,182.8 Z" stroke-width="3.6831" fill="#4F5058"></path>
                        <path d="M280.5,182.8 L280.5,97.2 C280.5,82 272.4,67.9 259.2,60.3 L185,17.5 C171.8,9.9 155.6,9.9 142.4,17.5 L68.2,60.3 C55,67.9 46.9,82 46.9,97.2 L46.9,182.8 C46.9,198 55,212.1 68.2,219.7 L142.4,262.5 C155.6,270.1 171.8,270.1 185,262.5 L259.2,219.7 C272.4,212.1 280.5,198 280.5,182.8 Z" stroke-width="3.6854" fill="#505158"></path>
                        <path d="M280.3,182.8 L280.3,97.1 C280.3,81.9 272.2,67.8 259,60.2 L184.8,17.3 C171.6,9.7 155.4,9.7 142.2,17.3 L68,60.2 C54.8,67.8 46.7,81.9 46.7,97.1 L46.7,182.8 C46.7,198 54.8,212.1 68,219.7 L142.2,262.6 C155.4,270.2 171.6,270.2 184.8,262.6 L259,219.7 C272.2,212.1 280.3,198.1 280.3,182.8 Z" stroke-width="3.6877" fill="#505159"></path>
                        <path d="M280.1,182.9 L280.1,97.1 C280.1,81.9 272,67.8 258.8,60.2 L184.5,17.3 C171.3,9.7 155.1,9.7 141.9,17.3 L67.6,60.2 C54.4,67.8 46.3,81.9 46.3,97.1 L46.3,182.9 C46.3,198.1 54.4,212.2 67.6,219.8 L141.9,262.7 C155.1,270.3 171.3,270.3 184.5,262.7 L258.8,219.8 C272,212.2 280.1,198.1 280.1,182.9 Z" stroke-width="3.6899" fill="#51525A"></path>
                        <path d="M279.9,182.9 L279.9,97 C279.9,81.8 271.8,67.7 258.6,60.1 L184.2,17.2 C171,9.6 154.8,9.6 141.6,17.2 L67.2,60.1 C54,67.7 45.9,81.8 45.9,97 L45.9,182.9 C45.9,198.1 54,212.2 67.2,219.8 L141.6,262.7 C154.8,270.3 171,270.3 184.2,262.7 L258.6,219.8 C271.8,212.2 279.9,198.2 279.9,182.9 Z" stroke-width="3.6922" fill="#52535B"></path>
                        <path d="M279.7,183 L279.7,97 C279.7,81.8 271.6,67.7 258.4,60.1 L183.9,17.1 C170.7,9.5 154.5,9.5 141.3,17.1 L66.8,60.1 C53.6,67.7 45.5,81.8 45.5,97 L45.5,183 C45.5,198.2 53.6,212.3 66.8,219.9 L141.3,262.9 C154.5,270.5 170.7,270.5 183.9,262.9 L258.4,219.9 C271.6,212.3 279.7,198.2 279.7,183 Z" stroke-width="3.6945" fill="#53545C"></path>
                        <path d="M279.5,183 L279.5,96.9 C279.5,81.7 271.4,67.6 258.2,60 L183.7,17 C170.5,9.4 154.3,9.4 141.1,17 L66.6,60 C53.4,67.6 45.3,81.7 45.3,96.9 L45.3,183 C45.3,198.2 53.4,212.3 66.6,219.9 L141.1,262.9 C154.3,270.5 170.5,270.5 183.7,262.9 L258.2,219.9 C271.4,212.3 279.5,198.2 279.5,183 Z" stroke-width="3.6968" fill="#54555C"></path>
                        <path d="M279.4,183 L279.4,96.9 C279.4,81.7 271.3,67.6 258.1,60 L183.5,16.9 C170.3,9.3 154.1,9.3 140.9,16.9 L66.3,60 C53.1,67.6 45,81.7 45,96.9 L45,183 C45,198.2 53.1,212.3 66.3,219.9 L140.9,263 C154.1,270.6 170.3,270.6 183.5,263 L258,220 C271.2,212.3 279.4,198.3 279.4,183 Z" stroke-width="3.6991" fill="#55565D"></path>
                        <path d="M279.2,183.1 L279.2,96.9 C279.2,81.7 271.1,67.6 257.9,60 L183.2,16.9 C170,9.3 153.8,9.3 140.6,16.9 L65.9,60 C52.7,67.6 44.6,81.7 44.6,96.9 L44.6,183.1 C44.6,198.3 52.7,212.4 65.9,220 L140.6,263.1 C153.8,270.7 170,270.7 183.2,263.1 L257.9,220 C271,212.4 279.2,198.3 279.2,183.1 Z" stroke-width="3.7013" fill="#56565E"></path>
                        <path d="M279,183.1 L279,96.8 C279,81.6 270.9,67.5 257.7,59.9 L183,16.7 C169.8,9.1 153.6,9.1 140.4,16.7 L65.7,59.9 C52.5,67.5 44.4,81.6 44.4,96.8 L44.4,183.1 C44.4,198.3 52.5,212.4 65.7,220 L140.4,263.2 C153.6,270.8 169.8,270.8 183,263.2 L257.7,220 C270.8,212.4 279,198.4 279,183.1 Z" stroke-width="3.7036" fill="#57575F"></path>
                        <path d="M278.8,183.2 L278.8,96.8 C278.8,81.6 270.7,67.5 257.5,59.9 L182.7,16.7 C169.5,9.1 153.3,9.1 140.1,16.7 L65.3,59.9 C52.1,67.5 44,81.6 44,96.8 L44,183.2 C44,198.4 52.1,212.5 65.3,220.1 L140.1,263.3 C153.3,270.9 169.5,270.9 182.7,263.3 L257.5,220.1 C270.7,212.5 278.8,198.4 278.8,183.2 Z" stroke-width="3.7059" fill="#585860"></path>
                        <path d="M278.6,183.2 L278.6,96.7 C278.6,81.5 270.5,67.4 257.3,59.8 L182.4,16.6 C169.2,9 153,9 139.8,16.6 L64.9,59.8 C51.7,67.4 43.6,81.5 43.6,96.7 L43.6,183.2 C43.6,198.4 51.7,212.5 64.9,220.1 L139.8,263.3 C153,270.9 169.2,270.9 182.4,263.3 L257.3,220.1 C270.5,212.5 278.6,198.4 278.6,183.2 Z" stroke-width="3.7082" fill="#585961"></path>
                        <path d="M278.4,183.3 L278.4,96.7 C278.4,81.5 270.3,67.4 257.1,59.8 L182.1,16.5 C168.9,8.9 152.7,8.9 139.5,16.5 L64.5,59.8 C51.3,67.4 43.2,81.5 43.2,96.7 L43.2,183.3 C43.2,198.5 51.3,212.6 64.5,220.2 L139.5,263.5 C152.7,271.1 168.9,271.1 182.1,263.5 L257.1,220.2 C270.3,212.6 278.4,198.5 278.4,183.3 Z" stroke-width="3.7105" fill="#595A61"></path>
                        <path d="M278.2,183.3 L278.2,96.7 C278.2,81.5 270.1,67.4 256.9,59.8 L181.9,16.5 C168.7,8.9 152.5,8.9 139.3,16.5 L64.3,59.8 C51.1,67.4 43,81.5 43,96.7 L43,183.3 C43,198.5 51.1,212.6 64.3,220.2 L139.3,263.5 C152.5,271.1 168.7,271.1 181.9,263.5 L256.9,220.2 C270.1,212.6 278.2,198.5 278.2,183.3 Z" stroke-width="3.7127" fill="#5A5B62"></path>
                        <path d="M278,183.3 L278,96.6 C278,81.4 269.9,67.3 256.7,59.7 L181.6,16.3 C168.4,8.7 152.2,8.7 139,16.3 L63.9,59.7 C50.7,67.3 42.6,81.4 42.6,96.6 L42.6,183.3 C42.6,198.5 50.7,212.6 63.9,220.2 L139,263.6 C152.2,271.2 168.4,271.2 181.6,263.6 L256.7,220.2 C269.9,212.6 278,198.6 278,183.3 Z" stroke-width="3.715" fill="#5B5C63"></path>
                        <path d="M277.8,183.4 L277.8,96.6 C277.8,81.4 269.7,67.3 256.5,59.7 L181.3,16.3 C168.1,8.7 151.9,8.7 138.7,16.3 L63.5,59.7 C50.3,67.3 42.2,81.4 42.2,96.6 L42.2,183.4 C42.2,198.6 50.3,212.7 63.5,220.3 L138.7,263.7 C151.9,271.3 168.1,271.3 181.3,263.7 L256.5,220.3 C269.7,212.7 277.8,198.6 277.8,183.4 Z" stroke-width="3.7173" fill="#5C5C64"></path>
                        <path d="M277.6,183.4 L277.6,96.5 C277.6,81.3 269.5,67.2 256.3,59.6 L181,16.2 C167.8,8.6 151.6,8.6 138.4,16.2 L63.1,59.6 C49.9,67.2 41.8,81.3 41.8,96.5 L41.8,183.4 C41.8,198.6 49.9,212.7 63.1,220.3 L138.4,263.7 C151.6,271.3 167.8,271.3 181,263.7 L256.3,220.3 C269.5,212.7 277.6,198.7 277.6,183.4 Z" stroke-width="3.7196" fill="#5D5D65"></path>
                        <path d="M277.4,183.5 L277.4,96.5 C277.4,81.3 269.3,67.2 256.1,59.6 L180.8,16.1 C167.6,8.5 151.4,8.5 138.2,16.1 L62.9,59.6 C49.7,67.2 41.6,81.3 41.6,96.5 L41.6,183.5 C41.6,198.7 49.7,212.8 62.9,220.4 L138.2,263.9 C151.4,271.5 167.6,271.5 180.8,263.9 L256.1,220.4 C269.3,212.8 277.4,198.7 277.4,183.5 Z" stroke-width="3.7219" fill="#5E5E66"></path>
                        <path d="M277.2,183.5 L277.2,96.4 C277.2,81.2 269.1,67.1 255.9,59.5 L180.5,16 C167.3,8.4 151.1,8.4 137.9,16 L62.5,59.5 C49.3,67.1 41.2,81.2 41.2,96.4 L41.2,183.5 C41.2,198.7 49.3,212.8 62.5,220.4 L137.9,263.9 C151.1,271.5 167.3,271.5 180.5,263.9 L255.9,220.4 C269.1,212.8 277.2,198.7 277.2,183.5 Z" stroke-width="3.7241" fill="#5F5F67"></path>
                        <path d="M277,183.5 L277,96.4 C277,81.2 268.9,67.1 255.7,59.5 L180.2,15.9 C167,8.3 150.8,8.3 137.6,15.9 L62.1,59.5 C48.9,67.1 40.8,81.2 40.8,96.4 L40.8,183.5 C40.8,198.7 48.9,212.8 62.1,220.4 L137.6,264 C150.8,271.6 167,271.6 180.2,264 L255.7,220.4 C268.9,212.8 277,198.8 277,183.5 Z" stroke-width="3.7264" fill="#606068"></path>
                        <path d="M276.9,183.6 L276.9,96.4 C276.9,81.2 268.8,67.1 255.6,59.5 L180.1,15.9 C166.9,8.3 150.7,8.3 137.5,15.9 L62,59.5 C48.8,67.1 40.7,81.2 40.7,96.4 L40.7,183.6 C40.7,198.8 48.8,212.9 62,220.5 L137.5,264.1 C150.7,271.7 166.9,271.7 180.1,264.1 L255.6,220.5 C268.7,212.9 276.9,198.8 276.9,183.6 Z" stroke-width="3.7287" fill="#616168"></path>
                        <path d="M276.7,183.6 L276.7,96.3 C276.7,81.1 268.6,67 255.4,59.4 L179.8,15.7 C166.6,8.1 150.4,8.1 137.2,15.7 L61.6,59.4 C48.4,67 40.3,81.1 40.3,96.3 L40.3,183.6 C40.3,198.8 48.4,212.9 61.6,220.5 L137.2,264.2 C150.4,271.8 166.6,271.8 179.8,264.2 L255.4,220.5 C268.5,212.9 276.7,198.9 276.7,183.6 Z" stroke-width="3.731" fill="#626269"></path>
                        <path d="M276.5,183.7 L276.5,96.3 C276.5,81.1 268.4,67 255.2,59.4 L179.5,15.7 C166.3,8.1 150.1,8.1 136.9,15.7 L61.2,59.4 C48,67 39.9,81.1 39.9,96.3 L39.9,183.7 C39.9,198.9 48,213 61.2,220.6 L136.9,264.3 C150.1,271.9 166.3,271.9 179.5,264.3 L255.2,220.6 C268.3,213 276.5,198.9 276.5,183.7 Z" stroke-width="3.7333" fill="#63636A"></path>
                        <path d="M276.3,183.7 L276.3,96.2 C276.3,81 268.2,66.9 255,59.3 L179.2,15.6 C166,8 149.8,8 136.6,15.6 L60.8,59.3 C47.6,66.9 39.5,81 39.5,96.2 L39.5,183.7 C39.5,198.9 47.6,213 60.8,220.6 L136.6,264.3 C149.8,271.9 166,271.9 179.2,264.3 L255,220.6 C268.2,213 276.3,198.9 276.3,183.7 Z" stroke-width="3.7355" fill="#64646B"></path>
                        <path d="M276.1,183.8 L276.1,96.2 C276.1,81 268,66.9 254.8,59.3 L179,15.5 C165.8,7.9 149.6,7.9 136.4,15.5 L60.6,59.3 C47.4,66.9 39.3,81 39.3,96.2 L39.3,183.8 C39.3,199 47.4,213.1 60.6,220.7 L136.4,264.5 C149.6,272.1 165.8,272.1 179,264.5 L254.8,220.7 C268,213.1 276.1,199 276.1,183.8 Z" stroke-width="3.7378" fill="#65656C"></path>
                        <path d="M275.9,183.8 L275.9,96.2 C275.9,81 267.8,66.9 254.6,59.3 L178.7,15.5 C165.5,7.9 149.3,7.9 136.1,15.5 L60.2,59.3 C47,66.9 38.9,81 38.9,96.2 L38.9,183.8 C38.9,199 47,213.1 60.2,220.7 L136.1,264.5 C149.3,272.1 165.5,272.1 178.7,264.5 L254.6,220.7 C267.8,213.1 275.9,199 275.9,183.8 Z" stroke-width="3.7401" fill="#66656D"></path>
                        <path d="M275.7,183.8 L275.7,96.1 C275.7,80.9 267.6,66.8 254.4,59.2 L178.4,15.3 C165.2,7.7 149,7.7 135.8,15.3 L59.8,59.2 C46.6,66.8 38.5,80.9 38.5,96.1 L38.5,183.8 C38.5,199 46.6,213.1 59.8,220.7 L135.8,264.6 C149,272.2 165.2,272.2 178.4,264.6 L254.4,220.7 C267.6,213.1 275.7,199.1 275.7,183.8 Z" stroke-width="3.7424" fill="#67666E"></path>
                        <path d="M275.5,183.9 L275.5,96.1 C275.5,80.9 267.4,66.8 254.2,59.2 L178.2,15.3 C165,7.7 148.8,7.7 135.6,15.3 L59.5,59.2 C46.3,66.8 38.2,80.9 38.2,96.1 L38.2,183.9 C38.2,199.1 46.3,213.2 59.5,220.8 L135.6,264.7 C148.8,272.3 165,272.3 178.2,264.7 L254.2,220.8 C267.4,213.2 275.5,199.1 275.5,183.9 Z" stroke-width="3.7447" fill="#67676F"></path>
                        <path d="M275.3,183.9 L275.3,96 C275.3,80.8 267.2,66.7 254,59.1 L177.9,15.2 C164.7,7.6 148.5,7.6 135.3,15.2 L59.2,59.1 C46,66.7 37.9,80.8 37.9,96 L37.9,183.9 C37.9,199.1 46,213.2 59.2,220.8 L135.3,264.7 C148.5,272.3 164.7,272.3 177.9,264.7 L254,220.8 C267.2,213.2 275.3,199.2 275.3,183.9 Z" stroke-width="3.7469" fill="#686870"></path>
                        <path d="M275.1,184 L275.1,96 C275.1,80.8 267,66.7 253.8,59.1 L177.6,15.1 C164.4,7.5 148.2,7.5 135,15.1 L58.8,59.1 C45.6,66.7 37.5,80.8 37.5,96 L37.5,184 C37.5,199.2 45.6,213.3 58.8,220.9 L135,264.9 C148.2,272.5 164.4,272.5 177.6,264.9 L253.8,220.9 C267,213.3 275.1,199.2 275.1,184 Z" stroke-width="3.7492" fill="#696971"></path>
                        <path d="M274.9,184 L274.9,95.9 C274.9,80.7 266.8,66.6 253.6,59 L177.3,15 C164.1,7.4 147.9,7.4 134.7,15 L58.4,59 C45.2,66.6 37.1,80.7 37.1,95.9 L37.1,184 C37.1,199.2 45.2,213.3 58.4,220.9 L134.7,264.9 C147.9,272.5 164.1,272.5 177.3,264.9 L253.6,220.9 C266.8,213.3 274.9,199.2 274.9,184 Z" stroke-width="3.7515" fill="#6A6A71"></path>
                        <path d="M274.7,184 L274.7,95.9 C274.7,80.7 266.6,66.6 253.4,59 L177.1,14.9 C163.9,7.3 147.7,7.3 134.5,14.9 L58.2,59 C45,66.6 36.9,80.7 36.9,95.9 L36.9,184 C36.9,199.2 45,213.3 58.2,220.9 L134.5,265 C147.7,272.6 163.9,272.6 177.1,265 L253.4,220.9 C266.6,213.4 274.7,199.3 274.7,184 Z" stroke-width="3.7538" fill="#6B6B72"></path>
                        <path d="M274.5,184.1 L274.5,95.9 C274.5,80.7 266.4,66.6 253.2,59 L176.8,14.9 C163.6,7.3 147.4,7.3 134.2,14.9 L57.8,59 C44.6,66.6 36.5,80.7 36.5,95.9 L36.5,184.1 C36.5,199.3 44.6,213.4 57.8,221 L134.2,265.1 C147.4,272.7 163.6,272.7 176.8,265.1 L253.2,221 C266.4,213.4 274.5,199.3 274.5,184.1 Z" stroke-width="3.7561" fill="#6C6C73"></path>
                        <path d="M274.4,184.1 L274.4,95.8 C274.4,80.6 266.3,66.5 253.1,58.9 L176.6,14.7 C163.4,7.1 147.2,7.1 134,14.7 L57.5,58.9 C44.3,66.5 36.2,80.6 36.2,95.8 L36.2,184.1 C36.2,199.3 44.3,213.4 57.5,221 L134,265.2 C147.2,272.8 163.4,272.8 176.6,265.2 L253,221 C266.2,213.4 274.4,199.4 274.4,184.1 Z" stroke-width="3.7583" fill="#6D6D74"></path>
                        <path d="M274.2,184.2 L274.2,95.8 C274.2,80.6 266.1,66.5 252.9,58.9 L176.3,14.7 C163.1,7.1 146.9,7.1 133.7,14.7 L57.1,58.9 C43.9,66.5 35.8,80.6 35.8,95.8 L35.8,184.2 C35.8,199.4 43.9,213.5 57.1,221.1 L133.7,265.3 C146.9,272.9 163.1,272.9 176.3,265.3 L252.9,221.1 C266,213.5 274.2,199.4 274.2,184.2 Z" stroke-width="3.7606" fill="#6E6E75"></path>
                        <path d="M274,184.2 L274,95.7 C274,80.5 265.9,66.4 252.7,58.8 L176.1,14.6 C162.9,7 146.7,7 133.5,14.6 L56.9,58.8 C43.7,66.4 35.6,80.5 35.6,95.7 L35.6,184.2 C35.6,199.4 43.7,213.5 56.9,221.1 L133.5,265.3 C146.7,272.9 162.9,272.9 176.1,265.3 L252.7,221.1 C265.8,213.5 274,199.4 274,184.2 Z" stroke-width="3.7629" fill="#6F6F76"></path>
                        <path d="M273.8,184.3 L273.8,95.7 C273.8,80.5 265.7,66.4 252.5,58.8 L175.8,14.5 C162.6,6.9 146.4,6.9 133.2,14.5 L56.5,58.8 C43.3,66.4 35.2,80.5 35.2,95.7 L35.2,184.3 C35.2,199.5 43.3,213.6 56.5,221.2 L133.2,265.5 C146.4,273.1 162.6,273.1 175.8,265.5 L252.5,221.2 C265.6,213.6 273.8,199.5 273.8,184.3 Z" stroke-width="3.7652" fill="#707077"></path>
                        <path d="M273.6,184.3 L273.6,95.7 C273.6,80.5 265.5,66.4 252.3,58.8 L175.5,14.5 C162.3,6.9 146.1,6.9 132.9,14.5 L56.1,58.8 C42.9,66.4 34.8,80.5 34.8,95.7 L34.8,184.3 C34.8,199.5 42.9,213.6 56.1,221.2 L132.9,265.5 C146.1,273.1 162.3,273.1 175.5,265.5 L252.3,221.2 C265.5,213.6 273.6,199.5 273.6,184.3 Z" stroke-width="3.7675" fill="#717178"></path>
                        <path d="M273.4,184.3 L273.4,95.6 C273.4,80.4 265.3,66.3 252.1,58.7 L175.3,14.3 C162.1,6.7 145.9,6.7 132.7,14.3 L55.9,58.7 C42.7,66.3 34.6,80.4 34.6,95.6 L34.6,184.3 C34.6,199.5 42.7,213.6 55.9,221.2 L132.7,265.6 C145.9,273.2 162.1,273.2 175.3,265.6 L252.1,221.2 C265.3,213.6 273.4,199.6 273.4,184.3 Z" stroke-width="3.7697" fill="#727279"></path>
                        <path d="M273.2,184.4 L273.2,95.6 C273.2,80.4 265.1,66.3 251.9,58.7 L175,14.3 C161.8,6.7 145.6,6.7 132.4,14.3 L55.5,58.7 C42.3,66.3 34.2,80.4 34.2,95.6 L34.2,184.4 C34.2,199.6 42.3,213.7 55.5,221.3 L132.4,265.7 C145.6,273.3 161.8,273.3 175,265.7 L251.9,221.3 C265.1,213.7 273.2,199.6 273.2,184.4 Z" stroke-width="3.772" fill="#73737A"></path>
                        <path d="M273,184.4 L273,95.5 C273,80.3 264.9,66.2 251.7,58.6 L174.7,14.2 C161.5,6.6 145.3,6.6 132.1,14.2 L55.1,58.6 C41.9,66.2 33.8,80.3 33.8,95.5 L33.8,184.4 C33.8,199.6 41.9,213.7 55.1,221.3 L132.1,265.7 C145.3,273.3 161.5,273.3 174.7,265.7 L251.7,221.3 C264.9,213.7 273,199.7 273,184.4 Z" stroke-width="3.7743" fill="#75747B"></path>
                        <path d="M272.8,184.5 L272.8,95.5 C272.8,80.3 264.7,66.2 251.5,58.6 L174.4,14.1 C161.2,6.5 145,6.5 131.8,14.1 L54.7,58.6 C41.5,66.2 33.4,80.3 33.4,95.5 L33.4,184.5 C33.4,199.7 41.5,213.8 54.7,221.4 L131.8,265.9 C145,273.5 161.2,273.5 174.4,265.9 L251.5,221.4 C264.7,213.8 272.8,199.7 272.8,184.5 Z" stroke-width="3.7766" fill="#76757C"></path>
                        <path d="M272.6,184.5 L272.6,95.4 C272.6,80.2 264.5,66.1 251.3,58.5 L174.2,14 C161,6.4 144.8,6.4 131.6,14 L54.5,58.5 C41.3,66.1 33.2,80.2 33.2,95.4 L33.2,184.5 C33.2,199.7 41.3,213.8 54.5,221.4 L131.6,265.9 C144.8,273.5 161,273.5 174.2,265.9 L251.3,221.4 C264.5,213.8 272.6,199.7 272.6,184.5 Z" stroke-width="3.7788" fill="#77767D"></path>
                        <path d="M272.4,184.5 L272.4,95.3 C272.4,80.1 264.3,66 251.1,58.4 L173.9,13.8 C160.7,6.2 144.5,6.2 131.3,13.8 L54.1,58.4 C40.9,66 32.8,80.1 32.8,95.3 L32.8,184.5 C32.8,199.7 40.9,213.8 54.1,221.4 L131.3,266 C144.5,273.6 160.7,273.6 173.9,266 L251.1,221.4 C264.3,213.9 272.4,199.8 272.4,184.5 Z" stroke-width="3.7811" fill="#78777E"></path>
                        <path d="M272.2,184.6 L272.2,95.4 C272.2,80.2 264.1,66.1 250.9,58.5 L173.6,13.9 C160.4,6.3 144.2,6.3 131,13.9 L53.7,58.5 C40.5,66.1 32.4,80.2 32.4,95.4 L32.4,184.6 C32.4,199.8 40.5,213.9 53.7,221.5 L131,266.1 C144.2,273.7 160.4,273.7 173.6,266.1 L250.9,221.5 C264.1,213.9 272.2,199.8 272.2,184.6 Z" stroke-width="3.7834" fill="#79787F"></path>
                        <path d="M272,184.6 L272,95.3 C272,80.1 263.9,66 250.7,58.4 L173.3,13.7 C160.1,6.1 143.9,6.1 130.7,13.7 L53.3,58.4 C40.1,66 32,80.1 32,95.3 L32,184.6 C32,199.8 40.1,213.9 53.3,221.5 L130.7,266.2 C143.9,273.8 160.1,273.8 173.3,266.2 L250.7,221.5 C263.9,213.9 272,199.9 272,184.6 Z" stroke-width="3.7857" fill="#7A7980"></path>
                        <path d="M271.8,184.7 L271.8,95.3 C271.8,80.1 263.7,66 250.5,58.4 L173.1,13.7 C159.9,6.1 143.7,6.1 130.5,13.7 L53.1,58.4 C39.9,66 31.8,80.1 31.8,95.3 L31.8,184.7 C31.8,199.9 39.9,214 53.1,221.6 L130.5,266.3 C143.7,273.9 159.9,273.9 173.1,266.3 L250.5,221.6 C263.7,214 271.8,199.9 271.8,184.7 Z" stroke-width="3.788" fill="#7B7A81"></path>
                        <path d="M271.7,184.7 L271.7,95.2 C271.7,80 263.6,65.9 250.4,58.3 L172.9,13.6 C159.7,6 143.5,6 130.3,13.6 L52.8,58.3 C39.6,65.9 31.5,80 31.5,95.2 L31.5,184.7 C31.5,199.9 39.6,214 52.8,221.6 L130.3,266.3 C143.5,273.9 159.7,273.9 172.9,266.3 L250.4,221.6 C263.5,214 271.7,199.9 271.7,184.7 Z" stroke-width="3.7902" fill="#7C7B82"></path>
                        <path d="M271.5,184.8 L271.5,95.2 C271.5,80 263.4,65.9 250.2,58.3 L172.6,13.5 C159.4,5.9 143.2,5.9 130,13.5 L52.4,58.3 C39.2,65.9 31.1,80 31.1,95.2 L31.1,184.8 C31.1,200 39.2,214.1 52.4,221.7 L130,266.5 C143.2,274.1 159.4,274.1 172.6,266.5 L250.2,221.7 C263.3,214.1 271.5,200 271.5,184.8 Z" stroke-width="3.7925" fill="#7D7C83"></path>
                        <path d="M271.3,184.8 L271.3,95.1 C271.3,79.9 263.2,65.8 250,58.2 L172.4,13.4 C159.2,5.8 143,5.8 129.8,13.4 L52.2,58.2 C39,65.8 30.9,79.9 30.9,95.1 L30.9,184.8 C30.9,200 39,214.1 52.2,221.7 L129.8,266.5 C143,274.1 159.2,274.1 172.4,266.5 L250,221.7 C263.1,214.1 271.3,200 271.3,184.8 Z" stroke-width="3.7948" fill="#7E7D84"></path>
                        <path d="M271.1,184.8 L271.1,95.1 C271.1,79.9 263,65.8 249.8,58.2 L172.1,13.3 C158.9,5.7 142.7,5.7 129.5,13.3 L51.8,58.2 C38.6,65.8 30.5,79.9 30.5,95.1 L30.5,184.8 C30.5,200 38.6,214.1 51.8,221.7 L129.5,266.6 C142.7,274.2 158.9,274.2 172.1,266.6 L249.8,221.7 C263,214.1 271.1,200.1 271.1,184.8 Z" stroke-width="3.7971" fill="#7F7F85"></path>
                        <path d="M270.9,184.9 L270.9,95.1 C270.9,79.9 262.8,65.8 249.6,58.2 L171.8,13.3 C158.6,5.7 142.4,5.7 129.2,13.3 L51.4,58.2 C38.2,65.8 30.1,79.9 30.1,95.1 L30.1,184.9 C30.1,200.1 38.2,214.2 51.4,221.8 L129.2,266.7 C142.4,274.3 158.6,274.3 171.8,266.7 L249.6,221.8 C262.8,214.2 270.9,200.1 270.9,184.9 Z" stroke-width="3.7994" fill="#808086"></path>
                        <path d="M270.7,184.9 L270.7,95 C270.7,79.8 262.6,65.7 249.4,58.1 L171.5,13.1 C158.3,5.5 142.1,5.5 128.9,13.1 L51,58.1 C37.8,65.7 29.7,79.8 29.7,95 L29.7,184.9 C29.7,200.1 37.8,214.2 51,221.8 L128.9,266.8 C142.1,274.4 158.3,274.4 171.5,266.8 L249.4,221.8 C262.6,214.2 270.7,200.2 270.7,184.9 Z" stroke-width="3.8016" fill="#828187"></path>
                        <path d="M270.5,185 L270.5,95 C270.5,79.8 262.4,65.7 249.2,58.1 L171.3,13.1 C158.1,5.5 141.9,5.5 128.7,13.1 L50.8,58.1 C37.6,65.7 29.5,79.8 29.5,95 L29.5,185 C29.5,200.2 37.6,214.3 50.8,221.9 L128.7,266.9 C141.9,274.5 158.1,274.5 171.3,266.9 L249.2,221.9 C262.4,214.3 270.5,200.2 270.5,185 Z" stroke-width="3.8039" fill="#838288"></path>
                        <path d="M270.3,185 L270.3,94.9 C270.3,79.7 262.2,65.6 249,58 L171,13 C157.8,5.4 141.6,5.4 128.4,13 L50.4,58 C37.2,65.6 29.1,79.7 29.1,94.9 L29.1,185 C29.1,200.2 37.2,214.3 50.4,221.9 L128.4,266.9 C141.6,274.5 157.8,274.5 171,266.9 L249,221.9 C262.2,214.3 270.3,200.2 270.3,185 Z" stroke-width="3.8062" fill="#848389"></path>
                        <path d="M270.1,185 L270.1,94.8 C270.1,79.6 262,65.5 248.8,57.9 L170.7,12.8 C157.5,5.2 141.3,5.2 128.1,12.8 L50,58 C36.8,65.6 28.7,79.7 28.7,94.9 L28.7,185 C28.7,200.2 36.8,214.3 50,221.9 L128.1,267 C141.3,274.6 157.5,274.6 170.7,267 L248.8,221.9 C262,214.4 270.1,200.3 270.1,185 Z" stroke-width="3.8085" fill="#85848B"></path>
                        <path d="M269.9,185.1 L269.9,94.9 C269.9,79.7 261.8,65.6 248.6,58 L170.5,12.9 C157.3,5.3 141.1,5.3 127.9,12.9 L49.8,58 C36.6,65.6 28.5,79.7 28.5,94.9 L28.5,185.1 C28.5,200.3 36.6,214.4 49.8,222 L127.9,267.1 C141.1,274.7 157.3,274.7 170.5,267.1 L248.6,222 C261.8,214.4 269.9,200.3 269.9,185.1 Z" stroke-width="3.8108" fill="#86858C"></path>
                        <path d="M269.7,185.1 L269.7,94.8 C269.7,79.6 261.6,65.5 248.4,57.9 L170.2,12.7 C157,5.1 140.8,5.1 127.6,12.7 L49.4,57.9 C36.2,65.5 28.1,79.6 28.1,94.8 L28.1,185.1 C28.1,200.3 36.2,214.4 49.4,222 L127.6,267.2 C140.8,274.8 157,274.8 170.2,267.2 L248.4,222 C261.6,214.4 269.7,200.4 269.7,185.1 Z" stroke-width="3.813" fill="#87868D"></path>
                        <path d="M269.5,185.2 L269.5,94.8 C269.5,79.6 261.4,65.5 248.2,57.9 L169.9,12.7 C156.7,5.1 140.5,5.1 127.3,12.7 L49,57.9 C35.8,65.5 27.7,79.6 27.7,94.8 L27.7,185.2 C27.7,200.4 35.8,214.5 49,222.1 L127.3,267.3 C140.5,274.9 156.7,274.9 169.9,267.3 L248.2,222.1 C261.4,214.5 269.5,200.4 269.5,185.2 Z" stroke-width="3.8153" fill="#88878E"></path>
                        <path d="M269.3,185.2 L269.3,94.7 C269.3,79.5 261.2,65.4 248,57.8 L169.6,12.6 C156.4,5 140.2,5 127,12.6 L48.6,57.8 C35.4,65.4 27.3,79.5 27.3,94.7 L27.3,185.2 C27.3,200.4 35.4,214.5 48.6,222.1 L127,267.3 C140.2,274.9 156.4,274.9 169.6,267.3 L248,222.1 C261.2,214.5 269.3,200.4 269.3,185.2 Z" stroke-width="3.8176" fill="#89898F"></path>
                        <path d="M269.2,185.3 L269.2,94.7 C269.2,79.5 261.1,65.4 247.9,57.8 L169.5,12.5 C156.3,4.9 140.1,4.9 126.9,12.5 L48.5,57.8 C35.3,65.4 27.2,79.5 27.2,94.7 L27.2,185.3 C27.2,200.5 35.3,214.6 48.5,222.2 L126.9,267.5 C140.1,275.1 156.3,275.1 169.5,267.5 L247.9,222.2 C261,214.6 269.2,200.5 269.2,185.3 Z" stroke-width="3.8199" fill="#8B8A90"></path>
                        <path d="M269,185.3 L269,94.6 C269,79.4 260.9,65.3 247.7,57.7 L169.2,12.4 C156,4.8 139.8,4.8 126.6,12.4 L48.1,57.7 C34.9,65.3 26.8,79.4 26.8,94.6 L26.8,185.3 C26.8,200.5 34.9,214.6 48.1,222.2 L126.6,267.5 C139.8,275.1 156,275.1 169.2,267.5 L247.7,222.2 C260.8,214.6 269,200.5 269,185.3 Z" stroke-width="3.8222" fill="#8C8B91"></path>
                        <path d="M268.8,185.3 L268.8,94.6 C268.8,79.4 260.7,65.3 247.5,57.7 L168.9,12.3 C155.7,4.7 139.5,4.7 126.3,12.3 L47.7,57.7 C34.5,65.3 26.4,79.4 26.4,94.6 L26.4,185.3 C26.4,200.5 34.5,214.6 47.7,222.2 L126.3,267.6 C139.5,275.2 155.7,275.2 168.9,267.6 L247.5,222.2 C260.6,214.6 268.8,200.6 268.8,185.3 Z" stroke-width="3.8244" fill="#8D8C92"></path>
                        <path d="M268.6,185.4 L268.6,94.6 C268.6,79.4 260.5,65.3 247.3,57.7 L168.6,12.3 C155.4,4.7 139.2,4.7 126,12.3 L47.3,57.7 C34.1,65.3 26,79.4 26,94.6 L26,185.4 C26,200.6 34.1,214.7 47.3,222.3 L126,267.7 C139.2,275.3 155.4,275.3 168.6,267.7 L247.3,222.3 C260.5,214.7 268.6,200.6 268.6,185.4 Z" stroke-width="3.8267" fill="#8E8D93"></path>
                        <path d="M268.4,185.4 L268.4,94.5 C268.4,79.3 260.3,65.2 247.1,57.6 L168.4,12.1 C155.2,4.5 139,4.5 125.8,12.1 L47.1,57.6 C33.9,65.2 25.8,79.3 25.8,94.5 L25.8,185.4 C25.8,200.6 33.9,214.7 47.1,222.3 L125.8,267.8 C139,275.4 155.2,275.4 168.4,267.8 L247.1,222.3 C260.3,214.7 268.4,200.7 268.4,185.4 Z" stroke-width="3.829" fill="#8F8E94"></path>
                        <path d="M268.2,185.5 L268.2,94.5 C268.2,79.3 260.1,65.2 246.9,57.6 L168.1,12.1 C154.9,4.5 138.7,4.5 125.5,12.1 L46.7,57.6 C33.5,65.2 25.4,79.3 25.4,94.5 L25.4,185.5 C25.4,200.7 33.5,214.8 46.7,222.4 L125.5,267.9 C138.7,275.5 154.9,275.5 168.1,267.9 L246.9,222.4 C260.1,214.8 268.2,200.7 268.2,185.5 Z" stroke-width="3.8313" fill="#908F95"></path>
                        <path d="M268,185.5 L268,94.4 C268,79.2 259.9,65.1 246.7,57.5 L167.8,12 C154.6,4.4 138.4,4.4 125.2,12 L46.3,57.5 C33.1,65.1 25,79.2 25,94.4 L25,185.5 C25,200.7 33.1,214.8 46.3,222.4 L125.2,267.9 C138.4,275.5 154.6,275.5 167.8,267.9 L246.7,222.4 C259.9,214.8 268,200.7 268,185.5 Z" stroke-width="3.8336" fill="#929196"></path>
                        <path d="M267.8,185.6 L267.8,94.4 C267.8,79.2 259.7,65.1 246.5,57.5 L167.6,11.9 C154.4,4.3 138.2,4.3 125,11.9 L46.1,57.5 C32.9,65.1 24.8,79.2 24.8,94.4 L24.8,185.6 C24.8,200.8 32.9,214.9 46.1,222.5 L125,268.1 C138.2,275.7 154.4,275.7 167.6,268.1 L246.5,222.5 C259.7,214.9 267.8,200.8 267.8,185.6 Z" stroke-width="3.8358" fill="#939298"></path>
                        <path d="M267.6,185.6 L267.6,94.4 C267.6,79.2 259.5,65.1 246.3,57.5 L167.3,11.9 C154.1,4.3 137.9,4.3 124.7,11.9 L45.7,57.5 C32.5,65.1 24.4,79.2 24.4,94.4 L24.4,185.6 C24.4,200.8 32.5,214.9 45.7,222.5 L124.7,268.1 C137.9,275.7 154.1,275.7 167.3,268.1 L246.3,222.5 C259.5,214.9 267.6,200.8 267.6,185.6 Z" stroke-width="3.8381" fill="#949399"></path>
                        <path d="M267.4,185.6 L267.4,94.3 C267.4,79.1 259.3,65 246.1,57.4 L167,11.7 C153.8,4.1 137.6,4.1 124.4,11.7 L45.3,57.4 C32.1,65 24,79.1 24,94.3 L24,185.6 C24,200.8 32.1,214.9 45.3,222.5 L124.4,268.2 C137.6,275.8 153.8,275.8 167,268.2 L246.1,222.5 C259.3,214.9 267.4,200.9 267.4,185.6 Z" stroke-width="3.8404" fill="#95949A"></path>
                        <path d="M267.2,185.7 L267.2,94.3 C267.2,79.1 259.1,65 245.9,57.4 L166.7,11.7 C153.5,4.1 137.3,4.1 124.1,11.7 L44.9,57.4 C31.7,65 23.6,79.1 23.6,94.3 L23.6,185.7 C23.6,200.9 31.7,215 44.9,222.6 L124.1,268.3 C137.3,275.9 153.5,275.9 166.7,268.3 L245.9,222.6 C259.1,215 267.2,200.9 267.2,185.7 Z" stroke-width="3.8427" fill="#96959B"></path>
                        <path d="M267,185.7 L267,94.2 C267,79 258.9,64.9 245.7,57.3 L166.5,11.6 C153.3,4 137.1,4 123.9,11.6 L44.7,57.3 C31.5,64.9 23.4,79 23.4,94.2 L23.4,185.7 C23.4,200.9 31.5,215 44.7,222.6 L123.9,268.3 C137.1,275.9 153.3,275.9 166.5,268.3 L245.7,222.6 C258.9,215 267,200.9 267,185.7 Z" stroke-width="3.845" fill="#97969C"></path>
                        <path d="M266.8,185.8 L266.8,94.2 C266.8,79 258.7,64.9 245.5,57.3 L166.2,11.5 C153,3.9 136.8,3.9 123.6,11.5 L44.3,57.3 C31.1,64.9 23,79 23,94.2 L23,185.8 C23,201 31.1,215.1 44.3,222.7 L123.6,268.5 C136.8,276.1 153,276.1 166.2,268.5 L245.5,222.7 C258.7,215.1 266.8,201 266.8,185.8 Z" stroke-width="3.8472" fill="#99989D"></path>
                        <path d="M266.7,185.8 L266.7,94.1 C266.7,78.9 258.6,64.8 245.4,57.2 L166,11.4 C152.8,3.8 136.6,3.8 123.4,11.4 L44,57.2 C30.8,64.8 22.7,78.9 22.7,94.1 L22.7,185.8 C22.7,201 30.8,215.1 44,222.7 L123.4,268.5 C136.6,276.1 152.8,276.1 166,268.5 L245.4,222.7 C258.5,215.1 266.7,201 266.7,185.8 Z" stroke-width="3.8495" fill="#9A999E"></path>
                        <path d="M266.5,185.8 L266.5,94.1 C266.5,78.9 258.4,64.8 245.2,57.2 L165.8,11.3 C152.6,3.7 136.4,3.7 123.2,11.3 L43.8,57.2 C30.6,64.8 22.5,78.9 22.5,94.1 L22.5,185.8 C22.5,201 30.6,215.1 43.8,222.7 L123.2,268.6 C136.4,276.2 152.6,276.2 165.8,268.6 L245.2,222.7 C258.3,215.1 266.5,201.1 266.5,185.8 Z" stroke-width="3.8518" fill="#9B9A9F"></path>
                        <path d="M266.3,185.9 L266.3,94.1 C266.3,78.9 258.2,64.8 245,57.2 L165.5,11.3 C152.3,3.7 136.1,3.7 122.9,11.3 L43.4,57.2 C30.2,64.8 22.1,78.9 22.1,94.1 L22.1,185.9 C22.1,201.1 30.2,215.2 43.4,222.8 L122.9,268.7 C136.1,276.3 152.3,276.3 165.5,268.7 L245,222.8 C258.1,215.2 266.3,201.1 266.3,185.9 Z" stroke-width="3.8541" fill="#9C9BA1"></path>
                        <path d="M266.1,185.9 L266.1,94 C266.1,78.8 258,64.7 244.8,57.1 L165.2,11.1 C152,3.5 135.8,3.5 122.6,11.1 L43,57.1 C29.8,64.7 21.7,78.8 21.7,94 L21.7,185.9 C21.7,201.1 29.8,215.2 43,222.8 L122.6,268.8 C135.8,276.4 152,276.4 165.2,268.8 L244.8,222.8 C257.9,215.2 266.1,201.2 266.1,185.9 Z" stroke-width="3.8564" fill="#9E9CA2"></path>
                        <path d="M265.9,186 L265.9,94 C265.9,78.8 257.8,64.7 244.6,57.1 L164.9,11.1 C151.7,3.5 135.5,3.5 122.3,11.1 L42.6,57.1 C29.4,64.7 21.3,78.8 21.3,94 L21.3,186 C21.3,201.2 29.4,215.3 42.6,222.9 L122.3,268.9 C135.5,276.5 151.7,276.5 164.9,268.9 L244.6,222.9 C257.8,215.3 265.9,201.2 265.9,186 Z" stroke-width="3.8586" fill="#9F9EA3"></path>
                        <path d="M265.7,186 L265.7,93.9 C265.7,78.7 257.6,64.6 244.4,57 L164.7,11 C151.5,3.4 135.3,3.4 122.1,11 L42.4,57 C29.2,64.6 21.1,78.7 21.1,93.9 L21.1,186 C21.1,201.2 29.2,215.3 42.4,222.9 L122.1,268.9 C135.3,276.5 151.5,276.5 164.7,268.9 L244.4,222.9 C257.6,215.3 265.7,201.2 265.7,186 Z" stroke-width="3.8609" fill="#A09FA4"></path>
                        <path d="M265.5,186.1 L265.5,93.9 C265.5,78.7 257.4,64.6 244.2,57 L164.4,10.9 C151.2,3.3 135,3.3 121.8,10.9 L42,57 C28.8,64.6 20.7,78.7 20.7,93.9 L20.7,186.1 C20.7,201.3 28.8,215.4 42,223 L121.8,269.1 C135,276.7 151.2,276.7 164.4,269.1 L244.2,223 C257.4,215.4 265.5,201.3 265.5,186.1 Z" stroke-width="3.8632" fill="#A1A0A5"></path>
                        <path d="M265.3,186.1 L265.3,93.9 C265.3,78.7 257.2,64.6 244,57 L164.1,10.9 C150.9,3.3 134.7,3.3 121.5,10.9 L41.6,57 C28.4,64.6 20.3,78.7 20.3,93.9 L20.3,186.1 C20.3,201.3 28.4,215.4 41.6,223 L121.5,269.1 C134.7,276.7 150.9,276.7 164.1,269.1 L244,223 C257.2,215.4 265.3,201.3 265.3,186.1 Z" stroke-width="3.8655" fill="#A2A1A6"></path>
                        <path d="M265.1,186.1 L265.1,93.8 C265.1,78.6 257,64.5 243.8,56.9 L163.8,10.7 C150.6,3.1 134.4,3.1 121.2,10.7 L41.2,56.9 C28,64.5 19.9,78.6 19.9,93.8 L19.9,186.1 C19.9,201.3 28,215.4 41.2,223 L121.2,269.2 C134.4,276.8 150.6,276.8 163.8,269.2 L243.8,223 C257,215.4 265.1,201.4 265.1,186.1 Z" stroke-width="3.8678" fill="#A4A2A8"></path>
                        <path d="M264.9,186.2 L264.9,93.8 C264.9,78.6 256.8,64.5 243.6,56.9 L163.6,10.7 C150.4,3.1 134.2,3.1 121,10.7 L41,56.9 C27.8,64.5 19.7,78.6 19.7,93.8 L19.7,186.2 C19.7,201.4 27.8,215.5 41,223.1 L121,269.3 C134.2,276.9 150.4,276.9 163.6,269.3 L243.6,223.1 C256.8,215.5 264.9,201.4 264.9,186.2 Z" stroke-width="3.87" fill="#A5A4A9"></path>
                        <path d="M264.7,186.2 L264.7,93.7 C264.7,78.5 256.6,64.4 243.4,56.8 L163.3,10.6 C150.1,3 133.9,3 120.7,10.6 L40.6,56.8 C27.4,64.4 19.3,78.5 19.3,93.7 L19.3,186.2 C19.3,201.4 27.4,215.5 40.6,223.1 L120.7,269.3 C133.9,276.9 150.1,276.9 163.3,269.3 L243.4,223.1 C256.6,215.5 264.7,201.4 264.7,186.2 Z" stroke-width="3.8723" fill="#A6A5AA"></path>
                        <path d="M264.5,186.3 L264.5,93.7 C264.5,78.5 256.4,64.4 243.2,56.8 L163,10.5 C149.8,2.9 133.6,2.9 120.4,10.5 L40.2,56.8 C27,64.4 18.9,78.5 18.9,93.7 L18.9,186.3 C18.9,201.5 27,215.6 40.2,223.2 L120.4,269.5 C133.6,277.1 149.8,277.1 163,269.5 L243.2,223.2 C256.4,215.6 264.5,201.5 264.5,186.3 Z" stroke-width="3.8746" fill="#A8A6AB"></path>
                        <path d="M264.3,186.3 L264.3,93.6 C264.3,78.4 256.2,64.3 243,56.7 L162.8,10.4 C149.6,2.8 133.4,2.8 120.2,10.4 L40,56.7 C26.8,64.3 18.7,78.4 18.7,93.6 L18.7,186.3 C18.7,201.5 26.8,215.6 40,223.2 L120.2,269.5 C133.4,277.1 149.6,277.1 162.8,269.5 L243,223.2 C256.2,215.6 264.3,201.5 264.3,186.3 Z" stroke-width="3.8769" fill="#A9A7AC"></path>
                        <path d="M264.1,186.3 L264.1,93.6 C264.1,78.4 256,64.3 242.8,56.7 L162.5,10.3 C149.3,2.7 133.1,2.7 119.9,10.3 L39.6,56.7 C26.4,64.3 18.3,78.4 18.3,93.6 L18.3,186.3 C18.3,201.5 26.4,215.6 39.6,223.2 L119.9,269.6 C133.1,277.2 149.3,277.2 162.5,269.6 L242.8,223.2 C256,215.6 264.1,201.6 264.1,186.3 Z" stroke-width="3.8792" fill="#AAA9AD"></path>
                        <path d="M264,186.4 L264,93.6 C264,78.4 255.9,64.3 242.7,56.7 L162.3,10.3 C149.1,2.7 132.9,2.7 119.7,10.3 L39.3,56.7 C26.1,64.3 18,78.4 18,93.6 L18,186.4 C18,201.6 26.1,215.7 39.3,223.3 L119.7,269.7 C132.9,277.3 149.1,277.3 162.3,269.7 L242.7,223.3 C255.8,215.7 264,201.6 264,186.4 Z" stroke-width="3.8814" fill="#ABAAAF"></path>
                        <path d="M263.8,186.4 L263.8,93.5 C263.8,78.3 255.7,64.2 242.5,56.6 L162,10.1 C148.8,2.5 132.6,2.5 119.4,10.1 L38.9,56.6 C25.7,64.2 17.6,78.3 17.6,93.5 L17.6,186.4 C17.6,201.6 25.7,215.7 38.9,223.3 L119.4,269.8 C132.6,277.4 148.8,277.4 162,269.8 L242.5,223.3 C255.6,215.7 263.8,201.7 263.8,186.4 Z" stroke-width="3.8837" fill="#ADABB0"></path>
                        <path d="M263.6,186.5 L263.6,93.5 C263.6,78.3 255.5,64.2 242.3,56.6 L161.8,10.1 C148.6,2.5 132.4,2.5 119.2,10.1 L38.7,56.6 C25.5,64.2 17.4,78.3 17.4,93.5 L17.4,186.5 C17.4,201.7 25.5,215.8 38.7,223.4 L119.2,269.9 C132.4,277.5 148.6,277.5 161.8,269.9 L242.3,223.4 C255.4,215.8 263.6,201.7 263.6,186.5 Z" stroke-width="3.886" fill="#AEADB1"></path>
                        <path d="M263.4,186.5 L263.4,93.4 C263.4,78.2 255.3,64.1 242.1,56.5 L161.5,10 C148.3,2.4 132.1,2.4 118.9,10 L38.3,56.5 C25.1,64.1 17,78.2 17,93.4 L17,186.5 C17,201.7 25.1,215.8 38.3,223.4 L118.9,269.9 C132.1,277.5 148.3,277.5 161.5,269.9 L242.1,223.4 C255.3,215.8 263.4,201.7 263.4,186.5 Z" stroke-width="3.8883" fill="#AFAEB2"></path>
                        <path d="M263.2,186.6 L263.2,93.4 C263.2,78.2 255.1,64.1 241.9,56.5 L161.2,9.9 C148,2.3 131.8,2.3 118.6,9.9 L37.9,56.5 C24.7,64.1 16.6,78.2 16.6,93.4 L16.6,186.6 C16.6,201.8 24.7,215.9 37.9,223.5 L118.6,270.1 C131.8,277.7 148,277.7 161.2,270.1 L241.9,223.5 C255.1,215.9 263.2,201.8 263.2,186.6 Z" stroke-width="3.8906" fill="#B0AFB4"></path>
                        <path d="M263,186.6 L263,93.4 C263,78.2 254.9,64.1 241.7,56.5 L161,9.9 C147.8,2.3 131.6,2.3 118.4,9.9 L37.7,56.5 C24.5,64.1 16.4,78.2 16.4,93.4 L16.4,186.6 C16.4,201.8 24.5,215.9 37.7,223.5 L118.4,270.1 C131.6,277.7 147.8,277.7 161,270.1 L241.7,223.5 C254.9,215.9 263,201.8 263,186.6 Z" stroke-width="3.8928" fill="#B2B1B5"></path>
                        <path d="M262.8,186.6 L262.8,93.3 C262.8,78.1 254.7,64 241.5,56.4 L160.7,9.7 C147.5,2.1 131.3,2.1 118.1,9.7 L37.3,56.4 C24.1,64 16,78.1 16,93.3 L16,186.6 C16,201.8 24.1,215.9 37.3,223.5 L118.1,270.2 C131.3,277.8 147.5,277.8 160.7,270.2 L241.5,223.5 C254.7,215.9 262.8,201.9 262.8,186.6 Z" stroke-width="3.8951" fill="#B3B2B6"></path>
                        <path d="M262.6,186.7 L262.6,93.3 C262.6,78.1 254.5,64 241.3,56.4 L160.4,9.7 C147.2,2.1 131,2.1 117.8,9.7 L36.9,56.4 C23.7,64 15.6,78.1 15.6,93.3 L15.6,186.7 C15.6,201.9 23.7,216 36.9,223.6 L117.8,270.3 C131,277.9 147.2,277.9 160.4,270.3 L241.3,223.6 C254.5,216 262.6,201.9 262.6,186.7 Z" stroke-width="3.8974" fill="#B4B3B7"></path>
                        <path d="M262.4,186.7 L262.4,93.2 C262.4,78 254.3,63.9 241.1,56.3 L160.1,9.6 C146.9,2 130.7,2 117.5,9.6 L36.5,56.3 C23.3,63.9 15.2,78 15.2,93.2 L15.2,186.7 C15.2,201.9 23.3,216 36.5,223.6 L117.5,270.3 C130.7,277.9 146.9,277.9 160.1,270.3 L241.1,223.6 C254.3,216 262.4,201.9 262.4,186.7 Z" stroke-width="3.8997" fill="#B6B5B9"></path>
                        <path d="M262.2,186.8 L262.2,93.2 C262.2,78 254.1,63.9 240.9,56.3 L159.9,9.5 C146.7,1.9 130.5,1.9 117.3,9.5 L36.3,56.3 C23.1,63.9 15,78 15,93.2 L15,186.8 C15,202 23.1,216.1 36.3,223.7 L117.3,270.5 C130.5,278.1 146.7,278.1 159.9,270.5 L240.9,223.7 C254.1,216.1 262.2,202 262.2,186.8 Z" stroke-width="3.902" fill="#B7B6BA"></path>
                        <path d="M262,186.8 L262,93.1 C262,77.9 253.9,63.8 240.7,56.2 L159.6,9.4 C146.4,1.8 130.2,1.8 117,9.4 L35.9,56.2 C22.7,63.8 14.6,77.9 14.6,93.1 L14.6,186.8 C14.6,202 22.7,216.1 35.9,223.7 L117,270.5 C130.2,278.1 146.4,278.1 159.6,270.5 L240.7,223.7 C253.9,216.1 262,202 262,186.8 Z" stroke-width="3.9042" fill="#B8B7BB"></path>
                        <path d="M261.8,186.8 L261.8,93.1 C261.8,77.9 253.7,63.8 240.5,56.2 L159.3,9.3 C146.1,1.7 129.9,1.7 116.7,9.3 L35.5,56.2 C22.3,63.8 14.2,77.9 14.2,93.1 L14.2,186.8 C14.2,202 22.3,216.1 35.5,223.7 L116.7,270.6 C129.9,278.2 146.1,278.2 159.3,270.6 L240.5,223.7 C253.7,216.1 261.8,202.1 261.8,186.8 Z" stroke-width="3.9065" fill="#BAB9BC"></path>
                        <path d="M261.6,186.9 L261.6,93.1 C261.6,77.9 253.5,63.8 240.3,56.2 L159,9.3 C145.8,1.7 129.6,1.7 116.4,9.3 L35.1,56.2 C21.9,63.8 13.8,77.9 13.8,93.1 L13.8,186.9 C13.8,202.1 21.9,216.2 35.1,223.8 L116.4,270.7 C129.6,278.3 145.8,278.3 159,270.7 L240.3,223.8 C253.5,216.2 261.6,202.1 261.6,186.9 Z" stroke-width="3.9088" fill="#BBBABE"></path>
                        <path d="M261.5,186.9 L261.5,93 C261.5,77.8 253.4,63.7 240.2,56.1 L158.9,9.1 C145.7,1.5 129.5,1.5 116.3,9.1 L35,56.1 C21.8,63.7 13.7,77.8 13.7,93 L13.7,186.9 C13.7,202.1 21.8,216.2 35,223.8 L116.3,270.8 C129.5,278.4 145.7,278.4 158.9,270.8 L240.2,223.8 C253.3,216.2 261.5,202.2 261.5,186.9 Z" stroke-width="3.9111" fill="#BCBBBF"></path>
                        <path d="M261.3,187 L261.3,93 C261.3,77.8 253.2,63.7 240,56.1 L158.6,9.1 C145.4,1.5 129.2,1.5 116,9.1 L34.6,56.1 C21.4,63.7 13.3,77.8 13.3,93 L13.3,187 C13.3,202.2 21.4,216.3 34.6,223.9 L116,270.9 C129.2,278.5 145.4,278.5 158.6,270.9 L240,223.9 C253.1,216.3 261.3,202.2 261.3,187 Z" stroke-width="3.9134" fill="#BEBDC0"></path>
                        <path d="M261.1,187 L261.1,92.9 C261.1,77.7 253,63.6 239.8,56 L158.3,9 C145.1,1.4 128.9,1.4 115.7,9 L34.2,56 C21,63.6 12.9,77.7 12.9,92.9 L12.9,187 C12.9,202.2 21,216.3 34.2,223.9 L115.7,270.9 C128.9,278.5 145.1,278.5 158.3,270.9 L239.8,223.9 C252.9,216.3 261.1,202.2 261.1,187 Z" stroke-width="3.9156" fill="#BFBEC2"></path>
                        <path d="M260.9,187.1 L260.9,92.9 C260.9,77.7 252.8,63.6 239.6,56 L158.1,8.9 C144.9,1.3 128.7,1.3 115.5,8.9 L34,56 C20.8,63.6 12.7,77.7 12.7,92.9 L12.7,187.1 C12.7,202.3 20.8,216.4 34,224 L115.5,271.1 C128.7,278.7 144.9,278.7 158.1,271.1 L239.6,224 C252.8,216.4 260.9,202.3 260.9,187.1 Z" stroke-width="3.9179" fill="#C1BFC3"></path>
                        <path d="M260.7,187.1 L260.7,92.9 C260.7,77.7 252.6,63.6 239.4,56 L157.8,8.9 C144.6,1.3 128.4,1.3 115.2,8.9 L33.6,56 C20.4,63.6 12.3,77.7 12.3,92.9 L12.3,187.1 C12.3,202.3 20.4,216.4 33.6,224 L115.2,271.1 C128.4,278.7 144.6,278.7 157.8,271.1 L239.4,224 C252.6,216.4 260.7,202.3 260.7,187.1 Z" stroke-width="3.9202" fill="#C2C1C4"></path>
                        <path d="M260.5,187.1 L260.5,92.8 C260.5,77.6 252.4,63.5 239.2,55.9 L157.5,8.7 C144.3,1.1 128.1,1.1 114.9,8.7 L33.2,55.9 C20,63.5 11.9,77.6 11.9,92.8 L11.9,187.1 C11.9,202.3 20,216.4 33.2,224 L114.9,271.2 C128.1,278.8 144.3,278.8 157.5,271.2 L239.2,224 C252.4,216.4 260.5,202.4 260.5,187.1 Z" stroke-width="3.9225" fill="#C3C2C6"></path>
                        <path d="M260.3,187.2 L260.3,92.8 C260.3,77.6 252.2,63.5 239,55.9 L157.2,8.7 C144,1.1 127.8,1.1 114.6,8.7 L32.8,55.9 C19.6,63.5 11.5,77.6 11.5,92.8 L11.5,187.2 C11.5,202.4 19.6,216.5 32.8,224.1 L114.6,271.3 C127.8,278.9 144,278.9 157.2,271.3 L239,224.1 C252.2,216.5 260.3,202.4 260.3,187.2 Z" stroke-width="3.9248" fill="#C5C4C7"></path>
                        <path d="M260.1,187.2 L260.1,92.7 C260.1,77.5 252,63.4 238.8,55.8 L157,8.6 C143.8,1 127.6,1 114.4,8.6 L32.6,55.8 C19.4,63.4 11.3,77.5 11.3,92.7 L11.3,187.2 C11.3,202.4 19.4,216.5 32.6,224.1 L114.4,271.3 C127.6,278.9 143.8,278.9 157,271.3 L238.8,224.1 C252,216.5 260.1,202.4 260.1,187.2 Z" stroke-width="3.927" fill="#C6C5C8"></path>
                        <path d="M259.9,187.3 L259.9,92.7 C259.9,77.5 251.8,63.4 238.6,55.8 L156.7,8.5 C143.5,0.9 127.3,0.9 114.1,8.5 L32.2,55.8 C19,63.4 10.9,77.5 10.9,92.7 L10.9,187.3 C10.9,202.5 19,216.6 32.2,224.2 L114.1,271.5 C127.3,279.1 143.5,279.1 156.7,271.5 L238.6,224.2 C251.8,216.6 259.9,202.5 259.9,187.3 Z" stroke-width="3.9293" fill="#C8C6CA"></path>
                        <path d="M259.7,187.3 L259.7,92.6 C259.7,77.4 251.6,63.3 238.4,55.7 L156.4,8.4 C143.2,0.8 127,0.8 113.8,8.4 L31.8,55.7 C18.6,63.3 10.5,77.4 10.5,92.6 L10.5,187.3 C10.5,202.5 18.6,216.6 31.8,224.2 L113.8,271.5 C127,279.1 143.2,279.1 156.4,271.5 L238.4,224.2 C251.6,216.6 259.7,202.5 259.7,187.3 Z" stroke-width="3.9316" fill="#C9C8CB"></path>
                        <path d="M259.5,187.3 L259.5,92.6 C259.5,77.4 251.4,63.3 238.2,55.7 L156.2,8.3 C143,0.7 126.8,0.7 113.6,8.3 L31.6,55.7 C18.4,63.3 10.3,77.4 10.3,92.6 L10.3,187.3 C10.3,202.5 18.4,216.6 31.6,224.2 L113.6,271.6 C126.8,279.2 143,279.2 156.2,271.6 L238.2,224.2 C251.4,216.6 259.5,202.6 259.5,187.3 Z" stroke-width="3.9339" fill="#CAC9CC"></path>
                        <path d="M259.3,187.4 L259.3,92.6 C259.3,77.4 251.2,63.3 238,55.7 L155.9,8.3 C142.7,0.7 126.5,0.7 113.3,8.3 L31.2,55.7 C18,63.3 9.9,77.4 9.9,92.6 L9.9,187.4 C9.9,202.6 18,216.7 31.2,224.3 L113.3,271.7 C126.5,279.3 142.7,279.3 155.9,271.7 L238,224.3 C251.2,216.7 259.3,202.6 259.3,187.4 Z" stroke-width="3.9362" fill="#CCCBCE"></path>
                        <path d="M259.1,187.4 L259.1,92.5 C259.1,77.3 251,63.2 237.8,55.6 L155.6,8.1 C142.4,0.5 126.2,0.5 113,8.1 L30.8,55.6 C17.6,63.2 9.5,77.3 9.5,92.5 L9.5,187.4 C9.5,202.6 17.6,216.7 30.8,224.3 L113,271.8 C126.2,279.4 142.4,279.4 155.6,271.8 L237.8,224.3 C251,216.7 259.1,202.7 259.1,187.4 Z" stroke-width="3.9384" fill="#CDCCCF"></path>
                        <path d="M259,187.5 L259,92.5 C259,77.3 250.9,63.2 237.7,55.6 L155.4,8.1 C142.2,0.5 126,0.5 112.8,8.1 L30.5,55.6 C17.3,63.2 9.2,77.3 9.2,92.5 L9.2,187.5 C9.2,202.7 17.3,216.8 30.5,224.4 L112.8,271.9 C126,279.5 142.2,279.5 155.4,271.9 L237.7,224.4 C250.8,216.8 259,202.7 259,187.5 Z" stroke-width="3.9407" fill="#CFCED1"></path>
                        <path d="M258.8,187.5 L258.8,92.4 C258.8,77.2 250.7,63.1 237.5,55.5 L155.2,8 C142,0.4 125.8,0.4 112.6,8 L30.3,55.5 C17.1,63.1 9,77.2 9,92.4 L9,187.5 C9,202.7 17.1,216.8 30.3,224.4 L112.6,271.9 C125.8,279.5 142,279.5 155.2,271.9 L237.5,224.4 C250.6,216.8 258.8,202.7 258.8,187.5 Z" stroke-width="3.943" fill="#D1CFD2"></path>
                        <path d="M258.6,187.6 L258.6,92.4 C258.6,77.2 250.5,63.1 237.3,55.5 L154.9,7.9 C141.7,0.3 125.5,0.3 112.3,7.9 L29.9,55.5 C16.7,63.1 8.6,77.2 8.6,92.4 L8.6,187.6 C8.6,202.8 16.7,216.9 29.9,224.5 L112.3,272.1 C125.5,279.7 141.7,279.7 154.9,272.1 L237.3,224.5 C250.4,216.9 258.6,202.8 258.6,187.6 Z" stroke-width="3.9453" fill="#D2D1D3"></path>
                        <path d="M258.4,187.6 L258.4,92.4 C258.4,77.2 250.3,63.1 237.1,55.5 L154.6,7.9 C141.4,0.3 125.2,0.3 112,7.9 L29.5,55.5 C16.3,63.1 8.2,77.2 8.2,92.4 L8.2,187.6 C8.2,202.8 16.3,216.9 29.5,224.5 L112,272.1 C125.2,279.7 141.4,279.7 154.6,272.1 L237.1,224.5 C250.2,216.9 258.4,202.8 258.4,187.6 Z" stroke-width="3.9476" fill="#D4D2D5"></path>
                        <path d="M258.2,187.6 L258.2,92.3 C258.2,77.1 250.1,63 236.9,55.4 L154.3,7.7 C141.1,0.1 124.9,0.1 111.7,7.7 L29.1,55.4 C15.9,63 7.8,77.1 7.8,92.3 L7.8,187.6 C7.8,202.8 15.9,216.9 29.1,224.5 L111.7,272.2 C124.9,279.8 141.1,279.8 154.3,272.2 L236.9,224.5 C250.1,216.9 258.2,202.9 258.2,187.6 Z" stroke-width="3.9498" fill="#D5D4D6"></path>
                        <path d="M258,187.7 L258,92.3 C258,77.1 249.9,63 236.7,55.4 L154.1,7.7 C140.9,0.1 124.7,0.1 111.5,7.7 L28.9,55.4 C15.7,63 7.6,77.1 7.6,92.3 L7.6,187.7 C7.6,202.9 15.7,217 28.9,224.6 L111.5,272.3 C124.7,279.9 140.9,279.9 154.1,272.3 L236.7,224.6 C249.9,217 258,202.9 258,187.7 Z" stroke-width="3.9521" fill="#D7D5D7"></path>
                        <path d="M257.8,187.7 L257.8,92.2 C257.8,77 249.7,62.9 236.5,55.3 L153.8,7.6 C140.6,-2.22044605e-16 124.4,-2.22044605e-16 111.2,7.6 L28.5,55.3 C15.3,62.9 7.2,77 7.2,92.2 L7.2,187.7 C7.2,202.9 15.3,217 28.5,224.6 L111.2,272.3 C124.4,279.9 140.6,279.9 153.8,272.3 L236.5,224.6 C249.7,217 257.8,202.9 257.8,187.7 Z" stroke-width="3.9544" fill="#D8D7D9"></path>
                        <path d="M257.6,187.8 L257.6,92.2 C257.6,77 249.5,62.9 236.3,55.3 L153.5,7.5 C140.3,-0.1 124.1,-0.1 110.9,7.5 L28.1,55.3 C14.9,62.9 6.8,77 6.8,92.2 L6.8,187.8 C6.8,203 14.9,217.1 28.1,224.7 L110.9,272.5 C124.1,280.1 140.3,280.1 153.5,272.5 L236.3,224.7 C249.5,217.1 257.6,203 257.6,187.8 Z" stroke-width="3.9567" fill="#DAD8DA"></path>
                        <path d="M257.4,187.8 L257.4,92.1 C257.4,76.9 249.3,62.8 236.1,55.2 L153.3,7.4 C140.1,-0.2 123.9,-0.2 110.7,7.4 L27.9,55.2 C14.7,62.8 6.6,76.9 6.6,92.1 L6.6,187.8 C6.6,203 14.7,217.1 27.9,224.7 L110.7,272.5 C123.9,280.1 140.1,280.1 153.3,272.5 L236.1,224.7 C249.3,217.1 257.4,203 257.4,187.8 Z" stroke-width="3.959" fill="#DBDADC"></path>
                        <path d="M257.2,187.8 L257.2,92.1 C257.2,76.9 249.1,62.8 235.9,55.2 L153,7.3 C139.8,-0.3 123.6,-0.3 110.4,7.3 L27.5,55.2 C14.3,62.8 6.2,76.9 6.2,92.1 L6.2,187.8 C6.2,203 14.3,217.1 27.5,224.7 L110.4,272.6 C123.6,280.2 139.8,280.2 153,272.6 L235.9,224.7 C249.1,217.1 257.2,203.1 257.2,187.8 Z" stroke-width="3.9612" fill="#DDDCDD"></path>
                        <path d="M257,187.9 L257,92.1 C257,76.9 248.9,62.8 235.7,55.2 L152.7,7.3 C139.5,-0.3 123.3,-0.3 110.1,7.3 L27.1,55.2 C13.9,62.8 5.8,76.9 5.8,92.1 L5.8,187.9 C5.8,203.1 13.9,217.2 27.1,224.8 L110.1,272.7 C123.3,280.3 139.5,280.3 152.7,272.7 L235.7,224.8 C248.9,217.2 257,203.1 257,187.9 Z" stroke-width="3.9635" fill="#DEDDDF"></path>
                        <path d="M256.8,187.9 L256.8,92 C256.8,76.8 248.7,62.7 235.5,55.1 L152.4,7.1 C139.2,-0.5 123,-0.5 109.8,7.1 L26.7,55.1 C13.5,62.7 5.4,76.8 5.4,92 L5.4,187.9 C5.4,203.1 13.5,217.2 26.7,224.8 L109.8,272.8 C123,280.4 139.2,280.4 152.4,272.8 L235.5,224.8 C248.7,217.2 256.8,203.2 256.8,187.9 Z" stroke-width="3.9658" fill="#E0DFE0"></path>
                        <path d="M256.6,188 L256.6,92 C256.6,76.8 248.5,62.7 235.3,55.1 L152.2,7.1 C139,-0.5 122.8,-0.5 109.6,7.1 L26.5,55.1 C13.3,62.7 5.2,76.8 5.2,92 L5.2,188 C5.2,203.2 13.3,217.3 26.5,224.9 L109.6,272.9 C122.8,280.5 139,280.5 152.2,272.9 L235.3,224.9 C248.5,217.3 256.6,203.2 256.6,188 Z" stroke-width="3.9681" fill="#E1E0E2"></path>
                        <path d="M256.4,188 L256.4,91.9 C256.4,76.7 248.3,62.6 235.1,55 L151.9,7 C138.7,-0.6 122.5,-0.6 109.3,7 L26.1,55 C12.9,62.6 4.8,76.7 4.8,91.9 L4.8,188 C4.8,203.2 12.9,217.3 26.1,224.9 L109.3,272.9 C122.5,280.5 138.7,280.5 151.9,272.9 L235.1,224.9 C248.3,217.3 256.4,203.2 256.4,188 Z" stroke-width="3.9704" fill="#E3E2E3"></path>
                        <path d="M256.3,188.1 L256.3,91.9 C256.3,76.7 248.2,62.6 235,55 L151.7,6.9 C138.5,-0.7 122.3,-0.7 109.1,6.9 L25.8,55 C12.6,62.6 4.5,76.7 4.5,91.9 L4.5,188.1 C4.5,203.3 12.6,217.4 25.8,225 L109,273 C122.2,280.6 138.4,280.6 151.6,273 L234.9,224.9 C248.1,217.4 256.3,203.3 256.3,188.1 Z" stroke-width="3.9726" fill="#E5E4E5"></path>
                        <path d="M256.1,188.1 L256.1,91.9 C256.1,76.7 248,62.6 234.8,55 L151.5,6.9 C138.3,-0.7 122.1,-0.7 108.9,6.9 L25.6,55 C12.4,62.6 4.3,76.7 4.3,91.9 L4.3,188.1 C4.3,203.3 12.4,217.4 25.6,225 L108.9,273.1 C122.1,280.7 138.3,280.7 151.5,273.1 L234.8,225 C247.9,217.4 256.1,203.3 256.1,188.1 Z" stroke-width="3.9749" fill="#E6E5E6"></path>
                        <path d="M255.9,188.1 L255.9,91.8 C255.9,76.6 247.8,62.5 234.6,54.9 L151.2,6.7 C138,-0.9 121.8,-0.9 108.6,6.7 L25.2,54.9 C12,62.5 3.9,76.6 3.9,91.8 L3.9,188.1 C3.9,203.3 12,217.4 25.2,225 L108.6,273.2 C121.8,280.8 138,280.8 151.2,273.2 L234.6,225 C247.7,217.4 255.9,203.4 255.9,188.1 Z" stroke-width="3.9772" fill="#E8E7E8"></path>
                        <path d="M255.7,188.2 L255.7,91.8 C255.7,76.6 247.6,62.5 234.4,54.9 L150.9,6.7 C137.7,-0.9 121.5,-0.9 108.3,6.7 L24.8,54.9 C11.6,62.5 3.5,76.6 3.5,91.8 L3.5,188.2 C3.5,203.4 11.6,217.5 24.8,225.1 L108.3,273.3 C121.5,280.9 137.7,280.9 150.9,273.3 L234.4,225.1 C247.6,217.5 255.7,203.4 255.7,188.2 Z" stroke-width="3.9795" fill="#EAE9EA"></path>
                        <path d="M255.5,188.2 L255.5,91.7 C255.5,76.5 247.4,62.4 234.2,54.8 L150.6,6.6 C137.4,-1 121.2,-1 108,6.6 L24.4,54.8 C11.2,62.4 3.1,76.5 3.1,91.7 L3.1,188.2 C3.1,203.4 11.2,217.5 24.4,225.1 L108,273.3 C121.2,280.9 137.4,280.9 150.6,273.3 L234.2,225.1 C247.4,217.5 255.5,203.4 255.5,188.2 Z" stroke-width="3.9818" fill="#EBEBEB"></path>
                        <path d="M255.3,188.3 L255.3,91.7 C255.3,76.5 247.2,62.4 234,54.8 L150.4,6.5 C137.2,-1.1 121,-1.1 107.8,6.5 L24.2,54.8 C11,62.4 2.9,76.5 2.9,91.7 L2.9,188.3 C2.9,203.5 11,217.6 24.2,225.2 L107.8,273.5 C121,281.1 137.2,281.1 150.4,273.5 L234,225.2 C247.2,217.6 255.3,203.5 255.3,188.3 Z" stroke-width="3.984" fill="#EDECED"></path>
                        <path d="M255.1,188.3 L255.1,91.6 C255.1,76.4 247,62.3 233.8,54.7 L150.1,6.4 C136.9,-1.2 120.7,-1.2 107.5,6.4 L23.8,54.7 C10.6,62.3 2.5,76.4 2.5,91.6 L2.5,188.3 C2.5,203.5 10.6,217.6 23.8,225.2 L107.5,273.5 C120.7,281.1 136.9,281.1 150.1,273.5 L233.8,225.2 C247,217.6 255.1,203.5 255.1,188.3 Z" stroke-width="3.9863" fill="#EFEEEF"></path>
                        <path d="M254.9,188.3 L254.9,91.6 C254.9,76.4 246.8,62.3 233.6,54.7 L149.8,6.3 C136.6,-1.3 120.4,-1.3 107.2,6.3 L23.4,54.7 C10.2,62.3 2.1,76.4 2.1,91.6 L2.1,188.3 C2.1,203.5 10.2,217.6 23.4,225.2 L107.2,273.6 C120.4,281.2 136.6,281.2 149.8,273.6 L233.6,225.2 C246.8,217.6 254.9,203.6 254.9,188.3 Z" stroke-width="3.9886" fill="#F1F1F1"></path>
                        <path d="M254.7,188.4 L254.7,91.6 C254.7,76.4 246.6,62.3 233.4,54.7 L149.5,6.3 C136.3,-1.3 120.1,-1.3 106.9,6.3 L23,54.7 C9.8,62.3 1.7,76.4 1.7,91.6 L1.7,188.4 C1.7,203.6 9.8,217.7 23,225.3 L106.9,273.7 C120.1,281.3 136.3,281.3 149.5,273.7 L233.4,225.3 C246.6,217.7 254.7,203.6 254.7,188.4 Z" stroke-width="3.9909" fill="#F3F3F3"></path>
                        <path d="M254.5,188.4 L254.5,91.5 C254.5,76.3 246.4,62.2 233.2,54.6 L149.3,6.1 C136.1,-1.5 119.9,-1.5 106.7,6.1 L22.8,54.6 C9.6,62.2 1.5,76.3 1.5,91.5 L1.5,188.4 C1.5,203.6 9.6,217.7 22.8,225.3 L106.7,273.8 C119.9,281.4 136.1,281.4 149.3,273.8 L233.2,225.3 C246.4,217.7 254.5,203.7 254.5,188.4 Z" stroke-width="3.9932" fill="#F6F5F6"></path>
                        <path d="M254.3,188.5 L254.3,91.5 C254.3,76.3 246.2,62.2 233,54.6 L149,6.1 C135.8,-1.5 119.6,-1.5 106.4,6.1 L22.4,54.6 C9.2,62.2 1.1,76.3 1.1,91.5 L1.1,188.5 C1.1,203.7 9.2,217.8 22.4,225.4 L106.4,273.9 C119.6,281.5 135.8,281.5 149,273.9 L233,225.4 C246.2,217.8 254.3,203.7 254.3,188.5 Z" stroke-width="3.9954" fill="#F9F8F9"></path>
                        <path d="M254.1,188.5 L254.1,91.4 C254.1,76.2 246,62.1 232.8,54.5 L148.7,6 C135.5,-1.6 119.3,-1.6 106.1,6 L22,54.5 C8.8,62.1 0.7,76.2 0.7,91.4 L0.7,188.5 C0.7,203.7 8.8,217.8 22,225.4 L106.1,273.9 C119.3,281.5 135.5,281.5 148.7,273.9 L232.8,225.4 C246,217.8 254.1,203.7 254.1,188.5 Z" stroke-width="3.9977" fill="#FCFBFC"></path>
                        <path d="M253.9,188.6 L253.9,91.4 C253.9,76.2 245.8,62.1 232.6,54.5 L148.5,5.9 C135.3,-1.7 119.1,-1.7 105.9,5.9 L21.8,54.5 C8.6,62.1 0.5,76.2 0.5,91.4 L0.5,188.6 C0.5,203.8 8.6,217.9 21.8,225.5 L105.9,274.1 C119.1,281.7 135.3,281.7 148.5,274.1 L232.6,225.5 C245.8,217.9 253.9,203.8 253.9,188.6 Z" stroke-width="4" fill="#FFFFFF"></path>
                    </g>
                    <g transform="translate(141.000000, 0.000000)">
                        <polyline id="Path" stroke="#0F1923" stroke-width="4" points="16.1 55.4 2.8 40 20.3 37.9 7.7 26 7.7 4.3"></polyline>
                        <circle id="Oval" fill="#0F1923" fill-rule="nonzero" cx="7.4" cy="7.3" r="7"></circle>
                    </g>
                    <path d="M127.2,118 L127.2,118 C125.7,118 124.4,116.7 124.4,115.2 L124.4,115.2 C124.4,113.7 125.7,112.4 127.2,112.4 L127.2,112.4 C128.7,112.4 130,113.7 130,115.2 L130,115.2 C130,116.7 128.7,118 127.2,118 Z" id="Path" stroke="#0F1923" stroke-width="4" fill="#FFFFFF" fill-rule="nonzero"></path>
                    <path d="M193.9,213.7 L60.4,213.7 C58.1,213.7 56.2,211.8 56.2,209.5 L56.2,209.5 C56.2,207.2 58.1,205.3 60.4,205.3 L193.9,205.3 C196.2,205.3 198.1,207.2 198.1,209.5 L198.1,209.5 C198.1,211.8 196.2,213.7 193.9,213.7 Z" id="Path" fill="#0F1923" fill-rule="nonzero"></path>
                    <g transform="translate(82.000000, 237.000000)">
                        <g transform="translate(25.000000, 25.000000)" id="Path" stroke="#0F1923" stroke-linecap="round" stroke-linejoin="round">
                            <line x1="0.2" y1="4.5" x2="64.5" y2="4.5" stroke-width="3.5818"></line>
                            <path d="M46,8.5 L34.7,8.5 C32.5,8.5 30.7,6.7 30.7,4.5 L30.7,4.5 C30.7,2.3 32.5,0.5 34.7,0.5 L46,0.5 C48.2,0.5 50,2.3 50,4.5 L50,4.5 C50,6.7 48.2,8.5 46,8.5 Z" stroke-width="1.7909" fill="#0F1923" fill-rule="nonzero"></path>
                        </g>
                        <g transform="translate(25.000000, 3.000000)" id="Path" stroke="#0F1923" stroke-linecap="round" stroke-linejoin="round">
                            <line x1="0.2" y1="4.9" x2="64.5" y2="4.9" stroke-width="3.5818"></line>
                            <path d="M28.2,8.8 L16.9,8.8 C14.7,8.8 12.9,7 12.9,4.8 L12.9,4.8 C12.9,2.6 14.7,0.8 16.9,0.8 L28.2,0.8 C30.4,0.8 32.2,2.6 32.2,4.8 L32.2,4.8 C32.1,7 30.4,8.8 28.2,8.8 Z" stroke-width="1.7909" fill="#0F1923" fill-rule="nonzero"></path>
                        </g>
                        <g fill-rule="nonzero">
                            <path d="M6.3,33.5 L6.3,33.5 C3.3,33.5 0.9,31.1 0.9,28.1 L0.9,9.4 C0.9,6.4 3.3,4 6.3,4 L6.3,4 C9.3,4 11.7,6.4 11.7,9.4 L11.7,28 C11.7,31 9.2,33.5 6.3,33.5 Z" id="Path" stroke="#0F1923" stroke-width="3.2112" fill="#0F1923"></path>
                            <rect id="Rectangle" fill="#FFFFFF" x="1.7" y="0.3" width="2.4" height="34"></rect>
                        </g>
                    </g>
                    <g transform="translate(71.000000, 130.000000)" id="Path">
                        <path d="M89.9,51.5 L14.8,51.5 C7,51.5 0.7,45.2 0.7,37.4 L0.7,14.4 C0.7,6.6 7,0.3 14.8,0.3 L89.9,0.3 C97.7,0.3 104,6.6 104,14.4 L104,37.4 C103.9,45.2 97.6,51.5 89.9,51.5 Z" stroke="#0F1923" stroke-width="3"></path>
                        <g transform="translate(8.000000, 0.000000)" fill-rule="nonzero">
                            <path d="M89.6,51.5 L14.5,51.5 C6.7,51.5 0.4,45.2 0.4,37.4 L0.4,14.4 C0.4,6.6 6.7,0.3 14.5,0.3 L89.6,0.3 C97.4,0.3 103.7,6.6 103.7,14.4 L103.7,37.4 C103.7,45.2 97.4,51.5 89.6,51.5 Z" stroke="#0F1923" stroke-width="3" fill="#0F1923"></path>
                            <g transform="translate(23.000000, 15.000000)" fill="#FFFFFF">
                                <path d="M5.9,21.6 L5.1,21.6 C2.3,21.6 0.1,19.3 0.1,16.6 L0.1,5.3 C0.1,2.5 2.4,0.3 5.1,0.3 L5.9,0.3 C8.7,0.3 10.9,2.6 10.9,5.3 L10.9,16.6 C10.9,19.3 8.7,21.6 5.9,21.6 Z"></path>
                                <path d="M53,21.6 L52.2,21.6 C49.4,21.6 47.2,19.3 47.2,16.6 L47.2,5.3 C47.2,2.5 49.5,0.3 52.2,0.3 L53,0.3 C55.8,0.3 58,2.6 58,5.3 L58,16.6 C58,19.3 55.7,21.6 53,21.6 Z"></path>
                            </g>
                        </g>
                    </g>
                </g>
            </g>
        </g>
    </g>
</svg>
