<?xml version="1.0" encoding="UTF-8"?>
<svg width="347px" height="327px" viewBox="0 0 347 327" version="1.1" xmlns="http://www.w3.org/2000/svg" xmlns:xlink="http://www.w3.org/1999/xlink">
    <title>Group</title>
    <g id="Page-1" stroke="none" stroke-width="1" fill="none" fill-rule="evenodd">
        <g id="Artboard" transform="translate(-1800.000000, -467.000000)">
            <g id="ROBOTS_All_v3" transform="translate(181.000000, 70.000000)">
                <g id="Group" transform="translate(1621.000000, 389.000000)">
                    <g transform="translate(0.000000, 8.000000)">
                        <g>
                            <g transform="translate(0.000000, 45.000000)" fill-rule="nonzero" id="Path" stroke="#0F1923">
                                <path d="M173.1,37.9 L77.7,203.1 C62.5,229.5 81.5,262.5 112,262.5 L302.8,262.5 C333.3,262.5 352.3,229.5 337.1,203.1 L241.7,37.9 C226.5,11.6 188.4,11.6 173.1,37.9 Z" stroke-width="3.7387" fill="#0F1923"></path>
                                <path d="M172.7,37.9 L77.2,203.3 C61.9,229.7 81,262.8 111.5,262.8 L302.5,262.8 C333,262.8 352.1,229.8 336.8,203.3 L241.3,37.9 C226.1,11.4 188,11.4 172.7,37.9 Z" stroke-width="3.7404" fill="#101A24"></path>
                                <path d="M172.4,37.8 L76.8,203.4 C61.5,229.8 80.6,262.9 111.2,262.9 L302.4,262.9 C332.9,262.9 352,229.8 336.8,203.4 L241.2,37.8 C225.8,11.3 187.6,11.3 172.4,37.8 Z" stroke-width="3.7422" fill="#121B25"></path>
                                <path d="M172,37.7 L76.3,203.4 C61,229.9 80.1,263 110.7,263 L302,263 C332.6,263 351.7,229.9 336.4,203.4 L240.7,37.7 C225.5,11.2 187.3,11.2 172,37.7 Z" stroke-width="3.7439" fill="#131C26"></path>
                                <path d="M171.6,37.6 L75.8,203.5 C60.5,230 79.6,263.1 110.2,263.1 L301.7,263.1 C332.3,263.1 351.4,230 336.1,203.5 L240.3,37.6 C225.1,11.1 186.9,11.1 171.6,37.6 Z" stroke-width="3.7456" fill="#151D27"></path>
                                <path d="M171.2,37.5 L75.3,203.5 C60,230 79.1,263.2 109.8,263.2 L301.5,263.2 C332.1,263.2 351.3,230 336,203.5 L240.1,37.5 C224.8,10.9 186.5,10.9 171.2,37.5 Z" stroke-width="3.7474" fill="#161E28"></path>
                                <path d="M170.8,37.4 L74.9,203.6 C59.6,230.1 78.7,263.3 109.4,263.3 L301.3,263.3 C332,263.3 351.1,230.1 335.8,203.6 L239.9,37.4 C224.5,10.8 186.2,10.8 170.8,37.4 Z" stroke-width="3.7491" fill="#171F29"></path>
                                <path d="M170.4,37.3 L74.4,203.6 C59.1,230.2 78.2,263.4 108.9,263.4 L301,263.4 C331.7,263.4 350.9,230.2 335.5,203.6 L239.5,37.3 C224.1,10.7 185.8,10.7 170.4,37.3 Z" stroke-width="3.7508" fill="#18202A"></path>
                                <path d="M170.1,37.2 L74,203.7 C58.6,230.3 77.8,263.5 108.6,263.5 L300.8,263.5 C331.5,263.5 350.7,230.3 335.4,203.7 L239.3,37.2 C223.8,10.6 185.4,10.6 170.1,37.2 Z" stroke-width="3.7525" fill="#1A212B"></path>
                                <path d="M169.7,37.1 L73.5,203.7 C58.1,230.3 77.3,263.6 108.1,263.6 L300.5,263.6 C331.2,263.6 350.5,230.3 335.1,203.7 L238.9,37.1 C223.5,10.4 185.1,10.4 169.7,37.1 Z" stroke-width="3.7543" fill="#1B222C"></path>
                                <path d="M169.3,37 L73,203.8 C57.6,230.4 76.8,263.8 107.6,263.8 L300.2,263.8 C331,263.8 350.2,230.5 334.8,203.8 L238.5,37 C223.1,10.3 184.7,10.3 169.3,37 Z" stroke-width="3.756" fill="#1C232C"></path>
                                <path d="M168.9,36.9 L72.5,203.9 C57.1,230.6 76.3,263.9 107.1,263.9 L300,263.9 C330.8,263.9 350,230.6 334.6,203.9 L238.2,36.9 C222.8,10.2 184.3,10.2 168.9,36.9 Z" stroke-width="3.7577" fill="#1D242D"></path>
                                <path d="M168.5,36.8 L72,203.9 C56.6,230.6 75.9,264 106.7,264 L299.7,264 C330.5,264 349.8,230.6 334.4,203.9 L237.9,36.8 C222.5,10.1 183.9,10.1 168.5,36.8 Z" stroke-width="3.7595" fill="#1E252E"></path>
                                <path d="M168.2,36.7 L71.6,204 C56.2,230.7 75.5,264.1 106.3,264.1 L299.4,264.1 C330.3,264.1 349.5,230.7 334.1,204 L237.5,36.7 C222.2,9.9 183.6,9.9 168.2,36.7 Z" stroke-width="3.7612" fill="#20262F"></path>
                                <path d="M167.8,36.6 L71.1,204 C55.7,230.7 75,264.2 105.8,264.2 L299.1,264.2 C330,264.2 349.3,230.8 333.8,204 L237.1,36.6 C221.8,9.8 183.2,9.8 167.8,36.6 Z" stroke-width="3.7629" fill="#212730"></path>
                                <path d="M167.4,36.5 L70.6,204.1 C55.1,230.9 74.5,264.3 105.4,264.3 L298.9,264.3 C329.8,264.3 349.1,230.8 333.7,204.1 L236.9,36.5 C221.5,9.7 182.8,9.7 167.4,36.5 Z" stroke-width="3.7647" fill="#222831"></path>
                                <path d="M167,36.4 L70.2,204.1 C54.7,230.9 74.1,264.4 105,264.4 L298.7,264.4 C329.6,264.4 349,230.9 333.5,204.1 L236.7,36.4 C221.2,9.6 182.5,9.6 167,36.4 Z" stroke-width="3.7664" fill="#232932"></path>
                                <path d="M166.6,36.3 L69.7,204.2 C54.2,231 73.6,264.6 104.5,264.6 L298.4,264.6 C329.4,264.6 348.7,231.1 333.2,204.2 L236.3,36.3 C220.8,9.5 182.1,9.5 166.6,36.3 Z" stroke-width="3.7681" fill="#242A33"></path>
                                <path d="M166.2,36.2 L69.2,204.3 C53.7,231.1 73.1,264.7 104.1,264.7 L298.1,264.7 C329.1,264.7 348.5,231.1 333,204.3 L236,36.2 C220.5,9.3 181.7,9.3 166.2,36.2 Z" stroke-width="3.7698" fill="#252B34"></path>
                                <path d="M165.9,36.1 L68.8,204.3 C53.3,231.2 72.7,264.8 103.7,264.8 L297.9,264.8 C328.9,264.8 348.3,231.2 332.8,204.3 L235.7,36.1 C220.2,9.2 181.4,9.2 165.9,36.1 Z" stroke-width="3.7716" fill="#262C35"></path>
                                <path d="M165.5,36 L68.3,204.4 C52.8,231.3 72.2,264.9 103.2,264.9 L297.6,264.9 C328.7,264.9 348.1,231.3 332.5,204.4 L235.4,36 C219.8,9.1 181,9.1 165.5,36 Z" stroke-width="3.7733" fill="#282D35"></path>
                                <path d="M165.1,35.9 L67.8,204.4 C52.3,231.3 71.7,265 102.8,265 L297.4,265 C328.5,265 347.9,231.3 332.4,204.4 L235,35.9 C219.5,9 180.6,9 165.1,35.9 Z" stroke-width="3.775" fill="#292E36"></path>
                                <path d="M164.7,35.8 L67.3,204.5 C51.7,231.4 71.2,265.1 102.3,265.1 L297.1,265.1 C328.2,265.1 347.7,231.4 332.1,204.5 L234.7,35.8 C219.2,8.8 180.3,8.8 164.7,35.8 Z" stroke-width="3.7768" fill="#2A2F37"></path>
                                <path d="M164.3,35.7 L66.8,204.5 C51.2,231.5 70.7,265.2 101.8,265.2 L296.8,265.2 C327.9,265.2 347.4,231.5 331.8,204.5 L234.3,35.7 C218.8,8.7 179.9,8.7 164.3,35.7 Z" stroke-width="3.7785" fill="#2B3038"></path>
                                <path d="M163.9,35.6 L66.3,204.6 C50.7,231.6 70.2,265.3 101.4,265.3 L296.5,265.3 C327.7,265.3 347.2,231.6 331.6,204.6 L234,35.6 C218.5,8.6 179.5,8.6 163.9,35.6 Z" stroke-width="3.7802" fill="#2C3139"></path>
                                <path d="M163.6,35.5 L65.9,204.6 C50.3,231.6 69.8,265.4 101,265.4 L296.3,265.4 C327.5,265.4 347,231.6 331.4,204.6 L233.7,35.5 C218.2,8.5 179.2,8.5 163.6,35.5 Z" stroke-width="3.782" fill="#2D323A"></path>
                                <path d="M163.2,35.4 L65.5,204.7 C49.9,231.7 69.4,265.6 100.6,265.6 L296.1,265.6 C327.3,265.6 346.9,231.8 331.2,204.7 L233.5,35.4 C217.8,8.3 178.8,8.3 163.2,35.4 Z" stroke-width="3.7837" fill="#2E333B"></path>
                                <path d="M162.8,35.3 L65,204.7 C49.4,231.8 68.9,265.6 100.2,265.6 L295.9,265.6 C327.2,265.6 346.7,231.8 331.1,204.7 L233.3,35.2 C217.5,8.2 178.4,8.2 162.8,35.3 Z" stroke-width="3.7854" fill="#30343C"></path>
                                <path d="M162.4,35.2 L64.5,204.8 C48.9,231.9 68.4,265.8 99.7,265.8 L295.6,265.8 C326.9,265.8 346.4,231.9 330.8,204.8 L232.9,35.2 C217.2,8.1 178.1,8.1 162.4,35.2 Z" stroke-width="3.7872" fill="#31353D"></path>
                                <path d="M162,35.1 L64,204.9 C48.3,232 67.9,265.9 99.2,265.9 L295.2,265.9 C326.5,265.9 346.1,232 330.4,204.9 L232.4,35.1 C216.8,8 177.7,8 162,35.1 Z" stroke-width="3.7889" fill="#32363E"></path>
                                <path d="M161.7,35 L63.6,204.9 C47.9,232 67.5,266 98.9,266 L295,266 C326.3,266 345.9,232.1 330.3,204.9 L232.2,35 C216.5,7.8 177.3,7.8 161.7,35 Z" stroke-width="3.7906" fill="#33373F"></path>
                                <path d="M161.3,34.9 L63.1,205 C47.4,232.2 67,266.1 98.4,266.1 L294.8,266.1 C326.2,266.1 345.8,232.1 330.1,205 L231.9,34.9 C216.2,7.7 177,7.7 161.3,34.9 Z" stroke-width="3.7923" fill="#343840"></path>
                                <path d="M160.9,34.8 L62.6,205 C46.9,232.2 66.5,266.2 97.9,266.2 L294.5,266.2 C325.9,266.2 345.5,232.2 329.8,205 L231.5,34.8 C215.8,7.6 176.6,7.6 160.9,34.8 Z" stroke-width="3.7941" fill="#353941"></path>
                                <path d="M160.5,34.7 L62.1,205.1 C46.4,232.3 66,266.3 97.5,266.3 L294.3,266.3 C325.7,266.3 345.4,232.3 329.7,205.1 L231.3,34.7 C215.5,7.5 176.2,7.5 160.5,34.7 Z" stroke-width="3.7958" fill="#363A42"></path>
                                <path d="M160.1,34.6 L61.6,205.1 C45.9,232.3 65.5,266.4 97,266.4 L294,266.4 C325.5,266.4 345.1,232.3 329.4,205.1 L230.9,34.6 C215.2,7.4 175.9,7.4 160.1,34.6 Z" stroke-width="3.7975" fill="#383B43"></path>
                                <path d="M159.7,34.5 L61.1,205.2 C45.4,232.5 65,266.6 96.5,266.6 L293.6,266.6 C325.1,266.6 344.8,232.5 329,205.2 L230.4,34.5 C214.9,7.2 175.5,7.2 159.7,34.5 Z" stroke-width="3.7993" fill="#393C44"></path>
                                <path d="M159.4,34.4 L60.8,205.3 C45,232.6 64.7,266.7 96.3,266.7 L293.6,266.7 C325.1,266.7 344.8,232.6 329.1,205.3 L230.5,34.4 C214.5,7.1 175.1,7.1 159.4,34.4 Z" stroke-width="3.801" fill="#3A3D45"></path>
                                <path d="M159,34.3 L60.3,205.3 C44.5,232.6 64.2,266.8 95.8,266.8 L293.3,266.8 C324.8,266.8 344.6,232.6 328.8,205.3 L230.1,34.3 C214.2,7 174.8,7 159,34.3 Z" stroke-width="3.8027" fill="#3B3E46"></path>
                                <path d="M158.6,34.2 L59.8,205.4 C44,232.7 63.7,266.9 95.3,266.9 L293,266.9 C324.6,266.9 344.3,232.7 328.5,205.4 L229.7,34.2 C213.9,6.9 174.4,6.9 158.6,34.2 Z" stroke-width="3.8045" fill="#3C3F47"></path>
                                <path d="M158.2,34.1 L59.3,205.4 C43.5,232.8 63.3,267 94.9,267 L292.7,267 C324.3,267 344.1,232.8 328.3,205.4 L229.4,34.1 C213.5,6.7 174,6.7 158.2,34.1 Z" stroke-width="3.8062" fill="#3D4048"></path>
                                <path d="M157.8,34 L58.8,205.5 C43,232.9 62.8,267.1 94.4,267.1 L292.4,267.1 C324,267.1 343.8,232.9 328,205.5 L229,34 C213.2,6.6 173.6,6.6 157.8,34 Z" stroke-width="3.8079" fill="#3E4149"></path>
                                <path d="M157.4,33.9 L58.3,205.5 C42.5,232.9 62.3,267.2 93.9,267.2 L292.1,267.2 C323.8,267.2 343.6,232.9 327.7,205.5 L228.6,33.9 C212.9,6.5 173.3,6.5 157.4,33.9 Z" stroke-width="3.8096" fill="#40424A"></path>
                                <path d="M157.1,33.8 L57.9,205.6 C42.1,233 61.9,267.4 93.6,267.4 L292,267.4 C323.7,267.4 343.5,233.1 327.7,205.6 L228.5,33.8 C212.5,6.4 172.9,6.4 157.1,33.8 Z" stroke-width="3.8114" fill="#41434B"></path>
                                <path d="M156.7,33.7 L57.4,205.7 C41.5,233.2 61.4,267.5 93.1,267.5 L291.7,267.5 C323.4,267.5 343.2,233.2 327.4,205.7 L228.1,33.7 C212.2,6.2 172.5,6.2 156.7,33.7 Z" stroke-width="3.8131" fill="#42444C"></path>
                                <path d="M156.3,33.6 L56.9,205.7 C41,233.2 60.9,267.6 92.6,267.6 L291.3,267.6 C323,267.6 342.9,233.2 327,205.7 L227.6,33.6 C211.9,6.1 172.2,6.1 156.3,33.6 Z" stroke-width="3.8148" fill="#43454D"></path>
                                <path d="M155.9,33.5 L56.4,205.8 C40.5,233.3 60.4,267.7 92.2,267.7 L291.1,267.7 C322.9,267.7 342.7,233.3 326.9,205.8 L227.4,33.5 C211.5,6 171.8,6 155.9,33.5 Z" stroke-width="3.8166" fill="#44464E"></path>
                                <path d="M155.5,33.4 L56,205.8 C40.1,233.3 60,267.8 91.8,267.8 L290.9,267.8 C322.7,267.8 342.6,233.4 326.7,205.8 L227.2,33.4 C211.2,5.9 171.4,5.9 155.5,33.4 Z" stroke-width="3.8183" fill="#45474F"></path>
                                <path d="M155.2,33.3 L55.6,205.9 C39.7,233.5 59.6,267.9 91.4,267.9 L290.7,267.9 C322.5,267.9 342.4,233.4 326.5,205.9 L226.9,33.3 C210.9,5.7 171.1,5.7 155.2,33.3 Z" stroke-width="3.82" fill="#474850"></path>
                                <path d="M154.8,33.2 L55,206 C39.1,233.6 59,268.1 90.8,268.1 L290.3,268.1 C322.2,268.1 342.1,233.6 326.1,206 L226.4,33.3 C210.5,5.6 170.7,5.6 154.8,33.2 Z" stroke-width="3.8218" fill="#484951"></path>
                                <path d="M154.4,33.1 L54.6,206 C38.7,233.6 58.6,268.1 90.5,268.1 L290.1,268.1 C322,268.1 341.9,233.6 326,206 L226.2,33.1 C210.2,5.5 170.3,5.5 154.4,33.1 Z" stroke-width="3.8235" fill="#494A52"></path>
                                <path d="M154,33 L54.1,206 C38.1,233.6 58.1,268.2 90,268.2 L289.8,268.2 C321.7,268.2 341.7,233.6 325.7,206 L225.8,33 C209.9,5.4 170,5.4 154,33 Z" stroke-width="3.8252" fill="#4A4B53"></path>
                                <path d="M153.6,32.9 L53.6,206.1 C37.6,233.8 57.6,268.4 89.5,268.4 L289.5,268.4 C321.5,268.4 341.4,233.8 325.4,206.1 L225.4,32.9 C209.5,5.3 169.6,5.3 153.6,32.9 Z" stroke-width="3.827" fill="#4B4D54"></path>
                                <path d="M153.2,32.8 L53.1,206.2 C37.1,233.9 57.1,268.5 89.1,268.5 L289.3,268.5 C321.3,268.5 341.3,233.9 325.3,206.2 L225.2,32.8 C209.2,5.1 169.2,5.1 153.2,32.8 Z" stroke-width="3.8287" fill="#4D4E55"></path>
                                <path d="M152.9,32.7 L52.7,206.2 C36.7,233.9 56.7,268.6 88.7,268.6 L289.1,268.6 C321.1,268.6 341.1,233.9 325.1,206.2 L224.9,32.7 C208.9,5 168.9,5 152.9,32.7 Z" stroke-width="3.8304" fill="#4E4F57"></path>
                                <path d="M152.5,32.6 L52.2,206.3 C36.2,234 56.2,268.7 88.2,268.7 L288.7,268.7 C320.7,268.7 340.8,234 324.7,206.3 L224.4,32.6 C208.5,4.9 168.5,4.9 152.5,32.6 Z" stroke-width="3.8321" fill="#4F5058"></path>
                                <path d="M152.1,32.5 L51.7,206.3 C35.7,234.1 55.7,268.8 87.8,268.8 L288.5,268.8 C320.6,268.8 340.6,234.1 324.6,206.3 L224.2,32.5 C208.2,4.8 168.1,4.8 152.1,32.5 Z" stroke-width="3.8339" fill="#505159"></path>
                                <path d="M151.7,32.4 L51.2,206.4 C35.2,234.2 55.2,268.9 87.3,268.9 L288.2,268.9 C320.3,268.9 340.4,234.2 324.3,206.4 L223.8,32.4 C207.9,4.6 167.8,4.6 151.7,32.4 Z" stroke-width="3.8356" fill="#51525A"></path>
                                <path d="M151.3,32.3 L50.8,206.4 C34.7,234.2 54.8,269 86.9,269 L288,269 C320.1,269 340.2,234.2 324.1,206.4 L223.6,32.3 C207.5,4.5 167.4,4.5 151.3,32.3 Z" stroke-width="3.8373" fill="#53535B"></path>
                                <path d="M150.9,32.2 L50.3,206.5 C34.2,234.3 54.3,269.2 86.5,269.2 L287.8,269.2 C320,269.2 340,234.4 324,206.5 L223.4,32.2 C207.2,4.4 167,4.4 150.9,32.2 Z" stroke-width="3.8391" fill="#54555C"></path>
                                <path d="M150.6,32.1 L49.9,206.6 C33.8,234.5 53.9,269.3 86.1,269.3 L287.5,269.3 C319.7,269.3 339.8,234.5 323.7,206.6 L223,32.1 C206.9,4.3 166.7,4.3 150.6,32.1 Z" stroke-width="3.8408" fill="#55565E"></path>
                                <path d="M150.2,32 L49.4,206.6 C33.3,234.5 53.4,269.4 85.6,269.4 L287.2,269.4 C319.4,269.4 339.5,234.5 323.4,206.6 L222.7,32 C206.6,4.1 166.3,4.1 150.2,32 Z" stroke-width="3.8425" fill="#57575F"></path>
                                <path d="M149.8,31.9 L48.9,206.7 C32.8,234.6 52.9,269.5 85.2,269.5 L287,269.5 C319.2,269.5 339.4,234.6 323.3,206.7 L222.4,31.9 C206.2,4 165.9,4 149.8,31.9 Z" stroke-width="3.8443" fill="#585860"></path>
                                <path d="M149.4,31.8 L48.4,206.7 C32.3,234.6 52.4,269.6 84.7,269.6 L286.7,269.6 C319,269.6 339.1,234.7 323,206.7 L222,31.8 C205.9,3.9 165.6,3.9 149.4,31.8 Z" stroke-width="3.846" fill="#595A61"></path>
                                <path d="M149,31.7 L48,206.8 C31.9,234.8 52,269.7 84.3,269.7 L286.5,269.7 C318.8,269.7 339,234.7 322.8,206.8 L221.7,31.7 C205.6,3.8 165.2,3.8 149,31.7 Z" stroke-width="3.8477" fill="#5A5B62"></path>
                                <path d="M148.7,31.6 L47.5,206.8 C31.3,234.8 51.5,269.8 83.9,269.8 L286.2,269.8 C318.5,269.8 338.7,234.8 322.6,206.8 L221.4,31.6 C205.2,3.6 164.8,3.6 148.7,31.6 Z" stroke-width="3.8494" fill="#5C5C64"></path>
                                <path d="M148.3,31.5 L47,206.9 C30.8,234.9 51,269.9 83.4,269.9 L285.9,269.9 C318.3,269.9 338.5,234.9 322.3,206.9 L221,31.5 C204.9,3.5 164.5,3.5 148.3,31.5 Z" stroke-width="3.8512" fill="#5D5D65"></path>
                                <path d="M147.9,31.4 L46.5,207 C30.3,235 50.5,270.1 82.9,270.1 L285.6,270.1 C318,270.1 338.2,235 322,207 L220.6,31.5 C204.6,3.4 164.1,3.4 147.9,31.4 Z" stroke-width="3.8529" fill="#5E5F66"></path>
                                <path d="M147.5,31.3 L46.1,207 C29.9,235.1 50.2,270.2 82.6,270.2 L285.5,270.2 C317.9,270.2 338.2,235.1 322,207 L220.6,31.3 C204.2,3.3 163.7,3.3 147.5,31.3 Z" stroke-width="3.8546" fill="#606067"></path>
                                <path d="M147.1,31.2 L45.6,207.1 C29.4,235.2 49.7,270.3 82.1,270.3 L285.2,270.3 C317.6,270.3 337.9,235.2 321.7,207.1 L220.2,31.2 C203.9,3.2 163.3,3.2 147.1,31.2 Z" stroke-width="3.8564" fill="#616169"></path>
                                <path d="M146.7,31.2 L45.1,207.2 C28.9,235.3 49.2,270.5 81.6,270.5 L284.8,270.5 C317.3,270.5 337.6,235.4 321.3,207.2 L219.7,31.2 C203.6,3 163,3 146.7,31.2 Z" stroke-width="3.8581" fill="#62626A"></path>
                                <path d="M146.4,31.1 L44.7,207.3 C28.5,235.4 48.8,270.6 81.3,270.6 L284.7,270.6 C317.2,270.6 337.5,235.4 321.3,207.3 L219.6,31.1 C203.2,2.9 162.6,2.9 146.4,31.1 Z" stroke-width="3.8598" fill="#64646B"></path>
                                <path d="M146,31 L44.2,207.3 C27.9,235.5 48.3,270.7 80.8,270.7 L284.4,270.7 C316.9,270.7 337.3,235.5 321,207.3 L219.2,31 C202.9,2.8 162.2,2.8 146,31 Z" stroke-width="3.8616" fill="#65656D"></path>
                                <path d="M145.6,30.9 L43.7,207.4 C27.4,235.6 47.8,270.8 80.3,270.8 L284.1,270.8 C316.7,270.8 337,235.6 320.7,207.4 L218.8,30.9 C202.6,2.7 161.9,2.7 145.6,30.9 Z" stroke-width="3.8633" fill="#67666E"></path>
                                <path d="M145.2,30.8 L43.2,207.4 C26.9,235.6 47.3,270.9 79.9,270.9 L283.9,270.9 C316.5,270.9 336.9,235.6 320.6,207.4 L218.6,30.8 C202.2,2.5 161.5,2.5 145.2,30.8 Z" stroke-width="3.865" fill="#68686F"></path>
                                <path d="M144.8,30.7 L42.7,207.5 C26.4,235.7 46.8,271 79.4,271 L283.5,271 C316.1,271 336.5,235.7 320.2,207.5 L218.1,30.7 C201.9,2.4 161.1,2.4 144.8,30.7 Z" stroke-width="3.8668" fill="#696970"></path>
                                <path d="M144.4,30.6 L42.2,207.6 C25.9,235.9 46.3,271.2 78.9,271.2 L283.2,271.2 C315.8,271.2 336.2,235.9 319.9,207.6 L217.7,30.6 C201.6,2.3 160.8,2.3 144.4,30.6 Z" stroke-width="3.8685" fill="#6B6A72"></path>
                                <path d="M144.1,30.5 L41.8,207.6 C25.5,235.9 45.9,271.3 78.6,271.3 L283.1,271.3 C315.8,271.3 336.2,235.9 319.9,207.6 L217.6,30.5 C201.2,2.2 160.4,2.2 144.1,30.5 Z" stroke-width="3.8702" fill="#6C6C73"></path>
                                <path d="M143.7,30.4 L41.4,207.7 C25,236 45.5,271.4 78.2,271.4 L282.9,271.4 C315.6,271.4 336,236 319.7,207.7 L217.4,30.4 C200.9,2 160,2 143.7,30.4 Z" stroke-width="3.8719" fill="#6D6D74"></path>
                                <path d="M143.3,30.3 L40.9,207.7 C24.5,236 45,271.5 77.7,271.5 L282.6,271.5 C315.3,271.5 335.8,236.1 319.4,207.7 L217,30.3 C200.6,1.9 159.7,1.9 143.3,30.3 Z" stroke-width="3.8737" fill="#6F6F76"></path>
                                <path d="M142.9,30.2 L40.4,207.8 C24,236.2 44.5,271.6 77.3,271.6 L282.3,271.6 C315.1,271.6 335.5,236.1 319.2,207.8 L216.7,30.2 C200.2,1.8 159.3,1.8 142.9,30.2 Z" stroke-width="3.8754" fill="#707077"></path>
                                <path d="M142.5,30.1 L39.9,207.8 C23.5,236.2 44,271.7 76.8,271.7 L282,271.7 C314.8,271.7 335.3,236.2 318.9,207.8 L216.3,30.1 C199.9,1.7 158.9,1.7 142.5,30.1 Z" stroke-width="3.8771" fill="#727179"></path>
                                <path d="M142.2,30 L39.5,207.9 C23.1,236.3 43.6,271.8 76.4,271.8 L281.8,271.8 C314.6,271.8 335.1,236.3 318.7,207.9 L216,30 C199.6,1.5 158.6,1.5 142.2,30 Z" stroke-width="3.8789" fill="#73737A"></path>
                                <path d="M141.8,29.9 L39,207.9 C22.6,236.3 43.1,271.9 75.9,271.9 L281.5,271.9 C314.3,271.9 334.9,236.3 318.4,207.9 L215.6,29.9 C199.3,1.4 158.2,1.4 141.8,29.9 Z" stroke-width="3.8806" fill="#75747B"></path>
                                <path d="M141.4,29.8 L38.5,208 C22.1,236.5 42.6,272.1 75.5,272.1 L281.3,272.1 C314.2,272.1 334.7,236.5 318.3,208 L215.4,29.8 C198.9,1.3 157.8,1.3 141.4,29.8 Z" stroke-width="3.8823" fill="#76767D"></path>
                                <path d="M141,29.7 L38,208 C21.5,236.5 42.1,272.1 75,272.1 L281,272.1 C313.9,272.1 334.5,236.5 318,208 L215,29.6 C198.6,1.2 157.5,1.2 141,29.7 Z" stroke-width="3.8841" fill="#78777E"></path>
                                <path d="M140.6,29.6 L37.5,208.1 C21,236.6 41.6,272.3 74.5,272.3 L280.6,272.3 C313.5,272.3 334.1,236.7 317.6,208.1 L214.5,29.6 C198.3,1.1 157.1,1.1 140.6,29.6 Z" stroke-width="3.8858" fill="#797980"></path>
                                <path d="M140.2,29.5 L37,208.2 C20.5,236.7 41.1,272.4 74.1,272.4 L280.4,272.4 C313.4,272.4 334,236.7 317.5,208.2 L214.3,29.5 C197.9,0.9 156.7,0.9 140.2,29.5 Z" stroke-width="3.8875" fill="#7B7A81"></path>
                                <path d="M139.9,29.4 L36.7,208.2 C20.2,236.8 40.8,272.5 73.8,272.5 L280.3,272.5 C313.3,272.5 333.9,236.8 317.4,208.2 L214.2,29.4 C197.6,0.8 156.4,0.8 139.9,29.4 Z" stroke-width="3.8893" fill="#7C7C83"></path>
                                <path d="M139.5,29.3 L36.2,208.3 C19.7,236.9 40.3,272.6 73.3,272.6 L280,272.6 C313,272.6 333.7,236.9 317.1,208.3 L213.8,29.3 C197.3,0.7 156,0.7 139.5,29.3 Z" stroke-width="3.891" fill="#7E7D84"></path>
                                <path d="M139.1,29.2 L35.7,208.3 C19.2,236.9 39.8,272.7 72.9,272.7 L279.8,272.7 C312.8,272.7 333.5,236.9 317,208.3 L213.6,29.2 C196.9,0.6 155.6,0.6 139.1,29.2 Z" stroke-width="3.8927" fill="#807F86"></path>
                                <path d="M138.7,29.1 L35.2,208.4 C18.7,237 39.3,272.8 72.4,272.8 L279.4,272.8 C312.5,272.8 333.1,237 316.6,208.4 L213.1,29.1 C196.6,0.4 155.3,0.4 138.7,29.1 Z" stroke-width="3.8944" fill="#818087"></path>
                                <path d="M138.3,29 L34.7,208.4 C18.1,237.1 38.8,272.9 71.9,272.9 L279.1,272.9 C312.2,272.9 332.9,237.1 316.3,208.4 L212.8,29 C196.3,0.3 154.9,0.3 138.3,29 Z" stroke-width="3.8962" fill="#838289"></path>
                                <path d="M138,28.9 L34.3,208.5 C17.7,237.2 38.4,273.1 71.6,273.1 L279,273.1 C312.1,273.1 332.8,237.2 316.3,208.5 L212.6,28.9 C195.9,0.2 154.5,0.2 138,28.9 Z" stroke-width="3.8979" fill="#84848A"></path>
                                <path d="M137.6,28.8 L33.8,208.6 C17.2,237.3 37.9,273.2 71.1,273.2 L278.7,273.2 C311.9,273.2 332.6,237.3 316,208.6 L212.2,28.8 C195.6,0.1 154.1,0.1 137.6,28.8 Z" stroke-width="3.8996" fill="#86858C"></path>
                                <path d="M137.2,28.7 L33.3,208.6 C16.7,237.3 37.4,273.3 70.6,273.3 L278.4,273.3 C311.6,273.3 332.3,237.4 315.7,208.6 L211.8,28.7 C195.3,-0.1 153.8,-0.1 137.2,28.7 Z" stroke-width="3.9014" fill="#88878D"></path>
                                <path d="M136.8,28.6 L32.8,208.7 C16.2,237.5 37,273.4 70.2,273.4 L278.1,273.4 C311.3,273.4 332.1,237.4 315.5,208.7 L211.5,28.6 C194.9,-0.2 153.4,-0.2 136.8,28.6 Z" stroke-width="3.9031" fill="#89888F"></path>
                                <path d="M136.4,28.5 L32.3,208.7 C15.7,237.5 36.5,273.5 69.7,273.5 L277.8,273.5 C311,273.5 331.8,237.5 315.2,208.7 L211.1,28.5 C194.6,-0.3 153,-0.3 136.4,28.5 Z" stroke-width="3.9048" fill="#8B8A90"></path>
                                <path d="M136,28.4 L31.9,208.8 C15.3,237.6 36.1,273.6 69.3,273.6 L277.6,273.6 C310.9,273.6 331.7,237.6 315,208.8 L210.9,28.4 C194.3,-0.4 152.7,-0.4 136,28.4 Z" stroke-width="3.9066" fill="#8D8C92"></path>
                                <path d="M135.7,28.3 L31.5,208.8 C14.8,237.6 35.7,273.7 69,273.7 L277.5,273.7 C310.8,273.7 331.6,237.6 315,208.8 L210.8,28.3 C193.9,-0.5 152.3,-0.5 135.7,28.3 Z" stroke-width="3.9083" fill="#8E8D93"></path>
                                <path d="M135.3,28.2 L31,208.9 C14.3,237.8 35.2,273.9 68.5,273.9 L277.2,273.9 C310.5,273.9 331.4,237.8 314.7,208.9 L210.4,28.2 C193.6,-0.7 151.9,-0.7 135.3,28.2 Z" stroke-width="3.91" fill="#908F95"></path>
                                <path d="M134.9,28.1 L30.5,209 C13.8,237.9 34.7,274 68,274 L276.8,274 C310.2,274 331,237.9 314.3,209 L210,28.1 C193.3,-0.8 151.6,-0.8 134.9,28.1 Z" stroke-width="3.9117" fill="#929197"></path>
                                <path d="M134.5,28 L30,209 C13.3,237.9 34.2,274.1 67.6,274.1 L276.6,274.1 C310,274.1 330.9,238 314.2,209 L209.7,28 C192.9,-0.9 151.2,-0.9 134.5,28 Z" stroke-width="3.9135" fill="#939298"></path>
                                <path d="M134.1,27.9 L29.5,209.1 C12.8,238 33.7,274.2 67.1,274.2 L276.3,274.2 C309.7,274.2 330.6,238 313.9,209.1 L209.3,27.9 C192.6,-1 150.8,-1 134.1,27.9 Z" stroke-width="3.9152" fill="#95949A"></path>
                                <path d="M133.7,27.8 L29,209.1 C12.3,238.1 33.2,274.3 66.6,274.3 L276,274.3 C309.4,274.3 330.4,238.1 313.6,209.1 L209,27.8 C192.3,-1.2 150.5,-1.2 133.7,27.8 Z" stroke-width="3.9169" fill="#97969B"></path>
                                <path d="M133.4,27.7 L28.6,209.2 C11.9,238.2 32.8,274.4 66.3,274.4 L275.9,274.4 C309.4,274.4 330.3,238.2 313.6,209.2 L208.8,27.7 C191.9,-1.3 150.1,-1.3 133.4,27.7 Z" stroke-width="3.9187" fill="#98979D"></path>
                                <path d="M133,27.6 L28.1,209.2 C11.3,238.2 32.3,274.5 65.8,274.5 L275.5,274.5 C309,274.5 329.9,238.2 313.2,209.2 L208.3,27.6 C191.6,-1.4 149.7,-1.4 133,27.6 Z" stroke-width="3.9204" fill="#9A999E"></path>
                                <path d="M132.6,27.5 L27.6,209.3 C10.8,238.3 31.8,274.6 65.3,274.6 L275.2,274.6 C308.7,274.6 329.7,238.3 312.9,209.3 L207.9,27.5 C191.3,-1.5 149.4,-1.5 132.6,27.5 Z" stroke-width="3.9221" fill="#9C9BA0"></path>
                                <path d="M132.2,27.4 L27.2,209.3 C10.4,238.4 31.4,274.7 65,274.7 L275,274.7 C308.6,274.7 329.5,238.4 312.8,209.3 L207.8,27.4 C191,-1.7 149,-1.7 132.2,27.4 Z" stroke-width="3.9239" fill="#9E9CA2"></path>
                                <path d="M131.8,27.3 L26.7,209.4 C9.9,238.5 30.9,274.9 64.5,274.9 L274.8,274.9 C308.4,274.9 329.4,238.5 312.6,209.4 L207.5,27.3 C190.6,-1.8 148.6,-1.8 131.8,27.3 Z" stroke-width="3.9256" fill="#9F9EA3"></path>
                                <path d="M131.5,27.2 L26.3,209.5 C9.5,238.6 30.5,275 64.1,275 L274.6,275 C308.2,275 329.2,238.6 312.4,209.5 L207.2,27.2 C190.3,-1.9 148.3,-1.9 131.5,27.2 Z" stroke-width="3.9273" fill="#A1A0A5"></path>
                                <path d="M131.1,27.1 L25.8,209.5 C9,238.6 30,275.1 63.7,275.1 L274.3,275.1 C308,275.1 329,238.7 312.2,209.5 L206.9,27.1 C190,-2 147.9,-2 131.1,27.1 Z" stroke-width="3.9291" fill="#A3A2A7"></path>
                                <path d="M130.7,27 L25.3,209.6 C8.5,238.8 29.5,275.2 63.2,275.2 L274,275.2 C307.7,275.2 328.7,238.7 311.9,209.6 L206.5,27 C189.6,-2.2 147.5,-2.2 130.7,27 Z" stroke-width="3.9308" fill="#A5A3A8"></path>
                                <path d="M130.3,26.9 L24.8,209.6 C7.9,238.8 29,275.3 62.7,275.3 L273.7,275.3 C307.4,275.3 328.5,238.8 311.6,209.6 L206.1,26.9 C189.3,-2.3 147.2,-2.3 130.3,26.9 Z" stroke-width="3.9325" fill="#A7A5AA"></path>
                                <path d="M129.9,26.8 L24.3,209.7 C7.4,238.9 28.5,275.4 62.3,275.4 L273.5,275.4 C307.2,275.4 328.3,238.9 311.5,209.7 L205.9,26.8 C189,-2.4 146.8,-2.4 129.9,26.8 Z" stroke-width="3.9342" fill="#A8A7AC"></path>
                                <path d="M129.5,26.7 L23.8,209.7 C6.9,238.9 28,275.5 61.8,275.5 L273.2,275.5 C307,275.5 328.1,238.9 311.2,209.7 L205.5,26.7 C188.6,-2.5 146.4,-2.5 129.5,26.7 Z" stroke-width="3.936" fill="#AAA9AE"></path>
                                <path d="M129.2,26.6 L23.4,209.8 C6.5,239.1 27.6,275.7 61.4,275.7 L272.9,275.7 C306.7,275.7 327.8,239.1 310.9,209.8 L205.1,26.6 C188.3,-2.6 146.1,-2.6 129.2,26.6 Z" stroke-width="3.9377" fill="#ACABAF"></path>
                                <path d="M128.8,26.5 L22.9,209.9 C6,239.2 27.1,275.8 61,275.8 L272.7,275.8 C306.5,275.8 327.7,239.2 310.8,209.9 L204.9,26.5 C188,-2.8 145.7,-2.8 128.8,26.5 Z" stroke-width="3.9394" fill="#AEADB1"></path>
                                <path d="M128.4,26.4 L22.5,209.9 C5.6,239.2 26.7,275.9 60.6,275.9 L272.5,275.9 C306.4,275.9 327.5,239.3 310.6,209.9 L204.7,26.4 C187.6,-2.9 145.3,-2.9 128.4,26.4 Z" stroke-width="3.9412" fill="#B0AEB3"></path>
                                <path d="M128,26.3 L22,210 C5.1,239.3 26.2,276 60.1,276 L272.2,276 C306.1,276 327.3,239.3 310.3,210 L204.3,26.3 C187.3,-3 145,-3 128,26.3 Z" stroke-width="3.9429" fill="#B2B0B5"></path>
                                <path d="M127.6,26.2 L21.5,210 C4.5,239.4 25.7,276.1 59.6,276.1 L271.9,276.1 C305.8,276.1 327,239.4 310,210 L203.9,26.2 C187,-3.1 144.6,-3.1 127.6,26.2 Z" stroke-width="3.9446" fill="#B3B2B6"></path>
                                <path d="M127.2,26.1 L21,210.1 C4,239.5 25.2,276.2 59.2,276.2 L271.6,276.2 C305.5,276.2 326.8,239.5 309.8,210.1 L203.6,26.1 C186.6,-3.3 144.2,-3.3 127.2,26.1 Z" stroke-width="3.9464" fill="#B5B4B8"></path>
                                <path d="M126.9,26 L20.6,210.1 C3.6,239.5 24.8,276.3 58.8,276.3 L271.4,276.3 C305.4,276.3 326.6,239.5 309.6,210.1 L203.3,26 C186.3,-3.4 143.8,-3.4 126.9,26 Z" stroke-width="3.9481" fill="#B7B6BA"></path>
                                <path d="M126.5,25.9 L20.1,210.2 C3.1,239.6 24.3,276.4 58.3,276.4 L271.1,276.4 C305.1,276.4 326.3,239.6 309.3,210.2 L203,25.9 C186,-3.5 143.5,-3.5 126.5,25.9 Z" stroke-width="3.9498" fill="#B9B8BC"></path>
                                <path d="M126.1,25.8 L19.6,210.2 C2.6,239.7 23.9,276.5 57.9,276.5 L270.9,276.5 C304.9,276.5 326.2,239.7 309.2,210.2 L202.7,25.8 C185.6,-3.6 143.1,-3.6 126.1,25.8 Z" stroke-width="3.9515" fill="#BBBABE"></path>
                                <path d="M125.7,25.7 L19.1,210.3 C2.1,239.8 23.4,276.7 57.4,276.7 L270.6,276.7 C304.7,276.7 325.9,239.8 308.9,210.3 L202.3,25.7 C185.3,-3.8 142.7,-3.8 125.7,25.7 Z" stroke-width="3.9533" fill="#BDBCC0"></path>
                                <path d="M125.3,25.6 L18.6,210.4 C1.6,239.9 22.9,276.8 56.9,276.8 L270.2,276.8 C304.3,276.8 325.6,239.9 308.5,210.4 L202,25.6 C185,-3.9 142.4,-3.9 125.3,25.6 Z" stroke-width="3.955" fill="#BFBEC1"></path>
                                <path d="M125,25.5 L18.2,210.4 C1.1,239.9 22.5,276.9 56.6,276.9 L270.1,276.9 C304.2,276.9 325.5,240 308.5,210.4 L201.7,25.5 C184.6,-4 142,-4 125,25.5 Z" stroke-width="3.9567" fill="#C1C0C3"></path>
                                <path d="M124.6,25.4 L17.7,210.5 C0.6,240.1 22,277 56.1,277 L269.8,277 C303.9,277 325.3,240 308.2,210.5 L201.3,25.4 C184.3,-4.1 141.6,-4.1 124.6,25.4 Z" stroke-width="3.9585" fill="#C3C2C5"></path>
                                <path d="M124.2,25.3 L17.3,210.5 C0.2,240.1 21.6,277.1 55.7,277.1 L269.6,277.1 C303.8,277.1 325.1,240.1 308,210.5 L201.1,25.3 C184,-4.3 141.3,-4.3 124.2,25.3 Z" stroke-width="3.9602" fill="#C5C4C7"></path>
                                <path d="M123.8,25.2 L16.8,210.6 C-0.3,240.2 21.1,277.2 55.3,277.2 L269.4,277.2 C303.6,277.2 325,240.2 307.9,210.6 L200.9,25.2 C183.7,-4.4 140.9,-4.4 123.8,25.2 Z" stroke-width="3.9619" fill="#C7C6C9"></path>
                                <path d="M123.4,25.1 L16.3,210.6 C-0.8,240.2 20.6,277.3 54.8,277.3 L269,277.3 C303.2,277.3 324.6,240.2 307.5,210.6 L200.4,25.1 C183.3,-4.5 140.5,-4.5 123.4,25.1 Z" stroke-width="3.9637" fill="#C9C8CB"></path>
                                <path d="M123,25 L15.8,210.7 C-1.3,240.4 20.1,277.4 54.3,277.4 L268.7,277.4 C303,277.4 324.4,240.3 307.2,210.7 L200.1,25 C183,-4.6 140.2,-4.6 123,25 Z" stroke-width="3.9654" fill="#CBCACD"></path>
                                <path d="M122.7,24.9 L15.4,210.8 C-1.7,240.5 19.7,277.6 54,277.6 L268.6,277.6 C302.9,277.6 324.3,240.5 307.2,210.8 L199.9,24.9 C182.7,-4.7 139.8,-4.7 122.7,24.9 Z" stroke-width="3.9671" fill="#CDCCCF"></path>
                                <path d="M122.3,24.8 L14.9,210.8 C-2.3,240.5 19.2,277.7 53.5,277.7 L268.3,277.7 C302.6,277.7 324.1,240.6 306.9,210.8 L199.5,24.8 C182.3,-4.9 139.4,-4.9 122.3,24.8 Z" stroke-width="3.9689" fill="#CFCED1"></path>
                                <path d="M121.9,24.7 L14.4,210.9 C-2.8,240.6 18.7,277.8 53,277.8 L268,277.8 C302.3,277.8 323.8,240.6 306.6,210.9 L199.1,24.7 C182,-5 139.1,-5 121.9,24.7 Z" stroke-width="3.9706" fill="#D2D0D3"></path>
                                <path d="M121.5,24.6 L13.9,211 C-3.3,240.8 18.2,278 52.6,278 L267.7,278 C302.1,278 323.6,240.8 306.4,211 L198.8,24.7 C181.7,-5.1 138.7,-5.1 121.5,24.6 Z" stroke-width="3.9723" fill="#D4D3D5"></path>
                                <path d="M121.1,24.5 L13.5,211 C-3.7,240.8 17.8,278 52.2,278 L267.5,278 C301.9,278 323.4,240.8 306.2,211 L198.5,24.5 C181.3,-5.2 138.3,-5.2 121.1,24.5 Z" stroke-width="3.974" fill="#D6D5D7"></path>
                                <path d="M120.7,24.5 L13,211.1 C-4.2,240.9 17.3,278.2 51.7,278.2 L267.2,278.2 C301.6,278.2 323.1,240.9 305.9,211.1 L198.1,24.5 C181,-5.4 138,-5.4 120.7,24.5 Z" stroke-width="3.9758" fill="#D8D7D9"></path>
                                <path d="M120.4,24.4 L12.6,211.2 C-4.6,241 16.9,278.3 51.4,278.3 L267,278.3 C301.5,278.3 323,241 305.8,211.2 L198,24.4 C180.7,-5.5 137.6,-5.5 120.4,24.4 Z" stroke-width="3.9775" fill="#DAD9DB"></path>
                                <path d="M120,24.3 L12,211.2 C-5.2,241.1 16.3,278.4 50.8,278.4 L266.7,278.4 C301.2,278.4 322.7,241.1 305.5,211.2 L197.6,24.3 C180.3,-5.6 137.2,-5.6 120,24.3 Z" stroke-width="3.9792" fill="#DCDBDD"></path>
                                <path d="M119.6,24.2 L11.6,211.3 C-5.7,241.2 15.9,278.6 50.4,278.6 L266.4,278.6 C300.9,278.6 322.5,241.2 305.2,211.3 L197.2,24.2 C180,-5.7 136.9,-5.7 119.6,24.2 Z" stroke-width="3.981" fill="#DFDEDF"></path>
                                <path d="M119.2,24.1 L11.1,211.4 C-6.2,241.3 15.4,278.7 50,278.7 L266.2,278.7 C300.7,278.7 322.3,241.3 305.1,211.4 L197,24.1 C179.7,-5.9 136.5,-5.9 119.2,24.1 Z" stroke-width="3.9827" fill="#E1E0E1"></path>
                                <path d="M118.8,24 L10.6,211.4 C-6.7,241.3 14.9,278.8 49.5,278.8 L265.9,278.8 C300.5,278.8 322.1,241.4 304.8,211.4 L196.6,24 C179.3,-6 136.1,-6 118.8,24 Z" stroke-width="3.9844" fill="#E3E2E3"></path>
                                <path d="M118.5,23.9 L10.2,211.5 C-7.1,241.5 14.5,278.9 49.1,278.9 L265.7,278.9 C300.3,278.9 321.9,241.4 304.6,211.5 L196.3,23.9 C179,-6.1 135.8,-6.1 118.5,23.9 Z" stroke-width="3.9862" fill="#E6E5E6"></path>
                                <path d="M118.1,23.8 L9.7,211.5 C-7.6,241.5 14,279 48.7,279 L265.5,279 C300.1,279 321.8,241.5 304.5,211.5 L196,23.8 C178.7,-6.2 135.4,-6.2 118.1,23.8 Z" stroke-width="3.9879" fill="#E8E7E8"></path>
                                <path d="M117.7,23.7 L9.2,211.6 C-8.1,241.6 13.5,279.1 48.2,279.1 L265.1,279.1 C299.8,279.1 321.4,241.6 304.1,211.6 L195.6,23.7 C178.3,-6.4 135,-6.4 117.7,23.7 Z" stroke-width="3.9896" fill="#EAEAEA"></path>
                                <path d="M117.3,23.6 L8.7,211.6 C-8.6,241.6 13,279.2 47.7,279.2 L264.8,279.2 C299.5,279.2 321.2,241.6 303.8,211.6 L195.2,23.6 C178,-6.5 134.7,-6.5 117.3,23.6 Z" stroke-width="3.9913" fill="#EDECED"></path>
                                <path d="M116.9,23.5 L8.2,211.7 C-9.2,241.8 12.5,279.3 47.3,279.3 L264.6,279.3 C299.3,279.3 321,241.7 303.7,211.7 L195,23.5 C177.7,-6.6 134.3,-6.6 116.9,23.5 Z" stroke-width="3.9931" fill="#F0EFF0"></path>
                                <path d="M116.5,23.4 L7.8,211.7 C-9.6,241.8 12.1,279.4 46.9,279.4 L264.4,279.4 C299.1,279.4 320.9,241.8 303.5,211.7 L194.8,23.4 C177.3,-6.7 133.9,-6.7 116.5,23.4 Z" stroke-width="3.9948" fill="#F3F2F3"></path>
                                <path d="M116.2,23.3 L7.4,211.8 C-10,241.9 11.7,279.6 46.5,279.6 L264.2,279.6 C299,279.6 320.7,242 303.3,211.8 L194.5,23.3 C177,-6.8 133.5,-6.8 116.2,23.3 Z" stroke-width="3.9965" fill="#F6F6F6"></path>
                                <path d="M115.8,23.2 L6.9,211.9 C-10.5,242 11.3,279.7 46.1,279.7 L263.9,279.7 C298.7,279.7 320.5,242 303.1,211.9 L194.2,23.2 C176.7,-7 133.2,-7 115.8,23.2 Z" stroke-width="3.9983" fill="#FAFAFA"></path>
                                <path d="M115.4,23.1 L6.4,211.9 C-11,242.1 10.8,279.8 45.6,279.8 L263.6,279.8 C298.4,279.8 320.2,242.1 302.8,211.9 L193.8,23.1 C176.4,-7.1 132.8,-7.1 115.4,23.1 Z" stroke-width="4" fill="#FFFFFF"></path>
                            </g>
                            <g transform="translate(168.000000, 0.000000)">
                                <polyline id="Path" stroke="#0F1923" stroke-width="4" points="16.5 55.4 3.2 40 20.7 37.9 8.1 26 8.1 4.3"></polyline>
                                <circle id="Oval" fill="#0F1923" fill-rule="nonzero" cx="7.8" cy="7.3" r="7"></circle>
                            </g>
                        </g>
                        <path d="M115.4,68.1 L6.4,256.9 C-11,287.1 10.8,324.8 45.6,324.8 L263.6,324.8 C298.4,324.8 320.2,287.1 302.8,256.9 L193.8,68.1 C176.4,37.9 132.8,37.9 115.4,68.1 Z" id="Path" stroke="#0F1923" stroke-width="4" fill="#FFFFFF" fill-rule="nonzero"></path>
                        <path d="M154.6,118 L154.6,118 C153.1,118 151.8,116.7 151.8,115.2 L151.8,115.2 C151.8,113.7 153.1,112.4 154.6,112.4 L154.6,112.4 C156.1,112.4 157.4,113.7 157.4,115.2 L157.4,115.2 C157.4,116.7 156.1,118 154.6,118 Z" id="Path" stroke="#0F1923" stroke-width="4" fill="#FFFFFF" fill-rule="nonzero"></path>
                        <path d="M221.3,213.7 L87.8,213.7 C85.5,213.7 83.6,211.8 83.6,209.5 L83.6,209.5 C83.6,207.2 85.5,205.3 87.8,205.3 L221.3,205.3 C223.6,205.3 225.5,207.2 225.5,209.5 L225.5,209.5 C225.5,211.8 223.6,213.7 221.3,213.7 Z" id="Path" fill="#0F1923" fill-rule="nonzero"></path>
                        <g transform="translate(110.000000, 260.000000)">
                            <g transform="translate(24.000000, 25.000000)" id="Path" stroke="#0F1923" stroke-linecap="round" stroke-linejoin="round">
                                <line x1="0.7" y1="4.8" x2="64.9" y2="4.8" stroke-width="3.5818"></line>
                                <path d="M46.4,8.7 L35.1,8.7 C32.9,8.7 31.1,6.9 31.1,4.7 L31.1,4.7 C31.1,2.5 32.9,0.7 35.1,0.7 L46.4,0.7 C48.6,0.7 50.4,2.5 50.4,4.7 L50.4,4.7 C50.4,7 48.6,8.7 46.4,8.7 Z" stroke-width="1.7909" fill="#0F1923" fill-rule="nonzero"></path>
                            </g>
                            <g transform="translate(24.000000, 4.000000)" id="Path" stroke="#0F1923" stroke-linecap="round" stroke-linejoin="round">
                                <line x1="0.7" y1="4.1" x2="64.9" y2="4.1" stroke-width="3.5818"></line>
                                <path d="M28.6,8.1 L17.3,8.1 C15.1,8.1 13.3,6.3 13.3,4.1 L13.3,4.1 C13.3,1.9 15.1,0.1 17.3,0.1 L28.6,0.1 C30.8,0.1 32.6,1.9 32.6,4.1 L32.6,4.1 C32.5,6.3 30.8,8.1 28.6,8.1 Z" stroke-width="1.7909" fill="#0F1923" fill-rule="nonzero"></path>
                            </g>
                            <g fill-rule="nonzero">
                                <path d="M5.7,33.7 L5.7,33.7 C2.7,33.7 0.3,31.3 0.3,28.3 L0.3,9.6 C0.3,6.6 2.7,4.2 5.7,4.2 L5.7,4.2 C8.7,4.2 11.1,6.6 11.1,9.6 L11.1,28.3 C11.1,31.3 8.7,33.7 5.7,33.7 Z" id="Path" stroke="#0F1923" stroke-width="3.2112" fill="#0F1923"></path>
                                <rect id="Rectangle" fill="#FFFFFF" x="1.1" y="0.6" width="2.4" height="34"></rect>
                            </g>
                        </g>
                        <g transform="translate(99.000000, 130.000000)" id="Path">
                            <path d="M89.3,51.5 L14.2,51.5 C6.4,51.5 0.1,45.2 0.1,37.4 L0.1,14.4 C0.1,6.6 6.4,0.3 14.2,0.3 L89.3,0.3 C97.1,0.3 103.4,6.6 103.4,14.4 L103.4,37.4 C103.3,45.2 97,51.5 89.3,51.5 Z" stroke="#0F1923" stroke-width="3"></path>
                            <g transform="translate(7.000000, 0.000000)" fill-rule="nonzero">
                                <path d="M90,51.5 L14.9,51.5 C7.1,51.5 0.8,45.2 0.8,37.4 L0.8,14.4 C0.8,6.6 7.1,0.3 14.9,0.3 L90,0.3 C97.8,0.3 104.1,6.6 104.1,14.4 L104.1,37.4 C104.1,45.2 97.8,51.5 90,51.5 Z" stroke="#0F1923" stroke-width="3" fill="#0F1923"></path>
                                <g transform="translate(23.000000, 15.000000)" fill="#FFFFFF">
                                    <path d="M6.3,21.6 L5.5,21.6 C2.7,21.6 0.5,19.3 0.5,16.6 L0.5,5.3 C0.5,2.5 2.8,0.3 5.5,0.3 L6.3,0.3 C9.1,0.3 11.3,2.6 11.3,5.3 L11.3,16.6 C11.3,19.3 9.1,21.6 6.3,21.6 Z"></path>
                                    <path d="M53.4,21.6 L52.6,21.6 C49.8,21.6 47.6,19.3 47.6,16.6 L47.6,5.3 C47.6,2.5 49.9,0.3 52.6,0.3 L53.4,0.3 C56.2,0.3 58.4,2.6 58.4,5.3 L58.4,16.6 C58.4,19.3 56.1,21.6 53.4,21.6 Z"></path>
                                </g>
                            </g>
                        </g>
                    </g>
                </g>
            </g>
        </g>
    </g>
</svg>