<svg xmlns="http://www.w3.org/2000/svg" xmlns:xlink="http://www.w3.org/1999/xlink" width="451" height="356.5" viewBox="0 0 451 356.5">
  <defs>
    <clipPath id="clip-path">
      <path id="Path_373" data-name="Path 373" d="M2122.3,447.9l-19.6-16.5a14.574,14.574,0,0,1-7.3-11.1l-10.7-89.4a15.448,15.448,0,0,0-8.1-11.8l-15.5-8.1a8.993,8.993,0,0,1-4.8-7.7c-.5-25.3-14.9-133-69.1-133h-7.7a6.487,6.487,0,0,1-6.5-6.5v-3a26.908,26.908,0,0,0-26.9-26.9H1869a29.981,29.981,0,0,0-29.9,29.9h0a6.487,6.487,0,0,1-6.5,6.5h-7.7c-54.2,0-68.6,107.7-69.1,133a8.869,8.869,0,0,1-4.8,7.7l-15.5,8.1a15.125,15.125,0,0,0-8.1,11.8l-10.7,89.4a14.924,14.924,0,0,1-7.3,11.1l-19.6,16.5a14.492,14.492,0,0,0-7.2,12.4v3a4.225,4.225,0,0,0,4.2,4.2h67.4a14.094,14.094,0,0,0,10.9-5.2c12.3-15.1,54.6-58,141-58s128.8,42.9,141,58a13.944,13.944,0,0,0,10.9,5.2h67.4a4.225,4.225,0,0,0,4.2-4.2v-3A14.9,14.9,0,0,0,2122.3,447.9Z"/>
    </clipPath>
    <clipPath id="clip-path-3">
      <path id="Path_384" data-name="Path 384" d="M2122.3,447.9l-19.6-16.5a14.574,14.574,0,0,1-7.3-11.1l-10.7-89.4a15.448,15.448,0,0,0-8.1-11.8l-15.5-8.1a8.993,8.993,0,0,1-4.8-7.7c-.5-23.6-14.3-119.3-59.1-131.6a35.573,35.573,0,0,0-10-1.3h-7.7a6.487,6.487,0,0,1-6.5-6.5v-3a26.908,26.908,0,0,0-26.9-26.9H1869a29.981,29.981,0,0,0-29.9,29.9h0a6.487,6.487,0,0,1-6.5,6.5h-7.7c-54.2,0-68.6,107.7-69.1,133a8.869,8.869,0,0,1-4.8,7.7l-15.5,8.1a15.125,15.125,0,0,0-8.1,11.8l-10.7,89.4a14.924,14.924,0,0,1-7.3,11.1L1689.8,448a14.492,14.492,0,0,0-7.2,12.4v3a4.225,4.225,0,0,0,4.2,4.2h67.4a14.094,14.094,0,0,0,10.9-5.2c12.3-15.1,54.6-58,141-58s128.8,42.9,141,58a13.944,13.944,0,0,0,10.9,5.2h67.4a4.225,4.225,0,0,0,4.2-4.2v-3A14.935,14.935,0,0,0,2122.3,447.9Z"/>
    </clipPath>
  </defs>
  <g id="Group_210" data-name="Group 210" transform="translate(-1680.6 -113)">
    <circle id="Ellipse_102" data-name="Ellipse 102" cx="21" cy="21" r="21" transform="translate(1884.9 115)" fill="#0f1923" stroke="#0f1923" stroke-width="4"/>
    <path id="Path_362" data-name="Path 362" d="M2122.3,447.9l-19.6-16.5a14.574,14.574,0,0,1-7.3-11.1l-10.7-89.4a15.448,15.448,0,0,0-8.1-11.8l-15.5-8.1a8.993,8.993,0,0,1-4.8-7.7c-.5-25.3-14.9-133-69.1-133h-7.7a6.487,6.487,0,0,1-6.5-6.5v-3a26.908,26.908,0,0,0-26.9-26.9H1869a29.981,29.981,0,0,0-29.9,29.9h0a6.487,6.487,0,0,1-6.5,6.5h-7.7c-54.2,0-68.6,107.7-69.1,133a8.869,8.869,0,0,1-4.8,7.7l-15.5,8.1a15.125,15.125,0,0,0-8.1,11.8l-10.7,89.4a14.924,14.924,0,0,1-7.3,11.1l-19.6,16.5a14.492,14.492,0,0,0-7.2,12.4v3a4.225,4.225,0,0,0,4.2,4.2h67.4a14.094,14.094,0,0,0,10.9-5.2c12.3-15.1,54.6-58,141-58s128.8,42.9,141,58a13.944,13.944,0,0,0,10.9,5.2h67.4a4.225,4.225,0,0,0,4.2-4.2v-3A14.9,14.9,0,0,0,2122.3,447.9Z" fill="#fff" stroke="#0f1923" stroke-width="4" fill-rule="evenodd"/>
    <g id="Group_161" data-name="Group 161">
      <path id="Path_363" data-name="Path 363" d="M2075,392h0a2.277,2.277,0,0,1-2.6-2l-2.5-19.9a2.277,2.277,0,0,1,2-2.6h0a2.277,2.277,0,0,1,2.6,2l2.5,19.9A2.228,2.228,0,0,1,2075,392Z" fill="#0f1923"/>
      <path id="Path_364" data-name="Path 364" d="M2076.4,405.2h0a2.154,2.154,0,0,1-2.4-1.9l-.8-6.2a2.154,2.154,0,0,1,1.9-2.4h0a2.154,2.154,0,0,1,2.4,1.9l.8,6.2A2.194,2.194,0,0,1,2076.4,405.2Z" fill="#0f1923"/>
      <path id="Path_365" data-name="Path 365" d="M2070.4,405.9h0a2.154,2.154,0,0,1-2.4-1.9l-.8-6.2a2.154,2.154,0,0,1,1.9-2.4h0a2.154,2.154,0,0,1,2.4,1.9l.8,6.2A2.227,2.227,0,0,1,2070.4,405.9Z" fill="#0f1923"/>
    </g>
    <path id="Path_366" data-name="Path 366" d="M1786.3,433.5l-9.4,8.6a1.116,1.116,0,0,1-1.6-.1h0a1.116,1.116,0,0,1,.1-1.6l9.4-8.6a1.116,1.116,0,0,1,1.6.1h0A1.222,1.222,0,0,1,1786.3,433.5Z" fill="#0f1923"/>
    <g id="Group_162" data-name="Group 162">
      <path id="Path_367" data-name="Path 367" d="M1740.8,397.2l-.3,2.8a1.553,1.553,0,0,1-1.7,1.3h0a1.553,1.553,0,0,1-1.3-1.7l.3-2.8a1.553,1.553,0,0,1,1.7-1.3h0A1.5,1.5,0,0,1,1740.8,397.2Z" fill="#0f1923"/>
      <path id="Path_368" data-name="Path 368" d="M1741.5,391.2l-.2,1.4a1.244,1.244,0,0,1-1.4,1.1l-.5-.1a1.244,1.244,0,0,1-1.1-1.4l.2-1.4a1.244,1.244,0,0,1,1.4-1.1l.5.1A1.39,1.39,0,0,1,1741.5,391.2Z" fill="#0f1923"/>
      <path id="Path_369" data-name="Path 369" d="M1736.3,386.3l-1.9,15.7a1.594,1.594,0,0,1-1.8,1.4h0a1.594,1.594,0,0,1-1.4-1.8l1.9-15.7a1.594,1.594,0,0,1,1.8-1.4h0A1.594,1.594,0,0,1,1736.3,386.3Z" fill="#0f1923"/>
    </g>
    <g id="Group_165" data-name="Group 165">
      <g id="Group_163" data-name="Group 163" clip-path="url(#clip-path)">
        <path id="Path_370" data-name="Path 370" d="M1827,199.9h0a4.012,4.012,0,0,0,4-4V158.1a4.012,4.012,0,0,0-4-4h0a4.012,4.012,0,0,0-4,4V196A3.992,3.992,0,0,0,1827,199.9Z" fill="#0f1923" stroke="#0f1923" stroke-linecap="round" stroke-linejoin="round" stroke-width="3"/>
        <path id="Path_371" data-name="Path 371" d="M1810.7,216.7h0a4.012,4.012,0,0,0,4-4V169a4.012,4.012,0,0,0-4-4h0a4.012,4.012,0,0,0-4,4v43.7A4.012,4.012,0,0,0,1810.7,216.7Z" fill="#0f1923" stroke="#0f1923" stroke-linecap="round" stroke-linejoin="round" stroke-width="3"/>
        <path id="Path_372" data-name="Path 372" d="M1794.4,207.9h0a4.012,4.012,0,0,0,4-4V176.3a4.012,4.012,0,0,0-4-4h0a4.012,4.012,0,0,0-4,4v27.6A4.012,4.012,0,0,0,1794.4,207.9Z" fill="#0f1923" stroke="#0f1923" stroke-linecap="round" stroke-linejoin="round" stroke-width="3"/>
      </g>
      <g id="Group_164" data-name="Group 164" clip-path="url(#clip-path)">
        <path id="Path_374" data-name="Path 374" d="M1984.9,199.9h0a4.012,4.012,0,0,1-4-4V158.1a4.012,4.012,0,0,1,4-4h0a4.012,4.012,0,0,1,4,4V196A4.131,4.131,0,0,1,1984.9,199.9Z" fill="#0f1923" stroke="#0f1923" stroke-linecap="round" stroke-linejoin="round" stroke-width="3"/>
        <path id="Path_375" data-name="Path 375" d="M2001.2,216.7h0a4.012,4.012,0,0,1-4-4V169a4.012,4.012,0,0,1,4-4h0a4.012,4.012,0,0,1,4,4v43.7A4.078,4.078,0,0,1,2001.2,216.7Z" fill="#0f1923" stroke="#0f1923" stroke-linecap="round" stroke-linejoin="round" stroke-width="3"/>
        <path id="Path_376" data-name="Path 376" d="M2017.5,207.9h0a4.012,4.012,0,0,1-4-4V176.3a4.012,4.012,0,0,1,4-4h0a4.012,4.012,0,0,1,4,4v27.6A4.078,4.078,0,0,1,2017.5,207.9Z" fill="#0f1923" stroke="#0f1923" stroke-linecap="round" stroke-linejoin="round" stroke-width="3"/>
      </g>
    </g>
    <g id="Group_169" data-name="Group 169">
      <path id="Path_378" data-name="Path 378" d="M1939.1,400.2h-66.3a22.32,22.32,0,0,1-22.3-22.3v11.9a34.185,34.185,0,0,0,34.2,34.2h42.4a34.185,34.185,0,0,0,34.2-34.2V377.9A22.108,22.108,0,0,1,1939.1,400.2Z" fill="#0f1923" stroke="#0f1923" stroke-width="3.416"/>
      <g id="Group_168" data-name="Group 168">
        <g id="Group_167" data-name="Group 167" clip-path="url(#clip-path-3)">
          <path id="Path_379" data-name="Path 379" d="M1939.1,303.5h-66.3a22.32,22.32,0,0,1-22.3-22.3v11.9a34.185,34.185,0,0,0,34.2,34.2h42.4a34.185,34.185,0,0,0,34.2-34.2V281.2A22.171,22.171,0,0,1,1939.1,303.5Z" fill="#0f1923" stroke="#0f1923" stroke-width="3.416"/>
          <path id="Path_380" data-name="Path 380" d="M1939.1,335.8h-66.3a22.32,22.32,0,0,1-22.3-22.3v11.9a34.185,34.185,0,0,0,34.2,34.2h42.4a34.185,34.185,0,0,0,34.2-34.2V313.5A22.171,22.171,0,0,1,1939.1,335.8Z" fill="#0f1923" stroke="#0f1923" stroke-width="3.416"/>
          <path id="Path_381" data-name="Path 381" d="M1939.1,368h-66.3a22.32,22.32,0,0,1-22.3-22.3v11.9a34.185,34.185,0,0,0,34.2,34.2h42.4a34.185,34.185,0,0,0,34.2-34.2V345.7A22.171,22.171,0,0,1,1939.1,368Z" fill="#0f1923" stroke="#0f1923" stroke-width="3.416"/>
          <path id="Path_382" data-name="Path 382" d="M1939.1,432.5h-66.3a22.32,22.32,0,0,1-22.3-22.3v11.9a34.185,34.185,0,0,0,34.2,34.2h42.4a34.185,34.185,0,0,0,34.2-34.2V410.2A22.171,22.171,0,0,1,1939.1,432.5Z" fill="#0f1923" stroke="#0f1923" stroke-width="3.416"/>
          <g id="Group_166" data-name="Group 166">
            <path id="Path_383" data-name="Path 383" d="M1939.1,271.3h-66.3a22.32,22.32,0,0,1-22.3-22.3v11.9a34.185,34.185,0,0,0,34.2,34.2h42.4a34.185,34.185,0,0,0,34.2-34.2V249A22.171,22.171,0,0,1,1939.1,271.3Z" fill="#0f1923" stroke="#0f1923" stroke-width="3.416"/>
          </g>
        </g>
      </g>
    </g>
    <path id="Path_385" data-name="Path 385" d="M1837.6,292.4s-5.9,23.7-34.6,52.4" fill="none" stroke="#0f1923" stroke-linecap="round" stroke-linejoin="round" stroke-width="4"/>
    <path id="Path_386" data-name="Path 386" d="M1974.2,292.4s5.9,23.7,34.6,52.4" fill="none" stroke="#0f1923" stroke-linecap="round" stroke-linejoin="round" stroke-width="4"/>
    <g id="Group_184" data-name="Group 184">
      <g id="Group_183" data-name="Group 183">
        <g id="Group_182" data-name="Group 182">
          <g id="Group_173" data-name="Group 173">
            <g id="Group_172" data-name="Group 172">
              <g id="Group_170" data-name="Group 170">
                <path id="Path_387" data-name="Path 387" d="M1830.5,307.7c1.9-3.4,3.8-6.9,5.5-10.6.4-.9.8-1.9,1.2-2.8s.8-1.9,1.2-2.9.8-2,1.1-3l.5-1.6.3-.9.1-.5.2-.7-29.1-7.3v.1l-.1.3-.3.9c-.2.6-.4,1.2-.7,1.9s-.5,1.3-.8,2-.6,1.3-.9,2c-1.2,2.7-2.7,5.4-4.2,8.1Z" fill="none"/>
              </g>
              <g id="Group_171" data-name="Group 171">
                <path id="Path_388" data-name="Path 388" d="M1818.9,280.6a56.192,56.192,0,0,1-3,7.3c-.6,1.2-1.1,2.5-1.8,3.7-.6,1.2-1.3,2.4-1.9,3.6l4.4,2.4a93.873,93.873,0,0,0,7.1-15.5Z" fill="#231f20" fill-rule="evenodd"/>
                <path id="Path_389" data-name="Path 389" d="M1820.1,299.6l4.4,2.4c.8-1.3,1.5-2.7,2.2-4.1s1.4-2.8,2-4.2a76.782,76.782,0,0,0,3.5-8.8l-4.8-1.6A85.345,85.345,0,0,1,1820.1,299.6Z" fill="#231f20" fill-rule="evenodd"/>
              </g>
            </g>
          </g>
          <g id="Group_177" data-name="Group 177">
            <g id="Group_176" data-name="Group 176">
              <g id="Group_174" data-name="Group 174">
                <path id="Path_390" data-name="Path 390" d="M1817.4,326.9a162.861,162.861,0,0,0,13.2-19.2l-26-15a134.807,134.807,0,0,1-10.7,15.6Z" fill="none"/>
              </g>
              <g id="Group_175" data-name="Group 175">
                <path id="Path_391" data-name="Path 391" d="M1810.5,298.2a123.336,123.336,0,0,1-9.4,13.7l4,3.1a136.827,136.827,0,0,0,9.7-14.2Z" fill="#231f20" fill-rule="evenodd"/>
                <path id="Path_392" data-name="Path 392" d="M1808.2,317.4l4,3.1a143.416,143.416,0,0,0,10.3-15.1l-4.3-2.6A139.854,139.854,0,0,1,1808.2,317.4Z" fill="#231f20" fill-rule="evenodd"/>
              </g>
            </g>
          </g>
          <g id="Group_181" data-name="Group 181">
            <g id="Group_180" data-name="Group 180">
              <g id="Group_178" data-name="Group 178">
                <path id="Path_393" data-name="Path 393" d="M1802.2,343.9a225.7,225.7,0,0,0,15.3-17L1794,308.3c-4,5-8.4,9.8-12.9,14.4Z" fill="none"/>
              </g>
              <g id="Group_179" data-name="Group 179">
                <path id="Path_394" data-name="Path 394" d="M1798.9,314.6l-2.7,3.2c-.9,1.1-1.9,2.1-2.8,3.1-1.8,2.1-3.8,4.1-5.7,6.1l3.6,3.5c2-2.1,4-4.1,5.9-6.3.9-1.1,1.9-2.1,2.9-3.2l2.7-3.3Z" fill="#231f20" fill-rule="evenodd"/>
                <path id="Path_395" data-name="Path 395" d="M1794.2,333.4l3.6,3.5c2.1-2.2,4.2-4.3,6.2-6.6,1-1.1,2-2.2,3-3.4l2.9-3.5-3.9-3.1-2.8,3.4c-.9,1.1-1.9,2.2-2.9,3.3C1798.3,329.2,1796.2,331.3,1794.2,333.4Z" fill="#231f20" fill-rule="evenodd"/>
              </g>
            </g>
          </g>
        </g>
      </g>
    </g>
    <g id="Group_199" data-name="Group 199">
      <g id="Group_198" data-name="Group 198">
        <g id="Group_197" data-name="Group 197">
          <g id="Group_188" data-name="Group 188">
            <g id="Group_187" data-name="Group 187">
              <g id="Group_185" data-name="Group 185">
                <path id="Path_396" data-name="Path 396" d="M2007.3,292.7c-1.5-2.7-3-5.4-4.2-8.1-.3-.7-.6-1.4-.9-2a16.677,16.677,0,0,1-.8-2c-.3-.7-.5-1.3-.7-1.9l-.3-.9c-.1-.2-.1-.2-.1-.3v-.1l-29.1,7.3.2.7.1.5.3.9.5,1.6c.4,1,.7,2.1,1.1,3,.4,1,.8,2,1.2,2.9s.8,1.9,1.2,2.8c1.7,3.7,3.6,7.2,5.5,10.6Z" fill="none"/>
              </g>
              <g id="Group_186" data-name="Group 186">
                <path id="Path_397" data-name="Path 397" d="M1979.5,285a86.566,86.566,0,0,0,3.5,8.9c.7,1.4,1.3,2.8,2,4.2s1.4,2.7,2.2,4.1l4.4-2.4a94.839,94.839,0,0,1-7.4-16.2Z" fill="#231f20" fill-rule="evenodd"/>
                <path id="Path_398" data-name="Path 398" d="M1995.1,297.7l4.4-2.4c-.7-1.2-1.3-2.4-1.9-3.6s-1.2-2.4-1.8-3.7c-1.1-2.4-2.2-5-3-7.3l-4.8,1.6A96.841,96.841,0,0,0,1995.1,297.7Z" fill="#231f20" fill-rule="evenodd"/>
              </g>
            </g>
          </g>
          <g id="Group_192" data-name="Group 192">
            <g id="Group_191" data-name="Group 191">
              <g id="Group_189" data-name="Group 189">
                <path id="Path_399" data-name="Path 399" d="M2018,308.3a135.911,135.911,0,0,1-10.7-15.7l-26,15a151.014,151.014,0,0,0,13.1,19.2Z" fill="none"/>
              </g>
              <g id="Group_190" data-name="Group 190">
                <path id="Path_400" data-name="Path 400" d="M1989.2,305.4a160.391,160.391,0,0,0,10.3,15.1l4-3.1a150.31,150.31,0,0,1-10-14.6Z" fill="#231f20" fill-rule="evenodd"/>
                <path id="Path_401" data-name="Path 401" d="M2006.7,315l4-3.1a138.606,138.606,0,0,1-9.4-13.7l-4.3,2.6A122.833,122.833,0,0,0,2006.7,315Z" fill="#231f20" fill-rule="evenodd"/>
              </g>
            </g>
          </g>
          <g id="Group_196" data-name="Group 196">
            <g id="Group_195" data-name="Group 195">
              <g id="Group_193" data-name="Group 193">
                <path id="Path_402" data-name="Path 402" d="M2030.9,322.8a159.873,159.873,0,0,1-12.8-14.5l-23.5,18.6a226.087,226.087,0,0,0,15.2,17.1Z" fill="none"/>
              </g>
              <g id="Group_194" data-name="Group 194">
                <path id="Path_403" data-name="Path 403" d="M2001.9,323.5l2.9,3.5c1,1.2,2,2.3,3,3.4,2,2.3,4.1,4.4,6.2,6.6l3.6-3.5c-2-2.1-4.1-4.2-6-6.4-1-1.1-2-2.2-2.9-3.3l-2.8-3.4Z" fill="#231f20" fill-rule="evenodd"/>
                <path id="Path_404" data-name="Path 404" d="M2020.4,330.7l3.6-3.5c-1.9-2-3.9-4-5.7-6.1-.9-1.1-1.9-2.1-2.8-3.1l-2.7-3.2-3.9,3.1,2.7,3.3c.9,1.1,1.9,2.2,2.9,3.2C2016.4,326.6,2018.4,328.6,2020.4,330.7Z" fill="#231f20" fill-rule="evenodd"/>
              </g>
            </g>
          </g>
        </g>
      </g>
    </g>
    <path id="Path_405" data-name="Path 405" d="M1826.8,403.9l-2.6,1.2c-4.6,2.1-7.9.6-7.4-3.4l2.4-20.2c.5-4,4.6-9.1,9.1-11.2l2.6-1.2c4.6-2.1,7.9-.6,7.4,3.4l-2.4,20.2C1835.5,396.7,1831.4,401.7,1826.8,403.9Z" fill="#0f1923" stroke="#0f1923" stroke-linecap="round" stroke-linejoin="round" stroke-width="3"/>
    <path id="Path_406" data-name="Path 406" d="M1985.1,403.9l2.6,1.2c4.6,2.1,7.9.6,7.4-3.4l-2.4-20.2c-.5-4-4.6-9.1-9.1-11.2l-2.6-1.2c-4.6-2.1-7.9-.6-7.4,3.4l2.4,20.2C1976.4,396.7,1980.5,401.7,1985.1,403.9Z" fill="#0f1923" stroke="#0f1923" stroke-linecap="round" stroke-linejoin="round" stroke-width="3"/>
    <g id="Group_201" data-name="Group 201">
      <path id="Path_407" data-name="Path 407" d="M1949.1,196.8h-86.4a12.5,12.5,0,0,1-12.5-12.5v-6.6a31.966,31.966,0,0,1,32-32h47.3a31.966,31.966,0,0,1,32,32v6.6A12.356,12.356,0,0,1,1949.1,196.8Z" fill="#0f1923" stroke="#0f1923" stroke-width="3" fill-rule="evenodd"/>
      <path id="Path_408" data-name="Path 408" d="M1955.1,196.8h-86.4a12.5,12.5,0,0,1-12.5-12.5v-6.6a31.966,31.966,0,0,1,32-32h47.3a31.966,31.966,0,0,1,32,32v6.6A12.356,12.356,0,0,1,1955.1,196.8Z" fill="none" stroke="#0f1923" stroke-width="3" fill-rule="evenodd"/>
      <path id="Path_409" data-name="Path 409" d="M1943.2,196.8h-86.4a12.5,12.5,0,0,1-12.5-12.5v-6.6a31.966,31.966,0,0,1,32-32h47.3a31.966,31.966,0,0,1,32,32v6.6A12.42,12.42,0,0,1,1943.2,196.8Z" fill="none" stroke="#0f1923" stroke-width="3" fill-rule="evenodd"/>
      <g id="Group_200" data-name="Group 200">
        <circle id="Ellipse_103" data-name="Ellipse 103" cx="9.4" cy="9.4" r="9.4" transform="translate(1917 161.9)" fill="#fff"/>
        <circle id="Ellipse_104" data-name="Ellipse 104" cx="9.4" cy="9.4" r="9.4" transform="translate(1876.1 161.9)" fill="#fff"/>
      </g>
    </g>
    <g id="Group_202" data-name="Group 202">
      <path id="Path_410" data-name="Path 410" d="M1740.7,379.4l-2.6-.3c-4.6-.6-7.9-4.1-7.4-7.8l2.3-18.8c.5-3.8,4.5-6.3,9.1-5.8l2.6.3c4.6.6,7.9,4.1,7.4,7.8l-2.3,18.8C1749.3,377.4,1745.2,380,1740.7,379.4Z" fill="#0f1923" stroke="#0f1923" stroke-linecap="round" stroke-linejoin="round" stroke-width="3"/>
      <path id="Path_411" data-name="Path 411" d="M1741.6,368.5l-.2,1.4a1.244,1.244,0,0,1-1.4,1.1l-.5-.1a1.244,1.244,0,0,1-1.1-1.4l.2-1.4a1.244,1.244,0,0,1,1.4-1.1l.5.1A1.3,1.3,0,0,1,1741.6,368.5Z" fill="#fff"/>
    </g>
    <g id="Group_203" data-name="Group 203">
      <path id="Path_412" data-name="Path 412" d="M1878,215.4h55.9a3.543,3.543,0,0,0,3.5-3.5h0a3.543,3.543,0,0,0-3.5-3.5H1878a3.543,3.543,0,0,0-3.5,3.5h0A3.417,3.417,0,0,0,1878,215.4Z" fill="#0f1923"/>
    </g>
    <g id="Group_204" data-name="Group 204">
      <path id="Path_413" data-name="Path 413" d="M1899.6,224.4h12.6a1.367,1.367,0,0,0,1.4-1.4h0a1.367,1.367,0,0,0-1.4-1.4h-12.6a1.367,1.367,0,0,0-1.4,1.4h0A1.506,1.506,0,0,0,1899.6,224.4Z" fill="#0f1923"/>
      <path id="Path_414" data-name="Path 414" d="M1899.4,228.5h4.2a1.216,1.216,0,0,0,1.2-1.2h0a1.216,1.216,0,0,0-1.2-1.2h-4.2a1.216,1.216,0,0,0-1.2,1.2h0A1.216,1.216,0,0,0,1899.4,228.5Z" fill="#0f1923"/>
      <path id="Path_415" data-name="Path 415" d="M1907.5,228.6h5a1.11,1.11,0,0,0,1.1-1.1v-.2a1.11,1.11,0,0,0-1.1-1.1h-5a1.11,1.11,0,0,0-1.1,1.1v.2A1.11,1.11,0,0,0,1907.5,228.6Z" fill="#0f1923"/>
    </g>
    <g id="Group_205" data-name="Group 205">
      <path id="Path_416" data-name="Path 416" d="M2033.7,279.2l6.9-1.7a6.036,6.036,0,0,0,4-6.7l-2.2-16c-.4-3-2.9-5-5.6-4.3l-6.9,1.7a6.036,6.036,0,0,0-4,6.7l2.2,16C2028.6,277.9,2031.1,279.9,2033.7,279.2Z" fill="#0f1923" stroke="#0f1923" stroke-linecap="round" stroke-linejoin="round" stroke-width="3"/>
      <circle id="Ellipse_105" data-name="Ellipse 105" cx="1.9" cy="1.9" r="1.9" transform="translate(2032.4 270.6)" fill="#fff" stroke="#fff" stroke-miterlimit="10" stroke-width="1"/>
      <path id="Path_417" data-name="Path 417" d="M2036.6,251.3s4,12.5,4,25" fill="none" stroke="#fff" stroke-linecap="round" stroke-linejoin="round" stroke-miterlimit="10" stroke-width="1"/>
    </g>
    <g id="Group_207" data-name="Group 207">
      <g id="Group_206" data-name="Group 206">
        <path id="Path_418" data-name="Path 418" d="M1999.7,175.2l3.9-8.9-9.8-8.4,10-7.5-1.5-10.7" fill="none" stroke="#0f1923" stroke-miterlimit="10" stroke-width="3"/>
        <circle id="Ellipse_106" data-name="Ellipse 106" cx="5.5" cy="5.5" r="5.5" transform="translate(1997 132.9)" fill="#0f1923"/>
      </g>
      <path id="Path_419" data-name="Path 419" d="M2003.6,173.4l-5.6-2.3a2.317,2.317,0,0,1-1.3-3h0a2.317,2.317,0,0,1,3-1.3l5.6,2.3a2.317,2.317,0,0,1,1.3,3h0A2.249,2.249,0,0,1,2003.6,173.4Z" fill="#0f1923" fill-rule="evenodd"/>
    </g>
    <path id="Path_420" data-name="Path 420" d="M1896,168.7l-19.2-4.4a3.477,3.477,0,0,1-2.6-4.2l.4-1.5a3.477,3.477,0,0,1,4.2-2.6l19.2,4.4a3.477,3.477,0,0,1,2.6,4.2l-.4,1.5A3.555,3.555,0,0,1,1896,168.7Z" fill="#0f1923"/>
    <g id="Group_208" data-name="Group 208">
      <path id="Path_421" data-name="Path 421" d="M2054.5,460.1h-.2v-9.7h4.1a1.755,1.755,0,0,1,1.5.6,2.456,2.456,0,0,1,.5,1.5v1.2a5.218,5.218,0,0,1-.2,1.4c-.1.4-.4.6-.9.7h.2a2.349,2.349,0,0,1,1.6.5,1.625,1.625,0,0,1,.5,1.4v2.4h-.2v-2.4a1.727,1.727,0,0,0-.5-1.3,2.076,2.076,0,0,0-1.5-.4h-5.1v4.1Zm4-9.5h-3.9v5.2h3.9a2.07,2.07,0,0,0,1.5-.5,2.235,2.235,0,0,0,.4-1.5v-1.3a1.727,1.727,0,0,0-.5-1.3A1.445,1.445,0,0,0,2058.5,450.6Z" fill="#fff" stroke="#fff" stroke-width="2"/>
      <path id="Path_422" data-name="Path 422" d="M2072.8,460.1V457h-7v3.1h-.2v-3.8a2.766,2.766,0,0,1,.1-.9c.1-.3.1-.6.2-.8l1.2-3a2.179,2.179,0,0,1,.5-.8,1.222,1.222,0,0,1,.9-.3h1.8c.4,0,.7.1.8.3a3.6,3.6,0,0,1,.5.9l1.2,2.9a2.351,2.351,0,0,1,.2.8c0,.3.1.6.1.9v3.8Zm-7-3.8v.6h7v-.6a2.766,2.766,0,0,0-.1-.9c-.1-.3-.1-.5-.2-.8l-1.2-2.9a5.967,5.967,0,0,0-.4-.8.778.778,0,0,0-.7-.3h-1.8a.985.985,0,0,0-.8.3,5.911,5.911,0,0,0-.4.8l-1.2,3a1.883,1.883,0,0,0-.2.8C2065.8,455.6,2065.8,455.9,2065.8,456.3Z" fill="#fff" stroke="#fff" stroke-width="2"/>
      <path id="Path_423" data-name="Path 423" d="M2082.4,460.1h-5.7v-.2h2.8v-9.4h-2.8v-.2h5.7v.2h-2.8v9.4h2.8Z" fill="#fff" stroke="#fff" stroke-width="2"/>
      <path id="Path_424" data-name="Path 424" d="M2086.4,460.1v-9.7h4.4a6.051,6.051,0,0,1,1.5.2,1.933,1.933,0,0,1,.9.5,2.009,2.009,0,0,1,.4.8,3.08,3.08,0,0,1,.1,1v4.8a3.4,3.4,0,0,1-.1,1,2.012,2.012,0,0,1-.4.8,1.934,1.934,0,0,1-.9.5,6.051,6.051,0,0,1-1.5.2h-4.4Zm4.3-9.5h-4.2V460h4.2a5.21,5.21,0,0,0,1.4-.2,1.578,1.578,0,0,0,.8-.5,1.611,1.611,0,0,0,.4-.7,2.766,2.766,0,0,0,.1-.9v-4.8a2.766,2.766,0,0,0-.1-.9,1.613,1.613,0,0,0-.4-.7,2.177,2.177,0,0,0-.8-.5A2.965,2.965,0,0,0,2090.7,450.6Z" fill="#fff" stroke="#fff" stroke-width="2"/>
      <path id="Path_425" data-name="Path 425" d="M2104.1,459.9v.2H2098v-9.7h6.1v.2h-5.9v4.5h4.4v.2h-4.4V460h5.9Z" fill="#fff" stroke="#fff" stroke-width="2"/>
      <path id="Path_426" data-name="Path 426" d="M2108.4,450.5l6.6,7.5v-7.6h.2v9.7h-.2v-1.9l-6.8-7.6h0v9.5h-.2v-9.5c0-.1,0-.1.1-.2l.1-.1h.1C2108.3,450.4,2108.3,450.5,2108.4,450.5Z" fill="#fff" stroke="#fff" stroke-width="2"/>
    </g>
    <g id="Group_209" data-name="Group 209">
      <path id="Path_427" data-name="Path 427" d="M1874,262.5h-.2V252.2h4.3a1.911,1.911,0,0,1,2.1,2.1v1.3a4.637,4.637,0,0,1-.2,1.4,1.764,1.764,0,0,1-.9.8h.2a2.648,2.648,0,0,1,1.7.5,1.886,1.886,0,0,1,.6,1.5v2.5h-.2V260a1.978,1.978,0,0,0-.5-1.4,2.348,2.348,0,0,0-1.6-.5h-5.4v4.4Zm4.1-10H1874V258h4.1a1.84,1.84,0,0,0,1.6-.6,2.537,2.537,0,0,0,.4-1.6v-1.3a1.978,1.978,0,0,0-.5-1.4A1.755,1.755,0,0,0,1878.1,252.5Z" fill="#fff" stroke="#fff" stroke-width="2"/>
      <path id="Path_428" data-name="Path 428" d="M1893.3,262.5v-3.3h-7.4v3.3h-.2v-4a3.084,3.084,0,0,1,.1-1c.1-.3.1-.6.2-.9l1.2-3.1a1.934,1.934,0,0,1,.5-.9,1.267,1.267,0,0,1,.9-.4h1.9a.975.975,0,0,1,.9.4,3.6,3.6,0,0,1,.5.9l1.3,3.1a2.92,2.92,0,0,1,.2.9c0,.3.1.6.1,1v4Zm-7.4-4v.6h7.4v-.6a3.4,3.4,0,0,0-.1-1c-.1-.3-.1-.6-.2-.8l-1.3-3.1a5.937,5.937,0,0,0-.4-.8c-.1-.2-.4-.3-.8-.3h-1.9a.984.984,0,0,0-.8.3,2.009,2.009,0,0,0-.4.8l-1.2,3.1a2.354,2.354,0,0,0-.2.8A3.4,3.4,0,0,0,1885.9,258.5Z" fill="#fff" stroke="#fff" stroke-width="2"/>
      <path id="Path_429" data-name="Path 429" d="M1903.4,262.5h-6v-.2h2.9v-9.9h-2.9v-.2h6v.2h-2.9v9.9h2.9Z" fill="#fff" stroke="#fff" stroke-width="2"/>
      <path id="Path_430" data-name="Path 430" d="M1907.6,262.5V252.2h4.6a6.959,6.959,0,0,1,1.6.2,1.456,1.456,0,0,1,.9.6,1.235,1.235,0,0,1,.4.8c0,.3.1.7.1,1v5a3.084,3.084,0,0,1-.1,1,2.009,2.009,0,0,1-.4.8,1.933,1.933,0,0,1-.9.5,6.267,6.267,0,0,1-1.6.2h-4.6Zm4.6-10h-4.4v9.9h4.4a6.052,6.052,0,0,0,1.5-.2,1.934,1.934,0,0,0,.9-.5,2.009,2.009,0,0,0,.4-.8,3.084,3.084,0,0,0,.1-1v-5a3.4,3.4,0,0,0-.1-1,2.009,2.009,0,0,0-.4-.8,1.933,1.933,0,0,0-.9-.5A6.621,6.621,0,0,0,1912.2,252.5Z" fill="#fff" stroke="#fff" stroke-width="2"/>
      <path id="Path_431" data-name="Path 431" d="M1926.3,262.3v.2h-6.4V252.2h6.4v.2h-6.2v4.8h4.7v.2h-4.7v4.9Z" fill="#fff" stroke="#fff" stroke-width="2"/>
      <path id="Path_432" data-name="Path 432" d="M1930.9,252.4l7,7.9v-8h.2v10.3h-.2v-2l-7.2-8.1h0v10h-.2V252.4c0-.1,0-.1.1-.2s.1-.1.2-.1h.1C1930.7,252.3,1930.8,252.4,1930.9,252.4Z" fill="#fff" stroke="#fff" stroke-width="2"/>
    </g>
  </g>
</svg>
