<?xml version="1.0" encoding="UTF-8"?>
<svg width="173px" height="191px" viewBox="0 0 173 191" version="1.1" xmlns="http://www.w3.org/2000/svg" xmlns:xlink="http://www.w3.org/1999/xlink">
    <title>suno</title>
    <g id="A" stroke="none" stroke-width="1" fill="none" fill-rule="evenodd">
        <g id="B" transform="translate(-470.000000, -529.000000)" fill="#0F1923" fill-rule="nonzero">
            <g id="C" transform="translate(470.000000, 529.000000)">
                <path d="M57.76,5.28 L57.76,-2.84217094e-14 L52.8,-2.84217094e-14 L52.8,5.28 L57.76,5.28 Z M62.56,10.56 L62.56,-2.84217094e-14 L57.6,-2.84217094e-14 L57.6,10.56 L62.56,10.56 Z M67.36,5.28 L67.36,-2.84217094e-14 L62.4,-2.84217094e-14 L62.4,5.28 L67.36,5.28 Z M33.76,20.56 L33.76,15.28 L28.8,15.28 L28.8,20.56 L33.76,20.56 Z M38.56,20.56 L38.56,15.28 L33.6,15.28 L33.6,20.56 L38.56,20.56 Z M43.36,20.56 L43.36,10 L38.4,10 L38.4,20.56 L43.36,20.56 Z M48.16,20.56 L48.16,10 L43.2,10 L43.2,20.56 L48.16,20.56 Z M52.96,20.56 L52.96,10 L48,10 L48,20.56 L52.96,20.56 Z M57.76,20.56 L57.76,10 L52.8,10 L52.8,20.56 L57.76,20.56 Z M62.56,20.56 L62.56,10 L57.6,10 L57.6,20.56 L62.56,20.56 Z M67.36,20.56 L67.36,10 L62.4,10 L62.4,20.56 L67.36,20.56 Z M72.16,20.56 L72.16,10 L67.2,10 L67.2,20.56 L72.16,20.56 Z M76.96,20.56 L76.96,10 L72,10 L72,20.56 L76.96,20.56 Z M81.76,20.56 L81.76,10 L76.8,10 L76.8,20.56 L81.76,20.56 Z M86.56,20.56 L86.56,10 L81.6,10 L81.6,20.56 L86.56,20.56 Z M91.36,20.56 L91.36,10 L86.4,10 L86.4,20.56 L91.36,20.56 Z M96.16,20.56 L96.16,10 L91.2,10 L91.2,20.56 L96.16,20.56 Z M100.96,20.56 L100.96,10 L96,10 L96,20.56 L100.96,20.56 Z M105.76,20.56 L105.76,10 L100.8,10 L100.8,20.56 L105.76,20.56 Z M110.56,20.56 L110.56,10 L105.6,10 L105.6,20.56 L110.56,20.56 Z M115.36,20.56 L115.36,10 L110.4,10 L110.4,20.56 L115.36,20.56 Z M120.16,20.56 L120.16,10 L115.2,10 L115.2,20.56 L120.16,20.56 Z M124.96,20.56 L124.96,10 L120,10 L120,20.56 L124.96,20.56 Z M129.76,20.56 L129.76,10 L124.8,10 L124.8,20.56 L129.76,20.56 Z M134.56,20.56 L134.56,10 L129.6,10 L129.6,20.56 L134.56,20.56 Z M139.36,20.56 L139.36,15.28 L134.4,15.28 L134.4,20.56 L139.36,20.56 Z M144.16,20.56 L144.16,15.28 L139.2,15.28 L139.2,20.56 L144.16,20.56 Z M19.36,30.56 L19.36,25.28 L14.4,25.28 L14.4,30.56 L19.36,30.56 Z M24.16,30.56 L24.16,20 L19.2,20 L19.2,30.56 L24.16,30.56 Z M28.96,30.56 L28.96,20 L24,20 L24,30.56 L28.96,30.56 Z M33.76,30.56 L33.76,20 L28.8,20 L28.8,30.56 L33.76,30.56 Z M38.56,30.56 L38.56,20 L33.6,20 L33.6,30.56 L38.56,30.56 Z M43.36,30.56 L43.36,20 L38.4,20 L38.4,30.56 L43.36,30.56 Z M48.16,30.56 L48.16,20 L43.2,20 L43.2,30.56 L48.16,30.56 Z M52.96,30.56 L52.96,20 L48,20 L48,30.56 L52.96,30.56 Z M57.76,30.56 L57.76,20 L52.8,20 L52.8,30.56 L57.76,30.56 Z M62.56,30.56 L62.56,20 L57.6,20 L57.6,30.56 L62.56,30.56 Z M67.36,30.56 L67.36,20 L62.4,20 L62.4,30.56 L67.36,30.56 Z M72.16,30.56 L72.16,20 L67.2,20 L67.2,30.56 L72.16,30.56 Z M76.96,30.56 L76.96,20 L72,20 L72,30.56 L76.96,30.56 Z M81.76,30.56 L81.76,20 L76.8,20 L76.8,30.56 L81.76,30.56 Z M86.56,30.56 L86.56,20 L81.6,20 L81.6,30.56 L86.56,30.56 Z M91.36,30.56 L91.36,20 L86.4,20 L86.4,30.56 L91.36,30.56 Z M96.16,30.56 L96.16,20 L91.2,20 L91.2,30.56 L96.16,30.56 Z M100.96,30.56 L100.96,20 L96,20 L96,30.56 L100.96,30.56 Z M105.76,30.56 L105.76,20 L100.8,20 L100.8,30.56 L105.76,30.56 Z M110.56,30.56 L110.56,20 L105.6,20 L105.6,30.56 L110.56,30.56 Z M115.36,30.56 L115.36,20 L110.4,20 L110.4,30.56 L115.36,30.56 Z M120.16,30.56 L120.16,20 L115.2,20 L115.2,30.56 L120.16,30.56 Z M124.96,30.56 L124.96,20 L120,20 L120,30.56 L124.96,30.56 Z M129.76,30.56 L129.76,20 L124.8,20 L124.8,30.56 L129.76,30.56 Z M134.56,30.56 L134.56,20 L129.6,20 L129.6,30.56 L134.56,30.56 Z M139.36,30.56 L139.36,20 L134.4,20 L134.4,30.56 L139.36,30.56 Z M144.16,30.56 L144.16,20 L139.2,20 L139.2,30.56 L144.16,30.56 Z M148.96,30.56 L148.96,20 L144,20 L144,30.56 L148.96,30.56 Z M153.76,30.56 L153.76,20 L148.8,20 L148.8,30.56 L153.76,30.56 Z M158.56,30.56 L158.56,25.28 L153.6,25.28 L153.6,30.56 L158.56,30.56 Z M14.56,40.56 L14.56,30 L9.6,30 L9.6,40.56 L14.56,40.56 Z M19.36,40.56 L19.36,30 L14.4,30 L14.4,40.56 L19.36,40.56 Z M24.16,40.56 L24.16,30 L19.2,30 L19.2,40.56 L24.16,40.56 Z M28.96,40.56 L28.96,30 L24,30 L24,40.56 L28.96,40.56 Z M33.76,40.56 L33.76,30 L28.8,30 L28.8,40.56 L33.76,40.56 Z M38.56,40.56 L38.56,30 L33.6,30 L33.6,40.56 L38.56,40.56 Z M43.36,40.56 L43.36,30 L38.4,30 L38.4,40.56 L43.36,40.56 Z M48.16,40.56 L48.16,30 L43.2,30 L43.2,40.56 L48.16,40.56 Z M52.96,40.56 L52.96,30 L48,30 L48,40.56 L52.96,40.56 Z M57.76,40.56 L57.76,30 L52.8,30 L52.8,40.56 L57.76,40.56 Z M62.56,40.56 L62.56,30 L57.6,30 L57.6,40.56 L62.56,40.56 Z M67.36,40.56 L67.36,30 L62.4,30 L62.4,40.56 L67.36,40.56 Z M72.16,40.56 L72.16,30 L67.2,30 L67.2,40.56 L72.16,40.56 Z M76.96,40.56 L76.96,30 L72,30 L72,40.56 L76.96,40.56 Z M81.76,40.56 L81.76,30 L76.8,30 L76.8,40.56 L81.76,40.56 Z M86.56,40.56 L86.56,30 L81.6,30 L81.6,40.56 L86.56,40.56 Z M91.36,40.56 L91.36,30 L86.4,30 L86.4,40.56 L91.36,40.56 Z M96.16,40.56 L96.16,30 L91.2,30 L91.2,40.56 L96.16,40.56 Z M100.96,40.56 L100.96,30 L96,30 L96,40.56 L100.96,40.56 Z M105.76,40.56 L105.76,30 L100.8,30 L100.8,40.56 L105.76,40.56 Z M110.56,40.56 L110.56,30 L105.6,30 L105.6,40.56 L110.56,40.56 Z M115.36,40.56 L115.36,30 L110.4,30 L110.4,40.56 L115.36,40.56 Z M120.16,40.56 L120.16,30 L115.2,30 L115.2,40.56 L120.16,40.56 Z M124.96,40.56 L124.96,30 L120,30 L120,40.56 L124.96,40.56 Z M129.76,40.56 L129.76,30 L124.8,30 L124.8,40.56 L129.76,40.56 Z M134.56,40.56 L134.56,30 L129.6,30 L129.6,40.56 L134.56,40.56 Z M139.36,40.56 L139.36,30 L134.4,30 L134.4,40.56 L139.36,40.56 Z M144.16,40.56 L144.16,30 L139.2,30 L139.2,40.56 L144.16,40.56 Z M148.96,40.56 L148.96,30 L144,30 L144,40.56 L148.96,40.56 Z M153.76,40.56 L153.76,30 L148.8,30 L148.8,40.56 L153.76,40.56 Z M158.56,40.56 L158.56,30 L153.6,30 L153.6,40.56 L158.56,40.56 Z M163.36,40.56 L163.36,30 L158.4,30 L158.4,40.56 L163.36,40.56 Z M9.76,50.56 L9.76,40 L4.8,40 L4.8,50.56 L9.76,50.56 Z M14.56,50.56 L14.56,40 L9.6,40 L9.6,50.56 L14.56,50.56 Z M19.36,50.56 L19.36,40 L14.4,40 L14.4,50.56 L19.36,50.56 Z M24.16,50.56 L24.16,40 L19.2,40 L19.2,50.56 L24.16,50.56 Z M28.96,50.56 L28.96,40 L24,40 L24,50.56 L28.96,50.56 Z M33.76,45.28 L33.76,40 L28.8,40 L28.8,45.28 L33.76,45.28 Z M38.56,45.28 L38.56,40 L33.6,40 L33.6,45.28 L38.56,45.28 Z M43.36,45.28 L43.36,40 L38.4,40 L38.4,45.28 L43.36,45.28 Z M48.16,45.28 L48.16,40 L43.2,40 L43.2,45.28 L48.16,45.28 Z M52.96,45.28 L52.96,40 L48,40 L48,45.28 L52.96,45.28 Z M57.76,45.28 L57.76,40 L52.8,40 L52.8,45.28 L57.76,45.28 Z M62.56,45.28 L62.56,40 L57.6,40 L57.6,45.28 L62.56,45.28 Z M67.36,45.28 L67.36,40 L62.4,40 L62.4,45.28 L67.36,45.28 Z M72.16,45.28 L72.16,40 L67.2,40 L67.2,45.28 L72.16,45.28 Z M76.96,45.28 L76.96,40 L72,40 L72,45.28 L76.96,45.28 Z M81.76,45.28 L81.76,40 L76.8,40 L76.8,45.28 L81.76,45.28 Z M86.56,45.28 L86.56,40 L81.6,40 L81.6,45.28 L86.56,45.28 Z M91.36,45.28 L91.36,40 L86.4,40 L86.4,45.28 L91.36,45.28 Z M96.16,45.28 L96.16,40 L91.2,40 L91.2,45.28 L96.16,45.28 Z M100.96,45.28 L100.96,40 L96,40 L96,45.28 L100.96,45.28 Z M105.76,45.28 L105.76,40 L100.8,40 L100.8,45.28 L105.76,45.28 Z M110.56,45.28 L110.56,40 L105.6,40 L105.6,45.28 L110.56,45.28 Z M115.36,45.28 L115.36,40 L110.4,40 L110.4,45.28 L115.36,45.28 Z M120.16,45.28 L120.16,40 L115.2,40 L115.2,45.28 L120.16,45.28 Z M124.96,45.28 L124.96,40 L120,40 L120,45.28 L124.96,45.28 Z M129.76,45.28 L129.76,40 L124.8,40 L124.8,45.28 L129.76,45.28 Z M134.56,45.28 L134.56,40 L129.6,40 L129.6,45.28 L134.56,45.28 Z M139.36,45.28 L139.36,40 L134.4,40 L134.4,45.28 L139.36,45.28 Z M144.16,45.28 L144.16,40 L139.2,40 L139.2,45.28 L144.16,45.28 Z M148.96,50.56 L148.96,40 L144,40 L144,50.56 L148.96,50.56 Z M153.76,50.56 L153.76,40 L148.8,40 L148.8,50.56 L153.76,50.56 Z M158.56,50.56 L158.56,40 L153.6,40 L153.6,50.56 L158.56,50.56 Z M163.36,50.56 L163.36,40 L158.4,40 L158.4,50.56 L163.36,50.56 Z M168.16,50.56 L168.16,40 L163.2,40 L163.2,50.56 L168.16,50.56 Z M9.76,60.56 L9.76,50 L4.8,50 L4.8,60.56 L9.76,60.56 Z M14.56,60.56 L14.56,50 L9.6,50 L9.6,60.56 L14.56,60.56 Z M19.36,60.56 L19.36,50 L14.4,50 L14.4,60.56 L19.36,60.56 Z M24.16,60.56 L24.16,50 L19.2,50 L19.2,60.56 L24.16,60.56 Z M33.76,60.56 L33.76,50 L28.8,50 L28.8,60.56 L33.76,60.56 Z M38.56,60.56 L38.56,50 L33.6,50 L33.6,60.56 L38.56,60.56 Z M43.36,60.56 L43.36,50 L38.4,50 L38.4,60.56 L43.36,60.56 Z M48.16,60.56 L48.16,50 L43.2,50 L43.2,60.56 L48.16,60.56 Z M52.96,60.56 L52.96,50 L48,50 L48,60.56 L52.96,60.56 Z M57.76,60.56 L57.76,50 L52.8,50 L52.8,60.56 L57.76,60.56 Z M62.56,60.56 L62.56,50 L57.6,50 L57.6,60.56 L62.56,60.56 Z M67.36,60.56 L67.36,50 L62.4,50 L62.4,60.56 L67.36,60.56 Z M72.16,60.56 L72.16,50 L67.2,50 L67.2,60.56 L72.16,60.56 Z M76.96,60.56 L76.96,50 L72,50 L72,60.56 L76.96,60.56 Z M81.76,60.56 L81.76,50 L76.8,50 L76.8,60.56 L81.76,60.56 Z M86.56,60.56 L86.56,50 L81.6,50 L81.6,60.56 L86.56,60.56 Z M91.36,60.56 L91.36,50 L86.4,50 L86.4,60.56 L91.36,60.56 Z M96.16,60.56 L96.16,50 L91.2,50 L91.2,60.56 L96.16,60.56 Z M100.96,60.56 L100.96,50 L96,50 L96,60.56 L100.96,60.56 Z M105.76,60.56 L105.76,50 L100.8,50 L100.8,60.56 L105.76,60.56 Z M110.56,60.56 L110.56,50 L105.6,50 L105.6,60.56 L110.56,60.56 Z M115.36,60.56 L115.36,50 L110.4,50 L110.4,60.56 L115.36,60.56 Z M120.16,60.56 L120.16,50 L115.2,50 L115.2,60.56 L120.16,60.56 Z M124.96,60.56 L124.96,50 L120,50 L120,60.56 L124.96,60.56 Z M129.76,60.56 L129.76,50 L124.8,50 L124.8,60.56 L129.76,60.56 Z M134.56,60.56 L134.56,50 L129.6,50 L129.6,60.56 L134.56,60.56 Z M139.36,60.56 L139.36,50 L134.4,50 L134.4,60.56 L139.36,60.56 Z M144.16,60.56 L144.16,50 L139.2,50 L139.2,60.56 L144.16,60.56 Z M153.76,60.56 L153.76,50 L148.8,50 L148.8,60.56 L153.76,60.56 Z M158.56,60.56 L158.56,50 L153.6,50 L153.6,60.56 L158.56,60.56 Z M163.36,60.56 L163.36,50 L158.4,50 L158.4,60.56 L163.36,60.56 Z M168.16,60.56 L168.16,50 L163.2,50 L163.2,60.56 L168.16,60.56 Z M9.76,70.56 L9.76,60 L4.8,60 L4.8,70.56 L9.76,70.56 Z M14.56,70.56 L14.56,60 L9.6,60 L9.6,70.56 L14.56,70.56 Z M19.36,70.56 L19.36,60 L14.4,60 L14.4,70.56 L19.36,70.56 Z M24.16,70.56 L24.16,60 L19.2,60 L19.2,70.56 L24.16,70.56 Z M33.76,70.56 L33.76,60 L28.8,60 L28.8,70.56 L33.76,70.56 Z M38.56,70.56 L38.56,60 L33.6,60 L33.6,70.56 L38.56,70.56 Z M43.36,70.56 L43.36,60 L38.4,60 L38.4,70.56 L43.36,70.56 Z M48.16,70.56 L48.16,60 L43.2,60 L43.2,70.56 L48.16,70.56 Z M52.96,65.28 L52.96,60 L48,60 L48,65.28 L52.96,65.28 Z M57.76,65.28 L57.76,60 L52.8,60 L52.8,65.28 L57.76,65.28 Z M62.56,70.56 L62.56,60 L57.6,60 L57.6,70.56 L62.56,70.56 Z M67.36,70.56 L67.36,60 L62.4,60 L62.4,70.56 L67.36,70.56 Z M72.16,70.56 L72.16,60 L67.2,60 L67.2,70.56 L72.16,70.56 Z M76.96,70.56 L76.96,60 L72,60 L72,70.56 L76.96,70.56 Z M81.76,70.56 L81.76,60 L76.8,60 L76.8,70.56 L81.76,70.56 Z M86.56,70.56 L86.56,60 L81.6,60 L81.6,70.56 L86.56,70.56 Z M91.36,70.56 L91.36,60 L86.4,60 L86.4,70.56 L91.36,70.56 Z M96.16,70.56 L96.16,60 L91.2,60 L91.2,70.56 L96.16,70.56 Z M100.96,70.56 L100.96,60 L96,60 L96,70.56 L100.96,70.56 Z M105.76,70.56 L105.76,60 L100.8,60 L100.8,70.56 L105.76,70.56 Z M110.56,70.56 L110.56,60 L105.6,60 L105.6,70.56 L110.56,70.56 Z M115.36,70.56 L115.36,60 L110.4,60 L110.4,70.56 L115.36,70.56 Z M120.16,70.56 L120.16,60 L115.2,60 L115.2,70.56 L120.16,70.56 Z M124.96,70.56 L124.96,60 L120,60 L120,70.56 L124.96,70.56 Z M129.76,70.56 L129.76,60 L124.8,60 L124.8,70.56 L129.76,70.56 Z M134.56,70.56 L134.56,60 L129.6,60 L129.6,70.56 L134.56,70.56 Z M139.36,70.56 L139.36,60 L134.4,60 L134.4,70.56 L139.36,70.56 Z M144.16,70.56 L144.16,60 L139.2,60 L139.2,70.56 L144.16,70.56 Z M153.76,70.56 L153.76,60 L148.8,60 L148.8,70.56 L153.76,70.56 Z M158.56,70.56 L158.56,60 L153.6,60 L153.6,70.56 L158.56,70.56 Z M163.36,70.56 L163.36,60 L158.4,60 L158.4,70.56 L163.36,70.56 Z M168.16,70.56 L168.16,60 L163.2,60 L163.2,70.56 L168.16,70.56 Z M9.76,80.56 L9.76,70 L4.8,70 L4.8,80.56 L9.76,80.56 Z M14.56,80.56 L14.56,70 L9.6,70 L9.6,80.56 L14.56,80.56 Z M19.36,80.56 L19.36,70 L14.4,70 L14.4,80.56 L19.36,80.56 Z M24.16,80.56 L24.16,70 L19.2,70 L19.2,80.56 L24.16,80.56 Z M33.76,80.56 L33.76,70 L28.8,70 L28.8,80.56 L33.76,80.56 Z M38.56,80.56 L38.56,70 L33.6,70 L33.6,80.56 L38.56,80.56 Z M43.36,80.56 L43.36,70 L38.4,70 L38.4,80.56 L43.36,80.56 Z M48.16,80.56 L48.16,70 L43.2,70 L43.2,80.56 L48.16,80.56 Z M52.96,80.56 L52.96,70 L48,70 L48,80.56 L52.96,80.56 Z M57.76,80.56 L57.76,70 L52.8,70 L52.8,80.56 L57.76,80.56 Z M62.56,80.56 L62.56,75.28 L57.6,75.28 L57.6,80.56 L62.56,80.56 Z M67.36,80.56 L67.36,75.28 L62.4,75.28 L62.4,80.56 L67.36,80.56 Z M72.16,75.28 L72.16,70 L67.2,70 L67.2,75.28 L72.16,75.28 Z M76.96,75.28 L76.96,70 L72,70 L72,75.28 L76.96,75.28 Z M81.76,80.56 L81.76,70 L76.8,70 L76.8,80.56 L81.76,80.56 Z M86.56,80.56 L86.56,70 L81.6,70 L81.6,80.56 L86.56,80.56 Z M91.36,80.56 L91.36,70 L86.4,70 L86.4,80.56 L91.36,80.56 Z M96.16,80.56 L96.16,70 L91.2,70 L91.2,80.56 L96.16,80.56 Z M100.96,80.56 L100.96,70 L96,70 L96,80.56 L100.96,80.56 Z M105.76,80.56 L105.76,70 L100.8,70 L100.8,80.56 L105.76,80.56 Z M110.56,80.56 L110.56,70 L105.6,70 L105.6,80.56 L110.56,80.56 Z M115.36,80.56 L115.36,70 L110.4,70 L110.4,80.56 L115.36,80.56 Z M120.16,80.56 L120.16,70 L115.2,70 L115.2,80.56 L120.16,80.56 Z M124.96,80.56 L124.96,70 L120,70 L120,80.56 L124.96,80.56 Z M129.76,80.56 L129.76,70 L124.8,70 L124.8,80.56 L129.76,80.56 Z M134.56,80.56 L134.56,70 L129.6,70 L129.6,80.56 L134.56,80.56 Z M139.36,80.56 L139.36,70 L134.4,70 L134.4,80.56 L139.36,80.56 Z M144.16,80.56 L144.16,70 L139.2,70 L139.2,80.56 L144.16,80.56 Z M153.76,80.56 L153.76,70 L148.8,70 L148.8,80.56 L153.76,80.56 Z M158.56,80.56 L158.56,70 L153.6,70 L153.6,80.56 L158.56,80.56 Z M163.36,80.56 L163.36,70 L158.4,70 L158.4,80.56 L163.36,80.56 Z M168.16,80.56 L168.16,70 L163.2,70 L163.2,80.56 L168.16,80.56 Z M4.96,90.56 L4.96,85.28 L-4.40536496e-13,85.28 L-4.40536496e-13,90.56 L4.96,90.56 Z M9.76,90.56 L9.76,80 L4.8,80 L4.8,90.56 L9.76,90.56 Z M14.56,90.56 L14.56,80 L9.6,80 L9.6,90.56 L14.56,90.56 Z M19.36,90.56 L19.36,80 L14.4,80 L14.4,90.56 L19.36,90.56 Z M24.16,90.56 L24.16,80 L19.2,80 L19.2,90.56 L24.16,90.56 Z M33.76,90.56 L33.76,80 L28.8,80 L28.8,90.56 L33.76,90.56 Z M38.56,90.56 L38.56,80 L33.6,80 L33.6,90.56 L38.56,90.56 Z M43.36,90.56 L43.36,80 L38.4,80 L38.4,90.56 L43.36,90.56 Z M48.16,90.56 L48.16,80 L43.2,80 L43.2,90.56 L48.16,90.56 Z M52.96,85.28 L52.96,80 L48,80 L48,85.28 L52.96,85.28 Z M57.76,85.28 L57.76,80 L52.8,80 L52.8,85.28 L57.76,85.28 Z M62.56,90.56 L62.56,85.28 L57.6,85.28 L57.6,90.56 L62.56,90.56 Z M67.36,90.56 L67.36,85.28 L62.4,85.28 L62.4,90.56 L67.36,90.56 Z M72.16,90.56 L72.16,80 L67.2,80 L67.2,90.56 L72.16,90.56 Z M76.96,90.56 L76.96,80 L72,80 L72,90.56 L76.96,90.56 Z M81.76,90.56 L81.76,80 L76.8,80 L76.8,90.56 L81.76,90.56 Z M86.56,90.56 L86.56,80 L81.6,80 L81.6,90.56 L86.56,90.56 Z M91.36,90.56 L91.36,80 L86.4,80 L86.4,90.56 L91.36,90.56 Z M96.16,90.56 L96.16,80 L91.2,80 L91.2,90.56 L96.16,90.56 Z M100.96,85.28 L100.96,80 L96,80 L96,85.28 L100.96,85.28 Z M105.76,85.28 L105.76,80 L100.8,80 L100.8,85.28 L105.76,85.28 Z M110.56,85.28 L110.56,80 L105.6,80 L105.6,85.28 L110.56,85.28 Z M115.36,85.28 L115.36,80 L110.4,80 L110.4,85.28 L115.36,85.28 Z M120.16,85.28 L120.16,80 L115.2,80 L115.2,85.28 L120.16,85.28 Z M124.96,85.28 L124.96,80 L120,80 L120,85.28 L124.96,85.28 Z M129.76,90.56 L129.76,80 L124.8,80 L124.8,90.56 L129.76,90.56 Z M134.56,90.56 L134.56,80 L129.6,80 L129.6,90.56 L134.56,90.56 Z M139.36,90.56 L139.36,80 L134.4,80 L134.4,90.56 L139.36,90.56 Z M144.16,90.56 L144.16,80 L139.2,80 L139.2,90.56 L144.16,90.56 Z M153.76,90.56 L153.76,80 L148.8,80 L148.8,90.56 L153.76,90.56 Z M158.56,90.56 L158.56,80 L153.6,80 L153.6,90.56 L158.56,90.56 Z M163.36,90.56 L163.36,80 L158.4,80 L158.4,90.56 L163.36,90.56 Z M168.16,90.56 L168.16,80 L163.2,80 L163.2,90.56 L168.16,90.56 Z M172.96,90.56 L172.96,85.28 L168,85.28 L168,90.56 L172.96,90.56 Z M4.96,100.56 L4.96,90 L-4.40536496e-13,90 L-4.40536496e-13,100.56 L4.96,100.56 Z M9.76,100.56 L9.76,90 L4.8,90 L4.8,100.56 L9.76,100.56 Z M14.56,100.56 L14.56,90 L9.6,90 L9.6,100.56 L14.56,100.56 Z M19.36,100.56 L19.36,90 L14.4,90 L14.4,100.56 L19.36,100.56 Z M24.16,100.56 L24.16,90 L19.2,90 L19.2,100.56 L24.16,100.56 Z M33.76,100.56 L33.76,90 L28.8,90 L28.8,100.56 L33.76,100.56 Z M38.56,100.56 L38.56,90 L33.6,90 L33.6,100.56 L38.56,100.56 Z M43.36,100.56 L43.36,90 L38.4,90 L38.4,100.56 L43.36,100.56 Z M48.16,100.56 L48.16,90 L43.2,90 L43.2,100.56 L48.16,100.56 Z M52.96,100.56 L52.96,90 L48,90 L48,100.56 L52.96,100.56 Z M57.76,100.56 L57.76,90 L52.8,90 L52.8,100.56 L57.76,100.56 Z M62.56,100.56 L62.56,90 L57.6,90 L57.6,100.56 L62.56,100.56 Z M67.36,100.56 L67.36,90 L62.4,90 L62.4,100.56 L67.36,100.56 Z M72.16,100.56 L72.16,90 L67.2,90 L67.2,100.56 L72.16,100.56 Z M76.96,100.56 L76.96,90 L72,90 L72,100.56 L76.96,100.56 Z M81.76,100.56 L81.76,90 L76.8,90 L76.8,100.56 L81.76,100.56 Z M86.56,100.56 L86.56,90 L81.6,90 L81.6,100.56 L86.56,100.56 Z M91.36,100.56 L91.36,90 L86.4,90 L86.4,100.56 L91.36,100.56 Z M96.16,100.56 L96.16,90 L91.2,90 L91.2,100.56 L96.16,100.56 Z M100.96,100.56 L100.96,90 L96,90 L96,100.56 L100.96,100.56 Z M105.76,100.56 L105.76,90 L100.8,90 L100.8,100.56 L105.76,100.56 Z M110.56,100.56 L110.56,90 L105.6,90 L105.6,100.56 L110.56,100.56 Z M115.36,100.56 L115.36,90 L110.4,90 L110.4,100.56 L115.36,100.56 Z M120.16,100.56 L120.16,90 L115.2,90 L115.2,100.56 L120.16,100.56 Z M124.96,100.56 L124.96,90 L120,90 L120,100.56 L124.96,100.56 Z M129.76,100.56 L129.76,90 L124.8,90 L124.8,100.56 L129.76,100.56 Z M134.56,100.56 L134.56,90 L129.6,90 L129.6,100.56 L134.56,100.56 Z M139.36,100.56 L139.36,90 L134.4,90 L134.4,100.56 L139.36,100.56 Z M144.16,100.56 L144.16,90 L139.2,90 L139.2,100.56 L144.16,100.56 Z M153.76,100.56 L153.76,90 L148.8,90 L148.8,100.56 L153.76,100.56 Z M158.56,100.56 L158.56,90 L153.6,90 L153.6,100.56 L158.56,100.56 Z M163.36,100.56 L163.36,90 L158.4,90 L158.4,100.56 L163.36,100.56 Z M168.16,100.56 L168.16,90 L163.2,90 L163.2,100.56 L168.16,100.56 Z M172.96,100.56 L172.96,90 L168,90 L168,100.56 L172.96,100.56 Z M4.96,105.28 L4.96,100 L-4.40536496e-13,100 L-4.40536496e-13,105.28 L4.96,105.28 Z M9.76,110.56 L9.76,100 L4.8,100 L4.8,110.56 L9.76,110.56 Z M14.56,110.56 L14.56,100 L9.6,100 L9.6,110.56 L14.56,110.56 Z M19.36,110.56 L19.36,100 L14.4,100 L14.4,110.56 L19.36,110.56 Z M24.16,110.56 L24.16,100 L19.2,100 L19.2,110.56 L24.16,110.56 Z M28.96,110.56 L28.96,100 L24,100 L24,110.56 L28.96,110.56 Z M33.76,110.56 L33.76,105.28 L28.8,105.28 L28.8,110.56 L33.76,110.56 Z M38.56,110.56 L38.56,105.28 L33.6,105.28 L33.6,110.56 L38.56,110.56 Z M43.36,110.56 L43.36,105.28 L38.4,105.28 L38.4,110.56 L43.36,110.56 Z M48.16,110.56 L48.16,105.28 L43.2,105.28 L43.2,110.56 L48.16,110.56 Z M52.96,110.56 L52.96,105.28 L48,105.28 L48,110.56 L52.96,110.56 Z M57.76,110.56 L57.76,105.28 L52.8,105.28 L52.8,110.56 L57.76,110.56 Z M62.56,110.56 L62.56,105.28 L57.6,105.28 L57.6,110.56 L62.56,110.56 Z M67.36,110.56 L67.36,105.28 L62.4,105.28 L62.4,110.56 L67.36,110.56 Z M72.16,110.56 L72.16,105.28 L67.2,105.28 L67.2,110.56 L72.16,110.56 Z M76.96,110.56 L76.96,105.28 L72,105.28 L72,110.56 L76.96,110.56 Z M81.76,110.56 L81.76,105.28 L76.8,105.28 L76.8,110.56 L81.76,110.56 Z M96.16,110.56 L96.16,105.28 L91.2,105.28 L91.2,110.56 L96.16,110.56 Z M100.96,110.56 L100.96,105.28 L96,105.28 L96,110.56 L100.96,110.56 Z M105.76,110.56 L105.76,105.28 L100.8,105.28 L100.8,110.56 L105.76,110.56 Z M110.56,110.56 L110.56,105.28 L105.6,105.28 L105.6,110.56 L110.56,110.56 Z M115.36,110.56 L115.36,105.28 L110.4,105.28 L110.4,110.56 L115.36,110.56 Z M120.16,110.56 L120.16,105.28 L115.2,105.28 L115.2,110.56 L120.16,110.56 Z M124.96,110.56 L124.96,105.28 L120,105.28 L120,110.56 L124.96,110.56 Z M129.76,110.56 L129.76,105.28 L124.8,105.28 L124.8,110.56 L129.76,110.56 Z M134.56,110.56 L134.56,105.28 L129.6,105.28 L129.6,110.56 L134.56,110.56 Z M139.36,110.56 L139.36,105.28 L134.4,105.28 L134.4,110.56 L139.36,110.56 Z M144.16,110.56 L144.16,105.28 L139.2,105.28 L139.2,110.56 L144.16,110.56 Z M148.96,110.56 L148.96,100 L144,100 L144,110.56 L148.96,110.56 Z M153.76,110.56 L153.76,100 L148.8,100 L148.8,110.56 L153.76,110.56 Z M158.56,110.56 L158.56,100 L153.6,100 L153.6,110.56 L158.56,110.56 Z M163.36,110.56 L163.36,100 L158.4,100 L158.4,110.56 L163.36,110.56 Z M168.16,110.56 L168.16,100 L163.2,100 L163.2,110.56 L168.16,110.56 Z M172.96,105.28 L172.96,100 L168,100 L168,105.28 L172.96,105.28 Z M9.76,120.56 L9.76,110 L4.8,110 L4.8,120.56 L9.76,120.56 Z M14.56,120.56 L14.56,110 L9.6,110 L9.6,120.56 L14.56,120.56 Z M19.36,120.56 L19.36,110 L14.4,110 L14.4,120.56 L19.36,120.56 Z M24.16,120.56 L24.16,110 L19.2,110 L19.2,120.56 L24.16,120.56 Z M28.96,120.56 L28.96,110 L24,110 L24,120.56 L28.96,120.56 Z M33.76,120.56 L33.76,110 L28.8,110 L28.8,120.56 L33.76,120.56 Z M38.56,120.56 L38.56,110 L33.6,110 L33.6,120.56 L38.56,120.56 Z M43.36,120.56 L43.36,110 L38.4,110 L38.4,120.56 L43.36,120.56 Z M48.16,120.56 L48.16,110 L43.2,110 L43.2,120.56 L48.16,120.56 Z M52.96,120.56 L52.96,110 L48,110 L48,120.56 L52.96,120.56 Z M57.76,120.56 L57.76,110 L52.8,110 L52.8,120.56 L57.76,120.56 Z M62.56,120.56 L62.56,110 L57.6,110 L57.6,120.56 L62.56,120.56 Z M67.36,120.56 L67.36,110 L62.4,110 L62.4,120.56 L67.36,120.56 Z M72.16,120.56 L72.16,110 L67.2,110 L67.2,120.56 L72.16,120.56 Z M76.96,115.28 L76.96,110 L72,110 L72,115.28 L76.96,115.28 Z M81.76,115.28 L81.76,110 L76.8,110 L76.8,115.28 L81.76,115.28 Z M96.16,115.28 L96.16,110 L91.2,110 L91.2,115.28 L96.16,115.28 Z M100.96,115.28 L100.96,110 L96,110 L96,115.28 L100.96,115.28 Z M105.76,120.56 L105.76,110 L100.8,110 L100.8,120.56 L105.76,120.56 Z M110.56,120.56 L110.56,110 L105.6,110 L105.6,120.56 L110.56,120.56 Z M115.36,120.56 L115.36,110 L110.4,110 L110.4,120.56 L115.36,120.56 Z M120.16,120.56 L120.16,110 L115.2,110 L115.2,120.56 L120.16,120.56 Z M124.96,120.56 L124.96,110 L120,110 L120,120.56 L124.96,120.56 Z M129.76,120.56 L129.76,110 L124.8,110 L124.8,120.56 L129.76,120.56 Z M134.56,120.56 L134.56,110 L129.6,110 L129.6,120.56 L134.56,120.56 Z M139.36,120.56 L139.36,110 L134.4,110 L134.4,120.56 L139.36,120.56 Z M144.16,120.56 L144.16,110 L139.2,110 L139.2,120.56 L144.16,120.56 Z M148.96,120.56 L148.96,110 L144,110 L144,120.56 L148.96,120.56 Z M153.76,120.56 L153.76,110 L148.8,110 L148.8,120.56 L153.76,120.56 Z M158.56,120.56 L158.56,110 L153.6,110 L153.6,120.56 L158.56,120.56 Z M163.36,120.56 L163.36,110 L158.4,110 L158.4,120.56 L163.36,120.56 Z M168.16,120.56 L168.16,110 L163.2,110 L163.2,120.56 L168.16,120.56 Z M9.76,130.56 L9.76,120 L4.8,120 L4.8,130.56 L9.76,130.56 Z M14.56,130.56 L14.56,120 L9.6,120 L9.6,130.56 L14.56,130.56 Z M19.36,130.56 L19.36,120 L14.4,120 L14.4,130.56 L19.36,130.56 Z M24.16,130.56 L24.16,120 L19.2,120 L19.2,130.56 L24.16,130.56 Z M28.96,130.56 L28.96,120 L24,120 L24,130.56 L28.96,130.56 Z M33.76,130.56 L33.76,120 L28.8,120 L28.8,130.56 L33.76,130.56 Z M38.56,130.56 L38.56,120 L33.6,120 L33.6,130.56 L38.56,130.56 Z M43.36,130.56 L43.36,120 L38.4,120 L38.4,130.56 L43.36,130.56 Z M48.16,130.56 L48.16,120 L43.2,120 L43.2,130.56 L48.16,130.56 Z M52.96,130.56 L52.96,120 L48,120 L48,130.56 L52.96,130.56 Z M57.76,130.56 L57.76,120 L52.8,120 L52.8,130.56 L57.76,130.56 Z M62.56,130.56 L62.56,120 L57.6,120 L57.6,130.56 L62.56,130.56 Z M67.36,130.56 L67.36,120 L62.4,120 L62.4,130.56 L67.36,130.56 Z M72.16,130.56 L72.16,120 L67.2,120 L67.2,130.56 L72.16,130.56 Z M76.96,130.56 L76.96,120 L72,120 L72,130.56 L76.96,130.56 Z M81.76,130.56 L81.76,120 L76.8,120 L76.8,130.56 L81.76,130.56 Z M86.56,130.56 L86.56,120 L81.6,120 L81.6,130.56 L86.56,130.56 Z M91.36,130.56 L91.36,120 L86.4,120 L86.4,130.56 L91.36,130.56 Z M96.16,130.56 L96.16,120 L91.2,120 L91.2,130.56 L96.16,130.56 Z M100.96,130.56 L100.96,120 L96,120 L96,130.56 L100.96,130.56 Z M105.76,130.56 L105.76,120 L100.8,120 L100.8,130.56 L105.76,130.56 Z M110.56,130.56 L110.56,120 L105.6,120 L105.6,130.56 L110.56,130.56 Z M115.36,130.56 L115.36,120 L110.4,120 L110.4,130.56 L115.36,130.56 Z M120.16,130.56 L120.16,120 L115.2,120 L115.2,130.56 L120.16,130.56 Z M124.96,130.56 L124.96,120 L120,120 L120,130.56 L124.96,130.56 Z M129.76,130.56 L129.76,120 L124.8,120 L124.8,130.56 L129.76,130.56 Z M134.56,130.56 L134.56,120 L129.6,120 L129.6,130.56 L134.56,130.56 Z M139.36,130.56 L139.36,120 L134.4,120 L134.4,130.56 L139.36,130.56 Z M144.16,130.56 L144.16,120 L139.2,120 L139.2,130.56 L144.16,130.56 Z M148.96,130.56 L148.96,120 L144,120 L144,130.56 L148.96,130.56 Z M153.76,130.56 L153.76,120 L148.8,120 L148.8,130.56 L153.76,130.56 Z M158.56,130.56 L158.56,120 L153.6,120 L153.6,130.56 L158.56,130.56 Z M163.36,130.56 L163.36,120 L158.4,120 L158.4,130.56 L163.36,130.56 Z M168.16,130.56 L168.16,120 L163.2,120 L163.2,130.56 L168.16,130.56 Z M9.76,140.56 L9.76,130 L4.8,130 L4.8,140.56 L9.76,140.56 Z M14.56,140.56 L14.56,130 L9.6,130 L9.6,140.56 L14.56,140.56 Z M19.36,140.56 L19.36,130 L14.4,130 L14.4,140.56 L19.36,140.56 Z M24.16,140.56 L24.16,130 L19.2,130 L19.2,140.56 L24.16,140.56 Z M28.96,140.56 L28.96,130 L24,130 L24,140.56 L28.96,140.56 Z M33.76,135.28 L33.76,130 L28.8,130 L28.8,135.28 L33.76,135.28 Z M38.56,135.28 L38.56,130 L33.6,130 L33.6,135.28 L38.56,135.28 Z M43.36,135.28 L43.36,130 L38.4,130 L38.4,135.28 L43.36,135.28 Z M48.16,135.28 L48.16,130 L43.2,130 L43.2,135.28 L48.16,135.28 Z M52.96,135.28 L52.96,130 L48,130 L48,135.28 L52.96,135.28 Z M57.76,135.28 L57.76,130 L52.8,130 L52.8,135.28 L57.76,135.28 Z M62.56,135.28 L62.56,130 L57.6,130 L57.6,135.28 L62.56,135.28 Z M67.36,135.28 L67.36,130 L62.4,130 L62.4,135.28 L67.36,135.28 Z M72.16,135.28 L72.16,130 L67.2,130 L67.2,135.28 L72.16,135.28 Z M76.96,135.28 L76.96,130 L72,130 L72,135.28 L76.96,135.28 Z M81.76,135.28 L81.76,130 L76.8,130 L76.8,135.28 L81.76,135.28 Z M86.56,135.28 L86.56,130 L81.6,130 L81.6,135.28 L86.56,135.28 Z M91.36,135.28 L91.36,130 L86.4,130 L86.4,135.28 L91.36,135.28 Z M96.16,135.28 L96.16,130 L91.2,130 L91.2,135.28 L96.16,135.28 Z M100.96,135.28 L100.96,130 L96,130 L96,135.28 L100.96,135.28 Z M105.76,135.28 L105.76,130 L100.8,130 L100.8,135.28 L105.76,135.28 Z M110.56,135.28 L110.56,130 L105.6,130 L105.6,135.28 L110.56,135.28 Z M115.36,135.28 L115.36,130 L110.4,130 L110.4,135.28 L115.36,135.28 Z M120.16,135.28 L120.16,130 L115.2,130 L115.2,135.28 L120.16,135.28 Z M124.96,135.28 L124.96,130 L120,130 L120,135.28 L124.96,135.28 Z M129.76,135.28 L129.76,130 L124.8,130 L124.8,135.28 L129.76,135.28 Z M134.56,135.28 L134.56,130 L129.6,130 L129.6,135.28 L134.56,135.28 Z M139.36,135.28 L139.36,130 L134.4,130 L134.4,135.28 L139.36,135.28 Z M144.16,135.28 L144.16,130 L139.2,130 L139.2,135.28 L144.16,135.28 Z M148.96,140.56 L148.96,130 L144,130 L144,140.56 L148.96,140.56 Z M153.76,140.56 L153.76,130 L148.8,130 L148.8,140.56 L153.76,140.56 Z M158.56,140.56 L158.56,130 L153.6,130 L153.6,140.56 L158.56,140.56 Z M163.36,140.56 L163.36,130 L158.4,130 L158.4,140.56 L163.36,140.56 Z M168.16,140.56 L168.16,130 L163.2,130 L163.2,140.56 L168.16,140.56 Z M9.76,145.28 L9.76,140 L4.8,140 L4.8,145.28 L9.76,145.28 Z M14.56,150.56 L14.56,140 L9.6,140 L9.6,150.56 L14.56,150.56 Z M19.36,150.56 L19.36,140 L14.4,140 L14.4,150.56 L19.36,150.56 Z M24.16,150.56 L24.16,140 L19.2,140 L19.2,150.56 L24.16,150.56 Z M28.96,150.56 L28.96,140 L24,140 L24,150.56 L28.96,150.56 Z M38.56,145.28 L38.56,140 L33.6,140 L33.6,145.28 L38.56,145.28 Z M43.36,145.28 L43.36,140 L38.4,140 L38.4,145.28 L43.36,145.28 Z M48.16,145.28 L48.16,140 L43.2,140 L43.2,145.28 L48.16,145.28 Z M57.76,145.28 L57.76,140 L52.8,140 L52.8,145.28 L57.76,145.28 Z M62.56,145.28 L62.56,140 L57.6,140 L57.6,145.28 L62.56,145.28 Z M72.16,145.28 L72.16,140 L67.2,140 L67.2,145.28 L72.16,145.28 Z M76.96,145.28 L76.96,140 L72,140 L72,145.28 L76.96,145.28 Z M86.56,145.28 L86.56,140 L81.6,140 L81.6,145.28 L86.56,145.28 Z M91.36,145.28 L91.36,140 L86.4,140 L86.4,145.28 L91.36,145.28 Z M100.96,145.28 L100.96,140 L96,140 L96,145.28 L100.96,145.28 Z M105.76,145.28 L105.76,140 L100.8,140 L100.8,145.28 L105.76,145.28 Z M115.36,145.28 L115.36,140 L110.4,140 L110.4,145.28 L115.36,145.28 Z M120.16,145.28 L120.16,140 L115.2,140 L115.2,145.28 L120.16,145.28 Z M129.76,145.28 L129.76,140 L124.8,140 L124.8,145.28 L129.76,145.28 Z M134.56,145.28 L134.56,140 L129.6,140 L129.6,145.28 L134.56,145.28 Z M139.36,150.56 L139.36,140 L134.4,140 L134.4,150.56 L139.36,150.56 Z M148.96,150.56 L148.96,140 L144,140 L144,150.56 L148.96,150.56 Z M153.76,150.56 L153.76,140 L148.8,140 L148.8,150.56 L153.76,150.56 Z M158.56,150.56 L158.56,140 L153.6,140 L153.6,150.56 L158.56,150.56 Z M163.36,150.56 L163.36,140 L158.4,140 L158.4,150.56 L163.36,150.56 Z M168.16,145.28 L168.16,140 L163.2,140 L163.2,145.28 L168.16,145.28 Z M14.56,160.56 L14.56,150 L9.6,150 L9.6,160.56 L14.56,160.56 Z M19.36,160.56 L19.36,150 L14.4,150 L14.4,160.56 L19.36,160.56 Z M24.16,160.56 L24.16,150 L19.2,150 L19.2,160.56 L24.16,160.56 Z M28.96,160.56 L28.96,150 L24,150 L24,160.56 L28.96,160.56 Z M38.56,155.28 L38.56,150 L33.6,150 L33.6,155.28 L38.56,155.28 Z M43.36,155.28 L43.36,150 L38.4,150 L38.4,155.28 L43.36,155.28 Z M52.96,155.28 L52.96,150 L48,150 L48,155.28 L52.96,155.28 Z M57.76,155.28 L57.76,150 L52.8,150 L52.8,155.28 L57.76,155.28 Z M67.36,155.28 L67.36,150 L62.4,150 L62.4,155.28 L67.36,155.28 Z M72.16,155.28 L72.16,150 L67.2,150 L67.2,155.28 L72.16,155.28 Z M81.76,155.28 L81.76,150 L76.8,150 L76.8,155.28 L81.76,155.28 Z M86.56,155.28 L86.56,150 L81.6,150 L81.6,155.28 L86.56,155.28 Z M96.16,155.28 L96.16,150 L91.2,150 L91.2,155.28 L96.16,155.28 Z M100.96,155.28 L100.96,150 L96,150 L96,155.28 L100.96,155.28 Z M110.56,155.28 L110.56,150 L105.6,150 L105.6,155.28 L110.56,155.28 Z M115.36,155.28 L115.36,150 L110.4,150 L110.4,155.28 L115.36,155.28 Z M124.96,155.28 L124.96,150 L120,150 L120,155.28 L124.96,155.28 Z M129.76,155.28 L129.76,150 L124.8,150 L124.8,155.28 L129.76,155.28 Z M139.36,155.28 L139.36,150 L134.4,150 L134.4,155.28 L139.36,155.28 Z M148.96,160.56 L148.96,150 L144,150 L144,160.56 L148.96,160.56 Z M153.76,160.56 L153.76,150 L148.8,150 L148.8,160.56 L153.76,160.56 Z M158.56,160.56 L158.56,150 L153.6,150 L153.6,160.56 L158.56,160.56 Z M163.36,160.56 L163.36,150 L158.4,150 L158.4,160.56 L163.36,160.56 Z M14.56,170.56 L14.56,160 L9.6,160 L9.6,170.56 L14.56,170.56 Z M19.36,170.56 L19.36,160 L14.4,160 L14.4,170.56 L19.36,170.56 Z M24.16,170.56 L24.16,160 L19.2,160 L19.2,170.56 L24.16,170.56 Z M28.96,170.56 L28.96,160 L24,160 L24,170.56 L28.96,170.56 Z M38.56,165.28 L38.56,160 L33.6,160 L33.6,165.28 L38.56,165.28 Z M43.36,165.28 L43.36,160 L38.4,160 L38.4,165.28 L43.36,165.28 Z M48.16,165.28 L48.16,160 L43.2,160 L43.2,165.28 L48.16,165.28 Z M52.96,165.28 L52.96,160 L48,160 L48,165.28 L52.96,165.28 Z M62.56,165.28 L62.56,160 L57.6,160 L57.6,165.28 L62.56,165.28 Z M67.36,165.28 L67.36,160 L62.4,160 L62.4,165.28 L67.36,165.28 Z M72.16,165.28 L72.16,160 L67.2,160 L67.2,165.28 L72.16,165.28 Z M76.96,165.28 L76.96,160 L72,160 L72,165.28 L76.96,165.28 Z M81.76,165.28 L81.76,160 L76.8,160 L76.8,165.28 L81.76,165.28 Z M86.56,165.28 L86.56,160 L81.6,160 L81.6,165.28 L86.56,165.28 Z M91.36,165.28 L91.36,160 L86.4,160 L86.4,165.28 L91.36,165.28 Z M96.16,165.28 L96.16,160 L91.2,160 L91.2,165.28 L96.16,165.28 Z M100.96,165.28 L100.96,160 L96,160 L96,165.28 L100.96,165.28 Z M105.76,165.28 L105.76,160 L100.8,160 L100.8,165.28 L105.76,165.28 Z M110.56,165.28 L110.56,160 L105.6,160 L105.6,165.28 L110.56,165.28 Z M115.36,165.28 L115.36,160 L110.4,160 L110.4,165.28 L115.36,165.28 Z M120.16,165.28 L120.16,160 L115.2,160 L115.2,165.28 L120.16,165.28 Z M129.76,165.28 L129.76,160 L124.8,160 L124.8,165.28 L129.76,165.28 Z M134.56,165.28 L134.56,160 L129.6,160 L129.6,165.28 L134.56,165.28 Z M139.36,165.28 L139.36,160 L134.4,160 L134.4,165.28 L139.36,165.28 Z M148.96,170.56 L148.96,160 L144,160 L144,170.56 L148.96,170.56 Z M153.76,170.56 L153.76,160 L148.8,160 L148.8,170.56 L153.76,170.56 Z M158.56,170.56 L158.56,160 L153.6,160 L153.6,170.56 L158.56,170.56 Z M163.36,170.56 L163.36,160 L158.4,160 L158.4,170.56 L163.36,170.56 Z M14.56,180.56 L14.56,170 L9.6,170 L9.6,180.56 L14.56,180.56 Z M19.36,180.56 L19.36,170 L14.4,170 L14.4,180.56 L19.36,180.56 Z M24.16,180.56 L24.16,170 L19.2,170 L19.2,180.56 L24.16,180.56 Z M28.96,180.56 L28.96,170 L24,170 L24,180.56 L28.96,180.56 Z M33.76,180.56 L33.76,170 L28.8,170 L28.8,180.56 L33.76,180.56 Z M38.56,180.56 L38.56,170 L33.6,170 L33.6,180.56 L38.56,180.56 Z M43.36,180.56 L43.36,170 L38.4,170 L38.4,180.56 L43.36,180.56 Z M48.16,180.56 L48.16,170 L43.2,170 L43.2,180.56 L48.16,180.56 Z M52.96,180.56 L52.96,170 L48,170 L48,180.56 L52.96,180.56 Z M57.76,180.56 L57.76,170 L52.8,170 L52.8,180.56 L57.76,180.56 Z M62.56,180.56 L62.56,170 L57.6,170 L57.6,180.56 L62.56,180.56 Z M67.36,180.56 L67.36,170 L62.4,170 L62.4,180.56 L67.36,180.56 Z M72.16,180.56 L72.16,170 L67.2,170 L67.2,180.56 L72.16,180.56 Z M76.96,180.56 L76.96,170 L72,170 L72,180.56 L76.96,180.56 Z M81.76,180.56 L81.76,170 L76.8,170 L76.8,180.56 L81.76,180.56 Z M86.56,180.56 L86.56,170 L81.6,170 L81.6,180.56 L86.56,180.56 Z M91.36,180.56 L91.36,170 L86.4,170 L86.4,180.56 L91.36,180.56 Z M96.16,180.56 L96.16,170 L91.2,170 L91.2,180.56 L96.16,180.56 Z M100.96,180.56 L100.96,170 L96,170 L96,180.56 L100.96,180.56 Z M105.76,180.56 L105.76,170 L100.8,170 L100.8,180.56 L105.76,180.56 Z M110.56,180.56 L110.56,170 L105.6,170 L105.6,180.56 L110.56,180.56 Z M115.36,180.56 L115.36,170 L110.4,170 L110.4,180.56 L115.36,180.56 Z M120.16,180.56 L120.16,170 L115.2,170 L115.2,180.56 L120.16,180.56 Z M124.96,180.56 L124.96,170 L120,170 L120,180.56 L124.96,180.56 Z M129.76,180.56 L129.76,170 L124.8,170 L124.8,180.56 L129.76,180.56 Z M134.56,180.56 L134.56,170 L129.6,170 L129.6,180.56 L134.56,180.56 Z M139.36,180.56 L139.36,170 L134.4,170 L134.4,180.56 L139.36,180.56 Z M144.16,180.56 L144.16,170 L139.2,170 L139.2,180.56 L144.16,180.56 Z M148.96,180.56 L148.96,170 L144,170 L144,180.56 L148.96,180.56 Z M153.76,180.56 L153.76,170 L148.8,170 L148.8,180.56 L153.76,180.56 Z M158.56,180.56 L158.56,170 L153.6,170 L153.6,180.56 L158.56,180.56 Z M163.36,180.56 L163.36,170 L158.4,170 L158.4,180.56 L163.36,180.56 Z M14.56,185.28 L14.56,180 L9.6,180 L9.6,185.28 L14.56,185.28 Z M19.36,190.56 L19.36,180 L14.4,180 L14.4,190.56 L19.36,190.56 Z M24.16,190.56 L24.16,180 L19.2,180 L19.2,190.56 L24.16,190.56 Z M28.96,190.56 L28.96,180 L24,180 L24,190.56 L28.96,190.56 Z M33.76,190.56 L33.76,180 L28.8,180 L28.8,190.56 L33.76,190.56 Z M38.56,190.56 L38.56,180 L33.6,180 L33.6,190.56 L38.56,190.56 Z M43.36,190.56 L43.36,180 L38.4,180 L38.4,190.56 L43.36,190.56 Z M48.16,190.56 L48.16,180 L43.2,180 L43.2,190.56 L48.16,190.56 Z M52.96,190.56 L52.96,180 L48,180 L48,190.56 L52.96,190.56 Z M57.76,190.56 L57.76,180 L52.8,180 L52.8,190.56 L57.76,190.56 Z M62.56,190.56 L62.56,180 L57.6,180 L57.6,190.56 L62.56,190.56 Z M67.36,190.56 L67.36,180 L62.4,180 L62.4,190.56 L67.36,190.56 Z M72.16,190.56 L72.16,180 L67.2,180 L67.2,190.56 L72.16,190.56 Z M76.96,190.56 L76.96,180 L72,180 L72,190.56 L76.96,190.56 Z M81.76,190.56 L81.76,180 L76.8,180 L76.8,190.56 L81.76,190.56 Z M86.56,190.56 L86.56,180 L81.6,180 L81.6,190.56 L86.56,190.56 Z M91.36,190.56 L91.36,180 L86.4,180 L86.4,190.56 L91.36,190.56 Z M96.16,190.56 L96.16,180 L91.2,180 L91.2,190.56 L96.16,190.56 Z M100.96,190.56 L100.96,180 L96,180 L96,190.56 L100.96,190.56 Z M105.76,190.56 L105.76,180 L100.8,180 L100.8,190.56 L105.76,190.56 Z M110.56,190.56 L110.56,180 L105.6,180 L105.6,190.56 L110.56,190.56 Z M115.36,190.56 L115.36,180 L110.4,180 L110.4,190.56 L115.36,190.56 Z M120.16,190.56 L120.16,180 L115.2,180 L115.2,190.56 L120.16,190.56 Z M124.96,190.56 L124.96,180 L120,180 L120,190.56 L124.96,190.56 Z M129.76,190.56 L129.76,180 L124.8,180 L124.8,190.56 L129.76,190.56 Z M134.56,190.56 L134.56,180 L129.6,180 L129.6,190.56 L134.56,190.56 Z M139.36,190.56 L139.36,180 L134.4,180 L134.4,190.56 L139.36,190.56 Z M144.16,190.56 L144.16,180 L139.2,180 L139.2,190.56 L144.16,190.56 Z M148.96,190.56 L148.96,180 L144,180 L144,190.56 L148.96,190.56 Z M153.76,190.56 L153.76,180 L148.8,180 L148.8,190.56 L153.76,190.56 Z M158.56,190.56 L158.56,180 L153.6,180 L153.6,190.56 L158.56,190.56 Z M163.36,185.28 L163.36,180 L158.4,180 L158.4,185.28 L163.36,185.28 Z" id="▀█▀▄▄████████████████████▄▄▄████████████████████████████▄█████████████████████████████████████▀▀▀▀▀▀▀▀▀▀▀▀▀▀▀▀▀▀▀▀▀▀▀▀█████████████████████████████████████████████▀▀████████████████████████████████▄▄▀▀██████████████████▄████████▀▀▄▄██████▀▀▀▀▀▀████████▄██████████████████████████████████▀█████▄▄▄▄▄▄▄▄▄▄▄▄▄▄▄▄▄▄▄▄▄▄█████▀██████████████▀▀▀▀█████████████████████████████████████████████████████▀▀▀▀▀▀▀▀▀▀▀▀▀▀▀▀▀▀▀▀▀▀▀▀█████▀████▀▀▀▀▀▀▀▀▀▀▀▀▀▀▀█████▀████▀▀▀▀▀▀▀▀▀▀▀▀▀▀▀████████▀▀▀▀▀▀▀▀▀▀▀▀▀▀▀▀▀▀▀▀████████████████████████████████████▀██████████████████████████████▀"></path>
            </g>
        </g>
    </g>
</svg>
