<?xml version="1.0" encoding="UTF-8"?>
<svg width="208px" height="208px" viewBox="0 0 208 208" version="1.1" xmlns="http://www.w3.org/2000/svg" xmlns:xlink="http://www.w3.org/1999/xlink">
    <title>Group</title>
    <g id="Page-1" stroke="none" stroke-width="1" fill="none" fill-rule="evenodd">
        <g id="MEDALHAS_SVG" transform="translate(-438.000000, 0.000000)">
            <g id="Group" transform="translate(438.000000, 0.000000)">
                <g fill-rule="nonzero">
                    <circle id="Oval" fill="#8B7AB8" cx="103.9" cy="104.3" r="103.5"></circle>
                    <path d="M104.3,75.4 L98.3,69.5 L71,69.5 L71,97 L76.8,102.8 L71,108.6 L71,136.1 L98.4,136.1 L104.3,130.2 L110.2,136.1 L137.6,136.1 L137.6,108.6 L131.8,102.8 L137.6,97 L137.6,69.5 L110.2,69.5 L104.3,75.4 Z M132.9,74.3 L132.9,95 L125.1,102.8 L132.9,110.6 L132.9,131.4 L112.2,131.4 L104.3,123.5 L96.4,131.4 L75.7,131.4 L75.7,110.6 L83.5,102.8 L75.7,95 L75.7,74.2 L96.4,74.2 L104.3,82.1 L112.2,74.2 L132.9,74.2 L132.9,74.3 Z" id="Shape" fill="#0F1923"></path>
                </g>
                <path d="M104.3,198.4 C52.4,198.4 10.2,156.2 10.2,104.3 C10.2,52.4 52.4,10.2 104.3,10.2 C156.2,10.2 198.4,52.4 198.4,104.3 C198.4,156.2 156.2,198.4 104.3,198.4 Z M104.3,15 C55.1,15 15,55.1 15,104.3 C15,153.5 55.1,193.6 104.3,193.6 C153.5,193.6 193.6,153.5 193.6,104.3 C193.6,55.1 153.6,15 104.3,15 Z" id="Shape" fill="#0F1923" fill-rule="nonzero"></path>
                <g transform="translate(29.000000, 113.000000)" fill="#0F1923" fill-rule="nonzero">
                    <polygon id="Path" points="17.5 3.3 18.7 8.1 1.9 12.3 0.7 7.5"></polygon>
                    <polygon id="Path" points="23.3 19.1 25.5 23.5 9.9 31.1 8.2 27.5 12.9 19.2 5.8 22.7 3.6 18.3 19.2 10.7 20.9 14.3 16.2 22.6"></polygon>
                    <polygon id="Path" points="16.5 39.9 25.8 24.3 29.4 28.4 23.1 37.8 33.2 32.6 36.8 36.7 20.2 44.1"></polygon>
                    <path d="M35.5,56.4 L36.2,54.2 L32.1,51.4 L30.4,52.9 L26,49.9 L40.2,38.6 L45,41.8 L40,59.2 L35.5,56.4 Z M35.2,48.8 L37.6,50.4 L39.4,45.2 L35.2,48.8 Z" id="Shape"></path>
                    <polygon id="Path" points="50.8 58.4 56.1 60.4 54.4 64.9 44.4 61.2 50.4 45 55 46.7"></polygon>
                    <polygon id="Path" points="62.3 48.9 67.2 49.8 64.1 66.8 59.2 65.9"></polygon>
                    <path d="M76.9,50.2 C79.3,50.1 81.3,50.9 83,52.5 C84.7,54.1 85.5,56.1 85.6,58.6 C85.7,61 84.9,63.1 83.4,64.8 C81.8,66.5 79.9,67.4 77.5,67.5 L70.3,67.7 L69.8,50.4 L76.9,50.2 Z M77.3,62.7 C79.3,62.6 80.7,61 80.6,58.7 C80.5,56.4 79,54.9 77,55 L75,55.1 L75.2,62.8 L77.3,62.7 Z" id="Shape"></path>
                    <path d="M96.7,60.7 L99.7,56.8 C100.8,57.9 102,58.2 103.4,57.6 C104.4,57.2 104.8,56.7 104.6,56.1 C104.5,55.8 104.3,55.6 103.7,55.6 C103.5,55.6 103.2,55.6 103,55.6 C102.8,55.6 102.5,55.6 102.1,55.7 L101.1,55.8 C97.5,56.2 95.2,55.1 94.2,52.7 C93.6,51.2 93.6,49.8 94.3,48.4 C95,47 96.2,45.9 97.9,45.2 C100.6,44.1 103.4,44.4 105.4,46.4 L102.5,50.2 C101.6,49.3 100.6,49 99.6,49.4 C98.8,49.7 98.5,50.3 98.7,50.7 C98.8,51 99.1,51.2 99.5,51.3 C99.9,51.3 100.7,51.3 101.9,51.1 C103.6,50.9 104.5,50.9 105.9,51.2 C107.3,51.5 108.3,52.4 109,54 C110.4,57.3 108.7,60.1 104.9,61.7 C101.6,63.4 98.5,62.9 96.7,60.7 Z" id="Path"></path>
                    <polygon id="Path" points="115.1 35.3 117.9 39.2 114.6 41.6 121.9 51.7 117.9 54.6 110.6 44.5 107.3 46.9 104.5 43"></polygon>
                    <path d="M134.8,39.1 L132.7,38.1 L129.4,41.9 L130.7,43.8 L127.2,47.8 L117.8,32.3 L121.6,27.9 L138.2,35.1 L134.8,39.1 Z M127.2,38.4 L129.1,36.2 L124.2,33.8 L127.2,38.4 Z" id="Shape"></path>
                    <polygon id="Path" points="130.5 13.1 134.7 15.3 132.8 18.9 143.8 24.8 141.5 29.2 130.5 23.3 128.6 26.9 124.4 24.7"></polygon>
                    <polygon id="Path" points="144.5 10.2 146.1 4 150.5 5.2 147.6 16.2 130.9 11.8 133.8 0.9 138.1 2.1 136.5 8.2 138.3 8.7 139.8 3.2 144.1 4.3 142.6 9.8"></polygon>
                </g>
                <polygon id="Path" fill="#0F1923" fill-rule="nonzero" points="115 80.9 107.7 88.2 104.3 91.5 101 88.2 93.7 80.9 82.4 80.9 82.4 92.3 82.4 92.3 82.4 92.3 89.7 99.5 93 102.8 89.7 106.1 82.4 113.4 82.4 113.4 82.4 113.4 82.4 124.8 93.7 124.8 100.9 117.5 104.3 114.1 107.7 117.5 115 124.8 126.3 124.8 126.3 113.4 126.3 113.4 126.3 113.4 119 106.1 115.7 102.8 119 99.5 126.3 92.3 126.3 92.3 126.3 92.3 126.3 80.9"></polygon>
                <polygon id="Path" stroke="#0F1923" stroke-width="4.7806" points="111.2 133.8 104.3 126.9 97.4 133.8 73.4 133.8 73.4 109.7 80.2 102.8 73.4 96 73.4 71.9 97.4 71.9 104.3 78.8 111.3 71.9 135.3 71.9 135.3 96 128.5 102.8 135.3 109.7 135.3 133.8"></polygon>
                <g transform="translate(14.000000, 101.000000)" fill="#0F1923" fill-rule="nonzero" id="Rectangle">
                    <rect x="0" y="0.1" width="64.7" height="4.8"></rect>
                    <rect x="116" y="0.1" width="64.7" height="4.8"></rect>
                </g>
                <g transform="translate(68.000000, 30.000000)" fill="#0F1923" fill-rule="nonzero" id="Path">
                    <polygon points="8.2 0.3 15.2 0.3 15.2 29.3 6.9 29.3 6.9 9 1.9 10.2 1.13686838e-13 3.3"></polygon>
                    <polygon points="44.9 29.3 35.7 29.3 28.5 16.9 28.5 29.3 20.2 29.3 20.2 0.3 28.5 0.3 28.5 11.9 35.3 0.3 44.5 0.3 35.9 14.4"></polygon>
                    <polygon points="54.1 29.3 44.9 0.3 54 0.3 58.8 18.7 63.6 0.3 72.7 0.3 63.5 29.3"></polygon>
                </g>
            </g>
        </g>
    </g>
</svg>