<?xml version="1.0" encoding="UTF-8"?>
<svg width="76px" height="76px" viewBox="0 0 76 76" version="1.1" xmlns="http://www.w3.org/2000/svg" xmlns:xlink="http://www.w3.org/1999/xlink">
    <!-- Generator: Sketch 55.2 (78181) - https://sketchapp.com -->
    <title>westend_icon_shadow</title>
    <desc>Created with Sketch.</desc>
    <defs>
        <circle id="path-1" cx="35.0114713" cy="35.0091687" r="34.9763876"></circle>
        <linearGradient x1="2.37600687%" y1="48.7598272%" x2="106.095061%" y2="48.7000559%" id="linearGradient-3">
            <stop stop-color="#F79420" stop-opacity="0.92" offset="0%"></stop>
            <stop stop-color="#C4C4C4" stop-opacity="0" offset="100%"></stop>
        </linearGradient>
    </defs>
    <g id="Page-1" stroke="none" stroke-width="1" fill="none" fill-rule="evenodd">
        <g id="crunchbot" transform="translate(-479.000000, -193.000000)">
            <g id="coin" transform="translate(476.000000, 192.128992)">
                <g id="networks" transform="translate(3.000000, 0.871008)">
                    <g id="westend_icon_shadow">
                        <circle id="Oval" fill="#021220" cx="38" cy="38" r="38"></circle>
                        <g id="westend_icon" transform="translate(1.000000, 3.000000)">
                            <circle id="Oval" fill="#E6007A" fill-rule="nonzero" cx="35.0114713" cy="35.0091687" r="34.9763876"></circle>
                            <g id="Clipped">
                                <mask id="mask-2" fill="white">
                                    <use xlink:href="#path-1"></use>
                                </mask>
                                <g id="Oval"></g>
                                <g id="Group" mask="url(#mask-2)" fill-rule="nonzero">
                                    <g transform="translate(-118.438995, -121.244019)">
                                        <rect id="Rectangle" fill="url(#linearGradient-3)" x="105.882578" y="118.478693" width="118.919617" height="78.3472488"></rect>
                                        <path d="M117.157635,8.00562201 C118.632104,25.636244 125.855185,42.5735646 137.520359,55.8383971 C149.484121,69.4410885 166.057835,78.6030502 183.826196,81.8629486 C192.579964,83.4742464 201.725598,83.7740072 210.516208,82.2564055 C218.877691,80.813744 227.314115,77.1603469 232.036184,69.7220096 C234.145395,66.4246411 235.433194,62.5084928 235.377093,58.5739234 C235.320993,54.3772727 233.547967,50.5925837 230.953529,47.3697368 C228.079426,43.7914474 224.402333,40.7561603 220.762919,37.9645335 C217.160766,35.2101675 213.278529,32.7744019 209.041687,31.106878 C199.634809,27.4348086 190.284031,29.4770335 181.269438,33.2805622 C171.713098,37.3084928 162.474522,42.0674043 153.21698,46.6952751 C134.272769,56.1569976 114.917924,65.5065191 93.8833134,69.1413278 C88.6013278,70.0590311 83.2260227,70.5840311 77.8693481,70.6401316 C73.0725478,70.6962321 67.8652512,70.6589713 63.218122,69.3473086 C61.165012,68.7666268 59.0558014,67.7919856 57.8613636,65.9373206 C56.3123206,63.5392344 56.8532297,60.5412081 57.5251794,57.9555622 C58.6639354,53.6462919 60.8104067,49.6367823 63.5911483,46.1706938 C69.3397727,38.9948565 77.4960706,34.235945 86.2496292,31.7440789 C91.2516567,30.3202153 96.440323,29.5892344 101.628989,29.3083134 C106.631017,29.0462321 111.950305,28.8586722 116.914992,29.6830144 C121.7677,30.4700957 125.127261,33.5053828 126.788379,38.1144139 C128.46817,42.7422847 128.169539,47.6510766 128.001573,52.4849282 C127.758959,59.7357057 128.356178,70.0967105 136.493804,73.0570574 C140.711932,74.5935407 145.751304,72.9821172 149.876071,71.7830742 C154.168888,70.527512 158.349671,68.8788278 162.3439,66.8742823 C166.468541,64.794378 170.388038,62.3401914 174.046292,59.5108852 C177.182057,57.112799 180.821471,54.4145335 182.930682,51.0045455 C184.423624,48.5876196 185.282297,45.2714115 182.631758,43.3602273 C182.482715,43.2480263 182.221053,43.266866 182.07201,43.3602273 C174.400897,48.0630383 170.145634,56.5132775 168.54049,65.1690789 C167.047129,73.2441986 167.08439,83.1931998 172.478409,89.9194378 C176.808612,95.3154246 185.300718,96.7580861 190.657476,91.8867225 C193.214653,89.563451 194.017225,85.9848684 192.841208,82.7435586 C191.441208,78.902811 187.857895,76.1861244 183.956818,75.2491627 C178.824462,74.0124402 173.411603,75.3990431 168.558911,77.0854067 C164.060825,78.6591507 159.749462,80.7200478 155.624695,83.0995036 C147.020472,88.0645634 139.21878,94.2661782 131.267835,100.205544 C123.148882,106.257279 114.805932,112.121663 105.436495,116.074946 C94.9284988,120.534135 83.4873086,122.782462 72.0648325,122.632577 C66.9136364,122.557629 61.03439,122.463949 56.3123206,120.159417 C51.2356459,117.667522 49.6677632,112.383953 50.9555622,107.137847 C52.1872608,102.116603 55.2480861,97.8635167 58.6823565,94.1350538 C62.0982057,90.425305 65.9988636,87.1652392 70.1796053,84.3548565 C78.5226256,78.7713517 87.8920754,74.9305622 97.4855084,72.101256 C99.8931818,71.3895335 102.319528,70.7523325 104.745915,70.1716507 C107.3589,69.5344498 110.251842,68.5979067 112.958188,68.7666268 C119.061384,69.1597488 119.994611,76.5043062 121.039809,81.2446711 C125.705849,102.172829 127.516304,124.056516 136.381812,143.804282 C137.483014,146.277476 138.696208,148.694402 140.040024,151.036429 C140.954587,152.647727 142.07442,154.39015 144.052841,154.708666 C148.382961,155.364456 151.014617,149.856059 152.302458,146.633463 C154.000879,142.361621 155.438056,136.665873 154.168888,132.09427 C153.049013,128.103517 149.316154,126.623343 145.489976,126.97933 C140.711932,127.429013 136.195173,129.789755 131.865096,131.682099 C126.452446,134.042799 121.095792,136.572177 115.795139,139.176495 C105.268487,144.347661 94.8911543,149.818589 84.3458553,154.989713 C63.3110646,165.388397 41.1379785,174.700239 17.5837321,177.192105 C11.9284689,177.791627 6.25478469,177.978768 0.580681818,177.697847 C0.767404306,177.884988 0.954126794,178.072548 1.14043062,178.259689 C1.28989234,170.952811 6.85179426,164.994856 13.4590909,162.577805 C20.7940191,159.898589 28.8569976,161.922057 35.4081938,165.725419 C42.481878,169.847548 47.9319976,176.049163 52.9714115,182.419079 C57.8797847,188.639533 62.6395335,194.953768 68.1080742,200.724581 C88.2840251,221.952333 114.749941,237.109928 143.268941,243.592464 C149.838768,245.091268 157.304444,246.496711 163.05311,241.99988 C167.233852,238.720933 169.119079,233.419019 169.80945,228.303828 C170.612022,222.177153 169.940072,215.675778 168.055263,209.792763 C165.964474,203.272548 161.466388,198.682356 154.448846,198.157775 C146.871136,197.595514 139.069486,200.593122 131.865096,202.504306 C122.887554,204.883971 113.928726,207.263218 104.951226,209.642883 C96.0856758,211.984868 87.2387978,214.345694 78.3732895,216.687679 C74.0057416,217.849043 69.6198565,219.010825 65.2523923,220.172608 C60.9033493,221.333971 56.5363038,222.776675 52.1127392,223.582596 C47.8570574,224.350419 44.4232057,222.364713 44.2549043,217.867883 C44.1242823,214.626615 45.2814593,211.422608 46.6814593,208.556041 C50.0596292,201.642285 53.8669258,194.953768 58.0665072,188.508493 C66.6896531,175.243242 76.9548266,163.046244 88.5639833,152.310455 C91.3822787,149.706178 94.2752632,147.1768 97.2428947,144.741118 C96.981567,144.741118 96.7202811,144.741118 96.4589533,144.741118 C105.511142,151.785873 106.425706,164.376495 108.254791,174.85012 C109.43064,181.594737 110.90512,188.302512 112.622213,194.934928 C113.499432,198.307656 114.451319,201.661124 115.477844,204.996172 C116.31774,207.750538 117.045652,210.692045 118.352146,213.258852 C119.229371,214.963636 120.573204,216.687679 122.588936,216.9686 C124.548672,217.249522 126.172446,216.050478 127.329665,214.570514 C129.028086,212.359569 130.091986,209.605203 131.267835,207.094498 C132.667626,204.11573 134.011441,201.099282 135.280652,198.063995 C140.264007,186.166507 144.258152,173.838218 147.207069,161.285024 C150.529306,147.06439 152.507727,132.525197 153.12366,117.91109 C153.142333,117.349005 152.358433,117.16165 152.078475,117.630047 C145.489976,128.965371 142.429067,142.230496 143.530227,155.30823 C144.444791,166.26884 148.793541,177.922667 160.085437,181.632416 C165.722069,183.487081 171.8814,183.24384 177.667285,182.269199 C183.695574,181.257715 189.612081,179.477572 195.174402,176.948445 C206.167584,171.945873 215.667823,163.627093 220.688397,152.460377 C223.058852,147.195514 224.421172,141.443541 224.346651,135.654139 C224.29055,130.651609 223.394617,124.618597 219.437859,121.114956 C214.902512,117.08671 208.892644,119.466187 204.655801,122.688786 C200.176136,126.09872 196.42494,130.445502 193.494318,135.241926 C179.477572,158.137368 184.647608,187.646471 192.29988,211.834988 C199.933732,235.929306 212.532057,258.431459 229.124402,277.467105 C231.159091,279.809091 233.267883,282.094976 235.433194,284.324761 C235.955682,284.849342 236.664892,284.0811 236.216926,283.537679 C213.857117,255.077572 190.022787,227.779246 164.788876,201.829844 C139.722721,176.067584 113.294121,151.579767 85.6710407,128.571914 C72.4005981,117.517637 58.5333134,107.175317 45.4493421,95.914988 C39.2531699,90.5751854 33.2805622,84.954378 27.8677033,78.8090311 C25.068122,75.6238636 22.4180024,72.2888158 19.9914474,68.8038876 C18.9087919,67.2301435 17.8449761,65.6375598 16.8561005,64.0072967 C16.3520335,63.1829545 15.8668062,62.3586124 15.4,61.5342703 C14.6907895,60.2979665 14.7096292,59.7357057 15.3254785,58.4805622 C18.722488,51.6605861 28.1850478,50.3861842 34.8857057,49.7117225 C43.769677,48.8312799 52.7285885,49.2997608 61.5196172,50.8546651 C79.2505084,53.9837321 96.029701,61.1784091 111.838313,69.6282297 C142.671681,86.0785646 170.630861,108.224563 203.946591,119.72849 C211.860108,122.463949 219.997608,124.543648 228.303409,125.649079 C232.44689,126.211172 236.608792,126.529647 240.789533,126.585873 C242.525299,126.604629 243.383971,126.97933 244.242644,125.405507 C245.082476,123.869149 245.549282,122.145437 245.679904,120.384254 C246.239653,113.414444 242.040072,106.800616 236.870036,102.491346 C231.7561,98.2382596 225.354366,95.8212919 218.840431,94.8470275 C202.938457,92.4862859 188.063038,98.9502333 174.289115,106.257279 C170.444139,108.299504 166.636423,110.397955 162.791866,112.421423 C159.170873,114.332524 153.534282,118.45444 149.428146,115.887596 C146.367195,113.976537 145.657943,109.629755 145.247362,106.332219 C144.650102,101.479569 144.276824,96.5894916 143.959522,91.7180861 C142.709025,72.3076555 143.287614,52.784689 145.695287,33.4865431 C146.31122,28.4651316 147.076447,23.4441388 147.953666,18.459988 C148.662919,14.4320574 149.148188,10.0851077 150.827978,6.30041866 C152.5264,2.51572967 155.904653,0.0615430622 160.141453,1.5791866 C164.210287,3.040311 167.271112,6.76889952 170.126794,9.86028708 C190.508014,31.9877392 204.301196,60.3729067 228.732536,78.6214713 C235.13427,83.3993062 242.525299,88.1395036 250.569856,89.2074641 C257.139474,90.0880742 264.717225,87.8397428 268.226017,81.7880084 C270.241866,78.3032895 270.316388,74.2 269.887261,70.3026914 C269.420873,66.0311005 268.562201,61.7779306 267.610167,57.5808612 C265.687679,49.1498804 263.01872,40.9060407 259.65939,32.9619617 C256.26238,24.9617823 252.15616,17.2797847 247.39683,10.0101675 C247.266208,9.8041866 247.004964,9.67314593 246.762141,9.74808612 C231.04689,15.3125 225.484988,32.5123206 217.608732,45.5711722 C213.185167,52.9157297 207.249821,60.3352273 199.224522,63.8574163 C190.769677,67.5860048 181.698565,64.9819378 175.446292,58.4240431 C167.420574,49.9930622 165.647548,38.020634 164.079665,26.9851675 C163.799581,27.1911483 163.538337,27.4159689 163.258254,27.6219498 C177.387201,33.8235646 183.266447,49.374701 189.071172,62.565012 C190.601376,66.0495215 192.169258,69.5160287 193.923864,72.8883373 C196.126017,77.1226675 198.645933,81.1697309 200.885347,85.404061 C205.028828,93.2544438 208.276376,102.39765 205.588995,111.297279 C203.031818,119.747225 195.323445,123.044769 188.025778,126.548403 C184.722129,128.140987 181.418481,129.883409 178.7311,132.412787 C175.782057,135.185742 173.803469,138.783038 172.198325,142.455317 C168.895096,150.043409 166.655263,158.999222 159.22689,163.702033 C155.027434,166.36262 150.603995,166.025179 146.199228,164.020634 C142.46637,162.33427 139.013469,160.3857 134.982022,159.448906 C120.237229,156.057673 102.767494,163.008732 96.4776256,177.360407 C92.8380861,185.679187 94.8724821,194.897667 98.7173325,202.766806 C102.226208,209.942644 107.3589,216.275299 113.406112,221.465012 C126.825724,232.968959 144.164833,238.365072 161.634689,238.964593 C170.948206,239.283194 180.466866,238.402751 189.5564,236.341687 C196.797967,234.693002 204.058373,232.032416 209.97488,227.404545 C215.835706,222.832775 219.680263,216.312978 220.12823,208.799701 C220.688397,199.656579 216.787321,190.813218 212.569318,182.944079 C208.108493,174.625299 202.863935,166.26884 201.520036,156.750891 C200.288337,148.094839 203.050658,139.794815 207.138038,132.262907 C211.113636,124.918374 216.134211,118.229602 220.352213,111.034946 C224.999761,103.109623 227.818182,94.603451 230.169797,85.7412919 C234.369378,69.8342105 239.24049,49.5806818 256.22512,42.6857656 C265.79988,38.7888756 276.307835,41.3929426 285.677452,44.57811 C293.945574,47.3885766 302.269797,50.4238636 310.089952,54.358433 C317.480981,58.0681818 324.498983,62.8082536 329.70628,69.3284689 C330.396651,70.1904904 331.460885,71.0520933 331.012919,72.1200957 C330.695574,72.8694976 330.098146,73.5816388 329.631758,74.2372608 C328.399641,75.9613038 327.00006,77.5534689 325.450598,79.015012 C322.557656,81.7692524 319.216746,83.9988696 315.689533,85.7975179 C308.373026,89.5447368 300.216687,91.5307356 292.097608,92.4675299 C282.76567,93.5542464 273.321531,93.4980203 263.970754,92.4862859 C244.821232,90.4065909 226.231459,84.2798744 208.892644,75.9985646 C200.288337,71.8952751 191.964115,67.2113038 183.901136,62.1337919 C176.099402,57.2061603 168.521651,51.9415072 160.570873,47.2575359 C152.862374,42.723445 144.743421,38.7139354 136.064551,36.3719498 C128.804145,34.4046651 118.408137,32.9808014 114.357987,41.1869617 C113.032835,43.8663876 113.144827,47.051555 114.89926,49.5057416 C116.355068,51.5479665 118.669432,52.6909091 120.983809,53.5152512 C126.657757,55.5386364 134.403433,55.9133373 137.576334,61.8901316 C141.029234,68.3919258 138.13625,76.429366 141.253218,83.0620335 C141.850437,84.3361005 142.429067,85.5726974 143.866202,85.834988 C145.396657,86.1160347 146.983128,85.9473983 148.49491,85.6288816 C151.779844,84.954378 155.382039,82.9870933 158.797596,83.5866567 C163.407715,84.3923266 163.05311,89.6946172 164.228708,93.1233194 C165.162321,95.8212919 167.81244,98.7628409 170.892105,97.563756 C171.358493,97.3764055 171.470694,96.6082057 170.892105,96.4770813 C156.856519,93.2919139 142.223714,94.0601136 127.926926,94.1537679 C112.827524,94.2662201 97.7467943,94.4161005 82.6474342,94.6222069 C67.5479067,94.8282715 52.4673445,95.0718481 37.3679426,95.3528947 C31.917823,95.465305 26.1880383,95.1467883 20.9434809,96.9267225 C18.9648923,97.5824701 17.0239833,98.5567763 15.5678828,100.093134 C14.6723684,101.029928 12.9550239,103.3532 13.4218301,104.739635 C13.738756,105.676471 15.3438995,106.800616 16.0535287,107.493834 C17.1730263,108.58055 18.3302033,109.611041 19.5250598,110.622775 C21.6526914,112.402709 23.910945,114.070191 26.2441388,115.587835 C31.1340909,118.791687 36.3786483,121.395998 41.7915072,123.569371 C53.307177,128.197171 65.5136364,130.801489 77.7200538,132.712548 C106.630975,137.246681 136.027207,137.677608 165.199581,136.10378 C179.981639,135.298152 194.744856,133.986615 209.471232,132.431501 C215.182177,131.83198 220.893541,131.007596 226.642165,131.232416 C231.513696,131.419767 236.739414,132.244151 240.789533,135.129516 C242.786962,136.553463 244.279904,138.445807 245.28762,140.656669 C245.325299,140.431806 245.34372,140.206986 245.380981,139.982123 C239.483313,144.722362 232.409629,147.476561 225.149222,149.331435 C217.45927,151.29872 209.545754,152.535317 201.669498,153.547051 C185.263457,155.645502 168.652273,156.15137 152.153122,155.102123 C143.922177,154.577542 135.803224,153.453355 127.628295,152.366681 C124.884647,152.010694 121.861032,152.029408 119.826624,154.221555 C118.314828,155.832853 118.053523,158.099898 118.240162,160.217063 C118.501467,163.083672 119.397346,165.838038 120.069267,168.610825 C120.909154,172.133014 121.599725,176.405024 117.269618,177.697847 C114.003373,178.690909 110.158523,178.072548 106.817656,177.959928 C102.524839,177.828888 98.2507356,177.697847 93.9579605,177.566806 C74.8455742,176.967285 55.7148923,176.386184 36.6026316,175.786663 C36.0613038,175.767823 35.8188995,176.573744 36.3225478,176.835825 C54.707177,186.503947 73.0913876,196.152811 91.4755981,205.820514 C99.9118541,210.261244 108.273421,215.113517 117.194963,218.523505 C125.3139,221.615311 134.310114,223.263995 142.746328,220.434689 C150.473331,217.849043 156.725855,212.209689 162.231699,206.363935 C167.999163,200.2561 173.18762,193.586005 177.741806,186.503947 C186.905861,172.226794 193.457057,156.207554 196.797967,139.551238 C200.642943,120.440459 200.381699,100.861292 200.791986,81.4507356 C200.997548,71.6704545 201.389414,61.8528708 202.583852,52.1286483 C203.199701,47.051555 204.039952,41.9924641 205.197129,37.0087321 C206.148744,32.9058612 207.399282,28.7648923 209.676376,25.1866029 C211.97189,21.6078947 215.331639,18.8723684 219.549641,18.0291866 C223.469139,17.2425239 227.444737,18.3477871 229.908553,21.6078947 C233.417344,26.2730263 233.566806,33.2989833 238.288876,37.0836722 C244.074761,41.7303828 252.175,37.1213517 257.083792,33.3739234 C262.776316,29.0273923 268.319378,22.4510766 275.654725,21.0272129 C277.427751,20.6897727 279.36866,20.670933 281.048325,21.3642344 C283.49372,22.3761364 284.296292,24.6243421 284.333553,27.1162081 C284.389234,32.0438397 283.773385,37.0652512 283.306998,41.9740431 C282.859031,46.5642344 282.802931,51.8288876 280.432476,55.9133373 C278.06244,60.0166268 273.396053,61.6092105 269.234151,63.2394737 C264.568182,65.075299 259.883373,66.9115431 255.216986,68.7477871 C250.868361,70.4525718 246.444797,72.5324761 241.778828,73.2257775 C236.683732,73.9936005 231.849462,72.363756 227.314115,70.152811 C223.301256,68.1855263 219.437859,65.8996411 215.705084,63.4642943 C200.605682,53.5901914 187.671172,40.8311005 173.038577,30.3202153 C158.984234,20.2401316 142.447697,11.7153708 124.791328,11.5654904 C117.381602,11.5089713 108.758732,12.4270933 104.223301,19.0599282 C100.378451,24.6804426 100.154468,32.0811005 99.6132237,38.6389952 C98.8479964,47.8009569 96.1789952,56.4383373 94.4619019,65.4315789 C93.0060945,73.1508373 92.8941029,80.8512141 95.5444318,88.3268541 C100.17314,101.404629 111.446364,112.102907 124.82863,115.718959 C132.219701,117.723727 139.629402,116.843146 147.09512,115.775185 C155.046065,114.632285 164.154187,113.020987 171.564055,117.142915 C179.253589,121.433469 182.146531,130.595383 181.624043,138.970389 C181.306699,143.954205 179.944378,148.806812 178.301555,153.490825 C177.051435,157.088164 174.176914,161.659767 176.323385,165.425658 C177.144378,166.849522 178.394916,168.011304 179.514833,169.173086 C181.082715,170.802931 182.650598,172.414354 184.293002,173.969258 C187.167105,176.667524 190.24677,179.196651 193.69988,181.126675 C201.202691,185.304486 209.172309,185.154605 217.104665,182.306878 C221.285407,180.808074 225.279844,178.859629 229.348385,177.098325 C233.678589,175.224821 238.064892,173.519617 242.525299,171.983134 C251.129605,169.004366 259.957895,166.66238 268.879545,164.938756 C286.909151,161.472374 305.442823,160.554336 323.714833,162.278044 C332.729844,163.121352 341.669916,164.620156 350.479785,166.737321 C351.188995,166.906041 351.4875,165.819199 350.778289,165.650478 C315.446711,157.144348 277.838457,158.849342 243.402811,170.48433 C239.091447,171.945873 234.835766,173.557297 230.636184,175.318182 C226.399342,177.098325 222.274701,179.14055 218.000598,180.770395 C213.651974,182.419079 209.023266,183.655801 204.338457,183.31878 C200.045514,183.000179 195.995395,181.332656 192.412081,179.00951 C188.828349,176.704785 185.674163,173.800538 182.669019,170.802931 C181.362799,169.491268 180.05616,168.161184 178.805622,166.793421 C178.040311,165.950239 177.275419,165.088636 176.901974,163.982955 C176.323385,162.296758 176.864713,160.61052 177.443301,159.017978 C180.485287,150.661687 183.751675,142.02439 182.538397,132.956124 C181.549522,125.592853 177.648445,118.641803 170.724222,115.494139 C163.762321,112.327769 155.792661,113.4332 148.49491,114.463648 C140.487949,115.587835 132.592978,116.768206 124.660664,114.519874 C117.549577,112.496364 111.073086,108.411914 105.959067,103.072153 C100.845048,97.7323505 97.0562141,91.0810945 95.3950957,83.8489474 C93.3606998,75.0431818 95.2831041,66.2370813 97.3735167,57.6373804 C98.4560467,53.2154904 99.5572488,48.8124402 100.154468,44.297189 C100.658409,40.6251196 100.826417,36.9153708 101.199695,33.2428828 C102.002225,25.6923445 103.999318,17.4485048 111.875658,14.4881579 C116.093773,12.9144139 120.890477,12.6519139 125.369916,12.7268541 C129.868002,12.820634 134.347416,13.476256 138.714839,14.5630981 C147.505742,16.7740431 155.792661,20.6897727 163.519498,25.3925837 C178.880562,34.7232656 191.851914,47.3697368 206.167584,58.143122 C213.260108,63.4827153 220.800179,68.6540072 228.975359,72.1950359 C232.876017,73.8813995 237.000658,74.9494019 241.274761,74.4436603 C245.772847,73.9002392 250.009689,72.0078947 254.190849,70.3592105 C258.856818,68.5229665 263.541627,66.6867225 268.207596,64.8504785 C271.82817,63.4266148 275.785347,62.1714713 278.771651,59.5858254 C281.906998,56.8879785 283.026914,52.9345694 283.586663,48.9811603 C284.258612,44.2595096 284.632057,39.482177 284.967823,34.7416866 C285.136124,32.399701 285.341268,30.0577153 285.378529,27.7157297 C285.415789,25.8794856 285.229486,24.0059809 284.14683,22.4694976 C282.467165,20.0714115 279.31256,19.47189 276.569079,19.752811 C269.532656,20.4649522 263.896232,26.291866 258.707356,30.5822967 C253.5189,34.8731459 243.477333,42.0489833 237.635347,34.9665072 C233.77195,30.2825359 233.809211,23.2565789 229.04988,19.1348684 C224.010467,14.7879187 216.134211,16.5864833 211.654964,20.8773325 C205.682356,26.5916268 204.039952,35.6225478 202.658792,43.4167464 C199.261782,62.6022727 199.709749,82.1439952 199.187261,101.55451 C198.683194,120.477929 196.965849,139.307661 190.657476,157.256758 C184.890431,173.707177 175.94994,189.033074 164.471531,202.110766 C158.890915,208.44384 152.657063,214.907536 144.83674,218.373624 C135.915215,222.308194 126.209791,220.79055 117.381602,217.418242 C108.124127,213.896053 99.4452572,208.780861 90.6916986,204.17183 C81.6022069,199.394079 72.512799,194.616328 63.4232656,189.838577 C54.5388756,185.173445 45.6549043,180.508313 36.7705144,175.842763 C36.6771531,176.199043 36.5842105,176.536065 36.4908493,176.892344 C53.8669258,177.435347 71.2622608,177.959928 88.6386304,178.503349 C96.9442225,178.765849 105.343176,179.402632 113.648768,179.252751 C116.019118,179.21549 118.762762,178.87805 120.442544,177.004545 C122.308978,174.943481 121.842356,171.964713 121.301095,169.472847 C120.274569,164.601316 115.888471,153.959264 124.306059,153.303475 C126.116471,153.153594 127.964228,153.547051 129.737339,153.828098 C131.790407,154.146615 133.843475,154.427661 135.896543,154.689952 C140.133343,155.233289 144.388816,155.664217 148.662919,155.982733 C165.274103,157.2568 181.997069,156.938283 198.533732,155.027183 C207.324761,154.015449 216.15305,152.703911 224.756938,150.549276 C232.409629,148.638218 239.85634,145.752853 246.052931,140.769079 C246.258493,140.600443 246.239653,140.300682 246.146292,140.094575 C242.170694,131.419767 231.737679,129.920879 223.245156,130.089516 C217.235287,130.220682 211.244258,131.120006 205.29049,131.738283 C198.030084,132.487727 190.769677,133.162231 183.50927,133.743038 C154.747434,136.047596 125.761866,136.815754 97.0189115,134.042841 C83.8046112,132.768774 70.5342105,130.895185 57.6746411,127.578894 C46.1962321,124.618597 34.9041268,120.346772 25.1053828,113.564324 C22.5858852,111.82186 20.1965909,109.929516 17.9383373,107.849821 C16.930622,106.913026 15.904067,105.976232 14.9892943,104.945742 C14.4483852,104.346178 14.4107057,104.233768 14.6723684,103.46561 C14.9147727,102.791106 15.2509569,102.154073 15.6800837,101.573266 C18.591866,97.6761663 24.4895335,96.8892524 28.9876196,96.6644318 C36.136244,96.308445 43.3405502,96.3646292 50.488756,96.2334629 C57.8052632,96.1023385 65.1217703,95.9899282 72.4378589,95.8775179 C87.182823,95.6714115 101.92762,95.484061 116.672362,95.3716507 C123.988756,95.3154246 131.286465,95.2591986 138.602889,95.2217285 C145.583295,95.1842584 152.563744,95.1655443 159.52552,95.8212919 C163.220993,96.1772787 166.879246,96.739372 170.500239,97.563756 C170.500239,97.2077691 170.500239,96.8330682 170.500239,96.4770813 C167.08439,97.7885766 165.255263,93.4230801 164.714354,90.818762 C164.228708,88.5142464 163.892943,85.9661543 162.176017,84.2049342 C159.189545,81.1135048 154.728804,82.6686184 151.201256,83.699067 C149.054868,84.3361005 146.31122,85.3291208 144.052841,84.7295574 C141.906453,84.14875 141.197201,80.0830144 140.898571,78.1906699 C140.152016,73.3940789 140.823923,68.3919258 139.405419,63.7075359 C136.773762,55.0517344 127.534976,54.9206938 120.461208,52.1286483 C116.056446,50.3866029 112.827524,46.3394139 115.328529,41.5055622 C118.669442,35.0602871 126.69506,35.3600478 132.760945,36.7089713 C144.687404,39.3507177 155.531376,45.327512 165.77817,51.7916268 C176.192763,58.3491029 186.308852,65.337799 197.115311,71.2584928 C218.747069,83.0807895 242.506878,91.8305383 267.181041,93.9102333 C278.696711,94.8844976 290.604665,94.5285108 301.877931,91.8680084 C311.620574,89.563451 321.419318,85.2728947 328.175658,77.6472488 C329.76238,75.8486842 331.161962,73.8813995 332.337978,71.8014952 C332.43134,71.6331938 332.449761,71.3895335 332.337978,71.2396531 C326.25317,62.3586124 317.182476,56.4194976 307.570455,51.9787679 C302.661663,49.6933014 297.603828,47.7632775 292.527153,45.9086124 C286.405084,43.659988 280.227333,41.3745215 273.787919,40.2688397 C267.759629,39.2385167 261.506938,39.3134569 255.758313,41.6177632 C251.260227,43.4351675 247.34073,46.4331938 244.130443,50.0491627 C236.590371,58.5366627 233.11884,69.4595096 230.281579,80.2516507 C228.639175,86.4532656 227.127392,92.7111065 224.869139,98.7441268 C222.797189,104.308708 219.941926,109.442404 216.787321,114.444934 C211.094797,123.456961 204.338457,132.244151 201.333313,142.642667 C199.858792,147.738852 199.504187,153.041184 200.43738,158.268535 C201.501615,164.226615 204.077213,169.809868 206.857955,175.131041 C212.64384,186.203768 220.688397,198.195036 218.541926,211.347667 C216.731639,222.345873 207.2875,229.18427 197.488756,232.800658 C186.252751,236.960048 173.654426,238.252871 161.765311,237.87817 C138.192267,237.147189 113.947398,226.992165 101.498325,205.951974 C98.344055,200.611962 95.8430622,194.579067 95.4884151,188.302512 C95.0964653,181.557476 97.7094916,175.374701 102.188906,170.42823 C109.411968,162.502865 120.591855,158.699462 131.137171,159.973529 C133.750156,160.292004 136.34451,160.929037 138.808158,161.903343 C141.570478,162.990018 144.127488,164.545215 146.889809,165.650478 C151.723828,167.580502 156.632578,166.999402 160.794856,163.833074 C169.753349,157.013224 170.369617,145.040879 176.584629,136.347356 C182.855742,127.578894 194.689175,126.848206 201.968002,119.353772 C209.471232,111.615795 208.220694,99.6059809 204.338457,90.444061 C201.85622,84.6171471 198.440371,79.277512 195.435646,73.7315191 C192.99067,69.1974282 190.91872,64.4757775 188.847189,59.7545455 C184.983373,50.948445 181.101555,41.7115431 174.513098,34.5545455 C171.433433,31.2194976 167.7936,28.502811 163.631699,26.6854067 C163.164892,26.4790072 162.735766,26.8164474 162.810287,27.322189 C164.247548,37.3273325 165.796591,47.9692584 171.974761,56.2880383 C176.958074,63.0146531 184.703708,67.7358852 193.270335,66.6494617 C201.501615,65.6187201 208.239115,59.8106459 213.241268,53.5529306 C218.728648,46.6952751 222.23744,38.676256 226.548804,31.0696172 C231.326974,22.6382177 237.374103,14.2072368 246.855502,10.8533493 C246.650359,10.7595694 246.426376,10.6846292 246.220813,10.5908493 C256.057237,25.6174043 263.074821,42.4236842 266.807596,60.0166268 C268.562201,68.3169856 271.511244,79.539677 263.261543,85.3103648 C255.646531,90.6314115 246.090191,87.933439 238.624641,83.8302333 C211.393301,68.8976675 196.35,39.7630981 177.200478,16.5303828 C174.774342,13.5700359 172.254426,10.6846292 169.641567,7.91184211 C167.065969,5.17631579 164.359749,2.2159689 160.832117,0.736004785 C157.939049,-0.463038278 154.691459,-0.200956938 152.302458,1.95388756 C150.062709,3.99611244 148.980221,7.0875 148.270969,9.9729067 C146.068565,18.9661483 144.93006,28.3713517 143.922177,37.5709928 C142.839647,47.2947967 142.223714,57.0562799 142.07442,66.8366029 C141.925084,76.6169258 142.223714,86.3970813 142.988983,96.1585646 C143.324916,100.430365 143.5489,104.814617 144.370144,109.030191 C144.911388,111.803146 145.937943,114.913331 148.345616,116.637039 C151.257231,118.716747 154.728804,117.611312 157.677763,116.224868 C161.783732,114.276298 165.75933,112.046722 169.753349,109.892087 C177.667285,105.620245 185.655323,101.310975 194.241208,98.4817943 C207.772727,94.0226435 224.626316,93.7415969 236.105144,103.46561 C241.778828,108.280789 247.061065,117.161642 243.23451,124.618589 C242.655921,125.761489 241.797667,125.499199 240.621651,125.480443 C239.613935,125.461728 238.624641,125.442972 237.616926,125.405507 C235.433194,125.311831 233.249462,125.143212 231.084151,124.918374 C226.810048,124.468704 222.554785,123.738004 218.374043,122.782462 C183.807775,114.969516 154.803451,93.2731998 124.716681,75.6799641 C109.281304,66.6494617 93.174061,58.3867823 76.0027512,53.2343301 C67.7346292,50.7613038 59.2425239,49.0372608 50.619378,48.4188995 C42.5940789,47.8570574 34.0458732,47.9692584 26.206878,49.9742225 C23.1828947,50.7424641 20.1593301,51.9226675 17.6770933,53.8526914 C16.5944378,54.6958732 15.6239833,55.6700957 14.8586722,56.8130383 C14.2989234,57.6558014 13.1978469,59.4171053 13.3657297,60.4851077 C13.5151914,61.3282895 14.4107057,62.3962919 14.8402512,63.1268541 C15.3254785,63.9511962 15.8295455,64.7755383 16.3331938,65.5814593 C17.45311,67.3611842 18.6291268,69.1036483 19.8608254,70.8088517 C22.1190789,73.9375 24.545634,76.9539474 27.1023923,79.8581938 C38.1332536,92.3364055 51.3474282,102.585 64.3376196,112.871106 C92.7821112,135.241926 119.919943,159.074163 145.732632,184.330263 C171.433433,209.493002 195.846352,235.985825 218.78433,263.714952 C224.421172,270.516089 229.964234,277.411005 235.433194,284.362022 C235.694438,284.09994 235.955682,283.83744 236.216926,283.575359 C219.829725,266.581519 206.802273,246.42177 198.011244,224.481878 C193.64378,213.577452 190.302871,202.242225 188.119139,190.681758 C185.636902,177.510287 184.703708,163.664354 188.2125,150.605502 C191.086603,139.907183 197.096471,129.190191 206.428828,122.857414 C209.135048,121.021279 212.475957,119.522392 215.779605,120.402977 C218.560766,121.152427 220.427153,123.606854 221.50939,126.136232 C223.730383,131.307356 223.6186,137.602667 222.554785,143.036124 C220.296531,154.652482 212.942763,164.620156 203.255801,171.196471 C193.811663,177.604067 181.866447,181.651256 170.444139,181.913337 C164.620993,182.044378 158.517638,180.901854 153.926232,177.079486 C149.614785,173.500778 147.151094,168.217285 145.825951,162.840096 C142.932967,151.055144 144.426118,138.05235 148.830885,126.848206 C150.006734,123.869149 151.425197,121.002543 153.030341,118.229602 C152.675736,118.135927 152.339761,118.042248 151.985156,117.94856 C150.93997,142.755078 145.900598,167.355682 137.091065,190.569557 C134.814013,196.583612 132.257004,202.504306 129.476053,208.293959 C128.37485,210.598266 127.255018,213.914474 124.977967,215.357177 C122.029007,217.230682 119.863952,214.158134 118.856081,211.722368 C116.448395,205.877033 114.917924,199.469019 113.350138,193.361184 C111.726322,187.04695 110.363834,180.658194 109.262632,174.250179 C107.433547,163.683194 106.369689,151.0739 97.2428947,143.972919 C96.981567,143.766854 96.7016089,143.766854 96.4589533,143.972919 C84.3831998,153.884282 73.5577751,165.238517 64.2069976,177.772787 C59.4849282,184.086603 55.1735646,190.700598 51.254067,197.557835 C49.2943182,200.986663 47.4467703,204.471591 45.7294258,208.01262 C44.4788876,210.579426 43.4895933,213.296112 43.2099282,216.163098 C42.985945,218.542344 43.3217105,221.184091 45.0202153,222.982656 C47.2784689,225.38116 50.6943182,225.1375 53.6245215,224.444199 C62.583433,222.327033 71.4674043,219.722548 80.3703828,217.362141 C98.1947608,212.621651 116.019118,207.900419 133.843475,203.159928 C141.215873,201.211483 149.96939,197.670455 157.640419,199.84372 C165.404725,202.054665 167.719079,210.654366 168.633852,217.774103 C169.398744,223.769737 169.1936,230.439833 166.45012,235.948146 C165.143481,238.571053 163.220993,240.838098 160.645395,242.26238 C156.819175,244.379545 152.358433,244.191986 148.17765,243.480263 C133.320903,240.913038 118.744098,235.311364 105.548487,228.097847 C92.2968421,220.86549 80.1463995,211.628589 69.6571172,200.761842 C64.1697368,195.065969 59.3731459,188.864354 54.5204545,182.644318 C49.6861842,176.461124 44.534988,170.372129 37.9276914,166.00634 C31.9739234,162.071938 24.7323565,159.46762 17.5276316,160.441926 C11.5554426,161.247554 5.82523923,164.732356 2.57769139,169.847548 C0.954126794,172.376675 0.0766148325,175.262081 0.0209330144,178.278529 C0.0209330144,178.597129 0.282177033,178.82195 0.580681818,178.840789 C43.9375598,180.864175 82.0501734,156.750891 119.639985,138.614402 C124.380706,136.3286 129.140078,134.117781 133.974139,132.038086 C138.173594,130.239396 142.914336,127.728774 147.636364,128.103517 C154.094199,128.628098 153.888888,135.654139 152.955694,140.525502 C152.507769,142.867488 151.798517,145.172045 150.827978,147.345437 C149.782751,149.706178 148.233624,152.816322 145.508648,153.547051 C142.559689,154.333965 141.122554,150.717913 140.021352,148.656932 C138.808158,146.37113 137.688325,144.010431 136.66177,141.630933 C134.720694,137.078086 133.152895,132.394073 131.809079,127.63512 C129.121406,118.098457 127.38564,108.336974 125.61253,98.5942464 C124.698008,93.6104306 123.783445,88.6079007 122.73826,83.6428828 C121.89836,79.6333313 121.338423,75.0055024 119.154703,71.445634 C116.821673,67.6048445 112.920843,67.3050837 108.852051,68.1294258 C104.484587,69.0098684 100.135837,70.1716507 95.8803648,71.4644737 C87.2014952,74.1062201 78.6905921,77.6284091 71.0194378,82.5374522 C63.9457536,87.0528289 56.8720694,92.9921531 52.6168062,100.355425 C48.8463517,106.856842 47.3534091,116.206112 54.8562201,120.684019 C58.4211124,122.819932 62.7701555,123.250859 66.8202751,123.569371 C71.9714713,123.962837 77.1787679,123.869149 82.3114593,123.307064 C92.0915311,122.220377 101.64762,119.447447 110.475825,115.044456 C118.594777,110.997476 125.948505,105.657715 133.190239,100.224258 C140.394629,94.8095574 147.505742,89.2449342 155.270048,84.6546172 C159.282865,82.2751196 163.463816,80.1767105 167.849701,78.5653708 C172.627871,76.804067 177.965789,75.230323 183.079725,76.2233852 C187.690012,77.1226675 192.449342,80.8886842 192.29988,86.0223385 C192.188098,89.6758612 189.313577,92.2427093 186.009928,93.2169737 C182.482715,94.2662201 178.451017,93.760311 175.558074,91.4183254 C172.217165,88.739067 170.406878,84.6733732 169.567045,80.5701675 C167.7936,71.989055 169.305383,62.0965311 173.430443,54.3956938 C174.363636,52.6536483 175.446292,50.9861244 176.715251,49.4869019 C177.984629,47.9692584 179.925538,45.6272727 181.810766,44.8967105 C182.501136,44.6346292 182.538397,44.559689 183.005203,45.3090909 C183.285287,45.7587321 183.322548,46.3955144 183.303708,46.9200957 C183.247608,48.0257775 182.78122,49.112201 182.258732,50.0491627 C181.082715,52.147488 179.197488,53.7589115 177.424462,55.3326555 C170.164055,61.7967703 161.578589,66.7616627 152.395778,69.8530502 C150.305365,70.5463517 148.17765,71.1647129 146.01259,71.6704545 C143.194294,72.3264952 140.133343,73.0382177 137.296376,72.1389354 C132.910281,70.7523325 130.502566,66.1433014 129.606717,61.9089713 C127.702943,52.7470096 131.659743,42.5358852 126.116471,34.1610048 C123.914109,30.8071172 120.591855,29.0646531 116.672362,28.502811 C111.763666,27.8095096 106.612303,27.9032895 101.666292,28.1842105 C84.2151914,29.1211722 65.1401914,36.3154306 57.8613636,53.6278708 C56.3680024,57.1688995 54.7444378,61.9650718 56.4802033,65.7125 C57.9731459,68.9349282 61.575299,70.2842703 64.8416866,70.8837919 C74.6215909,72.7196172 85.1297548,71.8764354 94.8725239,70.1339713 C116.187093,66.3120215 135.784551,56.7004187 154.99009,47.0888158 C164.714354,42.2361244 174.419737,37.0464115 184.591507,33.1679426 C189.500299,31.2944378 194.670335,29.9078349 199.970993,30.2075957 C205.103768,30.4885167 209.99372,32.3808612 214.398445,34.9665072 C218.579187,37.4211124 222.405323,40.4936603 225.989055,43.7726077 C229.66573,47.1264952 233.174522,51.0983254 234.089294,56.1758373 C235.82506,65.9561603 228.434031,74.5935407 220.072548,78.3217105 C211.300359,82.2564055 200.885347,82.6498624 191.441208,81.7880084 C181.791926,80.9261543 172.273266,78.2844498 163.538337,74.0873804 C146.535161,65.9184809 133.0036,51.8288876 125.239252,34.6106459 C121.450414,26.2169258 119.117388,17.2048445 118.352146,8.02404306 C118.221498,7.29348086 117.101635,7.29348086 117.157635,8.00562201 Z" id="Path" fill="#E6007A"></path>
                                    </g>
                                </g>
                            </g>
                            <path d="M24.2681041,48.187799 L31.4341447,48.187799 L33.7188158,39.9032656 C34.0338577,38.760951 35.6401316,38.7616627 35.9541687,39.9042285 L38.230927,48.187799 L45.3831938,48.187799 L50.8672249,27.0035885 L44.1523325,27.0035885 L42.4375,35.4107476 C42.1883971,36.6316029 40.4710945,36.6653469 40.1750598,35.4551675 L38.1078409,27.0035885 L31.5572309,27.0035885 L29.5433911,35.5076675 C29.2558553,36.721866 27.5348684,36.6983373 27.2800299,35.4767285 L26.6752751,32.5775478 C25.9976734,29.3291208 23.1561842,27.0035885 19.8645933,27.0035885 L18.7978469,27.0035885 L24.2681041,48.187799 Z" id="Path" fill="#FFFFFF" fill-rule="nonzero"></path>
                        </g>
                    </g>
                </g>
            </g>
        </g>
    </g>
</svg>