<?xml version="1.0" encoding="UTF-8"?>
<svg width="318px" height="335px" viewBox="0 0 318 335" version="1.1" xmlns="http://www.w3.org/2000/svg" xmlns:xlink="http://www.w3.org/1999/xlink">
    <title>Group</title>
    <g id="Page-1" stroke="none" stroke-width="1" fill="none" fill-rule="evenodd">
        <g id="Artboard" transform="translate(-2427.000000, -459.000000)">
            <g id="ROBOTS_All_v3" transform="translate(181.000000, 70.000000)">
                <g id="Group" transform="translate(2248.000000, 389.000000)">
                    <g transform="translate(138.000000, 0.000000)">
                        <circle id="Oval" fill="#0F1923" fill-rule="nonzero" cx="15.6" cy="7.5" r="7.2"></circle>
                        <path d="M0.6,78.5 C1.5,78.2 14.9,68.7 14.9,68.7 L5.1,54.4 L19.5,45.3 L8.3,37 L16.7,27.2 L16,12.9" id="Path" stroke="#0F1923" stroke-width="4"></path>
                    </g>
                    <g transform="translate(0.000000, 53.000000)" fill-rule="nonzero" id="Path" stroke="#0F1923">
                        <path d="M274,262.6 L109.3,262.6 C87.4,262.6 69.7,244.9 69.7,223 L69.7,58.3 C69.7,36.4 87.4,18.7 109.3,18.7 L274,18.7 C295.9,18.7 313.6,36.4 313.6,58.3 L313.6,223 C313.6,244.9 295.9,262.6 274,262.6 Z" stroke-width="3.739" fill="#0F1923"></path>
                        <path d="M273.9,262.6 L109.1,262.6 C87.2,262.6 69.5,244.9 69.5,223 L69.5,58.2 C69.5,36.3 87.2,18.6 109.1,18.6 L273.9,18.6 C295.8,18.6 313.5,36.3 313.5,58.2 L313.5,223 C313.5,244.9 295.8,262.6 273.9,262.6 Z" stroke-width="3.7399" fill="#101924"></path>
                        <path d="M273.8,262.7 L109,262.7 C87.1,262.7 69.4,244.9 69.4,223.1 L69.4,58.2 C69.4,36.3 87.2,18.6 109,18.6 L273.8,18.6 C295.7,18.6 313.4,36.4 313.4,58.2 L313.4,223 C313.4,245 295.7,262.7 273.8,262.7 Z" stroke-width="3.7407" fill="#101A24"></path>
                        <path d="M273.6,262.8 L108.7,262.8 C86.8,262.8 69,245 69,223.1 L69,58.2 C69,36.3 86.8,18.5 108.7,18.5 L273.6,18.5 C295.5,18.5 313.3,36.3 313.3,58.2 L313.3,223.1 C313.3,245 295.5,262.8 273.6,262.8 Z" stroke-width="3.7416" fill="#111B25"></path>
                        <path d="M273.5,262.8 L108.5,262.8 C86.6,262.8 68.8,245 68.8,223.1 L68.8,58.1 C68.8,36.2 86.6,18.4 108.5,18.4 L273.5,18.4 C295.4,18.4 313.2,36.2 313.2,58.1 L313.2,223.1 C313.2,245 295.4,262.8 273.5,262.8 Z" stroke-width="3.7425" fill="#121B25"></path>
                        <path d="M273.4,262.9 L108.3,262.9 C86.4,262.9 68.6,245.1 68.6,223.2 L68.6,58.1 C68.6,36.2 86.4,18.4 108.3,18.4 L273.4,18.4 C295.3,18.4 313.1,36.2 313.1,58.1 L313.1,223.2 C313.1,245.1 295.3,262.9 273.4,262.9 Z" stroke-width="3.7433" fill="#131C26"></path>
                        <path d="M273.2,262.9 L108,262.9 C86.1,262.9 68.3,245.1 68.3,223.2 L68.3,58 C68.3,36.1 86.1,18.3 108,18.3 L273.2,18.3 C295.1,18.3 312.900419,36.1 312.900419,58 L312.900419,223.2 C313,245.1 295.2,262.9 273.2,262.9 Z" stroke-width="3.7442" fill="#131C26"></path>
                        <path d="M273.1,263 L107.9,263 C86,263 68.2,245.2 68.2,223.3 L68.2,58 C68.2,36.1 86,18.3 107.9,18.3 L273.1,18.3 C295,18.3 312.8,36.1 312.8,58 L312.8,223.2 C312.8,245.2 295.1,263 273.1,263 Z" stroke-width="3.7451" fill="#141D27"></path>
                        <path d="M273,263 L107.7,263 C85.7,263 67.9,245.2 67.9,223.2 L67.9,58 C67.9,36 85.7,18.2 107.7,18.2 L273,18.2 C295,18.2 312.8,36 312.8,58 L312.8,223.3 C312.7,245.2 294.9,263 273,263 Z" stroke-width="3.7459" fill="#151D27"></path>
                        <path d="M272.8,263.1 L107.4,263.1 C85.4,263.1 67.6,245.3 67.6,223.3 L67.6,57.9 C67.6,35.9 85.4,18.1 107.4,18.1 L272.8,18.1 C294.8,18.1 312.6,35.9 312.6,57.9 L312.6,223.3 C312.6,245.3 294.8,263.1 272.8,263.1 Z" stroke-width="3.7468" fill="#151E28"></path>
                        <path d="M272.7,263.2 L107.2,263.2 C85.2,263.2 67.4,245.4 67.4,223.4 L67.4,57.9 C67.4,35.9 85.2,18.1 107.2,18.1 L272.7,18.1 C294.7,18.1 312.5,35.9 312.5,57.9 L312.5,223.4 C312.5,245.3 294.7,263.2 272.7,263.2 Z" stroke-width="3.7477" fill="#161E28"></path>
                        <path d="M272.6,263.2 L107,263.2 C85,263.2 67.2,245.4 67.2,223.4 L67.2,57.8 C67.2,35.8 85,18 107,18 L272.6,18 C294.6,18 312.4,35.8 312.4,57.8 L312.4,223.4 C312.4,245.4 294.6,263.2 272.6,263.2 Z" stroke-width="3.7485" fill="#171F28"></path>
                        <path d="M272.4,263.3 L106.8,263.3 C84.8,263.3 67,245.5 67,223.5 L67,57.8 C67,35.8 84.8,18 106.8,18 L272.4,18 C294.4,18 312.200417,35.8 312.200417,57.8 L312.200417,223.4 C312.3,245.4 294.4,263.3 272.4,263.3 Z" stroke-width="3.7494" fill="#171F29"></path>
                        <path d="M272.3,263.3 L106.6,263.3 C84.6,263.3 66.7,245.5 66.7,223.4 L66.7,57.8 C66.7,35.8 84.5,17.9 106.6,17.9 L272.3,17.9 C294.3,17.9 312.2,35.7 312.2,57.8 L312.2,223.5 C312.2,245.5 294.3,263.3 272.3,263.3 Z" stroke-width="3.7503" fill="#182029"></path>
                        <path d="M272.2,263.4 L106.4,263.4 C84.4,263.4 66.5,245.5 66.5,223.5 L66.5,57.7 C66.5,35.7 84.4,17.8 106.4,17.8 L272.2,17.8 C294.2,17.8 312.1,35.7 312.1,57.7 L312.1,223.5 C312.1,245.5 294.2,263.4 272.2,263.4 Z" stroke-width="3.7511" fill="#18202A"></path>
                        <path d="M272,263.4 L106.1,263.4 C84.1,263.4 66.2,245.5 66.2,223.5 L66.2,57.7 C66.2,35.7 84.1,17.8 106.1,17.8 L272,17.8 C294,17.8 311.9,35.7 311.9,57.7 L311.9,223.6 C311.9,245.6 294.1,263.4 272,263.4 Z" stroke-width="3.752" fill="#19212A"></path>
                        <path d="M271.9,263.5 L105.9,263.5 C83.9,263.5 66,245.6 66,223.6 L66,57.6 C66,35.6 83.9,17.7 105.9,17.7 L271.9,17.7 C293.9,17.7 311.8,35.6 311.8,57.6 L311.8,223.6 C311.8,245.6 294,263.5 271.9,263.5 Z" stroke-width="3.7529" fill="#1A212B"></path>
                        <path d="M271.8,263.6 L105.8,263.6 C83.7,263.6 65.9,245.7 65.9,223.7 L65.9,57.7 C65.9,35.6 83.8,17.8 105.8,17.8 L271.8,17.8 C293.9,17.8 311.7,35.7 311.7,57.7 L311.7,223.7 C311.7,245.7 293.8,263.6 271.8,263.6 Z" stroke-width="3.7537" fill="#1A222B"></path>
                        <path d="M271.6,263.6 L105.5,263.6 C83.4,263.6 65.5,245.7 65.5,223.6 L65.5,57.5 C65.5,35.4 83.4,17.5 105.5,17.5 L271.6,17.5 C293.7,17.5 311.6,35.4 311.6,57.5 L311.6,223.6 C311.6,245.7 293.7,263.6 271.6,263.6 Z" stroke-width="3.7546" fill="#1B222C"></path>
                        <path d="M271.5,263.7 L105.3,263.7 C83.2,263.7 65.3,245.8 65.3,223.7 L65.3,57.5 C65.3,35.4 83.2,17.5 105.3,17.5 L271.5,17.5 C293.6,17.5 311.5,35.4 311.5,57.5 L311.5,223.7 C311.5,245.8 293.6,263.7 271.5,263.7 Z" stroke-width="3.7555" fill="#1B232C"></path>
                        <path d="M271.4,263.7 L105.1,263.7 C83,263.7 65.1,245.8 65.1,223.7 L65.1,57.5 C65.1,35.4 83,17.5 105.1,17.5 L271.4,17.5 C293.5,17.5 311.4,35.4 311.4,57.5 L311.4,223.8 C311.4,245.8 293.5,263.7 271.4,263.7 Z" stroke-width="3.7563" fill="#1C232D"></path>
                        <path d="M271.2,263.8 L104.8,263.8 C82.7,263.8 64.8,245.9 64.8,223.8 L64.8,57.4 C64.8,35.3 82.7,17.4 104.8,17.4 L271.2,17.4 C293.3,17.4 311.200415,35.3 311.200415,57.4 L311.200415,223.8 C311.3,245.9 293.3,263.8 271.2,263.8 Z" stroke-width="3.7572" fill="#1D242D"></path>
                        <path d="M271.1,263.8 L104.7,263.8 C82.6,263.8 64.7,245.9 64.7,223.8 L64.7,57.4 C64.7,35.3 82.6,17.4 104.7,17.4 L271.1,17.4 C293.2,17.4 311.1,35.3 311.1,57.4 L311.1,223.8 C311.1,245.9 293.2,263.8 271.1,263.8 Z" stroke-width="3.7581" fill="#1D242D"></path>
                        <path d="M271,263.9 L104.5,263.9 C82.4,263.9 64.5,246 64.5,223.9 L64.5,57.3 C64.5,35.2 82.4,17.3 104.5,17.3 L271,17.3 C293.1,17.3 311,35.2 311,57.3 L311,223.8 C311,246 293.1,263.9 271,263.9 Z" stroke-width="3.7589" fill="#1E252E"></path>
                        <path d="M270.9,264 L104.3,264 C82.2,264 64.2,246.1 64.2,223.9 L64.2,57.3 C64.2,35.2 82.1,17.2 104.3,17.2 L270.9,17.2 C293,17.2 311,35.1 311,57.3 L311,223.9 C310.9,246 293,264 270.9,264 Z" stroke-width="3.7598" fill="#1E252E"></path>
                        <path d="M270.7,264 L104,264 C81.9,264 63.9,246.1 63.9,223.9 L63.9,57.3 C63.9,35.2 81.8,17.2 104,17.2 L270.7,17.2 C292.8,17.2 310.8,35.1 310.8,57.3 L310.8,224 C310.8,246.1 292.9,264 270.7,264 Z" stroke-width="3.7607" fill="#1F262F"></path>
                        <path d="M270.6,264.1 L103.8,264.1 C81.6,264.1 63.7,246.1 63.7,224 L63.7,57.2 C63.7,35 81.7,17.1 103.8,17.1 L270.6,17.1 C292.8,17.1 310.7,35.1 310.7,57.2 L310.7,224 C310.7,246.1 292.7,264.1 270.6,264.1 Z" stroke-width="3.7615" fill="#20262F"></path>
                        <path d="M270.5,264.1 L103.7,264.1 C81.5,264.1 63.6,246.1 63.6,224 L63.6,57.2 C63.6,35 81.6,17.1 103.7,17.1 L270.5,17.1 C292.7,17.1 310.6,35.1 310.6,57.2 L310.6,224 C310.6,246.2 292.6,264.1 270.5,264.1 Z" stroke-width="3.7624" fill="#202730"></path>
                        <path d="M270.3,264.2 L103.4,264.2 C81.2,264.2 63.3,246.2 63.3,224.1 L63.3,57.1 C63.3,34.9 81.3,17 103.4,17 L270.3,17 C292.5,17 310.400415,35 310.400415,57.1 L310.400415,224 C310.5,246.2 292.5,264.2 270.3,264.2 Z" stroke-width="3.7633" fill="#212730"></path>
                        <path d="M270.2,264.2 L103.2,264.2 C81,264.2 63,246.2 63,224 L63,57 C63,34.8 81,16.8 103.2,16.8 L270.2,16.8 C292.4,16.8 310.4,34.8 310.4,57 L310.4,224 C310.4,246.3 292.4,264.2 270.2,264.2 Z" stroke-width="3.7641" fill="#212831"></path>
                        <path d="M270.1,264.3 L103,264.3 C80.8,264.3 62.8,246.3 62.8,224.1 L62.8,57 C62.8,34.8 80.8,16.8 103,16.8 L270.1,16.8 C292.3,16.8 310.3,34.8 310.3,57 L310.3,224.1 C310.2,246.3 292.3,264.3 270.1,264.3 Z" stroke-width="3.765" fill="#222831"></path>
                        <path d="M269.9,264.4 L102.8,264.4 C80.6,264.4 62.6,246.4 62.6,224.2 L62.6,57 C62.6,34.8 80.6,16.8 102.8,16.8 L269.9,16.8 C292.1,16.8 310.1,34.8 310.1,57 L310.1,224.1 C310.1,246.4 292.1,264.4 269.9,264.4 Z" stroke-width="3.7659" fill="#222931"></path>
                        <path d="M269.8,264.4 L102.6,264.4 C80.4,264.4 62.4,246.4 62.4,224.2 L62.4,57 C62.4,34.8 80.4,16.8 102.6,16.8 L269.8,16.8 C292,16.8 310,34.8 310,57 L310,224.2 C310,246.4 292,264.4 269.8,264.4 Z" stroke-width="3.7667" fill="#232932"></path>
                        <path d="M269.7,264.5 L102.4,264.5 C80.2,264.5 62.2,246.5 62.2,224.3 L62.2,56.9 C62.2,34.7 80.2,16.7 102.4,16.7 L269.7,16.7 C291.9,16.7 309.9,34.7 309.9,56.9 L309.9,224.2 C309.9,246.5 291.9,264.5 269.7,264.5 Z" stroke-width="3.7676" fill="#242932"></path>
                        <path d="M269.5,264.5 L102.1,264.5 C79.9,264.5 61.8,246.5 61.8,224.2 L61.8,56.9 C61.8,34.7 79.8,16.6 102.1,16.6 L269.5,16.6 C291.7,16.6 309.8,34.6 309.8,56.9 L309.8,224.3 C309.8,246.5 291.8,264.5 269.5,264.5 Z" stroke-width="3.7685" fill="#242A33"></path>
                        <path d="M269.4,264.6 L101.9,264.6 C79.7,264.6 61.6,246.6 61.6,224.3 L61.6,56.8 C61.6,34.6 79.6,16.5 101.9,16.5 L269.4,16.5 C291.6,16.5 309.7,34.5 309.7,56.8 L309.7,224.3 C309.7,246.6 291.6,264.6 269.4,264.6 Z" stroke-width="3.7693" fill="#252A33"></path>
                        <path d="M269.3,264.6 L101.8,264.6 C79.5,264.6 61.5,246.6 61.5,224.3 L61.5,56.8 C61.5,34.5 79.5,16.5 101.8,16.5 L269.3,16.5 C291.6,16.5 309.6,34.5 309.6,56.8 L309.6,224.3 C309.6,246.6 291.5,264.6 269.3,264.6 Z" stroke-width="3.7702" fill="#252B34"></path>
                        <path d="M269.1,264.7 L101.5,264.7 C79.2,264.7 61.2,246.6 61.2,224.4 L61.2,56.8 C61.2,34.5 79.3,16.5 101.5,16.5 L269.1,16.5 C291.4,16.5 309.4,34.6 309.4,56.8 L309.4,224.4 C309.4,246.6 291.4,264.7 269.1,264.7 Z" stroke-width="3.7711" fill="#262B34"></path>
                        <path d="M269,264.8 L101.3,264.8 C79,264.8 61,246.7 61,224.5 L61,56.7 C61,34.4 79.1,16.4 101.3,16.4 L269,16.4 C291.3,16.4 309.3,34.5 309.3,56.7 L309.3,224.4 C309.3,246.7 291.3,264.8 269,264.8 Z" stroke-width="3.772" fill="#272C35"></path>
                        <path d="M268.9,264.8 L101.1,264.8 C78.8,264.8 60.7,246.7 60.7,224.4 L60.7,56.7 C60.7,34.4 78.8,16.3 101.1,16.3 L268.9,16.3 C291.2,16.3 309.3,34.4 309.3,56.7 L309.3,224.5 C309.2,246.7 291.2,264.8 268.9,264.8 Z" stroke-width="3.7728" fill="#272C35"></path>
                        <path d="M268.7,264.9 L100.8,264.9 C78.5,264.9 60.4,246.8 60.4,224.5 L60.4,56.6 C60.4,34.3 78.5,16.2 100.8,16.2 L268.7,16.2 C291,16.2 309.1,34.3 309.1,56.6 L309.1,224.5 C309.1,246.8 291,264.9 268.7,264.9 Z" stroke-width="3.7737" fill="#282D35"></path>
                        <path d="M268.6,264.9 L100.7,264.9 C78.4,264.9 60.3,246.8 60.3,224.5 L60.3,56.6 C60.3,34.3 78.4,16.2 100.7,16.2 L268.6,16.2 C290.9,16.2 309,34.3 309,56.6 L309,224.5 C309,246.8 290.9,264.9 268.6,264.9 Z" stroke-width="3.7746" fill="#282D36"></path>
                        <path d="M268.5,265 L100.5,265 C78.2,265 60.1,246.9 60.1,224.6 L60.1,56.6 C60.1,34.3 78.2,16.2 100.5,16.2 L268.5,16.2 C290.8,16.2 308.9,34.3 308.9,56.6 L308.9,224.6 C308.9,246.9 290.8,265 268.5,265 Z" stroke-width="3.7754" fill="#292E36"></path>
                        <path d="M268.3,265 L100.2,265 C77.9,265 59.8,246.9 59.8,224.6 L59.8,56.5 C59.8,34.2 77.9,16.1 100.2,16.1 L268.3,16.1 C290.6,16.1 308.700412,34.2 308.700412,56.5 L308.700412,224.6 C308.8,246.9 290.7,265 268.3,265 Z" stroke-width="3.7763" fill="#292E37"></path>
                        <path d="M268.2,265.1 L100,265.1 C77.7,265.1 59.5,247 59.5,224.6 L59.5,56.5 C59.5,34.2 77.6,16 100,16 L268.2,16 C290.5,16 308.7,34.1 308.7,56.5 L308.7,224.7 C308.7,247 290.5,265.1 268.2,265.1 Z" stroke-width="3.7772" fill="#2A2F37"></path>
                        <path d="M268.1,265.2 L99.8,265.2 C77.4,265.2 59.3,247.1 59.3,224.7 L59.3,56.4 C59.3,34 77.4,15.9 99.8,15.9 L268.1,15.9 C290.5,15.9 308.6,34 308.6,56.4 L308.6,224.7 C308.5,247 290.4,265.2 268.1,265.2 Z" stroke-width="3.778" fill="#2B2F38"></path>
                        <path d="M267.9,265.2 L99.6,265.2 C77.2,265.2 59.1,247.1 59.1,224.7 L59.1,56.4 C59.1,34 77.2,15.9 99.6,15.9 L267.9,15.9 C290.3,15.9 308.4,34 308.4,56.4 L308.4,224.7 C308.4,247.1 290.3,265.2 267.9,265.2 Z" stroke-width="3.7789" fill="#2B3038"></path>
                        <path d="M267.8,265.3 L99.4,265.3 C77,265.3 58.9,247.2 58.9,224.8 L58.9,56.3 C58.9,33.9 77,15.8 99.4,15.8 L267.8,15.8 C290.2,15.8 308.3,33.9 308.3,56.3 L308.3,224.7 C308.3,247.1 290.2,265.3 267.8,265.3 Z" stroke-width="3.7798" fill="#2C3039"></path>
                        <path d="M267.7,265.3 L99.2,265.3 C76.8,265.3 58.7,247.2 58.7,224.8 L58.7,56.3 C58.7,33.9 76.8,15.8 99.2,15.8 L267.7,15.8 C290.1,15.8 308.2,33.9 308.2,56.3 L308.2,224.8 C308.2,247.2 290.1,265.3 267.7,265.3 Z" stroke-width="3.7806" fill="#2C3139"></path>
                        <path d="M267.5,265.4 L99,265.4 C76.6,265.4 58.5,247.2 58.5,224.9 L58.5,56.3 C58.5,33.9 76.7,15.8 99,15.8 L267.6,15.8 C290,15.8 308.1,34 308.1,56.3 L308.1,224.9 C308.1,247.2 289.9,265.4 267.5,265.4 Z" stroke-width="3.7815" fill="#2D313A"></path>
                        <path d="M267.4,265.4 L98.7,265.4 C76.3,265.4 58.1,247.2 58.1,224.8 L58.1,56.2 C58.1,33.8 76.3,15.6 98.7,15.6 L267.4,15.6 C289.8,15.6 308,33.8 308,56.2 L308,224.9 C308,247.3 289.8,265.4 267.4,265.4 Z" stroke-width="3.7824" fill="#2D323A"></path>
                        <path d="M267.3,265.5 L98.6,265.5 C76.2,265.5 58,247.3 58,224.9 L58,56.2 C58,33.8 76.2,15.6 98.6,15.6 L267.3,15.6 C289.7,15.6 307.9,33.8 307.9,56.2 L307.9,224.9 C307.9,247.3 289.7,265.5 267.3,265.5 Z" stroke-width="3.7832" fill="#2E323B"></path>
                        <path d="M267.1,265.6 L98.3,265.6 C75.9,265.6 57.7,247.4 57.7,225 L57.7,56.1 C57.7,33.7 75.9,15.5 98.3,15.5 L267.1,15.5 C289.5,15.5 307.70041,33.7 307.70041,56.1 L307.70041,225 C307.8,247.4 289.6,265.6 267.1,265.6 Z" stroke-width="3.7841" fill="#2F333B"></path>
                        <path d="M267,265.6 L98.1,265.6 C75.7,265.6 57.5,247.4 57.5,225 L57.5,56.1 C57.5,33.7 75.7,15.5 98.1,15.5 L267,15.5 C289.4,15.5 307.6,33.7 307.6,56.1 L307.6,225 C307.6,247.4 289.5,265.6 267,265.6 Z" stroke-width="3.785" fill="#2F333C"></path>
                        <path d="M266.9,265.7 L97.9,265.7 C75.5,265.7 57.3,247.5 57.3,225.1 L57.3,56.1 C57.3,33.7 75.5,15.5 97.9,15.5 L266.9,15.5 C289.3,15.5 307.5,33.7 307.5,56.1 L307.5,225.1 C307.5,247.5 289.3,265.7 266.9,265.7 Z" stroke-width="3.7858" fill="#30343C"></path>
                        <path d="M266.8,265.7 L97.7,265.7 C75.2,265.7 57,247.5 57,225 L57,56 C57,33.5 75.2,15.3 97.7,15.3 L266.8,15.3 C289.3,15.3 307.5,33.5 307.5,56 L307.5,225.1 C307.4,247.5 289.2,265.7 266.8,265.7 Z" stroke-width="3.7867" fill="#30343D"></path>
                        <path d="M266.6,265.8 L97.5,265.8 C75,265.8 56.8,247.6 56.8,225.1 L56.8,56 C56.8,33.5 75,15.3 97.5,15.3 L266.6,15.3 C289.1,15.3 307.3,33.5 307.3,56 L307.3,225.1 C307.3,247.6 289.1,265.8 266.6,265.8 Z" stroke-width="3.7876" fill="#31353D"></path>
                        <path d="M266.5,265.8 L97.3,265.8 C74.8,265.8 56.6,247.6 56.6,225.1 L56.6,55.9 C56.6,33.4 74.8,15.2 97.3,15.2 L266.5,15.2 C289,15.2 307.2,33.4 307.2,55.9 L307.2,225.1 C307.2,247.6 289,265.8 266.5,265.8 Z" stroke-width="3.7884" fill="#31353E"></path>
                        <path d="M266.4,265.9 L97.1,265.9 C74.6,265.9 56.4,247.7 56.4,225.2 L56.4,55.9 C56.4,33.4 74.6,15.2 97.1,15.2 L266.4,15.2 C288.9,15.2 307.1,33.4 307.1,55.9 L307.1,225.2 C307.1,247.7 288.8,265.9 266.4,265.9 Z" stroke-width="3.7893" fill="#32363E"></path>
                        <path d="M266.2,266 L96.8,266 C74.3,266 56.1,247.8 56.1,225.3 L56.1,55.8 C56.1,33.3 74.3,15.1 96.8,15.1 L266.2,15.1 C288.7,15.1 306.900408,33.3 306.900408,55.8 L306.900408,225.2 C307,247.7 288.7,266 266.2,266 Z" stroke-width="3.7902" fill="#33363F"></path>
                        <path d="M266.1,266 L96.6,266 C74.1,266 55.8,247.8 55.8,225.2 L55.8,55.8 C55.8,33.3 74,15 96.6,15 L266.1,15 C288.6,15 306.9,33.2 306.9,55.8 L306.9,225.3 C306.8,247.8 288.6,266 266.1,266 Z" stroke-width="3.791" fill="#33373F"></path>
                        <path d="M266,266.1 L96.5,266.1 C74,266.1 55.7,247.8 55.7,225.3 L55.7,55.8 C55.7,33.3 74,15 96.5,15 L266,15 C288.5,15 306.8,33.3 306.8,55.8 L306.8,225.3 C306.7,247.8 288.5,266.1 266,266.1 Z" stroke-width="3.7919" fill="#34373F"></path>
                        <path d="M265.8,266.1 L96.2,266.1 C73.7,266.1 55.4,247.8 55.4,225.3 L55.4,55.7 C55.4,33.2 73.7,14.9 96.2,14.9 L265.8,14.9 C288.3,14.9 306.6,33.2 306.6,55.7 L306.6,225.3 C306.6,247.9 288.4,266.1 265.8,266.1 Z" stroke-width="3.7928" fill="#343840"></path>
                        <path d="M265.7,266.2 L96,266.2 C73.5,266.2 55.2,247.9 55.2,225.4 L55.2,55.7 C55.2,33.2 73.5,14.9 96,14.9 L265.7,14.9 C288.2,14.9 306.5,33.2 306.5,55.7 L306.5,225.4 C306.5,247.9 288.2,266.2 265.7,266.2 Z" stroke-width="3.7936" fill="#353840"></path>
                        <path d="M265.6,266.2 L95.8,266.2 C73.2,266.2 55,247.9 55,225.4 L55,55.6 C55,33 73.3,14.8 95.8,14.8 L265.6,14.8 C288.2,14.8 306.4,33.1 306.4,55.6 L306.4,225.4 C306.4,248 288.1,266.2 265.6,266.2 Z" stroke-width="3.7945" fill="#353941"></path>
                        <path d="M265.4,266.3 L95.5,266.3 C72.9,266.3 54.6,248 54.6,225.4 L54.6,55.6 C54.6,33 72.9,14.7 95.5,14.7 L265.4,14.7 C288,14.7 306.3,33 306.3,55.6 L306.3,225.5 C306.3,248 288,266.3 265.4,266.3 Z" stroke-width="3.7954" fill="#363941"></path>
                        <path d="M265.3,266.4 L95.4,266.4 C72.8,266.4 54.5,248.1 54.5,225.5 L54.5,55.6 C54.5,33 72.8,14.7 95.4,14.7 L265.3,14.7 C287.9,14.7 306.2,33 306.2,55.6 L306.2,225.5 C306.2,248.1 287.9,266.4 265.3,266.4 Z" stroke-width="3.7962" fill="#373A42"></path>
                        <path d="M265.2,266.4 L95.2,266.4 C72.6,266.4 54.3,248.1 54.3,225.5 L54.3,55.5 C54.3,32.9 72.6,14.6 95.2,14.6 L265.2,14.6 C287.8,14.6 306.1,32.9 306.1,55.5 L306.1,225.5 C306.1,248.1 287.7,266.4 265.2,266.4 Z" stroke-width="3.7971" fill="#373A42"></path>
                        <path d="M265,266.5 L94.9,266.5 C72.3,266.5 54,248.2 54,225.6 L54,55.5 C54,32.9 72.3,14.6 94.9,14.6 L265,14.6 C287.6,14.6 305.9,32.9 305.9,55.5 L305.9,225.6 C305.9,248.2 287.6,266.5 265,266.5 Z" stroke-width="3.798" fill="#383B43"></path>
                        <path d="M264.9,266.5 L94.7,266.5 C72.1,266.5 53.8,248.2 53.8,225.6 L53.8,55.4 C53.8,32.8 72.1,14.5 94.7,14.5 L264.9,14.5 C287.5,14.5 305.8,32.8 305.8,55.4 L305.8,225.6 C305.8,248.2 287.5,266.5 264.9,266.5 Z" stroke-width="3.7988" fill="#383B43"></path>
                        <path d="M264.8,266.6 L94.6,266.6 C72,266.6 53.7,248.3 53.7,225.7 L53.7,55.4 C53.7,32.8 72,14.5 94.6,14.5 L264.8,14.5 C287.4,14.5 305.7,32.8 305.7,55.4 L305.7,225.6 C305.7,248.2 287.4,266.6 264.8,266.6 Z" stroke-width="3.7997" fill="#393C44"></path>
                        <path d="M264.6,266.6 L94.3,266.6 C71.7,266.6 53.3,248.3 53.3,225.6 L53.3,55.3 C53.3,32.7 71.6,14.3 94.3,14.3 L264.6,14.3 C287.2,14.3 305.6,32.6 305.6,55.3 L305.6,225.6 C305.6,248.3 287.3,266.6 264.6,266.6 Z" stroke-width="3.8006" fill="#393C44"></path>
                        <path d="M264.5,266.7 L94.1,266.7 C71.5,266.7 53.1,248.4 53.1,225.7 L53.1,55.3 C53.1,32.7 71.4,14.3 94.1,14.3 L264.5,14.3 C287.1,14.3 305.5,32.6 305.5,55.3 L305.5,225.7 C305.5,248.3 287.1,266.7 264.5,266.7 Z" stroke-width="3.8014" fill="#3A3D45"></path>
                        <path d="M264.4,266.8 L93.9,266.8 C71.3,266.8 52.9,248.4 52.9,225.8 L52.9,55.3 C52.9,32.7 71.3,14.3 93.9,14.3 L264.4,14.3 C287,14.3 305.4,32.7 305.4,55.3 L305.4,225.8 C305.4,248.4 287,266.8 264.4,266.8 Z" stroke-width="3.8023" fill="#3B3D45"></path>
                        <path d="M264.2,266.8 L93.6,266.8 C70.9,266.8 52.6,248.4 52.6,225.8 L52.6,55.2 C52.6,32.5 71,14.2 93.6,14.2 L264.2,14.2 C286.9,14.2 305.200406,32.6 305.200406,55.2 L305.200406,225.8 C305.3,248.4 286.9,266.8 264.2,266.8 Z" stroke-width="3.8032" fill="#3B3E46"></path>
                        <path d="M264.1,266.9 L93.5,266.9 C70.8,266.9 52.5,248.5 52.5,225.9 L52.5,55.2 C52.5,32.5 70.9,14.2 93.5,14.2 L264.1,14.2 C286.8,14.2 305.1,32.6 305.1,55.2 L305.1,225.8 C305.1,248.5 286.8,266.9 264.1,266.9 Z" stroke-width="3.804" fill="#3C3E46"></path>
                        <path d="M264,266.9 L93.3,266.9 C70.6,266.9 52.2,248.5 52.2,225.8 L52.2,55.1 C52.2,32.4 70.6,14 93.3,14 L264,14 C286.7,14 305.1,32.4 305.1,55.1 L305.1,225.8 C305,248.5 286.7,266.9 264,266.9 Z" stroke-width="3.8049" fill="#3C3F47"></path>
                        <path d="M263.8,267 L93,267 C70.3,267 51.9,248.6 51.9,225.9 L51.9,55.1 C51.9,32.4 70.3,14 93,14 L263.8,14 C286.5,14 304.9,32.4 304.9,55.1 L304.9,225.9 C304.9,248.6 286.5,267 263.8,267 Z" stroke-width="3.8058" fill="#3D3F47"></path>
                        <path d="M263.7,267 L92.8,267 C70.1,267 51.7,248.6 51.7,225.9 L51.7,55.1 C51.7,32.4 70.1,14 92.8,14 L263.7,14 C286.4,14 304.8,32.4 304.8,55.1 L304.8,226 C304.8,248.6 286.4,267 263.7,267 Z" stroke-width="3.8066" fill="#3D4048"></path>
                        <path d="M263.6,267.1 L92.6,267.1 C69.9,267.1 51.5,248.7 51.5,226 L51.5,55 C51.5,32.3 69.9,13.9 92.6,13.9 L263.6,13.9 C286.3,13.9 304.7,32.3 304.7,55 L304.7,226 C304.7,248.7 286.3,267.1 263.6,267.1 Z" stroke-width="3.8075" fill="#3E4048"></path>
                        <path d="M263.4,267.2 L92.4,267.2 C69.7,267.2 51.3,248.8 51.3,226.1 L51.3,55 C51.3,32.3 69.7,13.9 92.4,13.9 L263.4,13.9 C286.1,13.9 304.500406,32.3 304.500406,55 L304.500406,226 C304.6,248.7 286.2,267.2 263.4,267.2 Z" stroke-width="3.8084" fill="#3F4149"></path>
                        <path d="M263.3,267.2 L92.2,267.2 C69.5,267.2 51,248.8 51,226 L51,54.9 C51,32.2 69.4,13.7 92.2,13.7 L263.3,13.7 C286,13.7 304.5,32.1 304.5,54.9 L304.5,226 C304.5,248.8 286,267.2 263.3,267.2 Z" stroke-width="3.8092" fill="#3F4149"></path>
                        <path d="M263.2,267.3 L92,267.3 C69.3,267.3 50.8,248.9 50.8,226.1 L50.8,54.9 C50.8,32.2 69.2,13.7 92,13.7 L263.2,13.7 C285.9,13.7 304.4,32.1 304.4,54.9 L304.4,226.1 C304.4,248.8 285.9,267.3 263.2,267.3 Z" stroke-width="3.8101" fill="#40424A"></path>
                        <path d="M263,267.3 L91.7,267.3 C68.9,267.3 50.5,248.9 50.5,226.1 L50.5,54.8 C50.5,32 68.9,13.6 91.7,13.6 L263,13.6 C285.8,13.6 304.2,32 304.2,54.8 L304.2,226.1 C304.2,248.9 285.8,267.3 263,267.3 Z" stroke-width="3.811" fill="#40424A"></path>
                        <path d="M262.9,267.4 L91.5,267.4 C68.7,267.4 50.3,248.9 50.3,226.2 L50.3,54.8 C50.3,32 68.8,13.6 91.5,13.6 L262.9,13.6 C285.7,13.6 304.1,32.1 304.1,54.8 L304.1,226.2 C304.1,248.9 285.7,267.4 262.9,267.4 Z" stroke-width="3.8118" fill="#41434B"></path>
                        <path d="M262.8,267.4 L91.4,267.4 C68.6,267.4 50.2,248.9 50.2,226.2 L50.2,54.8 C50.2,32 68.7,13.6 91.4,13.6 L262.8,13.6 C285.6,13.6 304,32.1 304,54.8 L304,226.2 C304,249 285.6,267.4 262.8,267.4 Z" stroke-width="3.8127" fill="#41434B"></path>
                        <path d="M262.6,267.5 L91.1,267.5 C68.3,267.5 49.8,249 49.8,226.2 L49.8,54.7 C49.8,31.9 68.3,13.4 91.1,13.4 L262.6,13.4 C285.4,13.4 303.9,31.9 303.9,54.7 L303.9,226.2 C303.9,249 285.4,267.5 262.6,267.5 Z" stroke-width="3.8136" fill="#42444C"></path>
                        <path d="M262.5,267.6 L90.9,267.6 C68.1,267.6 49.6,249.1 49.6,226.3 L49.6,54.7 C49.6,31.9 68.1,13.4 90.9,13.4 L262.5,13.4 C285.3,13.4 303.8,31.9 303.8,54.7 L303.8,226.3 C303.8,249.1 285.3,267.6 262.5,267.6 Z" stroke-width="3.8144" fill="#43454D"></path>
                        <path d="M262.4,267.6 L90.7,267.6 C67.9,267.6 49.4,249.1 49.4,226.3 L49.4,54.6 C49.4,31.8 67.9,13.3 90.7,13.3 L262.4,13.3 C285.2,13.3 303.7,31.8 303.7,54.6 L303.7,226.3 C303.7,249.1 285.2,267.6 262.4,267.6 Z" stroke-width="3.8153" fill="#43454D"></path>
                        <path d="M262.3,267.7 L90.5,267.7 C67.7,267.7 49.2,249.2 49.2,226.4 L49.2,54.6 C49.2,31.8 67.7,13.3 90.5,13.3 L262.3,13.3 C285.1,13.3 303.6,31.8 303.6,54.6 L303.6,226.4 C303.6,249.2 285.1,267.7 262.3,267.7 Z" stroke-width="3.8162" fill="#44464E"></path>
                        <path d="M262.1,267.7 L90.3,267.7 C67.5,267.7 49,249.2 49,226.4 L49,54.6 C49,31.8 67.5,13.3 90.3,13.3 L262.1,13.3 C284.9,13.3 303.4,31.8 303.4,54.6 L303.4,226.4 C303.4,249.2 284.9,267.7 262.1,267.7 Z" stroke-width="3.817" fill="#44464E"></path>
                        <path d="M262,267.8 L90.1,267.8 C67.3,267.8 48.8,249.3 48.8,226.5 L48.8,54.5 C48.8,31.7 67.3,13.2 90.1,13.2 L262,13.2 C284.8,13.2 303.3,31.7 303.3,54.5 L303.3,226.4 C303.3,249.3 284.8,267.8 262,267.8 Z" stroke-width="3.8179" fill="#45474F"></path>
                        <path d="M261.9,267.8 L89.9,267.8 C67.1,267.8 48.5,249.3 48.5,226.4 L48.5,54.4 C48.5,31.6 67,13 89.9,13 L261.9,13 C284.7,13 303.3,31.5 303.3,54.4 L303.3,226.4 C303.2,249.3 284.7,267.8 261.9,267.8 Z" stroke-width="3.8188" fill="#46474F"></path>
                        <path d="M261.7,267.9 L89.6,267.9 C66.7,267.9 48.2,249.4 48.2,226.5 L48.2,54.4 C48.2,31.5 66.7,13 89.6,13 L261.7,13 C284.6,13 303.1,31.5 303.1,54.4 L303.1,226.5 C303.1,249.4 284.6,267.9 261.7,267.9 Z" stroke-width="3.8196" fill="#464850"></path>
                        <path d="M261.6,268 L89.4,268 C66.5,268 48,249.5 48,226.6 L48,54.4 C48,31.5 66.5,13 89.4,13 L261.6,13 C284.5,13 303,31.5 303,54.4 L303,226.6 C303,249.4 284.5,268 261.6,268 Z" stroke-width="3.8205" fill="#474850"></path>
                        <path d="M261.5,268 L89.3,268 C66.4,268 47.9,249.5 47.9,226.6 L47.9,54.4 C47.9,31.5 66.4,13 89.3,13 L261.5,13 C284.4,13 302.9,31.5 302.9,54.4 L302.9,226.6 C302.9,249.5 284.3,268 261.5,268 Z" stroke-width="3.8214" fill="#474951"></path>
                        <path d="M261.3,268.1 L89,268.1 C66.1,268.1 47.6,249.5 47.6,226.7 L47.6,54.3 C47.6,31.4 66.2,12.9 89,12.9 L261.3,12.9 C284.2,12.9 302.700401,31.5 302.700401,54.3 L302.700401,226.6 C302.8,249.5 284.2,268.1 261.3,268.1 Z" stroke-width="3.8222" fill="#484951"></path>
                        <path d="M261.2,268.1 L88.8,268.1 C65.9,268.1 47.3,249.5 47.3,226.6 L47.3,54.3 C47.3,31.4 65.9,12.8 88.8,12.8 L261.2,12.8 C284.1,12.8 302.7,31.4 302.7,54.3 L302.7,226.7 C302.7,249.6 284.1,268.1 261.2,268.1 Z" stroke-width="3.8231" fill="#494A52"></path>
                        <path d="M261.1,268.2 L88.6,268.2 C65.7,268.2 47.1,249.6 47.1,226.7 L47.1,54.2 C47.1,31.3 65.7,12.7 88.6,12.7 L261.1,12.7 C284,12.7 302.6,31.3 302.6,54.2 L302.6,226.7 C302.5,249.6 284,268.2 261.1,268.2 Z" stroke-width="3.824" fill="#494A52"></path>
                        <path d="M260.9,268.2 L88.3,268.2 C65.4,268.2 46.8,249.6 46.8,226.7 L46.8,54.2 C46.8,31.3 65.4,12.7 88.3,12.7 L260.9,12.7 C283.8,12.7 302.4,31.3 302.4,54.2 L302.4,226.8 C302.4,249.7 283.9,268.2 260.9,268.2 Z" stroke-width="3.8248" fill="#4A4B53"></path>
                        <path d="M260.8,268.3 L88.2,268.3 C65.3,268.3 46.7,249.7 46.7,226.8 L46.7,54.1 C46.7,31.2 65.3,12.6 88.2,12.6 L260.8,12.6 C283.7,12.6 302.3,31.2 302.3,54.1 L302.3,226.7 C302.3,249.7 283.7,268.3 260.8,268.3 Z" stroke-width="3.8257" fill="#4A4C53"></path>
                        <path d="M260.7,268.4 L88,268.4 C65.1,268.4 46.5,249.8 46.5,226.9 L46.5,54.1 C46.5,31.2 65.1,12.6 88,12.6 L260.7,12.6 C283.6,12.6 302.2,31.2 302.2,54.1 L302.2,226.8 C302.2,249.8 283.6,268.4 260.7,268.4 Z" stroke-width="3.8266" fill="#4B4C54"></path>
                        <path d="M260.5,268.4 L87.7,268.4 C64.7,268.4 46.1,249.8 46.1,226.8 L46.1,54.1 C46.1,31.1 64.7,12.5 87.7,12.5 L260.5,12.5 C283.5,12.5 302.1,31.1 302.1,54.1 L302.1,226.9 C302.1,249.8 283.5,268.4 260.5,268.4 Z" stroke-width="3.8274" fill="#4C4D55"></path>
                        <path d="M260.4,268.5 L87.5,268.5 C64.5,268.5 45.9,249.9 45.9,226.9 L45.9,54 C45.9,31 64.5,12.4 87.5,12.4 L260.4,12.4 C283.4,12.4 302,31 302,54 L302,226.9 C302,249.8 283.4,268.5 260.4,268.5 Z" stroke-width="3.8283" fill="#4C4D55"></path>
                        <path d="M260.3,268.5 L87.4,268.5 C64.4,268.5 45.8,249.9 45.8,226.9 L45.8,54 C45.8,31 64.4,12.4 87.4,12.4 L260.3,12.4 C283.3,12.4 301.9,31 301.9,54 L301.9,226.9 C301.9,249.9 283.2,268.5 260.3,268.5 Z" stroke-width="3.8292" fill="#4D4E56"></path>
                        <path d="M260.1,268.6 L87.1,268.6 C64.1,268.6 45.5,250 45.5,227 L45.5,54 C45.5,31 64.1,12.4 87.1,12.4 L260.1,12.4 C283.1,12.4 301.700399,31 301.700399,54 L301.700399,227 C301.8,249.9 283.1,268.6 260.1,268.6 Z" stroke-width="3.83" fill="#4D4E56"></path>
                        <path d="M260,268.6 L86.9,268.6 C63.9,268.6 45.3,250 45.3,227 L45.3,53.9 C45.3,30.9 63.9,12.3 86.9,12.3 L260,12.3 C283,12.3 301.6,30.9 301.6,53.9 L301.6,227 C301.6,250 283,268.6 260,268.6 Z" stroke-width="3.8309" fill="#4E4F57"></path>
                        <path d="M259.9,268.7 L86.7,268.7 C63.7,268.7 45,250.1 45,227 L45,53.9 C45,30.9 63.6,12.2 86.7,12.2 L259.9,12.2 C282.9,12.2 301.6,30.8 301.6,53.9 L301.6,227 C301.5,250 282.9,268.7 259.9,268.7 Z" stroke-width="3.8318" fill="#4F5057"></path>
                        <path d="M259.7,268.7 L86.4,268.7 C63.4,268.7 44.7,250 44.7,227 L44.7,53.8 C44.7,30.8 63.4,12.1 86.4,12.1 L259.7,12.1 C282.7,12.1 301.4,30.8 301.4,53.8 L301.4,227.1 C301.4,250.1 282.8,268.7 259.7,268.7 Z" stroke-width="3.8326" fill="#4F5058"></path>
                        <path d="M259.6,268.8 L86.3,268.8 C63.3,268.8 44.6,250.1 44.6,227.1 L44.6,53.8 C44.6,30.8 63.3,12.1 86.3,12.1 L259.6,12.1 C282.6,12.1 301.3,30.8 301.3,53.8 L301.3,227.1 C301.3,250.1 282.6,268.8 259.6,268.8 Z" stroke-width="3.8335" fill="#505159"></path>
                        <path d="M259.5,268.9 L86.1,268.9 C63.1,268.9 44.4,250.2 44.4,227.2 L44.4,53.7 C44.4,30.7 63.1,12 86.1,12 L259.5,12 C282.5,12 301.2,30.7 301.2,53.7 L301.2,227.1 C301.2,250.2 282.5,268.9 259.5,268.9 Z" stroke-width="3.8344" fill="#505159"></path>
                        <path d="M259.3,268.9 L85.8,268.9 C62.8,268.9 44.1,250.2 44.1,227.2 L44.1,53.7 C44.1,30.7 62.8,12 85.8,12 L259.3,12 C282.3,12 301.000399,30.7 301.000399,53.7 L301.000399,227.2 C301.1,250.2 282.4,268.9 259.3,268.9 Z" stroke-width="3.8352" fill="#51525A"></path>
                        <path d="M259.2,269 L85.6,269 C62.5,269 43.9,250.3 43.9,227.3 L43.9,53.6 C43.9,30.5 62.6,11.9 85.6,11.9 L259.2,11.9 C282.3,11.9 300.900399,30.6 300.900399,53.6 L300.900399,227.2 C301,250.3 282.3,269 259.2,269 Z" stroke-width="3.8361" fill="#52535A"></path>
                        <path d="M259.1,269 L85.4,269 C62.3,269 43.6,250.3 43.6,227.2 L43.6,53.6 C43.6,30.5 62.3,11.8 85.4,11.8 L259.1,11.8 C282.2,11.8 300.9,30.5 300.9,53.6 L300.9,227.3 C300.8,250.3 282.1,269 259.1,269 Z" stroke-width="3.837" fill="#52535B"></path>
                        <path d="M258.9,269.1 L85.2,269.1 C62.1,269.1 43.4,250.4 43.4,227.3 L43.4,53.6 C43.4,30.5 62.1,11.8 85.2,11.8 L258.9,11.8 C282,11.8 300.7,30.5 300.7,53.6 L300.7,227.3 C300.7,250.4 282,269.1 258.9,269.1 Z" stroke-width="3.8379" fill="#53545B"></path>
                        <path d="M258.8,269.1 L85,269.1 C61.9,269.1 43.2,250.4 43.2,227.3 L43.2,53.5 C43.2,30.4 61.9,11.7 85,11.7 L258.8,11.7 C281.9,11.7 300.6,30.4 300.6,53.5 L300.6,227.3 C300.6,250.4 281.9,269.1 258.8,269.1 Z" stroke-width="3.8387" fill="#54545C"></path>
                        <path d="M258.7,269.2 L84.8,269.2 C61.7,269.2 43,250.5 43,227.4 L43,53.5 C43,30.4 61.7,11.7 84.8,11.7 L258.7,11.7 C281.8,11.7 300.5,30.4 300.5,53.5 L300.5,227.4 C300.5,250.5 281.8,269.2 258.7,269.2 Z" stroke-width="3.8396" fill="#54555D"></path>
                        <path d="M258.5,269.3 L84.5,269.3 C61.4,269.3 42.7,250.6 42.7,227.5 L42.7,53.5 C42.7,30.4 61.4,11.7 84.5,11.7 L258.5,11.7 C281.6,11.7 300.300399,30.4 300.300399,53.5 L300.300399,227.5 C300.4,250.5 281.7,269.3 258.5,269.3 Z" stroke-width="3.8405" fill="#55565D"></path>
                        <path d="M258.4,269.3 L84.3,269.3 C61.2,269.3 42.4,250.6 42.4,227.4 L42.4,53.4 C42.4,30.3 61.1,11.5 84.3,11.5 L258.4,11.5 C281.5,11.5 300.3,30.2 300.3,53.4 L300.3,227.5 C300.3,250.6 281.5,269.3 258.4,269.3 Z" stroke-width="3.8413" fill="#55565E"></path>
                        <path d="M258.3,269.4 L84.2,269.4 C61.1,269.4 42.3,250.6 42.3,227.5 L42.3,53.4 C42.3,30.3 61.1,11.5 84.2,11.5 L258.3,11.5 C281.4,11.5 300.2,30.3 300.2,53.4 L300.2,227.5 C300.2,250.6 281.4,269.4 258.3,269.4 Z" stroke-width="3.8422" fill="#56575E"></path>
                        <path d="M258.2,269.4 L84,269.4 C60.9,269.4 42.1,250.6 42.1,227.5 L42.1,53.3 C42.1,30.2 60.9,11.4 84,11.4 L258.2,11.4 C281.3,11.4 300.1,30.2 300.1,53.3 L300.1,227.5 C300.1,250.7 281.3,269.4 258.2,269.4 Z" stroke-width="3.8431" fill="#57575F"></path>
                        <path d="M258,269.5 L83.7,269.5 C60.5,269.5 41.8,250.7 41.8,227.6 L41.8,53.3 C41.8,30.1 60.6,11.4 83.7,11.4 L258,11.4 C281.2,11.4 299.9,30.2 299.9,53.3 L299.9,227.6 C299.9,250.7 281.2,269.5 258,269.5 Z" stroke-width="3.8439" fill="#575860"></path>
                        <path d="M257.9,269.5 L83.5,269.5 C60.3,269.5 41.6,250.7 41.6,227.6 L41.6,53.2 C41.6,30 60.4,11.3 83.5,11.3 L257.9,11.3 C281.1,11.3 299.8,30.1 299.8,53.2 L299.8,227.6 C299.8,250.8 281.1,269.5 257.9,269.5 Z" stroke-width="3.8448" fill="#585960"></path>
                        <path d="M257.8,269.6 L83.3,269.6 C60.1,269.6 41.3,250.8 41.3,227.6 L41.3,53.2 C41.3,30 60.1,11.2 83.3,11.2 L257.8,11.2 C281,11.2 299.8,30 299.8,53.2 L299.8,227.7 C299.7,250.8 280.9,269.6 257.8,269.6 Z" stroke-width="3.8457" fill="#595961"></path>
                        <path d="M257.6,269.7 L83.1,269.7 C59.9,269.7 41.1,250.9 41.1,227.7 L41.1,53.1 C41.1,29.9 59.9,11.1 83.1,11.1 L257.6,11.1 C280.8,11.1 299.6,29.9 299.6,53.1 L299.6,227.6 C299.6,250.9 280.8,269.7 257.6,269.7 Z" stroke-width="3.8465" fill="#595A61"></path>
                        <path d="M257.5,269.7 L82.9,269.7 C59.7,269.7 40.9,250.9 40.9,227.7 L40.9,53.1 C40.9,29.9 59.7,11.1 82.9,11.1 L257.5,11.1 C280.7,11.1 299.5,29.9 299.5,53.1 L299.5,227.7 C299.5,250.9 280.7,269.7 257.5,269.7 Z" stroke-width="3.8474" fill="#5A5A62"></path>
                        <path d="M257.4,269.8 L82.7,269.8 C59.5,269.8 40.7,251 40.7,227.8 L40.7,53.1 C40.7,29.9 59.5,11.1 82.7,11.1 L257.4,11.1 C280.6,11.1 299.4,29.9 299.4,53.1 L299.4,227.8 C299.4,251 280.6,269.8 257.4,269.8 Z" stroke-width="3.8483" fill="#5B5B63"></path>
                        <path d="M257.2,269.8 L82.4,269.8 C59.2,269.8 40.4,251 40.4,227.8 L40.4,53 C40.4,29.8 59.2,11 82.4,11 L257.2,11 C280.4,11 299.200395,29.8 299.200395,53 L299.200395,227.8 C299.3,251 280.4,269.8 257.2,269.8 Z" stroke-width="3.8491" fill="#5B5C63"></path>
                        <path d="M257.1,269.9 L82.2,269.9 C59,269.9 40.1,251.1 40.1,227.8 L40.1,53 C40.1,29.8 58.9,10.9 82.2,10.9 L257.1,10.9 C280.3,10.9 299.2,29.7 299.2,53 L299.2,227.9 C299.1,251.1 280.3,269.9 257.1,269.9 Z" stroke-width="3.85" fill="#5C5C64"></path>
                        <path d="M257,269.9 L82,269.9 C58.8,269.9 39.9,251.1 39.9,227.8 L39.9,52.9 C39.9,29.7 58.7,10.8 82,10.8 L257,10.8 C280.2,10.8 299.1,29.6 299.1,52.9 L299.1,227.8 C299,251.1 280.2,269.9 257,269.9 Z" stroke-width="3.8509" fill="#5D5D65"></path>
                        <path d="M256.8,270 L81.8,270 C58.6,270 39.7,251.2 39.7,227.9 L39.7,52.9 C39.7,29.7 58.5,10.8 81.8,10.8 L256.8,10.8 C280,10.8 298.9,29.6 298.9,52.9 L298.9,227.9 C298.9,251.2 280.1,270 256.8,270 Z" stroke-width="3.8517" fill="#5D5E65"></path>
                        <path d="M256.7,270.1 L81.6,270.1 C58.3,270.1 39.5,251.2 39.5,228 L39.5,52.9 C39.5,29.6 58.4,10.8 81.6,10.8 L256.7,10.8 C280,10.8 298.8,29.7 298.8,52.9 L298.8,228 C298.8,251.2 280,270.1 256.7,270.1 Z" stroke-width="3.8526" fill="#5E5E66"></path>
                        <path d="M256.6,270.1 L81.4,270.1 C58.1,270.1 39.3,251.2 39.3,228 L39.3,52.8 C39.3,29.5 58.2,10.7 81.4,10.7 L256.6,10.7 C279.9,10.7 298.7,29.6 298.7,52.8 L298.7,228 C298.7,251.3 279.8,270.1 256.6,270.1 Z" stroke-width="3.8535" fill="#5F5F66"></path>
                        <path d="M256.4,270.2 L81.1,270.2 C57.8,270.2 38.9,251.3 38.9,228 L38.9,52.8 C38.9,29.5 57.8,10.6 81.1,10.6 L256.4,10.6 C279.7,10.6 298.6,29.5 298.6,52.8 L298.6,228 C298.6,251.3 279.7,270.2 256.4,270.2 Z" stroke-width="3.8543" fill="#5F5F67"></path>
                        <path d="M256.3,270.2 L81,270.2 C57.7,270.2 38.8,251.3 38.8,228 L38.8,52.7 C38.8,29.4 57.7,10.5 81,10.5 L256.3,10.5 C279.6,10.5 298.5,29.4 298.5,52.7 L298.5,228 C298.5,251.4 279.6,270.2 256.3,270.2 Z" stroke-width="3.8552" fill="#606068"></path>
                        <path d="M256.2,270.3 L80.8,270.3 C57.5,270.3 38.6,251.4 38.6,228.1 L38.6,52.7 C38.6,29.4 57.5,10.5 80.8,10.5 L256.2,10.5 C279.5,10.5 298.4,29.4 298.4,52.7 L298.4,228.1 C298.4,251.4 279.5,270.3 256.2,270.3 Z" stroke-width="3.8561" fill="#616168"></path>
                        <path d="M256,270.3 L80.5,270.3 C57.2,270.3 38.3,251.4 38.3,228.1 L38.3,52.7 C38.3,29.4 57.2,10.5 80.5,10.5 L256,10.5 C279.3,10.5 298.2,29.4 298.2,52.7 L298.2,228.2 C298.2,251.5 279.3,270.3 256,270.3 Z" stroke-width="3.8569" fill="#616169"></path>
                        <path d="M255.9,270.4 L80.3,270.4 C57,270.4 38.1,251.5 38.1,228.2 L38.1,52.6 C38.1,29.3 57,10.4 80.3,10.4 L255.9,10.4 C279.2,10.4 298.1,29.3 298.1,52.6 L298.1,228.2 C298.1,251.5 279.2,270.4 255.9,270.4 Z" stroke-width="3.8578" fill="#62626A"></path>
                        <path d="M255.8,270.5 L80.2,270.5 C56.9,270.5 38,251.6 38,228.3 L38,52.6 C38,29.3 56.9,10.4 80.2,10.4 L255.8,10.4 C279.1,10.4 298,29.3 298,52.6 L298,228.2 C298,251.5 279.1,270.5 255.8,270.5 Z" stroke-width="3.8587" fill="#63636A"></path>
                        <path d="M255.6,270.5 L79.9,270.5 C56.6,270.5 37.6,251.6 37.6,228.2 L37.6,52.5 C37.6,29.2 56.5,10.2 79.9,10.2 L255.6,10.2 C278.9,10.2 297.9,29.1 297.9,52.5 L297.9,228.2 C297.9,251.6 279,270.5 255.6,270.5 Z" stroke-width="3.8595" fill="#63636B"></path>
                        <path d="M255.5,270.6 L79.7,270.6 C56.3,270.6 37.4,251.7 37.4,228.3 L37.4,52.5 C37.4,29.1 56.3,10.2 79.7,10.2 L255.5,10.2 C278.9,10.2 297.8,29.1 297.8,52.5 L297.8,228.3 C297.8,251.6 278.9,270.6 255.5,270.6 Z" stroke-width="3.8604" fill="#64646C"></path>
                        <path d="M255.4,270.6 L79.5,270.6 C56.1,270.6 37.2,251.7 37.2,228.3 L37.2,52.4 C37.2,29 56.1,10.1 79.5,10.1 L255.4,10.1 C278.8,10.1 297.7,29 297.7,52.4 L297.7,228.3 C297.7,251.7 278.7,270.6 255.4,270.6 Z" stroke-width="3.8613" fill="#65656C"></path>
                        <path d="M255.2,270.7 L79.2,270.7 C55.8,270.7 36.9,251.8 36.9,228.4 L36.9,52.4 C36.9,29 55.8,10.1 79.2,10.1 L255.2,10.1 C278.6,10.1 297.500393,29 297.500393,52.4 L297.500393,228.4 C297.6,251.7 278.6,270.7 255.2,270.7 Z" stroke-width="3.8621" fill="#65656D"></path>
                        <path d="M255.1,270.7 L79.1,270.7 C55.7,270.7 36.8,251.7 36.8,228.4 L36.8,52.4 C36.8,29 55.8,10.1 79.1,10.1 L255.1,10.1 C278.5,10.1 297.400393,29.1 297.400393,52.4 L297.400393,228.4 C297.5,251.8 278.5,270.7 255.1,270.7 Z" stroke-width="3.863" fill="#66666D"></path>
                        <path d="M255,270.8 L78.9,270.8 C55.5,270.8 36.5,251.8 36.5,228.4 L36.5,52.3 C36.5,28.9 55.5,9.9 78.9,9.9 L255,9.9 C278.4,9.9 297.4,28.9 297.4,52.3 L297.4,228.4 C297.3,251.8 278.4,270.8 255,270.8 Z" stroke-width="3.8639" fill="#67676E"></path>
                        <path d="M254.8,270.9 L78.6,270.9 C55.2,270.9 36.2,251.9 36.2,228.5 L36.2,52.3 C36.2,28.9 55.2,9.9 78.6,9.9 L254.8,9.9 C278.2,9.9 297.2,28.9 297.2,52.3 L297.2,228.5 C297.2,251.9 278.3,270.9 254.8,270.9 Z" stroke-width="3.8647" fill="#68676F"></path>
                        <path d="M254.7,270.9 L78.4,270.9 C55,270.9 36,251.9 36,228.5 L36,52.2 C36,28.8 55,9.8 78.4,9.8 L254.7,9.8 C278.1,9.8 297.1,28.8 297.1,52.2 L297.1,228.5 C297.1,251.9 278.1,270.9 254.7,270.9 Z" stroke-width="3.8656" fill="#68686F"></path>
                        <path d="M254.6,271 L78.2,271 C54.8,271 35.8,252 35.8,228.6 L35.8,52.2 C35.8,28.8 54.8,9.8 78.2,9.8 L254.6,9.8 C278,9.8 297,28.8 297,52.2 L297,228.6 C297,252 278,271 254.6,271 Z" stroke-width="3.8665" fill="#696970"></path>
                        <path d="M254.4,271 L78,271 C54.6,271 35.6,252 35.6,228.6 L35.6,52.2 C35.6,28.8 54.6,9.8 78,9.8 L254.4,9.8 C277.8,9.8 296.800393,28.8 296.800393,52.2 L296.800393,228.6 C296.9,252 277.9,271 254.4,271 Z" stroke-width="3.8673" fill="#6A6971"></path>
                        <path d="M254.3,271.1 L77.8,271.1 C54.4,271.1 35.3,252.1 35.3,228.6 L35.3,52.1 C35.3,28.7 54.3,9.6 77.8,9.6 L254.3,9.6 C277.7,9.6 296.8,28.6 296.8,52.1 L296.8,228.6 C296.8,252.1 277.8,271.1 254.3,271.1 Z" stroke-width="3.8682" fill="#6A6A71"></path>
                        <path d="M254.2,271.1 L77.6,271.1 C54.1,271.1 35.1,252.1 35.1,228.6 L35.1,52.1 C35.1,28.6 54.1,9.6 77.6,9.6 L254.2,9.6 C277.7,9.6 296.7,28.6 296.7,52.1 L296.7,228.7 C296.7,252.1 277.6,271.1 254.2,271.1 Z" stroke-width="3.8691" fill="#6B6B72"></path>
                        <path d="M254.1,271.2 L77.4,271.2 C53.9,271.2 34.9,252.2 34.9,228.7 L34.9,52 C34.9,28.5 53.9,9.5 77.4,9.5 L254.1,9.5 C277.6,9.5 296.6,28.5 296.6,52 L296.6,228.7 C296.5,252.2 277.5,271.2 254.1,271.2 Z" stroke-width="3.8699" fill="#6C6B73"></path>
                        <path d="M253.9,271.3 L77.1,271.3 C53.6,271.3 34.6,252.3 34.6,228.8 L34.6,52 C34.6,28.5 53.6,9.5 77.1,9.5 L253.9,9.5 C277.4,9.5 296.4,28.5 296.4,52 L296.4,228.8 C296.4,252.2 277.4,271.3 253.9,271.3 Z" stroke-width="3.8708" fill="#6C6C73"></path>
                        <path d="M253.8,271.3 L77,271.3 C53.5,271.3 34.5,252.3 34.5,228.8 L34.5,51.9 C34.5,28.4 53.5,9.4 77,9.4 L253.8,9.4 C277.3,9.4 296.3,28.4 296.3,51.9 L296.3,228.7 C296.3,252.3 277.3,271.3 253.8,271.3 Z" stroke-width="3.8717" fill="#6D6D74"></path>
                        <path d="M253.7,271.4 L76.8,271.4 C53.3,271.4 34.2,252.3 34.2,228.8 L34.2,51.9 C34.2,28.4 53.3,9.3 76.8,9.3 L253.7,9.3 C277.2,9.3 296.3,28.4 296.3,51.9 L296.3,228.8 C296.2,252.3 277.2,271.4 253.7,271.4 Z" stroke-width="3.8725" fill="#6E6E75"></path>
                        <path d="M253.5,271.4 L76.5,271.4 C53,271.4 33.9,252.3 33.9,228.8 L33.9,51.8 C33.9,28.3 53,9.2 76.5,9.2 L253.5,9.2 C277,9.2 296.1,28.3 296.1,51.8 L296.1,228.8 C296.1,252.4 277,271.4 253.5,271.4 Z" stroke-width="3.8734" fill="#6F6E75"></path>
                        <path d="M253.4,271.5 L76.3,271.5 C52.8,271.5 33.7,252.4 33.7,228.9 L33.7,51.8 C33.7,28.3 52.8,9.2 76.3,9.2 L253.4,9.2 C276.9,9.2 296,28.3 296,51.8 L296,228.9 C296,252.4 276.9,271.5 253.4,271.5 Z" stroke-width="3.8743" fill="#6F6F76"></path>
                        <path d="M253.3,271.5 L76.1,271.5 C52.6,271.5 33.5,252.4 33.5,228.9 L33.5,51.8 C33.5,28.3 52.6,9.2 76.1,9.2 L253.3,9.2 C276.8,9.2 295.9,28.3 295.9,51.8 L295.9,229 C295.9,252.5 276.8,271.5 253.3,271.5 Z" stroke-width="3.8751" fill="#707077"></path>
                        <path d="M253.1,271.6 L75.9,271.6 C52.4,271.6 33.3,252.5 33.3,229 L33.3,51.7 C33.3,28.2 52.4,9.1 75.9,9.1 L253.1,9.1 C276.6,9.1 295.700391,28.2 295.700391,51.7 L295.700391,229 C295.8,252.5 276.7,271.6 253.1,271.6 Z" stroke-width="3.876" fill="#717078"></path>
                        <path d="M253,271.7 L75.7,271.7 C52.1,271.7 33.1,252.6 33.1,229.1 L33.1,51.7 C33.1,28.1 52.2,9.1 75.7,9.1 L253,9.1 C276.6,9.1 295.6,28.2 295.6,51.7 L295.6,229 C295.6,252.6 276.5,271.7 253,271.7 Z" stroke-width="3.8769" fill="#717178"></path>
                        <path d="M252.9,271.7 L75.5,271.7 C51.9,271.7 32.8,252.6 32.8,229 L32.8,51.7 C32.8,28.1 51.9,9 75.5,9 L252.9,9 C276.5,9 295.6,28.1 295.6,51.7 L295.6,229.1 C295.5,252.6 276.4,271.7 252.9,271.7 Z" stroke-width="3.8777" fill="#727279"></path>
                        <path d="M252.7,271.8 L75.2,271.8 C51.6,271.8 32.5,252.7 32.5,229.1 L32.5,51.6 C32.5,28 51.6,8.9 75.2,8.9 L252.7,8.9 C276.3,8.9 295.4,28 295.4,51.6 L295.4,229.1 C295.4,252.7 276.3,271.8 252.7,271.8 Z" stroke-width="3.8786" fill="#73737A"></path>
                        <path d="M252.6,271.8 L75,271.8 C51.4,271.8 32.3,252.7 32.3,229.1 L32.3,51.6 C32.3,28 51.4,8.9 75,8.9 L252.6,8.9 C276.2,8.9 295.3,28 295.3,51.6 L295.3,229.2 C295.3,252.7 276.2,271.8 252.6,271.8 Z" stroke-width="3.8795" fill="#74737A"></path>
                        <path d="M252.5,271.9 L74.9,271.9 C51.3,271.9 32.2,252.8 32.2,229.2 L32.2,51.5 C32.2,27.9 51.3,8.8 74.9,8.8 L252.5,8.8 C276.1,8.8 295.2,27.9 295.2,51.5 L295.2,229.1 C295.2,252.8 276.1,271.9 252.5,271.9 Z" stroke-width="3.8803" fill="#74747B"></path>
                        <path d="M252.3,271.9 L74.6,271.9 C51,271.9 31.9,252.8 31.9,229.2 L31.9,51.5 C31.9,27.9 51,8.8 74.6,8.8 L252.3,8.8 C275.9,8.8 295.000389,27.9 295.000389,51.5 L295.000389,229.2 C295.1,252.8 275.9,271.9 252.3,271.9 Z" stroke-width="3.8812" fill="#75757C"></path>
                        <path d="M252.2,272 L74.4,272 C50.8,272 31.6,252.9 31.6,229.2 L31.6,51.4 C31.6,27.8 50.7,8.6 74.4,8.6 L252.2,8.6 C275.8,8.6 295,27.7 295,51.4 L295,229.2 C295,252.9 275.8,272 252.2,272 Z" stroke-width="3.8821" fill="#76757C"></path>
                        <path d="M252.1,272.1 L74.2,272.1 C50.6,272.1 31.4,252.9 31.4,229.3 L31.4,51.4 C31.4,27.8 50.6,8.6 74.2,8.6 L252.1,8.6 C275.7,8.6 294.9,27.8 294.9,51.4 L294.9,229.3 C294.8,252.9 275.7,272.1 252.1,272.1 Z" stroke-width="3.8829" fill="#77767D"></path>
                        <path d="M251.9,272.1 L73.9,272.1 C50.3,272.1 31.1,252.9 31.1,229.3 L31.1,51.3 C31.1,27.7 50.3,8.5 73.9,8.5 L251.9,8.5 C275.5,8.5 294.7,27.7 294.7,51.3 L294.7,229.3 C294.7,253 275.6,272.1 251.9,272.1 Z" stroke-width="3.8838" fill="#78777E"></path>
                        <path d="M251.8,272.2 L73.8,272.2 C50.2,272.2 31,253 31,229.4 L31,51.4 C31,27.8 50.2,8.6 73.8,8.6 L251.8,8.6 C275.4,8.6 294.6,27.8 294.6,51.4 L294.6,229.4 C294.6,253 275.5,272.2 251.8,272.2 Z" stroke-width="3.8847" fill="#78787F"></path>
                        <path d="M251.7,272.2 L73.6,272.2 C49.9,272.2 30.8,253 30.8,229.4 L30.8,51.3 C30.8,27.6 50,8.5 73.6,8.5 L251.7,8.5 C275.4,8.5 294.5,27.7 294.5,51.3 L294.5,229.4 C294.5,253.1 275.3,272.2 251.7,272.2 Z" stroke-width="3.8855" fill="#79787F"></path>
                        <path d="M251.5,272.3 L73.3,272.3 C49.6,272.3 30.4,253.1 30.4,229.4 L30.4,51.2 C30.4,27.5 49.6,8.3 73.3,8.3 L251.5,8.3 C275.2,8.3 294.4,27.5 294.4,51.2 L294.4,229.4 C294.4,253.1 275.2,272.3 251.5,272.3 Z" stroke-width="3.8864" fill="#7A7980"></path>
                        <path d="M251.4,272.3 L73.1,272.3 C49.4,272.3 30.2,253.1 30.2,229.4 L30.2,51.2 C30.2,27.5 49.4,8.3 73.1,8.3 L251.4,8.3 C275.1,8.3 294.3,27.5 294.3,51.2 L294.3,229.5 C294.3,253.1 275.1,272.3 251.4,272.3 Z" stroke-width="3.8873" fill="#7B7A81"></path>
                        <path d="M251.3,272.4 L73,272.4 C49.3,272.4 30.1,253.2 30.1,229.5 L30.1,51.2 C30.1,27.5 49.3,8.3 73,8.3 L251.3,8.3 C275,8.3 294.2,27.5 294.2,51.2 L294.2,229.5 C294.2,253.2 275,272.4 251.3,272.4 Z" stroke-width="3.8881" fill="#7B7B82"></path>
                        <path d="M251.1,272.5 L72.7,272.5 C49,272.5 29.8,253.3 29.8,229.6 L29.8,51.1 C29.8,27.4 49,8.2 72.7,8.2 L251.1,8.2 C274.8,8.2 294.000387,27.4 294.000387,51.1 L294.000387,229.5 C294.1,253.2 274.8,272.5 251.1,272.5 Z" stroke-width="3.889" fill="#7C7C82"></path>
                        <path d="M251,272.5 L72.5,272.5 C48.8,272.5 29.6,253.3 29.6,229.6 L29.6,51.1 C29.6,27.4 48.8,8.2 72.5,8.2 L251,8.2 C274.7,8.2 293.9,27.4 293.9,51.1 L293.9,229.6 C293.9,253.3 274.7,272.5 251,272.5 Z" stroke-width="3.8899" fill="#7D7C83"></path>
                        <path d="M250.9,272.6 L72.3,272.6 C48.6,272.6 29.3,253.4 29.3,229.6 L29.3,51 C29.3,27.3 48.5,8 72.3,8 L250.9,8 C274.6,8 293.9,27.2 293.9,51 L293.9,229.6 C293.8,253.3 274.6,272.6 250.9,272.6 Z" stroke-width="3.8907" fill="#7E7D84"></path>
                        <path d="M250.7,272.6 L72,272.6 C48.3,272.6 29,253.4 29,229.6 L29,51 C29,27.3 48.2,8 72,8 L250.7,8 C274.4,8 293.7,27.2 293.7,51 L293.7,229.7 C293.7,253.4 274.5,272.6 250.7,272.6 Z" stroke-width="3.8916" fill="#7F7E85"></path>
                        <path d="M250.6,272.7 L71.9,272.7 C48.2,272.7 28.9,253.5 28.9,229.7 L28.9,50.9 C28.9,27.2 48.1,7.9 71.9,7.9 L250.6,7.9 C274.3,7.9 293.6,27.1 293.6,50.9 L293.6,229.6 C293.6,253.4 274.4,272.7 250.6,272.7 Z" stroke-width="3.8925" fill="#7F7F85"></path>
                        <path d="M250.5,272.7 L71.7,272.7 C47.9,272.7 28.7,253.4 28.7,229.7 L28.7,50.9 C28.7,27.1 48,7.9 71.7,7.9 L250.5,7.9 C274.3,7.9 293.5,27.2 293.5,50.9 L293.5,229.7 C293.5,253.5 274.2,272.7 250.5,272.7 Z" stroke-width="3.8933" fill="#807F86"></path>
                        <path d="M250.3,272.8 L71.4,272.8 C47.6,272.8 28.4,253.5 28.4,229.8 L28.4,50.9 C28.4,27.1 47.7,7.9 71.4,7.9 L250.3,7.9 C274.1,7.9 293.300387,27.2 293.300387,50.9 L293.300387,229.8 C293.4,253.5 274.1,272.8 250.3,272.8 Z" stroke-width="3.8942" fill="#818087"></path>
                        <path d="M250.2,272.9 L71.2,272.9 C47.4,272.9 28.2,253.6 28.2,229.9 L28.2,50.9 C28.2,27.1 47.5,7.9 71.2,7.9 L250.2,7.9 C274,7.9 293.200387,27.2 293.200387,50.9 L293.200387,229.9 C293.3,253.6 274,272.9 250.2,272.9 Z" stroke-width="3.8951" fill="#828188"></path>
                        <path d="M250.1,272.9 L71,272.9 C47.2,272.9 27.9,253.6 27.9,229.8 L27.9,50.8 C27.9,27 47.2,7.7 71,7.7 L250.1,7.7 C273.9,7.7 293.2,27 293.2,50.8 L293.2,229.9 C293.1,253.6 273.9,272.9 250.1,272.9 Z" stroke-width="3.8959" fill="#838288"></path>
                        <path d="M249.9,273 L70.8,273 C47,273 27.7,253.7 27.7,229.9 L27.7,50.7 C27.7,26.9 47,7.6 70.8,7.6 L249.9,7.6 C273.7,7.6 293,26.9 293,50.7 L293,229.8 C293,253.7 273.7,273 249.9,273 Z" stroke-width="3.8968" fill="#838389"></path>
                        <path d="M249.8,273 L70.6,273 C46.8,273 27.5,253.7 27.5,229.9 L27.5,50.7 C27.5,26.9 46.8,7.6 70.6,7.6 L249.8,7.6 C273.6,7.6 292.9,26.9 292.9,50.7 L292.9,229.9 C292.9,253.7 273.6,273 249.8,273 Z" stroke-width="3.8977" fill="#84838A"></path>
                        <path d="M249.7,273.1 L70.4,273.1 C46.6,273.1 27.3,253.8 27.3,230 L27.3,50.7 C27.3,26.9 46.6,7.6 70.4,7.6 L249.7,7.6 C273.5,7.6 292.8,26.9 292.8,50.7 L292.8,230 C292.8,253.8 273.5,273.1 249.7,273.1 Z" stroke-width="3.8985" fill="#85848B"></path>
                        <path d="M249.6,273.1 L70.2,273.1 C46.4,273.1 27.1,253.8 27.1,230 L27.1,50.6 C27.1,26.8 46.4,7.5 70.2,7.5 L249.6,7.5 C273.4,7.5 292.7,26.8 292.7,50.6 L292.7,230 C292.7,253.8 273.4,273.1 249.6,273.1 Z" stroke-width="3.8994" fill="#86858B"></path>
                        <path d="M249.4,273.2 L70,273.2 C46.2,273.2 26.8,253.9 26.8,230 L26.8,50.6 C26.8,26.8 46.1,7.4 70,7.4 L249.5,7.4 C273.3,7.4 292.7,26.7 292.7,50.6 L292.7,230 C292.6,253.9 273.3,273.2 249.4,273.2 Z" stroke-width="3.9003" fill="#87868C"></path>
                        <path d="M249.3,273.3 L69.8,273.3 C46,273.3 26.6,254 26.6,230.1 L26.6,50.5 C26.6,26.7 45.9,7.3 69.8,7.3 L249.3,7.3 C273.1,7.3 292.5,26.6 292.5,50.5 L292.5,230 C292.5,253.9 273.1,273.3 249.3,273.3 Z" stroke-width="3.9011" fill="#87868D"></path>
                        <path d="M249.2,273.3 L69.6,273.3 C45.7,273.3 26.4,254 26.4,230.1 L26.4,50.5 C26.4,26.6 45.7,7.3 69.6,7.3 L249.2,7.3 C273.1,7.3 292.4,26.6 292.4,50.5 L292.4,230.1 C292.4,254 273,273.3 249.2,273.3 Z" stroke-width="3.902" fill="#88878E"></path>
                        <path d="M249,273.4 L69.3,273.4 C45.4,273.4 26.1,254 26.1,230.2 L26.1,50.5 C26.1,26.6 45.5,7.3 69.3,7.3 L249,7.3 C272.9,7.3 292.2,26.7 292.2,50.5 L292.2,230.2 C292.2,254 272.9,273.4 249,273.4 Z" stroke-width="3.9029" fill="#89888E"></path>
                        <path d="M248.9,273.4 L69.1,273.4 C45.2,273.4 25.9,254 25.9,230.2 L25.9,50.4 C25.9,26.5 45.3,7.2 69.1,7.2 L248.9,7.2 C272.8,7.2 292.1,26.6 292.1,50.4 L292.1,230.2 C292.1,254.1 272.8,273.4 248.9,273.4 Z" stroke-width="3.9038" fill="#8A898F"></path>
                        <path d="M248.8,273.5 L68.9,273.5 C45,273.5 25.6,254.1 25.6,230.2 L25.6,50.4 C25.6,26.5 45,7.1 68.9,7.1 L248.8,7.1 C272.7,7.1 292.1,26.5 292.1,50.4 L292.1,230.3 C292,254.1 272.6,273.5 248.8,273.5 Z" stroke-width="3.9046" fill="#8B8A90"></path>
                        <path d="M248.6,273.5 L68.7,273.5 C44.8,273.5 25.4,254.1 25.4,230.2 L25.4,50.3 C25.4,26.4 44.8,7 68.7,7 L248.6,7 C272.5,7 291.9,26.4 291.9,50.3 L291.9,230.2 C291.9,254.2 272.5,273.5 248.6,273.5 Z" stroke-width="3.9055" fill="#8B8B91"></path>
                        <path d="M248.5,273.6 L68.5,273.6 C44.6,273.6 25.2,254.2 25.2,230.3 L25.2,50.3 C25.2,26.4 44.6,7 68.5,7 L248.5,7 C272.4,7 291.8,26.4 291.8,50.3 L291.8,230.3 C291.8,254.2 272.4,273.6 248.5,273.6 Z" stroke-width="3.9064" fill="#8C8B92"></path>
                        <path d="M248.4,273.7 L68.3,273.7 C44.4,273.7 25,254.3 25,230.4 L25,50.2 C25,26.3 44.4,6.9 68.3,6.9 L248.4,6.9 C272.3,6.9 291.7,26.3 291.7,50.2 L291.7,230.3 C291.7,254.3 272.3,273.7 248.4,273.7 Z" stroke-width="3.9072" fill="#8D8C92"></path>
                        <path d="M248.2,273.7 L68,273.7 C44.1,273.7 24.7,254.3 24.7,230.4 L24.7,50.2 C24.7,26.3 44.1,6.9 68,6.9 L248.2,6.9 C272.1,6.9 291.500385,26.3 291.500385,50.2 L291.500385,230.4 C291.6,254.3 272.2,273.7 248.2,273.7 Z" stroke-width="3.9081" fill="#8E8D93"></path>
                        <path d="M248.1,273.8 L67.8,273.8 C43.9,273.8 24.4,254.4 24.4,230.4 L24.4,50.2 C24.4,26.3 43.8,6.8 67.8,6.8 L248.1,6.8 C272,6.8 291.5,26.2 291.5,50.2 L291.5,230.5 C291.5,254.4 272,273.8 248.1,273.8 Z" stroke-width="3.909" fill="#8F8E94"></path>
                        <path d="M248,273.8 L67.7,273.8 C43.7,273.8 24.3,254.4 24.3,230.4 L24.3,50.1 C24.3,26.1 43.7,6.7 67.7,6.7 L248,6.7 C272,6.7 291.4,26.1 291.4,50.1 L291.4,230.4 C291.3,254.4 271.9,273.8 248,273.8 Z" stroke-width="3.9098" fill="#908F95"></path>
                        <path d="M247.8,273.9 L67.4,273.9 C43.4,273.9 24,254.5 24,230.5 L24,50.1 C24,26.1 43.4,6.7 67.4,6.7 L247.8,6.7 C271.8,6.7 291.2,26.1 291.2,50.1 L291.2,230.5 C291.2,254.5 271.8,273.9 247.8,273.9 Z" stroke-width="3.9107" fill="#909095"></path>
                        <path d="M247.7,273.9 L67.2,273.9 C43.2,273.9 23.8,254.5 23.8,230.5 L23.8,50 C23.8,26 43.2,6.6 67.2,6.6 L247.7,6.6 C271.7,6.6 291.1,26 291.1,50 L291.1,230.5 C291.1,254.5 271.7,273.9 247.7,273.9 Z" stroke-width="3.9116" fill="#919096"></path>
                        <path d="M247.6,274 L67,274 C43,274 23.6,254.6 23.6,230.6 L23.6,50 C23.6,26 43,6.6 67,6.6 L247.6,6.6 C271.6,6.6 291,26 291,50 L291,230.6 C291,254.6 271.6,274 247.6,274 Z" stroke-width="3.9124" fill="#929197"></path>
                        <path d="M247.4,274.1 L66.7,274.1 C42.7,274.1 23.3,254.6 23.3,230.7 L23.3,50 C23.3,26 42.8,6.6 66.7,6.6 L247.4,6.6 C271.4,6.6 290.800383,26.1 290.800383,50 L290.800383,230.7 C290.9,254.6 271.4,274.1 247.4,274.1 Z" stroke-width="3.9133" fill="#939298"></path>
                        <path d="M247.3,274.1 L66.6,274.1 C42.6,274.1 23.1,254.6 23.1,230.6 L23.1,49.9 C23.1,25.9 42.6,6.4 66.6,6.4 L247.3,6.4 C271.3,6.4 290.8,25.9 290.8,49.9 L290.8,230.6 C290.8,254.7 271.3,274.1 247.3,274.1 Z" stroke-width="3.9142" fill="#949399"></path>
                        <path d="M247.2,274.2 L66.4,274.2 C42.4,274.2 22.9,254.7 22.9,230.7 L22.9,49.9 C22.9,25.9 42.4,6.4 66.4,6.4 L247.2,6.4 C271.2,6.4 290.7,25.9 290.7,49.9 L290.7,230.7 C290.7,254.7 271.2,274.2 247.2,274.2 Z" stroke-width="3.915" fill="#959499"></path>
                        <path d="M247,274.2 L66.1,274.2 C42.1,274.2 22.6,254.7 22.6,230.7 L22.6,49.8 C22.6,25.8 42.1,6.3 66.1,6.3 L247,6.3 C271,6.3 290.5,25.8 290.5,49.8 L290.5,230.7 C290.5,254.7 271.1,274.2 247,274.2 Z" stroke-width="3.9159" fill="#96949A"></path>
                        <path d="M246.9,274.3 L65.9,274.3 C41.9,274.3 22.4,254.8 22.4,230.8 L22.4,49.8 C22.4,25.8 41.9,6.3 65.9,6.3 L246.9,6.3 C270.9,6.3 290.4,25.8 290.4,49.8 L290.4,230.8 C290.4,254.8 270.9,274.3 246.9,274.3 Z" stroke-width="3.9168" fill="#96959B"></path>
                        <path d="M246.8,274.3 L65.8,274.3 C41.8,274.3 22.3,254.8 22.3,230.8 L22.3,49.8 C22.3,25.8 41.8,6.3 65.8,6.3 L246.8,6.3 C270.8,6.3 290.3,25.8 290.3,49.8 L290.3,230.8 C290.3,254.8 270.8,274.3 246.8,274.3 Z" stroke-width="3.9176" fill="#97969C"></path>
                        <path d="M246.6,274.4 L65.5,274.4 C41.4,274.4 21.9,254.9 21.9,230.8 L21.9,49.7 C21.9,25.6 41.4,6.1 65.5,6.1 L246.6,6.1 C270.7,6.1 290.2,25.6 290.2,49.7 L290.2,230.8 C290.2,254.9 270.7,274.4 246.6,274.4 Z" stroke-width="3.9185" fill="#98979D"></path>
                        <path d="M246.5,274.5 L65.3,274.5 C41.2,274.5 21.7,255 21.7,230.9 L21.7,49.7 C21.7,25.6 41.2,6.1 65.3,6.1 L246.5,6.1 C270.6,6.1 290.1,25.6 290.1,49.7 L290.1,230.9 C290.1,254.9 270.6,274.5 246.5,274.5 Z" stroke-width="3.9194" fill="#99989D"></path>
                        <path d="M246.4,274.5 L65.1,274.5 C41,274.5 21.5,255 21.5,230.9 L21.5,49.6 C21.5,25.5 41,6 65.1,6 L246.4,6 C270.5,6 290,25.5 290,49.6 L290,230.9 C290,255 270.5,274.5 246.4,274.5 Z" stroke-width="3.9202" fill="#9A999E"></path>
                        <path d="M246.2,274.6 L64.8,274.6 C40.7,274.6 21.2,255.1 21.2,231 L21.2,49.6 C21.2,25.5 40.7,6 64.8,6 L246.2,6 C270.3,6 289.800381,25.5 289.800381,49.6 L289.800381,231 C289.9,255 270.3,274.6 246.2,274.6 Z" stroke-width="3.9211" fill="#9B9A9F"></path>
                        <path d="M246.1,274.6 L64.7,274.6 C40.6,274.6 21.1,255.1 21.1,231 L21.1,49.5 C21.1,25.4 40.6,5.9 64.7,5.9 L246.1,5.9 C270.2,5.9 289.700381,25.4 289.700381,49.5 L289.700381,231 C289.8,255.1 270.2,274.6 246.1,274.6 Z" stroke-width="3.922" fill="#9C9AA0"></path>
                        <path d="M246,274.7 L64.5,274.7 C40.4,274.7 20.8,255.2 20.8,231 L20.8,49.5 C20.8,25.4 40.3,5.8 64.5,5.8 L246,5.8 C270.1,5.8 289.7,25.3 289.7,49.5 L289.7,231 C289.6,255.1 270.1,274.7 246,274.7 Z" stroke-width="3.9228" fill="#9C9BA1"></path>
                        <path d="M245.8,274.7 L64.2,274.7 C40.1,274.7 20.5,255.1 20.5,231 L20.5,49.5 C20.5,25.4 40.1,5.8 64.2,5.8 L245.8,5.8 C269.9,5.8 289.5,25.4 289.5,49.5 L289.5,231.1 C289.5,255.2 270,274.7 245.8,274.7 Z" stroke-width="3.9237" fill="#9D9CA2"></path>
                        <path d="M245.7,274.8 L64,274.8 C39.9,274.8 20.3,255.2 20.3,231.1 L20.3,49.4 C20.3,25.3 39.9,5.7 64,5.7 L245.7,5.7 C269.8,5.7 289.4,25.3 289.4,49.4 L289.4,231.1 C289.4,255.2 269.8,274.8 245.7,274.8 Z" stroke-width="3.9246" fill="#9E9DA2"></path>
                        <path d="M245.6,274.9 L63.8,274.9 C39.7,274.9 20.1,255.3 20.1,231.2 L20.1,49.4 C20.1,25.3 39.7,5.7 63.8,5.7 L245.6,5.7 C269.7,5.7 289.3,25.3 289.3,49.4 L289.3,231.2 C289.3,255.3 269.7,274.9 245.6,274.9 Z" stroke-width="3.9254" fill="#9F9EA3"></path>
                        <path d="M245.5,274.9 L63.7,274.9 C39.5,274.9 20,255.3 20,231.2 L20,49.3 C20,25.1 39.6,5.6 63.7,5.6 L245.5,5.6 C269.7,5.6 289.2,25.2 289.2,49.3 L289.2,231.1 C289.2,255.3 269.6,274.9 245.5,274.9 Z" stroke-width="3.9263" fill="#A09FA4"></path>
                        <path d="M245.3,275 L63.4,275 C39.2,275 19.6,255.4 19.6,231.2 L19.6,49.3 C19.6,25.1 39.2,5.5 63.4,5.5 L245.3,5.5 C269.5,5.5 289.1,25.1 289.1,49.3 L289.1,231.2 C289.1,255.4 269.5,275 245.3,275 Z" stroke-width="3.9272" fill="#A1A0A5"></path>
                        <path d="M245.2,275 L63.2,275 C39,275 19.4,255.4 19.4,231.2 L19.4,49.2 C19.4,25 39,5.4 63.2,5.4 L245.2,5.4 C269.4,5.4 289,25 289,49.2 L289,231.2 C289,255.4 269.4,275 245.2,275 Z" stroke-width="3.928" fill="#A2A1A6"></path>
                        <path d="M245.1,275.1 L63,275.1 C38.8,275.1 19.2,255.5 19.2,231.3 L19.2,49.2 C19.2,25 38.8,5.4 63,5.4 L245.1,5.4 C269.3,5.4 288.9,25 288.9,49.2 L288.9,231.3 C288.8,255.5 269.2,275.1 245.1,275.1 Z" stroke-width="3.9289" fill="#A3A1A7"></path>
                        <path d="M244.9,275.1 L62.7,275.1 C38.5,275.1 18.9,255.5 18.9,231.3 L18.9,49.2 C18.9,25 38.5,5.4 62.7,5.4 L244.9,5.4 C269.1,5.4 288.7,25 288.7,49.2 L288.7,231.4 C288.7,255.5 269.1,275.1 244.9,275.1 Z" stroke-width="3.9298" fill="#A4A2A7"></path>
                        <path d="M244.8,275.2 L62.6,275.2 C38.4,275.2 18.8,255.6 18.8,231.4 L18.8,49.1 C18.8,24.9 38.4,5.3 62.6,5.3 L244.8,5.3 C269,5.3 288.6,24.9 288.6,49.1 L288.6,231.3 C288.6,255.6 269,275.2 244.8,275.2 Z" stroke-width="3.9306" fill="#A4A3A8"></path>
                        <path d="M244.7,275.3 L62.4,275.3 C38.2,275.3 18.5,255.7 18.5,231.4 L18.5,49.1 C18.5,24.9 38.1,5.2 62.4,5.2 L244.7,5.2 C268.9,5.2 288.6,24.8 288.6,49.1 L288.6,231.4 C288.5,255.6 268.9,275.3 244.7,275.3 Z" stroke-width="3.9315" fill="#A5A4A9"></path>
                        <path d="M244.5,275.3 L62.1,275.3 C37.9,275.3 18.2,255.7 18.2,231.4 L18.2,49 C18.2,24.8 37.8,5.1 62.1,5.1 L244.5,5.1 C268.7,5.1 288.4,24.7 288.4,49 L288.4,231.4 C288.4,255.7 268.8,275.3 244.5,275.3 Z" stroke-width="3.9324" fill="#A6A5AA"></path>
                        <path d="M244.4,275.4 L61.9,275.4 C37.7,275.4 18,255.8 18,231.5 L18,49 C18,24.8 37.6,5.1 61.9,5.1 L244.4,5.1 C268.6,5.1 288.3,24.7 288.3,49 L288.3,231.5 C288.3,255.7 268.6,275.4 244.4,275.4 Z" stroke-width="3.9332" fill="#A7A6AB"></path>
                        <path d="M244.3,275.4 L61.7,275.4 C37.5,275.4 17.8,255.7 17.8,231.5 L17.8,49 C17.8,24.8 37.5,5.1 61.7,5.1 L244.3,5.1 C268.5,5.1 288.2,24.8 288.2,49 L288.2,231.6 C288.2,255.8 268.5,275.4 244.3,275.4 Z" stroke-width="3.9341" fill="#A8A7AC"></path>
                        <path d="M244.1,275.5 L61.5,275.5 C37.2,275.5 17.6,255.8 17.6,231.6 L17.6,48.9 C17.6,24.6 37.3,5 61.5,5 L244.1,5 C268.4,5 288.000379,24.7 288.000379,48.9 L288.000379,231.5 C288.1,255.8 268.4,275.5 244.1,275.5 Z" stroke-width="3.935" fill="#A9A8AC"></path>
                        <path d="M244,275.5 L61.3,275.5 C37,275.5 17.4,255.8 17.4,231.6 L17.4,48.9 C17.4,24.6 37.1,5 61.3,5 L244,5 C268.3,5 287.9,24.7 287.9,48.9 L287.9,231.6 C287.9,255.9 268.3,275.5 244,275.5 Z" stroke-width="3.9358" fill="#AAA9AD"></path>
                        <path d="M243.9,275.6 L61.1,275.6 C36.8,275.6 17.1,255.9 17.1,231.6 L17.1,48.8 C17.1,24.5 36.8,4.8 61.1,4.8 L243.9,4.8 C268.2,4.8 287.9,24.5 287.9,48.8 L287.9,231.6 C287.8,255.9 268.1,275.6 243.9,275.6 Z" stroke-width="3.9367" fill="#ABAAAE"></path>
                        <path d="M243.7,275.7 L60.8,275.7 C36.5,275.7 16.8,256 16.8,231.7 L16.8,48.8 C16.8,24.5 36.5,4.8 60.8,4.8 L243.7,4.8 C268,4.8 287.7,24.5 287.7,48.8 L287.7,231.7 C287.7,256 268,275.7 243.7,275.7 Z" stroke-width="3.9376" fill="#ACAAAF"></path>
                        <path d="M243.6,275.7 L60.6,275.7 C36.3,275.7 16.6,256 16.6,231.7 L16.6,48.7 C16.6,24.4 36.3,4.7 60.6,4.7 L243.6,4.7 C267.9,4.7 287.6,24.4 287.6,48.7 L287.6,231.7 C287.6,256 267.9,275.7 243.6,275.7 Z" stroke-width="3.9384" fill="#ADABB0"></path>
                        <path d="M243.5,275.8 L60.5,275.8 C36.2,275.8 16.5,256.1 16.5,231.8 L16.5,48.8 C16.5,24.5 36.2,4.8 60.5,4.8 L243.5,4.8 C267.8,4.8 287.5,24.5 287.5,48.8 L287.5,231.8 C287.5,256.1 267.8,275.8 243.5,275.8 Z" stroke-width="3.9393" fill="#AEACB1"></path>
                        <path d="M243.3,275.8 L60.2,275.8 C35.9,275.8 16.2,256.1 16.2,231.8 L16.2,48.7 C16.2,24.4 35.9,4.7 60.2,4.7 L243.3,4.7 C267.6,4.7 287.300379,24.4 287.300379,48.7 L287.300379,231.8 C287.4,256.1 267.7,275.8 243.3,275.8 Z" stroke-width="3.9402" fill="#AFADB2"></path>
                        <path d="M243.2,275.9 L60,275.9 C35.7,275.9 15.9,256.2 15.9,231.8 L15.9,48.6 C15.9,24.3 35.6,4.5 60,4.5 L243.2,4.5 C267.5,4.5 287.3,24.2 287.3,48.6 L287.3,231.8 C287.3,256.2 267.5,275.9 243.2,275.9 Z" stroke-width="3.941" fill="#AFAEB3"></path>
                        <path d="M243.1,275.9 L59.8,275.9 C35.5,275.9 15.7,256.2 15.7,231.8 L15.7,48.6 C15.7,24.3 35.4,4.5 59.8,4.5 L243.1,4.5 C267.4,4.5 287.2,24.2 287.2,48.6 L287.2,231.9 C287.2,256.2 267.4,275.9 243.1,275.9 Z" stroke-width="3.9419" fill="#B0AFB3"></path>
                        <path d="M242.9,276 L59.5,276 C35.1,276 15.4,256.3 15.4,231.9 L15.4,48.5 C15.4,24.1 35.1,4.4 59.5,4.4 L242.9,4.4 C267.3,4.4 287,24.1 287,48.5 L287,231.9 C287,256.3 267.3,276 242.9,276 Z" stroke-width="3.9428" fill="#B1B0B4"></path>
                        <path d="M242.8,276.1 L59.4,276.1 C35,276.1 15.3,256.3 15.3,232 L15.3,48.5 C15.3,24.1 35.1,4.4 59.4,4.4 L242.8,4.4 C267.2,4.4 286.9,24.2 286.9,48.5 L286.9,231.9 C286.9,256.3 267.2,276.1 242.8,276.1 Z" stroke-width="3.9436" fill="#B2B1B5"></path>
                        <path d="M242.7,276.1 L59.2,276.1 C34.8,276.1 15.1,256.3 15.1,232 L15.1,48.5 C15.1,24.1 34.9,4.4 59.2,4.4 L242.7,4.4 C267.1,4.4 286.8,24.2 286.8,48.5 L286.8,232 C286.8,256.3 267,276.1 242.7,276.1 Z" stroke-width="3.9445" fill="#B3B2B6"></path>
                        <path d="M242.5,276.2 L59,276.2 C34.6,276.2 14.8,256.4 14.8,232 L14.8,48.4 C14.8,24 34.6,4.2 59,4.2 L242.6,4.2 C267,4.2 286.8,24 286.8,48.4 L286.8,232 C286.7,256.4 266.9,276.2 242.5,276.2 Z" stroke-width="3.9454" fill="#B4B3B7"></path>
                        <path d="M242.4,276.2 L58.7,276.2 C34.3,276.2 14.5,256.4 14.5,232 L14.5,48.4 C14.5,24 34.3,4.2 58.7,4.2 L242.4,4.2 C266.8,4.2 286.6,24 286.6,48.4 L286.6,232 C286.6,256.4 266.8,276.2 242.4,276.2 Z" stroke-width="3.9462" fill="#B5B4B8"></path>
                        <path d="M242.3,276.3 L58.6,276.3 C34.2,276.3 14.4,256.5 14.4,232.1 L14.4,48.3 C14.4,23.9 34.2,4.1 58.6,4.1 L242.3,4.1 C266.7,4.1 286.5,23.9 286.5,48.3 L286.5,232 C286.5,256.5 266.7,276.3 242.3,276.3 Z" stroke-width="3.9471" fill="#B6B5B9"></path>
                        <path d="M242.1,276.3 L58.3,276.3 C33.9,276.3 14.1,256.5 14.1,232.1 L14.1,48.3 C14.1,23.9 33.9,4.1 58.3,4.1 L242.1,4.1 C266.5,4.1 286.300377,23.9 286.300377,48.3 L286.300377,232.1 C286.4,256.5 266.6,276.3 242.1,276.3 Z" stroke-width="3.948" fill="#B7B6BA"></path>
                        <path d="M242,276.4 L58.1,276.4 C33.7,276.4 13.9,256.6 13.9,232.2 L13.9,48.3 C13.9,23.9 33.7,4.1 58.1,4.1 L242,4.1 C266.4,4.1 286.2,23.9 286.2,48.3 L286.2,232.2 C286.2,256.6 266.4,276.4 242,276.4 Z" stroke-width="3.9488" fill="#B8B7BB"></path>
                        <path d="M241.9,276.5 L57.9,276.5 C33.5,276.5 13.6,256.7 13.6,232.2 L13.6,48.2 C13.6,23.8 33.4,3.9 57.9,3.9 L241.9,3.9 C266.3,3.9 286.2,23.7 286.2,48.2 L286.2,232.2 C286.1,256.6 266.3,276.5 241.9,276.5 Z" stroke-width="3.9497" fill="#B9B8BC"></path>
                        <path d="M241.7,276.5 L57.6,276.5 C33.1,276.5 13.3,256.7 13.3,232.2 L13.3,48.2 C13.3,23.7 33.1,3.9 57.6,3.9 L241.7,3.9 C266.1,3.9 286,23.7 286,48.2 L286,232.3 C286,256.7 266.2,276.5 241.7,276.5 Z" stroke-width="3.9506" fill="#BAB9BD"></path>
                        <path d="M241.6,276.6 L57.5,276.6 C33,276.6 13.2,256.8 13.2,232.3 L13.2,48.1 C13.2,23.6 33,3.8 57.5,3.8 L241.6,3.8 C266.1,3.8 285.9,23.6 285.9,48.1 L285.9,232.2 C285.9,256.7 266.1,276.6 241.6,276.6 Z" stroke-width="3.9514" fill="#BBBABD"></path>
                        <path d="M241.5,276.6 L57.3,276.6 C32.8,276.6 13,256.8 13,232.3 L13,48.1 C13,23.6 32.8,3.8 57.3,3.8 L241.5,3.8 C266,3.8 285.8,23.6 285.8,48.1 L285.8,232.3 C285.8,256.8 266,276.6 241.5,276.6 Z" stroke-width="3.9523" fill="#BCBBBE"></path>
                        <path d="M241.4,276.7 L57,276.7 C32.5,276.7 12.7,256.9 12.7,232.4 L12.7,48 C12.7,23.5 32.5,3.7 57,3.7 L241.3,3.7 C265.8,3.7 285.600375,23.5 285.600375,48 L285.600375,232.3 C285.7,256.8 265.8,276.7 241.4,276.7 Z" stroke-width="3.9532" fill="#BDBCBF"></path>
                        <path d="M241.2,276.7 L56.8,276.7 C32.3,276.7 12.5,256.8 12.5,232.4 L12.5,48 C12.5,23.5 32.4,3.7 56.8,3.7 L241.2,3.7 C265.7,3.7 285.500375,23.6 285.500375,48 L285.500375,232.4 C285.6,256.9 265.7,276.7 241.2,276.7 Z" stroke-width="3.954" fill="#BEBDC0"></path>
                        <path d="M241.1,276.8 L56.6,276.8 C32.1,276.8 12.2,256.9 12.2,232.4 L12.2,48 C12.2,23.5 32.1,3.6 56.6,3.6 L241.1,3.6 C265.6,3.6 285.5,23.5 285.5,48 L285.5,232.5 C285.5,256.9 265.6,276.8 241.1,276.8 Z" stroke-width="3.9549" fill="#BFBEC1"></path>
                        <path d="M241,276.9 L56.5,276.9 C32,276.9 12.1,257 12.1,232.5 L12.1,47.9 C12.1,23.4 32,3.5 56.5,3.5 L241,3.5 C265.5,3.5 285.4,23.4 285.4,47.9 L285.4,232.4 C285.3,257 265.5,276.9 241,276.9 Z" stroke-width="3.9558" fill="#C0BFC2"></path>
                        <path d="M240.8,276.9 L56.2,276.9 C31.7,276.9 11.8,257 11.8,232.5 L11.8,47.9 C11.8,23.4 31.7,3.5 56.2,3.5 L240.8,3.5 C265.3,3.5 285.2,23.4 285.2,47.9 L285.2,232.5 C285.2,257 265.3,276.9 240.8,276.9 Z" stroke-width="3.9566" fill="#C1C0C3"></path>
                        <path d="M240.7,277 L56,277 C31.5,277 11.6,257.1 11.6,232.6 L11.6,47.8 C11.6,23.3 31.5,3.4 56,3.4 L240.7,3.4 C265.2,3.4 285.1,23.3 285.1,47.8 L285.1,232.5 C285.1,257.1 265.2,277 240.7,277 Z" stroke-width="3.9575" fill="#C2C1C4"></path>
                        <path d="M240.6,277 L55.8,277 C31.3,277 11.4,257.1 11.4,232.6 L11.4,47.8 C11.4,23.3 31.3,3.4 55.8,3.4 L240.6,3.4 C265.1,3.4 285,23.3 285,47.8 L285,232.6 C285,257.1 265.1,277 240.6,277 Z" stroke-width="3.9584" fill="#C3C2C5"></path>
                        <path d="M240.4,277.1 L55.5,277.1 C30.9,277.1 11,257.2 11,232.6 L11,47.8 C11,23.2 30.9,3.3 55.5,3.3 L240.4,3.3 C265,3.3 284.9,23.2 284.9,47.8 L284.9,232.7 C284.9,257.2 265,277.1 240.4,277.1 Z" stroke-width="3.9592" fill="#C4C3C6"></path>
                        <path d="M240.3,277.1 L55.4,277.1 C30.8,277.1 10.9,257.2 10.9,232.6 L10.9,47.7 C10.9,23.1 30.8,3.2 55.4,3.2 L240.3,3.2 C264.9,3.2 284.8,23.1 284.8,47.7 L284.8,232.6 C284.8,257.2 264.9,277.1 240.3,277.1 Z" stroke-width="3.9601" fill="#C5C4C7"></path>
                        <path d="M240.2,277.2 L55.2,277.2 C30.6,277.2 10.7,257.3 10.7,232.7 L10.7,47.7 C10.7,23.1 30.6,3.2 55.2,3.2 L240.2,3.2 C264.8,3.2 284.7,23.1 284.7,47.7 L284.7,232.7 C284.7,257.3 264.7,277.2 240.2,277.2 Z" stroke-width="3.961" fill="#C6C5C8"></path>
                        <path d="M240,277.3 L54.9,277.3 C30.3,277.3 10.4,257.4 10.4,232.8 L10.4,47.6 C10.4,23 30.3,3.1 54.9,3.1 L240,3.1 C264.6,3.1 284.5,23 284.5,47.6 L284.5,232.7 C284.5,257.3 264.6,277.3 240,277.3 Z" stroke-width="3.9618" fill="#C7C6C9"></path>
                        <path d="M239.9,277.3 L54.7,277.3 C30.1,277.3 10.2,257.4 10.2,232.8 L10.2,47.6 C10.2,23 30.1,3.1 54.7,3.1 L239.9,3.1 C264.5,3.1 284.4,23 284.4,47.6 L284.4,232.8 C284.4,257.4 264.5,277.3 239.9,277.3 Z" stroke-width="3.9627" fill="#C8C7CA"></path>
                        <path d="M239.8,277.4 L54.5,277.4 C29.9,277.4 9.9,257.5 9.9,232.8 L9.9,47.5 C9.9,22.9 29.8,2.9 54.5,2.9 L239.8,2.9 C264.4,2.9 284.4,22.8 284.4,47.5 L284.4,232.8 C284.3,257.4 264.4,277.4 239.8,277.4 Z" stroke-width="3.9636" fill="#C9C8CB"></path>
                        <path d="M239.6,277.4 L54.3,277.4 C29.7,277.4 9.7,257.4 9.7,232.8 L9.7,47.5 C9.7,22.9 29.7,2.9 54.3,2.9 L239.6,2.9 C264.2,2.9 284.2,22.9 284.2,47.5 L284.2,232.8 C284.2,257.5 264.2,277.4 239.6,277.4 Z" stroke-width="3.9644" fill="#CAC9CC"></path>
                        <path d="M239.5,277.5 L54.1,277.5 C29.5,277.5 9.5,257.5 9.5,232.9 L9.5,47.5 C9.5,22.9 29.5,2.9 54.1,2.9 L239.5,2.9 C264.1,2.9 284.1,22.9 284.1,47.5 L284.1,232.9 C284.1,257.5 264.1,277.5 239.5,277.5 Z" stroke-width="3.9653" fill="#CBCACD"></path>
                        <path d="M239.4,277.5 L53.9,277.5 C29.3,277.5 9.3,257.5 9.3,232.9 L9.3,47.4 C9.3,22.8 29.3,2.8 53.9,2.8 L239.4,2.8 C264,2.8 284,22.8 284,47.4 L284,232.9 C284,257.6 264,277.5 239.4,277.5 Z" stroke-width="3.9662" fill="#CCCBCE"></path>
                        <path d="M239.2,277.6 L53.6,277.6 C28.9,277.6 9,257.6 9,233 L9,47.4 C9,22.7 29,2.8 53.6,2.8 L239.2,2.8 C263.9,2.8 283.800373,22.8 283.800373,47.4 L283.800373,233 C283.9,257.6 263.9,277.6 239.2,277.6 Z" stroke-width="3.967" fill="#CDCCCF"></path>
                        <path d="M239.1,277.7 L53.4,277.7 C28.7,277.7 8.7,257.7 8.7,233 L8.7,47.3 C8.7,22.6 28.7,2.6 53.4,2.6 L239.1,2.6 C263.8,2.6 283.8,22.6 283.8,47.3 L283.8,233 C283.8,257.7 263.8,277.7 239.1,277.7 Z" stroke-width="3.9679" fill="#CECDD0"></path>
                        <path d="M239,277.7 L53.3,277.7 C28.6,277.7 8.6,257.7 8.6,233 L8.6,47.3 C8.6,22.6 28.6,2.6 53.3,2.6 L239,2.6 C263.7,2.6 283.7,22.6 283.7,47.3 L283.7,233 C283.6,257.7 263.6,277.7 239,277.7 Z" stroke-width="3.9688" fill="#CFCED1"></path>
                        <path d="M238.8,277.8 L53,277.8 C28.3,277.8 8.3,257.8 8.3,233.1 L8.3,47.3 C8.3,22.6 28.3,2.6 53,2.6 L238.8,2.6 C263.5,2.6 283.5,22.6 283.5,47.3 L283.5,233.1 C283.5,257.8 263.5,277.8 238.8,277.8 Z" stroke-width="3.9697" fill="#D0CFD2"></path>
                        <path d="M238.7,277.8 L52.8,277.8 C28.1,277.8 8.1,257.8 8.1,233.1 L8.1,47.2 C8.1,22.5 28.1,2.5 52.8,2.5 L238.7,2.5 C263.4,2.5 283.4,22.5 283.4,47.2 L283.4,233.1 C283.4,257.8 263.4,277.8 238.7,277.8 Z" stroke-width="3.9705" fill="#D1D0D3"></path>
                        <path d="M238.6,277.9 L52.6,277.9 C27.9,277.9 7.9,257.9 7.9,233.2 L7.9,47.2 C7.9,22.5 27.9,2.5 52.6,2.5 L238.6,2.5 C263.3,2.5 283.3,22.5 283.3,47.2 L283.3,233.2 C283.3,257.9 263.3,277.9 238.6,277.9 Z" stroke-width="3.9714" fill="#D3D1D4"></path>
                        <path d="M238.4,277.9 L52.3,277.9 C27.6,277.9 7.6,257.9 7.6,233.2 L7.6,47.1 C7.6,22.4 27.6,2.4 52.3,2.4 L238.4,2.4 C263.1,2.4 283.100373,22.4 283.100373,47.1 L283.100373,233.2 C283.2,257.9 263.2,277.9 238.4,277.9 Z" stroke-width="3.9723" fill="#D4D2D5"></path>
                        <path d="M238.3,278 L52.2,278 C27.5,278 7.4,258 7.4,233.2 L7.4,47.1 C7.4,22.4 27.4,2.3 52.2,2.3 L238.3,2.3 C263,2.3 283.1,22.3 283.1,47.1 L283.1,233.2 C283.1,257.9 263,278 238.3,278 Z" stroke-width="3.9731" fill="#D5D4D6"></path>
                        <path d="M238.2,278 L52,278 C27.3,278 7.2,257.9 7.2,233.2 L7.2,47.1 C7.2,22.4 27.3,2.3 52,2.3 L238.2,2.3 C262.9,2.3 283,22.4 283,47.1 L283,233.3 C283,258 262.9,278 238.2,278 Z" stroke-width="3.974" fill="#D6D5D7"></path>
                        <path d="M238,278.1 L51.7,278.1 C27,278.1 6.9,258 6.9,233.3 L6.9,47 C6.9,22.3 27,2.2 51.7,2.2 L238,2.2 C262.7,2.2 282.8,22.3 282.8,47 L282.8,233.3 C282.8,258 262.8,278.1 238,278.1 Z" stroke-width="3.9749" fill="#D7D6D8"></path>
                        <path d="M237.9,278.2 L51.5,278.2 C26.7,278.2 6.7,258.1 6.7,233.4 L6.7,47 C6.7,22.2 26.8,2.2 51.5,2.2 L237.9,2.2 C262.7,2.2 282.7,22.3 282.7,47 L282.7,233.4 C282.7,258.1 262.7,278.2 237.9,278.2 Z" stroke-width="3.9757" fill="#D8D7D9"></path>
                        <path d="M237.8,278.2 L51.4,278.2 C26.6,278.2 6.6,258.1 6.6,233.4 L6.6,46.9 C6.6,22.1 26.7,2.1 51.4,2.1 L237.8,2.1 C262.6,2.1 282.6,22.2 282.6,46.9 L282.6,233.3 C282.6,258.1 262.5,278.2 237.8,278.2 Z" stroke-width="3.9766" fill="#D9D8DA"></path>
                        <path d="M237.6,278.3 L51.1,278.3 C26.3,278.3 6.2,258.2 6.2,233.4 L6.2,46.9 C6.2,22.1 26.3,2 51.1,2 L237.6,2 C262.4,2 282.5,22.1 282.5,46.9 L282.5,233.4 C282.5,258.2 262.4,278.3 237.6,278.3 Z" stroke-width="3.9775" fill="#DAD9DB"></path>
                        <path d="M237.5,278.3 L50.9,278.3 C26.1,278.3 6,258.2 6,233.4 L6,46.8 C6,22 26.1,1.9 50.9,1.9 L237.5,1.9 C262.3,1.9 282.4,22 282.4,46.8 L282.4,233.4 C282.4,258.2 262.3,278.3 237.5,278.3 Z" stroke-width="3.9783" fill="#DBDADC"></path>
                        <path d="M237.4,278.4 L50.7,278.4 C25.9,278.4 5.8,258.3 5.8,233.5 L5.8,46.8 C5.8,22 25.9,1.9 50.7,1.9 L237.4,1.9 C262.2,1.9 282.3,22 282.3,46.8 L282.3,233.5 C282.3,258.3 262.2,278.4 237.4,278.4 Z" stroke-width="3.9792" fill="#DCDBDD"></path>
                        <path d="M237.2,278.4 L50.4,278.4 C25.6,278.4 5.5,258.3 5.5,233.5 L5.5,46.8 C5.5,22 25.6,1.9 50.4,1.9 L237.2,1.9 C262,1.9 282.100372,22 282.100372,46.8 L282.100372,233.6 C282.2,258.3 262.1,278.4 237.2,278.4 Z" stroke-width="3.9801" fill="#DDDCDE"></path>
                        <path d="M237.1,278.5 L50.3,278.5 C25.5,278.5 5.4,258.4 5.4,233.6 L5.4,46.7 C5.4,21.9 25.5,1.8 50.3,1.8 L237.1,1.8 C261.9,1.8 282.00037,21.9 282.00037,46.7 L282.00037,233.5 C282.1,258.4 261.9,278.5 237.1,278.5 Z" stroke-width="3.9809" fill="#DEDDDF"></path>
                        <path d="M237,278.6 L50.1,278.6 C25.3,278.6 5.1,258.5 5.1,233.6 L5.1,46.7 C5.1,21.9 25.2,1.7 50.1,1.7 L237,1.7 C261.8,1.7 282,21.8 282,46.7 L282,233.6 C281.9,258.4 261.8,278.6 237,278.6 Z" stroke-width="3.9818" fill="#E0DFE0"></path>
                        <path d="M236.9,278.6 L49.9,278.6 C25.1,278.6 4.9,258.5 4.9,233.6 L4.9,46.6 C4.9,21.8 25,1.6 49.9,1.6 L236.9,1.6 C261.7,1.6 281.9,21.7 281.9,46.6 L281.9,233.6 C281.8,258.5 261.7,278.6 236.9,278.6 Z" stroke-width="3.9827" fill="#E1E0E1"></path>
                        <path d="M236.7,278.7 L49.6,278.7 C24.7,278.7 4.6,258.6 4.6,233.7 L4.6,46.6 C4.6,21.7 24.7,1.6 49.6,1.6 L236.7,1.6 C261.6,1.6 281.7,21.7 281.7,46.6 L281.7,233.7 C281.7,258.5 261.6,278.7 236.7,278.7 Z" stroke-width="3.9835" fill="#E2E1E2"></path>
                        <path d="M236.6,278.7 L49.4,278.7 C24.5,278.7 4.4,258.5 4.4,233.7 L4.4,46.6 C4.4,21.7 24.6,1.6 49.4,1.6 L236.6,1.6 C261.5,1.6 281.6,21.8 281.6,46.6 L281.6,233.8 C281.6,258.6 261.4,278.7 236.6,278.7 Z" stroke-width="3.9844" fill="#E3E2E3"></path>
                        <path d="M236.5,278.8 L49.3,278.8 C24.4,278.8 4.3,258.6 4.3,233.8 L4.3,46.5 C4.3,21.6 24.5,1.5 49.3,1.5 L236.5,1.5 C261.4,1.5 281.5,21.7 281.5,46.5 L281.5,233.7 C281.5,258.6 261.3,278.8 236.5,278.8 Z" stroke-width="3.9853" fill="#E4E3E4"></path>
                        <path d="M236.3,278.8 L49,278.8 C24.1,278.8 3.9,258.6 3.9,233.7 L3.9,46.5 C3.9,21.6 24.1,1.4 49,1.4 L236.3,1.4 C261.2,1.4 281.4,21.6 281.4,46.5 L281.4,233.8 C281.4,258.7 261.2,278.8 236.3,278.8 Z" stroke-width="3.9861" fill="#E5E4E6"></path>
                        <path d="M236.2,278.9 L48.8,278.9 C23.9,278.9 3.7,258.7 3.7,233.8 L3.7,46.4 C3.7,21.5 23.9,1.3 48.8,1.3 L236.2,1.3 C261.1,1.3 281.3,21.5 281.3,46.4 L281.3,233.8 C281.3,258.7 261.1,278.9 236.2,278.9 Z" stroke-width="3.987" fill="#E7E6E7"></path>
                        <path d="M236.1,279 L48.6,279 C23.7,279 3.5,258.8 3.5,233.9 L3.5,46.4 C3.5,21.5 23.7,1.3 48.6,1.3 L236.1,1.3 C261,1.3 281.2,21.5 281.2,46.4 L281.2,233.9 C281.2,258.8 261,279 236.1,279 Z" stroke-width="3.9879" fill="#E8E7E8"></path>
                        <path d="M235.9,279 L48.3,279 C23.4,279 3.2,258.8 3.2,233.9 L3.2,46.3 C3.2,21.4 23.4,1.2 48.3,1.2 L235.9,1.2 C260.8,1.2 281,21.4 281,46.3 L281,233.9 C281,258.8 260.8,279 235.9,279 Z" stroke-width="3.9887" fill="#E9E8E9"></path>
                        <path d="M235.8,279.1 L48.2,279.1 C23.3,279.1 3.1,258.9 3.1,234 L3.1,46.3 C3.1,21.4 23.3,1.2 48.2,1.2 L235.8,1.2 C260.7,1.2 280.9,21.4 280.9,46.3 L280.9,233.9 C280.9,258.9 260.7,279.1 235.8,279.1 Z" stroke-width="3.9896" fill="#EAE9EA"></path>
                        <path d="M235.7,279.1 L48,279.1 C23.1,279.1 2.9,258.9 2.9,234 L2.9,46.3 C2.9,21.4 23.1,1.2 48,1.2 L235.7,1.2 C260.6,1.2 280.8,21.4 280.8,46.3 L280.8,234 C280.8,258.9 260.6,279.1 235.7,279.1 Z" stroke-width="3.9905" fill="#ECEBEC"></path>
                        <path d="M235.5,279.2 L47.7,279.2 C22.8,279.2 2.5,259 2.5,234 L2.5,46.2 C2.5,21.3 22.7,1 47.7,1 L235.5,1 C260.4,1 280.7,21.2 280.7,46.2 L280.7,234 C280.7,259 260.5,279.2 235.5,279.2 Z" stroke-width="3.9913" fill="#EDECED"></path>
                        <path d="M235.4,279.2 L47.5,279.2 C22.5,279.2 2.3,259 2.3,234 L2.3,46.2 C2.3,21.2 22.5,1 47.5,1 L235.4,1 C260.4,1 280.6,21.2 280.6,46.2 L280.6,234.1 C280.6,259 260.4,279.2 235.4,279.2 Z" stroke-width="3.9922" fill="#EEEEEE"></path>
                        <path d="M235.3,279.3 L47.3,279.3 C22.3,279.3 2.1,259.1 2.1,234.1 L2.1,46.1 C2.1,21.1 22.3,0.9 47.3,0.9 L235.3,0.9 C260.3,0.9 280.5,21.1 280.5,46.1 L280.5,234.1 C280.5,259.1 260.2,279.3 235.3,279.3 Z" stroke-width="3.9931" fill="#F0EFF0"></path>
                        <path d="M235.1,279.4 L47.1,279.4 C22.1,279.4 1.9,259.2 1.9,234.2 L1.9,46.2 C1.9,21.2 22.1,1 47.1,1 L235.1,1 C260.1,1 280.300368,21.2 280.300368,46.2 L280.300368,234.2 C280.4,259.1 260.1,279.4 235.1,279.4 Z" stroke-width="3.9939" fill="#F1F1F1"></path>
                        <path d="M235,279.4 L46.9,279.4 C21.9,279.4 1.7,259.1 1.7,234.2 L1.7,46.1 C1.7,21.1 22,0.9 46.9,0.9 L235,0.9 C260,0.9 280.2,21.2 280.2,46.1 L280.2,234.2 C280.2,259.2 260,279.4 235,279.4 Z" stroke-width="3.9948" fill="#F3F2F3"></path>
                        <path d="M234.9,279.5 L46.7,279.5 C21.7,279.5 1.4,259.2 1.4,234.2 L1.4,46 C1.4,21 21.7,0.7 46.7,0.7 L234.9,0.7 C259.9,0.7 280.2,21 280.2,46 L280.2,234.2 C280.1,259.2 259.9,279.5 234.9,279.5 Z" stroke-width="3.9957" fill="#F4F4F4"></path>
                        <path d="M234.7,279.5 L46.4,279.5 C21.4,279.5 1.1,259.2 1.1,234.2 L1.1,46 C1.1,21 21.4,0.7 46.4,0.7 L234.7,0.7 C259.7,0.7 280,21 280,46 L280,234.3 C280,259.3 259.7,279.5 234.7,279.5 Z" stroke-width="3.9965" fill="#F6F6F6"></path>
                        <path d="M234.6,279.6 L46.2,279.6 C21.2,279.6 0.9,259.3 0.9,234.3 L0.9,45.9 C0.9,20.9 21.2,0.6 46.2,0.6 L234.6,0.6 C259.6,0.6 279.9,20.9 279.9,45.9 L279.9,234.3 C279.9,259.3 259.6,279.6 234.6,279.6 Z" stroke-width="3.9974" fill="#F8F8F8"></path>
                        <path d="M234.5,279.6 L46,279.6 C21,279.6 0.7,259.3 0.7,234.3 L0.7,45.9 C0.7,20.9 21,0.6 46,0.6 L234.4,0.6 C259.4,0.6 279.700368,20.9 279.700368,45.9 L279.700368,234.3 C279.8,259.4 259.5,279.6 234.5,279.6 Z" stroke-width="3.9983" fill="#FAFAFA"></path>
                        <path d="M234.3,279.7 L45.8,279.7 C20.8,279.7 0.5,259.4 0.5,234.4 L0.5,45.8 C0.5,20.8 20.8,0.5 45.8,0.5 L234.3,0.5 C259.3,0.5 279.600368,20.8 279.600368,45.8 L279.600368,234.3 C279.7,259.4 259.4,279.7 234.3,279.7 Z" stroke-width="3.9991" fill="#FDFCFD"></path>
                        <path d="M234.2,279.8 L45.6,279.8 C20.5,279.8 0.2,259.5 0.2,234.4 L0.2,45.8 C0.2,20.7 20.5,0.4 45.6,0.4 L234.2,0.4 C259.3,0.4 279.6,20.7 279.6,45.8 L279.6,234.4 C279.6,259.5 259.3,279.8 234.2,279.8 Z" stroke-width="4" fill="#FFFFFF"></path>
                    </g>
                    <path d="M139.9,116.5 L139.9,116.5 C138.4,116.5 137.1,115.2 137.1,113.7 L137.1,113.7 C137.1,112.2 138.4,110.9 139.9,110.9 L139.9,110.9 C141.4,110.9 142.7,112.2 142.7,113.7 L142.7,113.7 C142.7,115.2 141.4,116.5 139.9,116.5 Z" id="Path" stroke="#0F1923" stroke-width="4" fill="#FFFFFF" fill-rule="nonzero"></path>
                    <g transform="translate(95.000000, 256.000000)">
                        <g transform="translate(25.000000, 25.000000)" id="Path" stroke="#0F1923" stroke-linecap="round" stroke-linejoin="round">
                            <line x1="0" y1="4.4" x2="64.2" y2="4.4" stroke-width="3.5818"></line>
                            <path d="M45.7,8.3 L34.4,8.3 C32.2,8.3 30.4,6.5 30.4,4.3 L30.4,4.3 C30.4,2.1 32.2,0.3 34.4,0.3 L45.7,0.3 C47.9,0.3 49.7,2.1 49.7,4.3 L49.7,4.3 C49.7,6.5 47.9,8.3 45.7,8.3 Z" stroke-width="1.7909" fill="#0F1923" fill-rule="nonzero"></path>
                        </g>
                        <g transform="translate(25.000000, 3.000000)" id="Path" stroke="#0F1923" stroke-linecap="round" stroke-linejoin="round">
                            <line x1="0" y1="4.7" x2="64.2" y2="4.7" stroke-width="3.5818"></line>
                            <path d="M27.9,8.7 L16.6,8.7 C14.4,8.7 12.6,6.9 12.6,4.7 L12.6,4.7 C12.6,2.5 14.4,0.7 16.6,0.7 L27.9,0.7 C30.1,0.7 31.9,2.5 31.9,4.7 L31.9,4.7 C31.9,6.9 30.1,8.7 27.9,8.7 Z" stroke-width="1.7909" fill="#0F1923" fill-rule="nonzero"></path>
                        </g>
                        <g fill-rule="nonzero">
                            <path d="M6,33.3 L6,33.3 C3,33.3 0.6,30.9 0.6,27.9 L0.6,9.2 C0.6,6.2 3,3.8 6,3.8 L6,3.8 C9,3.8 11.4,6.2 11.4,9.2 L11.4,27.9 C11.4,30.9 9,33.3 6,33.3 Z" id="Path" stroke="#0F1923" stroke-width="3.2112" fill="#0F1923"></path>
                            <rect id="Rectangle" fill="#FFFFFF" x="1.4" y="0.2" width="2.4" height="34"></rect>
                        </g>
                    </g>
                    <path d="M227.2,212.4 L52.7,212.4 C50.4,212.4 48.5,210.5 48.5,208.2 L48.5,208.2 C48.5,205.9 50.4,204 52.7,204 L227.2,204 C229.5,204 231.4,205.9 231.4,208.2 L231.4,208.2 C231.4,210.5 229.5,212.4 227.2,212.4 Z" id="Path" fill="#0F1923" fill-rule="nonzero"></path>
                    <g transform="translate(33.000000, 129.000000)" fill-rule="nonzero" id="Path" stroke="#0F1923" stroke-width="3">
                        <path d="M191.5,51.2 L14.6,51.2 C6.8,51.2 0.5,44.9 0.5,37.1 L0.5,14.1 C0.5,6.3 6.8,-5.68434189e-14 14.6,-5.68434189e-14 L191.5,-5.68434189e-14 C199.3,-5.68434189e-14 205.6,6.3 205.6,14.1 L205.6,37.1 C205.5,44.9 199.2,51.2 191.5,51.2 Z" fill="#FFFFFF"></path>
                        <path d="M199.2,51.2 L22.3,51.2 C14.5,51.2 8.2,44.9 8.2,37.1 L8.2,14.1 C8.2,6.3 14.5,-5.68434189e-14 22.3,-5.68434189e-14 L199.2,-5.68434189e-14 C207,-5.68434189e-14 213.3,6.3 213.3,14.1 L213.3,37.1 C213.3,44.9 207,51.2 199.2,51.2 Z" fill="#0F1923"></path>
                    </g>
                    <g transform="translate(114.000000, 144.000000)" fill="#FFFFFF" fill-rule="nonzero" id="Path">
                        <path d="M6.6,21.3 L5.8,21.3 C3,21.3 0.8,19 0.8,16.3 L0.8,5 C0.8,2.2 3.1,0 5.8,0 L6.6,0 C9.4,0 11.6,2.3 11.6,5 L11.6,16.3 C11.7,19 9.4,21.3 6.6,21.3 Z"></path>
                        <path d="M53.7,21.3 L52.9,21.3 C50.1,21.3 47.9,19 47.9,16.3 L47.9,5 C47.9,2.2 50.2,0 52.9,0 L53.7,0 C56.5,0 58.7,2.3 58.7,5 L58.7,16.3 C58.7,19 56.5,21.3 53.7,21.3 Z"></path>
                    </g>
                </g>
            </g>
        </g>
    </g>
</svg>