<?xml version="1.0" encoding="UTF-8"?>
<svg width="328px" height="395px" viewBox="0 0 328 395" version="1.1" xmlns="http://www.w3.org/2000/svg" xmlns:xlink="http://www.w3.org/1999/xlink">
    <g id="Page-1" stroke="none" stroke-width="1" fill="none" fill-rule="evenodd">
        <g transform="translate(-2142.000000, -327.000000)">
            <g transform="translate(0.000000, 199.000000)">
                <g transform="translate(2142.000000, 0.000000)">
                    <g transform="translate(0.000000, 128.000000)">
                        <polygon id="Path" fill="#FFFFFF" fill-rule="nonzero" points="70.3 290.6 52.1 234 50.7 173.5 60.1 145.9 74.3 126.9 90.6 121.1 123.4 115.1 208.7 119.3 245.9 122.3 254.8 128.1 261.8 136.8 272 154.6 274.7 168.3 278.9 215.8 260.8 283.6 212.5 306.7 85 300.4"></polygon>
                        <path d="M250.1,125.1 C262.7,134.1 271.6,149.3 273.8,165.8 L276.6,185.7 L278,197.5" id="Path" stroke="#0F1923" stroke-width="4"></path>
                        <g transform="translate(80.000000, 209.000000)" fill="#0F1923" fill-rule="nonzero" id="Path">
                            <path d="M1,66.7 L0.7,62.7 C28.7,60.9 57.6,59 84.7,50.1 C114.7,40.2 137.8,22.4 149.8,-5.68434189e-14 L153.3,1.9 C140.8,25.2 116.9,43.7 85.9,53.9 C58.5,63 29.3,64.9 1,66.7 Z"></path>
                            <path d="M132.3,12 C128.5,18.1 123.5,23.5 117.9,28.1 C116.5,29.2 115.1,30.4 113.6,31.4 L109.1,34.5 C107.5,35.4 106,36.4 104.4,37.3 L99.6,39.8 L94.6,42 C92.9,42.7 91.2,43.3 89.5,44 L84.3,45.7 C82.6,46.2 80.8,46.7 79.1,47.1 C72.1,48.8 64.9,49.8 57.7,49.9 C64.7,48.1 71.5,46.3 78.2,44.1 C79.9,43.5 81.5,42.9 83.2,42.4 L88.1,40.5 L93,38.5 L97.8,36.3 L102.5,34 C104,33.2 105.5,32.3 107.1,31.4 L111.6,28.7 C113.1,27.7 114.5,26.7 116,25.8 C121.8,21.6 127.2,17 132.3,12 Z"></path>
                        </g>
                        <g transform="translate(25.000000, 231.000000)" fill-rule="nonzero" id="Path">
                            <path d="M239.7,0.4 C239.4,11.4 241.5,1.6 246,12 C249.8,20.9 258.7,27.7 265.6,34.7 C272.6,41.9 279.1,50.3 280.3,59.9 C283.9,88.9 248.4,96.6 225,101 C197.9,106.1 169.5,105.7 142.3,105.1 C120,104.7 97.3,104.8 75.6,110.2 C56.4,114.9 41.3,129.1 21.2,130.3 C17.8,130.5 14.1,130.3 11.6,128.2 C9.4,126.3 8.7,123.3 8.1,120.6 C5.3,107.1 -3.4,86.6 8.6,74.8 C13.2,70.2 20.2,68.6 26.8,67.3 C34.2,65.9 41.7,64.6 49.3,64 C59,63.3 68.8,63.7 78.5,63.4 C100.5,62.6 121.9,57.5 143.6,54.3 C165.3,51 187.9,49.5 208.9,55.6" fill="#FFFFFF"></path>
                            <path d="M19.2,132.5 C16.2,132.5 12.7,132 10.1,129.8 C7.3,127.4 6.5,123.7 6,121.1 C5.5,118.7 4.8,116 4.1,113.2 C0.7,100.2 -3.6,84 7.1,73.5 C12.1,68.6 19.3,66.8 26.3,65.5 C32.9,64.2 40.8,62.8 49,62.2 C54.8,61.8 60.6,61.8 66.2,61.7 C70.2,61.7 74.2,61.7 78.2,61.5 C93.6,60.9 109,58.2 124,55.6 C130.3,54.5 136.8,53.4 143.2,52.4 C162,49.6 186.5,47.2 209.4,53.7 L208.3,57.5 C186.2,51.1 162.2,53.5 143.8,56.3 C137.4,57.3 131,58.4 124.7,59.5 C109.6,62.1 94,64.9 78.4,65.5 C74.3,65.7 70.2,65.7 66.2,65.7 C60.6,65.7 54.9,65.7 49.2,66.2 C41.2,66.8 33.5,68.2 27,69.4 C20.6,70.6 14,72.2 9.8,76.3 C0.8,85.1 4.6,99.4 7.9,112.1 C8.7,115 9.4,117.7 9.9,120.2 C10.5,122.9 11.1,125.3 12.7,126.7 C14.8,128.5 18.4,128.5 20.9,128.4 C32.1,127.8 41.5,123 51.6,118 C59,114.3 66.6,110.5 75,108.4 C97.4,102.9 121.5,102.8 142.2,103.2 C167.8,103.7 196.8,104.3 224.4,99.1 C254.1,93.5 281.2,84.9 278.1,60.2 C276.9,50.5 269.9,42.3 264,36.1 C262.4,34.4 260.7,32.8 258.8,31.1 C253,25.6 247,19.9 244,12.8 C242.3,8.8 241.3,8.6 240.7,8.4 C237.6,7.7 237.5,5.2 237.6,0.3 L241.6,0.4 C241.5,2.9 241.6,4 241.7,4.5 C243.4,4.9 245.4,5.9 247.7,11.2 C250.5,17.6 256.1,23 261.6,28.2 C263.4,29.9 265.2,31.6 266.9,33.3 C273.3,39.9 280.8,48.8 282.1,59.7 C286,91.6 244.9,99.3 225.1,103 C197.1,108.3 167.8,107.7 142,107.2 C121.5,106.8 97.8,106.8 75.8,112.2 C67.8,114.2 60.4,117.9 53.2,121.5 C43.2,126.5 32.9,131.6 21,132.3 C20.6,132.4 19.9,132.5 19.2,132.5 Z" fill="#0F1923"></path>
                        </g>
                        <path d="M168.5,279.3 C173.8,277.7 179.2,276.5 184.7,275.7 C190.2,274.9 195.7,274.4 201.3,274.4 C206.9,274.4 212.4,274.8 217.9,275.8 C223.4,276.8 228.8,278.3 233.8,280.6 C228.3,279.9 222.9,279.3 217.5,278.9 C212.1,278.6 206.7,278.4 201.3,278.4 C195.9,278.4 190.5,278.6 185,278.8 C179.5,279.1 174,279.3 168.5,279.3 Z" id="Path" fill="#0F1923" fill-rule="nonzero"></path>
                        <path d="M167.2,336.2 C144.9,335.8 122.2,335.9 100.5,341.3 C81.3,346 66.2,360.2 46.1,361.4 C42.7,361.6 39,361.4 36.5,359.3 C34.3,357.4 33,351.7 33,351.7 C33,351.7 21.5,317.7 33.5,305.9 C38.1,301.3 45.1,299.7 51.7,298.4" id="Path" stroke="#0F1923" stroke-width="3.6725"></path>
                        <g transform="translate(20.000000, 242.000000)" fill-rule="nonzero" id="Path">
                            <path d="M74.3,44.7 C95.3,38.7 117.9,40.1 139.6,43.4 C161.3,46.7 182.8,51.7 204.7,52.5 C214.4,52.9 224.2,52.4 233.9,53.1 C241.5,53.7 248.9,54.9 256.4,56.4 C263,57.7 270,59.3 274.6,63.9 C286.6,75.7 275.1,109.7 275.1,109.7 C275.1,109.7 273.8,115.4 271.6,117.3 C269.1,119.4 265.4,119.6 262,119.4 C241.9,118.2 226.8,104.1 207.6,99.3 C185.9,93.9 163.2,93.8 140.9,94.2 C113.7,94.7 85.4,95.2 58.2,90.1 C34.8,85.7 -0.7,77.9 2.9,49 C4.1,39.3 10.6,31 17.6,23.8 C24.5,16.7 33.3,10 37.2,1.1" fill="#FFFFFF"></path>
                            <path d="M263.9,121.5 C263.2,121.5 262.5,121.5 261.9,121.4 C249.9,120.7 239.6,115.5 229.7,110.6 C222.5,107 215.1,103.3 207.1,101.3 C185.1,95.9 161.4,95.9 140.9,96.3 C115.1,96.8 85.9,97.4 57.8,92.1 C38,88.4 -3.1,80.7 0.8,48.8 C2.1,37.9 9.6,29 16,22.4 C17.7,20.7 19.5,18.9 21.3,17.3 C26.8,12.1 32.5,6.7 35.2,0.3 L38.9,1.9 C35.8,9.1 29.9,14.7 24.1,20.2 C22.3,21.9 20.6,23.5 18.9,25.2 C12.9,31.3 6,39.6 4.8,49.3 C1.8,74.1 28.8,82.6 58.5,88.2 C86.1,93.4 115.1,92.8 140.7,92.3 C161.5,91.9 185.5,91.9 207.9,97.5 C216.3,99.6 223.9,103.4 231.3,107.1 C241.3,112.1 250.8,116.9 262,117.5 C264.5,117.6 268.1,117.6 270.2,115.8 C271.4,114.8 272.6,111.4 273,109.3 L273.1,109.1 C273.2,108.8 284.1,76.2 273.1,65.4 C268.9,61.3 262.3,59.7 255.9,58.5 C249.4,57.2 241.7,55.9 233.7,55.3 C228.1,54.9 222.3,54.9 216.7,54.8 C212.7,54.8 208.6,54.8 204.5,54.6 C188.9,54 173.3,51.3 158.2,48.6 C152,47.5 145.5,46.4 139.1,45.4 C120.7,42.6 96.8,40.3 74.6,46.6 L73.5,42.8 C96.4,36.2 120.9,38.6 139.7,41.5 C146.1,42.5 152.6,43.6 158.9,44.7 C173.8,47.3 189.3,50 204.7,50.6 C208.7,50.8 212.8,50.8 216.7,50.8 C222.3,50.8 228.2,50.8 233.9,51.3 C242.1,51.9 250,53.3 256.6,54.6 C263.6,56 270.8,57.7 275.8,62.6 C288.3,74.9 277.6,107.8 276.8,110.3 C276.5,111.6 275.2,116.7 272.7,118.9 C270.3,121 266.8,121.5 263.9,121.5 Z" fill="#0F1923"></path>
                        </g>
                        <path d="M103.6,290.5 C107.5,289.3 111.5,288.5 115.5,287.9 C117.5,287.6 119.5,287.4 121.6,287.2 C123.6,287.1 125.7,287 127.7,286.9 L130.8,287 C131.8,287 132.8,287.1 133.9,287.2 L136.9,287.5 C137.9,287.6 138.9,287.8 139.9,288 C143.9,288.7 147.9,289.8 151.6,291.5 C147.6,291 143.6,290.5 139.6,290.3 C138.6,290.3 137.6,290.2 136.6,290.1 L133.6,290 L130.6,289.9 L127.6,289.9 L124.6,289.9 C123.6,289.9 122.6,290 121.6,290 L115.6,290.2 C111.6,290.3 107.6,290.5 103.6,290.5 Z" id="Path" fill="#FFFFFF" fill-rule="nonzero"></path>
                        <g transform="translate(54.000000, 337.000000)" fill-rule="nonzero">
                            <g fill="#0F1923">
                                <path d="M22,6.4 L5.2,13.8 C3.8,14.4 2.2,13.8 1.6,12.4 L1.6,12.4 C1,11 1.6,9.4 3,8.8 L19.8,1.4 C21.2,0.8 22.8,1.4 23.4,2.8 L23.4,2.8 C24,4.2 23.4,5.8 22,6.4 Z" id="Path"></path>
                                <path d="M4.1,14.9 C3.7,14.9 3.2,14.8 2.8,14.7 C1.9,14.3 1.2,13.7 0.8,12.8 C0.4,11.9 0.4,10.9 0.7,10 C1.1,9.1 1.7,8.4 2.6,8 L19.4,0.6 C20.3,0.2 21.3,0.2 22.2,0.5 C23.1,0.9 23.8,1.5 24.2,2.4 C24.6,3.3 24.6,4.3 24.3,5.2 C24,6.1 23.3,6.8 22.4,7.2 L5.6,14.6 C5.1,14.8 4.6,14.9 4.1,14.9 Z M20.9,2.1 C20.7,2.1 20.4,2.2 20.2,2.3 L3.4,9.7 C2.5,10.1 2.1,11.2 2.5,12.1 C2.7,12.5 3,12.9 3.5,13.1 C3.9,13.3 4.4,13.3 4.9,13.1 L21.7,5.7 C22.1,5.5 22.5,5.2 22.6,4.7 C22.8,4.3 22.8,3.8 22.6,3.3 C22.4,2.9 22.1,2.5 21.6,2.3 C21.4,2.2 21.1,2.1 20.9,2.1 Z" id="Shape"></path>
                            </g>
                            <circle id="Oval" fill="#0F1923" cx="5.5" cy="10.7" r="1.9"></circle>
                            <circle id="Oval" fill="#FFFFFF" cx="10.6" cy="8.4" r="1.9"></circle>
                            <circle id="Oval" fill="#FFFFFF" cx="19.1" cy="4.7" r="1.2"></circle>
                        </g>
                        <g transform="translate(250.000000, 302.000000)" fill-rule="nonzero">
                            <g fill="#0F1923">
                                <g>
                                    <path d="M15.3,8.5 L3.4,6.3 C1.9,6 0.9,4.6 1.2,3.1 L1.2,3.1 C1.5,1.6 2.9,0.6 4.4,0.9 L16.3,3.1 C17.8,3.4 18.8,4.8 18.5,6.3 L18.5,6.3 C18.3,7.8 16.8,8.8 15.3,8.5 Z" id="Path"></path>
                                    <path d="M15.8,9.3 C15.6,9.3 15.4,9.3 15.2,9.2 L3.3,7 C2.4,6.8 1.6,6.3 1,5.5 C0.5,4.7 0.3,3.8 0.4,2.9 C0.8,1 2.6,-0.3 4.5,0.1 L16.4,2.3 C18.3,2.7 19.6,4.5 19.2,6.4 C19,8.2 17.5,9.3 15.8,9.3 Z M3.9,1.6 C2.9,1.6 2.1,2.3 1.9,3.3 C1.8,3.8 1.9,4.4 2.2,4.8 C2.5,5.2 3,5.5 3.5,5.6 L15.4,7.8 C16.5,8 17.6,7.3 17.8,6.2 C18,5.1 17.3,4 16.2,3.8 L4.3,1.6 C4.2,1.6 4,1.6 3.9,1.6 Z" id="Shape"></path>
                                </g>
                                <g transform="translate(20.000000, 3.000000)">
                                    <path d="M7,7.7 L3.9,7.1 C2.4,6.8 1.4,5.4 1.7,3.9 L1.7,3.9 C2,2.4 3.4,1.4 4.9,1.7 L8,2.3 C9.5,2.6 10.5,4 10.2,5.5 L10.2,5.5 C9.9,7 8.5,8 7,7.7 Z" id="Path"></path>
                                    <path d="M7.5,8.5 C7.3,8.5 7.1,8.5 6.9,8.4 L6.9,8.4 L3.8,7.8 C1.9,7.4 0.6,5.6 1,3.7 C1.2,2.8 1.7,2 2.5,1.4 C3.3,0.9 4.2,0.7 5.1,0.8 L8.2,1.4 C9.1,1.6 9.9,2.1 10.5,2.9 C11,3.7 11.2,4.6 11.1,5.5 C10.6,7.3 9.1,8.5 7.5,8.5 Z M7.1,7 C8.2,7.2 9.3,6.5 9.5,5.4 C9.6,4.9 9.5,4.3 9.2,3.9 C8.9,3.5 8.4,3.2 7.9,3.1 L4.8,2.5 C4.3,2.4 3.7,2.5 3.3,2.8 C2.9,3.1 2.6,3.6 2.5,4.1 C2.3,5.2 3,6.3 4.1,6.5 L7.1,7 Z" id="Shape"></path>
                                </g>
                            </g>
                            <circle id="Oval" fill="#FFFFFF" cx="27.5" cy="8" r="1.6"></circle>
                        </g>
                        <g transform="translate(195.000000, 0.000000)" fill="#0F1923">
                            <circle id="Oval" fill-rule="nonzero" cx="11.1" cy="5.5" r="5.5"></circle>
                            <path d="M9,35.8 L3.9,32.5 C2.8,31.8 2.5,30.4 3.2,29.3 L3.2,29.3 C3.9,28.2 5.3,27.9 6.4,28.6 L11.5,31.9 C12.6,32.6 12.9,34 12.2,35.1 L12.2,35.1 C11.6,36.2 10.1,36.5 9,35.8 Z" id="Path"></path>
                            <polygon id="Path" fill-rule="nonzero" points="2.7 39.2 0.5 37.2 8.4 28 1.1 22.1 13.4 19.1 7.5 14.6 10 4.3 12.9 5 10.9 13.4 20.1 20.4 7.7 23.6 12.8 27.6"></polygon>
                        </g>
                        <path d="M281.1,197.5 C280.8,193.4 280.3,189.4 279.7,185.7 L276.9,165.8 C276.1,159.6 274.3,153.6 271.8,148 C266,135.4 255.2,125.9 242.3,121.1 C240.8,120.6 239.3,120 237.9,119.4 C234.5,118.1 232.6,114.4 233.5,110.8 C235.2,103.8 235.9,96.5 235.4,88.9 C233,52 202.3,22.9 165.3,22.2 C125.3,21.5 92.6,53.8 92.6,93.7 C92.6,99.6 93.3,105.4 94.7,110.9 C95.6,114.5 93.6,118.1 90.2,119.4 C89.4,119.7 88.7,120 87.9,120.3 C69.1,127.4 55,143.7 51.6,163.6 C51.5,164.3 51.4,165 51.3,165.7 L48.5,185.6 L47.1,197.4 L46.8,228.7" id="Path" stroke="#0F1923" stroke-width="4" fill="#FFFFFF" fill-rule="nonzero"></path>
                        <polygon id="Path" fill="#0F1923" fill-rule="nonzero" points="91.2 93.9 236.6 93.9 230.8 66.2 219.9 49.2 209.4 38.2 197.7 30.8 188 26.3 172.3 22.4 157.9 22.1 146.7 23.8 135.3 28 122.8 34.3 108.7 47.1 99.5 61.2 93.7 77.2"></polygon>
                        <g transform="translate(105.000000, 61.000000)" id="Path">
                            <path d="M17.6,56.7 C8.3,56.7 0.8,49.2 0.8,39.9 L0.8,16.9 C0.8,7.6 8.3,0.1 17.6,0.1 L100.4,0.1 C109.7,0.1 117.2,7.6 117.2,16.9 L117.2,39.9 C117.2,49.2 109.7,56.7 100.4,56.7 L17.6,56.7 Z" fill="#FFFFFF" fill-rule="nonzero"></path>
                            <path d="M100.4,1.3 L17.6,1.3 C9,1.3 2,8.3 2,16.9 L2,39.9 C2,48.5 9,55.5 17.6,55.5 L100.4,55.5 C109,55.5 116,48.5 116,39.9 L116,16.9 C116,8.3 109,1.3 100.4,1.3 Z" fill="#FFF200" fill-rule="nonzero"></path>
                            <g transform="translate(3.000000, 2.000000)">
                                <path d="M89.7,52 L14.6,52 C6.8,52 0.5,45.7 0.5,37.9 L0.5,14.9 C0.5,7.1 6.8,0.8 14.6,0.8 L89.7,0.8 C97.5,0.8 103.8,7.1 103.8,14.9 L103.8,37.9 C103.7,45.7 97.4,52 89.7,52 Z" stroke="#0F1923" stroke-width="3" fill="#FFFFFF" fill-rule="nonzero"></path>
                                <path d="M97.4,52 L22.3,52 C14.5,52 8.2,45.7 8.2,37.9 L8.2,14.9 C8.2,7.1 14.5,0.8 22.3,0.8 L97.4,0.8 C105.2,0.8 111.5,7.1 111.5,14.9 L111.5,37.9 C111.4,45.7 105.1,52 97.4,52 Z" stroke="#0F1923" stroke-width="3" fill="#FFFFFF" fill-rule="nonzero"></path>
                                <g transform="translate(8.000000, 0.000000)">
                                    <path d="M81.7,52 L14.3,52 C6.5,52 0.2,45.7 0.2,37.9 L0.2,14.9 C0.2,7.1 6.5,0.8 14.3,0.8 L81.7,0.8 C89.5,0.8 95.8,7.1 95.8,14.9 L95.8,37.9 C95.8,45.7 89.5,52 81.7,52 Z" fill="#0F1923" fill-rule="nonzero"></path>
                                    <path d="M81.7,52 L14.3,52 C6.5,52 0.2,45.7 0.2,37.9 L0.2,14.9 C0.2,7.1 6.5,0.8 14.3,0.8 L81.7,0.8 C89.5,0.8 95.8,7.1 95.8,14.9 L95.8,37.9 C95.8,45.7 89.5,52 81.7,52 Z" stroke="#0F1923" stroke-width="3"></path>
                                    <path d="M81.7,52 L14.3,52 C6.5,52 0.2,45.7 0.2,37.9 L0.2,14.9 C0.2,7.1 6.5,0.8 14.3,0.8 L81.7,0.8 C89.5,0.8 95.8,7.1 95.8,14.9 L95.8,37.9 C95.8,45.7 89.5,52 81.7,52 Z" stroke="#0F1923" stroke-width="3"></path>
                                </g>
                                <g transform="translate(27.000000, 15.000000)" fill="#FFFFFF" fill-rule="nonzero">
                                    <path d="M5.8,22.1 L5,22.1 C2.2,22.1 0,19.8 0,17.1 L0,5.8 C0,3 2.3,0.8 5,0.8 L5.8,0.8 C8.6,0.8 10.8,3.1 10.8,5.8 L10.8,17.1 C10.9,19.8 8.6,22.1 5.8,22.1 Z"></path>
                                    <path d="M52.9,22.1 L52.1,22.1 C49.3,22.1 47.1,19.8 47.1,17.1 L47.1,5.8 C47.1,3 49.4,0.8 52.1,0.8 L52.9,0.8 C55.7,0.8 57.9,3.1 57.9,5.8 L57.9,17.1 C58,19.8 55.7,22.1 52.9,22.1 Z"></path>
                                </g>
                            </g>
                        </g>
                        <g transform="translate(146.000000, 34.000000)" fill="#FFFFFF" fill-rule="nonzero" id="Path">
                            <path d="M33.7,18 L2.5,18 C1.5,18 0.6,17.2 0.6,16.1 L0.6,16.1 C0.6,15.1 1.4,14.2 2.5,14.2 L33.7,14.2 C34.7,14.2 35.6,15 35.6,16.1 L35.6,16.1 C35.5,17.2 34.7,18 33.7,18 Z"></path>
                            <path d="M29.7,11 L6.4,11 C5.4,11 4.5,10.2 4.5,9.1 L4.5,9.1 C4.5,8.1 5.3,7.2 6.4,7.2 L29.7,7.2 C30.7,7.2 31.6,8 31.6,9.1 L31.6,9.1 C31.6,10.2 30.8,11 29.7,11 Z"></path>
                            <path d="M26.4,4.1 L9.7,4.1 C8.7,4.1 7.8,3.3 7.8,2.2 L7.8,2.2 C7.8,1.2 8.6,0.3 9.7,0.3 L26.4,0.3 C27.4,0.3 28.3,1.1 28.3,2.2 L28.3,2.2 C28.3,3.2 27.5,4.1 26.4,4.1 Z"></path>
                        </g>
                        <g transform="translate(51.000000, 111.000000)" id="Path">
                            <g transform="translate(168.000000, 0.000000)">
                                <path d="M20.8,38 C27.4,32.2 33.6,25.7 39.1,17.9 L14.4,0.9 C10.8,6 6.1,11 0.9,15.6 L20.8,38 Z"></path>
                                <g transform="translate(7.000000, 6.000000)" fill="#0F1923">
                                    <path d="M12.8,0.9 L11.5,2.7 L10.8,3.6 L10.1,4.5 L7.2,7.9 C5.1,10.1 3,12.3 0.7,14.3 L4.1,18 C6.5,15.9 8.7,13.6 10.9,11.3 L14,7.7 L14.8,6.8 L15.5,5.8 L16.9,3.9 L12.8,0.9 Z"></path>
                                    <path d="M6.7,20.9 L10.1,24.6 C12.7,22.3 15.1,19.8 17.5,17.3 L20.9,13.3 L21.8,12.3 L22.6,11.2 L24.2,9.1 L20.2,6.1 L18.7,8.1 L18,9.1 L17.2,10 L13.9,13.8 C11.4,16.3 9.1,18.7 6.7,20.9 Z"></path>
                                </g>
                            </g>
                            <g transform="translate(151.000000, 15.000000)">
                                <path d="M17.1,38.6 C24.3,34 31.2,28.9 37.8,23.1 L17.9,0.7 C12.7,5.3 6.9,9.6 0.8,13.5 L17.1,38.6 Z"></path>
                                <g transform="translate(6.000000, 7.000000)" fill="#0F1923">
                                    <path d="M15.7,0.8 L12.1,3.8 C10.9,4.8 9.6,5.7 8.4,6.6 L6.5,8 L4.6,9.3 C3.3,10.2 2.1,11.1 0.7,12 L3.5,16.2 C4.8,15.3 6.1,14.4 7.5,13.5 L9.5,12.1 L11.4,10.6 C12.7,9.6 14,8.7 15.2,7.7 L18.9,4.6 L15.7,0.8 Z"></path>
                                    <path d="M5.8,19.5 L8.6,23.7 C10,22.8 11.4,21.8 12.8,20.8 L14.9,19.3 L16.9,17.8 C18.2,16.8 19.6,15.8 20.9,14.7 L24.8,11.4 L21.5,7.6 L17.7,10.8 C16.4,11.8 15.1,12.8 13.8,13.8 L11.8,15.3 L9.8,16.7 C8.5,17.7 7.1,18.6 5.8,19.5 Z"></path>
                                </g>
                            </g>
                            <g transform="translate(132.000000, 28.000000)">
                                <path d="M13.9,38 C21.6,34.4 29,30.2 36.1,25.6 L19.8,0.4 C13.7,4.3 7.4,7.9 0.8,11 L13.9,38 Z"></path>
                                <g transform="translate(6.000000, 8.000000)" fill="#0F1923">
                                    <path d="M16.5,0.2 L14.5,1.5 L12.5,2.7 L8.4,5.1 C5.6,6.6 2.9,8.1 0.1,9.5 L2.3,14 C5.2,12.6 8,11 10.9,9.5 L15.1,7.1 L17.2,5.9 L19.2,4.6 L16.5,0.2 Z"></path>
                                    <path d="M4.1,17.4 L6.3,21.9 C9.3,20.5 12.3,18.8 15.3,17.2 L19.7,14.7 L21.9,13.4 L24,12 L21.3,7.8 L19.2,9.1 L17.1,10.3 L12.8,12.8 C9.9,14.4 7,16 4.1,17.4 Z"></path>
                                </g>
                            </g>
                            <g transform="translate(112.000000, 39.000000)">
                                <path d="M10.3,36.7 C18.4,34 26.3,30.8 33.9,27.1 L20.9,0.1 C14.3,3.2 7.6,6 0.8,8.3 L10.3,36.7 Z"></path>
                                <g transform="translate(5.000000, 8.000000)" fill="#0F1923">
                                    <path d="M17.5,0.1 C11.8,2.7 6,5.2 0.1,7.2 L1.7,11.9 C7.8,9.8 13.7,7.3 19.6,4.6 L17.5,0.1 Z"></path>
                                    <path d="M3.1,15.6 L4.7,20.3 C11.1,18.1 17.3,15.5 23.4,12.7 L21.3,8.2 C15.4,10.9 9.3,13.5 3.1,15.6 Z"></path>
                                </g>
                            </g>
                            <g transform="translate(91.000000, 47.000000)">
                                <path d="M6.7,35.1 C10.8,34.3 14.8,33.4 18.9,32.4 L25.2,30.7 L31.3,28.8 L21.8,0.3 L16.7,1.9 L11.6,3.3 C8.1,4.2 4.4,5 0.8,5.7 L6.7,35.1 Z"></path>
                                <g transform="translate(4.000000, 8.000000)" fill="#0F1923">
                                    <path d="M18.4,0.4 C16.9,0.9 15.4,1.4 13.9,1.8 L9.4,3 C7.9,3.4 6.3,3.7 4.8,4.1 C3.3,4.5 1.7,4.8 0.2,5.1 L1.2,10 C7.5,8.7 13.8,7.2 19.9,5.2 L18.4,0.4 Z"></path>
                                    <path d="M2.1,13.9 L3.1,18.8 C4.7,18.5 6.4,18.1 8,17.7 C9.6,17.3 11.2,17 12.9,16.5 L17.8,15.2 C19.4,14.8 21,14.2 22.7,13.7 L21.2,8.9 C14.9,11 8.5,12.5 2.1,13.9 Z"></path>
                                </g>
                            </g>
                            <g transform="translate(69.000000, 52.000000)">
                                <path d="M4.3,34 C12.4,33 20.6,31.7 28.7,30.1 L22.8,0.7 C15.5,2.2 8.1,3.3 0.6,4.3 L4.3,34 Z"></path>
                                <g transform="translate(3.000000, 8.000000)" fill="#0F1923">
                                    <path d="M19.3,0.9 C13.1,2.1 6.8,3.1 0.5,3.9 L1.2,8.9 C7.6,8 14,7 20.3,5.8 L19.3,0.9 Z"></path>
                                    <path d="M1.6,12.8 L2.3,17.8 C8.9,16.9 15.4,15.9 22,14.6 L21,9.7 C14.6,10.9 8.1,12 1.6,12.8 Z"></path>
                                </g>
                            </g>
                            <g transform="translate(46.000000, 56.000000)">
                                <path d="M3,32.4 C11.1,31.8 19.2,31.1 27.3,30.1 L23.5,0.3 C16,1.2 8.4,2 0.8,2.5 L3,32.4 Z"></path>
                                <g transform="translate(3.000000, 8.000000)" fill="#0F1923">
                                    <path d="M19.5,0.4 C13.2,1.2 6.8,1.8 0.4,2.3 L0.8,7.3 C7.3,6.8 13.7,6.2 20.1,5.4 L19.5,0.4 Z"></path>
                                    <path d="M1,11.3 L1.4,16.3 C8,15.8 14.5,15.2 21.1,14.4 L20.5,9.4 C14.1,10.1 7.6,10.8 1,11.3 Z"></path>
                                </g>
                            </g>
                            <g transform="translate(23.000000, 58.000000)">
                                <path d="M2,31.8 C10,31.5 18,31.1 26,30.5 L23.8,0.6 C16.1,1.1 8.4,1.5 0.7,1.9 L2,31.8 Z"></path>
                                <g transform="translate(3.000000, 8.000000)" fill="#0F1923">
                                    <path d="M19.3,0.6 C12.9,1.1 6.4,1.4 0,1.7 L0.2,6.7 C6.7,6.4 13.2,6.1 19.6,5.6 L19.3,0.6 Z"></path>
                                    <path d="M0.4,10.7 L0.6,15.7 C7.1,15.4 13.7,15.1 20.3,14.6 L19.9,9.6 C13.4,10 6.9,10.4 0.4,10.7 Z"></path>
                                </g>
                            </g>
                            <g transform="translate(0.000000, 59.000000)">
                                <path d="M1.2,31.7 C9.1,31.5 17,31.2 25,30.9 L23.7,0.9 C15.9,1.2 8.1,1.5 0.3,1.7 L1.2,31.7 Z"></path>
                                <g transform="translate(2.000000, 8.000000)" fill="#0F1923">
                                    <polygon points="19.9 0.9 0.5 1.6 0.6 6.6 20.1 5.9"></polygon>
                                    <polygon points="0.8 10.6 0.9 15.6 20.5 14.9 20.3 9.9"></polygon>
                                </g>
                            </g>
                        </g>
                        <path d="M48.3,202.6 L48.2,198.3 C51.6,198.2 54.9,198.1 58.2,198.1 C95.8,197.2 131.4,196.4 165.3,185.8 C206.8,172.9 232.6,156 254.5,127.5 L257.9,130.1 C235.5,159.4 209,176.7 166.6,189.9 C132.1,200.6 96.2,201.5 58.3,202.4 C55,202.4 51.7,202.5 48.3,202.6 Z" id="Path" fill="#0F1923" fill-rule="nonzero"></path>
                        <g transform="translate(0.000000, 159.000000)" fill-rule="nonzero">
                            <path d="M4.8,75.7 C10.4,116.9 67.7,140.4 73.3,71.9 L4.8,75.7 Z" id="Path" stroke="#0F1923" stroke-width="4" fill="#0F1923" stroke-linecap="round" stroke-linejoin="round"></path>
                            <g>
                                <g>
                                    <path d="M6.9,20.2 C9.6,20.2 11.7,22.4 11.7,25 L11.7,50.3 C11.7,51.6 12.8,52.7 14.1,52.7 C15.4,52.7 16.5,51.6 16.5,50.3 L16.5,12.5 C16.5,9.8 18.7,7.7 21.3,7.7 C24,7.7 26.1,9.9 26.1,12.5 L26.1,50.3 C26.1,51.6 27.2,52.7 28.5,52.7 C29.8,52.7 30.9,51.6 30.9,50.3 L30.9,7.7 C30.9,5 33,2.9 35.7,2.9 C38.4,2.9 40.5,5.1 40.5,7.7 L40.5,50.3 C40.5,51.6 41.6,52.7 42.9,52.7 C44.2,52.7 45.3,51.6 45.3,50.3 L45.3,12.5 C45.3,9.8 47.5,7.7 50.1,7.7 C52.8,7.7 54.9,9.9 54.9,12.5 L54.9,62.8 C54.9,65.7 57.2,68 60.1,68 C63,68 65.3,65.7 65.3,62.8 L65.3,53 C65.3,50.3 67.5,48.2 70.1,48.2 C72.8,48.2 74.9,50.4 74.9,53 L74.9,65 L74.8,68.1 C73.8,87.5 57.8,103 38.1,103 C19.8,103 4.6,89.6 1.8,72 L1.8,25 C2.1,22.4 4.3,20.2 6.9,20.2 Z" id="Path" fill="#FFFFFF"></path>
                                    <path d="M38.4,104.9 C19.2,104.9 3.1,91.2 0.1,72.2 L0.1,71.9 L0.1,24.9 C0.1,21.1 3.2,18.1 6.9,18.1 C10.7,18.1 13.7,21.2 13.7,24.9 L13.7,50.2 C13.7,50.4 13.9,50.6 14.1,50.6 C14.3,50.6 14.5,50.4 14.5,50.2 L14.5,12.4 C14.5,8.6 17.6,5.6 21.3,5.6 C25.1,5.6 28.1,8.7 28.1,12.4 L28.1,50.2 C28.1,50.4 28.3,50.6 28.5,50.6 C28.7,50.6 28.9,50.4 28.9,50.2 L28.9,7.6 C28.9,3.8 32,0.8 35.7,0.8 C39.5,0.8 42.5,3.9 42.5,7.6 L42.5,50.2 C42.5,50.4 42.7,50.6 42.9,50.6 C43.1,50.6 43.3,50.4 43.3,50.2 L43.3,12.4 C43.3,8.6 46.4,5.6 50.1,5.6 C53.9,5.6 56.9,8.7 56.9,12.4 L56.9,62.7 C56.9,64.5 58.3,65.9 60.1,65.9 C61.9,65.9 63.3,64.5 63.3,62.7 L63.3,52.9 C63.3,49.1 66.4,46.1 70.1,46.1 C73.9,46.1 76.9,49.2 76.9,52.9 L76.9,65 L76.8,68.1 C76.1,88.8 59.1,104.9 38.4,104.9 Z M4.1,71.8 C6.9,88.7 21.3,100.9 38.4,100.9 C56.9,100.9 72.2,86.4 73.1,67.9 L73.2,64.9 L73.2,53 C73.2,51.4 71.9,50.2 70.4,50.2 C68.8,50.2 67.6,51.5 67.6,53 L67.6,62.8 C67.6,66.8 64.4,70 60.4,70 C56.4,70 53.2,66.8 53.2,62.8 L53.2,12.5 C53.2,10.9 51.9,9.7 50.4,9.7 C48.8,9.7 47.6,11 47.6,12.5 L47.6,50.3 C47.6,52.7 45.6,54.7 43.2,54.7 C40.8,54.7 38.8,52.7 38.8,50.3 L38.8,7.7 C38.8,6.1 37.5,4.9 36,4.9 C34.4,4.9 33.2,6.2 33.2,7.7 L33.2,50.3 C33.2,52.7 31.2,54.7 28.8,54.7 C26.4,54.7 24.4,52.7 24.4,50.3 L24.4,12.5 C24.4,10.9 23.1,9.7 21.6,9.7 C20,9.7 18.8,11 18.8,12.5 L18.8,50.3 C18.8,52.7 16.8,54.7 14.4,54.7 C12,54.7 10,52.7 10,50.3 L10,25 C10,23.4 8.7,22.2 7.2,22.2 C5.6,22.2 4.4,23.5 4.4,25 L4.4,71.8 L4.1,71.8 Z" id="Shape" fill="#0F1923"></path>
                                </g>
                                <g transform="translate(30.000000, 63.000000)">
                                    <g>
                                        <circle id="Oval" fill="#FFFFFF" cx="5.7" cy="6.1" r="4"></circle>
                                        <path d="M5.7,11.6 C2.7,11.6 0.2,9.1 0.2,6.1 C0.2,3.1 2.7,0.6 5.7,0.6 C8.7,0.6 11.2,3.1 11.2,6.1 C11.2,9.1 8.8,11.6 5.7,11.6 Z M5.7,3.6 C4.3,3.6 3.2,4.7 3.2,6.1 C3.2,7.5 4.3,8.6 5.7,8.6 C7.1,8.6 8.2,7.5 8.2,6.1 C8.2,4.7 7.1,3.6 5.7,3.6 Z" id="Shape" fill="#0F1923"></path>
                                    </g>
                                    <circle id="Oval" fill="#FFFFFF" cx="5.7" cy="6.1" r="1.2"></circle>
                                </g>
                            </g>
                        </g>
                        <g transform="translate(250.000000, 159.000000)" fill-rule="nonzero">
                            <path d="M73.3,75.7 C67.7,116.9 10.4,140.4 4.8,71.9 L73.3,75.7 Z" id="Path" stroke="#0F1923" stroke-width="4" fill="#0F1923" stroke-linecap="round" stroke-linejoin="round"></path>
                            <g>
                                <g>
                                    <path d="M32.6,39.1 L32.6,50.1 C32.6,51.4 33.5,52.5 34.8,52.6 C36.2,52.7 37.5,51.6 37.5,50.2 L37.5,7.8 C37.5,5.3 39.3,3 41.9,2.8 C44.8,2.5 47.2,4.8 47.2,7.6 L47.2,50 C47.2,51.3 48.1,52.4 49.4,52.5 C50.8,52.6 52.1,51.5 52.1,50.1 L52.1,12.3 C52.1,9.5 54.5,7.2 57.4,7.5 C59.9,7.7 61.7,10 61.7,12.5 L61.7,49.9 C61.7,51.2 62.6,52.3 63.9,52.4 C65.3,52.5 66.6,51.4 66.6,50 L66.6,24.9 C66.6,22.4 68.4,20.1 70.9,19.9 C73.8,19.6 76.2,21.9 76.2,24.7 L76.2,71.7 C73.4,89.2 58.2,102.7 39.9,102.7 C20.2,102.7 4.2,87.3 3.2,67.8 L3.1,64.7 L3.1,53 C3.1,50.5 4.9,48.2 7.4,48 C10.3,47.7 12.7,50 12.7,52.8 L12.7,62.6 C12.7,65.7 15.3,68.1 18.4,67.8 C21.1,67.5 23.1,65.1 23.1,62.4 L23.1,42.6 L23.1,42.5 L23.1,39.9 C23.1,34.9 15.8,34.9 13.6,37 C12.6,37.9 12.7,39.8 12.7,42.1 L12.7,43.5 C12.7,46 10.7,47.9 8.2,47.9 L7.7,47.9 C5.2,47.9 3,46 3,43.5 L3,38.9 C3,38.9 1.9,25.5 17.4,25.5 C33.8,25.8 32.6,39.1 32.6,39.1 Z" id="Path" fill="#FFFFFF"></path>
                                    <path d="M39.7,104.9 C19,104.9 2,88.8 1,68.1 L0.9,65 L0.9,53.3 C0.9,51.4 1.7,49.6 2.9,48.3 C1.7,47.1 0.9,45.5 0.9,43.7 L0.9,39.1 C0.9,38.3 0.7,32.6 4.6,28.4 C7.5,25.3 11.7,23.7 17.3,23.7 C23.3,23.7 27.9,25.4 30.9,28.7 C34.8,32.9 34.6,38.3 34.6,39.2 L34.6,50.2 C34.6,50.5 34.8,50.7 35,50.7 C35.2,50.7 35.3,50.7 35.3,50.6 C35.4,50.6 35.4,50.5 35.4,50.3 L35.4,7.9 C35.4,4.3 38.1,1.2 41.6,0.9 C43.5,0.7 45.4,1.4 46.8,2.6 C48.2,3.8 49,5.7 49,7.6 L49,50 C49,50.3 49.2,50.5 49.4,50.5 C49.6,50.5 49.7,50.5 49.7,50.4 C49.8,50.3 49.8,50.2 49.8,50.1 L49.8,12.3 C49.8,10.4 50.6,8.5 52,7.2 C53.4,5.9 55.3,5.3 57.3,5.5 C60.7,5.8 63.4,8.9 63.4,12.5 L63.4,49.9 C63.4,50.2 63.6,50.4 63.8,50.4 C64,50.4 64.1,50.4 64.1,50.3 C64.2,50.2 64.2,50.1 64.2,50 L64.2,24.9 C64.2,21.3 66.9,18.2 70.3,17.9 C72.2,17.7 74.1,18.3 75.5,19.6 C76.9,20.9 77.7,22.7 77.7,24.6 L77.7,71.7 L77.7,71.9 C74.9,91.2 58.8,104.9 39.7,104.9 Z M7.7,50.3 C7.6,50.3 7.5,50.3 7.4,50.3 C6,50.4 4.9,51.8 4.9,53.3 L4.9,65 L5,68 C5.9,86.4 21.2,100.9 39.7,100.9 C56.8,100.9 71.3,88.7 74,71.8 L74,25 C74,24.2 73.7,23.5 73.1,22.9 C72.5,22.4 71.7,22.1 70.9,22.2 C69.5,22.3 68.4,23.7 68.4,25.2 L68.4,50.3 C68.4,51.5 67.9,52.7 67,53.6 C66.1,54.4 64.8,54.9 63.6,54.7 C61.4,54.5 59.6,52.5 59.6,50.2 L59.6,12.8 C59.6,11.2 58.5,9.9 57.1,9.8 C56.3,9.7 55.5,10 54.9,10.5 C54.3,11 54,11.8 54,12.6 L54,50.4 C54,51.6 53.5,52.8 52.5,53.7 C51.6,54.5 50.3,54.9 49.1,54.8 C46.9,54.6 45.1,52.6 45.1,50.3 L45.1,7.9 C45.1,7.1 44.8,6.4 44.2,5.8 C43.6,5.3 42.8,5 42,5.1 C40.6,5.2 39.5,6.6 39.5,8.1 L39.5,50.5 C39.5,51.7 39,52.9 38,53.8 C37.1,54.6 35.8,55 34.6,54.9 C32.4,54.7 30.7,52.7 30.7,50.4 L30.7,39.2 C30.7,39.1 31,34.8 28.1,31.6 C25.9,29.2 22.3,28 17.5,28 C13.1,28 9.9,29.1 7.8,31.4 C4.8,34.6 5.1,39.2 5.1,39.2 L5.1,39.4 L5.1,44 C5.1,45.4 6.3,46.4 7.8,46.4 L8.3,46.4 C9.8,46.4 10.8,45.4 10.8,44 L10.8,42.2 C10.8,39.7 10.8,37.5 12.3,36 C14.3,34.1 18.4,33.6 21.4,34.9 C23.8,35.9 25.1,37.9 25.1,40.4 L25.1,62.9 C25.1,66.7 22.2,70 18.6,70.3 C16.6,70.5 14.5,69.8 13,68.5 C11.5,67.1 10.6,65.2 10.6,63.1 L10.6,53.3 C10.6,52.5 10.3,51.8 9.7,51.2 C9.1,50.5 8.4,50.3 7.7,50.3 Z M12.6,48.4 C13.8,49.7 14.5,51.4 14.5,53.1 L14.5,62.9 C14.5,63.8 14.9,64.7 15.6,65.3 C16.3,65.9 17.2,66.2 18.1,66.1 C19.7,65.9 21,64.4 21,62.7 L21,40.2 C21,39.6 20.9,38.8 19.7,38.4 C18,37.7 15.6,38.1 14.9,38.7 C14.6,39 14.6,40.8 14.6,42 L14.6,43.8 C14.6,45.6 13.9,47.2 12.6,48.4 Z" id="Shape" fill="#0F1923"></path>
                                </g>
                                <g transform="translate(36.000000, 63.000000)">
                                    <g>
                                        <circle id="Oval" fill="#FFFFFF" cx="6.1" cy="6.1" r="4"></circle>
                                        <path d="M6.1,11.6 C3.1,11.6 0.6,9.1 0.6,6.1 C0.6,3.1 3.1,0.6 6.1,0.6 C9.1,0.6 11.6,3.1 11.6,6.1 C11.6,9.1 9.2,11.6 6.1,11.6 Z M6.1,3.6 C4.7,3.6 3.6,4.7 3.6,6.1 C3.6,7.5 4.7,8.6 6.1,8.6 C7.5,8.6 8.6,7.5 8.6,6.1 C8.6,4.7 7.5,3.6 6.1,3.6 Z" id="Shape" fill="#0F1923"></path>
                                    </g>
                                    <circle id="Oval" fill="#FFFFFF" cx="6.1" cy="6.1" r="1.2"></circle>
                                </g>
                            </g>
                        </g>
                        <path d="M131.2,123.8 L122.8,123.8 C121.8,123.8 121.1,123 121.1,122.1 L121.1,122.1 C121.1,121.1 121.9,120.4 122.8,120.4 L131.2,120.4 C132.2,120.4 132.9,121.2 132.9,122.1 L132.9,122.1 C132.9,123 132.1,123.8 131.2,123.8 Z" id="Path" fill="#0F1923" fill-rule="nonzero"></path>
                        <path d="M139.6,123.8 L137.2,123.8 C136.2,123.8 135.5,123 135.5,122.1 L135.5,122.1 C135.5,121.1 136.3,120.4 137.2,120.4 L139.6,120.4 C140.6,120.4 141.3,121.2 141.3,122.1 L141.3,122.1 C141.3,123 140.6,123.8 139.6,123.8 Z" id="Path" fill="#0F1923" fill-rule="nonzero"></path>
                        <path d="M205.6,123.8 L203.2,123.8 C202.2,123.8 201.5,123 201.5,122.1 L201.5,122.1 C201.5,121.1 202.3,120.4 203.2,120.4 L205.6,120.4 C206.6,120.4 207.3,121.2 207.3,122.1 L207.3,122.1 C207.3,123 206.6,123.8 205.6,123.8 Z" id="Path" fill="#0F1923" fill-rule="nonzero"></path>
                        <g transform="translate(260.000000, 146.000000)" id="Path" stroke="#0F1923" stroke-linecap="round" stroke-linejoin="round" stroke-width="3">
                            <line x1="1.1" y1="0.7" x2="6.2" y2="27.2"></line>
                            <path d="M4.7,18.9 L4.7,18.9 C3.2,19.2 1.7,18.2 1.4,16.7 L0.6,12.6 C0.3,11.1 1.3,9.6 2.8,9.3 L2.8,9.3 C4.3,9 5.8,10 6.1,11.5 L6.9,15.6 C7.2,17.2 6.2,18.6 4.7,18.9 Z" fill="#0F1923" fill-rule="nonzero"></path>
                        </g>
                        <ellipse id="Oval" fill="#0F1923" fill-rule="nonzero" cx="164" cy="388.2" rx="125.1" ry="6.7"></ellipse>
                        <g transform="translate(147.000000, 199.000000)" fill="#0F1923">
                            <path d="M14.6,34.3 C11.5,33.9 8.6,32.6 6.2,30.5 L8.4,27.9 C10.3,29.5 12.6,30.5 15.1,30.9 L14.6,34.3 Z M20.4,34.1 L19.7,30.8 C22.1,30.3 24.4,29.1 26.2,27.4 L28.5,29.9 C26.3,32.1 23.5,33.5 20.4,34.1 Z M2.5,26.1 C1.2,23.9 0.4,21.5 0.2,18.9 C0.2,18.4 0.1,18 0.1,17.5 L0.1,17.1 L3.5,17.2 L3.5,17.5 C3.5,17.9 3.5,18.2 3.5,18.6 C3.7,20.7 4.3,22.6 5.3,24.4 L2.5,26.1 Z M32.1,25.3 L29.1,23.7 C30.1,21.8 30.6,19.7 30.6,17.6 C30.6,17.2 30.6,16.9 30.6,16.5 L32.3,16.3 L34,16.2 L32.3,16.3 L34,16.2 C34,16.7 34.1,17.1 34.1,17.6 C33.9,20.3 33.3,22.9 32.1,25.3 Z M4.4,12.7 L1.2,11.5 C2.3,8.6 4.2,6 6.7,4.1 L8.8,6.8 C6.9,8.4 5.3,10.4 4.4,12.7 Z M29.3,12 C28.3,9.7 26.6,7.8 24.5,6.4 L26.4,3.6 C29,5.4 31.1,7.8 32.4,10.6 L29.3,12 Z M13,4.7 L12,1.5 C13.2,1.1 14.5,0.9 15.8,0.8 C17.7,0.7 19.5,0.8 21.2,1.2 L20.4,4.5 C19,4.1 17.5,4 16,4.1 C14.9,4.2 13.9,4.4 13,4.7 Z" id="Shape" fill-rule="nonzero"></path>
                            <circle id="Oval" cx="17" cy="17.6" r="11.6"></circle>
                        </g>
                    </g>
                </g>
            </g>
        </g>
    </g>
</svg>
