<?xml version="1.0" encoding="UTF-8"?>
<svg width="447px" height="380px" viewBox="0 0 447 380" version="1.1" xmlns="http://www.w3.org/2000/svg" xmlns:xlink="http://www.w3.org/1999/xlink">
    <title>Group</title>
    <g id="Page-1" stroke="none" stroke-width="1" fill="none" fill-rule="evenodd">
        <g id="ROBOTS_All_" transform="translate(-1605.000000, -342.000000)">
            <g id="Group" transform="translate(1606.000000, 199.000000)">
                <g transform="translate(0.000000, 143.000000)">
                    <g transform="translate(47.000000, 342.000000)">
                        <g fill-rule="nonzero">
                            <path d="M105.2,35.9 L12.3,35.9 C5.5,35.9 0,30.4 0,23.6 L0,23.6 C0,11.1 10.2,0.9 22.7,0.9 L94.8,0.9 C107.3,0.9 117.5,11.1 117.5,23.6 L117.5,23.6 C117.5,30.4 112,35.9 105.2,35.9 Z" id="Path" stroke="#0F1923" stroke-width="4" fill="#FFFFFF"></path>
                            <ellipse id="Oval" fill="#0F1923" cx="58.8" cy="14.4" rx="50.3" ry="12.2"></ellipse>
                        </g>
                        <path d="M70.8,20.4 C71.9,25.6 70.4,31.3 66.8,35.2" id="Path" stroke="#0F1923" stroke-width="3"></path>
                        <path d="M77.2,35.2 C83.4,32.6 87.5,25.7 86.8,19" id="Path" stroke="#0F1923" stroke-width="3"></path>
                        <path d="M92.5,35.8 C97.7,31.1 100.4,23.8 99.4,16.9" id="Path" stroke="#0F1923" stroke-width="3"></path>
                        <path d="M103.5,35.3 C110,31.6 114.7,22.8 113.4,15.4" id="Path" stroke="#0F1923" stroke-width="3"></path>
                        <g transform="translate(4.000000, 15.000000)" id="Path" stroke="#0F1923" stroke-width="3">
                            <path d="M43,5.4 C41.9,10.6 43.4,16.3 47,20.2"></path>
                            <path d="M36.5,20.2 C30.3,17.6 26.2,10.7 26.9,4"></path>
                            <path d="M21.2,20.8 C16,16.1 13.3,8.8 14.3,1.9"></path>
                            <path d="M10.5,20.7 C4,17 -1,7.9 0.3,0.5"></path>
                        </g>
                        <line x1="58.8" y1="24.3" x2="58.8" y2="35.8" id="Path" stroke="#0F1923" stroke-width="3"></line>
                    </g>
                    <g transform="translate(279.000000, 342.000000)">
                        <g fill-rule="nonzero">
                            <path d="M105.9,35.9 L13,35.9 C6.2,35.9 0.7,30.4 0.7,23.6 L0.7,23.6 C0.7,11.1 10.9,0.9 23.4,0.9 L95.5,0.9 C108,0.9 118.2,11.1 118.2,23.6 L118.2,23.6 C118.2,30.4 112.7,35.9 105.9,35.9 Z" id="Path" stroke="#0F1923" stroke-width="4" fill="#FFFFFF"></path>
                            <ellipse id="Oval" fill="#0F1923" cx="59.5" cy="14.4" rx="50.3" ry="12.2"></ellipse>
                        </g>
                        <path d="M71.5,20.4 C72.6,25.6 71.1,31.3 67.5,35.2" id="Path" stroke="#0F1923" stroke-width="3"></path>
                        <path d="M77.9,35.2 C84.1,32.6 88.2,25.7 87.5,19" id="Path" stroke="#0F1923" stroke-width="3"></path>
                        <path d="M93.2,35.8 C98.4,31.1 101.1,23.8 100.1,16.9" id="Path" stroke="#0F1923" stroke-width="3"></path>
                        <path d="M104.2,35.3 C110.7,31.6 115.4,22.8 114.1,15.4" id="Path" stroke="#0F1923" stroke-width="3"></path>
                        <g transform="translate(4.000000, 15.000000)" id="Path" stroke="#0F1923" stroke-width="3">
                            <path d="M43.6,5.4 C42.5,10.6 44,16.3 47.6,20.2"></path>
                            <path d="M37.2,20.2 C31,17.6 26.9,10.7 27.6,4"></path>
                            <path d="M21.9,20.8 C16.7,16.1 14,8.8 15,1.9"></path>
                            <path d="M11.2,20.7 C4.7,17 -0.3,7.9 1,0.5"></path>
                        </g>
                        <line x1="59.5" y1="24.3" x2="59.5" y2="35.8" id="Path" stroke="#0F1923" stroke-width="3"></line>
                    </g>
                    <g transform="translate(0.000000, 146.000000)" fill="#0F1923" fill-rule="nonzero" id="Path" stroke="#0F1923" stroke-width="3">
                        <path d="M435.6,170.1 L4.8,11.6 C1.7,10.5 0.1,7.1 1.3,4 L1.3,4 C2.4,0.9 5.8,-0.7 8.9,0.5 L439.7,159 C442.8,160.1 444.4,163.5 443.2,166.6 L443.2,166.6 C442.1,169.6 438.7,171.2 435.6,170.1 Z"></path>
                        <path d="M435.6,0.4 L4.8,158.9 C1.7,160 0.1,163.4 1.3,166.5 L1.3,166.5 C2.4,169.6 5.8,171.2 8.9,170 L439.7,11.5 C442.8,10.4 444.4,7 443.2,3.9 L443.2,3.9 C442.1,0.9 438.7,-0.7 435.6,0.4 Z"></path>
                    </g>
                    <path d="M256.9,102.6 C258.4,28.8 177.3,0.1 177.3,0.1 C177.3,0.1 193.9,26.5 192.9,63.1 C192.9,63.1 181.6,45.7 156.5,42.2 C131.3,38.7 106.9,47.5 106.9,47.5 C136.2,76.3 139.6,89.8 145,116.9 C110.8,115.4 101.1,122.2 85.4,139.9 C116.2,134.5 129.1,138.3 139.6,154.1 C128.5,158.1 116.7,164.2 103.9,172.7 C129.1,168.2 141.4,175.5 157.5,186.9 L222.6,109.2 L256.9,102.6 Z" id="Path" fill="#0F1923" fill-rule="nonzero"></path>
                    <path d="M306.3,132 C300.4,133 369.8,117.8 369.8,117.8 C326.9,106.1 312.5,100.2 267.4,97 L267.6,128.5 L279.4,184.8 L328.6,170.5 L304.7,158.1 L356.5,153.9 C359.5,151.4 315,130.5 306.3,132 Z" id="Path" fill="#0F1923" fill-rule="nonzero"></path>
                    <path d="M401.7,331.1 L391.1,321.8 C383.3,314.9 364.7,302.8 361.6,292.8 C360,287.6 362.3,280 360.5,274 C358.9,268.5 356.3,263.3 353.7,258.2 C344.3,239.5 335,220.7 325.6,202 C319.8,190.4 313.3,177.5 302.3,170 C296.9,166.3 294.7,166.9 293.1,160.7 C292.3,157.3 293.6,152.2 293.7,148.6 C293.7,109.1 261.7,77.1 222.2,77.1 L222.2,77.1 C222.2,77.1 222.2,77.1 222.2,77.1 C222.2,77.1 222.2,77.1 222.2,77.1 L222.2,77.1 C182.7,77.1 150.7,109.1 150.7,148.6 C150.7,152.2 152.1,157.2 151.3,160.7 C149.8,166.9 147.6,166.2 142.1,170 C131.1,177.5 124.6,190.4 118.8,202 C109.4,220.7 100.1,239.5 90.7,258.2 C88.1,263.3 85.5,268.5 83.9,274 C82.1,280 84.4,287.6 82.8,292.8 C79.7,302.9 61.1,314.9 53.3,321.8 L42.7,331.1 C32.5,340.1 38.9,356.900442 52.5,356.900442 L163.2,356.900442 C173.1,343.4 195.8,333.9 222.1,333.9 C248.4,333.9 271.1,343.4 281,356.900442 L391.7,356.900442 C405.5,357 411.9,340.1 401.7,331.1 Z" id="Path" stroke="#0F1923" stroke-width="4" fill="#FFFFFF" fill-rule="nonzero"></path>
                    <g transform="translate(259.000000, 37.000000)">
                        <circle id="Oval" fill="#0F1923" fill-rule="nonzero" cx="14.6" cy="6" r="5.5"></circle>
                        <path d="M6.7,54.5 L1.5,51.4 C0.4,50.7 0.1,49.3 0.7,48.2 L0.7,48.2 C1.4,47.1 2.8,46.8 3.9,47.4 L9.1,50.5 C10.2,51.2 10.5,52.6 9.9,53.7 L9.9,53.7 C9.2,54.8 7.8,55.2 6.7,54.5 Z" id="Path" fill="#0F1923"></path>
                        <polyline id="Path" stroke="#0F1923" stroke-width="3" points="5.3 50.9 22.3 38.5 0.2 26.3 15.3 21.8 14.6 6"></polyline>
                    </g>
                    <g transform="translate(174.000000, 172.000000)" fill="#0F1923" fill-rule="nonzero" id="Path" stroke="#0F1923" stroke-width="2">
                        <path d="M12.6,3.1 L1.4,3.1 C0.6,3.1 -2.27373675e-13,2.5 -2.27373675e-13,1.7 L-2.27373675e-13,1.7 C-2.27373675e-13,0.9 0.6,0.3 1.4,0.3 L12.6,0.3 C13.4,0.3 14,0.9 14,1.7 L14,1.7 C14,2.5 13.4,3.1 12.6,3.1 Z"></path>
                        <path d="M4.4,9.4 L1.6,9.4 C0.7,9.4 2.27373675e-13,8.7 2.27373675e-13,7.8 L2.27373675e-13,7.8 C2.27373675e-13,6.9 0.7,6.2 1.6,6.2 L4.4,6.2 C5.3,6.2 6,6.9 6,7.8 L6,7.8 C6,8.7 5.3,9.4 4.4,9.4 Z"></path>
                    </g>
                    <g transform="translate(245.000000, 172.000000)" fill="#0F1923" fill-rule="nonzero" id="Path" stroke="#0F1923" stroke-width="2">
                        <path d="M8.7,3.1 L1.7,3.1 C0.9,3.1 0.3,2.5 0.3,1.7 L0.3,1.7 C0.3,0.9 0.9,0.3 1.7,0.3 L8.7,0.3 C9.5,0.3 10.1,0.9 10.1,1.7 L10.1,1.7 C10.1,2.5 9.5,3.1 8.7,3.1 Z"></path>
                        <path d="M23,3.1 L16,3.1 C15.2,3.1 14.6,2.5 14.6,1.7 L14.6,1.7 C14.6,0.9 15.2,0.3 16,0.3 L23,0.3 C23.8,0.3 24.4,0.9 24.4,1.7 L24.4,1.7 C24.4,2.5 23.8,3.1 23,3.1 Z"></path>
                        <path d="M22.9,9.4 L20.1,9.4 C19.2,9.4 18.5,8.7 18.5,7.8 L18.5,7.8 C18.5,6.9 19.2,6.2 20.1,6.2 L22.9,6.2 C23.8,6.2 24.5,6.9 24.5,7.8 L24.5,7.8 C24.4,8.7 23.7,9.4 22.9,9.4 Z"></path>
                    </g>
                    <g transform="translate(159.000000, 115.000000)">
                        <g>
                            <path d="M105.7,51.3 L19.3,51.3 C12.4,51.3 6.8,45.7 6.8,38.8 L6.8,32.2 C6.8,14.5 21.1,0.2 38.8,0.2 L86.1,0.2 C103.8,0.2 118.1,14.5 118.1,32.2 L118.1,38.8 C118.1,45.8 112.6,51.3 105.7,51.3 Z" id="Path" stroke="#0F1923" stroke-width="3" fill="#0F1923"></path>
                            <path d="M111.6,51.3 L25.2,51.3 C18.3,51.3 12.7,45.7 12.7,38.8 L12.7,32.2 C12.7,14.5 27,0.2 44.7,0.2 L92,0.2 C109.7,0.2 124,14.5 124,32.2 L124,38.8 C124.1,45.8 118.5,51.3 111.6,51.3 Z" id="Path" stroke="#0F1923" stroke-width="3"></path>
                            <path d="M99.7,51.3 L13.3,51.3 C6.4,51.3 0.8,45.7 0.8,38.8 L0.8,32.2 C0.8,14.5 15.1,0.2 32.8,0.2 L80.1,0.2 C97.8,0.2 112.1,14.5 112.1,32.2 L112.1,38.8 C112.2,45.8 106.6,51.3 99.7,51.3 Z" id="Path" stroke="#0F1923" stroke-width="3"></path>
                            <g transform="translate(32.000000, 16.000000)" fill="#FFFFFF" id="Oval">
                                <circle cx="50.9" cy="9.8" r="9.4"></circle>
                                <circle cx="10" cy="9.8" r="9.4"></circle>
                            </g>
                        </g>
                        <path d="M52.6,23.2 L33.4,18.8 C31.5,18.4 30.4,16.5 30.8,14.6 L31.2,13.1 C31.6,11.2 33.5,10.1 35.4,10.5 L54.6,14.9 C56.5,15.3 57.6,17.2 57.2,19.1 L56.8,20.6 C56.3,22.4 54.4,23.6 52.6,23.2 Z" id="Path" fill="#0F1923" fill-rule="nonzero"></path>
                    </g>
                    <g transform="translate(197.000000, 66.000000)" fill="#0F1923" fill-rule="nonzero" id="Path">
                        <g transform="translate(0.000000, 11.000000)">
                            <path d="M23.1,0.8 C23.1,0.8 7.5,0.8 0.9,0.8 C13.9,0.8 25.3,21.9 25.3,21.9 L23.1,0.8 Z"></path>
                            <path d="M27.5,0.8 C27.5,0.8 43.1,0.8 49.7,0.8 C36.7,0.8 25.3,21.9 25.3,21.9 L27.5,0.8 Z"></path>
                        </g>
                        <polygon points="10.5 3.6 25.3 32.9 38.5 0.8"></polygon>
                    </g>
                    <g transform="translate(298.000000, 338.000000)" fill="#0F1923" fill-rule="nonzero">
                        <circle id="Oval" cx="15" cy="4.2" r="4.2"></circle>
                        <path d="M21.6,5.3 L1.3,5.3 C0.7,5.3 0.3,4.8 0.3,4.3 L0.3,4.3 C0.3,3.7 0.8,3.3 1.3,3.3 L21.6,3.3 C22.2,3.3 22.6,3.8 22.6,4.3 L22.6,4.3 C22.7,4.8 22.2,5.3 21.6,5.3 Z" id="Path"></path>
                    </g>
                    <g transform="translate(142.000000, 166.000000)" id="Path" stroke="#0F1923">
                        <g transform="translate(68.000000, 92.000000)" stroke-width="3">
                            <path d="M24,50.8 C20.2,51 16.3,51.1 12.3,51.1 C8.3,51.1 4.4,51 0.6,50.8"></path>
                            <path d="M0.4,25.7 C4.3,25.9 8.3,26 12.3,26 C16.3,26 20.3,25.9 24.2,25.7"></path>
                            <path d="M3.5,0.6 C6.4,0.7 9.3,0.8 12.3,0.8 C15.3,0.8 18.2,0.7 21.1,0.6"></path>
                        </g>
                        <g stroke-width="4">
                            <path d="M88.6,167.6 C94.5,138.2 93.6,107.4 85.8,78.5 C83.2,68.8 79.8,59 80.3,48.9 C80.7,38.8 86.2,28.2 95.8,25.2 C104.2,22.6 113,26.4 121.8,27.1 C138.5,28.5 155.4,17 160.3,0.9"></path>
                            <path d="M71.9,167.6 C66,138.2 66.9,107.4 74.7,78.5 C77.3,68.8 80.7,59 80.2,48.9 C79.8,38.8 74.3,28.2 64.7,25.2 C56.3,22.6 47.5,26.4 38.7,27.1 C22,28.5 5.1,17 0.2,0.9"></path>
                        </g>
                    </g>
                    <g transform="translate(118.000000, 210.000000)" fill="#000000" fill-rule="nonzero" id="Path">
                        <g transform="translate(126.000000, 0.000000)">
                            <path d="M0,1.7 C4,2.3 8,3 11.4,4.3 C12.3,4.6 13.1,5 13.9,5.5 C14.7,5.9 15.4,6.4 16,6.9 C16.6,7.4 17.2,8 17.7,8.6 C18.2,9.2 18.6,9.8 19,10.5 C21.1,11.8 22.8,13.8 23.1,16.4 C23.2,17.1 23.2,17.8 23.1,18.6 C23.1,18.8 23.1,19 23,19.3 L22.9,20 L22.7,21.4 C22.4,23.2 22.3,25 22.5,26.7 C22.6,27.2 22.7,27.8 22.9,28.3 L23.2,29.1 C23.3,29.3 23.4,29.6 23.6,29.8 L23.5,29 L23.5,28.2 C23.5,27.6 23.6,27.1 23.8,26.5 C24.3,24.8 25.1,23.3 25.9,21.9 L26.5,20.9 L26.8,20.4 C26.9,20.2 27,20.1 27.1,19.9 C27.5,19.1 27.9,18.2 28.2,17.2 C28.8,15.2 28.9,12.8 28.3,10.6 C27.8,8.4 26.8,6.3 25.5,4.5 C24.5,3.7 23.4,3 22.3,2.4 C21.2,1.8 20.1,1.4 18.9,1 C17.7,0.7 16.6,0.4 15.5,0.3 C14.4,0.2 13.3,0.1 12.2,0.1 C7.8,-0.1 3.9,0.8 0,1.7 Z"></path>
                            <path d="M29.2,9.1 C29.7,10.9 30,12.9 29.8,14.8 C29.6,16.7 29,18.4 28.4,19.8 L28.2,20.3 L28,20.6 L27.6,21.3 C27.3,21.8 27,22.2 26.7,22.8 C26.1,23.8 25.6,24.9 25.2,26.1 C24.9,27.3 24.8,28.5 25,29.7 C25.2,30.9 25.7,32.1 26.4,33.1 C28.1,34.2 30,34.8 31.8,35.1 C33.6,35.4 35.4,35.3 37.1,35.1 C37.5,35 37.9,35 38.3,34.9 L39.7,34.7 L42.6,34.2 C44.6,33.8 46.7,33.5 49,33.3 C46.8,32.7 44.6,32.3 42.6,32 C41.6,31.8 40.6,31.6 39.8,31.4 C39.3,31.3 38.9,31.2 38.5,31.1 C38.2,31 38,30.9 37.8,30.8 C35.9,29.9 34.7,28.6 34.4,27.1 C33.3,26.8 32.3,26.1 31.8,25 C31.6,24.5 31.5,23.9 31.4,23.2 C31.4,22.9 31.4,22.5 31.3,22.2 L31.3,21.7 L31.3,21.4 L31.4,20.8 C31.6,19.1 31.8,17.1 31.4,14.9 C31,12.7 30.2,10.8 29.2,9.1 Z"></path>
                            <path d="M35.9,27.4 C36.2,28 36.7,28.5 37.4,29 C37.6,29.1 37.7,29.2 37.9,29.3 C38,29.4 38.1,29.4 38.2,29.5 L38.4,29.6 C38.4,29.6 38.6,29.7 38.7,29.7 C39.5,29.9 40.4,30.1 41.4,30.3 C43.3,30.7 45.4,31 47.7,31.5 C48.8,31.8 50,32.1 51.2,32.5 C51.8,32.7 52.4,32.9 53,33.1 C53.6,33.4 54.2,33.6 54.8,33.9 C55.1,34 55.5,34 55.8,34.1 L56.7,34.4 C57.3,34.6 58,34.7 58.6,35 C59.8,35.5 61.1,35.9 62.2,36.6 C64.6,37.8 66.7,39.5 68.6,41.3 L70,42.8 C70.5,43.3 70.9,43.8 71.3,44.4 C72.2,45.4 72.9,46.6 73.6,47.8 C75,50.2 76.2,52.8 76.9,55.6 C76.9,52.6 76.4,49.8 75.7,46.9 C75.3,45.5 74.8,44.1 74.2,42.7 C73.9,42 73.6,41.3 73.3,40.6 C72.9,39.9 72.6,39.3 72.2,38.6 C70.6,36 68.7,33.4 66.2,31.2 C65,30 63.6,29.1 62.2,28 C61.5,27.5 60.7,27.1 59.9,26.7 L58.7,26.1 C58.3,25.9 57.9,25.7 57.5,25.5 C56.6,25.3 55.7,25.2 54.8,25 C54,24.9 53.1,24.8 52.4,24.8 C50.8,24.7 49.4,24.8 48,24.9 C46.6,25 45.5,25.2 44.3,25.3 C43.2,25.5 42.2,25.7 41.2,25.9 L38.7,26.4 L38.6,26.4 L38.5,26.4 C38.5,26.4 38.5,26.4 38.5,26.4 L38.4,26.5 L38.2,26.6 C38.1,26.7 38,26.8 37.8,26.8 C37.4,27.1 36.7,27.4 35.9,27.4 Z"></path>
                            <path d="M19.9,12.7 C20.1,13.6 20,14.3 19.8,14.9 L19.7,15.1 L19.6,15.3 L19.5,15.5 L19.4,15.7 C19.2,16 19,16.3 18.8,16.8 L18.6,17.1 L18.5,17.3 C18.5,17.4 18.4,17.4 18.4,17.6 L17.7,19 C17.2,20 16.8,20.9 16.4,21.9 C15.6,23.9 15.1,25.9 14.9,28.1 C14.8,29.8 14.9,31.6 15.4,33.4 C15.8,35.1 16.6,36.8 17.5,38.4 C18,39 18.7,39.5 19.3,40 C19.9,40.5 20.6,40.9 21.2,41.3 C22.5,42.1 23.9,42.8 25.4,43.3 C28.3,44.4 31.4,44.9 34.4,44.9 C35.1,44.9 35.9,44.9 36.6,44.8 L37.7,44.7 L38,44.7 L38.2,44.7 L38.6,44.6 C39.7,44.4 40.8,44.3 41.8,44.1 C43.8,43.7 45.6,43.3 47.4,43.1 C45.7,42.6 43.8,42.2 41.8,41.9 C40.8,41.7 39.8,41.5 38.7,41.3 L37,40.9 C36.4,40.8 35.8,40.6 35.3,40.5 C33,39.9 31,38.9 29.2,37.7 C28.3,37.1 27.5,36.4 26.8,35.7 C26.4,35.3 26.1,34.9 25.8,34.5 C25.5,34.1 25.2,33.7 24.9,33.2 C23.9,32.4 23.1,31.5 22.4,30.4 C21.8,29.3 21.4,28.1 21.2,26.9 C21,25.4 21.1,23.9 21.2,22.3 C21.3,21.5 21.4,20.7 21.6,19.9 L21.8,18.6 C21.8,18.2 21.9,18 21.9,17.6 C22,16.4 21.7,15.5 21.4,14.8 C21,14 20.5,13.3 19.9,12.7 Z"></path>
                            <path d="M21.9,43 C24.3,45.1 27.2,46.8 30.4,48 C32,48.6 33.7,49 35.5,49.4 C35.9,49.5 36.4,49.6 36.8,49.6 C37.2,49.7 37.8,49.7 38,49.8 L39.8,50.1 C40.9,50.3 42,50.5 42.9,50.7 C43.9,50.9 44.7,51.1 45.5,51.3 C46.3,51.5 46.9,51.7 47.4,52 C47.9,52.2 48.3,52.5 48.5,52.7 C48.6,52.7 48.7,52.6 48.8,52.5 L49,52.4 L49.2,52.4 L49.7,52.3 C49.9,52.3 50,52.3 50.2,52.3 C50.3,52.3 50.4,52.3 50.5,52.3 L50.8,52.3 C51,52.3 51.2,52.3 51.4,52.4 C51.8,52.5 52.2,52.6 52.7,52.9 C53.6,53.3 54.4,53.9 55.2,54.6 C55.4,54.8 55.6,55 55.8,55.2 C56,55.4 56.1,55.6 56.3,55.8 C56.7,56.2 56.9,56.7 57.3,57.2 C57.3,56.6 57.4,56.1 57.4,55.5 C57.4,55.2 57.4,54.9 57.4,54.6 L57.3,53.7 C57.1,52.5 56.7,51.2 56.1,50 C55,47.5 53.1,45.5 50.7,44.1 C47.7,44.2 44.4,45.1 40,45.8 C39.5,45.9 38.9,46 38.3,46 C38.1,46 37.6,46.1 37.2,46.1 C36.8,46.1 36.4,46.1 36,46.2 C34.4,46.3 32.8,46.2 31.3,46 C28,45.5 24.8,44.6 21.9,43 Z"></path>
                            <path d="M29.6,36 C31.2,37.2 33,38.1 35,38.7 C36,39 37.1,39.3 38.1,39.5 C39.1,39.7 40.1,39.9 41.1,40.1 C43.1,40.5 45,40.8 46.8,41.3 C47.7,41.5 48.5,41.8 49.3,42.1 C49.7,42.3 50.1,42.4 50.4,42.6 C50.8,42.8 51.1,43 51.4,43.2 C52.2,43.2 52.9,43.4 53.7,43.5 C54.1,43.6 54.5,43.7 54.9,43.8 L55.5,44 C55.7,44.1 55.9,44.2 56.1,44.3 L57.3,44.8 L58.4,45.5 C58.6,45.6 58.8,45.7 59,45.8 L59.5,46.2 C59.9,46.5 60.2,46.7 60.6,47 C63.3,49.4 65.7,52.6 67,56.4 C67.2,52.4 66.2,48.1 64.1,44.3 C63.8,43.8 63.5,43.4 63.2,42.9 L62.8,42.2 C62.6,42 62.5,41.8 62.3,41.5 L61.2,40.1 L60,38.8 C59.8,38.6 59.6,38.4 59.4,38.2 L58.7,37.6 C58.2,37.2 57.8,36.8 57.3,36.5 C56.3,35.9 55.3,35.1 54.1,34.6 C53.5,34.5 52.9,34.4 52.3,34.4 C51.7,34.4 51.1,34.3 50.5,34.4 C49.3,34.4 48.2,34.5 47.1,34.6 C44.9,34.8 42.9,35.3 41,35.6 C40,35.8 39.1,36 38.1,36.1 C37.2,36.2 36.3,36.4 35.4,36.4 C33.7,36.7 31.6,36.6 29.6,36 Z"></path>
                        </g>
                        <g>
                            <path d="M77.1,1.7 C73.1,2.3 69.1,3 65.7,4.3 C64.8,4.6 64,5 63.2,5.5 C62.4,5.9 61.7,6.4 61.1,6.9 C60.5,7.4 59.9,8 59.4,8.6 C58.9,9.2 58.5,9.8 58.1,10.5 C56,11.8 54.3,13.8 54,16.4 C53.9,17.1 53.9,17.8 54,18.6 C54,18.8 54,19 54.1,19.3 L54.2,20 L54.4,21.4 C54.7,23.2 54.8,25 54.6,26.7 C54.5,27.2 54.4,27.8 54.2,28.3 L53.9,29.1 C53.8,29.3 53.7,29.6 53.5,29.8 L53.6,29 L53.6,28.2 C53.6,27.6 53.5,27.1 53.3,26.5 C52.8,24.8 52,23.3 51.2,21.9 L50.6,20.9 L50.3,20.4 C50.2,20.2 50.1,20.1 50,19.9 C49.6,19.1 49.2,18.2 48.9,17.2 C48.3,15.2 48.2,12.8 48.8,10.6 C49.3,8.4 50.3,6.3 51.6,4.5 C52.6,3.7 53.7,3 54.8,2.4 C55.9,1.8 57,1.4 58.2,1 C59.4,0.7 60.5,0.4 61.6,0.3 C62.7,0.2 63.8,0.1 64.9,0.1 C69.2,-0.1 73.2,0.8 77.1,1.7 Z"></path>
                            <path d="M47.8,9.1 C47.3,10.9 47,12.9 47.2,14.8 C47.4,16.7 48,18.4 48.6,19.8 L48.8,20.3 L49,20.6 L49.4,21.3 C49.7,21.8 50,22.2 50.3,22.8 C50.9,23.8 51.4,24.9 51.8,26.1 C52.1,27.3 52.2,28.5 52,29.7 C51.8,30.9 51.3,32.1 50.6,33.1 C48.9,34.2 47,34.8 45.2,35.1 C43.4,35.4 41.6,35.3 39.9,35.1 C39.5,35 39.1,35 38.7,34.9 L37.3,34.7 L34.4,34.2 C32.4,33.8 30.3,33.5 28,33.3 C30.2,32.7 32.4,32.3 34.4,32 C35.4,31.8 36.4,31.6 37.2,31.4 C37.7,31.3 38.1,31.2 38.5,31.1 C38.8,31 39,30.9 39.2,30.8 C41.1,29.9 42.3,28.6 42.6,27.1 C43.7,26.8 44.7,26.1 45.2,25 C45.4,24.5 45.5,23.9 45.6,23.2 C45.6,22.9 45.6,22.5 45.7,22.2 L45.7,21.7 L45.7,21.4 L45.6,20.8 C45.4,19.1 45.2,17.1 45.6,14.9 C46.1,12.7 46.8,10.8 47.8,9.1 Z"></path>
                            <path d="M41.1,27.4 C40.8,28 40.3,28.5 39.6,29 C39.4,29.1 39.3,29.2 39.1,29.3 C39,29.4 38.9,29.4 38.8,29.5 L38.6,29.6 C38.6,29.6 38.4,29.7 38.3,29.7 C37.5,29.9 36.6,30.1 35.6,30.3 C33.7,30.7 31.6,31 29.3,31.5 C28.2,31.8 27,32.1 25.8,32.5 C25.2,32.7 24.6,32.9 24,33.1 C23.4,33.4 22.8,33.6 22.2,33.9 C21.9,34 21.5,34 21.2,34.1 L20.3,34.4 C19.7,34.6 19,34.7 18.4,35 C17.2,35.5 15.9,35.9 14.8,36.6 C12.4,37.8 10.3,39.5 8.4,41.3 L7,42.8 C6.5,43.3 6.1,43.8 5.7,44.4 C4.8,45.4 4.1,46.6 3.4,47.8 C2,50.2 0.8,52.8 0.1,55.6 C0.1,52.6 0.6,49.8 1.3,46.9 C1.7,45.5 2.2,44.1 2.8,42.7 C3.1,42 3.4,41.3 3.7,40.6 C4.1,39.9 4.4,39.3 4.8,38.6 C6.4,36 8.3,33.4 10.8,31.2 C12,30 13.4,29.1 14.8,28 C15.5,27.5 16.3,27.1 17.1,26.7 L18.3,26.1 C18.7,25.9 19.1,25.7 19.5,25.5 C20.4,25.3 21.3,25.2 22.2,25 C23,24.9 23.9,24.8 24.6,24.8 C26.2,24.7 27.6,24.8 29,24.9 C30.4,25 31.5,25.2 32.7,25.3 C33.8,25.5 34.8,25.7 35.8,25.9 L38.3,26.4 L38.4,26.4 L38.5,26.4 C38.5,26.4 38.5,26.4 38.5,26.4 L38.6,26.5 L38.8,26.6 C38.9,26.7 39,26.8 39.2,26.8 C39.6,27.1 40.3,27.4 41.1,27.4 Z"></path>
                            <path d="M57.2,12.7 C57,13.6 57.1,14.3 57.3,14.9 L57.4,15.1 L57.5,15.3 L57.6,15.5 L57.7,15.7 C57.9,16 58.1,16.3 58.3,16.8 L58.5,17.1 L58.6,17.3 C58.6,17.4 58.7,17.4 58.7,17.6 L59.4,19 C59.9,20 60.3,20.9 60.7,21.9 C61.5,23.9 62,25.9 62.2,28.1 C62.3,29.8 62.2,31.6 61.7,33.4 C61.3,35.1 60.5,36.8 59.6,38.4 C59.1,39 58.4,39.5 57.8,40 C57.2,40.5 56.5,40.9 55.9,41.3 C54.6,42.1 53.2,42.8 51.7,43.3 C48.8,44.4 45.7,44.9 42.7,44.9 C42,44.9 41.2,44.9 40.5,44.8 L39.4,44.7 L39.1,44.7 L38.9,44.7 L38.5,44.6 C37.4,44.4 36.3,44.3 35.3,44.1 C33.3,43.7 31.5,43.3 29.7,43.1 C31.4,42.6 33.3,42.2 35.3,41.9 C36.3,41.7 37.3,41.5 38.4,41.3 L40.1,40.9 C40.7,40.8 41.3,40.6 41.8,40.5 C44.1,39.9 46.1,38.9 47.9,37.7 C48.8,37.1 49.6,36.4 50.3,35.7 C50.7,35.3 51,34.9 51.3,34.5 C51.6,34.1 51.9,33.7 52.2,33.2 C53.2,32.4 54,31.5 54.7,30.4 C55.3,29.3 55.7,28.1 55.9,26.9 C56.1,25.4 56,23.9 55.9,22.3 C55.8,21.5 55.7,20.7 55.5,19.9 L55.3,18.6 C55.3,18.2 55.2,18 55.2,17.6 C55.1,16.4 55.4,15.5 55.7,14.8 C56.1,14 56.6,13.3 57.2,12.7 Z"></path>
                            <path d="M55.2,43 C52.8,45.1 49.9,46.8 46.7,48 C45.1,48.6 43.4,49 41.6,49.4 C41.2,49.5 40.7,49.6 40.3,49.6 C39.9,49.7 39.3,49.7 39.1,49.8 L37.3,50.1 C36.2,50.3 35.1,50.5 34.2,50.7 C33.2,50.9 32.4,51.1 31.6,51.3 C30.8,51.5 30.2,51.7 29.7,52 C29.2,52.2 28.8,52.5 28.6,52.7 C28.5,52.7 28.4,52.6 28.3,52.5 L28.1,52.4 L27.9,52.4 L27.4,52.3 C27.2,52.3 27.1,52.3 26.9,52.3 C26.8,52.3 26.7,52.3 26.6,52.3 L26.3,52.3 C26.1,52.3 25.9,52.3 25.7,52.4 C25.3,52.5 24.9,52.6 24.4,52.9 C23.5,53.3 22.7,53.9 21.9,54.6 C21.7,54.8 21.5,55 21.3,55.2 C21.1,55.4 21,55.6 20.8,55.8 C20.4,56.2 20.2,56.7 19.8,57.2 C19.8,56.6 19.7,56.1 19.7,55.5 C19.7,55.2 19.7,54.9 19.7,54.6 L19.8,53.7 C20,52.5 20.4,51.2 21,50 C22.1,47.5 24,45.5 26.4,44.1 C29.4,44.2 32.7,45.1 37.1,45.8 C37.6,45.9 38.2,46 38.8,46 C39,46 39.5,46.1 39.9,46.1 C40.3,46.1 40.7,46.1 41.1,46.2 C42.7,46.3 44.3,46.2 45.8,46 C49.1,45.5 52.3,44.6 55.2,43 Z"></path>
                            <path d="M47.4,36 C45.8,37.2 44,38.1 42,38.7 C41,39 39.9,39.3 38.9,39.5 C37.9,39.7 36.9,39.9 35.9,40.1 C33.9,40.5 32,40.8 30.2,41.3 C29.3,41.5 28.5,41.8 27.7,42.1 C27.3,42.3 26.9,42.4 26.6,42.6 C26.2,42.8 25.9,43 25.6,43.2 C24.8,43.2 24.1,43.4 23.3,43.5 C22.9,43.6 22.5,43.7 22.1,43.8 L21.5,44 C21.3,44.1 21.1,44.2 20.9,44.3 L19.7,44.8 L18.6,45.5 C18.4,45.6 18.2,45.7 18,45.8 L17.5,46.2 C17.1,46.5 16.8,46.7 16.4,47 C13.7,49.4 11.3,52.6 10,56.4 C9.8,52.4 10.8,48.1 12.9,44.3 C13.2,43.8 13.5,43.4 13.8,42.9 L14.2,42.2 C14.4,42 14.5,41.8 14.7,41.5 L15.8,40.1 L17,38.8 C17.2,38.6 17.4,38.4 17.6,38.2 L18.3,37.6 C18.8,37.2 19.2,36.8 19.7,36.5 C20.7,35.9 21.7,35.1 22.9,34.6 C23.5,34.5 24.1,34.4 24.7,34.4 C25.3,34.4 25.9,34.3 26.5,34.4 C27.7,34.4 28.8,34.5 29.9,34.6 C32.1,34.8 34.1,35.3 36,35.6 C37,35.8 37.9,36 38.9,36.1 C39.8,36.2 40.7,36.4 41.6,36.4 C43.4,36.7 45.4,36.6 47.4,36 Z"></path>
                        </g>
                    </g>
                    <g transform="translate(64.000000, 304.000000)" fill-rule="nonzero">
                        <path d="M23.3,9.5 L8.7,22.5 C6.7,24.3 3.6,24.1 1.8,22.1 L1.8,22.1 C0,20.1 0.2,17 2.2,15.2 L16.8,2.2 C18.8,0.4 21.9,0.6 23.7,2.6 L23.7,2.6 C25.5,4.6 25.3,7.7 23.3,9.5 Z" id="Path" stroke="#0F1923" stroke-width="3" fill="#FFFFFF"></path>
                        <circle id="Oval" fill="#0F1923" cx="6.8" cy="17.8" r="1.8"></circle>
                        <circle id="Oval" fill="#0F1923" cx="10.6" cy="14.5" r="1.8"></circle>
                        <circle id="Oval" fill="#0F1923" cx="18" cy="7.8" r="1.8"></circle>
                    </g>
                </g>
            </g>
        </g>
    </g>
</svg>