<?xml version="1.0" encoding="UTF-8"?>
<svg width="219px" height="335px" viewBox="0 0 219 335" version="1.1" xmlns="http://www.w3.org/2000/svg" xmlns:xlink="http://www.w3.org/1999/xlink">
    <title>JOJO</title>
    <g id="Page-1" stroke="none" stroke-width="1" fill="none" fill-rule="evenodd">
        <g id="Group" transform="translate(-312.000000, 0.000000)">
            <g id="JOJO" transform="translate(314.000000, 0.000000)">
                <g id="Group" transform="translate(88.000000, 0.000000)">
                    <circle id="Oval" fill="#0F1923" fill-rule="nonzero" cx="15.8" cy="7.5" r="7.2"></circle>
                    <path d="M0.8,78.5 C1.7,78.2 15.1,68.7 15.1,68.7 L5.3,54.4 L19.7,45.3 L8.5,37 L16.9,27.2 L16.2,12.9" id="Path" stroke="#0F1923" stroke-width="4"></path>
                </g>
                <g id="Group" transform="translate(0.000000, 53.000000)" fill-rule="nonzero" stroke="#0F1923">
                    <path d="M182.6,262.6 L89.2,262.6 C71.6,262.6 57.4,248.4 57.4,230.8 L57.4,50.5 C57.4,32.9 71.6,18.7 89.2,18.7 L182.6,18.7 C200.2,18.7 214.4,32.9 214.4,50.5 L214.4,230.9 C214.4,248.4 200.1,262.6 182.6,262.6 Z" id="Path" stroke-width="3.739" fill="#0F1923"></path>
                    <path d="M182.5,262.6 L89,262.6 C71.4,262.6 57.2,248.4 57.2,230.8 L57.2,50.4 C57.2,32.8 71.4,18.6 89,18.6 L182.5,18.6 C200.1,18.6 214.3,32.8 214.3,50.4 L214.3,230.8 C214.3,248.4 200,262.6 182.5,262.6 Z" id="Path" stroke-width="3.7399" fill="#101924"></path>
                    <path d="M182.3,262.7 L88.8,262.7 C71.2,262.7 57,248.5 57,230.9 L57,50.4 C57,32.8 71.2,18.6 88.8,18.6 L182.3,18.6 C199.9,18.6 214.1,32.8 214.1,50.4 L214.1,230.9 C214.1,248.5 199.9,262.7 182.3,262.7 Z" id="Path" stroke-width="3.7407" fill="#101A24"></path>
                    <path d="M182.2,262.8 L88.6,262.8 C71,262.8 56.8,248.6 56.8,231 L56.8,50.3 C56.8,32.7 71,18.5 88.6,18.5 L182.2,18.5 C199.8,18.5 214,32.7 214,50.3 L214,230.9 C214,248.5 199.8,262.8 182.2,262.8 Z" id="Path" stroke-width="3.7416" fill="#111B25"></path>
                    <path d="M182.1,262.8 L88.5,262.8 C70.9,262.8 56.7,248.5 56.7,231 L56.7,50.3 C56.7,32.7 71,18.5 88.5,18.5 L182.1,18.5 C199.7,18.5 213.9,32.8 213.9,50.3 L213.9,231 C213.9,248.6 199.7,262.8 182.1,262.8 Z" id="Path" stroke-width="3.7425" fill="#121B25"></path>
                    <path d="M181.9,262.9 L88.2,262.9 C70.6,262.9 56.3,248.6 56.3,231 L56.3,50.2 C56.3,32.6 70.6,18.3 88.2,18.3 L181.9,18.3 C199.5,18.3 213.8,32.6 213.8,50.2 L213.8,231 C213.8,248.6 199.5,262.9 181.9,262.9 Z" id="Path" stroke-width="3.7433" fill="#131C26"></path>
                    <path d="M181.8,262.9 L88.1,262.9 C70.5,262.9 56.2,248.6 56.2,231 L56.2,50.2 C56.2,32.6 70.5,18.3 88.1,18.3 L181.8,18.3 C199.4,18.3 213.7,32.6 213.7,50.2 L213.7,231.1 C213.7,248.7 199.4,262.9 181.8,262.9 Z" id="Path" stroke-width="3.7442" fill="#131C26"></path>
                    <path d="M181.7,263 L88,263 C70.4,263 56.1,248.7 56.1,231.1 L56.1,50.1 C56.1,32.5 70.4,18.2 88,18.2 L181.7,18.2 C199.3,18.2 213.6,32.5 213.6,50.1 L213.6,231.1 C213.6,248.7 199.3,263 181.7,263 Z" id="Path" stroke-width="3.7451" fill="#141D27"></path>
                    <path d="M181.6,263 L87.8,263 C70.2,263 55.9,248.7 55.9,231.1 L55.9,50.1 C55.9,32.5 70.2,18.2 87.8,18.2 L181.6,18.2 C199.2,18.2 213.5,32.5 213.5,50.1 L213.5,231.1 C213.5,248.8 199.2,263 181.6,263 Z" id="Path" stroke-width="3.7459" fill="#151D27"></path>
                    <path d="M181.4,263.1 L87.6,263.1 C70,263.1 55.7,248.8 55.7,231.2 L55.7,50.1 C55.7,32.5 70,18.2 87.6,18.2 L181.4,18.2 C199,18.2 213.3,32.5 213.3,50.1 L213.3,231.2 C213.3,248.8 199.1,263.1 181.4,263.1 Z" id="Path" stroke-width="3.7468" fill="#151E28"></path>
                    <path d="M181.3,263.2 L87.4,263.2 C69.8,263.2 55.5,248.9 55.5,231.3 L55.5,50 C55.5,32.4 69.8,18.1 87.4,18.1 L181.3,18.1 C198.9,18.1 213.2,32.4 213.2,50 L213.2,231.2 C213.2,248.9 198.9,263.2 181.3,263.2 Z" id="Path" stroke-width="3.7477" fill="#161E28"></path>
                    <path d="M181.2,263.2 L87.3,263.2 C69.7,263.2 55.4,248.9 55.4,231.3 L55.4,50 C55.4,32.4 69.7,18.1 87.3,18.1 L181.2,18.1 C198.8,18.1 213.1,32.4 213.1,50 L213.1,231.3 C213.1,248.9 198.8,263.2 181.2,263.2 Z" id="Path" stroke-width="3.7485" fill="#171F28"></path>
                    <path d="M181,263.3 L87,263.3 C69.3,263.3 55,249 55,231.3 L55,49.9 C55,32.2 69.3,17.9 87,17.9 L181,17.9 C198.7,17.9 213,32.2 213,49.9 L213,231.3 C213,249 198.7,263.3 181,263.3 Z" id="Path" stroke-width="3.7494" fill="#171F29"></path>
                    <path d="M180.9,263.3 L86.9,263.3 C69.2,263.3 54.9,249 54.9,231.3 L54.9,49.9 C54.9,32.2 69.2,17.9 86.9,17.9 L180.9,17.9 C198.6,17.9 212.9,32.2 212.9,49.9 L212.9,231.4 C212.9,249 198.6,263.3 180.9,263.3 Z" id="Path" stroke-width="3.7503" fill="#182029"></path>
                    <path d="M180.8,263.4 L86.7,263.4 C69,263.4 54.7,249.1 54.7,231.4 L54.7,49.8 C54.7,32.1 69,17.8 86.7,17.8 L180.8,17.8 C198.5,17.8 212.8,32.1 212.8,49.8 L212.8,231.4 C212.8,249.1 198.4,263.4 180.8,263.4 Z" id="Path" stroke-width="3.7511" fill="#18202A"></path>
                    <path d="M180.6,263.4 L86.5,263.4 C68.8,263.4 54.5,249.1 54.5,231.4 L54.5,49.8 C54.5,32.1 68.8,17.8 86.5,17.8 L180.6,17.8 C198.3,17.8 212.600518,32.1 212.600518,49.8 L212.600518,231.5 C212.7,249.1 198.3,263.4 180.6,263.4 Z" id="Path" stroke-width="3.752" fill="#19212A"></path>
                    <path d="M180.5,263.5 L86.3,263.5 C68.6,263.5 54.3,249.2 54.3,231.5 L54.3,49.7 C54.3,32 68.6,17.7 86.3,17.7 L180.5,17.7 C198.2,17.7 212.5,32 212.5,49.7 L212.5,231.4 C212.5,249.2 198.2,263.5 180.5,263.5 Z" id="Path" stroke-width="3.7529" fill="#1A212B"></path>
                    <path d="M180.4,263.6 L86.2,263.6 C68.5,263.6 54.2,249.3 54.2,231.6 L54.2,49.7 C54.2,32 68.5,17.7 86.2,17.7 L180.4,17.7 C198.1,17.7 212.4,32 212.4,49.7 L212.4,231.5 C212.4,249.2 198.1,263.6 180.4,263.6 Z" id="Path" stroke-width="3.7537" fill="#1A222B"></path>
                    <path d="M180.3,263.6 L86,263.6 C68.3,263.6 53.9,249.2 53.9,231.5 L53.9,49.6 C53.9,31.9 68.3,17.5 86,17.5 L180.2,17.5 C197.9,17.5 212.3,31.9 212.3,49.6 L212.3,231.5 C212.3,249.3 198,263.6 180.3,263.6 Z" id="Path" stroke-width="3.7546" fill="#1B222C"></path>
                    <path d="M180.1,263.7 L85.8,263.7 C68.1,263.7 53.7,249.3 53.7,231.6 L53.7,49.6 C53.7,31.9 68.1,17.5 85.8,17.5 L180.1,17.5 C197.8,17.5 212.2,31.9 212.2,49.6 L212.2,231.6 C212.2,249.3 197.8,263.7 180.1,263.7 Z" id="Path" stroke-width="3.7555" fill="#1B232C"></path>
                    <path d="M180,263.7 L85.7,263.7 C68,263.7 53.6,249.3 53.6,231.6 L53.6,49.6 C53.6,31.9 68,17.5 85.7,17.5 L180,17.5 C197.7,17.5 212.1,31.9 212.1,49.6 L212.1,231.7 C212.1,249.4 197.7,263.7 180,263.7 Z" id="Path" stroke-width="3.7563" fill="#1C232D"></path>
                    <path d="M179.9,263.8 L85.5,263.8 C67.8,263.8 53.4,249.4 53.4,231.7 L53.4,49.5 C53.4,31.8 67.8,17.4 85.5,17.4 L179.9,17.4 C197.6,17.4 212,31.8 212,49.5 L212,231.7 C212,249.4 197.6,263.8 179.9,263.8 Z" id="Path" stroke-width="3.7572" fill="#1D242D"></path>
                    <path d="M179.7,263.8 L85.3,263.8 C67.6,263.8 53.2,249.4 53.2,231.7 L53.2,49.5 C53.2,31.8 67.6,17.4 85.3,17.4 L179.7,17.4 C197.4,17.4 211.800518,31.8 211.800518,49.5 L211.800518,231.8 C211.9,249.5 197.5,263.8 179.7,263.8 Z" id="Path" stroke-width="3.7581" fill="#1D242D"></path>
                    <path d="M179.6,263.9 L85.1,263.9 C67.4,263.9 53,249.5 53,231.8 L53,49.4 C53,31.7 67.4,17.3 85.1,17.3 L179.6,17.3 C197.3,17.3 211.7,31.7 211.7,49.4 L211.7,231.8 C211.7,249.5 197.4,263.9 179.6,263.9 Z" id="Path" stroke-width="3.7589" fill="#1E252E"></path>
                    <path d="M179.5,264 L85,264 C67.2,264 52.9,249.6 52.9,231.9 L52.9,49.4 C52.9,31.6 67.3,17.3 85,17.3 L179.5,17.3 C197.3,17.3 211.6,31.7 211.6,49.4 L211.6,231.8 C211.6,249.6 197.2,264 179.5,264 Z" id="Path" stroke-width="3.7598" fill="#1E252E"></path>
                    <path d="M179.4,264 L84.8,264 C67,264 52.6,249.6 52.6,231.8 L52.6,49.3 C52.6,31.5 67,17.1 84.8,17.1 L179.4,17.1 C197.2,17.1 211.6,31.5 211.6,49.3 L211.6,231.8 C211.5,249.6 197.1,264 179.4,264 Z" id="Path" stroke-width="3.7607" fill="#1F262F"></path>
                    <path d="M179.2,264.1 L84.6,264.1 C66.8,264.1 52.4,249.7 52.4,231.9 L52.4,49.3 C52.4,31.5 66.8,17.1 84.6,17.1 L179.2,17.1 C197,17.1 211.4,31.5 211.4,49.3 L211.4,231.9 C211.4,249.7 197,264.1 179.2,264.1 Z" id="Path" stroke-width="3.7615" fill="#20262F"></path>
                    <path d="M179.1,264.1 L84.5,264.1 C66.7,264.1 52.3,249.7 52.3,231.9 L52.3,49.2 C52.3,31.4 66.7,17 84.5,17 L179.1,17 C196.9,17 211.3,31.4 211.3,49.2 L211.3,231.9 C211.3,249.7 196.9,264.1 179.1,264.1 Z" id="Path" stroke-width="3.7624" fill="#202730"></path>
                    <path d="M179,264.2 L84.3,264.2 C66.5,264.2 52.1,249.8 52.1,232 L52.1,49.2 C52.1,31.4 66.5,17 84.3,17 L179,17 C196.8,17 211.2,31.4 211.2,49.2 L211.2,232 C211.2,249.8 196.8,264.2 179,264.2 Z" id="Path" stroke-width="3.7633" fill="#212730"></path>
                    <path d="M178.8,264.2 L84.1,264.2 C66.3,264.2 51.9,249.8 51.9,232 L51.9,49.1 C51.9,31.3 66.3,16.9 84.1,16.9 L178.8,16.9 C196.6,16.9 211.000514,31.3 211.000514,49.1 L211.000514,232 C211.1,249.8 196.6,264.2 178.8,264.2 Z" id="Path" stroke-width="3.7641" fill="#212831"></path>
                    <path d="M178.7,264.3 L83.9,264.3 C66.1,264.3 51.7,249.9 51.7,232.1 L51.7,49.1 C51.7,31.3 66.1,16.9 83.9,16.9 L178.7,16.9 C196.5,16.9 210.9,31.3 210.9,49.1 L210.9,232.1 C210.9,249.9 196.5,264.3 178.7,264.3 Z" id="Path" stroke-width="3.765" fill="#222831"></path>
                    <path d="M178.6,264.4 L83.8,264.4 C66,264.4 51.5,250 51.5,232.1 L51.5,49.1 C51.5,31.3 65.9,16.8 83.8,16.8 L178.6,16.8 C196.4,16.8 210.9,31.2 210.9,49.1 L210.9,232.1 C210.8,249.9 196.4,264.4 178.6,264.4 Z" id="Path" stroke-width="3.7659" fill="#222931"></path>
                    <path d="M178.4,264.4 L83.5,264.4 C65.7,264.4 51.2,250 51.2,232.1 L51.2,49 C51.2,31.2 65.6,16.7 83.5,16.7 L178.4,16.7 C196.2,16.7 210.7,31.1 210.7,49 L210.7,232.1 C210.7,250 196.3,264.4 178.4,264.4 Z" id="Path" stroke-width="3.7667" fill="#232932"></path>
                    <path d="M178.3,264.5 L83.4,264.5 C65.6,264.5 51.1,250 51.1,232.2 L51.1,49 C51.1,31.2 65.6,16.7 83.4,16.7 L178.3,16.7 C196.1,16.7 210.6,31.2 210.6,49 L210.6,232.2 C210.6,250 196.1,264.5 178.3,264.5 Z" id="Path" stroke-width="3.7676" fill="#242932"></path>
                    <path d="M178.2,264.5 L83.2,264.5 C65.4,264.5 50.9,250 50.9,232.2 L50.9,48.9 C50.9,31.1 65.4,16.6 83.2,16.6 L178.2,16.6 C196,16.6 210.5,31.1 210.5,48.9 L210.5,232.2 C210.5,250.1 196,264.5 178.2,264.5 Z" id="Path" stroke-width="3.7685" fill="#242A33"></path>
                    <path d="M178.1,264.6 L83.1,264.6 C65.3,264.6 50.8,250.1 50.8,232.3 L50.8,48.9 C50.8,31.1 65.3,16.6 83.1,16.6 L178.1,16.6 C195.9,16.6 210.4,31.1 210.4,48.9 L210.4,232.3 C210.4,250.1 195.9,264.6 178.1,264.6 Z" id="Path" stroke-width="3.7693" fill="#252A33"></path>
                    <path d="M177.9,264.6 L82.8,264.6 C64.9,264.6 50.5,250.1 50.5,232.3 L50.5,48.8 C50.5,30.9 65,16.5 82.8,16.5 L177.9,16.5 C195.8,16.5 210.200514,31 210.200514,48.8 L210.200514,232.3 C210.3,250.2 195.8,264.6 177.9,264.6 Z" id="Path" stroke-width="3.7702" fill="#252B34"></path>
                    <path d="M177.8,264.7 L82.7,264.7 C64.8,264.7 50.4,250.2 50.4,232.4 L50.4,48.8 C50.4,30.9 64.9,16.5 82.7,16.5 L177.8,16.5 C195.7,16.5 210.1,31 210.1,48.8 L210.1,232.4 C210.1,250.2 195.7,264.7 177.8,264.7 Z" id="Path" stroke-width="3.7711" fill="#262B34"></path>
                    <path d="M177.7,264.8 L82.6,264.8 C64.7,264.8 50.2,250.3 50.2,232.4 L50.2,48.7 C50.2,30.8 64.7,16.3 82.6,16.3 L177.7,16.3 C195.6,16.3 210.1,30.8 210.1,48.7 L210.1,232.4 C210,250.3 195.5,264.8 177.7,264.8 Z" id="Path" stroke-width="3.772" fill="#272C35"></path>
                    <path d="M177.5,264.8 L82.3,264.8 C64.4,264.8 49.9,250.3 49.9,232.4 L49.9,48.7 C49.9,30.8 64.4,16.3 82.3,16.3 L177.5,16.3 C195.4,16.3 209.9,30.8 209.9,48.7 L209.9,232.4 C209.9,250.3 195.4,264.8 177.5,264.8 Z" id="Path" stroke-width="3.7728" fill="#272C35"></path>
                    <path d="M177.4,264.9 L82.2,264.9 C64.3,264.9 49.8,250.4 49.8,232.5 L49.8,48.6 C49.8,30.7 64.3,16.2 82.2,16.2 L177.4,16.2 C195.3,16.2 209.8,30.7 209.8,48.6 L209.8,232.4 C209.8,250.4 195.3,264.9 177.4,264.9 Z" id="Path" stroke-width="3.7737" fill="#282D35"></path>
                    <path d="M177.3,264.9 L82,264.9 C64.1,264.9 49.6,250.4 49.6,232.5 L49.6,48.6 C49.6,30.7 64.1,16.2 82,16.2 L177.3,16.2 C195.2,16.2 209.7,30.7 209.7,48.6 L209.7,232.5 C209.7,250.4 195.2,264.9 177.3,264.9 Z" id="Path" stroke-width="3.7746" fill="#282D36"></path>
                    <path d="M177.1,265 L81.8,265 C63.9,265 49.4,250.5 49.4,232.6 L49.4,48.6 C49.4,30.7 63.9,16.2 81.8,16.2 L177.1,16.2 C195,16.2 209.500514,30.7 209.500514,48.6 L209.500514,232.6 C209.6,250.5 195.1,265 177.1,265 Z" id="Path" stroke-width="3.7754" fill="#292E36"></path>
                    <path d="M177,265 L81.6,265 C63.7,265 49.2,250.5 49.2,232.6 L49.2,48.5 C49.2,30.6 63.7,16.1 81.6,16.1 L177,16.1 C194.9,16.1 209.400511,30.6 209.400511,48.5 L209.400511,232.6 C209.5,250.5 194.9,265 177,265 Z" id="Path" stroke-width="3.7763" fill="#292E37"></path>
                    <path d="M176.9,265.1 L81.5,265.1 C63.6,265.1 49,250.6 49,232.6 L49,48.5 C49,30.6 63.5,16 81.5,16 L176.9,16 C194.8,16 209.4,30.5 209.4,48.5 L209.4,232.7 C209.3,250.6 194.8,265.1 176.9,265.1 Z" id="Path" stroke-width="3.7772" fill="#2A2F37"></path>
                    <path d="M176.8,265.2 L81.3,265.2 C63.4,265.2 48.8,250.7 48.8,232.7 L48.8,48.4 C48.8,30.5 63.3,15.9 81.3,15.9 L176.8,15.9 C194.7,15.9 209.3,30.4 209.3,48.4 L209.3,232.7 C209.2,250.6 194.7,265.2 176.8,265.2 Z" id="Path" stroke-width="3.778" fill="#2B2F38"></path>
                    <path d="M176.6,265.2 L81.1,265.2 C63.2,265.2 48.6,250.7 48.6,232.7 L48.6,48.4 C48.6,30.5 63.1,15.9 81.1,15.9 L176.6,15.9 C194.5,15.9 209.1,30.4 209.1,48.4 L209.1,232.8 C209.1,250.7 194.6,265.2 176.6,265.2 Z" id="Path" stroke-width="3.7789" fill="#2B3038"></path>
                    <path d="M176.5,265.3 L80.9,265.3 C63,265.3 48.4,250.8 48.4,232.8 L48.4,48.3 C48.4,30.4 62.9,15.8 80.9,15.8 L176.5,15.8 C194.4,15.8 209,30.3 209,48.3 L209,232.7 C209,250.7 194.4,265.3 176.5,265.3 Z" id="Path" stroke-width="3.7798" fill="#2C3039"></path>
                    <path d="M176.4,265.3 L80.8,265.3 C62.8,265.3 48.3,250.7 48.3,232.8 L48.3,48.3 C48.3,30.3 62.9,15.8 80.8,15.8 L176.4,15.8 C194.4,15.8 208.9,30.4 208.9,48.3 L208.9,232.8 C208.9,250.8 194.3,265.3 176.4,265.3 Z" id="Path" stroke-width="3.7806" fill="#2C3139"></path>
                    <path d="M176.2,265.4 L80.6,265.4 C62.6,265.4 48.1,250.8 48.1,232.9 L48.1,48.2 C48.1,30.2 62.7,15.7 80.6,15.7 L176.2,15.7 C194.2,15.7 208.700511,30.3 208.700511,48.2 L208.700511,232.8 C208.8,250.8 194.2,265.4 176.2,265.4 Z" id="Path" stroke-width="3.7815" fill="#2D313A"></path>
                    <path d="M176.1,265.4 L80.4,265.4 C62.4,265.4 47.9,250.8 47.9,232.9 L47.9,48.2 C47.9,30.2 62.5,15.7 80.4,15.7 L176.1,15.7 C194.1,15.7 208.600511,30.3 208.600511,48.2 L208.600511,232.9 C208.7,250.9 194.1,265.4 176.1,265.4 Z" id="Path" stroke-width="3.7824" fill="#2D323A"></path>
                    <path d="M176,265.5 L80.3,265.5 C62.3,265.5 47.7,250.9 47.7,232.9 L47.7,48.2 C47.7,30.2 62.3,15.6 80.3,15.6 L176,15.6 C194,15.6 208.6,30.2 208.6,48.2 L208.6,233 C208.5,250.9 194,265.5 176,265.5 Z" id="Path" stroke-width="3.7832" fill="#2E323B"></path>
                    <path d="M175.9,265.6 L80.1,265.6 C62.1,265.6 47.5,251 47.5,233 L47.5,48.1 C47.5,30.1 62.1,15.5 80.1,15.5 L175.9,15.5 C193.9,15.5 208.5,30.1 208.5,48.1 L208.5,233 C208.4,251 193.8,265.6 175.9,265.6 Z" id="Path" stroke-width="3.7841" fill="#2F333B"></path>
                    <path d="M175.7,265.6 L79.9,265.6 C61.9,265.6 47.3,251 47.3,233 L47.3,48 C47.3,30 61.9,15.4 79.9,15.4 L175.7,15.4 C193.7,15.4 208.3,30 208.3,48 L208.3,233 C208.3,251 193.7,265.6 175.7,265.6 Z" id="Path" stroke-width="3.785" fill="#2F333C"></path>
                    <path d="M175.6,265.7 L79.7,265.7 C61.7,265.7 47.1,251.1 47.1,233.1 L47.1,48 C47.1,30 61.7,15.4 79.7,15.4 L175.6,15.4 C193.6,15.4 208.2,30 208.2,48 L208.2,233 C208.2,251.1 193.6,265.7 175.6,265.7 Z" id="Path" stroke-width="3.7858" fill="#30343C"></path>
                    <path d="M175.5,265.7 L79.6,265.7 C61.6,265.7 47,251.1 47,233.1 L47,48 C47,30 61.6,15.4 79.6,15.4 L175.5,15.4 C193.5,15.4 208.1,30 208.1,48 L208.1,233.1 C208.1,251.1 193.5,265.7 175.5,265.7 Z" id="Path" stroke-width="3.7867" fill="#30343D"></path>
                    <path d="M175.3,265.8 L79.3,265.8 C61.3,265.8 46.7,251.2 46.7,233.2 L46.7,47.9 C46.7,29.9 61.3,15.3 79.3,15.3 L175.3,15.3 C193.3,15.3 207.900511,29.9 207.900511,47.9 L207.900511,233.1 C208,251.2 193.4,265.8 175.3,265.8 Z" id="Path" stroke-width="3.7876" fill="#31353D"></path>
                    <path d="M175.2,265.8 L79.2,265.8 C61.2,265.8 46.5,251.2 46.5,233.1 L46.5,47.9 C46.5,29.9 61.1,15.2 79.2,15.2 L175.2,15.2 C193.2,15.2 207.9,29.8 207.9,47.9 L207.9,233.2 C207.9,251.2 193.2,265.8 175.2,265.8 Z" id="Path" stroke-width="3.7884" fill="#31353E"></path>
                    <path d="M175.1,265.9 L79.1,265.9 C61.1,265.9 46.4,251.3 46.4,233.2 L46.4,47.8 C46.4,29.8 61,15.1 79.1,15.1 L175.1,15.1 C193.1,15.1 207.8,29.7 207.8,47.8 L207.8,233.2 C207.7,251.3 193.1,265.9 175.1,265.9 Z" id="Path" stroke-width="3.7893" fill="#32363E"></path>
                    <path d="M174.9,266 L78.8,266 C60.8,266 46.1,251.4 46.1,233.3 L46.1,47.8 C46.1,29.8 60.7,15.1 78.8,15.1 L174.9,15.1 C192.9,15.1 207.6,29.7 207.6,47.8 L207.6,233.3 C207.6,251.3 193,266 174.9,266 Z" id="Path" stroke-width="3.7902" fill="#33363F"></path>
                    <path d="M174.8,266 L78.7,266 C60.6,266 46,251.4 46,233.3 L46,47.7 C46,29.6 60.6,15 78.7,15 L174.8,15 C192.9,15 207.5,29.6 207.5,47.7 L207.5,233.3 C207.5,251.4 192.9,266 174.8,266 Z" id="Path" stroke-width="3.791" fill="#33373F"></path>
                    <path d="M174.7,266.1 L78.5,266.1 C60.4,266.1 45.8,251.5 45.8,233.4 L45.8,47.7 C45.8,29.6 60.4,15 78.5,15 L174.7,15 C192.8,15 207.4,29.6 207.4,47.7 L207.4,233.4 C207.4,251.4 192.8,266.1 174.7,266.1 Z" id="Path" stroke-width="3.7919" fill="#34373F"></path>
                    <path d="M174.6,266.1 L78.4,266.1 C60.3,266.1 45.7,251.4 45.7,233.4 L45.7,47.7 C45.7,29.6 60.4,15 78.4,15 L174.6,15 C192.7,15 207.3,29.7 207.3,47.7 L207.3,233.4 C207.3,251.5 192.6,266.1 174.6,266.1 Z" id="Path" stroke-width="3.7928" fill="#343840"></path>
                    <path d="M174.4,266.2 L78.1,266.2 C60,266.2 45.4,251.5 45.4,233.5 L45.4,47.6 C45.4,29.5 60.1,14.9 78.1,14.9 L174.4,14.9 C192.5,14.9 207.100507,29.6 207.100507,47.6 L207.100507,233.4 C207.2,251.5 192.5,266.2 174.4,266.2 Z" id="Path" stroke-width="3.7936" fill="#353840"></path>
                    <path d="M174.3,266.2 L78,266.2 C59.9,266.2 45.2,251.5 45.2,233.4 L45.2,47.6 C45.2,29.5 59.9,14.8 78,14.8 L174.3,14.8 C192.4,14.8 207.1,29.5 207.1,47.6 L207.1,233.5 C207.1,251.6 192.4,266.2 174.3,266.2 Z" id="Path" stroke-width="3.7945" fill="#353941"></path>
                    <path d="M174.2,266.3 L77.8,266.3 C59.7,266.3 45,251.6 45,233.5 L45,47.5 C45,29.4 59.7,14.7 77.8,14.7 L174.2,14.7 C192.3,14.7 207,29.4 207,47.5 L207,233.5 C206.9,251.6 192.3,266.3 174.2,266.3 Z" id="Path" stroke-width="3.7954" fill="#363941"></path>
                    <path d="M174,266.4 L77.6,266.4 C59.5,266.4 44.8,251.7 44.8,233.6 L44.8,47.5 C44.8,29.4 59.5,14.7 77.6,14.7 L174,14.7 C192.1,14.7 206.8,29.4 206.8,47.5 L206.8,233.6 C206.8,251.7 192.1,266.4 174,266.4 Z" id="Path" stroke-width="3.7962" fill="#373A42"></path>
                    <path d="M173.9,266.4 L77.4,266.4 C59.3,266.4 44.6,251.7 44.6,233.6 L44.6,47.4 C44.6,29.3 59.3,14.6 77.4,14.6 L173.9,14.6 C192,14.6 206.7,29.3 206.7,47.4 L206.7,233.6 C206.7,251.7 192,266.4 173.9,266.4 Z" id="Path" stroke-width="3.7971" fill="#373A42"></path>
                    <path d="M173.8,266.5 L77.3,266.5 C59.2,266.5 44.5,251.8 44.5,233.7 L44.5,47.4 C44.5,29.3 59.2,14.6 77.3,14.6 L173.8,14.6 C191.9,14.6 206.6,29.3 206.6,47.4 L206.6,233.7 C206.6,251.8 191.9,266.5 173.8,266.5 Z" id="Path" stroke-width="3.798" fill="#383B43"></path>
                    <path d="M173.7,266.5 L77.2,266.5 C59.1,266.5 44.4,251.8 44.4,233.7 L44.4,47.3 C44.4,29.2 59.1,14.5 77.2,14.5 L173.7,14.5 C191.8,14.5 206.5,29.2 206.5,47.3 L206.5,233.7 C206.5,251.8 191.8,266.5 173.7,266.5 Z" id="Path" stroke-width="3.7988" fill="#383B43"></path>
                    <path d="M173.5,266.6 L76.9,266.6 C58.8,266.6 44,251.9 44,233.7 L44,47.3 C44,29.2 58.7,14.4 76.9,14.4 L173.5,14.4 C191.6,14.4 206.4,29.1 206.4,47.3 L206.4,233.7 C206.4,251.9 191.7,266.6 173.5,266.6 Z" id="Path" stroke-width="3.7997" fill="#393C44"></path>
                    <path d="M173.4,266.6 L76.8,266.6 C58.6,266.6 43.9,251.9 43.9,233.7 L43.9,47.2 C43.9,29 58.6,14.3 76.8,14.3 L173.4,14.3 C191.6,14.3 206.3,29 206.3,47.2 L206.3,233.7 C206.3,251.9 191.5,266.6 173.4,266.6 Z" id="Path" stroke-width="3.8006" fill="#393C44"></path>
                    <path d="M173.3,266.7 L76.6,266.7 C58.4,266.7 43.7,252 43.7,233.8 L43.7,47.2 C43.7,29 58.4,14.3 76.6,14.3 L173.3,14.3 C191.5,14.3 206.2,29 206.2,47.2 L206.2,233.8 C206.1,252 191.4,266.7 173.3,266.7 Z" id="Path" stroke-width="3.8014" fill="#3A3D45"></path>
                    <path d="M173.1,266.8 L76.4,266.8 C58.2,266.8 43.5,252.1 43.5,233.9 L43.5,47.2 C43.5,29 58.2,14.3 76.4,14.3 L173.1,14.3 C191.3,14.3 206,29 206,47.2 L206,233.9 C206,252 191.3,266.8 173.1,266.8 Z" id="Path" stroke-width="3.8023" fill="#3B3D45"></path>
                    <path d="M173,266.8 L76.2,266.8 C58,266.8 43.3,252.1 43.3,233.9 L43.3,47.1 C43.3,28.9 58,14.2 76.2,14.2 L173,14.2 C191.2,14.2 205.9,28.9 205.9,47.1 L205.9,233.9 C205.9,252.1 191.2,266.8 173,266.8 Z" id="Path" stroke-width="3.8032" fill="#3B3E46"></path>
                    <path d="M172.9,266.9 L76.1,266.9 C57.9,266.9 43.2,252.2 43.2,234 L43.2,47.1 C43.2,28.9 57.9,14.2 76.1,14.2 L172.9,14.2 C191.1,14.2 205.8,28.9 205.8,47.1 L205.8,234 C205.8,252.1 191.1,266.9 172.9,266.9 Z" id="Path" stroke-width="3.804" fill="#3C3E46"></path>
                    <path d="M172.7,266.9 L75.8,266.9 C57.6,266.9 42.9,252.2 42.9,234 L42.9,47 C42.9,28.8 57.6,14.1 75.8,14.1 L172.7,14.1 C190.9,14.1 205.600504,28.8 205.600504,47 L205.600504,234 C205.7,252.2 190.9,266.9 172.7,266.9 Z" id="Path" stroke-width="3.8049" fill="#3C3F47"></path>
                    <path d="M172.6,267 L75.7,267 C57.5,267 42.7,252.2 42.7,234 L42.7,47 C42.7,28.8 57.5,14 75.7,14 L172.6,14 C190.8,14 205.6,28.8 205.6,47 L205.6,234 C205.6,252.2 190.8,267 172.6,267 Z" id="Path" stroke-width="3.8058" fill="#3D3F47"></path>
                    <path d="M172.5,267 L75.6,267 C57.4,267 42.6,252.2 42.6,234 L42.6,46.9 C42.6,28.7 57.4,13.9 75.6,13.9 L172.5,13.9 C190.7,13.9 205.5,28.7 205.5,46.9 L205.5,234 C205.5,252.3 190.7,267 172.5,267 Z" id="Path" stroke-width="3.8066" fill="#3D4048"></path>
                    <path d="M172.4,267.1 L75.4,267.1 C57.2,267.1 42.4,252.3 42.4,234.1 L42.4,46.9 C42.4,28.7 57.2,13.9 75.4,13.9 L172.4,13.9 C190.6,13.9 205.4,28.7 205.4,46.9 L205.4,234.1 C205.3,252.3 190.6,267.1 172.4,267.1 Z" id="Path" stroke-width="3.8075" fill="#3E4048"></path>
                    <path d="M172.2,267.2 L75.2,267.2 C57,267.2 42.2,252.4 42.2,234.2 L42.2,46.8 C42.2,28.6 57,13.8 75.2,13.8 L172.2,13.8 C190.4,13.8 205.2,28.6 205.2,46.8 L205.2,234.1 C205.2,252.4 190.5,267.2 172.2,267.2 Z" id="Path" stroke-width="3.8084" fill="#3F4149"></path>
                    <path d="M172.1,267.2 L75,267.2 C56.8,267.2 42,252.4 42,234.2 L42,46.8 C42,28.6 56.8,13.8 75,13.8 L172.1,13.8 C190.3,13.8 205.1,28.6 205.1,46.8 L205.1,234.2 C205.1,252.4 190.3,267.2 172.1,267.2 Z" id="Path" stroke-width="3.8092" fill="#3F4149"></path>
                    <path d="M172,267.3 L74.9,267.3 C56.7,267.3 41.9,252.5 41.9,234.3 L41.9,46.7 C41.9,28.5 56.7,13.7 74.9,13.7 L172,13.7 C190.2,13.7 205,28.5 205,46.7 L205,234.2 C205,252.5 190.2,267.3 172,267.3 Z" id="Path" stroke-width="3.8101" fill="#40424A"></path>
                    <path d="M171.8,267.3 L74.6,267.3 C56.3,267.3 41.5,252.5 41.5,234.3 L41.5,46.7 C41.5,28.4 56.3,13.7 74.6,13.7 L171.8,13.7 C190.1,13.7 204.800504,28.5 204.800504,46.7 L204.800504,234.3 C204.9,252.5 190.1,267.3 171.8,267.3 Z" id="Path" stroke-width="3.811" fill="#40424A"></path>
                    <path d="M171.7,267.4 L74.5,267.4 C56.2,267.4 41.4,252.6 41.4,234.3 L41.4,46.7 C41.4,28.4 56.2,13.6 74.5,13.6 L171.7,13.6 C190,13.6 204.8,28.4 204.8,46.7 L204.8,234.4 C204.8,252.6 190,267.4 171.7,267.4 Z" id="Path" stroke-width="3.8118" fill="#41434B"></path>
                    <path d="M171.6,267.4 L74.3,267.4 C56,267.4 41.2,252.6 41.2,234.3 L41.2,46.6 C41.2,28.3 56,13.5 74.3,13.5 L171.6,13.5 C189.9,13.5 204.7,28.3 204.7,46.6 L204.7,234.3 C204.7,252.6 189.8,267.4 171.6,267.4 Z" id="Path" stroke-width="3.8127" fill="#41434B"></path>
                    <path d="M171.4,267.5 L74.1,267.5 C55.8,267.5 41,252.7 41,234.4 L41,46.6 C41,28.3 55.8,13.5 74.1,13.5 L171.4,13.5 C189.7,13.5 204.5,28.3 204.5,46.6 L204.5,234.4 C204.5,252.7 189.7,267.5 171.4,267.5 Z" id="Path" stroke-width="3.8136" fill="#42444C"></path>
                    <path d="M171.3,267.6 L74,267.6 C55.7,267.6 40.9,252.8 40.9,234.5 L40.9,46.5 C40.9,28.2 55.7,13.4 74,13.4 L171.4,13.4 C189.7,13.4 204.5,28.2 204.5,46.5 L204.5,234.4 C204.4,252.7 189.6,267.6 171.3,267.6 Z" id="Path" stroke-width="3.8144" fill="#43454D"></path>
                    <path d="M171.2,267.6 L73.8,267.6 C55.5,267.6 40.7,252.8 40.7,234.5 L40.7,46.5 C40.7,28.2 55.5,13.4 73.8,13.4 L171.2,13.4 C189.5,13.4 204.3,28.2 204.3,46.5 L204.3,234.5 C204.3,252.8 189.5,267.6 171.2,267.6 Z" id="Path" stroke-width="3.8153" fill="#43454D"></path>
                    <path d="M171.1,267.7 L73.7,267.7 C55.4,267.7 40.6,252.9 40.6,234.6 L40.6,46.4 C40.6,28.1 55.4,13.3 73.7,13.3 L171.1,13.3 C189.4,13.3 204.2,28.1 204.2,46.4 L204.2,234.5 C204.2,252.8 189.4,267.7 171.1,267.7 Z" id="Path" stroke-width="3.8162" fill="#44464E"></path>
                    <path d="M170.9,267.7 L73.4,267.7 C55.1,267.7 40.2,252.9 40.2,234.5 L40.2,46.4 C40.2,28.1 55,13.2 73.4,13.2 L170.9,13.2 C189.2,13.2 204.1,28 204.1,46.4 L204.1,234.6 C204.1,252.9 189.2,267.7 170.9,267.7 Z" id="Path" stroke-width="3.817" fill="#44464E"></path>
                    <path d="M170.8,267.8 L73.3,267.8 C55,267.8 40.1,252.9 40.1,234.6 L40.1,46.3 C40.1,28 55,13.1 73.3,13.1 L170.8,13.1 C189.1,13.1 204,28 204,46.3 L204,234.6 C204,252.9 189.1,267.8 170.8,267.8 Z" id="Path" stroke-width="3.8179" fill="#45474F"></path>
                    <path d="M170.7,267.8 L73.1,267.8 C54.8,267.8 39.9,252.9 39.9,234.6 L39.9,46.3 C39.9,28 54.8,13.1 73.1,13.1 L170.7,13.1 C189,13.1 203.9,28 203.9,46.3 L203.9,234.7 C203.9,253 189,267.8 170.7,267.8 Z" id="Path" stroke-width="3.8188" fill="#46474F"></path>
                    <path d="M170.5,267.9 L72.9,267.9 C54.6,267.9 39.7,253 39.7,234.7 L39.7,46.3 C39.7,28 54.6,13.1 72.9,13.1 L170.5,13.1 C188.8,13.1 203.7,28 203.7,46.3 L203.7,234.7 C203.7,253 188.9,267.9 170.5,267.9 Z" id="Path" stroke-width="3.8196" fill="#464850"></path>
                    <path d="M170.4,268 L72.7,268 C54.4,268 39.5,253.1 39.5,234.8 L39.5,46.2 C39.5,27.9 54.4,13 72.7,13 L170.4,13 C188.7,13 203.6,27.9 203.6,46.2 L203.6,234.7 C203.6,253.1 188.8,268 170.4,268 Z" id="Path" stroke-width="3.8205" fill="#474850"></path>
                    <path d="M170.3,268 L72.6,268 C54.2,268 39.4,253.1 39.4,234.8 L39.4,46.2 C39.4,27.8 54.3,13 72.6,13 L170.3,13 C188.7,13 203.5,27.9 203.5,46.2 L203.5,234.8 C203.5,253.1 188.6,268 170.3,268 Z" id="Path" stroke-width="3.8214" fill="#474951"></path>
                    <path d="M170.2,268.1 L72.4,268.1 C54,268.1 39.2,253.2 39.2,234.9 L39.2,46.1 C39.2,27.7 54.1,12.9 72.4,12.9 L170.2,12.9 C188.6,12.9 203.4,27.8 203.4,46.1 L203.4,234.8 C203.4,253.2 188.5,268.1 170.2,268.1 Z" id="Path" stroke-width="3.8222" fill="#484951"></path>
                    <path d="M170,268.1 L72.2,268.1 C53.8,268.1 38.9,253.2 38.9,234.8 L38.9,46.1 C38.9,27.7 53.8,12.8 72.2,12.8 L170,12.8 C188.4,12.8 203.3,27.7 203.3,46.1 L203.3,234.9 C203.3,253.2 188.4,268.1 170,268.1 Z" id="Path" stroke-width="3.8231" fill="#494A52"></path>
                    <path d="M169.9,268.2 L72,268.2 C53.6,268.2 38.7,253.3 38.7,234.9 L38.7,46 C38.7,27.6 53.6,12.7 72,12.7 L169.8,12.7 C188.2,12.7 203.1005,27.6 203.1005,46 L203.1005,234.9 C203.2,253.3 188.3,268.2 169.9,268.2 Z" id="Path" stroke-width="3.824" fill="#494A52"></path>
                    <path d="M169.8,268.2 L71.9,268.2 C53.5,268.2 38.6,253.3 38.6,234.9 L38.6,46 C38.6,27.6 53.5,12.7 71.9,12.7 L169.8,12.7 C188.2,12.7 203.1,27.6 203.1,46 L203.1,235 C203.1,253.3 188.2,268.2 169.8,268.2 Z" id="Path" stroke-width="3.8248" fill="#4A4B53"></path>
                    <path d="M169.6,268.3 L71.7,268.3 C53.3,268.3 38.4,253.4 38.4,235 L38.4,46 C38.4,27.6 53.3,12.7 71.7,12.7 L169.6,12.7 C188,12.7 202.9,27.6 202.9,46 L202.9,235 C202.9,253.4 188,268.3 169.6,268.3 Z" id="Path" stroke-width="3.8257" fill="#4A4C53"></path>
                    <path d="M169.5,268.4 L71.5,268.4 C53.1,268.4 38.2,253.5 38.2,235.1 L38.2,45.9 C38.2,27.5 53.1,12.6 71.5,12.6 L169.5,12.6 C187.9,12.6 202.8,27.5 202.8,45.9 L202.8,235 C202.8,253.4 187.9,268.4 169.5,268.4 Z" id="Path" stroke-width="3.8266" fill="#4B4C54"></path>
                    <path d="M169.4,268.4 L71.4,268.4 C53,268.4 38.1,253.5 38.1,235.1 L38.1,45.8 C38.1,27.4 53,12.5 71.4,12.5 L169.4,12.5 C187.8,12.5 202.7,27.4 202.7,45.8 L202.7,235 C202.7,253.5 187.8,268.4 169.4,268.4 Z" id="Path" stroke-width="3.8274" fill="#4C4D55"></path>
                    <path d="M169.2,268.5 L71.1,268.5 C52.7,268.5 37.7,253.6 37.7,235.1 L37.7,45.8 C37.7,27.4 52.6,12.4 71.1,12.4 L169.2,12.4 C187.6,12.4 202.6,27.3 202.6,45.8 L202.6,235.1 C202.6,253.5 187.7,268.5 169.2,268.5 Z" id="Path" stroke-width="3.8283" fill="#4C4D55"></path>
                    <path d="M169.1,268.5 L71,268.5 C52.6,268.5 37.6,253.6 37.6,235.1 L37.6,45.8 C37.6,27.4 52.5,12.4 71,12.4 L169.1,12.4 C187.5,12.4 202.5,27.3 202.5,45.8 L202.5,235.2 C202.5,253.6 187.5,268.5 169.1,268.5 Z" id="Path" stroke-width="3.8292" fill="#4D4E56"></path>
                    <path d="M169,268.6 L70.8,268.6 C52.4,268.6 37.4,253.7 37.4,235.2 L37.4,45.7 C37.4,27.3 52.3,12.3 70.8,12.3 L169,12.3 C187.4,12.3 202.4,27.2 202.4,45.7 L202.4,235.2 C202.4,253.6 187.4,268.6 169,268.6 Z" id="Path" stroke-width="3.83" fill="#4D4E56"></path>
                    <path d="M168.9,268.6 L70.7,268.6 C52.3,268.6 37.3,253.6 37.3,235.2 L37.3,45.7 C37.3,27.3 52.3,12.3 70.7,12.3 L168.9,12.3 C187.3,12.3 202.3,27.3 202.3,45.7 L202.3,235.3 C202.3,253.7 187.3,268.6 168.9,268.6 Z" id="Path" stroke-width="3.8309" fill="#4E4F57"></path>
                    <path d="M168.7,268.7 L70.4,268.7 C51.9,268.7 37,253.7 37,235.3 L37,45.6 C37,27.1 52,12.2 70.4,12.2 L168.7,12.2 C187.2,12.2 202.1,27.2 202.1,45.6 L202.1,235.3 C202.1,253.7 187.2,268.7 168.7,268.7 Z" id="Path" stroke-width="3.8318" fill="#4F5057"></path>
                    <path d="M168.6,268.7 L70.3,268.7 C51.8,268.7 36.9,253.7 36.9,235.3 L36.9,45.6 C36.9,27.1 51.9,12.2 70.3,12.2 L168.6,12.2 C187.1,12.2 202,27.2 202,45.6 L202,235.3 C202,253.8 187.1,268.7 168.6,268.7 Z" id="Path" stroke-width="3.8326" fill="#4F5058"></path>
                    <path d="M168.5,268.8 L70.2,268.8 C51.7,268.8 36.8,253.8 36.8,235.4 L36.8,45.5 C36.8,27 51.8,12.1 70.2,12.1 L168.5,12.1 C187,12.1 201.9,27.1 201.9,45.5 L201.9,235.3 C201.9,253.8 186.9,268.8 168.5,268.8 Z" id="Path" stroke-width="3.8335" fill="#505159"></path>
                    <path d="M168.3,268.9 L69.9,268.9 C51.4,268.9 36.4,253.9 36.4,235.4 L36.4,45.5 C36.4,27 51.4,12 69.9,12 L168.3,12 C186.8,12 201.8,27 201.8,45.5 L201.8,235.4 C201.8,253.9 186.8,268.9 168.3,268.9 Z" id="Path" stroke-width="3.8344" fill="#505159"></path>
                    <path d="M168.2,268.9 L69.8,268.9 C51.3,268.9 36.3,253.9 36.3,235.4 L36.3,45.4 C36.3,26.9 51.3,11.9 69.8,11.9 L168.2,11.9 C186.7,11.9 201.7,26.9 201.7,45.4 L201.7,235.4 C201.7,253.9 186.7,268.9 168.2,268.9 Z" id="Path" stroke-width="3.8352" fill="#51525A"></path>
                    <path d="M168.1,269 L69.6,269 C51.1,269 36.1,254 36.1,235.5 L36.1,45.4 C36.1,26.9 51.1,11.9 69.6,11.9 L168.1,11.9 C186.6,11.9 201.6,26.9 201.6,45.4 L201.6,235.5 C201.6,254 186.6,269 168.1,269 Z" id="Path" stroke-width="3.8361" fill="#52535A"></path>
                    <path d="M167.9,269 L69.4,269 C50.9,269 35.9,254 35.9,235.5 L35.9,45.3 C35.9,26.8 50.9,11.8 69.4,11.8 L167.9,11.8 C186.4,11.8 201.400497,26.8 201.400497,45.3 L201.400497,235.5 C201.5,254 186.5,269 167.9,269 Z" id="Path" stroke-width="3.837" fill="#52535B"></path>
                    <path d="M167.8,269.1 L69.2,269.1 C50.7,269.1 35.7,254.1 35.7,235.6 L35.7,45.3 C35.7,26.8 50.7,11.8 69.2,11.8 L167.8,11.8 C186.3,11.8 201.3,26.8 201.3,45.3 L201.3,235.6 C201.3,254.1 186.3,269.1 167.8,269.1 Z" id="Path" stroke-width="3.8379" fill="#53545B"></path>
                    <path d="M167.7,269.1 L69.1,269.1 C50.6,269.1 35.6,254.1 35.6,235.6 L35.6,45.3 C35.6,26.8 50.6,11.8 69.1,11.8 L167.7,11.8 C186.2,11.8 201.2,26.8 201.2,45.3 L201.2,235.7 C201.2,254.1 186.2,269.1 167.7,269.1 Z" id="Path" stroke-width="3.8387" fill="#54545C"></path>
                    <path d="M167.6,269.2 L68.9,269.2 C50.4,269.2 35.3,254.2 35.3,235.6 L35.3,45.2 C35.3,26.7 50.3,11.6 68.9,11.6 L167.6,11.6 C186.1,11.6 201.2,26.6 201.2,45.2 L201.2,235.6 C201.1,254.2 186.1,269.2 167.6,269.2 Z" id="Path" stroke-width="3.8396" fill="#54555D"></path>
                    <path d="M167.4,269.3 L68.7,269.3 C50.2,269.3 35.1,254.3 35.1,235.7 L35.1,45.2 C35.1,26.7 50.1,11.6 68.7,11.6 L167.4,11.6 C185.9,11.6 201,26.6 201,45.2 L201,235.7 C201,254.2 186,269.3 167.4,269.3 Z" id="Path" stroke-width="3.8405" fill="#55565D"></path>
                    <path d="M167.3,269.3 L68.5,269.3 C50,269.3 34.9,254.3 34.9,235.7 L34.9,45.1 C34.9,26.6 49.9,11.5 68.5,11.5 L167.3,11.5 C185.8,11.5 200.9,26.5 200.9,45.1 L200.9,235.7 C200.9,254.3 185.9,269.3 167.3,269.3 Z" id="Path" stroke-width="3.8413" fill="#55565E"></path>
                    <path d="M167.2,269.4 L68.4,269.4 C49.8,269.4 34.8,254.4 34.8,235.8 L34.8,45.1 C34.8,26.5 49.8,11.5 68.4,11.5 L167.2,11.5 C185.8,11.5 200.8,26.5 200.8,45.1 L200.8,235.8 C200.8,254.3 185.7,269.4 167.2,269.4 Z" id="Path" stroke-width="3.8422" fill="#56575E"></path>
                    <path d="M167,269.4 L68.2,269.4 C49.6,269.4 34.6,254.3 34.6,235.8 L34.6,45 C34.6,26.4 49.7,11.4 68.2,11.4 L167,11.4 C185.6,11.4 200.600494,26.5 200.600494,45 L200.600494,235.8 C200.7,254.4 185.6,269.4 167,269.4 Z" id="Path" stroke-width="3.8431" fill="#57575F"></path>
                    <path d="M166.9,269.5 L68,269.5 C49.4,269.5 34.4,254.4 34.4,235.9 L34.4,45 C34.4,26.4 49.5,11.4 68,11.4 L166.9,11.4 C185.5,11.4 200.5,26.5 200.5,45 L200.5,235.9 C200.5,254.4 185.5,269.5 166.9,269.5 Z" id="Path" stroke-width="3.8439" fill="#575860"></path>
                    <path d="M166.8,269.5 L67.9,269.5 C49.3,269.5 34.3,254.4 34.3,235.9 L34.3,44.9 C34.3,26.3 49.4,11.3 67.9,11.3 L166.8,11.3 C185.4,11.3 200.4,26.4 200.4,44.9 L200.4,235.9 C200.4,254.5 185.4,269.5 166.8,269.5 Z" id="Path" stroke-width="3.8448" fill="#585960"></path>
                    <path d="M166.7,269.6 L67.7,269.6 C49.1,269.6 34,254.5 34,235.9 L34,44.9 C34,26.3 49.1,11.2 67.7,11.2 L166.7,11.2 C185.3,11.2 200.4,26.3 200.4,44.9 L200.4,235.9 C200.3,254.5 185.2,269.6 166.7,269.6 Z" id="Path" stroke-width="3.8457" fill="#595961"></path>
                    <path d="M166.5,269.7 L67.5,269.7 C48.9,269.7 33.8,254.6 33.8,236 L33.8,44.8 C33.8,26.2 48.9,11.1 67.5,11.1 L166.5,11.1 C185.1,11.1 200.2,26.2 200.2,44.8 L200.2,236 C200.2,254.6 185.1,269.7 166.5,269.7 Z" id="Path" stroke-width="3.8465" fill="#595A61"></path>
                    <path d="M166.4,269.7 L67.3,269.7 C48.7,269.7 33.6,254.6 33.6,236 L33.6,44.8 C33.6,26.2 48.7,11.1 67.3,11.1 L166.4,11.1 C185,11.1 200.1,26.2 200.1,44.8 L200.1,236 C200.1,254.6 185,269.7 166.4,269.7 Z" id="Path" stroke-width="3.8474" fill="#5A5A62"></path>
                    <path d="M166.3,269.8 L67.2,269.8 C48.6,269.8 33.5,254.7 33.5,236.1 L33.5,44.8 C33.5,26.2 48.6,11.1 67.2,11.1 L166.3,11.1 C184.9,11.1 200,26.2 200,44.8 L200,236.1 C200,254.7 184.9,269.8 166.3,269.8 Z" id="Path" stroke-width="3.8483" fill="#5B5B63"></path>
                    <path d="M166.1,269.8 L67,269.8 C48.4,269.8 33.3,254.7 33.3,236.1 L33.3,44.7 C33.3,26.1 48.4,11 67,11 L166.2,11 C184.8,11 199.9,26.1 199.9,44.7 L199.9,236.1 C199.9,254.7 184.8,269.8 166.1,269.8 Z" id="Path" stroke-width="3.8491" fill="#5B5C63"></path>
                    <path d="M166,269.9 L66.8,269.9 C48.2,269.9 33.1,254.8 33.1,236.2 L33.1,44.7 C33.1,26.1 48.2,11 66.8,11 L166,11 C184.6,11 199.7,26.1 199.7,44.7 L199.7,236.2 C199.7,254.8 184.6,269.9 166,269.9 Z" id="Path" stroke-width="3.85" fill="#5C5C64"></path>
                    <path d="M165.9,269.9 L66.7,269.9 C48.1,269.9 32.9,254.8 32.9,236.1 L32.9,44.6 C32.9,26 48,10.8 66.7,10.8 L165.9,10.8 C184.5,10.8 199.7,25.9 199.7,44.6 L199.7,236.2 C199.6,254.8 184.5,269.9 165.9,269.9 Z" id="Path" stroke-width="3.8509" fill="#5D5D65"></path>
                    <path d="M165.7,270 L66.4,270 C47.7,270 32.6,254.9 32.6,236.2 L32.6,44.6 C32.6,25.9 47.7,10.8 66.4,10.8 L165.7,10.8 C184.4,10.8 199.5,25.9 199.5,44.6 L199.5,236.3 C199.5,254.9 184.4,270 165.7,270 Z" id="Path" stroke-width="3.8517" fill="#5D5E65"></path>
                    <path d="M165.6,270.1 L66.3,270.1 C47.6,270.1 32.5,255 32.5,236.3 L32.5,44.5 C32.5,25.8 47.6,10.7 66.3,10.7 L165.6,10.7 C184.3,10.7 199.4,25.8 199.4,44.5 L199.4,236.2 C199.4,254.9 184.3,270.1 165.6,270.1 Z" id="Path" stroke-width="3.8526" fill="#5E5E66"></path>
                    <path d="M165.5,270.1 L66.1,270.1 C47.4,270.1 32.3,255 32.3,236.3 L32.3,44.5 C32.3,25.8 47.4,10.7 66.1,10.7 L165.5,10.7 C184.2,10.7 199.3,25.8 199.3,44.5 L199.3,236.3 C199.3,255 184.2,270.1 165.5,270.1 Z" id="Path" stroke-width="3.8535" fill="#5F5F66"></path>
                    <path d="M165.4,270.2 L66,270.2 C47.3,270.2 32.2,255.1 32.2,236.4 L32.2,44.4 C32.2,25.7 47.3,10.6 66,10.6 L165.4,10.6 C184.1,10.6 199.2,25.7 199.2,44.4 L199.2,236.3 C199.2,255 184,270.2 165.4,270.2 Z" id="Path" stroke-width="3.8543" fill="#5F5F67"></path>
                    <path d="M165.2,270.2 L65.7,270.2 C47,270.2 31.9,255.1 31.9,236.4 L31.9,44.4 C31.9,25.7 47,10.6 65.7,10.6 L165.2,10.6 C183.9,10.6 199.000491,25.7 199.000491,44.4 L199.000491,236.4 C199.1,255.1 183.9,270.2 165.2,270.2 Z" id="Path" stroke-width="3.8552" fill="#606068"></path>
                    <path d="M165.1,270.3 L65.6,270.3 C46.9,270.3 31.8,255.1 31.8,236.5 L31.8,44.3 C31.8,25.6 47,10.5 65.6,10.5 L165.1,10.5 C183.8,10.5 198.9,25.7 198.9,44.3 L198.9,236.4 C198.9,255.1 183.8,270.3 165.1,270.3 Z" id="Path" stroke-width="3.8561" fill="#616168"></path>
                    <path d="M165,270.3 L65.4,270.3 C46.7,270.3 31.5,255.1 31.5,236.4 L31.5,44.3 C31.5,25.6 46.7,10.4 65.4,10.4 L165,10.4 C183.7,10.4 198.9,25.6 198.9,44.3 L198.9,236.5 C198.8,255.2 183.7,270.3 165,270.3 Z" id="Path" stroke-width="3.8569" fill="#616169"></path>
                    <path d="M164.8,270.4 L65.2,270.4 C46.5,270.4 31.3,255.2 31.3,236.5 L31.3,44.3 C31.3,25.6 46.5,10.4 65.2,10.4 L164.8,10.4 C183.5,10.4 198.7,25.6 198.7,44.3 L198.7,236.6 C198.7,255.2 183.6,270.4 164.8,270.4 Z" id="Path" stroke-width="3.8578" fill="#62626A"></path>
                    <path d="M164.7,270.5 L65,270.5 C46.3,270.5 31.1,255.3 31.1,236.6 L31.1,44.2 C31.1,25.5 46.3,10.3 65,10.3 L164.7,10.3 C183.4,10.3 198.6,25.5 198.6,44.2 L198.6,236.6 C198.6,255.3 183.4,270.5 164.7,270.5 Z" id="Path" stroke-width="3.8587" fill="#63636A"></path>
                    <path d="M164.6,270.5 L64.9,270.5 C46.2,270.5 31,255.3 31,236.6 L31,44.2 C31,25.5 46.2,10.3 64.9,10.3 L164.6,10.3 C183.3,10.3 198.5,25.5 198.5,44.2 L198.5,236.6 C198.5,255.3 183.3,270.5 164.6,270.5 Z" id="Path" stroke-width="3.8595" fill="#63636B"></path>
                    <path d="M164.5,270.6 L64.8,270.6 C46.1,270.6 30.9,255.4 30.9,236.7 L30.9,44.1 C30.9,25.4 46.1,10.2 64.8,10.2 L164.5,10.2 C183.2,10.2 198.4,25.4 198.4,44.1 L198.4,236.6 C198.4,255.4 183.2,270.6 164.5,270.6 Z" id="Path" stroke-width="3.8604" fill="#64646C"></path>
                    <path d="M164.3,270.6 L64.5,270.6 C45.8,270.6 30.6,255.4 30.6,236.7 L30.6,44.1 C30.6,25.4 45.8,10.2 64.5,10.2 L164.3,10.2 C183,10.2 198.200491,25.4 198.200491,44.1 L198.200491,236.7 C198.3,255.4 183.1,270.6 164.3,270.6 Z" id="Path" stroke-width="3.8613" fill="#65656C"></path>
                    <path d="M164.2,270.7 L64.4,270.7 C45.6,270.7 30.4,255.5 30.4,236.7 L30.4,44 C30.4,25.2 45.6,10 64.4,10 L164.2,10 C183,10 198.2,25.2 198.2,44 L198.2,236.7 C198.1,255.5 182.9,270.7 164.2,270.7 Z" id="Path" stroke-width="3.8621" fill="#65656D"></path>
                    <path d="M164.1,270.7 L64.2,270.7 C45.4,270.7 30.2,255.5 30.2,236.7 L30.2,44 C30.2,25.2 45.4,10 64.2,10 L164.1,10 C182.9,10 198.1,25.2 198.1,44 L198.1,236.8 C198,255.5 182.8,270.7 164.1,270.7 Z" id="Path" stroke-width="3.863" fill="#66666D"></path>
                    <path d="M163.9,270.8 L64,270.8 C45.2,270.8 30,255.6 30,236.8 L30,43.9 C30,25.1 45.2,9.9 64,9.9 L163.9,9.9 C182.7,9.9 197.9,25.1 197.9,43.9 L197.9,236.8 C197.9,255.6 182.7,270.8 163.9,270.8 Z" id="Path" stroke-width="3.8639" fill="#67676E"></path>
                    <path d="M163.8,270.9 L63.8,270.9 C45,270.9 29.8,255.7 29.8,236.9 L29.8,43.9 C29.8,25.1 45,9.9 63.8,9.9 L163.8,9.9 C182.6,9.9 197.8,25.1 197.8,43.9 L197.8,236.9 C197.8,255.6 182.6,270.9 163.8,270.9 Z" id="Path" stroke-width="3.8647" fill="#68676F"></path>
                    <path d="M163.7,270.9 L63.7,270.9 C44.9,270.9 29.7,255.7 29.7,236.9 L29.7,43.9 C29.7,25.1 44.9,9.9 63.7,9.9 L163.7,9.9 C182.5,9.9 197.7,25.1 197.7,43.9 L197.7,237 C197.7,255.7 182.5,270.9 163.7,270.9 Z" id="Path" stroke-width="3.8656" fill="#68686F"></path>
                    <path d="M163.5,271 L63.4,271 C44.6,271 29.4,255.8 29.4,237 L29.4,43.8 C29.4,25 44.6,9.8 63.4,9.8 L163.5,9.8 C182.3,9.8 197.500487,25 197.500487,43.8 L197.500487,236.9 C197.6,255.7 182.3,271 163.5,271 Z" id="Path" stroke-width="3.8665" fill="#696970"></path>
                    <path d="M163.4,271 L63.3,271 C44.5,271 29.3,255.8 29.3,237 L29.3,43.8 C29.3,25 44.5,9.8 63.3,9.8 L163.4,9.8 C182.2,9.8 197.400487,25 197.400487,43.8 L197.400487,237 C197.5,255.8 182.2,271 163.4,271 Z" id="Path" stroke-width="3.8673" fill="#6A6971"></path>
                    <path d="M163.3,271.1 L63.2,271.1 C44.4,271.1 29.1,255.9 29.1,237 L29.1,43.7 C29.1,24.9 44.3,9.6 63.2,9.6 L163.3,9.6 C182.1,9.6 197.4,24.8 197.4,43.7 L197.4,237 C197.3,255.8 182.1,271.1 163.3,271.1 Z" id="Path" stroke-width="3.8682" fill="#6A6A71"></path>
                    <path d="M163.2,271.1 L63,271.1 C44.2,271.1 28.9,255.8 28.9,237 L28.9,43.7 C28.9,24.9 44.2,9.6 63,9.6 L163.2,9.6 C182,9.6 197.3,24.9 197.3,43.7 L197.3,237.1 C197.2,255.9 182,271.1 163.2,271.1 Z" id="Path" stroke-width="3.8691" fill="#6B6B72"></path>
                    <path d="M163,271.2 L62.8,271.2 C44,271.2 28.7,255.9 28.7,237.1 L28.7,43.6 C28.7,24.8 44,9.5 62.8,9.5 L163,9.5 C181.8,9.5 197.1,24.8 197.1,43.6 L197.1,237.1 C197.1,255.9 181.9,271.2 163,271.2 Z" id="Path" stroke-width="3.8699" fill="#6C6B73"></path>
                    <path d="M162.9,271.3 L62.6,271.3 C43.8,271.3 28.5,256 28.5,237.2 L28.5,43.6 C28.5,24.8 43.8,9.5 62.6,9.5 L162.9,9.5 C181.7,9.5 197,24.8 197,43.6 L197,237.2 C197,256 181.7,271.3 162.9,271.3 Z" id="Path" stroke-width="3.8708" fill="#6C6C73"></path>
                    <path d="M162.8,271.3 L62.5,271.3 C43.7,271.3 28.4,256 28.4,237.2 L28.4,43.5 C28.4,24.7 43.7,9.4 62.5,9.4 L162.8,9.4 C181.6,9.4 196.9,24.7 196.9,43.5 L196.9,237.2 C196.9,256 181.6,271.3 162.8,271.3 Z" id="Path" stroke-width="3.8717" fill="#6D6D74"></path>
                    <path d="M162.6,271.4 L62.2,271.4 C43.3,271.4 28.1,256.1 28.1,237.3 L28.1,43.5 C28.1,24.6 43.4,9.4 62.2,9.4 L162.6,9.4 C181.5,9.4 196.700487,24.7 196.700487,43.5 L196.700487,237.2 C196.8,256.1 181.5,271.4 162.6,271.4 Z" id="Path" stroke-width="3.8725" fill="#6E6E75"></path>
                    <path d="M162.5,271.4 L62.1,271.4 C43.2,271.4 27.9,256.1 27.9,237.2 L27.9,43.4 C27.9,24.5 43.2,9.2 62.1,9.2 L162.5,9.2 C181.4,9.2 196.7,24.5 196.7,43.4 L196.7,237.2 C196.7,256.1 181.4,271.4 162.5,271.4 Z" id="Path" stroke-width="3.8734" fill="#6F6E75"></path>
                    <path d="M162.4,271.5 L61.9,271.5 C43,271.5 27.7,256.2 27.7,237.3 L27.7,43.4 C27.7,24.5 43,9.2 61.9,9.2 L162.4,9.2 C181.3,9.2 196.6,24.5 196.6,43.4 L196.6,237.3 C196.5,256.2 181.2,271.5 162.4,271.5 Z" id="Path" stroke-width="3.8743" fill="#6F6F76"></path>
                    <path d="M162.2,271.5 L61.7,271.5 C42.8,271.5 27.5,256.2 27.5,237.3 L27.5,43.3 C27.5,24.4 42.8,9.1 61.7,9.1 L162.2,9.1 C181.1,9.1 196.4,24.4 196.4,43.3 L196.4,237.3 C196.4,256.2 181.1,271.5 162.2,271.5 Z" id="Path" stroke-width="3.8751" fill="#707077"></path>
                    <path d="M162.1,271.6 L61.5,271.6 C42.6,271.6 27.3,256.3 27.3,237.4 L27.3,43.3 C27.3,24.4 42.6,9.1 61.5,9.1 L162.1,9.1 C181,9.1 196.3,24.4 196.3,43.3 L196.3,237.4 C196.3,256.3 181,271.6 162.1,271.6 Z" id="Path" stroke-width="3.876" fill="#717078"></path>
                    <path d="M162,271.7 L61.4,271.7 C42.5,271.7 27.2,256.4 27.2,237.5 L27.2,43.3 C27.2,24.4 42.5,9.1 61.4,9.1 L162,9.1 C180.9,9.1 196.2,24.4 196.2,43.3 L196.2,237.5 C196.2,256.3 180.9,271.7 162,271.7 Z" id="Path" stroke-width="3.8769" fill="#717178"></path>
                    <path d="M161.9,271.7 L61.3,271.7 C42.4,271.7 27.1,256.4 27.1,237.5 L27.1,43.2 C27.1,24.3 42.4,9 61.3,9 L161.9,9 C180.8,9 196.1,24.3 196.1,43.2 L196.1,237.5 C196.1,256.4 180.8,271.7 161.9,271.7 Z" id="Path" stroke-width="3.8777" fill="#727279"></path>
                    <path d="M161.7,271.8 L61,271.8 C42.1,271.8 26.8,256.5 26.8,237.6 L26.8,43.2 C26.8,24.3 42.1,9 61,9 L161.7,9 C180.6,9 195.900484,24.3 195.900484,43.2 L195.900484,237.6 C196,256.4 180.6,271.8 161.7,271.8 Z" id="Path" stroke-width="3.8786" fill="#73737A"></path>
                    <path d="M161.6,271.8 L60.9,271.8 C42,271.8 26.6,256.5 26.6,237.5 L26.6,43.1 C26.6,24.2 41.9,8.8 60.9,8.8 L161.6,8.8 C180.5,8.8 195.9,24.1 195.9,43.1 L195.9,237.5 C195.9,256.5 180.5,271.8 161.6,271.8 Z" id="Path" stroke-width="3.8795" fill="#74737A"></path>
                    <path d="M161.5,271.9 L60.7,271.9 C41.8,271.9 26.4,256.6 26.4,237.6 L26.4,43.1 C26.4,24.2 41.7,8.8 60.7,8.8 L161.5,8.8 C180.4,8.8 195.8,24.1 195.8,43.1 L195.8,237.6 C195.7,256.5 180.4,271.9 161.5,271.9 Z" id="Path" stroke-width="3.8803" fill="#74747B"></path>
                    <path d="M161.3,271.9 L60.5,271.9 C41.6,271.9 26.2,256.5 26.2,237.6 L26.2,43 C26.2,24.1 41.6,8.7 60.5,8.7 L161.3,8.7 C180.2,8.7 195.6,24.1 195.6,43 L195.6,237.6 C195.6,256.6 180.3,271.9 161.3,271.9 Z" id="Path" stroke-width="3.8812" fill="#75757C"></path>
                    <path d="M161.2,272 L60.3,272 C41.4,272 26,256.6 26,237.7 L26,43 C26,24.1 41.4,8.7 60.3,8.7 L161.2,8.7 C180.1,8.7 195.5,24.1 195.5,43 L195.5,237.7 C195.5,256.6 180.2,272 161.2,272 Z" id="Path" stroke-width="3.8821" fill="#76757C"></path>
                    <path d="M161.1,272.1 L60.2,272.1 C41.2,272.1 25.9,256.7 25.9,237.8 L25.9,42.9 C25.9,23.9 41.3,8.6 60.2,8.6 L161.1,8.6 C180.1,8.6 195.4,24 195.4,42.9 L195.4,237.7 C195.4,256.7 180,272.1 161.1,272.1 Z" id="Path" stroke-width="3.8829" fill="#77767D"></path>
                    <path d="M161,272.1 L60,272.1 C41,272.1 25.7,256.7 25.7,237.8 L25.7,42.9 C25.7,23.9 41.1,8.6 60,8.6 L161,8.6 C180,8.6 195.3,24 195.3,42.9 L195.3,237.8 C195.3,256.7 179.9,272.1 161,272.1 Z" id="Path" stroke-width="3.8838" fill="#78777E"></path>
                    <path d="M160.8,272.2 L59.8,272.2 C40.8,272.2 25.4,256.8 25.4,237.8 L25.4,42.8 C25.4,23.8 40.8,8.4 59.8,8.4 L160.8,8.4 C179.8,8.4 195.2,23.8 195.2,42.8 L195.2,237.8 C195.2,256.8 179.8,272.2 160.8,272.2 Z" id="Path" stroke-width="3.8847" fill="#78787F"></path>
                    <path d="M160.7,272.2 L59.7,272.2 C40.7,272.2 25.3,256.8 25.3,237.8 L25.3,42.8 C25.3,23.8 40.7,8.4 59.7,8.4 L160.7,8.4 C179.7,8.4 195.1,23.8 195.1,42.8 L195.1,237.9 C195.1,256.8 179.7,272.2 160.7,272.2 Z" id="Path" stroke-width="3.8855" fill="#79787F"></path>
                    <path d="M160.6,272.3 L59.5,272.3 C40.5,272.3 25.1,256.9 25.1,237.9 L25.1,42.8 C25.1,23.8 40.5,8.4 59.5,8.4 L160.6,8.4 C179.6,8.4 195,23.8 195,42.8 L195,237.9 C194.9,256.9 179.6,272.3 160.6,272.3 Z" id="Path" stroke-width="3.8864" fill="#7A7980"></path>
                    <path d="M160.4,272.3 L59.3,272.3 C40.3,272.3 24.9,256.9 24.9,237.9 L24.9,42.7 C24.9,23.7 40.3,8.3 59.3,8.3 L160.4,8.3 C179.4,8.3 194.8,23.7 194.8,42.7 L194.8,237.9 C194.8,256.9 179.4,272.3 160.4,272.3 Z" id="Path" stroke-width="3.8873" fill="#7B7A81"></path>
                    <path d="M160.3,272.4 L59.1,272.4 C40.1,272.4 24.7,257 24.7,238 L24.7,42.7 C24.7,23.7 40.1,8.3 59.1,8.3 L160.3,8.3 C179.3,8.3 194.7,23.7 194.7,42.7 L194.7,238 C194.7,257 179.3,272.4 160.3,272.4 Z" id="Path" stroke-width="3.8881" fill="#7B7B82"></path>
                    <path d="M160.2,272.5 L59,272.5 C40,272.5 24.6,257.1 24.6,238.1 L24.6,42.6 C24.6,23.6 40,8.2 59,8.2 L160.2,8.2 C179.2,8.2 194.6,23.6 194.6,42.6 L194.6,238 C194.6,257 179.2,272.5 160.2,272.5 Z" id="Path" stroke-width="3.889" fill="#7C7C82"></path>
                    <path d="M160,272.5 L58.7,272.5 C39.7,272.5 24.3,257.1 24.3,238.1 L24.3,42.6 C24.3,23.6 39.7,8.2 58.7,8.2 L160,8.2 C179,8.2 194.400484,23.6 194.400484,42.6 L194.400484,238.1 C194.5,257.1 179.1,272.5 160,272.5 Z" id="Path" stroke-width="3.8899" fill="#7D7C83"></path>
                    <path d="M159.9,272.6 L58.6,272.6 C39.6,272.6 24.1,257.2 24.1,238.1 L24.1,42.5 C24.1,23.5 39.5,8 58.6,8 L159.9,8 C178.9,8 194.4,23.4 194.4,42.5 L194.4,238.1 C194.4,257.1 178.9,272.6 159.9,272.6 Z" id="Path" stroke-width="3.8907" fill="#7E7D84"></path>
                    <path d="M159.8,272.6 L58.4,272.6 C39.4,272.6 23.9,257.2 23.9,238.1 L23.9,42.5 C23.9,23.5 39.3,8 58.4,8 L159.8,8 C178.8,8 194.3,23.4 194.3,42.5 L194.3,238.2 C194.3,257.2 178.8,272.6 159.8,272.6 Z" id="Path" stroke-width="3.8916" fill="#7F7E85"></path>
                    <path d="M159.7,272.7 L58.3,272.7 C39.3,272.7 23.8,257.3 23.8,238.2 L23.8,42.4 C23.8,23.4 39.2,7.9 58.3,7.9 L159.7,7.9 C178.7,7.9 194.2,23.3 194.2,42.4 L194.2,238.1 C194.1,257.2 178.7,272.7 159.7,272.7 Z" id="Path" stroke-width="3.8925" fill="#7F7F85"></path>
                    <path d="M159.5,272.7 L58,272.7 C38.9,272.7 23.5,257.3 23.5,238.2 L23.5,42.4 C23.5,23.3 38.9,7.9 58,7.9 L159.5,7.9 C178.6,7.9 194,23.3 194,42.4 L194,238.2 C194,257.3 178.6,272.7 159.5,272.7 Z" id="Path" stroke-width="3.8933" fill="#807F86"></path>
                    <path d="M159.4,272.8 L57.9,272.8 C38.8,272.8 23.4,257.3 23.4,238.3 L23.4,42.4 C23.4,23.3 38.9,7.9 57.9,7.9 L159.4,7.9 C178.5,7.9 193.9,23.4 193.9,42.4 L193.9,238.3 C193.9,257.3 178.5,272.8 159.4,272.8 Z" id="Path" stroke-width="3.8942" fill="#818087"></path>
                    <path d="M159.3,272.9 L57.8,272.9 C38.7,272.9 23.3,257.4 23.3,238.4 L23.3,42.4 C23.3,23.3 38.8,7.9 57.8,7.9 L159.3,7.9 C178.4,7.9 193.8,23.4 193.8,42.4 L193.8,238.4 C193.8,257.4 178.3,272.9 159.3,272.9 Z" id="Path" stroke-width="3.8951" fill="#828188"></path>
                    <path d="M159.1,272.9 L57.5,272.9 C38.4,272.9 22.9,257.4 22.9,238.3 L22.9,42.3 C22.9,23.2 38.4,7.7 57.5,7.7 L159.1,7.7 C178.2,7.7 193.7,23.2 193.7,42.3 L193.7,238.4 C193.7,257.4 178.2,272.9 159.1,272.9 Z" id="Path" stroke-width="3.8959" fill="#838288"></path>
                    <path d="M159,273 L57.4,273 C38.3,273 22.8,257.5 22.8,238.4 L22.8,42.2 C22.8,23.1 38.3,7.6 57.4,7.6 L159,7.6 C178.1,7.6 193.6,23.1 193.6,42.2 L193.6,238.4 C193.6,257.5 178.1,273 159,273 Z" id="Path" stroke-width="3.8968" fill="#838389"></path>
                    <path d="M158.9,273 L57.2,273 C38.1,273 22.6,257.5 22.6,238.4 L22.6,42.2 C22.6,23.1 38.1,7.6 57.2,7.6 L158.9,7.6 C178,7.6 193.5,23.1 193.5,42.2 L193.5,238.5 C193.5,257.5 178,273 158.9,273 Z" id="Path" stroke-width="3.8977" fill="#84838A"></path>
                    <path d="M158.8,273.1 L57,273.1 C37.9,273.1 22.4,257.6 22.4,238.5 L22.4,42.1 C22.4,23 37.9,7.5 57,7.5 L158.7,7.5 C177.8,7.5 193.3,23 193.3,42.1 L193.3,238.5 C193.3,257.6 177.9,273.1 158.8,273.1 Z" id="Path" stroke-width="3.8985" fill="#85848B"></path>
                    <path d="M158.6,273.1 L56.8,273.1 C37.7,273.1 22.2,257.6 22.2,238.5 L22.2,42.1 C22.2,23 37.7,7.5 56.8,7.5 L158.6,7.5 C177.7,7.5 193.2,23 193.2,42.1 L193.2,238.5 C193.2,257.6 177.7,273.1 158.6,273.1 Z" id="Path" stroke-width="3.8994" fill="#86858B"></path>
                    <path d="M158.5,273.2 L56.7,273.2 C37.6,273.2 22.1,257.7 22.1,238.6 L22.1,42 C22.1,22.9 37.6,7.4 56.7,7.4 L158.5,7.4 C177.6,7.4 193.1,22.9 193.1,42 L193.1,238.5 C193.1,257.7 177.6,273.2 158.5,273.2 Z" id="Path" stroke-width="3.9003" fill="#87868C"></path>
                    <path d="M158.4,273.3 L56.5,273.3 C37.4,273.3 21.9,257.8 21.9,238.7 L21.9,42 C21.9,22.9 37.4,7.4 56.5,7.4 L158.4,7.4 C177.5,7.4 193,22.9 193,42 L193,238.6 C193,257.7 177.5,273.3 158.4,273.3 Z" id="Path" stroke-width="3.9011" fill="#87868D"></path>
                    <path d="M158.2,273.3 L56.3,273.3 C37.2,273.3 21.6,257.8 21.6,238.6 L21.6,42 C21.6,22.9 37.1,7.3 56.3,7.3 L158.2,7.3 C177.3,7.3 192.9,22.8 192.9,42 L192.9,238.7 C192.9,257.8 177.4,273.3 158.2,273.3 Z" id="Path" stroke-width="3.902" fill="#88878E"></path>
                    <path d="M158.1,273.4 L56.2,273.4 C37,273.4 21.5,257.9 21.5,238.7 L21.5,41.9 C21.5,22.7 37,7.2 56.2,7.2 L158.1,7.2 C177.3,7.2 192.8,22.7 192.8,41.9 L192.8,238.7 C192.8,257.8 177.3,273.4 158.1,273.4 Z" id="Path" stroke-width="3.9029" fill="#89888E"></path>
                    <path d="M158,273.4 L56,273.4 C36.8,273.4 21.3,257.9 21.3,238.7 L21.3,41.9 C21.3,22.7 36.8,7.2 56,7.2 L158,7.2 C177.2,7.2 192.7,22.7 192.7,41.9 L192.7,238.8 C192.7,257.9 177.1,273.4 158,273.4 Z" id="Path" stroke-width="3.9038" fill="#8A898F"></path>
                    <path d="M157.8,273.5 L55.8,273.5 C36.6,273.5 21.1,258 21.1,238.8 L21.1,41.8 C21.1,22.6 36.6,7.1 55.8,7.1 L157.8,7.1 C177,7.1 192.5,22.6 192.5,41.8 L192.5,238.8 C192.5,257.9 177,273.5 157.8,273.5 Z" id="Path" stroke-width="3.9046" fill="#8B8A90"></path>
                    <path d="M157.7,273.5 L55.6,273.5 C36.4,273.5 20.9,258 20.9,238.8 L20.9,41.8 C20.9,22.6 36.4,7.1 55.6,7.1 L157.7,7.1 C176.9,7.1 192.4,22.6 192.4,41.8 L192.4,238.9 C192.4,258 176.9,273.5 157.7,273.5 Z" id="Path" stroke-width="3.9055" fill="#8B8B91"></path>
                    <path d="M157.6,273.6 L55.5,273.6 C36.3,273.6 20.8,258 20.8,238.9 L20.8,41.7 C20.8,22.5 36.4,7 55.5,7 L157.6,7 C176.8,7 192.3,22.6 192.3,41.7 L192.3,238.8 C192.3,258 176.8,273.6 157.6,273.6 Z" id="Path" stroke-width="3.9064" fill="#8C8B92"></path>
                    <path d="M157.5,273.7 L55.3,273.7 C36.1,273.7 20.5,258.1 20.5,238.9 L20.5,41.7 C20.5,22.5 36.1,6.9 55.3,6.9 L157.5,6.9 C176.7,6.9 192.3,22.5 192.3,41.7 L192.3,238.9 C192.2,258.1 176.6,273.7 157.5,273.7 Z" id="Path" stroke-width="3.9072" fill="#8D8C92"></path>
                    <path d="M157.3,273.7 L55.1,273.7 C35.9,273.7 20.3,258.1 20.3,238.9 L20.3,41.6 C20.3,22.4 35.9,6.8 55.1,6.8 L157.3,6.8 C176.5,6.8 192.1,22.4 192.1,41.6 L192.1,238.9 C192.1,258.1 176.5,273.7 157.3,273.7 Z" id="Path" stroke-width="3.9081" fill="#8E8D93"></path>
                    <path d="M157.2,273.8 L54.9,273.8 C35.7,273.8 20.1,258.2 20.1,239 L20.1,41.6 C20.1,22.4 35.7,6.8 54.9,6.8 L157.2,6.8 C176.4,6.8 192,22.4 192,41.6 L192,239 C192,258.2 176.4,273.8 157.2,273.8 Z" id="Path" stroke-width="3.909" fill="#8F8E94"></path>
                    <path d="M157.1,273.8 L54.8,273.8 C35.6,273.8 20,258.2 20,239 L20,41.5 C20,22.3 35.6,6.7 54.8,6.7 L157.1,6.7 C176.3,6.7 191.9,22.3 191.9,41.5 L191.9,239 C191.9,258.2 176.3,273.8 157.1,273.8 Z" id="Path" stroke-width="3.9098" fill="#908F95"></path>
                    <path d="M156.9,273.9 L54.5,273.9 C35.3,273.9 19.7,258.3 19.7,239.1 L19.7,41.5 C19.7,22.3 35.3,6.7 54.5,6.7 L156.9,6.7 C176.1,6.7 191.7,22.3 191.7,41.5 L191.7,239.1 C191.7,258.3 176.2,273.9 156.9,273.9 Z" id="Path" stroke-width="3.9107" fill="#909095"></path>
                    <path d="M156.8,273.9 L54.4,273.9 C35.2,273.9 19.6,258.3 19.6,239.1 L19.6,41.5 C19.6,22.3 35.2,6.7 54.4,6.7 L156.8,6.7 C176,6.7 191.6,22.3 191.6,41.5 L191.6,239.2 C191.6,258.3 176,273.9 156.8,273.9 Z" id="Path" stroke-width="3.9116" fill="#919096"></path>
                    <path d="M156.7,274 L54.3,274 C35.1,274 19.5,258.4 19.5,239.2 L19.5,41.4 C19.5,22.2 35.1,6.6 54.3,6.6 L156.7,6.6 C175.9,6.6 191.5,22.2 191.5,41.4 L191.5,239.1 C191.5,258.4 175.9,274 156.7,274 Z" id="Path" stroke-width="3.9124" fill="#929197"></path>
                    <path d="M156.5,274.1 L54,274.1 C34.7,274.1 19.1,258.5 19.1,239.2 L19.1,41.4 C19.1,22.1 34.7,6.5 54,6.5 L156.5,6.5 C175.8,6.5 191.4,22.1 191.4,41.4 L191.4,239.2 C191.4,258.4 175.8,274.1 156.5,274.1 Z" id="Path" stroke-width="3.9133" fill="#939298"></path>
                    <path d="M156.4,274.1 L53.9,274.1 C34.6,274.1 19,258.5 19,239.2 L19,41.3 C19,22 34.6,6.4 53.9,6.4 L156.4,6.4 C175.7,6.4 191.3,22 191.3,41.3 L191.3,239.2 C191.3,258.5 175.7,274.1 156.4,274.1 Z" id="Path" stroke-width="3.9142" fill="#949399"></path>
                    <path d="M156.3,274.2 L53.7,274.2 C34.4,274.2 18.8,258.6 18.8,239.3 L18.8,41.3 C18.8,22 34.4,6.4 53.7,6.4 L156.3,6.4 C175.6,6.4 191.2,22 191.2,41.3 L191.2,239.3 C191.2,258.5 175.6,274.2 156.3,274.2 Z" id="Path" stroke-width="3.915" fill="#959499"></path>
                    <path d="M156.2,274.2 L53.6,274.2 C34.3,274.2 18.7,258.6 18.7,239.3 L18.7,41.2 C18.7,21.9 34.3,6.3 53.6,6.3 L156.2,6.3 C175.5,6.3 191.1,21.9 191.1,41.2 L191.1,239.3 C191.1,258.6 175.4,274.2 156.2,274.2 Z" id="Path" stroke-width="3.9159" fill="#96949A"></path>
                    <path d="M156,274.3 L53.3,274.3 C34,274.3 18.4,258.7 18.4,239.4 L18.4,41.2 C18.4,21.9 34,6.3 53.3,6.3 L156,6.3 C175.3,6.3 190.9,21.9 190.9,41.2 L190.9,239.4 C190.9,258.7 175.3,274.3 156,274.3 Z" id="Path" stroke-width="3.9168" fill="#96959B"></path>
                    <path d="M155.9,274.3 L53.2,274.3 C33.9,274.3 18.3,258.7 18.3,239.4 L18.3,41.1 C18.3,21.8 33.9,6.2 53.2,6.2 L155.9,6.2 C175.2,6.2 190.8,21.8 190.8,41.1 L190.8,239.4 C190.8,258.7 175.2,274.3 155.9,274.3 Z" id="Path" stroke-width="3.9176" fill="#97969C"></path>
                    <path d="M155.8,274.4 L53,274.4 C33.7,274.4 18,258.8 18,239.4 L18,41.1 C18,21.8 33.6,6.1 53,6.1 L155.8,6.1 C175.1,6.1 190.8,21.7 190.8,41.1 L190.8,239.5 C190.7,258.8 175.1,274.4 155.8,274.4 Z" id="Path" stroke-width="3.9185" fill="#98979D"></path>
                    <path d="M155.6,274.5 L52.8,274.5 C33.5,274.5 17.8,258.8 17.8,239.5 L17.8,41 C17.8,21.7 33.5,6 52.8,6 L155.6,6 C174.9,6 190.6,21.7 190.6,41 L190.6,239.4 C190.6,258.8 175,274.5 155.6,274.5 Z" id="Path" stroke-width="3.9194" fill="#99989D"></path>
                    <path d="M155.5,274.5 L52.6,274.5 C33.3,274.5 17.6,258.8 17.6,239.5 L17.6,41 C17.6,21.7 33.3,6 52.6,6 L155.5,6 C174.8,6 190.5,21.7 190.5,41 L190.5,239.5 C190.5,258.9 174.8,274.5 155.5,274.5 Z" id="Path" stroke-width="3.9202" fill="#9A999E"></path>
                    <path d="M155.4,274.6 L52.5,274.6 C33.2,274.6 17.5,258.9 17.5,239.6 L17.5,41 C17.5,21.7 33.2,6 52.5,6 L155.4,6 C174.7,6 190.4,21.7 190.4,41 L190.4,239.6 C190.4,258.9 174.7,274.6 155.4,274.6 Z" id="Path" stroke-width="3.9211" fill="#9B9A9F"></path>
                    <path d="M155.3,274.6 L52.4,274.6 C33.1,274.6 17.4,258.9 17.4,239.6 L17.4,40.9 C17.4,21.6 33.1,5.9 52.4,5.9 L155.3,5.9 C174.6,5.9 190.3,21.6 190.3,40.9 L190.3,239.6 C190.3,259 174.6,274.6 155.3,274.6 Z" id="Path" stroke-width="3.922" fill="#9C9AA0"></path>
                    <path d="M155.1,274.7 L52.1,274.7 C32.8,274.7 17.1,259 17.1,239.7 L17.1,40.9 C17.1,21.6 32.8,5.9 52.1,5.9 L155.1,5.9 C174.4,5.9 190.1,21.6 190.1,40.9 L190.1,239.7 C190.1,259 174.5,274.7 155.1,274.7 Z" id="Path" stroke-width="3.9228" fill="#9C9BA1"></path>
                    <path d="M155,274.7 L52,274.7 C32.6,274.7 17,259 17,239.7 L17,40.8 C17,21.4 32.7,5.8 52,5.8 L155,5.8 C174.4,5.8 190,21.5 190,40.8 L190,239.7 C190,259.1 174.3,274.7 155,274.7 Z" id="Path" stroke-width="3.9237" fill="#9D9CA2"></path>
                    <path d="M154.9,274.8 L51.8,274.8 C32.4,274.8 16.7,259.1 16.7,239.7 L16.7,40.7 C16.7,21.3 32.4,5.6 51.8,5.6 L154.9,5.6 C174.3,5.6 190,21.3 190,40.7 L190,239.7 C189.9,259.1 174.2,274.8 154.9,274.8 Z" id="Path" stroke-width="3.9246" fill="#9E9DA2"></path>
                    <path d="M154.7,274.9 L51.6,274.9 C32.2,274.9 16.5,259.2 16.5,239.8 L16.5,40.7 C16.5,21.3 32.2,5.6 51.6,5.6 L154.7,5.6 C174.1,5.6 189.8,21.3 189.8,40.7 L189.8,239.8 C189.8,259.2 174.1,274.9 154.7,274.9 Z" id="Path" stroke-width="3.9254" fill="#9F9EA3"></path>
                    <path d="M154.6,274.9 L51.4,274.9 C32,274.9 16.3,259.2 16.3,239.8 L16.3,40.7 C16.3,21.3 32,5.6 51.4,5.6 L154.6,5.6 C174,5.6 189.7,21.3 189.7,40.7 L189.7,239.8 C189.7,259.2 174,274.9 154.6,274.9 Z" id="Path" stroke-width="3.9263" fill="#A09FA4"></path>
                    <path d="M154.5,275 L51.3,275 C31.9,275 16.2,259.3 16.2,239.9 L16.2,40.6 C16.2,21.2 31.9,5.5 51.3,5.5 L154.5,5.5 C173.9,5.5 189.6,21.2 189.6,40.6 L189.6,239.8 C189.6,259.3 173.9,275 154.5,275 Z" id="Path" stroke-width="3.9272" fill="#A1A0A5"></path>
                    <path d="M154.3,275 L51,275 C31.6,275 15.9,259.3 15.9,239.9 L15.9,40.6 C15.9,21.2 31.6,5.5 51,5.5 L154.3,5.5 C173.7,5.5 189.400472,21.2 189.400472,40.6 L189.400472,239.9 C189.5,259.3 173.7,275 154.3,275 Z" id="Path" stroke-width="3.928" fill="#A2A1A6"></path>
                    <path d="M154.2,275.1 L50.9,275.1 C31.5,275.1 15.8,259.4 15.8,240 L15.8,40.5 C15.8,21.1 31.5,5.4 50.9,5.4 L154.2,5.4 C173.6,5.4 189.3,21.1 189.3,40.5 L189.3,239.9 C189.3,259.4 173.6,275.1 154.2,275.1 Z" id="Path" stroke-width="3.9289" fill="#A3A1A7"></path>
                    <path d="M154.1,275.1 L50.8,275.1 C31.4,275.1 15.7,259.4 15.7,240 L15.7,40.5 C15.7,21.1 31.4,5.4 50.8,5.4 L154.1,5.4 C173.5,5.4 189.2,21.1 189.2,40.5 L189.2,240 C189.2,259.4 173.5,275.1 154.1,275.1 Z" id="Path" stroke-width="3.9298" fill="#A4A2A7"></path>
                    <path d="M154,275.2 L50.6,275.2 C31.2,275.2 15.4,259.5 15.4,240 L15.4,40.5 C15.4,21.1 31.1,5.3 50.6,5.3 L154,5.3 C173.4,5.3 189.2,21 189.2,40.5 L189.2,240 C189.1,259.5 173.4,275.2 154,275.2 Z" id="Path" stroke-width="3.9306" fill="#A4A3A8"></path>
                    <path d="M153.8,275.3 L50.4,275.3 C31,275.3 15.2,259.5 15.2,240.1 L15.2,40.4 C15.2,21 31,5.2 50.4,5.2 L153.8,5.2 C173.2,5.2 189,21 189,40.4 L189,240.1 C189,259.5 173.3,275.3 153.8,275.3 Z" id="Path" stroke-width="3.9315" fill="#A5A4A9"></path>
                    <path d="M153.7,275.3 L50.2,275.3 C30.8,275.3 15,259.5 15,240.1 L15,40.4 C15,21 30.8,5.2 50.2,5.2 L153.7,5.2 C173.1,5.2 188.9,21 188.9,40.4 L188.9,240.1 C188.9,259.6 173.1,275.3 153.7,275.3 Z" id="Path" stroke-width="3.9324" fill="#A6A5AA"></path>
                    <path d="M153.6,275.4 L50,275.4 C30.6,275.4 14.8,259.6 14.8,240.2 L14.8,40.3 C14.8,20.9 30.6,5.1 50,5.1 L153.5,5.1 C172.9,5.1 188.700472,20.9 188.700472,40.3 L188.700472,240.1 C188.8,259.6 173,275.4 153.6,275.4 Z" id="Path" stroke-width="3.9332" fill="#A7A6AB"></path>
                    <path d="M153.4,275.4 L49.8,275.4 C30.3,275.4 14.6,259.6 14.6,240.2 L14.6,40.3 C14.6,20.8 30.4,5.1 49.8,5.1 L153.4,5.1 C172.9,5.1 188.600472,20.9 188.600472,40.3 L188.600472,240.2 C188.7,259.7 172.9,275.4 153.4,275.4 Z" id="Path" stroke-width="3.9341" fill="#A8A7AC"></path>
                    <path d="M153.3,275.5 L49.7,275.5 C30.2,275.5 14.5,259.7 14.5,240.3 L14.5,40.3 C14.5,20.8 30.3,5.1 49.7,5.1 L153.3,5.1 C172.8,5.1 188.500472,20.9 188.500472,40.3 L188.500472,240.3 C188.6,259.7 172.8,275.5 153.3,275.5 Z" id="Path" stroke-width="3.935" fill="#A9A8AC"></path>
                    <path d="M153.2,275.5 L49.5,275.5 C30,275.5 14.2,259.7 14.2,240.2 L14.2,40.2 C14.2,20.7 30,4.9 49.5,4.9 L153.2,4.9 C172.7,4.9 188.5,20.7 188.5,40.2 L188.5,240.3 C188.4,259.8 172.7,275.5 153.2,275.5 Z" id="Path" stroke-width="3.9358" fill="#AAA9AD"></path>
                    <path d="M153,275.6 L49.3,275.6 C29.8,275.6 14,259.8 14,240.3 L14,40.1 C14,20.6 29.8,4.8 49.3,4.8 L153,4.8 C172.5,4.8 188.3,20.6 188.3,40.1 L188.3,240.3 C188.3,259.8 172.5,275.6 153,275.6 Z" id="Path" stroke-width="3.9367" fill="#ABAAAE"></path>
                    <path d="M152.9,275.7 L49.1,275.7 C29.6,275.7 13.8,259.9 13.8,240.4 L13.8,40.1 C13.8,20.6 29.6,4.8 49.1,4.8 L152.9,4.8 C172.4,4.8 188.2,20.6 188.2,40.1 L188.2,240.4 C188.2,259.9 172.4,275.7 152.9,275.7 Z" id="Path" stroke-width="3.9376" fill="#ACAAAF"></path>
                    <path d="M152.8,275.7 L49,275.7 C29.5,275.7 13.7,259.9 13.7,240.4 L13.7,40.1 C13.7,20.6 29.5,4.8 49,4.8 L152.8,4.8 C172.3,4.8 188.1,20.6 188.1,40.1 L188.1,240.5 C188.1,259.9 172.3,275.7 152.8,275.7 Z" id="Path" stroke-width="3.9384" fill="#ADABB0"></path>
                    <path d="M152.7,275.8 L48.9,275.8 C29.4,275.8 13.6,260 13.6,240.5 L13.6,40 C13.6,20.5 29.4,4.7 48.9,4.7 L152.7,4.7 C172.2,4.7 188,20.5 188,40 L188,240.4 C188,260 172.2,275.8 152.7,275.8 Z" id="Path" stroke-width="3.9393" fill="#AEACB1"></path>
                    <path d="M152.5,275.8 L48.6,275.8 C29.1,275.8 13.3,260 13.3,240.5 L13.3,40 C13.3,20.5 29.1,4.7 48.6,4.7 L152.5,4.7 C172,4.7 187.800469,20.5 187.800469,40 L187.800469,240.5 C187.9,260 172,275.8 152.5,275.8 Z" id="Path" stroke-width="3.9402" fill="#AFADB2"></path>
                    <path d="M152.4,275.9 L48.5,275.9 C29,275.9 13.2,260.1 13.2,240.6 L13.2,39.9 C13.2,20.4 29,4.6 48.5,4.6 L152.4,4.6 C171.9,4.6 187.700469,20.4 187.700469,39.9 L187.700469,240.5 C187.8,260.1 171.9,275.9 152.4,275.9 Z" id="Path" stroke-width="3.941" fill="#AFAEB3"></path>
                    <path d="M152.3,275.9 L48.3,275.9 C28.8,275.9 12.9,260.1 12.9,240.5 L12.9,39.9 C12.9,20.4 28.7,4.5 48.3,4.5 L152.3,4.5 C171.8,4.5 187.7,20.3 187.7,39.9 L187.7,240.6 C187.6,260.1 171.8,275.9 152.3,275.9 Z" id="Path" stroke-width="3.9419" fill="#B0AFB3"></path>
                    <path d="M152.1,276 L48.1,276 C28.6,276 12.7,260.2 12.7,240.6 L12.7,39.8 C12.7,20.3 28.5,4.4 48.1,4.4 L152.1,4.4 C171.6,4.4 187.5,20.2 187.5,39.8 L187.5,240.6 C187.5,260.2 171.7,276 152.1,276 Z" id="Path" stroke-width="3.9428" fill="#B1B0B4"></path>
                    <path d="M152,276.1 L47.9,276.1 C28.4,276.1 12.5,260.3 12.5,240.7 L12.5,39.8 C12.5,20.3 28.3,4.4 47.9,4.4 L152,4.4 C171.5,4.4 187.4,20.2 187.4,39.8 L187.4,240.7 C187.4,260.2 171.6,276.1 152,276.1 Z" id="Path" stroke-width="3.9436" fill="#B2B1B5"></path>
                    <path d="M151.9,276.1 L47.8,276.1 C28.2,276.1 12.4,260.2 12.4,240.7 L12.4,39.7 C12.4,20.1 28.3,4.3 47.8,4.3 L151.9,4.3 C171.5,4.3 187.3,20.2 187.3,39.7 L187.3,240.7 C187.3,260.3 171.4,276.1 151.9,276.1 Z" id="Path" stroke-width="3.9445" fill="#B3B2B6"></path>
                    <path d="M151.8,276.2 L47.6,276.2 C28,276.2 12.2,260.3 12.2,240.8 L12.2,39.7 C12.2,20.1 28.1,4.3 47.6,4.3 L151.8,4.3 C171.4,4.3 187.2,20.2 187.2,39.7 L187.2,240.8 C187.2,260.3 171.3,276.2 151.8,276.2 Z" id="Path" stroke-width="3.9454" fill="#B4B3B7"></path>
                    <path d="M151.6,276.2 L47.4,276.2 C27.8,276.2 12,260.3 12,240.8 L12,39.6 C12,20 27.9,4.2 47.4,4.2 L151.6,4.2 C171.2,4.2 187.000469,20.1 187.000469,39.6 L187.000469,240.7 C187.1,260.4 171.2,276.2 151.6,276.2 Z" id="Path" stroke-width="3.9462" fill="#B5B4B8"></path>
                    <path d="M151.5,276.3 L47.3,276.3 C27.7,276.3 11.8,260.4 11.8,240.8 L11.8,39.6 C11.8,20 27.7,4.1 47.3,4.1 L151.5,4.1 C171.1,4.1 187,20 187,39.6 L187,240.8 C187,260.4 171.1,276.3 151.5,276.3 Z" id="Path" stroke-width="3.9471" fill="#B6B5B9"></path>
                    <path d="M151.4,276.3 L47.1,276.3 C27.5,276.3 11.6,260.4 11.6,240.8 L11.6,39.6 C11.6,20 27.5,4.1 47.1,4.1 L151.4,4.1 C171,4.1 186.9,20 186.9,39.6 L186.9,240.9 C186.8,260.5 171,276.3 151.4,276.3 Z" id="Path" stroke-width="3.948" fill="#B7B6BA"></path>
                    <path d="M151.2,276.4 L46.9,276.4 C27.3,276.4 11.4,260.5 11.4,240.9 L11.4,39.5 C11.4,19.9 27.3,4 46.9,4 L151.2,4 C170.8,4 186.7,19.9 186.7,39.5 L186.7,240.9 C186.7,260.5 170.8,276.4 151.2,276.4 Z" id="Path" stroke-width="3.9488" fill="#B8B7BB"></path>
                    <path d="M151.1,276.5 L46.7,276.5 C27.1,276.5 11.2,260.6 11.2,241 L11.2,39.5 C11.2,19.9 27.1,4 46.7,4 L151.1,4 C170.7,4 186.6,19.9 186.6,39.5 L186.6,241 C186.6,260.6 170.7,276.5 151.1,276.5 Z" id="Path" stroke-width="3.9497" fill="#B9B8BC"></path>
                    <path d="M151,276.5 L46.6,276.5 C27,276.5 11.1,260.6 11.1,241 L11.1,39.4 C11.1,19.8 27,3.9 46.6,3.9 L151,3.9 C170.6,3.9 186.5,19.8 186.5,39.4 L186.5,241 C186.5,260.6 170.6,276.5 151,276.5 Z" id="Path" stroke-width="3.9506" fill="#BAB9BD"></path>
                    <path d="M150.8,276.6 L46.3,276.6 C26.7,276.6 10.8,260.7 10.8,241.1 L10.8,39.4 C10.8,19.8 26.7,3.9 46.3,3.9 L150.8,3.9 C170.4,3.9 186.300469,19.8 186.300469,39.4 L186.300469,241 C186.4,260.7 170.5,276.6 150.8,276.6 Z" id="Path" stroke-width="3.9514" fill="#BBBABD"></path>
                    <path d="M150.7,276.6 L46.2,276.6 C26.6,276.6 10.7,260.7 10.7,241.1 L10.7,39.3 C10.7,19.7 26.6,3.8 46.2,3.8 L150.7,3.8 C170.3,3.8 186.200469,19.7 186.200469,39.3 L186.200469,241 C186.3,260.7 170.4,276.6 150.7,276.6 Z" id="Path" stroke-width="3.9523" fill="#BCBBBE"></path>
                    <path d="M150.6,276.7 L46,276.7 C26.4,276.7 10.4,260.8 10.4,241.1 L10.4,39.3 C10.4,19.7 26.3,3.7 46,3.7 L150.6,3.7 C170.2,3.7 186.2,19.6 186.2,39.3 L186.2,241.1 C186.2,260.8 170.2,276.7 150.6,276.7 Z" id="Path" stroke-width="3.9532" fill="#BDBCBF"></path>
                    <path d="M150.5,276.7 L45.9,276.7 C26.3,276.7 10.3,260.8 10.3,241.1 L10.3,39.2 C10.3,19.6 26.2,3.6 45.9,3.6 L150.5,3.6 C170.1,3.6 186.1,19.5 186.1,39.2 L186.1,241.1 C186,260.8 170.1,276.7 150.5,276.7 Z" id="Path" stroke-width="3.954" fill="#BEBDC0"></path>
                    <path d="M150.3,276.8 L45.6,276.8 C25.9,276.8 10,260.9 10,241.2 L10,39.2 C10,19.5 25.9,3.6 45.6,3.6 L150.3,3.6 C170,3.6 185.9,19.5 185.9,39.2 L185.9,241.2 C185.9,260.9 170,276.8 150.3,276.8 Z" id="Path" stroke-width="3.9549" fill="#BFBEC1"></path>
                    <path d="M150.2,276.9 L45.5,276.9 C25.8,276.9 9.9,261 9.9,241.3 L9.9,39.1 C9.9,19.4 25.8,3.5 45.5,3.5 L150.2,3.5 C169.9,3.5 185.8,19.4 185.8,39.1 L185.8,241.2 C185.8,260.9 169.9,276.9 150.2,276.9 Z" id="Path" stroke-width="3.9558" fill="#C0BFC2"></path>
                    <path d="M150.1,276.9 L45.4,276.9 C25.7,276.9 9.8,261 9.8,241.3 L9.8,39.1 C9.8,19.4 25.7,3.5 45.4,3.5 L150.1,3.5 C169.8,3.5 185.7,19.4 185.7,39.1 L185.7,241.3 C185.7,261 169.7,276.9 150.1,276.9 Z" id="Path" stroke-width="3.9566" fill="#C1C0C3"></path>
                    <path d="M149.9,277 L45.1,277 C25.4,277 9.5,261 9.5,241.4 L9.5,39.1 C9.5,19.4 25.5,3.5 45.1,3.5 L149.9,3.5 C169.6,3.5 185.500466,19.5 185.500466,39.1 L185.500466,241.4 C185.6,261 169.6,277 149.9,277 Z" id="Path" stroke-width="3.9575" fill="#C2C1C4"></path>
                    <path d="M149.8,277 L45,277 C25.3,277 9.3,261 9.3,241.3 L9.3,39 C9.3,19.3 25.3,3.3 45,3.3 L149.8,3.3 C169.5,3.3 185.5,19.3 185.5,39 L185.5,241.4 C185.5,261.1 169.5,277 149.8,277 Z" id="Path" stroke-width="3.9584" fill="#C3C2C5"></path>
                    <path d="M149.7,277.1 L44.8,277.1 C25.1,277.1 9.1,261.1 9.1,241.4 L9.1,39 C9.1,19.3 25.1,3.3 44.8,3.3 L149.7,3.3 C169.4,3.3 185.4,19.3 185.4,39 L185.4,241.4 C185.4,261.1 169.4,277.1 149.7,277.1 Z" id="Path" stroke-width="3.9592" fill="#C4C3C6"></path>
                    <path d="M149.6,277.1 L44.7,277.1 C25,277.1 9,261.1 9,241.4 L9,38.9 C9,19.2 25,3.2 44.7,3.2 L149.6,3.2 C169.3,3.2 185.3,19.2 185.3,38.9 L185.3,241.4 C185.2,261.2 169.3,277.1 149.6,277.1 Z" id="Path" stroke-width="3.9601" fill="#C5C4C7"></path>
                    <path d="M149.4,277.2 L44.4,277.2 C24.7,277.2 8.7,261.2 8.7,241.5 L8.7,38.9 C8.7,19.2 24.7,3.2 44.4,3.2 L149.4,3.2 C169.1,3.2 185.1,19.2 185.1,38.9 L185.1,241.5 C185.1,261.2 169.1,277.2 149.4,277.2 Z" id="Path" stroke-width="3.961" fill="#C6C5C8"></path>
                    <path d="M149.3,277.3 L44.3,277.3 C24.6,277.3 8.6,261.3 8.6,241.6 L8.6,38.8 C8.6,19.1 24.6,3.1 44.3,3.1 L149.3,3.1 C169,3.1 185,19.1 185,38.8 L185,241.5 C185,261.3 169,277.3 149.3,277.3 Z" id="Path" stroke-width="3.9618" fill="#C7C6C9"></path>
                    <path d="M149.2,277.3 L44.1,277.3 C24.4,277.3 8.4,261.3 8.4,241.6 L8.4,38.8 C8.4,19.1 24.4,3.1 44.1,3.1 L149.2,3.1 C168.9,3.1 184.9,19.1 184.9,38.8 L184.9,241.6 C184.9,261.3 168.9,277.3 149.2,277.3 Z" id="Path" stroke-width="3.9627" fill="#C8C7CA"></path>
                    <path d="M149,277.4 L43.9,277.4 C24.2,277.4 8.2,261.4 8.2,241.7 L8.2,38.7 C8.2,19 24.2,3 43.9,3 L149,3 C168.7,3 184.700466,19 184.700466,38.7 L184.700466,241.6 C184.8,261.4 168.8,277.4 149,277.4 Z" id="Path" stroke-width="3.9636" fill="#C9C8CB"></path>
                    <path d="M148.9,277.4 L43.8,277.4 C24,277.4 8,261.4 8,241.6 L8,38.6 C8,18.8 24,2.8 43.8,2.8 L148.9,2.8 C168.7,2.8 184.7,18.8 184.7,38.6 L184.7,241.6 C184.7,261.4 168.7,277.4 148.9,277.4 Z" id="Path" stroke-width="3.9644" fill="#CAC9CC"></path>
                    <path d="M148.8,277.5 L43.6,277.5 C23.8,277.5 7.8,261.5 7.8,241.7 L7.8,38.6 C7.8,18.8 23.8,2.8 43.6,2.8 L148.8,2.8 C168.6,2.8 184.6,18.8 184.6,38.6 L184.6,241.7 C184.6,261.5 168.5,277.5 148.8,277.5 Z" id="Path" stroke-width="3.9653" fill="#CBCACD"></path>
                    <path d="M148.6,277.5 L43.4,277.5 C23.6,277.5 7.6,261.5 7.6,241.7 L7.6,38.6 C7.6,18.8 23.6,2.8 43.4,2.8 L148.6,2.8 C168.4,2.8 184.4,18.8 184.4,38.6 L184.4,241.7 C184.4,261.5 168.4,277.5 148.6,277.5 Z" id="Path" stroke-width="3.9662" fill="#CCCBCE"></path>
                    <path d="M148.5,277.6 L43.2,277.6 C23.4,277.6 7.4,261.6 7.4,241.8 L7.4,38.6 C7.4,18.8 23.4,2.8 43.2,2.8 L148.5,2.8 C168.3,2.8 184.3,18.8 184.3,38.6 L184.3,241.8 C184.3,261.6 168.3,277.6 148.5,277.6 Z" id="Path" stroke-width="3.967" fill="#CDCCCF"></path>
                    <path d="M148.4,277.7 L43.1,277.7 C23.3,277.7 7.3,261.7 7.3,241.9 L7.3,38.5 C7.3,18.7 23.3,2.7 43.1,2.7 L148.4,2.7 C168.2,2.7 184.2,18.7 184.2,38.5 L184.2,241.8 C184.2,261.6 168.2,277.7 148.4,277.7 Z" id="Path" stroke-width="3.9679" fill="#CECDD0"></path>
                    <path d="M148.3,277.7 L42.9,277.7 C23.1,277.7 7.1,261.7 7.1,241.9 L7.1,38.5 C7.1,18.7 23.1,2.7 42.9,2.7 L148.3,2.7 C168.1,2.7 184.1,18.7 184.1,38.5 L184.1,241.9 C184.1,261.7 168,277.7 148.3,277.7 Z" id="Path" stroke-width="3.9688" fill="#CFCED1"></path>
                    <path d="M148.1,277.8 L42.7,277.8 C22.9,277.8 6.8,261.7 6.8,241.9 L6.8,38.4 C6.8,18.6 22.9,2.5 42.7,2.5 L148.1,2.5 C167.9,2.5 184,18.6 184,38.4 L184,241.9 C184,261.7 167.9,277.8 148.1,277.8 Z" id="Path" stroke-width="3.9697" fill="#D0CFD2"></path>
                    <path d="M148,277.8 L42.5,277.8 C22.7,277.8 6.6,261.7 6.6,241.9 L6.6,38.4 C6.6,18.6 22.7,2.5 42.5,2.5 L148,2.5 C167.8,2.5 183.9,18.6 183.9,38.4 L183.9,242 C183.9,261.8 167.8,277.8 148,277.8 Z" id="Path" stroke-width="3.9705" fill="#D1D0D3"></path>
                    <path d="M147.9,277.9 L42.4,277.9 C22.6,277.9 6.5,261.8 6.5,242 L6.5,38.3 C6.5,18.5 22.6,2.4 42.4,2.4 L147.9,2.4 C167.7,2.4 183.8,18.5 183.8,38.3 L183.8,242 C183.8,261.8 167.7,277.9 147.9,277.9 Z" id="Path" stroke-width="3.9714" fill="#D3D1D4"></path>
                    <path d="M147.7,277.9 L42.1,277.9 C22.3,277.9 6.2,261.8 6.2,242 L6.2,38.3 C6.2,18.5 22.3,2.4 42.1,2.4 L147.7,2.4 C167.5,2.4 183.6,18.5 183.6,38.3 L183.6,242 C183.6,261.9 167.6,277.9 147.7,277.9 Z" id="Path" stroke-width="3.9723" fill="#D4D2D5"></path>
                    <path d="M147.6,278 L42,278 C22.2,278 6.1,261.9 6.1,242.1 L6.1,38.2 C6.1,18.4 22.2,2.3 42,2.3 L147.6,2.3 C167.4,2.3 183.5,18.4 183.5,38.2 L183.5,242 C183.5,261.9 167.4,278 147.6,278 Z" id="Path" stroke-width="3.9731" fill="#D5D4D6"></path>
                    <path d="M147.5,278 L41.9,278 C22.1,278 6,261.9 6,242.1 L6,38.2 C6,18.4 22.1,2.3 41.9,2.3 L147.5,2.3 C167.3,2.3 183.4,18.4 183.4,38.2 L183.4,242.1 C183.4,262 167.3,278 147.5,278 Z" id="Path" stroke-width="3.974" fill="#D6D5D7"></path>
                    <path d="M147.3,278.1 L41.6,278.1 C21.7,278.1 5.7,262 5.7,242.2 L5.7,38.2 C5.7,18.3 21.8,2.3 41.6,2.3 L147.3,2.3 C167.2,2.3 183.200463,18.4 183.200463,38.2 L183.200463,242.2 C183.3,262 167.2,278.1 147.3,278.1 Z" id="Path" stroke-width="3.9749" fill="#D7D6D8"></path>
                    <path d="M147.2,278.2 L41.5,278.2 C21.6,278.2 5.5,262.1 5.5,242.2 L5.5,38.1 C5.5,18.2 21.6,2.1 41.5,2.1 L147.2,2.1 C167.1,2.1 183.2,18.2 183.2,38.1 L183.2,242.2 C183.2,262.1 167.1,278.2 147.2,278.2 Z" id="Path" stroke-width="3.9757" fill="#D8D7D9"></path>
                    <path d="M147.1,278.2 L41.3,278.2 C21.4,278.2 5.3,262.1 5.3,242.2 L5.3,38.1 C5.3,18.2 21.4,2.1 41.3,2.1 L147.1,2.1 C167,2.1 183.1,18.2 183.1,38.1 L183.1,242.3 C183.1,262.1 167,278.2 147.1,278.2 Z" id="Path" stroke-width="3.9766" fill="#D9D8DA"></path>
                    <path d="M147,278.3 L41.2,278.3 C21.3,278.3 5.2,262.2 5.2,242.3 L5.2,38 C5.2,18.1 21.3,2 41.2,2 L147,2 C166.9,2 183,18.1 183,38 L183,242.3 C183,262.2 166.8,278.3 147,278.3 Z" id="Path" stroke-width="3.9775" fill="#DAD9DB"></path>
                    <path d="M146.8,278.3 L41,278.3 C21.1,278.3 5,262.2 5,242.3 L5,38 C5,18.1 21.1,2 41,2 L146.9,2 C166.8,2 182.9,18.1 182.9,38 L182.9,242.4 C182.8,262.2 166.7,278.3 146.8,278.3 Z" id="Path" stroke-width="3.9783" fill="#DBDADC"></path>
                    <path d="M146.7,278.4 L40.8,278.4 C20.9,278.4 4.8,262.3 4.8,242.4 L4.8,37.9 C4.8,18 20.9,1.9 40.8,1.9 L146.7,1.9 C166.6,1.9 182.7,18 182.7,37.9 L182.7,242.3 C182.7,262.3 166.6,278.4 146.7,278.4 Z" id="Path" stroke-width="3.9792" fill="#DCDBDD"></path>
                    <path d="M146.6,278.4 L40.6,278.4 C20.7,278.4 4.6,262.3 4.6,242.4 L4.6,37.9 C4.6,18 20.7,1.9 40.6,1.9 L146.6,1.9 C166.5,1.9 182.6,18 182.6,37.9 L182.6,242.4 C182.6,262.3 166.5,278.4 146.6,278.4 Z" id="Path" stroke-width="3.9801" fill="#DDDCDE"></path>
                    <path d="M146.4,278.5 L40.4,278.5 C20.5,278.5 4.3,262.4 4.3,242.4 L4.3,37.8 C4.3,17.9 20.4,1.7 40.4,1.7 L146.4,1.7 C166.3,1.7 182.5,17.8 182.5,37.8 L182.5,242.4 C182.5,262.4 166.4,278.5 146.4,278.5 Z" id="Path" stroke-width="3.9809" fill="#DEDDDF"></path>
                    <path d="M146.3,278.6 L40.2,278.6 C20.3,278.6 4.1,262.5 4.1,242.5 L4.1,37.8 C4.1,17.9 20.2,1.7 40.2,1.7 L146.3,1.7 C166.2,1.7 182.4,17.8 182.4,37.8 L182.4,242.5 C182.4,262.4 166.2,278.6 146.3,278.6 Z" id="Path" stroke-width="3.9818" fill="#E0DFE0"></path>
                    <path d="M146.2,278.6 L40.1,278.6 C20.2,278.6 4,262.4 4,242.5 L4,37.7 C4,17.8 20.2,1.6 40.1,1.6 L146.2,1.6 C166.1,1.6 182.3,17.8 182.3,37.7 L182.3,242.5 C182.3,262.5 166.1,278.6 146.2,278.6 Z" id="Path" stroke-width="3.9827" fill="#E1E0E1"></path>
                    <path d="M146.1,278.7 L40,278.7 C20.1,278.7 3.9,262.5 3.9,242.6 L3.9,37.7 C3.9,17.8 20.1,1.6 40,1.6 L146.1,1.6 C166,1.6 182.2,17.8 182.2,37.7 L182.2,242.6 C182.2,262.5 166,278.7 146.1,278.7 Z" id="Path" stroke-width="3.9835" fill="#E2E1E2"></path>
                    <path d="M145.9,278.7 L39.7,278.7 C19.8,278.7 3.6,262.5 3.6,242.6 L3.6,37.6 C3.6,17.7 19.8,1.5 39.7,1.5 L145.9,1.5 C165.8,1.5 182,17.7 182,37.6 L182,242.6 C182,262.6 165.9,278.7 145.9,278.7 Z" id="Path" stroke-width="3.9844" fill="#E3E2E3"></path>
                    <path d="M145.8,278.8 L39.6,278.8 C19.6,278.8 3.5,262.6 3.5,242.7 L3.5,37.6 C3.5,17.6 19.7,1.5 39.6,1.5 L145.8,1.5 C165.8,1.5 181.9,17.7 181.9,37.6 L181.9,242.7 C181.9,262.6 165.7,278.8 145.8,278.8 Z" id="Path" stroke-width="3.9853" fill="#E4E3E4"></path>
                    <path d="M145.7,278.8 L39.4,278.8 C19.4,278.8 3.3,262.6 3.3,242.7 L3.3,37.6 C3.3,17.6 19.5,1.5 39.4,1.5 L145.7,1.5 C165.7,1.5 181.8,17.7 181.8,37.6 L181.8,242.7 C181.8,262.7 165.6,278.8 145.7,278.8 Z" id="Path" stroke-width="3.9861" fill="#E5E4E6"></path>
                    <path d="M145.5,278.9 L39.2,278.9 C19.2,278.9 3,262.7 3,242.7 L3,37.5 C3,17.5 19.2,1.3 39.2,1.3 L145.5,1.3 C165.5,1.3 181.7,17.5 181.7,37.5 L181.7,242.7 C181.7,262.7 165.5,278.9 145.5,278.9 Z" id="Path" stroke-width="3.987" fill="#E7E6E7"></path>
                    <path d="M145.4,279 L39,279 C19,279 2.8,262.8 2.8,242.8 L2.8,37.5 C2.8,17.5 19,1.3 39,1.3 L145.4,1.3 C165.4,1.3 181.6,17.5 181.6,37.5 L181.6,242.8 C181.6,262.8 165.4,279 145.4,279 Z" id="Path" stroke-width="3.9879" fill="#E8E7E8"></path>
                    <path d="M145.3,279 L38.9,279 C18.9,279 2.7,262.8 2.7,242.8 L2.7,37.4 C2.7,17.4 18.9,1.2 38.9,1.2 L145.3,1.2 C165.3,1.2 181.5,17.4 181.5,37.4 L181.5,242.8 C181.5,262.8 165.3,279 145.3,279 Z" id="Path" stroke-width="3.9887" fill="#E9E8E9"></path>
                    <path d="M145.1,279.1 L38.6,279.1 C18.6,279.1 2.4,262.9 2.4,242.9 L2.4,37.4 C2.4,17.4 18.6,1.2 38.6,1.2 L145.1,1.2 C165.1,1.2 181.300458,17.4 181.300458,37.4 L181.300458,242.9 C181.4,262.9 165.1,279.1 145.1,279.1 Z" id="Path" stroke-width="3.9896" fill="#EAE9EA"></path>
                    <path d="M145,279.1 L38.5,279.1 C18.5,279.1 2.3,262.9 2.3,242.9 L2.3,37.3 C2.3,17.3 18.5,1.1 38.5,1.1 L145,1.1 C165,1.1 181.2,17.3 181.2,37.3 L181.2,242.9 C181.2,262.9 165,279.1 145,279.1 Z" id="Path" stroke-width="3.9905" fill="#ECEBEC"></path>
                    <path d="M144.9,279.2 L38.4,279.2 C18.4,279.2 2.2,263 2.2,243 L2.2,37.3 C2.2,17.3 18.4,1.1 38.4,1.1 L144.9,1.1 C164.9,1.1 181.1,17.3 181.1,37.3 L181.1,243 C181.1,263 164.9,279.2 144.9,279.2 Z" id="Path" stroke-width="3.9913" fill="#EDECED"></path>
                    <path d="M144.8,279.2 L38.2,279.2 C18.2,279.2 1.9,263 1.9,242.9 L1.9,37.2 C1.9,17.2 18.1,0.9 38.2,0.9 L144.8,0.9 C164.8,0.9 181.1,17.1 181.1,37.2 L181.1,243 C181,263 164.8,279.2 144.8,279.2 Z" id="Path" stroke-width="3.9922" fill="#EEEEEE"></path>
                    <path d="M144.6,279.3 L38,279.3 C18,279.3 1.7,263.1 1.7,243 L1.7,37.2 C1.7,17.2 17.9,0.9 38,0.9 L144.6,0.9 C164.6,0.9 180.9,17.1 180.9,37.2 L180.9,243 C180.9,263.1 164.7,279.3 144.6,279.3 Z" id="Path" stroke-width="3.9931" fill="#F0EFF0"></path>
                    <path d="M144.5,279.4 L37.8,279.4 C17.8,279.4 1.5,263.2 1.5,243.1 L1.5,37.2 C1.5,17.2 17.7,0.9 37.8,0.9 L144.5,0.9 C164.5,0.9 180.8,17.1 180.8,37.2 L180.8,243.1 C180.8,263.1 164.5,279.4 144.5,279.4 Z" id="Path" stroke-width="3.9939" fill="#F1F1F1"></path>
                    <path d="M144.4,279.4 L37.7,279.4 C17.7,279.4 1.4,263.1 1.4,243.1 L1.4,37.1 C1.4,17.1 17.7,0.8 37.7,0.8 L144.4,0.8 C164.4,0.8 180.7,17.1 180.7,37.1 L180.7,243.1 C180.7,263.2 164.4,279.4 144.4,279.4 Z" id="Path" stroke-width="3.9948" fill="#F3F2F3"></path>
                    <path d="M144.2,279.5 L37.4,279.5 C17.3,279.5 1.1,263.2 1.1,243.2 L1.1,37.1 C1.1,17 17.4,0.8 37.4,0.8 L144.2,0.8 C164.3,0.8 180.500458,17.1 180.500458,37.1 L180.500458,243.2 C180.6,263.2 164.3,279.5 144.2,279.5 Z" id="Path" stroke-width="3.9957" fill="#F4F4F4"></path>
                    <path d="M144.1,279.5 L37.3,279.5 C17.2,279.5 1,263.2 1,243.2 L1,37 C1,16.9 17.3,0.7 37.3,0.7 L144.1,0.7 C164.2,0.7 180.4,17 180.4,37 L180.4,243.2 C180.4,263.3 164.2,279.5 144.1,279.5 Z" id="Path" stroke-width="3.9965" fill="#F6F6F6"></path>
                    <path d="M144,279.6 L37.1,279.6 C17,279.6 0.8,263.3 0.8,243.3 L0.8,37 C0.8,16.9 17.1,0.7 37.1,0.7 L144,0.7 C164.1,0.7 180.3,17 180.3,37 L180.3,243.3 C180.3,263.3 164.1,279.6 144,279.6 Z" id="Path" stroke-width="3.9974" fill="#F8F8F8"></path>
                    <path d="M143.9,279.6 L37,279.6 C16.9,279.6 0.6,263.3 0.6,243.2 L0.6,36.9 C0.6,16.8 16.9,0.5 37,0.5 L143.9,0.5 C164,0.5 180.3,16.8 180.3,36.9 L180.3,243.3 C180.2,263.4 163.9,279.6 143.9,279.6 Z" id="Path" stroke-width="3.9983" fill="#FAFAFA"></path>
                    <path d="M143.7,279.7 L36.7,279.7 C16.6,279.7 0.3,263.4 0.3,243.3 L0.3,36.9 C0.3,16.8 16.6,0.5 36.7,0.5 L143.7,0.5 C163.8,0.5 180.1,16.8 180.1,36.9 L180.1,243.3 C180.1,263.4 163.8,279.7 143.7,279.7 Z" id="Path" stroke-width="3.9991" fill="#FDFCFD"></path>
                    <path d="M143.6,279.8 L36.6,279.8 C16.5,279.8 0.2,263.5 0.2,243.4 L0.2,36.8 C0.2,16.7 16.5,0.4 36.6,0.4 L143.6,0.4 C163.7,0.4 180,16.7 180,36.8 L180,243.3 C180,263.5 163.7,279.8 143.6,279.8 Z" id="Path" stroke-width="4" fill="#FFFFFF"></path>
                </g>
                <path d="M90.1,116.5 L90.1,116.5 C88.6,116.5 87.3,115.2 87.3,113.7 L87.3,113.7 C87.3,112.2 88.6,110.9 90.1,110.9 L90.1,110.9 C91.6,110.9 92.9,112.2 92.9,113.7 L92.9,113.7 C92.9,115.2 91.6,116.5 90.1,116.5 Z" id="Path" stroke="#0F1923" stroke-width="4" fill="#FFFFFF" fill-rule="nonzero"></path>
                <path d="M111,212.4 L66.5,212.4 C64.2,212.4 62.3,210.5 62.3,208.2 L62.3,208.2 C62.3,205.9 64.2,204 66.5,204 L111,204 C113.3,204 115.2,205.9 115.2,208.2 L115.2,208.2 C115.2,210.5 113.3,212.4 111,212.4 Z" id="Path" fill="#0F1923" fill-rule="nonzero"></path>
                <g id="Group" transform="translate(45.000000, 256.000000)">
                    <g transform="translate(25.000000, 25.000000)" id="Path" stroke="#0F1923" stroke-linecap="round" stroke-linejoin="round">
                        <line x1="0.2" y1="4.4" x2="64.4" y2="4.4" stroke-width="3.5818"></line>
                        <path d="M45.9,8.3 L34.6,8.3 C32.4,8.3 30.6,6.5 30.6,4.3 L30.6,4.3 C30.6,2.1 32.4,0.3 34.6,0.3 L45.9,0.3 C48.1,0.3 49.9,2.1 49.9,4.3 L49.9,4.3 C49.9,6.5 48.1,8.3 45.9,8.3 Z" stroke-width="1.7909" fill="#0F1923" fill-rule="nonzero"></path>
                    </g>
                    <g transform="translate(25.000000, 3.000000)" id="Path" stroke="#0F1923" stroke-linecap="round" stroke-linejoin="round">
                        <line x1="0.2" y1="4.7" x2="64.4" y2="4.7" stroke-width="3.5818"></line>
                        <path d="M28.1,8.7 L16.8,8.7 C14.6,8.7 12.8,6.9 12.8,4.7 L12.8,4.7 C12.8,2.5 14.6,0.7 16.8,0.7 L28.1,0.7 C30.3,0.7 32.1,2.5 32.1,4.7 L32.1,4.7 C32.1,6.9 30.3,8.7 28.1,8.7 Z" stroke-width="1.7909" fill="#0F1923" fill-rule="nonzero"></path>
                    </g>
                    <g fill-rule="nonzero">
                        <path d="M6.2,33.3 L6.2,33.3 C3.2,33.3 0.8,30.9 0.8,27.9 L0.8,9.2 C0.8,6.2 3.2,3.8 6.2,3.8 L6.2,3.8 C9.2,3.8 11.6,6.2 11.6,9.2 L11.6,27.9 C11.6,30.9 9.2,33.3 6.2,33.3 Z" id="Path" stroke="#0F1923" stroke-width="3.2112" fill="#0F1923"></path>
                        <rect id="Rectangle" fill="#FFFFFF" x="1.6" y="0.2" width="2.4" height="34"></rect>
                    </g>
                </g>
                <g id="Group" transform="translate(34.000000, 129.000000)" fill-rule="nonzero">
                    <g id="Path" stroke="#0F1923" stroke-width="3">
                        <path d="M89.6,51.2 L14.8,51.2 C7,51.2 0.7,44.9 0.7,37.1 L0.7,14.1 C0.7,6.3 7,-5.68434189e-14 14.8,-5.68434189e-14 L89.6,-5.68434189e-14 C97.4,-5.68434189e-14 103.7,6.3 103.7,14.1 L103.7,37.1 C103.6,44.9 97.3,51.2 89.6,51.2 Z" fill="#FFFFFF"></path>
                        <path d="M97.3,51.2 L22.5,51.2 C14.7,51.2 8.4,44.9 8.4,37.1 L8.4,14.1 C8.4,6.3 14.7,-5.68434189e-14 22.5,-5.68434189e-14 L97.3,-5.68434189e-14 C105.1,-5.68434189e-14 111.4,6.3 111.4,14.1 L111.4,37.1 C111.4,44.9 105.1,51.2 97.3,51.2 Z" fill="#0F1923"></path>
                    </g>
                    <g transform="translate(31.000000, 15.000000)" fill="#FFFFFF" id="Path">
                        <path d="M5.8,21.3 L5,21.3 C2.2,21.3 0,19 0,16.3 L0,5 C0,2.2 2.3,0 5,0 L5.8,0 C8.6,0 10.8,2.3 10.8,5 L10.8,16.3 C10.8,19 8.6,21.3 5.8,21.3 Z"></path>
                        <path d="M52.9,21.3 L52.1,21.3 C49.3,21.3 47.1,19 47.1,16.3 L47.1,5 C47.1,2.2 49.4,0 52.1,0 L52.9,0 C55.7,0 57.9,2.3 57.9,5 L57.9,16.3 C57.9,19 55.6,21.3 52.9,21.3 Z"></path>
                    </g>
                </g>
                <path d="M73.344,326.552 C74.3893333,326.552 75.2506667,326.269333 75.928,325.704 C76.6053333,325.138667 76.944,324.338667 76.944,323.304 L76.944,323.304 L76.944,315.176 L76.08,315.176 L76.08,323.304 C76.08,324.082667 75.832,324.682667 75.336,325.104 C74.84,325.525333 74.176,325.736 73.344,325.736 C71.9893333,325.736 71.1146667,325.24 70.72,324.248 L70.72,324.248 L70,324.68 C70.2666667,325.288 70.696,325.752 71.288,326.072 C71.88,326.392 72.5653333,326.552 73.344,326.552 Z M84.688,326.552 C86.2986667,326.552 87.664,325.992 88.784,324.872 C89.904,323.741333 90.464,322.376 90.464,320.776 C90.464,319.176 89.904,317.813333 88.784,316.688 C87.664,315.562667 86.2986667,315 84.688,315 C83.0773333,315 81.712,315.562667 80.592,316.688 C79.472,317.813333 78.912,319.176 78.912,320.776 C78.912,322.376 79.472,323.738667 80.592,324.864 C81.712,325.989333 83.0773333,326.552 84.688,326.552 Z M84.688,325.736 C83.312,325.736 82.144,325.256 81.184,324.296 C80.2346667,323.325333 79.76,322.152 79.76,320.776 C79.76,319.4 80.2373333,318.229333 81.192,317.264 C82.1466667,316.298667 83.312,315.816 84.688,315.816 C86.064,315.816 87.2293333,316.298667 88.184,317.264 C89.1386667,318.229333 89.616,319.4 89.616,320.776 C89.616,322.152 89.1386667,323.322667 88.184,324.288 C87.2293333,325.253333 86.064,325.736 84.688,325.736 Z M94.608,326.552 C95.6533333,326.552 96.5146667,326.269333 97.192,325.704 C97.8693333,325.138667 98.208,324.338667 98.208,323.304 L98.208,323.304 L98.208,315.176 L97.344,315.176 L97.344,323.304 C97.344,324.082667 97.096,324.682667 96.6,325.104 C96.104,325.525333 95.44,325.736 94.608,325.736 C93.2533333,325.736 92.3786667,325.24 91.984,324.248 L91.984,324.248 L91.264,324.68 C91.5306667,325.288 91.96,325.752 92.552,326.072 C93.144,326.392 93.8293333,326.552 94.608,326.552 Z M105.952,326.552 C107.562667,326.552 108.928,325.992 110.048,324.872 C111.168,323.741333 111.728,322.376 111.728,320.776 C111.728,319.176 111.168,317.813333 110.048,316.688 C108.928,315.562667 107.562667,315 105.952,315 C104.341333,315 102.976,315.562667 101.856,316.688 C100.736,317.813333 100.176,319.176 100.176,320.776 C100.176,322.376 100.736,323.738667 101.856,324.864 C102.976,325.989333 104.341333,326.552 105.952,326.552 Z M105.952,325.736 C104.576,325.736 103.408,325.256 102.448,324.296 C101.498667,323.325333 101.024,322.152 101.024,320.776 C101.024,319.4 101.501333,318.229333 102.456,317.264 C103.410667,316.298667 104.576,315.816 105.952,315.816 C107.328,315.816 108.493333,316.298667 109.448,317.264 C110.402667,318.229333 110.88,319.4 110.88,320.776 C110.88,322.152 110.402667,323.322667 109.448,324.288 C108.493333,325.253333 107.328,325.736 105.952,325.736 Z" fill="#0F1923" fill-rule="nonzero"></path>
            </g>
        </g>
    </g>
</svg>