<?xml version="1.0" encoding="UTF-8"?>
<svg width="500px" height="500px" viewBox="0 0 500 500" version="1.1" xmlns="http://www.w3.org/2000/svg" xmlns:xlink="http://www.w3.org/1999/xlink">
    <title>Untitled 3</title>
    <g id="Page-1" stroke="none" stroke-width="1" fill="none" fill-rule="evenodd">
        <g id="kulupu" fill-rule="nonzero">
            <path d="M500.000045,250.000011 C500.000045,316.304144 473.660837,379.892633 426.776735,426.776735 C379.892633,473.660837 316.304144,500.000045 250.000011,500.000045 C183.695882,500.000045 120.107399,473.660828 73.2233022,426.776727 C26.3392053,379.892626 0,316.30414 0,250.000011 C0,111.928819 111.928819,0 250.000011,0 C316.30414,0 379.892626,26.3392053 426.776727,73.2233022 C473.660828,120.107399 500.000045,183.695882 500.000045,250.000011 Z" id="path845" fill="#231F20"></path>
            <g id="g1834" transform="translate(100.200014, 122.324693)" fill="#FFFFFF">
                <path d="M278.990158,1.5324852 L166.680056,38.2811995 C150.005925,43.7370982 136.178191,55.5866375 128.23266,71.2283138 L76.7102138,172.656271 C73.0427278,179.876137 67.3301765,185.856037 60.2854825,189.849682 L11.755111,217.361658 C4.52791837,221.458786 0.0614640088,229.125048 0.0614640088,237.432802 L0.0614640088,237.432802 C0.0614640088,243.756327 3.53598256,249.568437 9.10591328,252.562238 C14.675844,255.556039 21.4402726,255.247289 26.7143191,251.758535 L85.3486267,212.971963 C91.8366835,208.680121 97.0887584,202.765249 100.582996,195.815062 L149.870002,97.7807279 C158.015439,81.5790437 172.403585,69.3898933 189.723685,64.018037 L286.520375,33.9963906 C294.261839,31.5953773 299.538505,24.4341696 299.538505,16.3289166 C299.522429,11.3175346 297.105514,6.61744605 293.038737,3.68904549 C288.97196,0.760644927 283.748048,-0.0412639143 278.990158,1.5324852 Z M0.0614640088,72.3299629 C1.22179039,80.4170233 8.7182728,86.0322548 16.8053348,84.8719401 L38.7069117,84.8719401 C45.8224114,84.8719594 52.6204838,87.8174241 57.4866666,93.008821 L82.8070077,120.021374 L98.1746429,91.4621022 L75.6674799,64.5573189 C70.9110181,58.8714659 63.8792133,55.586009 56.4661942,55.586009 L16.8053348,55.586009 C12.3645706,55.586009 8.10569052,57.3501053 4.96560382,60.4902076 C1.82551712,63.6303099 0.0614640088,67.8891987 0.0614640088,72.3299629 L0.0614640088,72.3299629 Z M145.036969,146.382449 L130.392509,175.668365 L171.425253,225.449054 C180.221394,236.120471 193.326903,242.301741 207.156266,242.301741 L286.798511,242.301741 C290.177355,242.301741 293.417818,240.959541 295.807032,238.570348 C298.196246,236.181155 299.538505,232.940704 299.538505,229.56186 C299.463092,225.679209 297.848386,221.985539 295.049607,219.29342 C292.250828,216.601301 288.497238,215.131258 284.614586,215.206685 L218.898994,215.206685 C207.387874,215.206707 196.492957,210.005976 189.254306,201.05568 L145.036969,146.382449 Z" id="path1130-2"></path>
            </g>
        </g>
    </g>
</svg>