<svg width="113" height="39" fill="none" xmlns="http://www.w3.org/2000/svg"><path d="M65.1 1.515a.86.86 0 0 0-.353-.72 1.123 1.123 0 0 0-.374-.18A1.612 1.612 0 0 0 63.93.55a1.4 1.4 0 0 0-.389.05 1.154 1.154 0 0 0-.327.15.812.812 0 0 0-.232.24.649.649 0 0 0-.086.335v.04c0 .135.03.25.086.345a.737.737 0 0 0 .252.244c.11.07.247.125.413.17.167.045.358.085.58.115.52.08.898.23 1.145.45s.368.52.368.89v.085c0 .21-.035.405-.111.58a1.255 1.255 0 0 1-.323.45 1.57 1.57 0 0 1-.534.295c-.212.07-.46.105-.737.105-.317 0-.594-.045-.836-.135a1.617 1.617 0 0 1-.605-.38 1.703 1.703 0 0 1-.374-.565 1.912 1.912 0 0 1-.126-.71V3.1h.595v.17c0 .43.121.75.358.965.237.215.57.32.994.32.368 0 .645-.08.827-.24a.801.801 0 0 0 .277-.64V3.63c0-.255-.096-.455-.288-.59-.191-.135-.499-.235-.927-.295a4.083 4.083 0 0 1-.676-.15 1.741 1.741 0 0 1-.51-.265 1.058 1.058 0 0 1-.322-.395 1.224 1.224 0 0 1-.11-.544v-.085c0-.19.04-.365.12-.525.08-.16.192-.295.338-.415a1.62 1.62 0 0 1 .514-.27 2.13 2.13 0 0 1 .66-.095c.278 0 .525.04.747.12.217.08.403.185.555.32a1.366 1.366 0 0 1 .459 1.035v.295h-.596v-.255h-.01Zm4.109.015h.55v3.474h-.55v-.63h-.086c-.11.225-.262.4-.444.53-.181.13-.418.195-.7.195a1.43 1.43 0 0 1-.535-.095 1.094 1.094 0 0 1-.419-.285 1.226 1.226 0 0 1-.267-.47 1.96 1.96 0 0 1-.096-.65V1.53h.55v2c0 .365.076.63.227.8.151.17.383.25.69.25.334 0 .596-.115.787-.34.192-.225.288-.53.288-.905V1.53h.005Zm2.243 4.873h-.55V1.53h.55v.544h.086c.121-.21.293-.37.51-.48.216-.11.453-.164.705-.164.217 0 .419.04.616.12a1.55 1.55 0 0 1 .867.9c.085.22.13.47.13.75v.14c0 .284-.04.534-.125.754a1.64 1.64 0 0 1-.348.555c-.146.15-.323.26-.52.34a1.762 1.762 0 0 1-.63.115 1.73 1.73 0 0 1-.348-.04 1.36 1.36 0 0 1-.337-.12 1.647 1.647 0 0 1-.293-.195 1.005 1.005 0 0 1-.227-.275h-.085v1.93Zm1.175-1.82a1.162 1.162 0 0 0 .837-.34c.106-.104.187-.239.247-.389.06-.155.086-.325.086-.52v-.14c0-.185-.03-.355-.086-.51a1.124 1.124 0 0 0-.62-.645 1.18 1.18 0 0 0-.464-.09c-.166 0-.317.03-.459.095a1.179 1.179 0 0 0-.62.665c-.06.155-.09.33-.09.515v.085c0 .19.03.365.09.52.06.155.147.29.252.405a1.096 1.096 0 0 0 .827.35Zm3.147 1.82h-.55V1.53h.55v.544h.085c.121-.21.293-.37.51-.48a1.54 1.54 0 0 1 .706-.164c.216 0 .418.04.615.12a1.548 1.548 0 0 1 .867.9c.086.22.131.47.131.75v.14c0 .284-.04.534-.126.754a1.64 1.64 0 0 1-.348.555c-.146.15-.323.26-.52.34a1.762 1.762 0 0 1-.63.115 1.73 1.73 0 0 1-.347-.04 1.36 1.36 0 0 1-.338-.12 1.654 1.654 0 0 1-.293-.195 1.005 1.005 0 0 1-.227-.275h-.085v1.93Zm1.174-1.82a1.163 1.163 0 0 0 .838-.34c.105-.104.186-.239.247-.389a1.42 1.42 0 0 0 .085-.52v-.14c0-.185-.03-.355-.085-.51a1.124 1.124 0 0 0-.62-.645 1.18 1.18 0 0 0-.465-.09c-.166 0-.317.03-.458.095a1.179 1.179 0 0 0-.62.665c-.061.155-.091.33-.091.515v.085a1.291 1.291 0 0 0 .343.925 1.097 1.097 0 0 0 .826.35Zm6.026-1.274c0 .29-.05.545-.146.765a1.73 1.73 0 0 1-.383.56 1.64 1.64 0 0 1-.56.345 1.89 1.89 0 0 1-.666.12c-.237 0-.459-.04-.67-.12a1.691 1.691 0 0 1-.56-.345 1.656 1.656 0 0 1-.383-.56 1.9 1.9 0 0 1-.146-.765v-.085c0-.285.05-.54.146-.76.096-.22.227-.41.388-.564a1.62 1.62 0 0 1 .56-.35c.211-.08.433-.12.665-.12.232 0 .454.04.666.12.212.08.398.195.56.35.16.154.292.34.388.564.096.22.146.475.146.76v.085h-.005Zm-1.755 1.275c.172 0 .328-.03.47-.09a1.108 1.108 0 0 0 .63-.66c.06-.155.09-.335.09-.53v-.08c0-.185-.03-.36-.09-.515a1.281 1.281 0 0 0-.253-.405 1.13 1.13 0 0 0-.383-.26 1.22 1.22 0 0 0-.464-.095c-.166 0-.317.03-.464.095-.146.065-.272.15-.383.26a1.18 1.18 0 0 0-.252.405c-.06.155-.09.33-.09.515v.085c0 .195.03.37.09.53.06.155.146.29.252.405.106.11.232.195.378.255.141.055.298.085.47.085Zm2.577-3.054h1.27v.46h.086a.909.909 0 0 1 .383-.425c.167-.09.353-.135.565-.135.353 0 .635.115.852.345.217.23.333.564.348 1l-.58.084c0-.32-.075-.555-.232-.695a.83.83 0 0 0-.57-.215.81.81 0 0 0-.378.085.787.787 0 0 0-.267.23c-.07.1-.12.21-.156.345-.035.13-.05.27-.05.42V4.5h.887v.505H83.71V4.5h.807V2.034h-.721V1.53Zm4.396 0h1.1V.105h.55v1.43h1.356v.504H89.84v2.255c0 .14.066.21.192.21h.993v.5H89.83a.519.519 0 0 1-.393-.155.54.54 0 0 1-.151-.39V2.034h-1.1V1.53h.005Zm4.841 1.904c.015.345.121.625.323.835.201.21.484.315.847.315.166 0 .307-.02.428-.055a.96.96 0 0 0 .313-.155.84.84 0 0 0 .212-.23 1.33 1.33 0 0 0 .13-.275l.525.14c-.1.32-.282.585-.544.785-.267.205-.626.305-1.08.305a1.8 1.8 0 0 1-.685-.13 1.557 1.557 0 0 1-.54-.365 1.709 1.709 0 0 1-.353-.565 1.982 1.982 0 0 1-.126-.73v-.17c0-.24.046-.47.132-.68.085-.21.206-.39.363-.54a1.733 1.733 0 0 1 1.225-.484c.287 0 .534.05.746.155a1.581 1.581 0 0 1 .812.894c.065.18.096.35.096.505v.45h-2.824v-.005Zm1.17-1.485c-.157 0-.298.025-.434.075a1.17 1.17 0 0 0-.353.205 1.14 1.14 0 0 0-.373.7h2.259a.968.968 0 0 0-.11-.405 1.07 1.07 0 0 0-.248-.31c-.1-.085-.217-.15-.348-.195a1.163 1.163 0 0 0-.393-.07Zm5.46 2.52h-.085a.975.975 0 0 1-.217.28 1.295 1.295 0 0 1-.605.31 1.5 1.5 0 0 1-.323.04 1.75 1.75 0 0 1-.655-.12 1.633 1.633 0 0 1-.535-.345 1.58 1.58 0 0 1-.358-.555 2.088 2.088 0 0 1-.13-.76v-.11c0-.28.044-.53.135-.75.091-.22.212-.41.358-.56.146-.15.328-.264.53-.344.201-.08.418-.12.64-.12.242 0 .464.05.676.155.212.105.373.265.484.484h.085V.105h.55v4.899h-.55v-.535Zm-1.174.115c.166 0 .317-.03.459-.09.14-.06.267-.145.373-.26.106-.115.191-.245.252-.405.06-.155.09-.33.09-.52v-.085c0-.185-.03-.36-.09-.515a1.281 1.281 0 0 0-.252-.405 1.138 1.138 0 0 0-.827-.354c-.167 0-.318.03-.464.09-.141.06-.267.144-.373.26-.106.11-.187.244-.247.4a1.39 1.39 0 0 0-.086.51v.11c0 .194.03.37.086.524.06.155.14.285.247.395.106.11.232.195.368.25a1.1 1.1 0 0 0 .464.095Zm7.528.42h-.55V.105h.55v1.974h.085c.121-.21.293-.37.51-.48.216-.11.453-.164.705-.164.217 0 .419.04.616.12a1.551 1.551 0 0 1 .867.9c.086.22.131.47.131.75v.14c0 .284-.04.534-.126.754a1.64 1.64 0 0 1-.348.555 1.51 1.51 0 0 1-.519.34 1.767 1.767 0 0 1-.631.115 1.73 1.73 0 0 1-.348-.04 1.37 1.37 0 0 1-.337-.12 1.66 1.66 0 0 1-.293-.195 1.011 1.011 0 0 1-.227-.275h-.085v.525Zm1.169-.42a1.16 1.16 0 0 0 .837-.34 1.14 1.14 0 0 0 .247-.39c.061-.155.086-.325.086-.52v-.14c0-.185-.03-.355-.086-.51a1.126 1.126 0 0 0-1.084-.735c-.166 0-.317.03-.458.095-.142.065-.263.15-.369.26a1.2 1.2 0 0 0-.252.405c-.06.155-.09.33-.09.515v.085a1.307 1.307 0 0 0 .342.925 1.093 1.093 0 0 0 .827.35Zm5.269-.21h-.085a1.4 1.4 0 0 1-.444.53c-.182.13-.418.195-.701.195-.191 0-.373-.03-.534-.095a1.09 1.09 0 0 1-.419-.285 1.218 1.218 0 0 1-.267-.47 1.95 1.95 0 0 1-.096-.65V1.53h.55v2c0 .365.075.63.227.8.151.17.383.25.69.25.333 0 .595-.115.787-.34.192-.225.287-.53.287-.905V1.53h.55v4.324a.524.524 0 0 1-.545.544h-1.996v-.505h1.8c.126 0 .191-.07.191-.21v-1.31h.005ZM61.978 8.403h1.85v3.384h.061l2.809-3.384h2.128l-3.293 3.924 3.424 4.474h-2.29l-2.783-3.754h-.06V16.8h-1.85V8.403h.004Zm8.204 7.928c-.378-.39-.57-.915-.57-1.57v-3.959h1.694v3.61c0 .344.091.61.268.79.176.18.428.274.75.274.293 0 .555-.08.797-.245.243-.165.44-.38.596-.655v-3.774h1.694v5.999h-1.695v-.745c-.539.575-1.2.865-1.971.865-.666 0-1.185-.195-1.563-.59Zm7.225.13a2.214 2.214 0 0 1-.907-1.3l.05-.155 1.296-.385c.146.67.58 1.01 1.306 1.01.252 0 .454-.05.615-.155a.49.49 0 0 0 .242-.43c0-.19-.09-.34-.272-.45-.182-.11-.535-.23-1.059-.365-.635-.15-1.12-.375-1.442-.665-.323-.29-.484-.68-.484-1.16 0-.32.09-.609.272-.869a1.9 1.9 0 0 1 .767-.62c.332-.15.71-.23 1.14-.23.634 0 1.159.14 1.567.415.409.275.67.665.792 1.17l-.07.13-1.281.31c-.056-.28-.177-.495-.363-.64a1.044 1.044 0 0 0-.676-.22.95.95 0 0 0-.51.125c-.136.085-.206.2-.206.34 0 .175.11.32.338.43.227.11.635.25 1.235.41.62.17 1.079.39 1.371.66.293.27.444.65.444 1.13 0 .37-.1.704-.297 1.009-.197.305-.48.54-.847.715-.368.17-.792.26-1.276.26-.711-.01-1.296-.165-1.745-.47Zm5.996.24c-.293-.15-.53-.36-.701-.635a1.797 1.797 0 0 1-.263-.965c0-.545.192-.98.57-1.315.378-.33.898-.53 1.563-.594l1.634-.17v-.265c0-.27-.086-.485-.262-.635-.172-.15-.419-.23-.731-.23-.283 0-.51.075-.676.22a.968.968 0 0 0-.313.605l-1.427-.12-.06-.07c.12-.6.408-1.06.857-1.375.454-.315.998-.475 1.644-.475.766 0 1.386.19 1.865.57.474.38.716.915.716 1.6V15c0 .185.04.325.116.42a.388.388 0 0 0 .323.145c.09 0 .166-.01.232-.035l.06.07v1.15c-.242.08-.519.12-.837.12-.655 0-1.104-.27-1.356-.815h-.085c-.283.29-.575.505-.873.65a2.32 2.32 0 0 1-1.028.215c-.353 0-.671-.075-.968-.22Zm2.117-1.27c.222-.145.449-.365.686-.66v-.695l-1.331.17c-.283.03-.5.115-.646.25a.646.646 0 0 0-.222.505c0 .2.071.36.212.475a.831.831 0 0 0 .54.175c.282 0 .54-.075.761-.22Zm4.11-4.629h1.694v.71c.474-.55 1.074-.83 1.79-.83s1.22.28 1.512.84c.54-.56 1.185-.84 1.936-.84.62 0 1.1.17 1.443.515.337.345.509.815.509 1.415V16.8H96.82v-3.814c0-.575-.257-.865-.777-.865-.469 0-.847.25-1.14.755V16.8H93.21v-3.804c0-.585-.252-.875-.75-.875-.233 0-.455.075-.656.23-.202.15-.363.35-.484.59v3.864h-1.69v-6.004Zm11.007 5.899c-.293-.15-.53-.36-.701-.635a1.797 1.797 0 0 1-.263-.965c0-.545.192-.98.57-1.315.378-.33.898-.53 1.563-.594l1.634-.17v-.265c0-.27-.086-.485-.262-.635-.172-.15-.419-.23-.731-.23-.283 0-.51.075-.676.22a.974.974 0 0 0-.313.605l-1.426-.12-.061-.07c.121-.6.408-1.06.857-1.375.454-.315.999-.475 1.644-.475.766 0 1.387.19 1.866.57.474.38.716.915.716 1.6V15c0 .185.04.325.116.42a.386.386 0 0 0 .322.145c.091 0 .167-.01.232-.035l.061.07v1.15c-.242.08-.52.12-.837.12-.656 0-1.105-.27-1.357-.815h-.085c-.283.29-.575.505-.873.65-.297.145-.64.215-1.028.215-.353 0-.676-.075-.968-.22Zm2.117-1.27c.222-.145.449-.365.686-.66v-.695l-1.331.17c-.282.03-.499.115-.645.25a.644.644 0 0 0-.222.505c0 .2.07.36.211.475a.834.834 0 0 0 .54.175c.282 0 .539-.075.761-.22ZM64.106 20.94h-2.128v-1.56h6.111v1.56h-2.127v6.838h-1.85V20.94h-.006Zm4.27.84h1.695v.72c.217-.256.469-.46.751-.61.283-.15.595-.23.933-.23.242 0 .434.03.58.094l-.217 1.32-.086.085a1.536 1.536 0 0 0-1.311.215c-.267.185-.484.45-.655.805v3.599h-1.694v-5.999h.005Zm5.95 5.728a2.783 2.783 0 0 1-1.109-1.1c-.267-.47-.398-1.015-.398-1.63 0-.61.141-1.15.429-1.619a3.06 3.06 0 0 1 1.144-1.105 3.103 3.103 0 0 1 1.538-.395c.595 0 1.124.125 1.583.37.46.25.817.605 1.07 1.07.251.465.382 1.01.382 1.645v.445h-4.548c.04.414.202.744.48.99.277.244.635.364 1.068.364.696 0 1.155-.31 1.382-.925l1.417.145.085.145c-.227.665-.585 1.16-1.084 1.495-.499.335-1.109.5-1.835.5-.595-.005-1.13-.135-1.603-.395Zm3.046-3.4a1.24 1.24 0 0 0-.459-.864c-.267-.215-.595-.325-.993-.325-.353 0-.666.11-.938.325a1.41 1.41 0 0 0-.514.865h2.904Zm3.403 3.57a1.745 1.745 0 0 1-.7-.635 1.796 1.796 0 0 1-.263-.965c0-.545.192-.98.57-1.314.378-.33.898-.53 1.563-.595l1.634-.17v-.265c0-.27-.086-.485-.262-.635-.172-.15-.419-.23-.731-.23-.283 0-.51.075-.676.22a.968.968 0 0 0-.313.605l-1.426-.12-.061-.07c.121-.6.408-1.06.857-1.375.449-.315.999-.475 1.644-.475.766 0 1.386.19 1.865.57.474.38.716.915.716 1.6v2.15c0 .184.04.324.116.42a.388.388 0 0 0 .323.144c.09 0 .166-.01.232-.035l.06.07v1.15c-.242.08-.519.12-.836.12-.656 0-1.105-.27-1.357-.815h-.086a3.15 3.15 0 0 1-.872.65 2.32 2.32 0 0 1-1.028.215 2.103 2.103 0 0 1-.969-.215Zm2.118-1.27c.222-.145.449-.365.686-.66v-.694l-1.331.17c-.282.03-.5.114-.646.25a.647.647 0 0 0-.221.504c0 .2.07.36.211.475a.831.831 0 0 0 .54.175c.282 0 .54-.075.761-.22Zm4.568 1.03a2.215 2.215 0 0 1-.907-1.3l.05-.155 1.296-.385c.146.67.58 1.01 1.306 1.01.252 0 .454-.05.615-.155a.49.49 0 0 0 .242-.43c0-.19-.09-.34-.272-.45-.182-.11-.535-.23-1.059-.364-.635-.15-1.12-.375-1.442-.665-.323-.29-.484-.68-.484-1.16 0-.32.09-.61.272-.87a1.9 1.9 0 0 1 .767-.62 2.74 2.74 0 0 1 1.14-.23c.635 0 1.159.14 1.567.415.409.275.67.665.792 1.17l-.07.13-1.281.31c-.056-.28-.177-.495-.363-.64a1.073 1.073 0 0 0-.676-.22.949.949 0 0 0-.51.125c-.136.085-.206.2-.206.34 0 .175.11.32.338.43.227.11.635.25 1.235.41.62.17 1.08.39 1.371.66.293.27.444.65.444 1.13 0 .37-.1.704-.297 1.01-.197.304-.48.539-.847.714-.368.17-.792.26-1.276.26-.71-.01-1.29-.165-1.745-.47Zm5.844-.13c-.378-.39-.57-.915-.57-1.57V21.78h1.695v3.61c0 .344.09.61.267.79.176.184.428.274.751.274.293 0 .555-.08.797-.245.242-.165.438-.38.595-.655v-3.779h1.694v5.999H96.84v-.745c-.54.575-1.2.865-1.972.865-.66.005-1.18-.19-1.563-.585Zm6.732-5.529h1.694v.72a2.57 2.57 0 0 1 .751-.61c.282-.15.595-.23.933-.23.242 0 .433.03.58.095l-.217 1.32-.086.085a1.536 1.536 0 0 0-1.311.215c-.267.185-.484.45-.655.805v3.599h-1.694v-5.999h.005Zm7.003 5.844-2.491-5.844h1.937l1.235 2.99.06.874h.096l1.538-3.864h1.79l-3.439 8.398h-1.765l1.039-2.554ZM64.126 38.435a4.1 4.1 0 0 1-1.573-1.54c-.383-.654-.575-1.394-.575-2.219 0-.83.187-1.575.565-2.23a3.99 3.99 0 0 1 1.548-1.534c.656-.37 1.402-.55 2.234-.55.968 0 1.8.235 2.49.71.696.47 1.155 1.135 1.382 1.99l-.096.155-1.659.23c-.146-.49-.393-.86-.75-1.115-.354-.255-.813-.385-1.367-.385a2.39 2.39 0 0 0-1.291.35 2.381 2.381 0 0 0-.878.97c-.211.414-.312.89-.312 1.414 0 .535.1 1.01.307 1.415.207.41.5.725.883.955.383.23.832.34 1.351.34.595 0 1.074-.15 1.432-.445.358-.295.595-.72.706-1.27h-2.955V34.26h4.71v.685c0 .79-.162 1.495-.48 2.105a3.515 3.515 0 0 1-1.366 1.434c-.595.345-1.285.515-2.077.515-.817-.005-1.563-.19-2.229-.565Zm7.458-5.558h1.694v.72c.217-.256.469-.46.751-.61.282-.15.595-.23.933-.23.242 0 .433.03.58.095l-.217 1.32-.086.084a1.534 1.534 0 0 0-1.31.215c-.268.185-.485.45-.656.805v3.599h-1.694v-5.998h.005Zm5.309 5.898c-.292-.15-.53-.36-.7-.635a1.796 1.796 0 0 1-.263-.965c0-.544.192-.98.57-1.314.378-.33.897-.53 1.563-.595l1.633-.17v-.265c0-.27-.085-.485-.262-.635-.171-.15-.418-.23-.73-.23-.283 0-.51.075-.676.22a.98.98 0 0 0-.313.605l-1.427-.12-.06-.07c.12-.6.408-1.06.857-1.374.448-.315.998-.475 1.643-.475.767 0 1.387.19 1.866.57.474.38.716.914.716 1.599v2.15c0 .184.04.324.116.42a.385.385 0 0 0 .318.144c.09 0 .166-.01.231-.035l.061.07v1.15c-.242.08-.52.12-.837.12-.65 0-1.104-.27-1.356-.815h-.086c-.282.29-.575.505-.872.65a2.32 2.32 0 0 1-1.029.215c-.348.005-.67-.07-.963-.215Zm2.118-1.27c.222-.145.449-.364.686-.66v-.694l-1.332.17c-.282.03-.499.115-.645.25a.647.647 0 0 0-.222.505c0 .2.07.36.212.474a.832.832 0 0 0 .54.175c.282 0 .539-.075.76-.22Zm4.11-4.628h1.693v.78c.575-.6 1.24-.9 2.007-.9.656 0 1.165.19 1.538.565.373.374.555.86.555 1.45v4.103h-1.695v-3.609c0-.35-.08-.62-.247-.8-.166-.18-.408-.27-.73-.27-.283 0-.555.085-.813.26-.257.17-.463.385-.615.64v3.779H83.12v-5.998Zm8.107 5.663c-.333-.305-.494-.76-.494-1.37v-2.904h-1.08v-1.39h1.08v-1.714h.217l1.462.505v1.21h1.28v1.39h-1.28v2.758c0 .19.055.34.171.445.111.105.272.155.484.155.126 0 .293-.03.484-.085l.086.05v1.285c-.348.08-.7.12-1.064.12-.57 0-1.018-.15-1.346-.455ZM47.467 10.042c.731.57 2.965 2.465 2.965 2.465s-2.93 1.095-3.57 1.584a6.61 6.61 0 0 0-2.083 2.88c-.499 1.21-1.416 3.784-2.021 5.063-.605 1.28-1.594 2.95-5.925 5.174-3.655 1.885-5.456 2.62-5.965 3.924a4.037 4.037 0 0 0 .58 3.969c.726.875 2.158 2.434 3.645 2.88 1.488.44 1.599 1.014 1.599 1.014a11.89 11.89 0 0 0-2.849-.455 11.61 11.61 0 0 0-3.156.455c0-.57 1.104-1.015 1.104-1.015s-.04-.76-2.168-2.16a4.934 4.934 0 0 1-2.239-3.588s-3.54-.23-3.726-.23l2.178-.64c-3.615-1.89-22.185 5.419-22.185 5.419v-.51A5.057 5.057 0 0 1 0 36.82l2.244-1.73H.676l15.575-8.033-3.47-.035s13.484-8.543 16.872-10.607c3.393-2.065 5.526-2.64 6.363-3.214.832-.58 2.89-2.58 3.953-3.265 1.064-.684 2.642-1.704 4.19-1.51a6.232 6.232 0 0 1 3.308 1.615Z" fill="#F5F5F5"/></svg>