<svg xmlns="http://www.w3.org/2000/svg" xmlns:xlink="http://www.w3.org/1999/xlink" width="288" height="338.4" viewBox="0 0 288 338.4"><defs><clipPath id="a"><circle cx="131.1" cy="131.1" r="131.1" transform="translate(2449.7 173.7)"/></clipPath></defs><g transform="translate(-2436.8 -153.6)"><circle cx="24.5" cy="24.5" r="24.5" transform="translate(2556.3 407.3)" fill="#0f1923"/><path d="M2595.6,478.7h4.3v.7a8.6,8.6,0,0,1-17.2,0l-.1-101.8h-4l.1,101.8a12.6,12.6,0,0,0,25.2,0V463.9Z" fill="#0f1923"/><path d="M2630.6,473h4.3v.7a8.6,8.6,0,0,1-17.2,0l-.1-101.8h-4l.1,101.8a12.6,12.6,0,0,0,25.2,0V458.2Z" fill="#0f1923"/><path d="M2560.7,473h4.3v.7a8.6,8.6,0,0,1-17.2,0l-.1-101.8h-4l.1,101.8a12.6,12.6,0,0,0,25.2,0V458.2Z" fill="#0f1923"/><path d="M2619.7,450h-77.8a16.154,16.154,0,0,1-16.1-16.1V419.8a16.154,16.154,0,0,1,16.1-16.1h77.8a16.154,16.154,0,0,1,16.1,16.1v14.1A16.219,16.219,0,0,1,2619.7,450Z" fill="#0f1923"/><circle cx="131.1" cy="131.1" r="131.1" transform="translate(2449.7 173.7)" fill="#fff" stroke="#0f1923" stroke-miterlimit="10" stroke-width="4"/><path d="M2580.8,240.1c71.4,0,129.3,64.7,129.3,64.7s-57.9,64.7-129.3,64.7-129.3-64.7-129.3-64.7S2509.4,240.1,2580.8,240.1Z" fill="#0f1923" stroke="#0f1923" stroke-miterlimit="10" stroke-width="3.486"/><circle cx="46.1" cy="46.1" r="46.1" transform="translate(2534.7 258.7)" fill="#fff"/><circle cx="24.1" cy="24.1" r="24.1" transform="translate(2556.7 280.7)" fill="#0f1923"/><circle cx="33.5" cy="33.5" r="33.5" transform="translate(2547.3 271.3)" fill="none" stroke="#0f1923" stroke-miterlimit="10" stroke-width="3"/><path d="M2523.6,388.8h-5.8a2.754,2.754,0,0,1-2.7-2.7h0a2.754,2.754,0,0,1,2.7-2.7h5.8a2.754,2.754,0,0,1,2.7,2.7h0A2.688,2.688,0,0,1,2523.6,388.8Z" fill="#fff" stroke="#0f1923" stroke-miterlimit="10" stroke-width="1.75"/><path d="M2535.5,388.8h-2.2a2.006,2.006,0,0,1-2-2v-1.4a2.006,2.006,0,0,1,2-2h2.2a2.006,2.006,0,0,1,2,2v1.4A1.944,1.944,0,0,1,2535.5,388.8Z" fill="#fff" stroke="#0f1923" stroke-miterlimit="10" stroke-width="1.75"/><path d="M2632.1,388.8h-2.2a2.006,2.006,0,0,1-2-2v-1.4a2.006,2.006,0,0,1,2-2h2.2a2.006,2.006,0,0,1,2,2v1.4A2.006,2.006,0,0,1,2632.1,388.8Z" fill="#fff" stroke="#0f1923" stroke-miterlimit="10" stroke-width="1.75"/><g clip-path="url(#a)"><path d="M2580.8,240.1c71.4,0,129.3,64.7,129.3,64.7s-57.9,64.7-129.3,64.7-129.3-64.7-129.3-64.7S2509.4,240.1,2580.8,240.1Z" fill="none" stroke="#0f1923" stroke-miterlimit="10" stroke-width="4"/></g><g clip-path="url(#a)"><path d="M2580.8,240.1c71.4,0,129.3,64.7,129.3,64.7s-57.9,64.7-129.3,64.7-129.3-64.7-129.3-64.7S2509.4,240.1,2580.8,240.1Z" fill="none" stroke="#0f1923" stroke-miterlimit="10" stroke-width="4"/></g><g clip-path="url(#a)"><path d="M2714.9,305.3s-53.3,71.1-134.1,71.1-133.1-71.5-133.1-71.5" fill="none" stroke="#0f1923" stroke-miterlimit="10" stroke-width="5"/></g><g clip-path="url(#a)"><path d="M2714.9,305.3s-53.3,71.1-134.1,71.1-133.1-71.5-133.1-71.5" fill="none" stroke="#0f1923" stroke-miterlimit="10" stroke-width="5"/></g><path d="M2717.6,319.9h0a5.763,5.763,0,0,0,5.7-5.7V299.4a5.763,5.763,0,0,0-5.7-5.7h0a5.763,5.763,0,0,0-5.7,5.7v14.8A5.634,5.634,0,0,0,2717.6,319.9Z" fill="#0f1923" stroke="#0f1923" stroke-miterlimit="10" stroke-width="3"/><path d="M2444,319.9h0a5.763,5.763,0,0,1-5.7-5.7V299.4a5.763,5.763,0,0,1,5.7-5.7h0a5.763,5.763,0,0,1,5.7,5.7v14.8A5.7,5.7,0,0,1,2444,319.9Z" fill="#0f1923" stroke="#0f1923" stroke-miterlimit="10" stroke-width="3"/><path d="M2574.8,223.4c-17.7,0-19.9-19-23.6-26.5s-28.7-9.9-28.7-9.9" fill="none" stroke="#0f1923" stroke-linecap="round" stroke-linejoin="round" stroke-miterlimit="10" stroke-width="2"/><path d="M2586.7,223.4c17.7,0,19.9-19,23.6-26.5S2639,187,2639,187" fill="none" stroke="#0f1923" stroke-linecap="round" stroke-linejoin="round" stroke-miterlimit="10" stroke-width="2"/><line x1="11.9" transform="translate(2574.8 223.4)" fill="none" stroke="#0f1923" stroke-linecap="round" stroke-linejoin="round" stroke-miterlimit="10" stroke-width="2"/><circle cx="15.7" cy="15.7" r="15.7" transform="translate(2565.1 262.9)" fill="#fff"/><path d="M2583.3,216.7h-5.1a1.58,1.58,0,0,1-1.6-1.6h0a1.58,1.58,0,0,1,1.6-1.6h5.1a1.58,1.58,0,0,1,1.6,1.6h0A1.522,1.522,0,0,1,2583.3,216.7Z" fill="#0f1923" stroke="#0f1923" stroke-miterlimit="10" stroke-width="1.5"/><path d="M2679.4,226.5c-5.8-6.9-14-12.6-18.2-9.1s.2,12.5,6.1,19.4a37.427,37.427,0,0,0,9.5,8.3,11.088,11.088,0,0,0,5.6,1.8,4.615,4.615,0,0,0,3.1-1.1C2689.6,242.3,2685.3,233.3,2679.4,226.5Z" fill="#0f1923"/><path d="M2683,244.9l.9-.3c1.6-2.7-1.2-9.5-6.8-16-5.8-6.8-12.4-10.7-15.1-9.1a1.613,1.613,0,0,0-.3.9c3.1-.5,9,3.3,14.2,9.4C2680.9,235.6,2683.7,241.8,2683,244.9Z" fill="#fff"/><circle cx="6.1" cy="6.1" r="6.1" transform="translate(2668.1 153.6)" fill="#0f1923"/><path d="M2677.1,234.6h-3V202.4l12.1-7.2-19.3-3,13.4-9.8-7.6-2.2V162.6h3v15.3l11.3,3.4-12.5,9.1,20.5,3.2-17.9,10.5Z" fill="#0f1923"/></g></svg>