<?xml version="1.0" encoding="UTF-8"?>
<svg width="319px" height="327px" viewBox="0 0 319 327" version="1.1" xmlns="http://www.w3.org/2000/svg" xmlns:xlink="http://www.w3.org/1999/xlink">
    <title>Group</title>
    <g id="Page-1" stroke="none" stroke-width="1" fill="none" fill-rule="evenodd">
        <g id="Artboard" transform="translate(-2792.000000, -467.000000)">
            <g id="ROBOTS_All_v3" transform="translate(181.000000, 70.000000)">
                <g id="Group" transform="translate(2613.000000, 397.000000)">
                    <g transform="translate(149.000000, 0.000000)">
                        <polyline id="Path" stroke="#0F1923" stroke-width="4" points="15.7 55.4 2.5 40 19.9 37.9 7.4 26 7.4 4.3"></polyline>
                        <circle id="Oval" fill="#0F1923" fill-rule="nonzero" cx="7.1" cy="7.3" r="7"></circle>
                    </g>
                    <g transform="translate(0.000000, 45.000000)" fill-rule="nonzero" id="Oval" stroke="#0F1923">
                        <circle stroke-width="3.739" fill="#0F1923" cx="191.9" cy="139.8" r="122.8"></circle>
                        <circle stroke-width="3.7399" fill="#101924" cx="191.7" cy="139.8" r="122.8"></circle>
                        <circle stroke-width="3.7407" fill="#101A24" cx="191.6" cy="139.8" r="122.9"></circle>
                        <circle stroke-width="3.7416" fill="#111B25" cx="191.4" cy="139.8" r="123"></circle>
                        <circle stroke-width="3.7425" fill="#121B25" cx="191.2" cy="139.8" r="123"></circle>
                        <circle stroke-width="3.7433" fill="#131C26" cx="191.1" cy="139.8" r="123.1"></circle>
                        <circle stroke-width="3.7442" fill="#131C26" cx="190.9" cy="139.8" r="123.1"></circle>
                        <circle stroke-width="3.7451" fill="#141D27" cx="190.7" cy="139.8" r="123.2"></circle>
                        <circle stroke-width="3.7459" fill="#151D27" cx="190.5" cy="139.8" r="123.2"></circle>
                        <circle stroke-width="3.7468" fill="#151E28" cx="190.4" cy="139.8" r="123.3"></circle>
                        <circle stroke-width="3.7477" fill="#161E28" cx="190.2" cy="139.8" r="123.3"></circle>
                        <circle stroke-width="3.7485" fill="#171F28" cx="190" cy="139.8" r="123.4"></circle>
                        <circle stroke-width="3.7494" fill="#171F29" cx="189.8" cy="139.8" r="123.5"></circle>
                        <circle stroke-width="3.7503" fill="#182029" cx="189.7" cy="139.8" r="123.5"></circle>
                        <circle stroke-width="3.7511" fill="#18202A" cx="189.5" cy="139.8" r="123.6"></circle>
                        <circle stroke-width="3.752" fill="#19212A" cx="189.3" cy="139.8" r="123.6"></circle>
                        <circle stroke-width="3.7529" fill="#1A212B" cx="189.2" cy="139.8" r="123.7"></circle>
                        <circle stroke-width="3.7537" fill="#1A222B" cx="189" cy="139.8" r="123.7"></circle>
                        <circle stroke-width="3.7546" fill="#1B222C" cx="188.8" cy="139.8" r="123.8"></circle>
                        <circle stroke-width="3.7555" fill="#1B232C" cx="188.6" cy="139.8" r="123.8"></circle>
                        <circle stroke-width="3.7563" fill="#1C232D" cx="188.5" cy="139.8" r="123.9"></circle>
                        <circle stroke-width="3.7572" fill="#1D242D" cx="188.3" cy="139.8" r="124"></circle>
                        <circle stroke-width="3.7581" fill="#1D242D" cx="188.1" cy="139.8" r="124"></circle>
                        <circle stroke-width="3.7589" fill="#1E252E" cx="188" cy="139.8" r="124.1"></circle>
                        <circle stroke-width="3.7598" fill="#1E252E" cx="187.8" cy="139.8" r="124.1"></circle>
                        <circle stroke-width="3.7607" fill="#1F262F" cx="187.6" cy="139.8" r="124.2"></circle>
                        <circle stroke-width="3.7615" fill="#20262F" cx="187.4" cy="139.8" r="124.2"></circle>
                        <circle stroke-width="3.7624" fill="#202730" cx="187.3" cy="139.8" r="124.3"></circle>
                        <circle stroke-width="3.7633" fill="#212730" cx="187.1" cy="139.8" r="124.4"></circle>
                        <circle stroke-width="3.7641" fill="#212831" cx="186.9" cy="139.8" r="124.4"></circle>
                        <circle stroke-width="3.765" fill="#222831" cx="186.7" cy="139.8" r="124.5"></circle>
                        <circle stroke-width="3.7659" fill="#222931" cx="186.6" cy="139.8" r="124.5"></circle>
                        <circle stroke-width="3.7667" fill="#232932" cx="186.4" cy="139.8" r="124.6"></circle>
                        <circle stroke-width="3.7676" fill="#242932" cx="186.2" cy="139.8" r="124.6"></circle>
                        <circle stroke-width="3.7685" fill="#242A33" cx="186.1" cy="139.8" r="124.7"></circle>
                        <circle stroke-width="3.7693" fill="#252A33" cx="185.9" cy="139.8" r="124.7"></circle>
                        <circle stroke-width="3.7702" fill="#252B34" cx="185.7" cy="139.8" r="124.8"></circle>
                        <circle stroke-width="3.7711" fill="#262B34" cx="185.5" cy="139.8" r="124.9"></circle>
                        <circle stroke-width="3.772" fill="#272C35" cx="185.4" cy="139.8" r="124.9"></circle>
                        <circle stroke-width="3.7728" fill="#272C35" cx="185.2" cy="139.8" r="125"></circle>
                        <circle stroke-width="3.7737" fill="#282D35" cx="185" cy="139.8" r="125"></circle>
                        <circle stroke-width="3.7746" fill="#282D36" cx="184.9" cy="139.8" r="125.1"></circle>
                        <circle stroke-width="3.7754" fill="#292E36" cx="184.7" cy="139.8" r="125.1"></circle>
                        <circle stroke-width="3.7763" fill="#292E37" cx="184.5" cy="139.8" r="125.2"></circle>
                        <circle stroke-width="3.7772" fill="#2A2F37" cx="184.3" cy="139.8" r="125.2"></circle>
                        <circle stroke-width="3.778" fill="#2B2F38" cx="184.2" cy="139.9" r="125.3"></circle>
                        <circle stroke-width="3.7789" fill="#2B3038" cx="184" cy="139.9" r="125.4"></circle>
                        <circle stroke-width="3.7798" fill="#2C3039" cx="183.8" cy="139.9" r="125.4"></circle>
                        <circle stroke-width="3.7806" fill="#2C3139" cx="183.6" cy="139.9" r="125.5"></circle>
                        <circle stroke-width="3.7815" fill="#2D313A" cx="183.5" cy="139.9" r="125.5"></circle>
                        <circle stroke-width="3.7824" fill="#2D323A" cx="183.3" cy="139.9" r="125.6"></circle>
                        <circle stroke-width="3.7832" fill="#2E323B" cx="183.1" cy="139.9" r="125.6"></circle>
                        <circle stroke-width="3.7841" fill="#2F333B" cx="183" cy="139.9" r="125.7"></circle>
                        <circle stroke-width="3.785" fill="#2F333C" cx="182.8" cy="139.9" r="125.8"></circle>
                        <circle stroke-width="3.7858" fill="#30343C" cx="182.6" cy="139.9" r="125.8"></circle>
                        <circle stroke-width="3.7867" fill="#30343D" cx="182.4" cy="139.9" r="125.9"></circle>
                        <circle stroke-width="3.7876" fill="#31353D" cx="182.3" cy="139.9" r="125.9"></circle>
                        <circle stroke-width="3.7884" fill="#31353E" cx="182.1" cy="139.9" r="126"></circle>
                        <circle stroke-width="3.7893" fill="#32363E" cx="181.9" cy="139.9" r="126"></circle>
                        <circle stroke-width="3.7902" fill="#33363F" cx="181.8" cy="139.9" r="126.1"></circle>
                        <circle stroke-width="3.791" fill="#33373F" cx="181.6" cy="139.9" r="126.1"></circle>
                        <circle stroke-width="3.7919" fill="#34373F" cx="181.4" cy="139.9" r="126.2"></circle>
                        <circle stroke-width="3.7928" fill="#343840" cx="181.2" cy="139.9" r="126.3"></circle>
                        <circle stroke-width="3.7936" fill="#353840" cx="181.1" cy="139.9" r="126.3"></circle>
                        <circle stroke-width="3.7945" fill="#353941" cx="180.9" cy="139.9" r="126.4"></circle>
                        <circle stroke-width="3.7954" fill="#363941" cx="180.7" cy="139.9" r="126.4"></circle>
                        <circle stroke-width="3.7962" fill="#373A42" cx="180.5" cy="139.9" r="126.5"></circle>
                        <circle stroke-width="3.7971" fill="#373A42" cx="180.4" cy="139.9" r="126.5"></circle>
                        <circle stroke-width="3.798" fill="#383B43" cx="180.2" cy="139.9" r="126.6"></circle>
                        <circle stroke-width="3.7988" fill="#383B43" cx="180" cy="139.9" r="126.7"></circle>
                        <circle stroke-width="3.7997" fill="#393C44" cx="179.9" cy="139.9" r="126.7"></circle>
                        <circle stroke-width="3.8006" fill="#393C44" cx="179.7" cy="139.9" r="126.8"></circle>
                        <circle stroke-width="3.8014" fill="#3A3D45" cx="179.5" cy="139.9" r="126.8"></circle>
                        <circle stroke-width="3.8023" fill="#3B3D45" cx="179.3" cy="139.9" r="126.9"></circle>
                        <circle stroke-width="3.8032" fill="#3B3E46" cx="179.2" cy="139.9" r="126.9"></circle>
                        <circle stroke-width="3.804" fill="#3C3E46" cx="179" cy="139.9" r="127"></circle>
                        <circle stroke-width="3.8049" fill="#3C3F47" cx="178.8" cy="139.9" r="127"></circle>
                        <circle stroke-width="3.8058" fill="#3D3F47" cx="178.7" cy="139.9" r="127.1"></circle>
                        <circle stroke-width="3.8066" fill="#3D4048" cx="178.5" cy="139.9" r="127.2"></circle>
                        <circle stroke-width="3.8075" fill="#3E4048" cx="178.3" cy="139.9" r="127.2"></circle>
                        <circle stroke-width="3.8084" fill="#3F4149" cx="178.1" cy="139.9" r="127.3"></circle>
                        <circle stroke-width="3.8092" fill="#3F4149" cx="178" cy="139.9" r="127.3"></circle>
                        <circle stroke-width="3.8101" fill="#40424A" cx="177.8" cy="139.9" r="127.4"></circle>
                        <circle stroke-width="3.811" fill="#40424A" cx="177.6" cy="139.9" r="127.4"></circle>
                        <circle stroke-width="3.8118" fill="#41434B" cx="177.4" cy="139.9" r="127.5"></circle>
                        <circle stroke-width="3.8127" fill="#41434B" cx="177.3" cy="139.9" r="127.5"></circle>
                        <circle stroke-width="3.8136" fill="#42444C" cx="177.1" cy="139.9" r="127.6"></circle>
                        <circle stroke-width="3.8144" fill="#43454D" cx="176.9" cy="139.9" r="127.7"></circle>
                        <circle stroke-width="3.8153" fill="#43454D" cx="176.8" cy="139.9" r="127.7"></circle>
                        <circle stroke-width="3.8162" fill="#44464E" cx="176.6" cy="139.9" r="127.8"></circle>
                        <circle stroke-width="3.817" fill="#44464E" cx="176.4" cy="139.9" r="127.8"></circle>
                        <circle stroke-width="3.8179" fill="#45474F" cx="176.2" cy="139.9" r="127.9"></circle>
                        <circle stroke-width="3.8188" fill="#46474F" cx="176.1" cy="139.9" r="127.9"></circle>
                        <circle stroke-width="3.8196" fill="#464850" cx="175.9" cy="139.9" r="128"></circle>
                        <circle stroke-width="3.8205" fill="#474850" cx="175.7" cy="139.9" r="128.1"></circle>
                        <circle stroke-width="3.8214" fill="#474951" cx="175.6" cy="139.9" r="128.1"></circle>
                        <circle stroke-width="3.8222" fill="#484951" cx="175.4" cy="139.9" r="128.2"></circle>
                        <circle stroke-width="3.8231" fill="#494A52" cx="175.2" cy="139.9" r="128.2"></circle>
                        <circle stroke-width="3.824" fill="#494A52" cx="175" cy="139.9" r="128.3"></circle>
                        <circle stroke-width="3.8248" fill="#4A4B53" cx="174.9" cy="139.9" r="128.3"></circle>
                        <circle stroke-width="3.8257" fill="#4A4C53" cx="174.7" cy="139.9" r="128.4"></circle>
                        <circle stroke-width="3.8266" fill="#4B4C54" cx="174.5" cy="139.9" r="128.4"></circle>
                        <circle stroke-width="3.8274" fill="#4C4D55" cx="174.4" cy="139.9" r="128.5"></circle>
                        <circle stroke-width="3.8283" fill="#4C4D55" cx="174.2" cy="139.9" r="128.6"></circle>
                        <circle stroke-width="3.8292" fill="#4D4E56" cx="174" cy="139.9" r="128.6"></circle>
                        <circle stroke-width="3.83" fill="#4D4E56" cx="173.8" cy="139.9" r="128.7"></circle>
                        <circle stroke-width="3.8309" fill="#4E4F57" cx="173.7" cy="139.9" r="128.7"></circle>
                        <circle stroke-width="3.8318" fill="#4F5057" cx="173.5" cy="139.9" r="128.8"></circle>
                        <circle stroke-width="3.8326" fill="#4F5058" cx="173.3" cy="139.9" r="128.8"></circle>
                        <circle stroke-width="3.8335" fill="#505159" cx="173.1" cy="139.9" r="128.9"></circle>
                        <circle stroke-width="3.8344" fill="#505159" cx="173" cy="139.9" r="128.9"></circle>
                        <circle stroke-width="3.8352" fill="#51525A" cx="172.8" cy="139.9" r="129"></circle>
                        <circle stroke-width="3.8361" fill="#52535A" cx="172.6" cy="139.9" r="129.1"></circle>
                        <circle stroke-width="3.837" fill="#52535B" cx="172.5" cy="139.9" r="129.1"></circle>
                        <circle stroke-width="3.8379" fill="#53545B" cx="172.3" cy="139.9" r="129.2"></circle>
                        <circle stroke-width="3.8387" fill="#54545C" cx="172.1" cy="139.9" r="129.2"></circle>
                        <circle stroke-width="3.8396" fill="#54555D" cx="171.9" cy="139.9" r="129.3"></circle>
                        <circle stroke-width="3.8405" fill="#55565D" cx="171.8" cy="139.9" r="129.3"></circle>
                        <circle stroke-width="3.8413" fill="#55565E" cx="171.6" cy="139.9" r="129.4"></circle>
                        <circle stroke-width="3.8422" fill="#56575E" cx="171.4" cy="139.9" r="129.5"></circle>
                        <circle stroke-width="3.8431" fill="#57575F" cx="171.3" cy="139.9" r="129.5"></circle>
                        <circle stroke-width="3.8439" fill="#575860" cx="171.1" cy="139.9" r="129.6"></circle>
                        <circle stroke-width="3.8448" fill="#585960" cx="170.9" cy="139.9" r="129.6"></circle>
                        <circle stroke-width="3.8457" fill="#595961" cx="170.7" cy="139.9" r="129.7"></circle>
                        <circle stroke-width="3.8465" fill="#595A61" cx="170.6" cy="139.9" r="129.7"></circle>
                        <circle stroke-width="3.8474" fill="#5A5A62" cx="170.4" cy="139.9" r="129.8"></circle>
                        <circle stroke-width="3.8483" fill="#5B5B63" cx="170.2" cy="139.9" r="129.8"></circle>
                        <circle stroke-width="3.8491" fill="#5B5C63" cx="170" cy="139.9" r="129.9"></circle>
                        <circle stroke-width="3.85" fill="#5C5C64" cx="169.9" cy="139.9" r="130"></circle>
                        <circle stroke-width="3.8509" fill="#5D5D65" cx="169.7" cy="139.9" r="130"></circle>
                        <circle stroke-width="3.8517" fill="#5D5E65" cx="169.5" cy="139.9" r="130.1"></circle>
                        <circle stroke-width="3.8526" fill="#5E5E66" cx="169.4" cy="139.9" r="130.1"></circle>
                        <circle stroke-width="3.8535" fill="#5F5F66" cx="169.2" cy="139.9" r="130.2"></circle>
                        <circle stroke-width="3.8543" fill="#5F5F67" cx="169" cy="139.9" r="130.2"></circle>
                        <circle stroke-width="3.8552" fill="#606068" cx="168.8" cy="139.9" r="130.3"></circle>
                        <circle stroke-width="3.8561" fill="#616168" cx="168.7" cy="139.9" r="130.4"></circle>
                        <circle stroke-width="3.8569" fill="#616169" cx="168.5" cy="139.9" r="130.4"></circle>
                        <circle stroke-width="3.8578" fill="#62626A" cx="168.3" cy="139.9" r="130.5"></circle>
                        <circle stroke-width="3.8587" fill="#63636A" cx="168.2" cy="139.9" r="130.5"></circle>
                        <circle stroke-width="3.8595" fill="#63636B" cx="168" cy="139.9" r="130.6"></circle>
                        <circle stroke-width="3.8604" fill="#64646C" cx="167.8" cy="139.9" r="130.6"></circle>
                        <circle stroke-width="3.8613" fill="#65656C" cx="167.6" cy="139.9" r="130.7"></circle>
                        <circle stroke-width="3.8621" fill="#65656D" cx="167.5" cy="139.9" r="130.7"></circle>
                        <circle stroke-width="3.863" fill="#66666D" cx="167.3" cy="139.9" r="130.8"></circle>
                        <circle stroke-width="3.8639" fill="#67676E" cx="167.1" cy="139.9" r="130.9"></circle>
                        <circle stroke-width="3.8647" fill="#68676F" cx="166.9" cy="139.9" r="130.9"></circle>
                        <circle stroke-width="3.8656" fill="#68686F" cx="166.8" cy="140" r="131"></circle>
                        <circle stroke-width="3.8665" fill="#696970" cx="166.6" cy="140" r="131"></circle>
                        <circle stroke-width="3.8673" fill="#6A6971" cx="166.4" cy="140" r="131.1"></circle>
                        <circle stroke-width="3.8682" fill="#6A6A71" cx="166.3" cy="140" r="131.1"></circle>
                        <circle stroke-width="3.8691" fill="#6B6B72" cx="166.1" cy="140" r="131.2"></circle>
                        <circle stroke-width="3.8699" fill="#6C6B73" cx="165.9" cy="140" r="131.2"></circle>
                        <circle stroke-width="3.8708" fill="#6C6C73" cx="165.7" cy="140" r="131.3"></circle>
                        <circle stroke-width="3.8717" fill="#6D6D74" cx="165.6" cy="140" r="131.4"></circle>
                        <circle stroke-width="3.8725" fill="#6E6E75" cx="165.4" cy="140" r="131.4"></circle>
                        <circle stroke-width="3.8734" fill="#6F6E75" cx="165.2" cy="140" r="131.5"></circle>
                        <circle stroke-width="3.8743" fill="#6F6F76" cx="165.1" cy="140" r="131.5"></circle>
                        <circle stroke-width="3.8751" fill="#707077" cx="164.9" cy="140" r="131.6"></circle>
                        <circle stroke-width="3.876" fill="#717078" cx="164.7" cy="140" r="131.6"></circle>
                        <circle stroke-width="3.8769" fill="#717178" cx="164.5" cy="140" r="131.7"></circle>
                        <circle stroke-width="3.8777" fill="#727279" cx="164.4" cy="140" r="131.8"></circle>
                        <circle stroke-width="3.8786" fill="#73737A" cx="164.2" cy="140" r="131.8"></circle>
                        <circle stroke-width="3.8795" fill="#74737A" cx="164" cy="140" r="131.9"></circle>
                        <circle stroke-width="3.8803" fill="#74747B" cx="163.8" cy="140" r="131.9"></circle>
                        <circle stroke-width="3.8812" fill="#75757C" cx="163.7" cy="140" r="132"></circle>
                        <circle stroke-width="3.8821" fill="#76757C" cx="163.5" cy="140" r="132"></circle>
                        <circle stroke-width="3.8829" fill="#77767D" cx="163.3" cy="140" r="132.1"></circle>
                        <circle stroke-width="3.8838" fill="#78777E" cx="163.2" cy="140" r="132.1"></circle>
                        <circle stroke-width="3.8847" fill="#78787F" cx="163" cy="140" r="132.2"></circle>
                        <circle stroke-width="3.8855" fill="#79787F" cx="162.8" cy="140" r="132.3"></circle>
                        <circle stroke-width="3.8864" fill="#7A7980" cx="162.6" cy="140" r="132.3"></circle>
                        <circle stroke-width="3.8873" fill="#7B7A81" cx="162.5" cy="140" r="132.4"></circle>
                        <circle stroke-width="3.8881" fill="#7B7B82" cx="162.3" cy="140" r="132.4"></circle>
                        <circle stroke-width="3.889" fill="#7C7C82" cx="162.1" cy="140" r="132.5"></circle>
                        <circle stroke-width="3.8899" fill="#7D7C83" cx="162" cy="140" r="132.5"></circle>
                        <circle stroke-width="3.8907" fill="#7E7D84" cx="161.8" cy="140" r="132.6"></circle>
                        <circle stroke-width="3.8916" fill="#7F7E85" cx="161.6" cy="140" r="132.6"></circle>
                        <circle stroke-width="3.8925" fill="#7F7F85" cx="161.4" cy="140" r="132.7"></circle>
                        <circle stroke-width="3.8933" fill="#807F86" cx="161.3" cy="140" r="132.8"></circle>
                        <circle stroke-width="3.8942" fill="#818087" cx="161.1" cy="140" r="132.8"></circle>
                        <circle stroke-width="3.8951" fill="#828188" cx="160.9" cy="140" r="132.9"></circle>
                        <circle stroke-width="3.8959" fill="#838288" cx="160.7" cy="140" r="132.9"></circle>
                        <circle stroke-width="3.8968" fill="#838389" cx="160.6" cy="140" r="133"></circle>
                        <circle stroke-width="3.8977" fill="#84838A" cx="160.4" cy="140" r="133"></circle>
                        <circle stroke-width="3.8985" fill="#85848B" cx="160.2" cy="140" r="133.1"></circle>
                        <circle stroke-width="3.8994" fill="#86858B" cx="160.1" cy="140" r="133.2"></circle>
                        <circle stroke-width="3.9003" fill="#87868C" cx="159.9" cy="140" r="133.2"></circle>
                        <circle stroke-width="3.9011" fill="#87868D" cx="159.7" cy="140" r="133.3"></circle>
                        <circle stroke-width="3.902" fill="#88878E" cx="159.5" cy="140" r="133.3"></circle>
                        <circle stroke-width="3.9029" fill="#89888E" cx="159.4" cy="140" r="133.4"></circle>
                        <circle stroke-width="3.9038" fill="#8A898F" cx="159.2" cy="140" r="133.4"></circle>
                        <circle stroke-width="3.9046" fill="#8B8A90" cx="159" cy="140" r="133.5"></circle>
                        <circle stroke-width="3.9055" fill="#8B8B91" cx="158.9" cy="140" r="133.5"></circle>
                        <circle stroke-width="3.9064" fill="#8C8B92" cx="158.7" cy="140" r="133.6"></circle>
                        <circle stroke-width="3.9072" fill="#8D8C92" cx="158.5" cy="140" r="133.7"></circle>
                        <circle stroke-width="3.9081" fill="#8E8D93" cx="158.3" cy="140" r="133.7"></circle>
                        <circle stroke-width="3.909" fill="#8F8E94" cx="158.2" cy="140" r="133.8"></circle>
                        <circle stroke-width="3.9098" fill="#908F95" cx="158" cy="140" r="133.8"></circle>
                        <circle stroke-width="3.9107" fill="#909095" cx="157.8" cy="140" r="133.9"></circle>
                        <circle stroke-width="3.9116" fill="#919096" cx="157.6" cy="140" r="133.9"></circle>
                        <circle stroke-width="3.9124" fill="#929197" cx="157.5" cy="140" r="134"></circle>
                        <circle stroke-width="3.9133" fill="#939298" cx="157.3" cy="140" r="134.1"></circle>
                        <circle stroke-width="3.9142" fill="#949399" cx="157.1" cy="140" r="134.1"></circle>
                        <circle stroke-width="3.915" fill="#959499" cx="157" cy="140" r="134.2"></circle>
                        <circle stroke-width="3.9159" fill="#96949A" cx="156.8" cy="140" r="134.2"></circle>
                        <circle stroke-width="3.9168" fill="#96959B" cx="156.6" cy="140" r="134.3"></circle>
                        <circle stroke-width="3.9176" fill="#97969C" cx="156.4" cy="140" r="134.3"></circle>
                        <circle stroke-width="3.9185" fill="#98979D" cx="156.3" cy="140" r="134.4"></circle>
                        <circle stroke-width="3.9194" fill="#99989D" cx="156.1" cy="140" r="134.4"></circle>
                        <circle stroke-width="3.9202" fill="#9A999E" cx="155.9" cy="140" r="134.5"></circle>
                        <circle stroke-width="3.9211" fill="#9B9A9F" cx="155.8" cy="140" r="134.6"></circle>
                        <circle stroke-width="3.922" fill="#9C9AA0" cx="155.6" cy="140" r="134.6"></circle>
                        <circle stroke-width="3.9228" fill="#9C9BA1" cx="155.4" cy="140" r="134.7"></circle>
                        <circle stroke-width="3.9237" fill="#9D9CA2" cx="155.2" cy="140" r="134.7"></circle>
                        <circle stroke-width="3.9246" fill="#9E9DA2" cx="155.1" cy="140" r="134.8"></circle>
                        <circle stroke-width="3.9254" fill="#9F9EA3" cx="154.9" cy="140" r="134.8"></circle>
                        <circle stroke-width="3.9263" fill="#A09FA4" cx="154.7" cy="140" r="134.9"></circle>
                        <circle stroke-width="3.9272" fill="#A1A0A5" cx="154.5" cy="140" r="134.9"></circle>
                        <circle stroke-width="3.928" fill="#A2A1A6" cx="154.4" cy="140" r="135"></circle>
                        <circle stroke-width="3.9289" fill="#A3A1A7" cx="154.2" cy="140" r="135.1"></circle>
                        <circle stroke-width="3.9298" fill="#A4A2A7" cx="154" cy="140" r="135.1"></circle>
                        <circle stroke-width="3.9306" fill="#A4A3A8" cx="153.9" cy="140" r="135.2"></circle>
                        <circle stroke-width="3.9315" fill="#A5A4A9" cx="153.7" cy="140" r="135.2"></circle>
                        <circle stroke-width="3.9324" fill="#A6A5AA" cx="153.5" cy="140" r="135.3"></circle>
                        <circle stroke-width="3.9332" fill="#A7A6AB" cx="153.3" cy="140" r="135.3"></circle>
                        <circle stroke-width="3.9341" fill="#A8A7AC" cx="153.2" cy="140" r="135.4"></circle>
                        <circle stroke-width="3.935" fill="#A9A8AC" cx="153" cy="140" r="135.5"></circle>
                        <circle stroke-width="3.9358" fill="#AAA9AD" cx="152.8" cy="140" r="135.5"></circle>
                        <circle stroke-width="3.9367" fill="#ABAAAE" cx="152.7" cy="140" r="135.6"></circle>
                        <circle stroke-width="3.9376" fill="#ACAAAF" cx="152.5" cy="140" r="135.6"></circle>
                        <circle stroke-width="3.9384" fill="#ADABB0" cx="152.3" cy="140" r="135.7"></circle>
                        <circle stroke-width="3.9393" fill="#AEACB1" cx="152.1" cy="140" r="135.7"></circle>
                        <circle stroke-width="3.9402" fill="#AFADB2" cx="152" cy="140" r="135.8"></circle>
                        <circle stroke-width="3.941" fill="#AFAEB3" cx="151.8" cy="140" r="135.8"></circle>
                        <circle stroke-width="3.9419" fill="#B0AFB3" cx="151.6" cy="140" r="135.9"></circle>
                        <circle stroke-width="3.9428" fill="#B1B0B4" cx="151.4" cy="140" r="136"></circle>
                        <circle stroke-width="3.9436" fill="#B2B1B5" cx="151.3" cy="140" r="136"></circle>
                        <circle stroke-width="3.9445" fill="#B3B2B6" cx="151.1" cy="140" r="136.1"></circle>
                        <circle stroke-width="3.9454" fill="#B4B3B7" cx="150.9" cy="140" r="136.1"></circle>
                        <circle stroke-width="3.9462" fill="#B5B4B8" cx="150.8" cy="140" r="136.2"></circle>
                        <circle stroke-width="3.9471" fill="#B6B5B9" cx="150.6" cy="140" r="136.2"></circle>
                        <circle stroke-width="3.948" fill="#B7B6BA" cx="150.4" cy="140" r="136.3"></circle>
                        <circle stroke-width="3.9488" fill="#B8B7BB" cx="150.2" cy="140" r="136.3"></circle>
                        <circle stroke-width="3.9497" fill="#B9B8BC" cx="150.1" cy="140" r="136.4"></circle>
                        <circle stroke-width="3.9506" fill="#BAB9BD" cx="149.9" cy="140" r="136.5"></circle>
                        <circle stroke-width="3.9514" fill="#BBBABD" cx="149.7" cy="140" r="136.5"></circle>
                        <circle stroke-width="3.9523" fill="#BCBBBE" cx="149.6" cy="140" r="136.6"></circle>
                        <circle stroke-width="3.9532" fill="#BDBCBF" cx="149.4" cy="140.1" r="136.6"></circle>
                        <circle stroke-width="3.954" fill="#BEBDC0" cx="149.2" cy="140.1" r="136.7"></circle>
                        <circle stroke-width="3.9549" fill="#BFBEC1" cx="149" cy="140.1" r="136.7"></circle>
                        <circle stroke-width="3.9558" fill="#C0BFC2" cx="148.9" cy="140.1" r="136.8"></circle>
                        <circle stroke-width="3.9566" fill="#C1C0C3" cx="148.7" cy="140.1" r="136.9"></circle>
                        <circle stroke-width="3.9575" fill="#C2C1C4" cx="148.5" cy="140.1" r="136.9"></circle>
                        <circle stroke-width="3.9584" fill="#C3C2C5" cx="148.3" cy="140.1" r="137"></circle>
                        <circle stroke-width="3.9592" fill="#C4C3C6" cx="148.2" cy="140.1" r="137"></circle>
                        <circle stroke-width="3.9601" fill="#C5C4C7" cx="148" cy="140.1" r="137.1"></circle>
                        <circle stroke-width="3.961" fill="#C6C5C8" cx="147.8" cy="140.1" r="137.1"></circle>
                        <circle stroke-width="3.9618" fill="#C7C6C9" cx="147.7" cy="140.1" r="137.2"></circle>
                        <circle stroke-width="3.9627" fill="#C8C7CA" cx="147.5" cy="140.1" r="137.2"></circle>
                        <circle stroke-width="3.9636" fill="#C9C8CB" cx="147.3" cy="140.1" r="137.3"></circle>
                        <circle stroke-width="3.9644" fill="#CAC9CC" cx="147.1" cy="140.1" r="137.4"></circle>
                        <circle stroke-width="3.9653" fill="#CBCACD" cx="147" cy="140.1" r="137.4"></circle>
                        <circle stroke-width="3.9662" fill="#CCCBCE" cx="146.8" cy="140.1" r="137.5"></circle>
                        <circle stroke-width="3.967" fill="#CDCCCF" cx="146.6" cy="140.1" r="137.5"></circle>
                        <circle stroke-width="3.9679" fill="#CECDD0" cx="146.5" cy="140.1" r="137.6"></circle>
                        <circle stroke-width="3.9688" fill="#CFCED1" cx="146.3" cy="140.1" r="137.6"></circle>
                        <circle stroke-width="3.9697" fill="#D0CFD2" cx="146.1" cy="140.1" r="137.7"></circle>
                        <circle stroke-width="3.9705" fill="#D1D0D3" cx="145.9" cy="140.1" r="137.8"></circle>
                        <circle stroke-width="3.9714" fill="#D3D1D4" cx="145.8" cy="140.1" r="137.8"></circle>
                        <circle stroke-width="3.9723" fill="#D4D2D5" cx="145.6" cy="140.1" r="137.9"></circle>
                        <circle stroke-width="3.9731" fill="#D5D4D6" cx="145.4" cy="140.1" r="137.9"></circle>
                        <circle stroke-width="3.974" fill="#D6D5D7" cx="145.2" cy="140.1" r="138"></circle>
                        <circle stroke-width="3.9749" fill="#D7D6D8" cx="145.1" cy="140.1" r="138"></circle>
                        <circle stroke-width="3.9757" fill="#D8D7D9" cx="144.9" cy="140.1" r="138.1"></circle>
                        <circle stroke-width="3.9766" fill="#D9D8DA" cx="144.7" cy="140.1" r="138.1"></circle>
                        <circle stroke-width="3.9775" fill="#DAD9DB" cx="144.6" cy="140.1" r="138.2"></circle>
                        <circle stroke-width="3.9783" fill="#DBDADC" cx="144.4" cy="140.1" r="138.3"></circle>
                        <circle stroke-width="3.9792" fill="#DCDBDD" cx="144.2" cy="140.1" r="138.3"></circle>
                        <circle stroke-width="3.9801" fill="#DDDCDE" cx="144" cy="140.1" r="138.4"></circle>
                        <circle stroke-width="3.9809" fill="#DEDDDF" cx="143.9" cy="140.1" r="138.4"></circle>
                        <circle stroke-width="3.9818" fill="#E0DFE0" cx="143.7" cy="140.1" r="138.5"></circle>
                        <circle stroke-width="3.9827" fill="#E1E0E1" cx="143.5" cy="140.1" r="138.5"></circle>
                        <circle stroke-width="3.9835" fill="#E2E1E2" cx="143.4" cy="140.1" r="138.6"></circle>
                        <circle stroke-width="3.9844" fill="#E3E2E3" cx="143.2" cy="140.1" r="138.6"></circle>
                        <circle stroke-width="3.9853" fill="#E4E3E4" cx="143" cy="140.1" r="138.7"></circle>
                        <circle stroke-width="3.9861" fill="#E5E4E6" cx="142.8" cy="140.1" r="138.8"></circle>
                        <circle stroke-width="3.987" fill="#E7E6E7" cx="142.7" cy="140.1" r="138.8"></circle>
                        <circle stroke-width="3.9879" fill="#E8E7E8" cx="142.5" cy="140.1" r="138.9"></circle>
                        <circle stroke-width="3.9887" fill="#E9E8E9" cx="142.3" cy="140.1" r="138.9"></circle>
                        <circle stroke-width="3.9896" fill="#EAE9EA" cx="142.1" cy="140.1" r="139"></circle>
                        <circle stroke-width="3.9905" fill="#ECEBEC" cx="142" cy="140.1" r="139"></circle>
                        <circle stroke-width="3.9913" fill="#EDECED" cx="141.8" cy="140.1" r="139.1"></circle>
                        <circle stroke-width="3.9922" fill="#EEEEEE" cx="141.6" cy="140.1" r="139.2"></circle>
                        <circle stroke-width="3.9931" fill="#F0EFF0" cx="141.5" cy="140.1" r="139.2"></circle>
                        <circle stroke-width="3.9939" fill="#F1F1F1" cx="141.3" cy="140.1" r="139.3"></circle>
                        <circle stroke-width="3.9948" fill="#F3F2F3" cx="141.1" cy="140.1" r="139.3"></circle>
                        <circle stroke-width="3.9957" fill="#F4F4F4" cx="140.9" cy="140.1" r="139.4"></circle>
                        <circle stroke-width="3.9965" fill="#F6F6F6" cx="140.8" cy="140.1" r="139.4"></circle>
                        <circle stroke-width="3.9974" fill="#F8F8F8" cx="140.6" cy="140.1" r="139.5"></circle>
                        <circle stroke-width="3.9983" fill="#FAFAFA" cx="140.4" cy="140.1" r="139.5"></circle>
                        <circle stroke-width="3.9991" fill="#FDFCFD" cx="140.3" cy="140.1" r="139.6"></circle>
                        <circle stroke-width="4" fill="#FFFFFF" cx="140.1" cy="140.1" r="139.7"></circle>
                    </g>
                    <g transform="translate(69.000000, 100.000000)">
                        <path d="M71.1,5.6 L71.1,5.6 C69.6,5.6 68.3,4.3 68.3,2.8 L68.3,2.8 C68.3,1.3 69.6,0 71.1,0 L71.1,0 C72.6,0 73.9,1.3 73.9,2.8 L73.9,2.8 C73.9,4.3 72.6,5.6 71.1,5.6 Z" id="Path" stroke="#0F1923" stroke-width="4" fill="#FFFFFF" fill-rule="nonzero"></path>
                        <path d="M137.8,101.3 L4.3,101.3 C2,101.3 0.1,99.4 0.1,97.1 L0.1,97.1 C0.1,94.8 2,92.9 4.3,92.9 L137.8,92.9 C140.1,92.9 142,94.8 142,97.1 L142,97.1 C142,99.4 140.1,101.3 137.8,101.3 Z" id="Path" fill="#0F1923" fill-rule="nonzero"></path>
                        <g transform="translate(26.000000, 148.000000)">
                            <g transform="translate(25.000000, 25.000000)" id="Path" stroke="#0F1923" stroke-linecap="round" stroke-linejoin="round">
                                <line x1="0.2" y1="4.4" x2="64.4" y2="4.4" stroke-width="3.5818"></line>
                                <path d="M45.9,8.3 L34.6,8.3 C32.4,8.3 30.6,6.5 30.6,4.3 L30.6,4.3 C30.6,2.1 32.4,0.3 34.6,0.3 L45.9,0.3 C48.1,0.3 49.9,2.1 49.9,4.3 L49.9,4.3 C49.9,6.5 48.1,8.3 45.9,8.3 Z" stroke-width="1.7909" fill="#0F1923" fill-rule="nonzero"></path>
                            </g>
                            <g transform="translate(25.000000, 3.000000)" id="Path" stroke="#0F1923" stroke-linecap="round" stroke-linejoin="round">
                                <line x1="0.2" y1="4.7" x2="64.4" y2="4.7" stroke-width="3.5818"></line>
                                <path d="M28.1,8.7 L16.8,8.7 C14.6,8.7 12.8,6.9 12.8,4.7 L12.8,4.7 C12.8,2.5 14.6,0.7 16.8,0.7 L28.1,0.7 C30.3,0.7 32.1,2.5 32.1,4.7 L32.1,4.7 C32,6.9 30.3,8.7 28.1,8.7 Z" stroke-width="1.7909" fill="#0F1923" fill-rule="nonzero"></path>
                            </g>
                            <g fill-rule="nonzero">
                                <path d="M6.2,33.3 L6.2,33.3 C3.2,33.3 0.8,30.9 0.8,27.9 L0.8,9.2 C0.8,6.2 3.2,3.8 6.2,3.8 L6.2,3.8 C9.2,3.8 11.6,6.2 11.6,9.2 L11.6,27.9 C11.6,30.9 9.2,33.3 6.2,33.3 Z" id="Path" stroke="#0F1923" stroke-width="3.2112" fill="#0F1923"></path>
                                <rect id="Rectangle" fill="#FFFFFF" x="1.6" y="0.2" width="2.4" height="34"></rect>
                            </g>
                        </g>
                        <g transform="translate(15.000000, 17.000000)" id="Path">
                            <path d="M89.8,52.1 L14.7,52.1 C6.9,52.1 0.6,45.8 0.6,38 L0.6,15 C0.6,7.2 6.9,0.9 14.7,0.9 L89.8,0.9 C97.6,0.9 103.9,7.2 103.9,15 L103.9,38 C103.8,45.8 97.5,52.1 89.8,52.1 Z" stroke="#0F1923" stroke-width="3"></path>
                            <g transform="translate(8.000000, 0.000000)" fill-rule="nonzero">
                                <path d="M89.5,52.1 L14.4,52.1 C6.6,52.1 0.3,45.8 0.3,38 L0.3,15 C0.3,7.2 6.6,0.9 14.4,0.9 L89.5,0.9 C97.3,0.9 103.6,7.2 103.6,15 L103.6,38 C103.6,45.8 97.3,52.1 89.5,52.1 Z" stroke="#0F1923" stroke-width="3" fill="#0F1923"></path>
                                <g transform="translate(23.000000, 15.000000)" fill="#FFFFFF">
                                    <path d="M5.8,22.2 L5,22.2 C2.2,22.2 0,19.9 0,17.2 L0,5.9 C0,3.1 2.3,0.9 5,0.9 L5.8,0.9 C8.6,0.9 10.8,3.2 10.8,5.9 L10.8,17.2 C10.8,19.9 8.6,22.2 5.8,22.2 Z"></path>
                                    <path d="M52.9,22.2 L52.1,22.2 C49.3,22.2 47.1,19.9 47.1,17.2 L47.1,5.9 C47.1,3.1 49.4,0.9 52.1,0.9 L52.9,0.9 C55.7,0.9 57.9,3.2 57.9,5.9 L57.9,17.2 C57.9,19.9 55.6,22.2 52.9,22.2 Z"></path>
                                </g>
                            </g>
                        </g>
                    </g>
                </g>
            </g>
        </g>
    </g>
</svg>