<?xml version="1.0" encoding="UTF-8"?>
<svg width="19px" height="16px" viewBox="0 0 19 16" version="1.1" xmlns="http://www.w3.org/2000/svg" xmlns:xlink="http://www.w3.org/1999/xlink">
    <!-- Generator: Sketch 55.2 (78181) - https://sketchapp.com -->
    <title>Untitled 2</title>
    <desc>Created with Sketch.</desc>
    <g id="Page-1" stroke="none" stroke-width="1" fill="none" fill-rule="evenodd">
        <g id="twitter" fill="#F7F7FA" fill-rule="nonzero">
            <path d="M6.20266667,15.252 C4.04,15.252 2.028,14.6173333 0.333333333,13.5306667 C2.36533333,13.7706667 4.39333333,13.2053333 6.00266667,11.9453333 C4.328,11.9146667 2.91333333,10.8066667 2.424,9.28533333 C3.02533333,9.4 3.61733333,9.36666667 4.15466667,9.22 C2.31333333,8.84933333 1.04133333,7.19066667 1.08266667,5.416 C1.6,5.70266667 2.18933333,5.87466667 2.81733333,5.89466667 C1.112,4.75466667 0.629333333,2.50266667 1.632,0.781333333 C3.52,3.09866667 6.34266667,4.62266667 9.52533333,4.78266667 C8.96666667,2.388 10.784,0.08 13.2573333,0.08 C14.3573333,0.08 15.3533333,0.545333333 16.052,1.28933333 C16.924,1.11866667 17.7453333,0.798666667 18.484,0.36 C18.1973333,1.25466667 17.5906667,2.004 16.8,2.47866667 C17.5746667,2.38533333 18.3133333,2.18 18.9986667,1.87466667 C18.4866667,2.64533333 17.8386667,3.32 17.088,3.86 C17.332,9.24666667 13.3146667,15.252 6.20266667,15.252 Z" id="Shape"></path>
        </g>
    </g>
</svg>