<?xml version="1.0" encoding="UTF-8"?>
<svg width="36px" height="30px" viewBox="0 0 36 30" version="1.1" xmlns="http://www.w3.org/2000/svg" xmlns:xlink="http://www.w3.org/1999/xlink">
    <title>Untitled</title>
    <defs>
        <path d="M8.79228036,27.1889355 L0.156986108,12.6192136 L7.62070539,0.0257527772 C7.65280816,0.026105555 10.6425998,0.0532694433 10.7925303,0.0723194429 L10.7925303,0.0723194429 C11.2751303,0.131938886 11.731272,0.291747216 12.1443747,0.632530542 L12.1443747,0.632530542 C13.0192636,1.35396108 13.1187469,2.34667773 12.8767414,3.34891937 L12.8767414,3.34891937 C12.7141108,4.02201936 12.8026581,4.53037212 13.2266969,5.03519711 L13.2266969,5.03519711 C13.5561914,5.42854432 13.3448775,5.80495821 13.0686525,6.21806097 L13.0686525,6.21806097 C13.8673414,6.64245263 13.8870969,7.26263595 13.6380358,8.00205816 L13.6380358,8.00205816 C13.4351886,8.60495537 13.5611303,8.74677203 14.1273386,8.93691925 L14.1273386,8.93691925 C14.4737663,9.05333591 14.8184302,9.22266924 15.1147636,9.43927479 L15.1147636,9.43927479 C15.6008913,9.79416923 15.7176608,10.3864831 15.3952219,10.9064775 L15.3952219,10.9064775 C14.682258,12.0547692 13.9812886,13.215408 13.1882442,14.3040802 L13.1882442,14.3040802 C12.6626053,15.0255108 12.4989164,15.6908497 12.9190747,16.5004746 L12.9190747,16.5004746 C13.2877275,17.2116746 13.1981219,17.9821413 12.9938636,18.6993385 L12.9938636,18.6993385 C12.5825247,20.1492551 12.1080386,21.5815329 11.629672,23.0102828 L11.629672,23.0102828 C11.3890775,23.7281856 10.6845803,25.210205 10.1455359,25.9979578 L10.1455359,25.9979578 C9.64847201,26.72468 8.91751647,27.1303744 8.80744981,27.1889355 L8.80744981,27.1889355 L8.79228036,27.1889355 Z" id="path-1"></path>
        <polygon id="path-3" points="0 0 100.188887 0 100.188887 100.188887 0 100.188887"></polygon>
        <path d="M6.81707763,27.1889355 C6.70701096,27.1303744 5.9764082,26.72468 5.47863877,25.9979578 L5.47863877,25.9979578 C4.93994711,25.210205 4.23544991,23.7281856 3.99520825,23.0102828 L3.99520825,23.0102828 C3.51613603,21.5815329 3.04235549,20.1492551 2.63031105,18.6993385 L2.63031105,18.6993385 C2.42675828,17.9821413 2.33679995,17.2116746 2.70545272,16.5004746 L2.70545272,16.5004746 C3.12525826,15.6908497 2.96192216,15.0255108 2.43628328,14.3040802 L2.43628328,14.3040802 C1.64288607,13.215408 0.941916646,12.0547692 0.229658328,10.9064775 L0.229658328,10.9064775 C-0.0934861091,10.3864831 0.0236361106,9.79416923 0.509763878,9.43927479 L0.509763878,9.43927479 C0.806097204,9.22266924 1.15076109,9.05333591 1.49718886,8.93691925 L1.49718886,8.93691925 C2.0630444,8.74677203 2.18933884,8.60495537 1.98649162,8.00205816 L1.98649162,8.00205816 C1.73743052,7.26263595 1.75718607,6.64245263 2.55622772,6.21806097 L2.55622772,6.21806097 C2.27929717,5.80495821 2.06833607,5.42854432 2.39818328,5.03519711 L2.39818328,5.03519711 C2.82186938,4.53037212 2.91006382,4.02201936 2.74778605,3.34891937 L2.74778605,3.34891937 C2.50613328,2.34667773 2.60491105,1.35396108 3.4801527,0.632530542 L3.4801527,0.632530542 C3.89360825,0.291747216 4.3497499,0.131938886 4.83234989,0.0723194429 L4.83234989,0.0723194429 C4.98263322,0.0532694433 7.97136649,0.026105555 8.00417482,0.0257527772 L8.00417482,0.0257527772 L15.4671885,12.6192136 L6.83259985,27.1889355 L6.81707763,27.1889355 Z" id="path-5"></path>
        <polygon id="path-7" points="0 0 100.188887 0 100.188887 100.188887 0 100.188887"></polygon>
    </defs>
    <g id="Page-1" stroke="none" stroke-width="1" fill="none" fill-rule="evenodd">
        <g id="encointer-blue" transform="translate(1.000000, 1.000000)">
            <g id="g929" transform="translate(8.209745, 14.105672) scale(-1, 1) rotate(-180.000000) translate(-8.209745, -14.105672) translate(0.272245, 0.347338)">
                <g id="g927-Clipped">
                    <mask id="mask-2" fill="white">
                        <use xlink:href="#path-1"></use>
                    </mask>
                    <g id="path845"></g>
                    <g id="g927" mask="url(#mask-2)">
                        <g transform="translate(-32.808333, -46.566666)" id="g925-Clipped">
                            <g>
                                <mask id="mask-4" fill="white">
                                    <use xlink:href="#path-3"></use>
                                </mask>
                                <g id="path849"></g>
                                <g id="g925" mask="url(#mask-4)" stroke-opacity="0.99134201">
                                    <g transform="translate(32.808333, 44.097221)">
                                        <g id="g891" transform="translate(7.196208, 2.477805)">
                                            <path d="M0,0 C0.0317499993,0 2.94357771,0.0275166661 3.08998049,0.0462138879 C3.55988048,0.106186109 4.00473325,0.265994439 4.4068999,0.606777764 C5.25956377,1.3282083 5.35622488,2.32092495 5.12056933,3.32316659 C4.96217211,3.99626658 5.04860267,4.50461935 5.46099988,5.00944433 C5.78273321,5.40243877 5.57706377,5.77885265 5.30718877,6.19195542 C6.08541653,6.61669985 6.10481931,7.2365304 5.8621082,7.9759526 C5.66455265,8.57849703 5.78731932,8.72066647 6.33871097,8.91081369 C6.6763193,9.02723036 7.01216373,9.19656369 7.30073595,9.41352201 C7.77416372,9.76841645 7.88811094,10.3603775 7.57378594,10.8807248 C6.87987207,12.0286636 6.19654153,13.1896553 5.42431099,14.2779747 C4.91207767,14.999758 4.75262212,15.6650969 5.16149155,16.4743691 C5.52061932,17.1859218 5.43313044,17.9556829 5.23486933,18.6735857 C4.83340823,20.1235023 4.3719749,21.5557801 3.90524991,22.9841773 C3.67100547,23.7024328 2.98485271,25.1844522 2.46027217,25.9718522 C1.97555551,26.6989272 1.26329719,27.1042688 1.15605275,27.16283" id="path889" stroke="#4A5FFF" stroke-width="0.699999999" fill="#0022CB" fill-rule="nonzero"></path>
                                        </g>
                                        <g id="g895" transform="translate(6.316345, 2.202533)">
                                            <path d="M0,0 C0.0250472217,0.00035277777 1.68345552,0.143580552 2.17804995,0.338313881 C2.37348884,0.360538881 2.53823606,0.392994436 2.62784161,0.420511102 C3.02330549,0.542219432 3.44769715,0.697088874 3.76978325,0.978252756 C4.88985267,1.95756385 4.68735823,3.13866382 4.70288045,3.88231936 C4.71240545,4.33422768 4.79530823,4.85034156 5.08035267,5.40138044 C5.26767766,5.7622721 5.20770544,6.11998875 5.10822211,6.50098875 C5.52132488,6.95783596 5.60951932,7.50005539 5.57918043,8.05497482 C5.57706377,8.10048315 5.41372766,8.68080259 5.39220821,8.72384147 C4.80059989,9.905647 7.31026095,9.90035534 4.77414156,14.4508358 C4.07599435,15.7039024 4.19558602,15.3017358 4.79883601,16.6648691 C4.80730267,16.6839191 5.25003877,17.263533 4.6799499,19.0157801 C4.22839435,20.4039607 3.94758325,21.697244 3.46357215,23.057555 C3.20851382,23.7726356 2.59538605,25.16893 2.13007218,25.9612689 C2.1138444,25.9884328 2.09761662,26.0152439 2.08138884,26.0417022 C1.66511107,26.7176244 1.10384164,27.1137938 1.01176664,27.2175105" id="path893" stroke="#4A5FFF" stroke-width="0.699999999" fill="#0022CB" fill-rule="nonzero"></path>
                                        </g>
                                        <g id="g899" transform="translate(5.436447, 1.927260)">
                                            <path d="M0,0 C0.026105555,0.00035277777 1.68204441,0.271638883 1.79175829,0.645230541 C2.14418329,0.779286094 2.84233049,0.984955534 3.13231382,1.35008053 C3.96275269,2.39500828 4.14125824,3.8847888 4.28554435,4.44147212 C4.65419712,5.86351932 4.75368045,8.82508869 4.75368045,8.82508869 C5.85716932,12.1842386 3.89925269,14.5894775 3.85797769,15.5176358 C3.8117638,16.5526857 4.37973601,17.4159329 4.2308638,18.1056135 C3.93064991,19.4892079 3.52354437,21.8387079 3.02189438,23.1309328 C2.73614438,23.86718 2.16852495,25.2433661 1.75930274,26.0300605 C1.4075833,26.7063355 0.948266646,27.1212022 0.867127759,27.2725438" id="path897" stroke="#4A5FFF" stroke-width="0.699999999" fill="#0022CB" fill-rule="nonzero"></path>
                                        </g>
                                        <g id="g903" transform="translate(4.556584, 1.652341)">
                                            <path d="M0,0 C0.0229305551,0 1.3155083,0.392994436 1.40723052,0.944738868 C1.70109441,1.11513053 1.97449718,1.36172219 2.23026106,1.72155552 C2.65994439,2.3248055 3.34786104,3.3817277 3.7341527,5.00591656 C3.98568325,6.06460264 4.10633324,7.92868038 4.19523324,8.85648592 C4.64925823,13.590058 2.94428327,14.2476358 3.49108881,17.2307246 C3.71474992,18.4516885 2.79576383,21.938544 2.44792495,23.203605 C2.23343606,23.9843022 1.89088885,25.2698244 1.54128608,26.0589883 C1.25377219,26.7073939 0.79092776,27.1293161 0.722841651,27.3268716" id="path901" stroke="#4A5FFF" stroke-width="0.699999999" fill="#0022CB" fill-rule="nonzero"></path>
                                        </g>
                                        <g id="g907" transform="translate(3.676685, 1.377068)">
                                            <path d="M0,0 C0.0204611107,0.00035277777 0.948972201,0.515055544 1.02270276,1.24389442 C1.25765275,1.45168052 1.48907497,1.71802774 1.68133885,2.09338329 C4.35221935,7.30003039 3.53201103,11.7284497 3.43534992,12.0427747 C3.15277493,12.9649358 2.17275829,21.9759384 1.96214996,23.2769828 C1.82950552,24.0971911 1.52329441,25.2952244 1.23507497,26.0879161 C1.00964998,26.7073939 0.633941653,27.1377827 0.578202765,27.3815522" id="path905" stroke="#4A5FFF" stroke-width="0.699999999" fill="#0022CB" fill-rule="nonzero"></path>
                                        </g>
                                        <g id="g911" transform="translate(2.796822, 1.101831)">
                                            <path d="M0,0 C0.0176388885,0.00035277777 0.758824983,0.637116653 0.814563871,1.54375552 C0.990952756,1.78823052 1.15181942,2.08950273 1.30880553,2.46485828 C1.61678052,3.2025166 4.06717491,9.4756109 2.04223051,15.5828997 C1.83409163,16.2104913 1.92616662,18.8545607 1.85208329,19.5026135 C1.70215274,20.7867245 1.63089163,22.0831828 1.47672775,23.3503606 C1.37336386,24.1970272 1.15323053,25.3192133 0.928863868,26.1171966 C0.763411094,26.7063355 0.476602767,27.1462494 0.433563879,27.4362327" id="path909" stroke="#4A5FFF" stroke-width="0.699999999" fill="#0022CB" fill-rule="nonzero"></path>
                                        </g>
                                        <g id="g915" transform="translate(1.916959, 0.826911)">
                                            <path d="M0,0 C0.0144638886,0 0.480836101,0.758824983 0.518230544,1.84326385 C0.636058319,2.12442773 3.29353326,10.1949248 1.36595553,15.8432497 C1.16310831,16.4383857 1.20014997,17.0934941 1.30316108,17.7842329 C1.39382497,18.3941857 1.37301108,19.0341246 1.32362219,19.6680662 C1.22413886,20.9190162 1.0918472,22.1900745 0.990599978,23.4230328 C0.918633313,24.2968634 0.778580538,25.3421439 0.622652764,26.1457716 C0.514349989,26.7042189 0.318911104,27.1543633 0.288924994,27.4909133" id="path913" stroke="#4A5FFF" stroke-width="0.699999999" fill="#0022CB" fill-rule="nonzero"></path>
                                        </g>
                                        <g id="g919" transform="translate(1.037061, 0.551639)">
                                            <path d="M0,0 C0.0116416664,0 0.273402772,0.886883314 0.398286102,2.1424194 C0.430388879,2.46485828 0.5094111,2.81551938 0.563386099,3.20816104 C0.663574985,3.94617214 1.91240829,11.6875275 0.689327763,16.1043052 C0.529166655,16.6839191 0.608188875,17.3316191 0.660399985,18.0026024 C0.706261096,18.5956218 0.69603054,19.2140412 0.671688874,19.8342246 C0.622652764,21.0516606 0.55527221,22.297319 0.504824989,23.4964106 C0.46672499,24.3970522 0.399697213,25.3650744 0.316088882,26.1750522 C0.262113883,26.7028077 0.161572219,27.16283 0.144638886,27.5455938" id="path917" stroke="#4A5FFF" stroke-width="0.699999999" fill="#0022CB" fill-rule="nonzero"></path>
                                        </g>
                                        <g id="g923" transform="translate(0.069003, 0.276366)">
                                            <path d="M0.35277777,0 C0.384174992,0.00035277777 0.35277777,12.5931081 0.35277777,12.5931081 C0.35277777,12.5931081 0.398991658,22.6825523 0.35277777,27.6006272" id="path921" stroke="#4A5FFF" stroke-width="0.699999999" fill="#0022CB" fill-rule="nonzero"></path>
                                        </g>
                                    </g>
                                </g>
                            </g>
                        </g>
                    </g>
                </g>
            </g>
            <g id="g971" transform="translate(26.377800, 14.105672) scale(-1, 1) rotate(-180.000000) translate(-26.377800, -14.105672) translate(18.616689, 0.347338)">
                <g id="g969-Clipped">
                    <mask id="mask-6" fill="white">
                        <use xlink:href="#path-5"></use>
                    </mask>
                    <g id="path853"></g>
                    <g id="g969" mask="url(#mask-6)">
                        <g transform="translate(-51.152777, -46.566666)" id="g967-Clipped">
                            <g>
                                <mask id="mask-8" fill="white">
                                    <use xlink:href="#path-7"></use>
                                </mask>
                                <g id="path857"></g>
                                <g id="g967" mask="url(#mask-8)" stroke-opacity="0.99134201">
                                    <g transform="translate(51.505554, 44.097221)">
                                        <g id="g933" transform="translate(0.314290, 2.477805)">
                                            <path d="M7.76111094,0 C7.72936094,0 4.81753323,0.0275166661 4.67113045,0.0462138879 C4.20123046,0.106186109 3.75637769,0.265994439 3.35421104,0.606777764 C2.50154717,1.3282083 2.40523884,2.32092495 2.64054161,3.32316659 C2.7992916,3.99626658 2.71286105,4.50461935 2.30011106,5.00944433 C1.97873051,5.40243877 2.18439995,5.77885265 2.45392217,6.19195542 C1.67604719,6.61669985 1.65629163,7.2365304 1.89900274,7.9759526 C2.09655829,8.57849703 1.97379162,8.72066647 1.42239997,8.91081369 C1.08479164,9.02723036 0.749299983,9.19656369 0.460727768,9.41352201 C-0.0130527775,9.76841645 -0.126647219,10.3603775 0.187324996,10.8807248 C0.881591647,12.0286636 1.56492219,13.1896553 2.33715273,14.2779747 C2.84903327,14.999758 3.0088416,15.6650969 2.59961939,16.4743691 C2.24049162,17.1859218 2.3279805,17.9556829 2.52624161,18.6735857 C2.92770271,20.1235023 3.38913604,21.5557801 3.85586103,22.9841773 C4.09010547,23.7024328 4.77625823,25.1844522 5.30119155,25.9718522 C5.78555543,26.6989272 6.49781375,27.1042688 6.60505819,27.16283" id="path931" stroke="#4A5FFF" stroke-width="0.699999999" fill="#0022CB" fill-rule="nonzero"></path>
                                        </g>
                                        <g id="g937" transform="translate(2.958042, 2.202533)">
                                            <path d="M5.99722209,0 C5.97252765,0.00035277777 4.31376657,0.143580552 3.81952492,0.338313881 C3.62373325,0.360538881 3.45898603,0.392994436 3.36938048,0.420511102 C2.9739166,0.542219432 2.54987772,0.697088874 2.22743884,0.978252756 C1.10736942,1.95756385 1.31021664,3.13866382 1.29434164,3.88231936 C1.28481664,4.33422768 1.20191386,4.85034156 0.916869424,5.40138044 C0.729544428,5.7622721 0.789869427,6.11998875 0.889352758,6.50098875 C0.475897212,6.95783596 0.388055547,7.50005539 0.418041657,8.05497482 C0.420158324,8.10048315 0.583494432,8.68080259 0.605013876,8.72384147 C1.1966222,9.905647 -1.31268608,9.90035534 1.22308053,14.4508358 C1.92122774,15.7039024 1.80198885,15.3017358 1.19838608,16.6648691 C1.1902722,16.6839191 0.747536095,17.263533 1.31727219,19.0157801 C1.76882774,20.4039607 2.04963884,21.697244 2.53364994,23.057555 C2.78870827,23.7726356 3.40218881,25.16893 3.86714991,25.9612689 C3.88337769,25.9884328 3.89960547,26.0152439 3.91583325,26.0417022 C4.33246379,26.7176244 4.89338045,27.1137938 4.98580822,27.2175105" id="path935" stroke="#4A5FFF" stroke-width="0.699999999" fill="#0022CB" fill-rule="nonzero"></path>
                                        </g>
                                        <g id="g941" transform="translate(4.543495, 1.927260)">
                                            <path d="M5.29166655,0 C5.26591377,0.00035277777 3.60997492,0.271638883 3.49990826,0.645230541 C3.14748326,0.779286094 2.44933606,0.984955534 2.15935273,1.35008053 C1.32926664,2.39500828 1.15076109,3.8847888 1.00647498,4.44147212 C0.63746943,5.86351932 0.537986099,8.82508869 0.537986099,8.82508869 C-0.565502765,12.1842386 1.39241386,14.5894775 1.43368886,15.5176358 C1.47990275,16.5526857 0.911930535,17.4159329 1.06080275,18.1056135 C1.36136941,19.4892079 1.76812218,21.8387079 2.26977217,23.1309328 C2.55552217,23.86718 3.1231416,25.2433661 3.53271659,26.0300605 C3.88443603,26.7063355 4.3433999,27.1212022 4.42453879,27.2725438" id="path939" stroke="#4A5FFF" stroke-width="0.699999999" fill="#0022CB" fill-rule="nonzero"></path>
                                        </g>
                                        <g id="g945" transform="translate(6.128914, 1.652341)">
                                            <path d="M4.58611101,0 C4.56318045,0 3.27060271,0.392994436 3.17923326,0.944738868 C2.88536938,1.11513053 2.61196661,1.36172219 2.35584995,1.72155552 C1.92616662,2.3248055 1.23824997,3.3817277 0.852311092,5.00591656 C0.600427765,6.06460264 0.480130545,7.92868038 0.390877769,8.85648592 C-0.0631472208,13.590058 1.64218052,14.2476358 1.0950222,17.2307246 C0.87171387,18.4516885 1.79069996,21.938544 2.13818606,23.203605 C2.35267495,23.9843022 2.69522216,25.2698244 3.04517771,26.0589883 C3.33233882,26.7073939 3.79518325,27.1293161 3.86362214,27.3268716" id="path943" stroke="#4A5FFF" stroke-width="0.699999999" fill="#0022CB" fill-rule="nonzero"></path>
                                        </g>
                                        <g id="g949" transform="translate(7.714368, 1.377068)">
                                            <path d="M3.88055547,0 C3.86009436,0.00035277777 2.93193605,0.515055544 2.85820549,1.24389442 C2.62290272,1.45168052 2.3914805,1.71802774 2.19921662,2.09338329 C-0.471311101,7.30003039 0.348897215,11.7284497 0.445205546,12.0427747 C0.728133317,12.9649358 1.70779718,21.9759384 1.91840551,23.2769828 C2.05104995,24.0971911 2.35726106,25.2952244 2.6454805,26.0879161 C2.87090549,26.7073939 3.2469666,27.1377827 3.3023527,27.3815522" id="path947" stroke="#4A5FFF" stroke-width="0.699999999" fill="#0022CB" fill-rule="nonzero"></path>
                                        </g>
                                        <g id="g953" transform="translate(9.299786, 1.101831)">
                                            <path d="M3.17499993,0 C3.15771382,0.00035277777 2.41617495,0.637116653 2.36043606,1.54375552 C2.18404717,1.78823052 2.02318051,2.08950273 1.86654718,2.46485828 C1.55857219,3.2025166 -0.891822203,9.4756109 1.13276942,15.5828997 C1.34126108,16.2104913 1.24883331,18.8545607 1.32326942,19.5026135 C1.47284719,20.7867245 1.5441083,22.0831828 1.69862496,23.3503606 C1.80198885,24.1970272 2.02212218,25.3192133 2.24613606,26.1171966 C2.41194161,26.7063355 2.69874994,27.1462494 2.74143605,27.4362327" id="path951" stroke="#4A5FFF" stroke-width="0.699999999" fill="#0022CB" fill-rule="nonzero"></path>
                                        </g>
                                        <g id="g957" transform="translate(11.237983, 0.826911)">
                                            <path d="M2.11666662,0 C2.10220273,0 1.63583052,0.758824983 1.59843608,1.84326385 C1.48096108,2.12442773 -1.17651386,10.1949248 0.751063872,15.8432497 C0.95391109,16.4383857 0.916869424,17.0934941 0.813505538,17.7842329 C0.722841651,18.3941857 0.744008317,19.0341246 0.793044427,19.6680662 C0.892527758,20.9190162 1.02481942,22.1900745 1.12606664,23.4230328 C1.19803331,24.2968634 1.33808608,25.3421439 1.49401386,26.1457716 C1.60266941,26.7042189 1.79810829,27.1543633 1.82774163,27.4909133" id="path955" stroke="#4A5FFF" stroke-width="0.699999999" fill="#0022CB" fill-rule="nonzero"></path>
                                        </g>
                                        <g id="g961" transform="translate(12.823437, 0.551639)">
                                            <path d="M1.41111108,0 C1.39946941,0 1.13806109,0.886883314 1.01282498,2.1424194 C0.980722201,2.46485828 0.90169998,2.81551938 0.848077759,3.20816104 C0.747536095,3.94617214 -0.501297211,11.6875275 0.721783317,16.1043052 C0.882297203,16.6839191 0.802922205,17.3316191 0.751063872,18.0026024 C0.704849984,18.5956218 0.71508054,19.2140412 0.739774984,19.8342246 C0.788458316,21.0516606 0.856191648,22.297319 0.906286091,23.4964106 C0.94438609,24.3970522 1.01176664,25.3650744 1.0950222,26.1750522 C1.1489972,26.7028077 1.24989164,27.16283 1.26682497,27.5455938" id="path959" stroke="#4A5FFF" stroke-width="0.699999999" fill="#0022CB" fill-rule="nonzero"></path>
                                        </g>
                                        <g id="g965" transform="translate(14.497050, 0.276366)">
                                            <path d="M0.35277777,0 C0.321380548,0.00035277777 0.35277777,12.5931081 0.35277777,12.5931081 C0.35277777,12.5931081 0.306563882,22.6825523 0.35277777,27.6006272" id="path963" stroke="#4A5FFF" stroke-width="0.699999999" fill="#0022CB" fill-rule="nonzero"></path>
                                        </g>
                                    </g>
                                </g>
                            </g>
                        </g>
                    </g>
                </g>
            </g>
        </g>
    </g>
</svg>